G04 #@! TF.GenerationSoftware,KiCad,Pcbnew,5.0.2+dfsg1-1*
G04 #@! TF.CreationDate,2020-10-18T13:54:17+02:00*
G04 #@! TF.ProjectId,v1adapter,76316164-6170-4746-9572-2e6b69636164,rev?*
G04 #@! TF.SameCoordinates,Original*
G04 #@! TF.FileFunction,Copper,L2,Bot*
G04 #@! TF.FilePolarity,Positive*
%FSLAX46Y46*%
G04 Gerber Fmt 4.6, Leading zero omitted, Abs format (unit mm)*
G04 Created by KiCad (PCBNEW 5.0.2+dfsg1-1) date Sun 18 Oct 2020 01:54:17 PM CEST*
%MOMM*%
%LPD*%
G01*
G04 APERTURE LIST*
G04 #@! TA.AperFunction,ComponentPad*
%ADD10R,1.700000X1.700000*%
G04 #@! TD*
G04 #@! TA.AperFunction,ComponentPad*
%ADD11O,1.700000X1.700000*%
G04 #@! TD*
G04 #@! TA.AperFunction,ComponentPad*
%ADD12C,1.700000*%
G04 #@! TD*
G04 #@! TA.AperFunction,Conductor*
%ADD13C,0.250000*%
G04 #@! TD*
G04 #@! TA.AperFunction,Conductor*
%ADD14C,0.254000*%
G04 #@! TD*
G04 APERTURE END LIST*
D10*
G04 #@! TO.P,,1*
G04 #@! TO.N,VCC*
X104140000Y-81280000D03*
G04 #@! TO.P,,2*
X106680000Y-81280000D03*
D11*
G04 #@! TO.P,,3*
G04 #@! TO.N,Net-(J1-Pad3)*
X109220000Y-81280000D03*
G04 #@! TO.P,,4*
G04 #@! TO.N,Net-(J1-Pad4)*
X111760000Y-81280000D03*
G04 #@! TO.P,,5*
G04 #@! TO.N,Net-(J1-Pad5)*
X114300000Y-81280000D03*
G04 #@! TO.P,,6*
G04 #@! TO.N,Net-(J1-Pad6)*
X116840000Y-81280000D03*
G04 #@! TO.P,,7*
G04 #@! TO.N,GND*
X119380000Y-81280000D03*
G04 #@! TO.P,,8*
X121920000Y-81280000D03*
G04 #@! TD*
G04 #@! TO.P,,8*
G04 #@! TO.N,GND*
X121920000Y-83820000D03*
G04 #@! TO.P,,7*
G04 #@! TO.N,Net-(J1-Pad6)*
X119380000Y-83820000D03*
G04 #@! TO.P,,6*
G04 #@! TO.N,Net-(J1-Pad5)*
X116840000Y-83820000D03*
G04 #@! TO.P,,5*
G04 #@! TO.N,Net-(J1-Pad4)*
X114300000Y-83820000D03*
G04 #@! TO.P,,4*
G04 #@! TO.N,Net-(J1-Pad3)*
X111760000Y-83820000D03*
G04 #@! TO.P,,3*
G04 #@! TO.N,Net-(J2-Pad3)*
X109220000Y-83820000D03*
G04 #@! TO.P,,2*
G04 #@! TO.N,GND*
X106680000Y-83820000D03*
D10*
G04 #@! TO.P,,1*
G04 #@! TO.N,VCC*
X104140000Y-83820000D03*
G04 #@! TD*
G04 #@! TO.P,,1*
G04 #@! TO.N,VCC*
X106680000Y-78740000D03*
G04 #@! TD*
D12*
G04 #@! TO.P,,1*
G04 #@! TO.N,GND*
X119380000Y-78740000D03*
G04 #@! TD*
D13*
G04 #@! TO.N,Net-(J1-Pad3)*
X109220000Y-81280000D02*
X111760000Y-83820000D01*
G04 #@! TO.N,Net-(J1-Pad4)*
X112609999Y-82129999D02*
X114300000Y-83820000D01*
X111760000Y-81280000D02*
X112609999Y-82129999D01*
G04 #@! TO.N,Net-(J1-Pad5)*
X114300000Y-81280000D02*
X116840000Y-83820000D01*
G04 #@! TO.N,Net-(J1-Pad6)*
X116840000Y-81280000D02*
X119380000Y-83820000D01*
G04 #@! TD*
D14*
G04 #@! TO.N,GND*
G36*
X122763001Y-84663000D02*
X120232290Y-84663000D01*
X120488709Y-84279242D01*
X120580058Y-83820000D01*
X120488709Y-83360758D01*
X120228569Y-82971431D01*
X119839242Y-82711291D01*
X119495920Y-82643000D01*
X119264080Y-82643000D01*
X118920758Y-82711291D01*
X118914618Y-82715394D01*
X117944606Y-81745382D01*
X117948709Y-81739242D01*
X118040058Y-81280000D01*
X117948709Y-80820758D01*
X117688569Y-80431431D01*
X117299242Y-80171291D01*
X116955920Y-80103000D01*
X116724080Y-80103000D01*
X116380758Y-80171291D01*
X115991431Y-80431431D01*
X115731291Y-80820758D01*
X115639942Y-81280000D01*
X115731291Y-81739242D01*
X115991431Y-82128569D01*
X116380758Y-82388709D01*
X116724080Y-82457000D01*
X116955920Y-82457000D01*
X117299242Y-82388709D01*
X117305382Y-82384606D01*
X118275394Y-83354618D01*
X118271291Y-83360758D01*
X118179942Y-83820000D01*
X118271291Y-84279242D01*
X118527710Y-84663000D01*
X117692290Y-84663000D01*
X117948709Y-84279242D01*
X118040058Y-83820000D01*
X117948709Y-83360758D01*
X117688569Y-82971431D01*
X117299242Y-82711291D01*
X116955920Y-82643000D01*
X116724080Y-82643000D01*
X116380758Y-82711291D01*
X116374618Y-82715394D01*
X115404606Y-81745382D01*
X115408709Y-81739242D01*
X115500058Y-81280000D01*
X115408709Y-80820758D01*
X115148569Y-80431431D01*
X114759242Y-80171291D01*
X114415920Y-80103000D01*
X114184080Y-80103000D01*
X113840758Y-80171291D01*
X113451431Y-80431431D01*
X113191291Y-80820758D01*
X113099942Y-81280000D01*
X113191291Y-81739242D01*
X113451431Y-82128569D01*
X113840758Y-82388709D01*
X114184080Y-82457000D01*
X114415920Y-82457000D01*
X114759242Y-82388709D01*
X114765382Y-82384606D01*
X115735394Y-83354618D01*
X115731291Y-83360758D01*
X115639942Y-83820000D01*
X115731291Y-84279242D01*
X115987710Y-84663000D01*
X115152290Y-84663000D01*
X115408709Y-84279242D01*
X115500058Y-83820000D01*
X115408709Y-83360758D01*
X115148569Y-82971431D01*
X114759242Y-82711291D01*
X114415920Y-82643000D01*
X114184080Y-82643000D01*
X113840758Y-82711291D01*
X113834618Y-82715394D01*
X112961092Y-81841868D01*
X112961090Y-81841865D01*
X112864607Y-81745382D01*
X112868709Y-81739242D01*
X112960058Y-81280000D01*
X112868709Y-80820758D01*
X112608569Y-80431431D01*
X112219242Y-80171291D01*
X111875920Y-80103000D01*
X111644080Y-80103000D01*
X111300758Y-80171291D01*
X110911431Y-80431431D01*
X110651291Y-80820758D01*
X110559942Y-81280000D01*
X110651291Y-81739242D01*
X110911431Y-82128569D01*
X111300758Y-82388709D01*
X111644080Y-82457000D01*
X111875920Y-82457000D01*
X112219242Y-82388709D01*
X112225382Y-82384607D01*
X112321865Y-82481090D01*
X112321868Y-82481092D01*
X113195394Y-83354618D01*
X113191291Y-83360758D01*
X113099942Y-83820000D01*
X113191291Y-84279242D01*
X113447710Y-84663000D01*
X112612290Y-84663000D01*
X112868709Y-84279242D01*
X112960058Y-83820000D01*
X112868709Y-83360758D01*
X112608569Y-82971431D01*
X112219242Y-82711291D01*
X111875920Y-82643000D01*
X111644080Y-82643000D01*
X111300758Y-82711291D01*
X111294618Y-82715394D01*
X110324606Y-81745382D01*
X110328709Y-81739242D01*
X110420058Y-81280000D01*
X110328709Y-80820758D01*
X110068569Y-80431431D01*
X109679242Y-80171291D01*
X109335920Y-80103000D01*
X109104080Y-80103000D01*
X108760758Y-80171291D01*
X108371431Y-80431431D01*
X108111291Y-80820758D01*
X108023000Y-81264626D01*
X108023000Y-77897000D01*
X122763000Y-77897000D01*
X122763001Y-84663000D01*
X122763001Y-84663000D01*
G37*
X122763001Y-84663000D02*
X120232290Y-84663000D01*
X120488709Y-84279242D01*
X120580058Y-83820000D01*
X120488709Y-83360758D01*
X120228569Y-82971431D01*
X119839242Y-82711291D01*
X119495920Y-82643000D01*
X119264080Y-82643000D01*
X118920758Y-82711291D01*
X118914618Y-82715394D01*
X117944606Y-81745382D01*
X117948709Y-81739242D01*
X118040058Y-81280000D01*
X117948709Y-80820758D01*
X117688569Y-80431431D01*
X117299242Y-80171291D01*
X116955920Y-80103000D01*
X116724080Y-80103000D01*
X116380758Y-80171291D01*
X115991431Y-80431431D01*
X115731291Y-80820758D01*
X115639942Y-81280000D01*
X115731291Y-81739242D01*
X115991431Y-82128569D01*
X116380758Y-82388709D01*
X116724080Y-82457000D01*
X116955920Y-82457000D01*
X117299242Y-82388709D01*
X117305382Y-82384606D01*
X118275394Y-83354618D01*
X118271291Y-83360758D01*
X118179942Y-83820000D01*
X118271291Y-84279242D01*
X118527710Y-84663000D01*
X117692290Y-84663000D01*
X117948709Y-84279242D01*
X118040058Y-83820000D01*
X117948709Y-83360758D01*
X117688569Y-82971431D01*
X117299242Y-82711291D01*
X116955920Y-82643000D01*
X116724080Y-82643000D01*
X116380758Y-82711291D01*
X116374618Y-82715394D01*
X115404606Y-81745382D01*
X115408709Y-81739242D01*
X115500058Y-81280000D01*
X115408709Y-80820758D01*
X115148569Y-80431431D01*
X114759242Y-80171291D01*
X114415920Y-80103000D01*
X114184080Y-80103000D01*
X113840758Y-80171291D01*
X113451431Y-80431431D01*
X113191291Y-80820758D01*
X113099942Y-81280000D01*
X113191291Y-81739242D01*
X113451431Y-82128569D01*
X113840758Y-82388709D01*
X114184080Y-82457000D01*
X114415920Y-82457000D01*
X114759242Y-82388709D01*
X114765382Y-82384606D01*
X115735394Y-83354618D01*
X115731291Y-83360758D01*
X115639942Y-83820000D01*
X115731291Y-84279242D01*
X115987710Y-84663000D01*
X115152290Y-84663000D01*
X115408709Y-84279242D01*
X115500058Y-83820000D01*
X115408709Y-83360758D01*
X115148569Y-82971431D01*
X114759242Y-82711291D01*
X114415920Y-82643000D01*
X114184080Y-82643000D01*
X113840758Y-82711291D01*
X113834618Y-82715394D01*
X112961092Y-81841868D01*
X112961090Y-81841865D01*
X112864607Y-81745382D01*
X112868709Y-81739242D01*
X112960058Y-81280000D01*
X112868709Y-80820758D01*
X112608569Y-80431431D01*
X112219242Y-80171291D01*
X111875920Y-80103000D01*
X111644080Y-80103000D01*
X111300758Y-80171291D01*
X110911431Y-80431431D01*
X110651291Y-80820758D01*
X110559942Y-81280000D01*
X110651291Y-81739242D01*
X110911431Y-82128569D01*
X111300758Y-82388709D01*
X111644080Y-82457000D01*
X111875920Y-82457000D01*
X112219242Y-82388709D01*
X112225382Y-82384607D01*
X112321865Y-82481090D01*
X112321868Y-82481092D01*
X113195394Y-83354618D01*
X113191291Y-83360758D01*
X113099942Y-83820000D01*
X113191291Y-84279242D01*
X113447710Y-84663000D01*
X112612290Y-84663000D01*
X112868709Y-84279242D01*
X112960058Y-83820000D01*
X112868709Y-83360758D01*
X112608569Y-82971431D01*
X112219242Y-82711291D01*
X111875920Y-82643000D01*
X111644080Y-82643000D01*
X111300758Y-82711291D01*
X111294618Y-82715394D01*
X110324606Y-81745382D01*
X110328709Y-81739242D01*
X110420058Y-81280000D01*
X110328709Y-80820758D01*
X110068569Y-80431431D01*
X109679242Y-80171291D01*
X109335920Y-80103000D01*
X109104080Y-80103000D01*
X108760758Y-80171291D01*
X108371431Y-80431431D01*
X108111291Y-80820758D01*
X108023000Y-81264626D01*
X108023000Y-77897000D01*
X122763000Y-77897000D01*
X122763001Y-84663000D01*
G36*
X108111291Y-81739242D02*
X108371431Y-82128569D01*
X108760758Y-82388709D01*
X109104080Y-82457000D01*
X109335920Y-82457000D01*
X109679242Y-82388709D01*
X109685382Y-82384606D01*
X110655394Y-83354618D01*
X110651291Y-83360758D01*
X110559942Y-83820000D01*
X110651291Y-84279242D01*
X110907710Y-84663000D01*
X110072290Y-84663000D01*
X110328709Y-84279242D01*
X110420058Y-83820000D01*
X110328709Y-83360758D01*
X110068569Y-82971431D01*
X109679242Y-82711291D01*
X109335920Y-82643000D01*
X109104080Y-82643000D01*
X108760758Y-82711291D01*
X108371431Y-82971431D01*
X108111291Y-83360758D01*
X108019942Y-83820000D01*
X108111291Y-84279242D01*
X108367710Y-84663000D01*
X105737000Y-84663000D01*
X105737000Y-83320448D01*
X106180448Y-82877000D01*
X107315000Y-82877000D01*
X107440137Y-82852109D01*
X107546224Y-82781224D01*
X107927224Y-82400224D01*
X107998109Y-82294137D01*
X108023000Y-82169000D01*
X108023000Y-81295374D01*
X108111291Y-81739242D01*
X108111291Y-81739242D01*
G37*
X108111291Y-81739242D02*
X108371431Y-82128569D01*
X108760758Y-82388709D01*
X109104080Y-82457000D01*
X109335920Y-82457000D01*
X109679242Y-82388709D01*
X109685382Y-82384606D01*
X110655394Y-83354618D01*
X110651291Y-83360758D01*
X110559942Y-83820000D01*
X110651291Y-84279242D01*
X110907710Y-84663000D01*
X110072290Y-84663000D01*
X110328709Y-84279242D01*
X110420058Y-83820000D01*
X110328709Y-83360758D01*
X110068569Y-82971431D01*
X109679242Y-82711291D01*
X109335920Y-82643000D01*
X109104080Y-82643000D01*
X108760758Y-82711291D01*
X108371431Y-82971431D01*
X108111291Y-83360758D01*
X108019942Y-83820000D01*
X108111291Y-84279242D01*
X108367710Y-84663000D01*
X105737000Y-84663000D01*
X105737000Y-83320448D01*
X106180448Y-82877000D01*
X107315000Y-82877000D01*
X107440137Y-82852109D01*
X107546224Y-82781224D01*
X107927224Y-82400224D01*
X107998109Y-82294137D01*
X108023000Y-82169000D01*
X108023000Y-81295374D01*
X108111291Y-81739242D01*
G04 #@! TO.N,VCC*
G36*
X107569000Y-82116394D02*
X107262394Y-82423000D01*
X106045000Y-82423000D01*
X105996399Y-82432667D01*
X105955197Y-82460197D01*
X105320197Y-83095197D01*
X105292667Y-83136399D01*
X105283000Y-83185000D01*
X105283000Y-84663000D01*
X103297000Y-84663000D01*
X103297000Y-77897000D01*
X107569000Y-77897000D01*
X107569000Y-82116394D01*
X107569000Y-82116394D01*
G37*
X107569000Y-82116394D02*
X107262394Y-82423000D01*
X106045000Y-82423000D01*
X105996399Y-82432667D01*
X105955197Y-82460197D01*
X105320197Y-83095197D01*
X105292667Y-83136399D01*
X105283000Y-83185000D01*
X105283000Y-84663000D01*
X103297000Y-84663000D01*
X103297000Y-77897000D01*
X107569000Y-77897000D01*
X107569000Y-82116394D01*
G04 #@! TD*
M02*
