G04 #@! TF.GenerationSoftware,KiCad,Pcbnew,5.0.2+dfsg1-1*
G04 #@! TF.CreationDate,2020-07-05T13:54:42+02:00*
G04 #@! TF.ProjectId,edgedriver,65646765-6472-4697-9665-722e6b696361,rev?*
G04 #@! TF.SameCoordinates,Original*
G04 #@! TF.FileFunction,Copper,L4,Bot*
G04 #@! TF.FilePolarity,Positive*
%FSLAX46Y46*%
G04 Gerber Fmt 4.6, Leading zero omitted, Abs format (unit mm)*
G04 Created by KiCad (PCBNEW 5.0.2+dfsg1-1) date Sun Jul  5 13:54:42 2020*
%MOMM*%
%LPD*%
G01*
G04 APERTURE LIST*
G04 #@! TA.AperFunction,SMDPad,CuDef*
%ADD10R,0.900000X2.000000*%
G04 #@! TD*
G04 #@! TA.AperFunction,SMDPad,CuDef*
%ADD11R,5.000000X5.000000*%
G04 #@! TD*
G04 #@! TA.AperFunction,ComponentPad*
%ADD12C,1.700000*%
G04 #@! TD*
G04 #@! TA.AperFunction,Conductor*
%ADD13C,1.700000*%
G04 #@! TD*
G04 #@! TA.AperFunction,ComponentPad*
%ADD14O,1.700000X1.700000*%
G04 #@! TD*
G04 #@! TA.AperFunction,ViaPad*
%ADD15C,0.600000*%
G04 #@! TD*
G04 #@! TA.AperFunction,Conductor*
%ADD16C,0.250000*%
G04 #@! TD*
G04 #@! TA.AperFunction,Conductor*
%ADD17C,0.400000*%
G04 #@! TD*
G04 #@! TA.AperFunction,Conductor*
%ADD18C,0.200000*%
G04 #@! TD*
G04 APERTURE END LIST*
D10*
G04 #@! TO.P,U1,1*
G04 #@! TO.N,GND*
X-8260000Y22500000D03*
G04 #@! TO.P,U1,2*
G04 #@! TO.N,3V3*
X-6990000Y22500000D03*
G04 #@! TO.P,U1,3*
G04 #@! TO.N,ESPEN*
X-5720000Y22500000D03*
G04 #@! TO.P,U1,4*
G04 #@! TO.N,Net-(U1-Pad4)*
X-4450000Y22500000D03*
G04 #@! TO.P,U1,5*
G04 #@! TO.N,Net-(U1-Pad5)*
X-3180000Y22500000D03*
G04 #@! TO.P,U1,6*
G04 #@! TO.N,Net-(U1-Pad6)*
X-1910000Y22500000D03*
G04 #@! TO.P,U1,7*
G04 #@! TO.N,STMTX*
X-640000Y22500000D03*
G04 #@! TO.P,U1,8*
G04 #@! TO.N,Net-(U1-Pad8)*
X630000Y22500000D03*
G04 #@! TO.P,U1,9*
G04 #@! TO.N,Net-(U1-Pad9)*
X1900000Y22500000D03*
G04 #@! TO.P,U1,10*
G04 #@! TO.N,Net-(U1-Pad10)*
X3170000Y22500000D03*
G04 #@! TO.P,U1,11*
G04 #@! TO.N,Net-(U1-Pad11)*
X4440000Y22500000D03*
G04 #@! TO.P,U1,12*
G04 #@! TO.N,Net-(U1-Pad12)*
X5710000Y22500000D03*
G04 #@! TO.P,U1,13*
G04 #@! TO.N,Net-(U1-Pad13)*
X6980000Y22500000D03*
G04 #@! TO.P,U1,14*
G04 #@! TO.N,Net-(U1-Pad14)*
X8250000Y22500000D03*
G04 #@! TO.P,U1,15*
G04 #@! TO.N,GND*
X9520000Y22500000D03*
G04 #@! TO.P,U1,16*
G04 #@! TO.N,STMRX*
X10790000Y22500000D03*
G04 #@! TO.P,U1,17*
G04 #@! TO.N,Net-(U1-Pad17)*
X12060000Y22500000D03*
G04 #@! TO.P,U1,18*
G04 #@! TO.N,Net-(U1-Pad18)*
X13330000Y22500000D03*
G04 #@! TO.P,U1,19*
G04 #@! TO.N,Net-(U1-Pad19)*
X14600000Y22500000D03*
G04 #@! TO.P,U1,20*
G04 #@! TO.N,Net-(U1-Pad20)*
X14600000Y5500000D03*
G04 #@! TO.P,U1,21*
G04 #@! TO.N,Net-(U1-Pad21)*
X13330000Y5500000D03*
G04 #@! TO.P,U1,22*
G04 #@! TO.N,Net-(U1-Pad22)*
X12060000Y5500000D03*
G04 #@! TO.P,U1,23*
G04 #@! TO.N,Net-(U1-Pad23)*
X10790000Y5500000D03*
G04 #@! TO.P,U1,24*
G04 #@! TO.N,Net-(U1-Pad24)*
X9520000Y5500000D03*
G04 #@! TO.P,U1,25*
G04 #@! TO.N,ESPRST*
X8250000Y5500000D03*
G04 #@! TO.P,U1,26*
G04 #@! TO.N,Net-(U1-Pad26)*
X6980000Y5500000D03*
G04 #@! TO.P,U1,27*
G04 #@! TO.N,Net-(U1-Pad27)*
X5710000Y5500000D03*
G04 #@! TO.P,U1,28*
G04 #@! TO.N,Net-(U1-Pad28)*
X4440000Y5500000D03*
G04 #@! TO.P,U1,29*
G04 #@! TO.N,Net-(U1-Pad29)*
X3170000Y5500000D03*
G04 #@! TO.P,U1,30*
G04 #@! TO.N,Net-(U1-Pad30)*
X1900000Y5500000D03*
G04 #@! TO.P,U1,31*
G04 #@! TO.N,Net-(U1-Pad31)*
X630000Y5500000D03*
G04 #@! TO.P,U1,32*
G04 #@! TO.N,Net-(U1-Pad32)*
X-640000Y5500000D03*
G04 #@! TO.P,U1,33*
G04 #@! TO.N,Net-(U1-Pad33)*
X-1910000Y5500000D03*
G04 #@! TO.P,U1,34*
G04 #@! TO.N,ESPRX*
X-3180000Y5500000D03*
G04 #@! TO.P,U1,35*
G04 #@! TO.N,ESPTX*
X-4450000Y5500000D03*
G04 #@! TO.P,U1,36*
G04 #@! TO.N,Net-(U1-Pad36)*
X-5720000Y5500000D03*
G04 #@! TO.P,U1,37*
G04 #@! TO.N,Net-(U1-Pad37)*
X-6990000Y5500000D03*
G04 #@! TO.P,U1,38*
G04 #@! TO.N,GND*
X-8260000Y5500000D03*
D11*
G04 #@! TO.P,U1,39*
X-760000Y15000000D03*
G04 #@! TD*
D12*
G04 #@! TO.P,J4,1*
G04 #@! TO.N,SWDIO*
X-11800000Y800000D03*
G04 #@! TO.P,J4,2*
G04 #@! TO.N,SWDCLK*
X-13596051Y2596051D03*
D13*
G04 #@! TD*
G04 #@! TO.N,SWDCLK*
G04 #@! TO.C,J4*
X-13596051Y2596051D02*
X-13596051Y2596051D01*
D12*
G04 #@! TO.P,J3,1*
G04 #@! TO.N,Net-(J3-Pad1)*
X-3810000Y2540000D03*
D14*
G04 #@! TO.P,J3,2*
G04 #@! TO.N,Net-(J3-Pad2)*
X-1270000Y2540000D03*
G04 #@! TO.P,J3,3*
G04 #@! TO.N,Net-(J3-Pad3)*
X1270000Y2540000D03*
G04 #@! TO.P,J3,4*
G04 #@! TO.N,Net-(J3-Pad4)*
X3810000Y2540000D03*
G04 #@! TD*
D12*
G04 #@! TO.P,J1,1*
G04 #@! TO.N,GND*
X-8890000Y0D03*
D14*
G04 #@! TO.P,J1,2*
X-6350000Y0D03*
G04 #@! TO.P,J1,3*
G04 #@! TO.N,Net-(J1-Pad3)*
X-3810000Y0D03*
G04 #@! TO.P,J1,4*
G04 #@! TO.N,Net-(J1-Pad4)*
X-1270000Y0D03*
G04 #@! TO.P,J1,5*
G04 #@! TO.N,Net-(J1-Pad5)*
X1270000Y0D03*
G04 #@! TO.P,J1,6*
G04 #@! TO.N,Net-(J1-Pad6)*
X3810000Y0D03*
G04 #@! TO.P,J1,7*
G04 #@! TO.N,+5V*
X6350000Y0D03*
G04 #@! TO.P,J1,8*
X8890000Y0D03*
G04 #@! TD*
D15*
G04 #@! TO.N,GND*
X-2600000Y9700000D03*
X15200000Y13100000D03*
X15200000Y3400000D03*
X-4000000Y26000000D03*
X-5500000Y26000000D03*
X-7000000Y26000000D03*
X-7000000Y27500000D03*
X-5500000Y27500000D03*
X-4000000Y27500000D03*
X-7000000Y29000000D03*
X-8500000Y27500000D03*
X-8500000Y26000000D03*
X-8500000Y29000000D03*
X-8300000Y24200000D03*
X-6800000Y16700000D03*
X-6900000Y8600000D03*
X900000Y19700000D03*
X-700000Y19000000D03*
X10600000Y24500000D03*
X8000000Y16900000D03*
X10774990Y16000000D03*
G04 #@! TO.N,Net-(C1-Pad1)*
X10400000Y7800000D03*
X11000000Y10500000D03*
G04 #@! TO.N,+5V*
X8500000Y27500000D03*
X7000000Y27500000D03*
X8500000Y26000000D03*
X7000000Y29000000D03*
X7000000Y26000000D03*
X8500000Y29000000D03*
X-5975000Y17300000D03*
X4000000Y26000000D03*
X5500000Y27500000D03*
X5500000Y26000000D03*
X4000000Y27500000D03*
G04 #@! TO.N,3V3*
X-6900000Y20800000D03*
G04 #@! TO.N,ESPEN*
X700000Y18300000D03*
G04 #@! TO.N,Net-(J3-Pad1)*
X-1800000Y9900000D03*
G04 #@! TO.N,Net-(J3-Pad2)*
X-700000Y9900000D03*
G04 #@! TO.N,Net-(J3-Pad3)*
X-500000Y8900000D03*
G04 #@! TO.N,ESPRST*
X8300000Y7200000D03*
G04 #@! TO.N,ESPRX*
X6700000Y12500000D03*
G04 #@! TO.N,ESPTX*
X6100000Y14400000D03*
G04 #@! TO.N,STMTX*
X-4000000Y10500000D03*
X-3760000Y17800000D03*
X-1860000Y19280000D03*
G04 #@! TO.N,STMRX*
X-4500000Y9300000D03*
G04 #@! TO.N,SWDIO*
X-5200000Y9800000D03*
G04 #@! TO.N,SWDCLK*
X-5900000Y10400000D03*
G04 #@! TO.N,Net-(J2-Pad2)*
X11100000Y9100000D03*
X11100000Y7400000D03*
G04 #@! TD*
D16*
G04 #@! TO.N,GND*
X-8260000Y5500000D02*
X-8260000Y6240000D01*
D17*
X-8260000Y22500000D02*
X-8260000Y24160000D01*
X-8260000Y24160000D02*
X-8300000Y24200000D01*
X-8260000Y7240000D02*
X-6900000Y8600000D01*
X-8260000Y7240000D02*
X-8260000Y5500000D01*
D16*
X-760000Y15740000D02*
X-760000Y15000000D01*
X1700000Y18200000D02*
X-760000Y15740000D01*
X1700000Y18900000D02*
X1700000Y18200000D01*
X900000Y19700000D02*
X1700000Y18900000D01*
D17*
X9520000Y22500000D02*
X9520000Y23920000D01*
X10200000Y24100000D02*
X10600000Y24500000D01*
X9700000Y24100000D02*
X10200000Y24100000D01*
X9520000Y23920000D02*
X9700000Y24100000D01*
D16*
G04 #@! TO.N,Net-(C1-Pad1)*
X10400000Y7800000D02*
X10400000Y9900000D01*
X10400000Y9900000D02*
X11000000Y10500000D01*
D17*
G04 #@! TO.N,3V3*
X-6990000Y22500000D02*
X-6990000Y20890000D01*
X-6990000Y20890000D02*
X-6900000Y20800000D01*
D16*
G04 #@! TO.N,ESPEN*
X-5720000Y22500000D02*
X-5720000Y21720000D01*
X-2300000Y18300000D02*
X700000Y18300000D01*
X-5720000Y21720000D02*
X-2300000Y18300000D01*
G04 #@! TO.N,ESPRST*
X8250000Y5500000D02*
X8250000Y7150000D01*
X8300000Y7200000D02*
X8250000Y7150000D01*
G04 #@! TO.N,ESPRX*
X-3180000Y5500000D02*
X-3180000Y6420000D01*
X-3180000Y6420000D02*
X-2400000Y7200000D01*
X1400000Y7200000D02*
X-2400000Y7200000D01*
X6700000Y12500000D02*
X1400000Y7200000D01*
X-2400000Y7200000D02*
X-3180000Y6420000D01*
X-3180000Y6420000D02*
X-3180000Y5500000D01*
G04 #@! TO.N,ESPTX*
X600000Y7700000D02*
X-3500000Y7700000D01*
X-3500000Y7700000D02*
X-4450000Y6750000D01*
X-4450000Y6750000D02*
X-4450000Y5500000D01*
X6100000Y13200000D02*
X600000Y7700000D01*
X6100000Y14400000D02*
X6100000Y13200000D01*
G04 #@! TO.N,STMTX*
X-4000000Y17560000D02*
X-4000000Y10500000D01*
X-4000000Y17560000D02*
X-3760000Y17800000D01*
X-640000Y22500000D02*
X-640000Y20500000D01*
X-640000Y20500000D02*
X-1860000Y19280000D01*
G04 #@! TO.N,STMRX*
X1300000Y10600000D02*
X-2800000Y10600000D01*
X-4100000Y9300000D02*
X-2800000Y10600000D01*
X-4500000Y9300000D02*
X-4100000Y9300000D01*
X2600000Y11900000D02*
X1300000Y10600000D01*
X2600000Y11900000D02*
X2600000Y19400000D01*
X10790000Y20990000D02*
X10790000Y22500000D01*
X9900000Y20100000D02*
X10790000Y20990000D01*
X3300000Y20100000D02*
X9900000Y20100000D01*
X2600000Y19400000D02*
X3300000Y20100000D01*
G04 #@! TO.N,Net-(J2-Pad2)*
X11100000Y7400000D02*
X11100000Y9100000D01*
G04 #@! TD*
D18*
G04 #@! TO.N,GND*
G36*
X-8441449Y31143382D02*
X-8450096Y31099910D01*
X-8415837Y30927676D01*
X-8343289Y30819101D01*
X-8318274Y30781664D01*
X-8172262Y30684101D01*
X-8000028Y30649842D01*
X-7956556Y30658489D01*
X-6091204Y30658489D01*
X-6091205Y29143506D01*
X-6099852Y29100034D01*
X-6065593Y28927800D01*
X-5968030Y28781788D01*
X-5822018Y28684225D01*
X-5649784Y28649966D01*
X-5606312Y28658613D01*
X-2691412Y28658613D01*
X-2691413Y26143170D01*
X-2700060Y26099698D01*
X-2665801Y25927464D01*
X-2568238Y25781452D01*
X-2422226Y25683889D01*
X-2249992Y25649630D01*
X-2206520Y25658277D01*
X-1100000Y25658277D01*
X-1100000Y24600000D01*
X-9900000Y24600000D01*
X-9900000Y31900000D01*
X-8441449Y31900000D01*
X-8441449Y31143382D01*
X-8441449Y31143382D01*
G37*
X-8441449Y31143382D02*
X-8450096Y31099910D01*
X-8415837Y30927676D01*
X-8343289Y30819101D01*
X-8318274Y30781664D01*
X-8172262Y30684101D01*
X-8000028Y30649842D01*
X-7956556Y30658489D01*
X-6091204Y30658489D01*
X-6091205Y29143506D01*
X-6099852Y29100034D01*
X-6065593Y28927800D01*
X-5968030Y28781788D01*
X-5822018Y28684225D01*
X-5649784Y28649966D01*
X-5606312Y28658613D01*
X-2691412Y28658613D01*
X-2691413Y26143170D01*
X-2700060Y26099698D01*
X-2665801Y25927464D01*
X-2568238Y25781452D01*
X-2422226Y25683889D01*
X-2249992Y25649630D01*
X-2206520Y25658277D01*
X-1100000Y25658277D01*
X-1100000Y24600000D01*
X-9900000Y24600000D01*
X-9900000Y31900000D01*
X-8441449Y31900000D01*
X-8441449Y31143382D01*
G04 #@! TO.N,+5V*
G36*
X9900000Y24600000D02*
X9749240Y24600000D01*
X9699999Y24609795D01*
X9650758Y24600000D01*
X1100000Y24600000D01*
X1100000Y25658277D01*
X2206520Y25658277D01*
X2249992Y25649630D01*
X2293464Y25658277D01*
X2422226Y25683889D01*
X2568238Y25781452D01*
X2665801Y25927464D01*
X2700060Y26099698D01*
X2691413Y26143170D01*
X2691413Y28658613D01*
X5605795Y28658613D01*
X5649267Y28649966D01*
X5692739Y28658613D01*
X5821501Y28684225D01*
X5967513Y28781788D01*
X6065076Y28927800D01*
X6099335Y29100034D01*
X6090688Y29143506D01*
X6090688Y30658489D01*
X7956040Y30658489D01*
X7999512Y30649842D01*
X8042984Y30658489D01*
X8171746Y30684101D01*
X8317758Y30781664D01*
X8415321Y30927676D01*
X8449580Y31099910D01*
X8440933Y31143382D01*
X8440933Y31900000D01*
X9900000Y31900000D01*
X9900000Y24600000D01*
X9900000Y24600000D01*
G37*
X9900000Y24600000D02*
X9749240Y24600000D01*
X9699999Y24609795D01*
X9650758Y24600000D01*
X1100000Y24600000D01*
X1100000Y25658277D01*
X2206520Y25658277D01*
X2249992Y25649630D01*
X2293464Y25658277D01*
X2422226Y25683889D01*
X2568238Y25781452D01*
X2665801Y25927464D01*
X2700060Y26099698D01*
X2691413Y26143170D01*
X2691413Y28658613D01*
X5605795Y28658613D01*
X5649267Y28649966D01*
X5692739Y28658613D01*
X5821501Y28684225D01*
X5967513Y28781788D01*
X6065076Y28927800D01*
X6099335Y29100034D01*
X6090688Y29143506D01*
X6090688Y30658489D01*
X7956040Y30658489D01*
X7999512Y30649842D01*
X8042984Y30658489D01*
X8171746Y30684101D01*
X8317758Y30781664D01*
X8415321Y30927676D01*
X8449580Y31099910D01*
X8440933Y31143382D01*
X8440933Y31900000D01*
X9900000Y31900000D01*
X9900000Y24600000D01*
G04 #@! TD*
M02*
