M48
METRIC,TZ
T1C0.300
T2C1.000
T3C1.152
%
G90
G05
T1
X-8.5Y29.
X-8.5Y27.5
X-8.5Y26.
X-8.3Y24.2
X-7.Y29.
X-7.Y27.5
X-7.Y26.
X-6.9Y20.8
X-6.9Y8.6
X-6.8Y16.7
X-5.975Y17.3
X-5.9Y10.4
X-5.5Y27.5
X-5.5Y26.
X-5.2Y9.8
X-4.5Y9.3
X-4.Y27.5
X-4.Y26.
X-4.Y10.5
X-3.76Y17.8
X-2.6Y9.7
X-1.86Y19.28
X-1.8Y9.9
X-0.7Y19.
X-0.7Y9.9
X-0.5Y8.9
X0.7Y18.3
X0.9Y19.7
X4.Y27.5
X4.Y26.
X5.5Y27.5
X5.5Y26.
X6.1Y14.4
X6.7Y12.5
X7.Y29.
X7.Y27.5
X7.Y26.
X8.Y16.9
X8.3Y7.2
X8.5Y29.
X8.5Y27.5
X8.5Y26.
X10.4Y7.8
X10.6Y24.5
X10.775Y16.
X11.Y10.5
X11.1Y9.1
X11.1Y7.4
X15.2Y13.1
X15.2Y3.4
T2
X-13.596Y2.596
X-11.8Y0.8
X-8.89Y0.
X-6.35Y0.
X-3.81Y0.
X-1.27Y0.
X1.27Y0.
X3.81Y0.
X6.35Y0.
X8.89Y0.
X-3.81Y2.54
X-1.27Y2.54
X1.27Y2.54
X3.81Y2.54
T3
X10.Y35.
X-10.Y35.
X12.Y2.
T0
M30
