G04 #@! TF.GenerationSoftware,KiCad,Pcbnew,5.0.2+dfsg1-1*
G04 #@! TF.CreationDate,2020-07-05T13:54:42+02:00*
G04 #@! TF.ProjectId,edgedriver,65646765-6472-4697-9665-722e6b696361,rev?*
G04 #@! TF.SameCoordinates,Original*
G04 #@! TF.FileFunction,Paste,Top*
G04 #@! TF.FilePolarity,Positive*
%FSLAX46Y46*%
G04 Gerber Fmt 4.6, Leading zero omitted, Abs format (unit mm)*
G04 Created by KiCad (PCBNEW 5.0.2+dfsg1-1) date Sun Jul  5 13:54:42 2020*
%MOMM*%
%LPD*%
G01*
G04 APERTURE LIST*
%ADD10C,1.152000*%
%ADD11R,0.800000X0.900000*%
%ADD12C,0.100000*%
%ADD13C,0.875000*%
%ADD14R,3.800000X2.000000*%
%ADD15R,1.500000X2.000000*%
%ADD16R,0.450000X1.450000*%
%ADD17C,1.050000*%
%ADD18C,0.250000*%
G04 APERTURE END LIST*
D10*
G04 #@! TO.C,REF\002A\002A*
X12000000Y2000000D03*
G04 #@! TD*
G04 #@! TO.C,REF\002A\002A*
X10000000Y35000000D03*
G04 #@! TD*
D11*
G04 #@! TO.C,Q2*
X3550000Y7700000D03*
X5450000Y7700000D03*
X4500000Y9700000D03*
G04 #@! TD*
G04 #@! TO.C,Q1*
X4500000Y15300000D03*
X5450000Y13300000D03*
X3550000Y13300000D03*
G04 #@! TD*
D12*
G04 #@! TO.C,C9*
G36*
X-7722309Y21723947D02*
X-7701074Y21720797D01*
X-7680250Y21715581D01*
X-7660038Y21708349D01*
X-7640632Y21699170D01*
X-7622219Y21688134D01*
X-7604976Y21675346D01*
X-7589070Y21660930D01*
X-7574654Y21645024D01*
X-7561866Y21627781D01*
X-7550830Y21609368D01*
X-7541651Y21589962D01*
X-7534419Y21569750D01*
X-7529203Y21548926D01*
X-7526053Y21527691D01*
X-7525000Y21506250D01*
X-7525000Y21068750D01*
X-7526053Y21047309D01*
X-7529203Y21026074D01*
X-7534419Y21005250D01*
X-7541651Y20985038D01*
X-7550830Y20965632D01*
X-7561866Y20947219D01*
X-7574654Y20929976D01*
X-7589070Y20914070D01*
X-7604976Y20899654D01*
X-7622219Y20886866D01*
X-7640632Y20875830D01*
X-7660038Y20866651D01*
X-7680250Y20859419D01*
X-7701074Y20854203D01*
X-7722309Y20851053D01*
X-7743750Y20850000D01*
X-8256250Y20850000D01*
X-8277691Y20851053D01*
X-8298926Y20854203D01*
X-8319750Y20859419D01*
X-8339962Y20866651D01*
X-8359368Y20875830D01*
X-8377781Y20886866D01*
X-8395024Y20899654D01*
X-8410930Y20914070D01*
X-8425346Y20929976D01*
X-8438134Y20947219D01*
X-8449170Y20965632D01*
X-8458349Y20985038D01*
X-8465581Y21005250D01*
X-8470797Y21026074D01*
X-8473947Y21047309D01*
X-8475000Y21068750D01*
X-8475000Y21506250D01*
X-8473947Y21527691D01*
X-8470797Y21548926D01*
X-8465581Y21569750D01*
X-8458349Y21589962D01*
X-8449170Y21609368D01*
X-8438134Y21627781D01*
X-8425346Y21645024D01*
X-8410930Y21660930D01*
X-8395024Y21675346D01*
X-8377781Y21688134D01*
X-8359368Y21699170D01*
X-8339962Y21708349D01*
X-8319750Y21715581D01*
X-8298926Y21720797D01*
X-8277691Y21723947D01*
X-8256250Y21725000D01*
X-7743750Y21725000D01*
X-7722309Y21723947D01*
X-7722309Y21723947D01*
G37*
D13*
X-8000000Y21287500D03*
D12*
G36*
X-7722309Y20148947D02*
X-7701074Y20145797D01*
X-7680250Y20140581D01*
X-7660038Y20133349D01*
X-7640632Y20124170D01*
X-7622219Y20113134D01*
X-7604976Y20100346D01*
X-7589070Y20085930D01*
X-7574654Y20070024D01*
X-7561866Y20052781D01*
X-7550830Y20034368D01*
X-7541651Y20014962D01*
X-7534419Y19994750D01*
X-7529203Y19973926D01*
X-7526053Y19952691D01*
X-7525000Y19931250D01*
X-7525000Y19493750D01*
X-7526053Y19472309D01*
X-7529203Y19451074D01*
X-7534419Y19430250D01*
X-7541651Y19410038D01*
X-7550830Y19390632D01*
X-7561866Y19372219D01*
X-7574654Y19354976D01*
X-7589070Y19339070D01*
X-7604976Y19324654D01*
X-7622219Y19311866D01*
X-7640632Y19300830D01*
X-7660038Y19291651D01*
X-7680250Y19284419D01*
X-7701074Y19279203D01*
X-7722309Y19276053D01*
X-7743750Y19275000D01*
X-8256250Y19275000D01*
X-8277691Y19276053D01*
X-8298926Y19279203D01*
X-8319750Y19284419D01*
X-8339962Y19291651D01*
X-8359368Y19300830D01*
X-8377781Y19311866D01*
X-8395024Y19324654D01*
X-8410930Y19339070D01*
X-8425346Y19354976D01*
X-8438134Y19372219D01*
X-8449170Y19390632D01*
X-8458349Y19410038D01*
X-8465581Y19430250D01*
X-8470797Y19451074D01*
X-8473947Y19472309D01*
X-8475000Y19493750D01*
X-8475000Y19931250D01*
X-8473947Y19952691D01*
X-8470797Y19973926D01*
X-8465581Y19994750D01*
X-8458349Y20014962D01*
X-8449170Y20034368D01*
X-8438134Y20052781D01*
X-8425346Y20070024D01*
X-8410930Y20085930D01*
X-8395024Y20100346D01*
X-8377781Y20113134D01*
X-8359368Y20124170D01*
X-8339962Y20133349D01*
X-8319750Y20140581D01*
X-8298926Y20145797D01*
X-8277691Y20148947D01*
X-8256250Y20150000D01*
X-7743750Y20150000D01*
X-7722309Y20148947D01*
X-7722309Y20148947D01*
G37*
D13*
X-8000000Y19712500D03*
G04 #@! TD*
D12*
G04 #@! TO.C,C1*
G36*
X10277691Y12723947D02*
X10298926Y12720797D01*
X10319750Y12715581D01*
X10339962Y12708349D01*
X10359368Y12699170D01*
X10377781Y12688134D01*
X10395024Y12675346D01*
X10410930Y12660930D01*
X10425346Y12645024D01*
X10438134Y12627781D01*
X10449170Y12609368D01*
X10458349Y12589962D01*
X10465581Y12569750D01*
X10470797Y12548926D01*
X10473947Y12527691D01*
X10475000Y12506250D01*
X10475000Y12068750D01*
X10473947Y12047309D01*
X10470797Y12026074D01*
X10465581Y12005250D01*
X10458349Y11985038D01*
X10449170Y11965632D01*
X10438134Y11947219D01*
X10425346Y11929976D01*
X10410930Y11914070D01*
X10395024Y11899654D01*
X10377781Y11886866D01*
X10359368Y11875830D01*
X10339962Y11866651D01*
X10319750Y11859419D01*
X10298926Y11854203D01*
X10277691Y11851053D01*
X10256250Y11850000D01*
X9743750Y11850000D01*
X9722309Y11851053D01*
X9701074Y11854203D01*
X9680250Y11859419D01*
X9660038Y11866651D01*
X9640632Y11875830D01*
X9622219Y11886866D01*
X9604976Y11899654D01*
X9589070Y11914070D01*
X9574654Y11929976D01*
X9561866Y11947219D01*
X9550830Y11965632D01*
X9541651Y11985038D01*
X9534419Y12005250D01*
X9529203Y12026074D01*
X9526053Y12047309D01*
X9525000Y12068750D01*
X9525000Y12506250D01*
X9526053Y12527691D01*
X9529203Y12548926D01*
X9534419Y12569750D01*
X9541651Y12589962D01*
X9550830Y12609368D01*
X9561866Y12627781D01*
X9574654Y12645024D01*
X9589070Y12660930D01*
X9604976Y12675346D01*
X9622219Y12688134D01*
X9640632Y12699170D01*
X9660038Y12708349D01*
X9680250Y12715581D01*
X9701074Y12720797D01*
X9722309Y12723947D01*
X9743750Y12725000D01*
X10256250Y12725000D01*
X10277691Y12723947D01*
X10277691Y12723947D01*
G37*
D13*
X10000000Y12287500D03*
D12*
G36*
X10277691Y11148947D02*
X10298926Y11145797D01*
X10319750Y11140581D01*
X10339962Y11133349D01*
X10359368Y11124170D01*
X10377781Y11113134D01*
X10395024Y11100346D01*
X10410930Y11085930D01*
X10425346Y11070024D01*
X10438134Y11052781D01*
X10449170Y11034368D01*
X10458349Y11014962D01*
X10465581Y10994750D01*
X10470797Y10973926D01*
X10473947Y10952691D01*
X10475000Y10931250D01*
X10475000Y10493750D01*
X10473947Y10472309D01*
X10470797Y10451074D01*
X10465581Y10430250D01*
X10458349Y10410038D01*
X10449170Y10390632D01*
X10438134Y10372219D01*
X10425346Y10354976D01*
X10410930Y10339070D01*
X10395024Y10324654D01*
X10377781Y10311866D01*
X10359368Y10300830D01*
X10339962Y10291651D01*
X10319750Y10284419D01*
X10298926Y10279203D01*
X10277691Y10276053D01*
X10256250Y10275000D01*
X9743750Y10275000D01*
X9722309Y10276053D01*
X9701074Y10279203D01*
X9680250Y10284419D01*
X9660038Y10291651D01*
X9640632Y10300830D01*
X9622219Y10311866D01*
X9604976Y10324654D01*
X9589070Y10339070D01*
X9574654Y10354976D01*
X9561866Y10372219D01*
X9550830Y10390632D01*
X9541651Y10410038D01*
X9534419Y10430250D01*
X9529203Y10451074D01*
X9526053Y10472309D01*
X9525000Y10493750D01*
X9525000Y10931250D01*
X9526053Y10952691D01*
X9529203Y10973926D01*
X9534419Y10994750D01*
X9541651Y11014962D01*
X9550830Y11034368D01*
X9561866Y11052781D01*
X9574654Y11070024D01*
X9589070Y11085930D01*
X9604976Y11100346D01*
X9622219Y11113134D01*
X9640632Y11124170D01*
X9660038Y11133349D01*
X9680250Y11140581D01*
X9701074Y11145797D01*
X9722309Y11148947D01*
X9743750Y11150000D01*
X10256250Y11150000D01*
X10277691Y11148947D01*
X10277691Y11148947D01*
G37*
D13*
X10000000Y10712500D03*
G04 #@! TD*
D12*
G04 #@! TO.C,C6*
G36*
X10277691Y18723947D02*
X10298926Y18720797D01*
X10319750Y18715581D01*
X10339962Y18708349D01*
X10359368Y18699170D01*
X10377781Y18688134D01*
X10395024Y18675346D01*
X10410930Y18660930D01*
X10425346Y18645024D01*
X10438134Y18627781D01*
X10449170Y18609368D01*
X10458349Y18589962D01*
X10465581Y18569750D01*
X10470797Y18548926D01*
X10473947Y18527691D01*
X10475000Y18506250D01*
X10475000Y18068750D01*
X10473947Y18047309D01*
X10470797Y18026074D01*
X10465581Y18005250D01*
X10458349Y17985038D01*
X10449170Y17965632D01*
X10438134Y17947219D01*
X10425346Y17929976D01*
X10410930Y17914070D01*
X10395024Y17899654D01*
X10377781Y17886866D01*
X10359368Y17875830D01*
X10339962Y17866651D01*
X10319750Y17859419D01*
X10298926Y17854203D01*
X10277691Y17851053D01*
X10256250Y17850000D01*
X9743750Y17850000D01*
X9722309Y17851053D01*
X9701074Y17854203D01*
X9680250Y17859419D01*
X9660038Y17866651D01*
X9640632Y17875830D01*
X9622219Y17886866D01*
X9604976Y17899654D01*
X9589070Y17914070D01*
X9574654Y17929976D01*
X9561866Y17947219D01*
X9550830Y17965632D01*
X9541651Y17985038D01*
X9534419Y18005250D01*
X9529203Y18026074D01*
X9526053Y18047309D01*
X9525000Y18068750D01*
X9525000Y18506250D01*
X9526053Y18527691D01*
X9529203Y18548926D01*
X9534419Y18569750D01*
X9541651Y18589962D01*
X9550830Y18609368D01*
X9561866Y18627781D01*
X9574654Y18645024D01*
X9589070Y18660930D01*
X9604976Y18675346D01*
X9622219Y18688134D01*
X9640632Y18699170D01*
X9660038Y18708349D01*
X9680250Y18715581D01*
X9701074Y18720797D01*
X9722309Y18723947D01*
X9743750Y18725000D01*
X10256250Y18725000D01*
X10277691Y18723947D01*
X10277691Y18723947D01*
G37*
D13*
X10000000Y18287500D03*
D12*
G36*
X10277691Y17148947D02*
X10298926Y17145797D01*
X10319750Y17140581D01*
X10339962Y17133349D01*
X10359368Y17124170D01*
X10377781Y17113134D01*
X10395024Y17100346D01*
X10410930Y17085930D01*
X10425346Y17070024D01*
X10438134Y17052781D01*
X10449170Y17034368D01*
X10458349Y17014962D01*
X10465581Y16994750D01*
X10470797Y16973926D01*
X10473947Y16952691D01*
X10475000Y16931250D01*
X10475000Y16493750D01*
X10473947Y16472309D01*
X10470797Y16451074D01*
X10465581Y16430250D01*
X10458349Y16410038D01*
X10449170Y16390632D01*
X10438134Y16372219D01*
X10425346Y16354976D01*
X10410930Y16339070D01*
X10395024Y16324654D01*
X10377781Y16311866D01*
X10359368Y16300830D01*
X10339962Y16291651D01*
X10319750Y16284419D01*
X10298926Y16279203D01*
X10277691Y16276053D01*
X10256250Y16275000D01*
X9743750Y16275000D01*
X9722309Y16276053D01*
X9701074Y16279203D01*
X9680250Y16284419D01*
X9660038Y16291651D01*
X9640632Y16300830D01*
X9622219Y16311866D01*
X9604976Y16324654D01*
X9589070Y16339070D01*
X9574654Y16354976D01*
X9561866Y16372219D01*
X9550830Y16390632D01*
X9541651Y16410038D01*
X9534419Y16430250D01*
X9529203Y16451074D01*
X9526053Y16472309D01*
X9525000Y16493750D01*
X9525000Y16931250D01*
X9526053Y16952691D01*
X9529203Y16973926D01*
X9534419Y16994750D01*
X9541651Y17014962D01*
X9550830Y17034368D01*
X9561866Y17052781D01*
X9574654Y17070024D01*
X9589070Y17085930D01*
X9604976Y17100346D01*
X9622219Y17113134D01*
X9640632Y17124170D01*
X9660038Y17133349D01*
X9680250Y17140581D01*
X9701074Y17145797D01*
X9722309Y17148947D01*
X9743750Y17150000D01*
X10256250Y17150000D01*
X10277691Y17148947D01*
X10277691Y17148947D01*
G37*
D13*
X10000000Y16712500D03*
G04 #@! TD*
D12*
G04 #@! TO.C,C2*
G36*
X-7722309Y14148947D02*
X-7701074Y14145797D01*
X-7680250Y14140581D01*
X-7660038Y14133349D01*
X-7640632Y14124170D01*
X-7622219Y14113134D01*
X-7604976Y14100346D01*
X-7589070Y14085930D01*
X-7574654Y14070024D01*
X-7561866Y14052781D01*
X-7550830Y14034368D01*
X-7541651Y14014962D01*
X-7534419Y13994750D01*
X-7529203Y13973926D01*
X-7526053Y13952691D01*
X-7525000Y13931250D01*
X-7525000Y13493750D01*
X-7526053Y13472309D01*
X-7529203Y13451074D01*
X-7534419Y13430250D01*
X-7541651Y13410038D01*
X-7550830Y13390632D01*
X-7561866Y13372219D01*
X-7574654Y13354976D01*
X-7589070Y13339070D01*
X-7604976Y13324654D01*
X-7622219Y13311866D01*
X-7640632Y13300830D01*
X-7660038Y13291651D01*
X-7680250Y13284419D01*
X-7701074Y13279203D01*
X-7722309Y13276053D01*
X-7743750Y13275000D01*
X-8256250Y13275000D01*
X-8277691Y13276053D01*
X-8298926Y13279203D01*
X-8319750Y13284419D01*
X-8339962Y13291651D01*
X-8359368Y13300830D01*
X-8377781Y13311866D01*
X-8395024Y13324654D01*
X-8410930Y13339070D01*
X-8425346Y13354976D01*
X-8438134Y13372219D01*
X-8449170Y13390632D01*
X-8458349Y13410038D01*
X-8465581Y13430250D01*
X-8470797Y13451074D01*
X-8473947Y13472309D01*
X-8475000Y13493750D01*
X-8475000Y13931250D01*
X-8473947Y13952691D01*
X-8470797Y13973926D01*
X-8465581Y13994750D01*
X-8458349Y14014962D01*
X-8449170Y14034368D01*
X-8438134Y14052781D01*
X-8425346Y14070024D01*
X-8410930Y14085930D01*
X-8395024Y14100346D01*
X-8377781Y14113134D01*
X-8359368Y14124170D01*
X-8339962Y14133349D01*
X-8319750Y14140581D01*
X-8298926Y14145797D01*
X-8277691Y14148947D01*
X-8256250Y14150000D01*
X-7743750Y14150000D01*
X-7722309Y14148947D01*
X-7722309Y14148947D01*
G37*
D13*
X-8000000Y13712500D03*
D12*
G36*
X-7722309Y15723947D02*
X-7701074Y15720797D01*
X-7680250Y15715581D01*
X-7660038Y15708349D01*
X-7640632Y15699170D01*
X-7622219Y15688134D01*
X-7604976Y15675346D01*
X-7589070Y15660930D01*
X-7574654Y15645024D01*
X-7561866Y15627781D01*
X-7550830Y15609368D01*
X-7541651Y15589962D01*
X-7534419Y15569750D01*
X-7529203Y15548926D01*
X-7526053Y15527691D01*
X-7525000Y15506250D01*
X-7525000Y15068750D01*
X-7526053Y15047309D01*
X-7529203Y15026074D01*
X-7534419Y15005250D01*
X-7541651Y14985038D01*
X-7550830Y14965632D01*
X-7561866Y14947219D01*
X-7574654Y14929976D01*
X-7589070Y14914070D01*
X-7604976Y14899654D01*
X-7622219Y14886866D01*
X-7640632Y14875830D01*
X-7660038Y14866651D01*
X-7680250Y14859419D01*
X-7701074Y14854203D01*
X-7722309Y14851053D01*
X-7743750Y14850000D01*
X-8256250Y14850000D01*
X-8277691Y14851053D01*
X-8298926Y14854203D01*
X-8319750Y14859419D01*
X-8339962Y14866651D01*
X-8359368Y14875830D01*
X-8377781Y14886866D01*
X-8395024Y14899654D01*
X-8410930Y14914070D01*
X-8425346Y14929976D01*
X-8438134Y14947219D01*
X-8449170Y14965632D01*
X-8458349Y14985038D01*
X-8465581Y15005250D01*
X-8470797Y15026074D01*
X-8473947Y15047309D01*
X-8475000Y15068750D01*
X-8475000Y15506250D01*
X-8473947Y15527691D01*
X-8470797Y15548926D01*
X-8465581Y15569750D01*
X-8458349Y15589962D01*
X-8449170Y15609368D01*
X-8438134Y15627781D01*
X-8425346Y15645024D01*
X-8410930Y15660930D01*
X-8395024Y15675346D01*
X-8377781Y15688134D01*
X-8359368Y15699170D01*
X-8339962Y15708349D01*
X-8319750Y15715581D01*
X-8298926Y15720797D01*
X-8277691Y15723947D01*
X-8256250Y15725000D01*
X-7743750Y15725000D01*
X-7722309Y15723947D01*
X-7722309Y15723947D01*
G37*
D13*
X-8000000Y15287500D03*
G04 #@! TD*
D12*
G04 #@! TO.C,C3*
G36*
X10277691Y14148947D02*
X10298926Y14145797D01*
X10319750Y14140581D01*
X10339962Y14133349D01*
X10359368Y14124170D01*
X10377781Y14113134D01*
X10395024Y14100346D01*
X10410930Y14085930D01*
X10425346Y14070024D01*
X10438134Y14052781D01*
X10449170Y14034368D01*
X10458349Y14014962D01*
X10465581Y13994750D01*
X10470797Y13973926D01*
X10473947Y13952691D01*
X10475000Y13931250D01*
X10475000Y13493750D01*
X10473947Y13472309D01*
X10470797Y13451074D01*
X10465581Y13430250D01*
X10458349Y13410038D01*
X10449170Y13390632D01*
X10438134Y13372219D01*
X10425346Y13354976D01*
X10410930Y13339070D01*
X10395024Y13324654D01*
X10377781Y13311866D01*
X10359368Y13300830D01*
X10339962Y13291651D01*
X10319750Y13284419D01*
X10298926Y13279203D01*
X10277691Y13276053D01*
X10256250Y13275000D01*
X9743750Y13275000D01*
X9722309Y13276053D01*
X9701074Y13279203D01*
X9680250Y13284419D01*
X9660038Y13291651D01*
X9640632Y13300830D01*
X9622219Y13311866D01*
X9604976Y13324654D01*
X9589070Y13339070D01*
X9574654Y13354976D01*
X9561866Y13372219D01*
X9550830Y13390632D01*
X9541651Y13410038D01*
X9534419Y13430250D01*
X9529203Y13451074D01*
X9526053Y13472309D01*
X9525000Y13493750D01*
X9525000Y13931250D01*
X9526053Y13952691D01*
X9529203Y13973926D01*
X9534419Y13994750D01*
X9541651Y14014962D01*
X9550830Y14034368D01*
X9561866Y14052781D01*
X9574654Y14070024D01*
X9589070Y14085930D01*
X9604976Y14100346D01*
X9622219Y14113134D01*
X9640632Y14124170D01*
X9660038Y14133349D01*
X9680250Y14140581D01*
X9701074Y14145797D01*
X9722309Y14148947D01*
X9743750Y14150000D01*
X10256250Y14150000D01*
X10277691Y14148947D01*
X10277691Y14148947D01*
G37*
D13*
X10000000Y13712500D03*
D12*
G36*
X10277691Y15723947D02*
X10298926Y15720797D01*
X10319750Y15715581D01*
X10339962Y15708349D01*
X10359368Y15699170D01*
X10377781Y15688134D01*
X10395024Y15675346D01*
X10410930Y15660930D01*
X10425346Y15645024D01*
X10438134Y15627781D01*
X10449170Y15609368D01*
X10458349Y15589962D01*
X10465581Y15569750D01*
X10470797Y15548926D01*
X10473947Y15527691D01*
X10475000Y15506250D01*
X10475000Y15068750D01*
X10473947Y15047309D01*
X10470797Y15026074D01*
X10465581Y15005250D01*
X10458349Y14985038D01*
X10449170Y14965632D01*
X10438134Y14947219D01*
X10425346Y14929976D01*
X10410930Y14914070D01*
X10395024Y14899654D01*
X10377781Y14886866D01*
X10359368Y14875830D01*
X10339962Y14866651D01*
X10319750Y14859419D01*
X10298926Y14854203D01*
X10277691Y14851053D01*
X10256250Y14850000D01*
X9743750Y14850000D01*
X9722309Y14851053D01*
X9701074Y14854203D01*
X9680250Y14859419D01*
X9660038Y14866651D01*
X9640632Y14875830D01*
X9622219Y14886866D01*
X9604976Y14899654D01*
X9589070Y14914070D01*
X9574654Y14929976D01*
X9561866Y14947219D01*
X9550830Y14965632D01*
X9541651Y14985038D01*
X9534419Y15005250D01*
X9529203Y15026074D01*
X9526053Y15047309D01*
X9525000Y15068750D01*
X9525000Y15506250D01*
X9526053Y15527691D01*
X9529203Y15548926D01*
X9534419Y15569750D01*
X9541651Y15589962D01*
X9550830Y15609368D01*
X9561866Y15627781D01*
X9574654Y15645024D01*
X9589070Y15660930D01*
X9604976Y15675346D01*
X9622219Y15688134D01*
X9640632Y15699170D01*
X9660038Y15708349D01*
X9680250Y15715581D01*
X9701074Y15720797D01*
X9722309Y15723947D01*
X9743750Y15725000D01*
X10256250Y15725000D01*
X10277691Y15723947D01*
X10277691Y15723947D01*
G37*
D13*
X10000000Y15287500D03*
G04 #@! TD*
D12*
G04 #@! TO.C,C4*
G36*
X2277691Y21723947D02*
X2298926Y21720797D01*
X2319750Y21715581D01*
X2339962Y21708349D01*
X2359368Y21699170D01*
X2377781Y21688134D01*
X2395024Y21675346D01*
X2410930Y21660930D01*
X2425346Y21645024D01*
X2438134Y21627781D01*
X2449170Y21609368D01*
X2458349Y21589962D01*
X2465581Y21569750D01*
X2470797Y21548926D01*
X2473947Y21527691D01*
X2475000Y21506250D01*
X2475000Y21068750D01*
X2473947Y21047309D01*
X2470797Y21026074D01*
X2465581Y21005250D01*
X2458349Y20985038D01*
X2449170Y20965632D01*
X2438134Y20947219D01*
X2425346Y20929976D01*
X2410930Y20914070D01*
X2395024Y20899654D01*
X2377781Y20886866D01*
X2359368Y20875830D01*
X2339962Y20866651D01*
X2319750Y20859419D01*
X2298926Y20854203D01*
X2277691Y20851053D01*
X2256250Y20850000D01*
X1743750Y20850000D01*
X1722309Y20851053D01*
X1701074Y20854203D01*
X1680250Y20859419D01*
X1660038Y20866651D01*
X1640632Y20875830D01*
X1622219Y20886866D01*
X1604976Y20899654D01*
X1589070Y20914070D01*
X1574654Y20929976D01*
X1561866Y20947219D01*
X1550830Y20965632D01*
X1541651Y20985038D01*
X1534419Y21005250D01*
X1529203Y21026074D01*
X1526053Y21047309D01*
X1525000Y21068750D01*
X1525000Y21506250D01*
X1526053Y21527691D01*
X1529203Y21548926D01*
X1534419Y21569750D01*
X1541651Y21589962D01*
X1550830Y21609368D01*
X1561866Y21627781D01*
X1574654Y21645024D01*
X1589070Y21660930D01*
X1604976Y21675346D01*
X1622219Y21688134D01*
X1640632Y21699170D01*
X1660038Y21708349D01*
X1680250Y21715581D01*
X1701074Y21720797D01*
X1722309Y21723947D01*
X1743750Y21725000D01*
X2256250Y21725000D01*
X2277691Y21723947D01*
X2277691Y21723947D01*
G37*
D13*
X2000000Y21287500D03*
D12*
G36*
X2277691Y20148947D02*
X2298926Y20145797D01*
X2319750Y20140581D01*
X2339962Y20133349D01*
X2359368Y20124170D01*
X2377781Y20113134D01*
X2395024Y20100346D01*
X2410930Y20085930D01*
X2425346Y20070024D01*
X2438134Y20052781D01*
X2449170Y20034368D01*
X2458349Y20014962D01*
X2465581Y19994750D01*
X2470797Y19973926D01*
X2473947Y19952691D01*
X2475000Y19931250D01*
X2475000Y19493750D01*
X2473947Y19472309D01*
X2470797Y19451074D01*
X2465581Y19430250D01*
X2458349Y19410038D01*
X2449170Y19390632D01*
X2438134Y19372219D01*
X2425346Y19354976D01*
X2410930Y19339070D01*
X2395024Y19324654D01*
X2377781Y19311866D01*
X2359368Y19300830D01*
X2339962Y19291651D01*
X2319750Y19284419D01*
X2298926Y19279203D01*
X2277691Y19276053D01*
X2256250Y19275000D01*
X1743750Y19275000D01*
X1722309Y19276053D01*
X1701074Y19279203D01*
X1680250Y19284419D01*
X1660038Y19291651D01*
X1640632Y19300830D01*
X1622219Y19311866D01*
X1604976Y19324654D01*
X1589070Y19339070D01*
X1574654Y19354976D01*
X1561866Y19372219D01*
X1550830Y19390632D01*
X1541651Y19410038D01*
X1534419Y19430250D01*
X1529203Y19451074D01*
X1526053Y19472309D01*
X1525000Y19493750D01*
X1525000Y19931250D01*
X1526053Y19952691D01*
X1529203Y19973926D01*
X1534419Y19994750D01*
X1541651Y20014962D01*
X1550830Y20034368D01*
X1561866Y20052781D01*
X1574654Y20070024D01*
X1589070Y20085930D01*
X1604976Y20100346D01*
X1622219Y20113134D01*
X1640632Y20124170D01*
X1660038Y20133349D01*
X1680250Y20140581D01*
X1701074Y20145797D01*
X1722309Y20148947D01*
X1743750Y20150000D01*
X2256250Y20150000D01*
X2277691Y20148947D01*
X2277691Y20148947D01*
G37*
D13*
X2000000Y19712500D03*
G04 #@! TD*
D12*
G04 #@! TO.C,C5*
G36*
X-7722309Y18723947D02*
X-7701074Y18720797D01*
X-7680250Y18715581D01*
X-7660038Y18708349D01*
X-7640632Y18699170D01*
X-7622219Y18688134D01*
X-7604976Y18675346D01*
X-7589070Y18660930D01*
X-7574654Y18645024D01*
X-7561866Y18627781D01*
X-7550830Y18609368D01*
X-7541651Y18589962D01*
X-7534419Y18569750D01*
X-7529203Y18548926D01*
X-7526053Y18527691D01*
X-7525000Y18506250D01*
X-7525000Y18068750D01*
X-7526053Y18047309D01*
X-7529203Y18026074D01*
X-7534419Y18005250D01*
X-7541651Y17985038D01*
X-7550830Y17965632D01*
X-7561866Y17947219D01*
X-7574654Y17929976D01*
X-7589070Y17914070D01*
X-7604976Y17899654D01*
X-7622219Y17886866D01*
X-7640632Y17875830D01*
X-7660038Y17866651D01*
X-7680250Y17859419D01*
X-7701074Y17854203D01*
X-7722309Y17851053D01*
X-7743750Y17850000D01*
X-8256250Y17850000D01*
X-8277691Y17851053D01*
X-8298926Y17854203D01*
X-8319750Y17859419D01*
X-8339962Y17866651D01*
X-8359368Y17875830D01*
X-8377781Y17886866D01*
X-8395024Y17899654D01*
X-8410930Y17914070D01*
X-8425346Y17929976D01*
X-8438134Y17947219D01*
X-8449170Y17965632D01*
X-8458349Y17985038D01*
X-8465581Y18005250D01*
X-8470797Y18026074D01*
X-8473947Y18047309D01*
X-8475000Y18068750D01*
X-8475000Y18506250D01*
X-8473947Y18527691D01*
X-8470797Y18548926D01*
X-8465581Y18569750D01*
X-8458349Y18589962D01*
X-8449170Y18609368D01*
X-8438134Y18627781D01*
X-8425346Y18645024D01*
X-8410930Y18660930D01*
X-8395024Y18675346D01*
X-8377781Y18688134D01*
X-8359368Y18699170D01*
X-8339962Y18708349D01*
X-8319750Y18715581D01*
X-8298926Y18720797D01*
X-8277691Y18723947D01*
X-8256250Y18725000D01*
X-7743750Y18725000D01*
X-7722309Y18723947D01*
X-7722309Y18723947D01*
G37*
D13*
X-8000000Y18287500D03*
D12*
G36*
X-7722309Y17148947D02*
X-7701074Y17145797D01*
X-7680250Y17140581D01*
X-7660038Y17133349D01*
X-7640632Y17124170D01*
X-7622219Y17113134D01*
X-7604976Y17100346D01*
X-7589070Y17085930D01*
X-7574654Y17070024D01*
X-7561866Y17052781D01*
X-7550830Y17034368D01*
X-7541651Y17014962D01*
X-7534419Y16994750D01*
X-7529203Y16973926D01*
X-7526053Y16952691D01*
X-7525000Y16931250D01*
X-7525000Y16493750D01*
X-7526053Y16472309D01*
X-7529203Y16451074D01*
X-7534419Y16430250D01*
X-7541651Y16410038D01*
X-7550830Y16390632D01*
X-7561866Y16372219D01*
X-7574654Y16354976D01*
X-7589070Y16339070D01*
X-7604976Y16324654D01*
X-7622219Y16311866D01*
X-7640632Y16300830D01*
X-7660038Y16291651D01*
X-7680250Y16284419D01*
X-7701074Y16279203D01*
X-7722309Y16276053D01*
X-7743750Y16275000D01*
X-8256250Y16275000D01*
X-8277691Y16276053D01*
X-8298926Y16279203D01*
X-8319750Y16284419D01*
X-8339962Y16291651D01*
X-8359368Y16300830D01*
X-8377781Y16311866D01*
X-8395024Y16324654D01*
X-8410930Y16339070D01*
X-8425346Y16354976D01*
X-8438134Y16372219D01*
X-8449170Y16390632D01*
X-8458349Y16410038D01*
X-8465581Y16430250D01*
X-8470797Y16451074D01*
X-8473947Y16472309D01*
X-8475000Y16493750D01*
X-8475000Y16931250D01*
X-8473947Y16952691D01*
X-8470797Y16973926D01*
X-8465581Y16994750D01*
X-8458349Y17014962D01*
X-8449170Y17034368D01*
X-8438134Y17052781D01*
X-8425346Y17070024D01*
X-8410930Y17085930D01*
X-8395024Y17100346D01*
X-8377781Y17113134D01*
X-8359368Y17124170D01*
X-8339962Y17133349D01*
X-8319750Y17140581D01*
X-8298926Y17145797D01*
X-8277691Y17148947D01*
X-8256250Y17150000D01*
X-7743750Y17150000D01*
X-7722309Y17148947D01*
X-7722309Y17148947D01*
G37*
D13*
X-8000000Y16712500D03*
G04 #@! TD*
D12*
G04 #@! TO.C,C7*
G36*
X2277691Y17148947D02*
X2298926Y17145797D01*
X2319750Y17140581D01*
X2339962Y17133349D01*
X2359368Y17124170D01*
X2377781Y17113134D01*
X2395024Y17100346D01*
X2410930Y17085930D01*
X2425346Y17070024D01*
X2438134Y17052781D01*
X2449170Y17034368D01*
X2458349Y17014962D01*
X2465581Y16994750D01*
X2470797Y16973926D01*
X2473947Y16952691D01*
X2475000Y16931250D01*
X2475000Y16493750D01*
X2473947Y16472309D01*
X2470797Y16451074D01*
X2465581Y16430250D01*
X2458349Y16410038D01*
X2449170Y16390632D01*
X2438134Y16372219D01*
X2425346Y16354976D01*
X2410930Y16339070D01*
X2395024Y16324654D01*
X2377781Y16311866D01*
X2359368Y16300830D01*
X2339962Y16291651D01*
X2319750Y16284419D01*
X2298926Y16279203D01*
X2277691Y16276053D01*
X2256250Y16275000D01*
X1743750Y16275000D01*
X1722309Y16276053D01*
X1701074Y16279203D01*
X1680250Y16284419D01*
X1660038Y16291651D01*
X1640632Y16300830D01*
X1622219Y16311866D01*
X1604976Y16324654D01*
X1589070Y16339070D01*
X1574654Y16354976D01*
X1561866Y16372219D01*
X1550830Y16390632D01*
X1541651Y16410038D01*
X1534419Y16430250D01*
X1529203Y16451074D01*
X1526053Y16472309D01*
X1525000Y16493750D01*
X1525000Y16931250D01*
X1526053Y16952691D01*
X1529203Y16973926D01*
X1534419Y16994750D01*
X1541651Y17014962D01*
X1550830Y17034368D01*
X1561866Y17052781D01*
X1574654Y17070024D01*
X1589070Y17085930D01*
X1604976Y17100346D01*
X1622219Y17113134D01*
X1640632Y17124170D01*
X1660038Y17133349D01*
X1680250Y17140581D01*
X1701074Y17145797D01*
X1722309Y17148947D01*
X1743750Y17150000D01*
X2256250Y17150000D01*
X2277691Y17148947D01*
X2277691Y17148947D01*
G37*
D13*
X2000000Y16712500D03*
D12*
G36*
X2277691Y18723947D02*
X2298926Y18720797D01*
X2319750Y18715581D01*
X2339962Y18708349D01*
X2359368Y18699170D01*
X2377781Y18688134D01*
X2395024Y18675346D01*
X2410930Y18660930D01*
X2425346Y18645024D01*
X2438134Y18627781D01*
X2449170Y18609368D01*
X2458349Y18589962D01*
X2465581Y18569750D01*
X2470797Y18548926D01*
X2473947Y18527691D01*
X2475000Y18506250D01*
X2475000Y18068750D01*
X2473947Y18047309D01*
X2470797Y18026074D01*
X2465581Y18005250D01*
X2458349Y17985038D01*
X2449170Y17965632D01*
X2438134Y17947219D01*
X2425346Y17929976D01*
X2410930Y17914070D01*
X2395024Y17899654D01*
X2377781Y17886866D01*
X2359368Y17875830D01*
X2339962Y17866651D01*
X2319750Y17859419D01*
X2298926Y17854203D01*
X2277691Y17851053D01*
X2256250Y17850000D01*
X1743750Y17850000D01*
X1722309Y17851053D01*
X1701074Y17854203D01*
X1680250Y17859419D01*
X1660038Y17866651D01*
X1640632Y17875830D01*
X1622219Y17886866D01*
X1604976Y17899654D01*
X1589070Y17914070D01*
X1574654Y17929976D01*
X1561866Y17947219D01*
X1550830Y17965632D01*
X1541651Y17985038D01*
X1534419Y18005250D01*
X1529203Y18026074D01*
X1526053Y18047309D01*
X1525000Y18068750D01*
X1525000Y18506250D01*
X1526053Y18527691D01*
X1529203Y18548926D01*
X1534419Y18569750D01*
X1541651Y18589962D01*
X1550830Y18609368D01*
X1561866Y18627781D01*
X1574654Y18645024D01*
X1589070Y18660930D01*
X1604976Y18675346D01*
X1622219Y18688134D01*
X1640632Y18699170D01*
X1660038Y18708349D01*
X1680250Y18715581D01*
X1701074Y18720797D01*
X1722309Y18723947D01*
X1743750Y18725000D01*
X2256250Y18725000D01*
X2277691Y18723947D01*
X2277691Y18723947D01*
G37*
D13*
X2000000Y18287500D03*
G04 #@! TD*
D12*
G04 #@! TO.C,C8*
G36*
X-7722309Y12723947D02*
X-7701074Y12720797D01*
X-7680250Y12715581D01*
X-7660038Y12708349D01*
X-7640632Y12699170D01*
X-7622219Y12688134D01*
X-7604976Y12675346D01*
X-7589070Y12660930D01*
X-7574654Y12645024D01*
X-7561866Y12627781D01*
X-7550830Y12609368D01*
X-7541651Y12589962D01*
X-7534419Y12569750D01*
X-7529203Y12548926D01*
X-7526053Y12527691D01*
X-7525000Y12506250D01*
X-7525000Y12068750D01*
X-7526053Y12047309D01*
X-7529203Y12026074D01*
X-7534419Y12005250D01*
X-7541651Y11985038D01*
X-7550830Y11965632D01*
X-7561866Y11947219D01*
X-7574654Y11929976D01*
X-7589070Y11914070D01*
X-7604976Y11899654D01*
X-7622219Y11886866D01*
X-7640632Y11875830D01*
X-7660038Y11866651D01*
X-7680250Y11859419D01*
X-7701074Y11854203D01*
X-7722309Y11851053D01*
X-7743750Y11850000D01*
X-8256250Y11850000D01*
X-8277691Y11851053D01*
X-8298926Y11854203D01*
X-8319750Y11859419D01*
X-8339962Y11866651D01*
X-8359368Y11875830D01*
X-8377781Y11886866D01*
X-8395024Y11899654D01*
X-8410930Y11914070D01*
X-8425346Y11929976D01*
X-8438134Y11947219D01*
X-8449170Y11965632D01*
X-8458349Y11985038D01*
X-8465581Y12005250D01*
X-8470797Y12026074D01*
X-8473947Y12047309D01*
X-8475000Y12068750D01*
X-8475000Y12506250D01*
X-8473947Y12527691D01*
X-8470797Y12548926D01*
X-8465581Y12569750D01*
X-8458349Y12589962D01*
X-8449170Y12609368D01*
X-8438134Y12627781D01*
X-8425346Y12645024D01*
X-8410930Y12660930D01*
X-8395024Y12675346D01*
X-8377781Y12688134D01*
X-8359368Y12699170D01*
X-8339962Y12708349D01*
X-8319750Y12715581D01*
X-8298926Y12720797D01*
X-8277691Y12723947D01*
X-8256250Y12725000D01*
X-7743750Y12725000D01*
X-7722309Y12723947D01*
X-7722309Y12723947D01*
G37*
D13*
X-8000000Y12287500D03*
D12*
G36*
X-7722309Y11148947D02*
X-7701074Y11145797D01*
X-7680250Y11140581D01*
X-7660038Y11133349D01*
X-7640632Y11124170D01*
X-7622219Y11113134D01*
X-7604976Y11100346D01*
X-7589070Y11085930D01*
X-7574654Y11070024D01*
X-7561866Y11052781D01*
X-7550830Y11034368D01*
X-7541651Y11014962D01*
X-7534419Y10994750D01*
X-7529203Y10973926D01*
X-7526053Y10952691D01*
X-7525000Y10931250D01*
X-7525000Y10493750D01*
X-7526053Y10472309D01*
X-7529203Y10451074D01*
X-7534419Y10430250D01*
X-7541651Y10410038D01*
X-7550830Y10390632D01*
X-7561866Y10372219D01*
X-7574654Y10354976D01*
X-7589070Y10339070D01*
X-7604976Y10324654D01*
X-7622219Y10311866D01*
X-7640632Y10300830D01*
X-7660038Y10291651D01*
X-7680250Y10284419D01*
X-7701074Y10279203D01*
X-7722309Y10276053D01*
X-7743750Y10275000D01*
X-8256250Y10275000D01*
X-8277691Y10276053D01*
X-8298926Y10279203D01*
X-8319750Y10284419D01*
X-8339962Y10291651D01*
X-8359368Y10300830D01*
X-8377781Y10311866D01*
X-8395024Y10324654D01*
X-8410930Y10339070D01*
X-8425346Y10354976D01*
X-8438134Y10372219D01*
X-8449170Y10390632D01*
X-8458349Y10410038D01*
X-8465581Y10430250D01*
X-8470797Y10451074D01*
X-8473947Y10472309D01*
X-8475000Y10493750D01*
X-8475000Y10931250D01*
X-8473947Y10952691D01*
X-8470797Y10973926D01*
X-8465581Y10994750D01*
X-8458349Y11014962D01*
X-8449170Y11034368D01*
X-8438134Y11052781D01*
X-8425346Y11070024D01*
X-8410930Y11085930D01*
X-8395024Y11100346D01*
X-8377781Y11113134D01*
X-8359368Y11124170D01*
X-8339962Y11133349D01*
X-8319750Y11140581D01*
X-8298926Y11145797D01*
X-8277691Y11148947D01*
X-8256250Y11150000D01*
X-7743750Y11150000D01*
X-7722309Y11148947D01*
X-7722309Y11148947D01*
G37*
D13*
X-8000000Y10712500D03*
G04 #@! TD*
D12*
G04 #@! TO.C,R2*
G36*
X10277691Y21723947D02*
X10298926Y21720797D01*
X10319750Y21715581D01*
X10339962Y21708349D01*
X10359368Y21699170D01*
X10377781Y21688134D01*
X10395024Y21675346D01*
X10410930Y21660930D01*
X10425346Y21645024D01*
X10438134Y21627781D01*
X10449170Y21609368D01*
X10458349Y21589962D01*
X10465581Y21569750D01*
X10470797Y21548926D01*
X10473947Y21527691D01*
X10475000Y21506250D01*
X10475000Y21068750D01*
X10473947Y21047309D01*
X10470797Y21026074D01*
X10465581Y21005250D01*
X10458349Y20985038D01*
X10449170Y20965632D01*
X10438134Y20947219D01*
X10425346Y20929976D01*
X10410930Y20914070D01*
X10395024Y20899654D01*
X10377781Y20886866D01*
X10359368Y20875830D01*
X10339962Y20866651D01*
X10319750Y20859419D01*
X10298926Y20854203D01*
X10277691Y20851053D01*
X10256250Y20850000D01*
X9743750Y20850000D01*
X9722309Y20851053D01*
X9701074Y20854203D01*
X9680250Y20859419D01*
X9660038Y20866651D01*
X9640632Y20875830D01*
X9622219Y20886866D01*
X9604976Y20899654D01*
X9589070Y20914070D01*
X9574654Y20929976D01*
X9561866Y20947219D01*
X9550830Y20965632D01*
X9541651Y20985038D01*
X9534419Y21005250D01*
X9529203Y21026074D01*
X9526053Y21047309D01*
X9525000Y21068750D01*
X9525000Y21506250D01*
X9526053Y21527691D01*
X9529203Y21548926D01*
X9534419Y21569750D01*
X9541651Y21589962D01*
X9550830Y21609368D01*
X9561866Y21627781D01*
X9574654Y21645024D01*
X9589070Y21660930D01*
X9604976Y21675346D01*
X9622219Y21688134D01*
X9640632Y21699170D01*
X9660038Y21708349D01*
X9680250Y21715581D01*
X9701074Y21720797D01*
X9722309Y21723947D01*
X9743750Y21725000D01*
X10256250Y21725000D01*
X10277691Y21723947D01*
X10277691Y21723947D01*
G37*
D13*
X10000000Y21287500D03*
D12*
G36*
X10277691Y20148947D02*
X10298926Y20145797D01*
X10319750Y20140581D01*
X10339962Y20133349D01*
X10359368Y20124170D01*
X10377781Y20113134D01*
X10395024Y20100346D01*
X10410930Y20085930D01*
X10425346Y20070024D01*
X10438134Y20052781D01*
X10449170Y20034368D01*
X10458349Y20014962D01*
X10465581Y19994750D01*
X10470797Y19973926D01*
X10473947Y19952691D01*
X10475000Y19931250D01*
X10475000Y19493750D01*
X10473947Y19472309D01*
X10470797Y19451074D01*
X10465581Y19430250D01*
X10458349Y19410038D01*
X10449170Y19390632D01*
X10438134Y19372219D01*
X10425346Y19354976D01*
X10410930Y19339070D01*
X10395024Y19324654D01*
X10377781Y19311866D01*
X10359368Y19300830D01*
X10339962Y19291651D01*
X10319750Y19284419D01*
X10298926Y19279203D01*
X10277691Y19276053D01*
X10256250Y19275000D01*
X9743750Y19275000D01*
X9722309Y19276053D01*
X9701074Y19279203D01*
X9680250Y19284419D01*
X9660038Y19291651D01*
X9640632Y19300830D01*
X9622219Y19311866D01*
X9604976Y19324654D01*
X9589070Y19339070D01*
X9574654Y19354976D01*
X9561866Y19372219D01*
X9550830Y19390632D01*
X9541651Y19410038D01*
X9534419Y19430250D01*
X9529203Y19451074D01*
X9526053Y19472309D01*
X9525000Y19493750D01*
X9525000Y19931250D01*
X9526053Y19952691D01*
X9529203Y19973926D01*
X9534419Y19994750D01*
X9541651Y20014962D01*
X9550830Y20034368D01*
X9561866Y20052781D01*
X9574654Y20070024D01*
X9589070Y20085930D01*
X9604976Y20100346D01*
X9622219Y20113134D01*
X9640632Y20124170D01*
X9660038Y20133349D01*
X9680250Y20140581D01*
X9701074Y20145797D01*
X9722309Y20148947D01*
X9743750Y20150000D01*
X10256250Y20150000D01*
X10277691Y20148947D01*
X10277691Y20148947D01*
G37*
D13*
X10000000Y19712500D03*
G04 #@! TD*
D12*
G04 #@! TO.C,R3*
G36*
X2277691Y11148947D02*
X2298926Y11145797D01*
X2319750Y11140581D01*
X2339962Y11133349D01*
X2359368Y11124170D01*
X2377781Y11113134D01*
X2395024Y11100346D01*
X2410930Y11085930D01*
X2425346Y11070024D01*
X2438134Y11052781D01*
X2449170Y11034368D01*
X2458349Y11014962D01*
X2465581Y10994750D01*
X2470797Y10973926D01*
X2473947Y10952691D01*
X2475000Y10931250D01*
X2475000Y10493750D01*
X2473947Y10472309D01*
X2470797Y10451074D01*
X2465581Y10430250D01*
X2458349Y10410038D01*
X2449170Y10390632D01*
X2438134Y10372219D01*
X2425346Y10354976D01*
X2410930Y10339070D01*
X2395024Y10324654D01*
X2377781Y10311866D01*
X2359368Y10300830D01*
X2339962Y10291651D01*
X2319750Y10284419D01*
X2298926Y10279203D01*
X2277691Y10276053D01*
X2256250Y10275000D01*
X1743750Y10275000D01*
X1722309Y10276053D01*
X1701074Y10279203D01*
X1680250Y10284419D01*
X1660038Y10291651D01*
X1640632Y10300830D01*
X1622219Y10311866D01*
X1604976Y10324654D01*
X1589070Y10339070D01*
X1574654Y10354976D01*
X1561866Y10372219D01*
X1550830Y10390632D01*
X1541651Y10410038D01*
X1534419Y10430250D01*
X1529203Y10451074D01*
X1526053Y10472309D01*
X1525000Y10493750D01*
X1525000Y10931250D01*
X1526053Y10952691D01*
X1529203Y10973926D01*
X1534419Y10994750D01*
X1541651Y11014962D01*
X1550830Y11034368D01*
X1561866Y11052781D01*
X1574654Y11070024D01*
X1589070Y11085930D01*
X1604976Y11100346D01*
X1622219Y11113134D01*
X1640632Y11124170D01*
X1660038Y11133349D01*
X1680250Y11140581D01*
X1701074Y11145797D01*
X1722309Y11148947D01*
X1743750Y11150000D01*
X2256250Y11150000D01*
X2277691Y11148947D01*
X2277691Y11148947D01*
G37*
D13*
X2000000Y10712500D03*
D12*
G36*
X2277691Y12723947D02*
X2298926Y12720797D01*
X2319750Y12715581D01*
X2339962Y12708349D01*
X2359368Y12699170D01*
X2377781Y12688134D01*
X2395024Y12675346D01*
X2410930Y12660930D01*
X2425346Y12645024D01*
X2438134Y12627781D01*
X2449170Y12609368D01*
X2458349Y12589962D01*
X2465581Y12569750D01*
X2470797Y12548926D01*
X2473947Y12527691D01*
X2475000Y12506250D01*
X2475000Y12068750D01*
X2473947Y12047309D01*
X2470797Y12026074D01*
X2465581Y12005250D01*
X2458349Y11985038D01*
X2449170Y11965632D01*
X2438134Y11947219D01*
X2425346Y11929976D01*
X2410930Y11914070D01*
X2395024Y11899654D01*
X2377781Y11886866D01*
X2359368Y11875830D01*
X2339962Y11866651D01*
X2319750Y11859419D01*
X2298926Y11854203D01*
X2277691Y11851053D01*
X2256250Y11850000D01*
X1743750Y11850000D01*
X1722309Y11851053D01*
X1701074Y11854203D01*
X1680250Y11859419D01*
X1660038Y11866651D01*
X1640632Y11875830D01*
X1622219Y11886866D01*
X1604976Y11899654D01*
X1589070Y11914070D01*
X1574654Y11929976D01*
X1561866Y11947219D01*
X1550830Y11965632D01*
X1541651Y11985038D01*
X1534419Y12005250D01*
X1529203Y12026074D01*
X1526053Y12047309D01*
X1525000Y12068750D01*
X1525000Y12506250D01*
X1526053Y12527691D01*
X1529203Y12548926D01*
X1534419Y12569750D01*
X1541651Y12589962D01*
X1550830Y12609368D01*
X1561866Y12627781D01*
X1574654Y12645024D01*
X1589070Y12660930D01*
X1604976Y12675346D01*
X1622219Y12688134D01*
X1640632Y12699170D01*
X1660038Y12708349D01*
X1680250Y12715581D01*
X1701074Y12720797D01*
X1722309Y12723947D01*
X1743750Y12725000D01*
X2256250Y12725000D01*
X2277691Y12723947D01*
X2277691Y12723947D01*
G37*
D13*
X2000000Y12287500D03*
G04 #@! TD*
D12*
G04 #@! TO.C,R4*
G36*
X2277691Y9723947D02*
X2298926Y9720797D01*
X2319750Y9715581D01*
X2339962Y9708349D01*
X2359368Y9699170D01*
X2377781Y9688134D01*
X2395024Y9675346D01*
X2410930Y9660930D01*
X2425346Y9645024D01*
X2438134Y9627781D01*
X2449170Y9609368D01*
X2458349Y9589962D01*
X2465581Y9569750D01*
X2470797Y9548926D01*
X2473947Y9527691D01*
X2475000Y9506250D01*
X2475000Y9068750D01*
X2473947Y9047309D01*
X2470797Y9026074D01*
X2465581Y9005250D01*
X2458349Y8985038D01*
X2449170Y8965632D01*
X2438134Y8947219D01*
X2425346Y8929976D01*
X2410930Y8914070D01*
X2395024Y8899654D01*
X2377781Y8886866D01*
X2359368Y8875830D01*
X2339962Y8866651D01*
X2319750Y8859419D01*
X2298926Y8854203D01*
X2277691Y8851053D01*
X2256250Y8850000D01*
X1743750Y8850000D01*
X1722309Y8851053D01*
X1701074Y8854203D01*
X1680250Y8859419D01*
X1660038Y8866651D01*
X1640632Y8875830D01*
X1622219Y8886866D01*
X1604976Y8899654D01*
X1589070Y8914070D01*
X1574654Y8929976D01*
X1561866Y8947219D01*
X1550830Y8965632D01*
X1541651Y8985038D01*
X1534419Y9005250D01*
X1529203Y9026074D01*
X1526053Y9047309D01*
X1525000Y9068750D01*
X1525000Y9506250D01*
X1526053Y9527691D01*
X1529203Y9548926D01*
X1534419Y9569750D01*
X1541651Y9589962D01*
X1550830Y9609368D01*
X1561866Y9627781D01*
X1574654Y9645024D01*
X1589070Y9660930D01*
X1604976Y9675346D01*
X1622219Y9688134D01*
X1640632Y9699170D01*
X1660038Y9708349D01*
X1680250Y9715581D01*
X1701074Y9720797D01*
X1722309Y9723947D01*
X1743750Y9725000D01*
X2256250Y9725000D01*
X2277691Y9723947D01*
X2277691Y9723947D01*
G37*
D13*
X2000000Y9287500D03*
D12*
G36*
X2277691Y8148947D02*
X2298926Y8145797D01*
X2319750Y8140581D01*
X2339962Y8133349D01*
X2359368Y8124170D01*
X2377781Y8113134D01*
X2395024Y8100346D01*
X2410930Y8085930D01*
X2425346Y8070024D01*
X2438134Y8052781D01*
X2449170Y8034368D01*
X2458349Y8014962D01*
X2465581Y7994750D01*
X2470797Y7973926D01*
X2473947Y7952691D01*
X2475000Y7931250D01*
X2475000Y7493750D01*
X2473947Y7472309D01*
X2470797Y7451074D01*
X2465581Y7430250D01*
X2458349Y7410038D01*
X2449170Y7390632D01*
X2438134Y7372219D01*
X2425346Y7354976D01*
X2410930Y7339070D01*
X2395024Y7324654D01*
X2377781Y7311866D01*
X2359368Y7300830D01*
X2339962Y7291651D01*
X2319750Y7284419D01*
X2298926Y7279203D01*
X2277691Y7276053D01*
X2256250Y7275000D01*
X1743750Y7275000D01*
X1722309Y7276053D01*
X1701074Y7279203D01*
X1680250Y7284419D01*
X1660038Y7291651D01*
X1640632Y7300830D01*
X1622219Y7311866D01*
X1604976Y7324654D01*
X1589070Y7339070D01*
X1574654Y7354976D01*
X1561866Y7372219D01*
X1550830Y7390632D01*
X1541651Y7410038D01*
X1534419Y7430250D01*
X1529203Y7451074D01*
X1526053Y7472309D01*
X1525000Y7493750D01*
X1525000Y7931250D01*
X1526053Y7952691D01*
X1529203Y7973926D01*
X1534419Y7994750D01*
X1541651Y8014962D01*
X1550830Y8034368D01*
X1561866Y8052781D01*
X1574654Y8070024D01*
X1589070Y8085930D01*
X1604976Y8100346D01*
X1622219Y8113134D01*
X1640632Y8124170D01*
X1660038Y8133349D01*
X1680250Y8140581D01*
X1701074Y8145797D01*
X1722309Y8148947D01*
X1743750Y8150000D01*
X2256250Y8150000D01*
X2277691Y8148947D01*
X2277691Y8148947D01*
G37*
D13*
X2000000Y7712500D03*
G04 #@! TD*
D12*
G04 #@! TO.C,R5*
G36*
X2277691Y15723947D02*
X2298926Y15720797D01*
X2319750Y15715581D01*
X2339962Y15708349D01*
X2359368Y15699170D01*
X2377781Y15688134D01*
X2395024Y15675346D01*
X2410930Y15660930D01*
X2425346Y15645024D01*
X2438134Y15627781D01*
X2449170Y15609368D01*
X2458349Y15589962D01*
X2465581Y15569750D01*
X2470797Y15548926D01*
X2473947Y15527691D01*
X2475000Y15506250D01*
X2475000Y15068750D01*
X2473947Y15047309D01*
X2470797Y15026074D01*
X2465581Y15005250D01*
X2458349Y14985038D01*
X2449170Y14965632D01*
X2438134Y14947219D01*
X2425346Y14929976D01*
X2410930Y14914070D01*
X2395024Y14899654D01*
X2377781Y14886866D01*
X2359368Y14875830D01*
X2339962Y14866651D01*
X2319750Y14859419D01*
X2298926Y14854203D01*
X2277691Y14851053D01*
X2256250Y14850000D01*
X1743750Y14850000D01*
X1722309Y14851053D01*
X1701074Y14854203D01*
X1680250Y14859419D01*
X1660038Y14866651D01*
X1640632Y14875830D01*
X1622219Y14886866D01*
X1604976Y14899654D01*
X1589070Y14914070D01*
X1574654Y14929976D01*
X1561866Y14947219D01*
X1550830Y14965632D01*
X1541651Y14985038D01*
X1534419Y15005250D01*
X1529203Y15026074D01*
X1526053Y15047309D01*
X1525000Y15068750D01*
X1525000Y15506250D01*
X1526053Y15527691D01*
X1529203Y15548926D01*
X1534419Y15569750D01*
X1541651Y15589962D01*
X1550830Y15609368D01*
X1561866Y15627781D01*
X1574654Y15645024D01*
X1589070Y15660930D01*
X1604976Y15675346D01*
X1622219Y15688134D01*
X1640632Y15699170D01*
X1660038Y15708349D01*
X1680250Y15715581D01*
X1701074Y15720797D01*
X1722309Y15723947D01*
X1743750Y15725000D01*
X2256250Y15725000D01*
X2277691Y15723947D01*
X2277691Y15723947D01*
G37*
D13*
X2000000Y15287500D03*
D12*
G36*
X2277691Y14148947D02*
X2298926Y14145797D01*
X2319750Y14140581D01*
X2339962Y14133349D01*
X2359368Y14124170D01*
X2377781Y14113134D01*
X2395024Y14100346D01*
X2410930Y14085930D01*
X2425346Y14070024D01*
X2438134Y14052781D01*
X2449170Y14034368D01*
X2458349Y14014962D01*
X2465581Y13994750D01*
X2470797Y13973926D01*
X2473947Y13952691D01*
X2475000Y13931250D01*
X2475000Y13493750D01*
X2473947Y13472309D01*
X2470797Y13451074D01*
X2465581Y13430250D01*
X2458349Y13410038D01*
X2449170Y13390632D01*
X2438134Y13372219D01*
X2425346Y13354976D01*
X2410930Y13339070D01*
X2395024Y13324654D01*
X2377781Y13311866D01*
X2359368Y13300830D01*
X2339962Y13291651D01*
X2319750Y13284419D01*
X2298926Y13279203D01*
X2277691Y13276053D01*
X2256250Y13275000D01*
X1743750Y13275000D01*
X1722309Y13276053D01*
X1701074Y13279203D01*
X1680250Y13284419D01*
X1660038Y13291651D01*
X1640632Y13300830D01*
X1622219Y13311866D01*
X1604976Y13324654D01*
X1589070Y13339070D01*
X1574654Y13354976D01*
X1561866Y13372219D01*
X1550830Y13390632D01*
X1541651Y13410038D01*
X1534419Y13430250D01*
X1529203Y13451074D01*
X1526053Y13472309D01*
X1525000Y13493750D01*
X1525000Y13931250D01*
X1526053Y13952691D01*
X1529203Y13973926D01*
X1534419Y13994750D01*
X1541651Y14014962D01*
X1550830Y14034368D01*
X1561866Y14052781D01*
X1574654Y14070024D01*
X1589070Y14085930D01*
X1604976Y14100346D01*
X1622219Y14113134D01*
X1640632Y14124170D01*
X1660038Y14133349D01*
X1680250Y14140581D01*
X1701074Y14145797D01*
X1722309Y14148947D01*
X1743750Y14150000D01*
X2256250Y14150000D01*
X2277691Y14148947D01*
X2277691Y14148947D01*
G37*
D13*
X2000000Y13712500D03*
G04 #@! TD*
D12*
G04 #@! TO.C,R6*
G36*
X-7722309Y5148947D02*
X-7701074Y5145797D01*
X-7680250Y5140581D01*
X-7660038Y5133349D01*
X-7640632Y5124170D01*
X-7622219Y5113134D01*
X-7604976Y5100346D01*
X-7589070Y5085930D01*
X-7574654Y5070024D01*
X-7561866Y5052781D01*
X-7550830Y5034368D01*
X-7541651Y5014962D01*
X-7534419Y4994750D01*
X-7529203Y4973926D01*
X-7526053Y4952691D01*
X-7525000Y4931250D01*
X-7525000Y4493750D01*
X-7526053Y4472309D01*
X-7529203Y4451074D01*
X-7534419Y4430250D01*
X-7541651Y4410038D01*
X-7550830Y4390632D01*
X-7561866Y4372219D01*
X-7574654Y4354976D01*
X-7589070Y4339070D01*
X-7604976Y4324654D01*
X-7622219Y4311866D01*
X-7640632Y4300830D01*
X-7660038Y4291651D01*
X-7680250Y4284419D01*
X-7701074Y4279203D01*
X-7722309Y4276053D01*
X-7743750Y4275000D01*
X-8256250Y4275000D01*
X-8277691Y4276053D01*
X-8298926Y4279203D01*
X-8319750Y4284419D01*
X-8339962Y4291651D01*
X-8359368Y4300830D01*
X-8377781Y4311866D01*
X-8395024Y4324654D01*
X-8410930Y4339070D01*
X-8425346Y4354976D01*
X-8438134Y4372219D01*
X-8449170Y4390632D01*
X-8458349Y4410038D01*
X-8465581Y4430250D01*
X-8470797Y4451074D01*
X-8473947Y4472309D01*
X-8475000Y4493750D01*
X-8475000Y4931250D01*
X-8473947Y4952691D01*
X-8470797Y4973926D01*
X-8465581Y4994750D01*
X-8458349Y5014962D01*
X-8449170Y5034368D01*
X-8438134Y5052781D01*
X-8425346Y5070024D01*
X-8410930Y5085930D01*
X-8395024Y5100346D01*
X-8377781Y5113134D01*
X-8359368Y5124170D01*
X-8339962Y5133349D01*
X-8319750Y5140581D01*
X-8298926Y5145797D01*
X-8277691Y5148947D01*
X-8256250Y5150000D01*
X-7743750Y5150000D01*
X-7722309Y5148947D01*
X-7722309Y5148947D01*
G37*
D13*
X-8000000Y4712500D03*
D12*
G36*
X-7722309Y6723947D02*
X-7701074Y6720797D01*
X-7680250Y6715581D01*
X-7660038Y6708349D01*
X-7640632Y6699170D01*
X-7622219Y6688134D01*
X-7604976Y6675346D01*
X-7589070Y6660930D01*
X-7574654Y6645024D01*
X-7561866Y6627781D01*
X-7550830Y6609368D01*
X-7541651Y6589962D01*
X-7534419Y6569750D01*
X-7529203Y6548926D01*
X-7526053Y6527691D01*
X-7525000Y6506250D01*
X-7525000Y6068750D01*
X-7526053Y6047309D01*
X-7529203Y6026074D01*
X-7534419Y6005250D01*
X-7541651Y5985038D01*
X-7550830Y5965632D01*
X-7561866Y5947219D01*
X-7574654Y5929976D01*
X-7589070Y5914070D01*
X-7604976Y5899654D01*
X-7622219Y5886866D01*
X-7640632Y5875830D01*
X-7660038Y5866651D01*
X-7680250Y5859419D01*
X-7701074Y5854203D01*
X-7722309Y5851053D01*
X-7743750Y5850000D01*
X-8256250Y5850000D01*
X-8277691Y5851053D01*
X-8298926Y5854203D01*
X-8319750Y5859419D01*
X-8339962Y5866651D01*
X-8359368Y5875830D01*
X-8377781Y5886866D01*
X-8395024Y5899654D01*
X-8410930Y5914070D01*
X-8425346Y5929976D01*
X-8438134Y5947219D01*
X-8449170Y5965632D01*
X-8458349Y5985038D01*
X-8465581Y6005250D01*
X-8470797Y6026074D01*
X-8473947Y6047309D01*
X-8475000Y6068750D01*
X-8475000Y6506250D01*
X-8473947Y6527691D01*
X-8470797Y6548926D01*
X-8465581Y6569750D01*
X-8458349Y6589962D01*
X-8449170Y6609368D01*
X-8438134Y6627781D01*
X-8425346Y6645024D01*
X-8410930Y6660930D01*
X-8395024Y6675346D01*
X-8377781Y6688134D01*
X-8359368Y6699170D01*
X-8339962Y6708349D01*
X-8319750Y6715581D01*
X-8298926Y6720797D01*
X-8277691Y6723947D01*
X-8256250Y6725000D01*
X-7743750Y6725000D01*
X-7722309Y6723947D01*
X-7722309Y6723947D01*
G37*
D13*
X-8000000Y6287500D03*
G04 #@! TD*
D12*
G04 #@! TO.C,R7*
G36*
X-7722309Y8148947D02*
X-7701074Y8145797D01*
X-7680250Y8140581D01*
X-7660038Y8133349D01*
X-7640632Y8124170D01*
X-7622219Y8113134D01*
X-7604976Y8100346D01*
X-7589070Y8085930D01*
X-7574654Y8070024D01*
X-7561866Y8052781D01*
X-7550830Y8034368D01*
X-7541651Y8014962D01*
X-7534419Y7994750D01*
X-7529203Y7973926D01*
X-7526053Y7952691D01*
X-7525000Y7931250D01*
X-7525000Y7493750D01*
X-7526053Y7472309D01*
X-7529203Y7451074D01*
X-7534419Y7430250D01*
X-7541651Y7410038D01*
X-7550830Y7390632D01*
X-7561866Y7372219D01*
X-7574654Y7354976D01*
X-7589070Y7339070D01*
X-7604976Y7324654D01*
X-7622219Y7311866D01*
X-7640632Y7300830D01*
X-7660038Y7291651D01*
X-7680250Y7284419D01*
X-7701074Y7279203D01*
X-7722309Y7276053D01*
X-7743750Y7275000D01*
X-8256250Y7275000D01*
X-8277691Y7276053D01*
X-8298926Y7279203D01*
X-8319750Y7284419D01*
X-8339962Y7291651D01*
X-8359368Y7300830D01*
X-8377781Y7311866D01*
X-8395024Y7324654D01*
X-8410930Y7339070D01*
X-8425346Y7354976D01*
X-8438134Y7372219D01*
X-8449170Y7390632D01*
X-8458349Y7410038D01*
X-8465581Y7430250D01*
X-8470797Y7451074D01*
X-8473947Y7472309D01*
X-8475000Y7493750D01*
X-8475000Y7931250D01*
X-8473947Y7952691D01*
X-8470797Y7973926D01*
X-8465581Y7994750D01*
X-8458349Y8014962D01*
X-8449170Y8034368D01*
X-8438134Y8052781D01*
X-8425346Y8070024D01*
X-8410930Y8085930D01*
X-8395024Y8100346D01*
X-8377781Y8113134D01*
X-8359368Y8124170D01*
X-8339962Y8133349D01*
X-8319750Y8140581D01*
X-8298926Y8145797D01*
X-8277691Y8148947D01*
X-8256250Y8150000D01*
X-7743750Y8150000D01*
X-7722309Y8148947D01*
X-7722309Y8148947D01*
G37*
D13*
X-8000000Y7712500D03*
D12*
G36*
X-7722309Y9723947D02*
X-7701074Y9720797D01*
X-7680250Y9715581D01*
X-7660038Y9708349D01*
X-7640632Y9699170D01*
X-7622219Y9688134D01*
X-7604976Y9675346D01*
X-7589070Y9660930D01*
X-7574654Y9645024D01*
X-7561866Y9627781D01*
X-7550830Y9609368D01*
X-7541651Y9589962D01*
X-7534419Y9569750D01*
X-7529203Y9548926D01*
X-7526053Y9527691D01*
X-7525000Y9506250D01*
X-7525000Y9068750D01*
X-7526053Y9047309D01*
X-7529203Y9026074D01*
X-7534419Y9005250D01*
X-7541651Y8985038D01*
X-7550830Y8965632D01*
X-7561866Y8947219D01*
X-7574654Y8929976D01*
X-7589070Y8914070D01*
X-7604976Y8899654D01*
X-7622219Y8886866D01*
X-7640632Y8875830D01*
X-7660038Y8866651D01*
X-7680250Y8859419D01*
X-7701074Y8854203D01*
X-7722309Y8851053D01*
X-7743750Y8850000D01*
X-8256250Y8850000D01*
X-8277691Y8851053D01*
X-8298926Y8854203D01*
X-8319750Y8859419D01*
X-8339962Y8866651D01*
X-8359368Y8875830D01*
X-8377781Y8886866D01*
X-8395024Y8899654D01*
X-8410930Y8914070D01*
X-8425346Y8929976D01*
X-8438134Y8947219D01*
X-8449170Y8965632D01*
X-8458349Y8985038D01*
X-8465581Y9005250D01*
X-8470797Y9026074D01*
X-8473947Y9047309D01*
X-8475000Y9068750D01*
X-8475000Y9506250D01*
X-8473947Y9527691D01*
X-8470797Y9548926D01*
X-8465581Y9569750D01*
X-8458349Y9589962D01*
X-8449170Y9609368D01*
X-8438134Y9627781D01*
X-8425346Y9645024D01*
X-8410930Y9660930D01*
X-8395024Y9675346D01*
X-8377781Y9688134D01*
X-8359368Y9699170D01*
X-8339962Y9708349D01*
X-8319750Y9715581D01*
X-8298926Y9720797D01*
X-8277691Y9723947D01*
X-8256250Y9725000D01*
X-7743750Y9725000D01*
X-7722309Y9723947D01*
X-7722309Y9723947D01*
G37*
D13*
X-8000000Y9287500D03*
G04 #@! TD*
D12*
G04 #@! TO.C,R1*
G36*
X7377691Y14148947D02*
X7398926Y14145797D01*
X7419750Y14140581D01*
X7439962Y14133349D01*
X7459368Y14124170D01*
X7477781Y14113134D01*
X7495024Y14100346D01*
X7510930Y14085930D01*
X7525346Y14070024D01*
X7538134Y14052781D01*
X7549170Y14034368D01*
X7558349Y14014962D01*
X7565581Y13994750D01*
X7570797Y13973926D01*
X7573947Y13952691D01*
X7575000Y13931250D01*
X7575000Y13493750D01*
X7573947Y13472309D01*
X7570797Y13451074D01*
X7565581Y13430250D01*
X7558349Y13410038D01*
X7549170Y13390632D01*
X7538134Y13372219D01*
X7525346Y13354976D01*
X7510930Y13339070D01*
X7495024Y13324654D01*
X7477781Y13311866D01*
X7459368Y13300830D01*
X7439962Y13291651D01*
X7419750Y13284419D01*
X7398926Y13279203D01*
X7377691Y13276053D01*
X7356250Y13275000D01*
X6843750Y13275000D01*
X6822309Y13276053D01*
X6801074Y13279203D01*
X6780250Y13284419D01*
X6760038Y13291651D01*
X6740632Y13300830D01*
X6722219Y13311866D01*
X6704976Y13324654D01*
X6689070Y13339070D01*
X6674654Y13354976D01*
X6661866Y13372219D01*
X6650830Y13390632D01*
X6641651Y13410038D01*
X6634419Y13430250D01*
X6629203Y13451074D01*
X6626053Y13472309D01*
X6625000Y13493750D01*
X6625000Y13931250D01*
X6626053Y13952691D01*
X6629203Y13973926D01*
X6634419Y13994750D01*
X6641651Y14014962D01*
X6650830Y14034368D01*
X6661866Y14052781D01*
X6674654Y14070024D01*
X6689070Y14085930D01*
X6704976Y14100346D01*
X6722219Y14113134D01*
X6740632Y14124170D01*
X6760038Y14133349D01*
X6780250Y14140581D01*
X6801074Y14145797D01*
X6822309Y14148947D01*
X6843750Y14150000D01*
X7356250Y14150000D01*
X7377691Y14148947D01*
X7377691Y14148947D01*
G37*
D13*
X7100000Y13712500D03*
D12*
G36*
X7377691Y15723947D02*
X7398926Y15720797D01*
X7419750Y15715581D01*
X7439962Y15708349D01*
X7459368Y15699170D01*
X7477781Y15688134D01*
X7495024Y15675346D01*
X7510930Y15660930D01*
X7525346Y15645024D01*
X7538134Y15627781D01*
X7549170Y15609368D01*
X7558349Y15589962D01*
X7565581Y15569750D01*
X7570797Y15548926D01*
X7573947Y15527691D01*
X7575000Y15506250D01*
X7575000Y15068750D01*
X7573947Y15047309D01*
X7570797Y15026074D01*
X7565581Y15005250D01*
X7558349Y14985038D01*
X7549170Y14965632D01*
X7538134Y14947219D01*
X7525346Y14929976D01*
X7510930Y14914070D01*
X7495024Y14899654D01*
X7477781Y14886866D01*
X7459368Y14875830D01*
X7439962Y14866651D01*
X7419750Y14859419D01*
X7398926Y14854203D01*
X7377691Y14851053D01*
X7356250Y14850000D01*
X6843750Y14850000D01*
X6822309Y14851053D01*
X6801074Y14854203D01*
X6780250Y14859419D01*
X6760038Y14866651D01*
X6740632Y14875830D01*
X6722219Y14886866D01*
X6704976Y14899654D01*
X6689070Y14914070D01*
X6674654Y14929976D01*
X6661866Y14947219D01*
X6650830Y14965632D01*
X6641651Y14985038D01*
X6634419Y15005250D01*
X6629203Y15026074D01*
X6626053Y15047309D01*
X6625000Y15068750D01*
X6625000Y15506250D01*
X6626053Y15527691D01*
X6629203Y15548926D01*
X6634419Y15569750D01*
X6641651Y15589962D01*
X6650830Y15609368D01*
X6661866Y15627781D01*
X6674654Y15645024D01*
X6689070Y15660930D01*
X6704976Y15675346D01*
X6722219Y15688134D01*
X6740632Y15699170D01*
X6760038Y15708349D01*
X6780250Y15715581D01*
X6801074Y15720797D01*
X6822309Y15723947D01*
X6843750Y15725000D01*
X7356250Y15725000D01*
X7377691Y15723947D01*
X7377691Y15723947D01*
G37*
D13*
X7100000Y15287500D03*
G04 #@! TD*
D14*
G04 #@! TO.C,U3*
X-3000000Y14350000D03*
D15*
X-3000000Y20650000D03*
X-5300000Y20650000D03*
X-700000Y20650000D03*
G04 #@! TD*
D16*
G04 #@! TO.C,U2*
X-5925000Y5750000D03*
X-5275000Y5750000D03*
X-4625000Y5750000D03*
X-3975000Y5750000D03*
X-3325000Y5750000D03*
X-2675000Y5750000D03*
X-2025000Y5750000D03*
X-1375000Y5750000D03*
X-725000Y5750000D03*
X-75000Y5750000D03*
X-75000Y11650000D03*
X-725000Y11650000D03*
X-1375000Y11650000D03*
X-2025000Y11650000D03*
X-2675000Y11650000D03*
X-3325000Y11650000D03*
X-3975000Y11650000D03*
X-4625000Y11650000D03*
X-5275000Y11650000D03*
X-5925000Y11650000D03*
G04 #@! TD*
D12*
G04 #@! TO.C,U4*
G36*
X6449505Y19573796D02*
X6473773Y19570196D01*
X6497572Y19564235D01*
X6520671Y19555970D01*
X6542850Y19545480D01*
X6563893Y19532868D01*
X6583599Y19518253D01*
X6601777Y19501777D01*
X6618253Y19483599D01*
X6632868Y19463893D01*
X6645480Y19442850D01*
X6655970Y19420671D01*
X6664235Y19397572D01*
X6670196Y19373773D01*
X6673796Y19349505D01*
X6675000Y19325001D01*
X6675000Y18774999D01*
X6673796Y18750495D01*
X6670196Y18726227D01*
X6664235Y18702428D01*
X6655970Y18679329D01*
X6645480Y18657150D01*
X6632868Y18636107D01*
X6618253Y18616401D01*
X6601777Y18598223D01*
X6583599Y18581747D01*
X6563893Y18567132D01*
X6542850Y18554520D01*
X6520671Y18544030D01*
X6497572Y18535765D01*
X6473773Y18529804D01*
X6449505Y18526204D01*
X6425001Y18525000D01*
X5874999Y18525000D01*
X5850495Y18526204D01*
X5826227Y18529804D01*
X5802428Y18535765D01*
X5779329Y18544030D01*
X5757150Y18554520D01*
X5736107Y18567132D01*
X5716401Y18581747D01*
X5698223Y18598223D01*
X5681747Y18616401D01*
X5667132Y18636107D01*
X5654520Y18657150D01*
X5644030Y18679329D01*
X5635765Y18702428D01*
X5629804Y18726227D01*
X5626204Y18750495D01*
X5625000Y18774999D01*
X5625000Y19325001D01*
X5626204Y19349505D01*
X5629804Y19373773D01*
X5635765Y19397572D01*
X5644030Y19420671D01*
X5654520Y19442850D01*
X5667132Y19463893D01*
X5681747Y19483599D01*
X5698223Y19501777D01*
X5716401Y19518253D01*
X5736107Y19532868D01*
X5757150Y19545480D01*
X5779329Y19555970D01*
X5802428Y19564235D01*
X5826227Y19570196D01*
X5850495Y19573796D01*
X5874999Y19575000D01*
X6425001Y19575000D01*
X6449505Y19573796D01*
X6449505Y19573796D01*
G37*
D17*
X6150000Y19050000D03*
D12*
G36*
X6449505Y20873796D02*
X6473773Y20870196D01*
X6497572Y20864235D01*
X6520671Y20855970D01*
X6542850Y20845480D01*
X6563893Y20832868D01*
X6583599Y20818253D01*
X6601777Y20801777D01*
X6618253Y20783599D01*
X6632868Y20763893D01*
X6645480Y20742850D01*
X6655970Y20720671D01*
X6664235Y20697572D01*
X6670196Y20673773D01*
X6673796Y20649505D01*
X6675000Y20625001D01*
X6675000Y20074999D01*
X6673796Y20050495D01*
X6670196Y20026227D01*
X6664235Y20002428D01*
X6655970Y19979329D01*
X6645480Y19957150D01*
X6632868Y19936107D01*
X6618253Y19916401D01*
X6601777Y19898223D01*
X6583599Y19881747D01*
X6563893Y19867132D01*
X6542850Y19854520D01*
X6520671Y19844030D01*
X6497572Y19835765D01*
X6473773Y19829804D01*
X6449505Y19826204D01*
X6425001Y19825000D01*
X5874999Y19825000D01*
X5850495Y19826204D01*
X5826227Y19829804D01*
X5802428Y19835765D01*
X5779329Y19844030D01*
X5757150Y19854520D01*
X5736107Y19867132D01*
X5716401Y19881747D01*
X5698223Y19898223D01*
X5681747Y19916401D01*
X5667132Y19936107D01*
X5654520Y19957150D01*
X5644030Y19979329D01*
X5635765Y20002428D01*
X5629804Y20026227D01*
X5626204Y20050495D01*
X5625000Y20074999D01*
X5625000Y20625001D01*
X5626204Y20649505D01*
X5629804Y20673773D01*
X5635765Y20697572D01*
X5644030Y20720671D01*
X5654520Y20742850D01*
X5667132Y20763893D01*
X5681747Y20783599D01*
X5698223Y20801777D01*
X5716401Y20818253D01*
X5736107Y20832868D01*
X5757150Y20845480D01*
X5779329Y20855970D01*
X5802428Y20864235D01*
X5826227Y20870196D01*
X5850495Y20873796D01*
X5874999Y20875000D01*
X6425001Y20875000D01*
X6449505Y20873796D01*
X6449505Y20873796D01*
G37*
D17*
X6150000Y20350000D03*
D12*
G36*
X5149505Y19573796D02*
X5173773Y19570196D01*
X5197572Y19564235D01*
X5220671Y19555970D01*
X5242850Y19545480D01*
X5263893Y19532868D01*
X5283599Y19518253D01*
X5301777Y19501777D01*
X5318253Y19483599D01*
X5332868Y19463893D01*
X5345480Y19442850D01*
X5355970Y19420671D01*
X5364235Y19397572D01*
X5370196Y19373773D01*
X5373796Y19349505D01*
X5375000Y19325001D01*
X5375000Y18774999D01*
X5373796Y18750495D01*
X5370196Y18726227D01*
X5364235Y18702428D01*
X5355970Y18679329D01*
X5345480Y18657150D01*
X5332868Y18636107D01*
X5318253Y18616401D01*
X5301777Y18598223D01*
X5283599Y18581747D01*
X5263893Y18567132D01*
X5242850Y18554520D01*
X5220671Y18544030D01*
X5197572Y18535765D01*
X5173773Y18529804D01*
X5149505Y18526204D01*
X5125001Y18525000D01*
X4574999Y18525000D01*
X4550495Y18526204D01*
X4526227Y18529804D01*
X4502428Y18535765D01*
X4479329Y18544030D01*
X4457150Y18554520D01*
X4436107Y18567132D01*
X4416401Y18581747D01*
X4398223Y18598223D01*
X4381747Y18616401D01*
X4367132Y18636107D01*
X4354520Y18657150D01*
X4344030Y18679329D01*
X4335765Y18702428D01*
X4329804Y18726227D01*
X4326204Y18750495D01*
X4325000Y18774999D01*
X4325000Y19325001D01*
X4326204Y19349505D01*
X4329804Y19373773D01*
X4335765Y19397572D01*
X4344030Y19420671D01*
X4354520Y19442850D01*
X4367132Y19463893D01*
X4381747Y19483599D01*
X4398223Y19501777D01*
X4416401Y19518253D01*
X4436107Y19532868D01*
X4457150Y19545480D01*
X4479329Y19555970D01*
X4502428Y19564235D01*
X4526227Y19570196D01*
X4550495Y19573796D01*
X4574999Y19575000D01*
X5125001Y19575000D01*
X5149505Y19573796D01*
X5149505Y19573796D01*
G37*
D17*
X4850000Y19050000D03*
D12*
G36*
X5149505Y20873796D02*
X5173773Y20870196D01*
X5197572Y20864235D01*
X5220671Y20855970D01*
X5242850Y20845480D01*
X5263893Y20832868D01*
X5283599Y20818253D01*
X5301777Y20801777D01*
X5318253Y20783599D01*
X5332868Y20763893D01*
X5345480Y20742850D01*
X5355970Y20720671D01*
X5364235Y20697572D01*
X5370196Y20673773D01*
X5373796Y20649505D01*
X5375000Y20625001D01*
X5375000Y20074999D01*
X5373796Y20050495D01*
X5370196Y20026227D01*
X5364235Y20002428D01*
X5355970Y19979329D01*
X5345480Y19957150D01*
X5332868Y19936107D01*
X5318253Y19916401D01*
X5301777Y19898223D01*
X5283599Y19881747D01*
X5263893Y19867132D01*
X5242850Y19854520D01*
X5220671Y19844030D01*
X5197572Y19835765D01*
X5173773Y19829804D01*
X5149505Y19826204D01*
X5125001Y19825000D01*
X4574999Y19825000D01*
X4550495Y19826204D01*
X4526227Y19829804D01*
X4502428Y19835765D01*
X4479329Y19844030D01*
X4457150Y19854520D01*
X4436107Y19867132D01*
X4416401Y19881747D01*
X4398223Y19898223D01*
X4381747Y19916401D01*
X4367132Y19936107D01*
X4354520Y19957150D01*
X4344030Y19979329D01*
X4335765Y20002428D01*
X4329804Y20026227D01*
X4326204Y20050495D01*
X4325000Y20074999D01*
X4325000Y20625001D01*
X4326204Y20649505D01*
X4329804Y20673773D01*
X4335765Y20697572D01*
X4344030Y20720671D01*
X4354520Y20742850D01*
X4367132Y20763893D01*
X4381747Y20783599D01*
X4398223Y20801777D01*
X4416401Y20818253D01*
X4436107Y20832868D01*
X4457150Y20845480D01*
X4479329Y20855970D01*
X4502428Y20864235D01*
X4526227Y20870196D01*
X4550495Y20873796D01*
X4574999Y20875000D01*
X5125001Y20875000D01*
X5149505Y20873796D01*
X5149505Y20873796D01*
G37*
D17*
X4850000Y20350000D03*
D12*
G36*
X7793626Y18574699D02*
X7799693Y18573799D01*
X7805643Y18572309D01*
X7811418Y18570242D01*
X7816962Y18567620D01*
X7822223Y18564467D01*
X7827150Y18560813D01*
X7831694Y18556694D01*
X7835813Y18552150D01*
X7839467Y18547223D01*
X7842620Y18541962D01*
X7845242Y18536418D01*
X7847309Y18530643D01*
X7848799Y18524693D01*
X7849699Y18518626D01*
X7850000Y18512500D01*
X7850000Y18387500D01*
X7849699Y18381374D01*
X7848799Y18375307D01*
X7847309Y18369357D01*
X7845242Y18363582D01*
X7842620Y18358038D01*
X7839467Y18352777D01*
X7835813Y18347850D01*
X7831694Y18343306D01*
X7827150Y18339187D01*
X7822223Y18335533D01*
X7816962Y18332380D01*
X7811418Y18329758D01*
X7805643Y18327691D01*
X7799693Y18326201D01*
X7793626Y18325301D01*
X7787500Y18325000D01*
X7087500Y18325000D01*
X7081374Y18325301D01*
X7075307Y18326201D01*
X7069357Y18327691D01*
X7063582Y18329758D01*
X7058038Y18332380D01*
X7052777Y18335533D01*
X7047850Y18339187D01*
X7043306Y18343306D01*
X7039187Y18347850D01*
X7035533Y18352777D01*
X7032380Y18358038D01*
X7029758Y18363582D01*
X7027691Y18369357D01*
X7026201Y18375307D01*
X7025301Y18381374D01*
X7025000Y18387500D01*
X7025000Y18512500D01*
X7025301Y18518626D01*
X7026201Y18524693D01*
X7027691Y18530643D01*
X7029758Y18536418D01*
X7032380Y18541962D01*
X7035533Y18547223D01*
X7039187Y18552150D01*
X7043306Y18556694D01*
X7047850Y18560813D01*
X7052777Y18564467D01*
X7058038Y18567620D01*
X7063582Y18570242D01*
X7069357Y18572309D01*
X7075307Y18573799D01*
X7081374Y18574699D01*
X7087500Y18575000D01*
X7787500Y18575000D01*
X7793626Y18574699D01*
X7793626Y18574699D01*
G37*
D18*
X7437500Y18450000D03*
D12*
G36*
X7793626Y19074699D02*
X7799693Y19073799D01*
X7805643Y19072309D01*
X7811418Y19070242D01*
X7816962Y19067620D01*
X7822223Y19064467D01*
X7827150Y19060813D01*
X7831694Y19056694D01*
X7835813Y19052150D01*
X7839467Y19047223D01*
X7842620Y19041962D01*
X7845242Y19036418D01*
X7847309Y19030643D01*
X7848799Y19024693D01*
X7849699Y19018626D01*
X7850000Y19012500D01*
X7850000Y18887500D01*
X7849699Y18881374D01*
X7848799Y18875307D01*
X7847309Y18869357D01*
X7845242Y18863582D01*
X7842620Y18858038D01*
X7839467Y18852777D01*
X7835813Y18847850D01*
X7831694Y18843306D01*
X7827150Y18839187D01*
X7822223Y18835533D01*
X7816962Y18832380D01*
X7811418Y18829758D01*
X7805643Y18827691D01*
X7799693Y18826201D01*
X7793626Y18825301D01*
X7787500Y18825000D01*
X7087500Y18825000D01*
X7081374Y18825301D01*
X7075307Y18826201D01*
X7069357Y18827691D01*
X7063582Y18829758D01*
X7058038Y18832380D01*
X7052777Y18835533D01*
X7047850Y18839187D01*
X7043306Y18843306D01*
X7039187Y18847850D01*
X7035533Y18852777D01*
X7032380Y18858038D01*
X7029758Y18863582D01*
X7027691Y18869357D01*
X7026201Y18875307D01*
X7025301Y18881374D01*
X7025000Y18887500D01*
X7025000Y19012500D01*
X7025301Y19018626D01*
X7026201Y19024693D01*
X7027691Y19030643D01*
X7029758Y19036418D01*
X7032380Y19041962D01*
X7035533Y19047223D01*
X7039187Y19052150D01*
X7043306Y19056694D01*
X7047850Y19060813D01*
X7052777Y19064467D01*
X7058038Y19067620D01*
X7063582Y19070242D01*
X7069357Y19072309D01*
X7075307Y19073799D01*
X7081374Y19074699D01*
X7087500Y19075000D01*
X7787500Y19075000D01*
X7793626Y19074699D01*
X7793626Y19074699D01*
G37*
D18*
X7437500Y18950000D03*
D12*
G36*
X7793626Y19574699D02*
X7799693Y19573799D01*
X7805643Y19572309D01*
X7811418Y19570242D01*
X7816962Y19567620D01*
X7822223Y19564467D01*
X7827150Y19560813D01*
X7831694Y19556694D01*
X7835813Y19552150D01*
X7839467Y19547223D01*
X7842620Y19541962D01*
X7845242Y19536418D01*
X7847309Y19530643D01*
X7848799Y19524693D01*
X7849699Y19518626D01*
X7850000Y19512500D01*
X7850000Y19387500D01*
X7849699Y19381374D01*
X7848799Y19375307D01*
X7847309Y19369357D01*
X7845242Y19363582D01*
X7842620Y19358038D01*
X7839467Y19352777D01*
X7835813Y19347850D01*
X7831694Y19343306D01*
X7827150Y19339187D01*
X7822223Y19335533D01*
X7816962Y19332380D01*
X7811418Y19329758D01*
X7805643Y19327691D01*
X7799693Y19326201D01*
X7793626Y19325301D01*
X7787500Y19325000D01*
X7087500Y19325000D01*
X7081374Y19325301D01*
X7075307Y19326201D01*
X7069357Y19327691D01*
X7063582Y19329758D01*
X7058038Y19332380D01*
X7052777Y19335533D01*
X7047850Y19339187D01*
X7043306Y19343306D01*
X7039187Y19347850D01*
X7035533Y19352777D01*
X7032380Y19358038D01*
X7029758Y19363582D01*
X7027691Y19369357D01*
X7026201Y19375307D01*
X7025301Y19381374D01*
X7025000Y19387500D01*
X7025000Y19512500D01*
X7025301Y19518626D01*
X7026201Y19524693D01*
X7027691Y19530643D01*
X7029758Y19536418D01*
X7032380Y19541962D01*
X7035533Y19547223D01*
X7039187Y19552150D01*
X7043306Y19556694D01*
X7047850Y19560813D01*
X7052777Y19564467D01*
X7058038Y19567620D01*
X7063582Y19570242D01*
X7069357Y19572309D01*
X7075307Y19573799D01*
X7081374Y19574699D01*
X7087500Y19575000D01*
X7787500Y19575000D01*
X7793626Y19574699D01*
X7793626Y19574699D01*
G37*
D18*
X7437500Y19450000D03*
D12*
G36*
X7793626Y20074699D02*
X7799693Y20073799D01*
X7805643Y20072309D01*
X7811418Y20070242D01*
X7816962Y20067620D01*
X7822223Y20064467D01*
X7827150Y20060813D01*
X7831694Y20056694D01*
X7835813Y20052150D01*
X7839467Y20047223D01*
X7842620Y20041962D01*
X7845242Y20036418D01*
X7847309Y20030643D01*
X7848799Y20024693D01*
X7849699Y20018626D01*
X7850000Y20012500D01*
X7850000Y19887500D01*
X7849699Y19881374D01*
X7848799Y19875307D01*
X7847309Y19869357D01*
X7845242Y19863582D01*
X7842620Y19858038D01*
X7839467Y19852777D01*
X7835813Y19847850D01*
X7831694Y19843306D01*
X7827150Y19839187D01*
X7822223Y19835533D01*
X7816962Y19832380D01*
X7811418Y19829758D01*
X7805643Y19827691D01*
X7799693Y19826201D01*
X7793626Y19825301D01*
X7787500Y19825000D01*
X7087500Y19825000D01*
X7081374Y19825301D01*
X7075307Y19826201D01*
X7069357Y19827691D01*
X7063582Y19829758D01*
X7058038Y19832380D01*
X7052777Y19835533D01*
X7047850Y19839187D01*
X7043306Y19843306D01*
X7039187Y19847850D01*
X7035533Y19852777D01*
X7032380Y19858038D01*
X7029758Y19863582D01*
X7027691Y19869357D01*
X7026201Y19875307D01*
X7025301Y19881374D01*
X7025000Y19887500D01*
X7025000Y20012500D01*
X7025301Y20018626D01*
X7026201Y20024693D01*
X7027691Y20030643D01*
X7029758Y20036418D01*
X7032380Y20041962D01*
X7035533Y20047223D01*
X7039187Y20052150D01*
X7043306Y20056694D01*
X7047850Y20060813D01*
X7052777Y20064467D01*
X7058038Y20067620D01*
X7063582Y20070242D01*
X7069357Y20072309D01*
X7075307Y20073799D01*
X7081374Y20074699D01*
X7087500Y20075000D01*
X7787500Y20075000D01*
X7793626Y20074699D01*
X7793626Y20074699D01*
G37*
D18*
X7437500Y19950000D03*
D12*
G36*
X7793626Y20574699D02*
X7799693Y20573799D01*
X7805643Y20572309D01*
X7811418Y20570242D01*
X7816962Y20567620D01*
X7822223Y20564467D01*
X7827150Y20560813D01*
X7831694Y20556694D01*
X7835813Y20552150D01*
X7839467Y20547223D01*
X7842620Y20541962D01*
X7845242Y20536418D01*
X7847309Y20530643D01*
X7848799Y20524693D01*
X7849699Y20518626D01*
X7850000Y20512500D01*
X7850000Y20387500D01*
X7849699Y20381374D01*
X7848799Y20375307D01*
X7847309Y20369357D01*
X7845242Y20363582D01*
X7842620Y20358038D01*
X7839467Y20352777D01*
X7835813Y20347850D01*
X7831694Y20343306D01*
X7827150Y20339187D01*
X7822223Y20335533D01*
X7816962Y20332380D01*
X7811418Y20329758D01*
X7805643Y20327691D01*
X7799693Y20326201D01*
X7793626Y20325301D01*
X7787500Y20325000D01*
X7087500Y20325000D01*
X7081374Y20325301D01*
X7075307Y20326201D01*
X7069357Y20327691D01*
X7063582Y20329758D01*
X7058038Y20332380D01*
X7052777Y20335533D01*
X7047850Y20339187D01*
X7043306Y20343306D01*
X7039187Y20347850D01*
X7035533Y20352777D01*
X7032380Y20358038D01*
X7029758Y20363582D01*
X7027691Y20369357D01*
X7026201Y20375307D01*
X7025301Y20381374D01*
X7025000Y20387500D01*
X7025000Y20512500D01*
X7025301Y20518626D01*
X7026201Y20524693D01*
X7027691Y20530643D01*
X7029758Y20536418D01*
X7032380Y20541962D01*
X7035533Y20547223D01*
X7039187Y20552150D01*
X7043306Y20556694D01*
X7047850Y20560813D01*
X7052777Y20564467D01*
X7058038Y20567620D01*
X7063582Y20570242D01*
X7069357Y20572309D01*
X7075307Y20573799D01*
X7081374Y20574699D01*
X7087500Y20575000D01*
X7787500Y20575000D01*
X7793626Y20574699D01*
X7793626Y20574699D01*
G37*
D18*
X7437500Y20450000D03*
D12*
G36*
X7793626Y21074699D02*
X7799693Y21073799D01*
X7805643Y21072309D01*
X7811418Y21070242D01*
X7816962Y21067620D01*
X7822223Y21064467D01*
X7827150Y21060813D01*
X7831694Y21056694D01*
X7835813Y21052150D01*
X7839467Y21047223D01*
X7842620Y21041962D01*
X7845242Y21036418D01*
X7847309Y21030643D01*
X7848799Y21024693D01*
X7849699Y21018626D01*
X7850000Y21012500D01*
X7850000Y20887500D01*
X7849699Y20881374D01*
X7848799Y20875307D01*
X7847309Y20869357D01*
X7845242Y20863582D01*
X7842620Y20858038D01*
X7839467Y20852777D01*
X7835813Y20847850D01*
X7831694Y20843306D01*
X7827150Y20839187D01*
X7822223Y20835533D01*
X7816962Y20832380D01*
X7811418Y20829758D01*
X7805643Y20827691D01*
X7799693Y20826201D01*
X7793626Y20825301D01*
X7787500Y20825000D01*
X7087500Y20825000D01*
X7081374Y20825301D01*
X7075307Y20826201D01*
X7069357Y20827691D01*
X7063582Y20829758D01*
X7058038Y20832380D01*
X7052777Y20835533D01*
X7047850Y20839187D01*
X7043306Y20843306D01*
X7039187Y20847850D01*
X7035533Y20852777D01*
X7032380Y20858038D01*
X7029758Y20863582D01*
X7027691Y20869357D01*
X7026201Y20875307D01*
X7025301Y20881374D01*
X7025000Y20887500D01*
X7025000Y21012500D01*
X7025301Y21018626D01*
X7026201Y21024693D01*
X7027691Y21030643D01*
X7029758Y21036418D01*
X7032380Y21041962D01*
X7035533Y21047223D01*
X7039187Y21052150D01*
X7043306Y21056694D01*
X7047850Y21060813D01*
X7052777Y21064467D01*
X7058038Y21067620D01*
X7063582Y21070242D01*
X7069357Y21072309D01*
X7075307Y21073799D01*
X7081374Y21074699D01*
X7087500Y21075000D01*
X7787500Y21075000D01*
X7793626Y21074699D01*
X7793626Y21074699D01*
G37*
D18*
X7437500Y20950000D03*
D12*
G36*
X6818626Y22049699D02*
X6824693Y22048799D01*
X6830643Y22047309D01*
X6836418Y22045242D01*
X6841962Y22042620D01*
X6847223Y22039467D01*
X6852150Y22035813D01*
X6856694Y22031694D01*
X6860813Y22027150D01*
X6864467Y22022223D01*
X6867620Y22016962D01*
X6870242Y22011418D01*
X6872309Y22005643D01*
X6873799Y21999693D01*
X6874699Y21993626D01*
X6875000Y21987500D01*
X6875000Y21287500D01*
X6874699Y21281374D01*
X6873799Y21275307D01*
X6872309Y21269357D01*
X6870242Y21263582D01*
X6867620Y21258038D01*
X6864467Y21252777D01*
X6860813Y21247850D01*
X6856694Y21243306D01*
X6852150Y21239187D01*
X6847223Y21235533D01*
X6841962Y21232380D01*
X6836418Y21229758D01*
X6830643Y21227691D01*
X6824693Y21226201D01*
X6818626Y21225301D01*
X6812500Y21225000D01*
X6687500Y21225000D01*
X6681374Y21225301D01*
X6675307Y21226201D01*
X6669357Y21227691D01*
X6663582Y21229758D01*
X6658038Y21232380D01*
X6652777Y21235533D01*
X6647850Y21239187D01*
X6643306Y21243306D01*
X6639187Y21247850D01*
X6635533Y21252777D01*
X6632380Y21258038D01*
X6629758Y21263582D01*
X6627691Y21269357D01*
X6626201Y21275307D01*
X6625301Y21281374D01*
X6625000Y21287500D01*
X6625000Y21987500D01*
X6625301Y21993626D01*
X6626201Y21999693D01*
X6627691Y22005643D01*
X6629758Y22011418D01*
X6632380Y22016962D01*
X6635533Y22022223D01*
X6639187Y22027150D01*
X6643306Y22031694D01*
X6647850Y22035813D01*
X6652777Y22039467D01*
X6658038Y22042620D01*
X6663582Y22045242D01*
X6669357Y22047309D01*
X6675307Y22048799D01*
X6681374Y22049699D01*
X6687500Y22050000D01*
X6812500Y22050000D01*
X6818626Y22049699D01*
X6818626Y22049699D01*
G37*
D18*
X6750000Y21637500D03*
D12*
G36*
X6318626Y22049699D02*
X6324693Y22048799D01*
X6330643Y22047309D01*
X6336418Y22045242D01*
X6341962Y22042620D01*
X6347223Y22039467D01*
X6352150Y22035813D01*
X6356694Y22031694D01*
X6360813Y22027150D01*
X6364467Y22022223D01*
X6367620Y22016962D01*
X6370242Y22011418D01*
X6372309Y22005643D01*
X6373799Y21999693D01*
X6374699Y21993626D01*
X6375000Y21987500D01*
X6375000Y21287500D01*
X6374699Y21281374D01*
X6373799Y21275307D01*
X6372309Y21269357D01*
X6370242Y21263582D01*
X6367620Y21258038D01*
X6364467Y21252777D01*
X6360813Y21247850D01*
X6356694Y21243306D01*
X6352150Y21239187D01*
X6347223Y21235533D01*
X6341962Y21232380D01*
X6336418Y21229758D01*
X6330643Y21227691D01*
X6324693Y21226201D01*
X6318626Y21225301D01*
X6312500Y21225000D01*
X6187500Y21225000D01*
X6181374Y21225301D01*
X6175307Y21226201D01*
X6169357Y21227691D01*
X6163582Y21229758D01*
X6158038Y21232380D01*
X6152777Y21235533D01*
X6147850Y21239187D01*
X6143306Y21243306D01*
X6139187Y21247850D01*
X6135533Y21252777D01*
X6132380Y21258038D01*
X6129758Y21263582D01*
X6127691Y21269357D01*
X6126201Y21275307D01*
X6125301Y21281374D01*
X6125000Y21287500D01*
X6125000Y21987500D01*
X6125301Y21993626D01*
X6126201Y21999693D01*
X6127691Y22005643D01*
X6129758Y22011418D01*
X6132380Y22016962D01*
X6135533Y22022223D01*
X6139187Y22027150D01*
X6143306Y22031694D01*
X6147850Y22035813D01*
X6152777Y22039467D01*
X6158038Y22042620D01*
X6163582Y22045242D01*
X6169357Y22047309D01*
X6175307Y22048799D01*
X6181374Y22049699D01*
X6187500Y22050000D01*
X6312500Y22050000D01*
X6318626Y22049699D01*
X6318626Y22049699D01*
G37*
D18*
X6250000Y21637500D03*
D12*
G36*
X5818626Y22049699D02*
X5824693Y22048799D01*
X5830643Y22047309D01*
X5836418Y22045242D01*
X5841962Y22042620D01*
X5847223Y22039467D01*
X5852150Y22035813D01*
X5856694Y22031694D01*
X5860813Y22027150D01*
X5864467Y22022223D01*
X5867620Y22016962D01*
X5870242Y22011418D01*
X5872309Y22005643D01*
X5873799Y21999693D01*
X5874699Y21993626D01*
X5875000Y21987500D01*
X5875000Y21287500D01*
X5874699Y21281374D01*
X5873799Y21275307D01*
X5872309Y21269357D01*
X5870242Y21263582D01*
X5867620Y21258038D01*
X5864467Y21252777D01*
X5860813Y21247850D01*
X5856694Y21243306D01*
X5852150Y21239187D01*
X5847223Y21235533D01*
X5841962Y21232380D01*
X5836418Y21229758D01*
X5830643Y21227691D01*
X5824693Y21226201D01*
X5818626Y21225301D01*
X5812500Y21225000D01*
X5687500Y21225000D01*
X5681374Y21225301D01*
X5675307Y21226201D01*
X5669357Y21227691D01*
X5663582Y21229758D01*
X5658038Y21232380D01*
X5652777Y21235533D01*
X5647850Y21239187D01*
X5643306Y21243306D01*
X5639187Y21247850D01*
X5635533Y21252777D01*
X5632380Y21258038D01*
X5629758Y21263582D01*
X5627691Y21269357D01*
X5626201Y21275307D01*
X5625301Y21281374D01*
X5625000Y21287500D01*
X5625000Y21987500D01*
X5625301Y21993626D01*
X5626201Y21999693D01*
X5627691Y22005643D01*
X5629758Y22011418D01*
X5632380Y22016962D01*
X5635533Y22022223D01*
X5639187Y22027150D01*
X5643306Y22031694D01*
X5647850Y22035813D01*
X5652777Y22039467D01*
X5658038Y22042620D01*
X5663582Y22045242D01*
X5669357Y22047309D01*
X5675307Y22048799D01*
X5681374Y22049699D01*
X5687500Y22050000D01*
X5812500Y22050000D01*
X5818626Y22049699D01*
X5818626Y22049699D01*
G37*
D18*
X5750000Y21637500D03*
D12*
G36*
X5318626Y22049699D02*
X5324693Y22048799D01*
X5330643Y22047309D01*
X5336418Y22045242D01*
X5341962Y22042620D01*
X5347223Y22039467D01*
X5352150Y22035813D01*
X5356694Y22031694D01*
X5360813Y22027150D01*
X5364467Y22022223D01*
X5367620Y22016962D01*
X5370242Y22011418D01*
X5372309Y22005643D01*
X5373799Y21999693D01*
X5374699Y21993626D01*
X5375000Y21987500D01*
X5375000Y21287500D01*
X5374699Y21281374D01*
X5373799Y21275307D01*
X5372309Y21269357D01*
X5370242Y21263582D01*
X5367620Y21258038D01*
X5364467Y21252777D01*
X5360813Y21247850D01*
X5356694Y21243306D01*
X5352150Y21239187D01*
X5347223Y21235533D01*
X5341962Y21232380D01*
X5336418Y21229758D01*
X5330643Y21227691D01*
X5324693Y21226201D01*
X5318626Y21225301D01*
X5312500Y21225000D01*
X5187500Y21225000D01*
X5181374Y21225301D01*
X5175307Y21226201D01*
X5169357Y21227691D01*
X5163582Y21229758D01*
X5158038Y21232380D01*
X5152777Y21235533D01*
X5147850Y21239187D01*
X5143306Y21243306D01*
X5139187Y21247850D01*
X5135533Y21252777D01*
X5132380Y21258038D01*
X5129758Y21263582D01*
X5127691Y21269357D01*
X5126201Y21275307D01*
X5125301Y21281374D01*
X5125000Y21287500D01*
X5125000Y21987500D01*
X5125301Y21993626D01*
X5126201Y21999693D01*
X5127691Y22005643D01*
X5129758Y22011418D01*
X5132380Y22016962D01*
X5135533Y22022223D01*
X5139187Y22027150D01*
X5143306Y22031694D01*
X5147850Y22035813D01*
X5152777Y22039467D01*
X5158038Y22042620D01*
X5163582Y22045242D01*
X5169357Y22047309D01*
X5175307Y22048799D01*
X5181374Y22049699D01*
X5187500Y22050000D01*
X5312500Y22050000D01*
X5318626Y22049699D01*
X5318626Y22049699D01*
G37*
D18*
X5250000Y21637500D03*
D12*
G36*
X4818626Y22049699D02*
X4824693Y22048799D01*
X4830643Y22047309D01*
X4836418Y22045242D01*
X4841962Y22042620D01*
X4847223Y22039467D01*
X4852150Y22035813D01*
X4856694Y22031694D01*
X4860813Y22027150D01*
X4864467Y22022223D01*
X4867620Y22016962D01*
X4870242Y22011418D01*
X4872309Y22005643D01*
X4873799Y21999693D01*
X4874699Y21993626D01*
X4875000Y21987500D01*
X4875000Y21287500D01*
X4874699Y21281374D01*
X4873799Y21275307D01*
X4872309Y21269357D01*
X4870242Y21263582D01*
X4867620Y21258038D01*
X4864467Y21252777D01*
X4860813Y21247850D01*
X4856694Y21243306D01*
X4852150Y21239187D01*
X4847223Y21235533D01*
X4841962Y21232380D01*
X4836418Y21229758D01*
X4830643Y21227691D01*
X4824693Y21226201D01*
X4818626Y21225301D01*
X4812500Y21225000D01*
X4687500Y21225000D01*
X4681374Y21225301D01*
X4675307Y21226201D01*
X4669357Y21227691D01*
X4663582Y21229758D01*
X4658038Y21232380D01*
X4652777Y21235533D01*
X4647850Y21239187D01*
X4643306Y21243306D01*
X4639187Y21247850D01*
X4635533Y21252777D01*
X4632380Y21258038D01*
X4629758Y21263582D01*
X4627691Y21269357D01*
X4626201Y21275307D01*
X4625301Y21281374D01*
X4625000Y21287500D01*
X4625000Y21987500D01*
X4625301Y21993626D01*
X4626201Y21999693D01*
X4627691Y22005643D01*
X4629758Y22011418D01*
X4632380Y22016962D01*
X4635533Y22022223D01*
X4639187Y22027150D01*
X4643306Y22031694D01*
X4647850Y22035813D01*
X4652777Y22039467D01*
X4658038Y22042620D01*
X4663582Y22045242D01*
X4669357Y22047309D01*
X4675307Y22048799D01*
X4681374Y22049699D01*
X4687500Y22050000D01*
X4812500Y22050000D01*
X4818626Y22049699D01*
X4818626Y22049699D01*
G37*
D18*
X4750000Y21637500D03*
D12*
G36*
X4318626Y22049699D02*
X4324693Y22048799D01*
X4330643Y22047309D01*
X4336418Y22045242D01*
X4341962Y22042620D01*
X4347223Y22039467D01*
X4352150Y22035813D01*
X4356694Y22031694D01*
X4360813Y22027150D01*
X4364467Y22022223D01*
X4367620Y22016962D01*
X4370242Y22011418D01*
X4372309Y22005643D01*
X4373799Y21999693D01*
X4374699Y21993626D01*
X4375000Y21987500D01*
X4375000Y21287500D01*
X4374699Y21281374D01*
X4373799Y21275307D01*
X4372309Y21269357D01*
X4370242Y21263582D01*
X4367620Y21258038D01*
X4364467Y21252777D01*
X4360813Y21247850D01*
X4356694Y21243306D01*
X4352150Y21239187D01*
X4347223Y21235533D01*
X4341962Y21232380D01*
X4336418Y21229758D01*
X4330643Y21227691D01*
X4324693Y21226201D01*
X4318626Y21225301D01*
X4312500Y21225000D01*
X4187500Y21225000D01*
X4181374Y21225301D01*
X4175307Y21226201D01*
X4169357Y21227691D01*
X4163582Y21229758D01*
X4158038Y21232380D01*
X4152777Y21235533D01*
X4147850Y21239187D01*
X4143306Y21243306D01*
X4139187Y21247850D01*
X4135533Y21252777D01*
X4132380Y21258038D01*
X4129758Y21263582D01*
X4127691Y21269357D01*
X4126201Y21275307D01*
X4125301Y21281374D01*
X4125000Y21287500D01*
X4125000Y21987500D01*
X4125301Y21993626D01*
X4126201Y21999693D01*
X4127691Y22005643D01*
X4129758Y22011418D01*
X4132380Y22016962D01*
X4135533Y22022223D01*
X4139187Y22027150D01*
X4143306Y22031694D01*
X4147850Y22035813D01*
X4152777Y22039467D01*
X4158038Y22042620D01*
X4163582Y22045242D01*
X4169357Y22047309D01*
X4175307Y22048799D01*
X4181374Y22049699D01*
X4187500Y22050000D01*
X4312500Y22050000D01*
X4318626Y22049699D01*
X4318626Y22049699D01*
G37*
D18*
X4250000Y21637500D03*
D12*
G36*
X3918626Y21074699D02*
X3924693Y21073799D01*
X3930643Y21072309D01*
X3936418Y21070242D01*
X3941962Y21067620D01*
X3947223Y21064467D01*
X3952150Y21060813D01*
X3956694Y21056694D01*
X3960813Y21052150D01*
X3964467Y21047223D01*
X3967620Y21041962D01*
X3970242Y21036418D01*
X3972309Y21030643D01*
X3973799Y21024693D01*
X3974699Y21018626D01*
X3975000Y21012500D01*
X3975000Y20887500D01*
X3974699Y20881374D01*
X3973799Y20875307D01*
X3972309Y20869357D01*
X3970242Y20863582D01*
X3967620Y20858038D01*
X3964467Y20852777D01*
X3960813Y20847850D01*
X3956694Y20843306D01*
X3952150Y20839187D01*
X3947223Y20835533D01*
X3941962Y20832380D01*
X3936418Y20829758D01*
X3930643Y20827691D01*
X3924693Y20826201D01*
X3918626Y20825301D01*
X3912500Y20825000D01*
X3212500Y20825000D01*
X3206374Y20825301D01*
X3200307Y20826201D01*
X3194357Y20827691D01*
X3188582Y20829758D01*
X3183038Y20832380D01*
X3177777Y20835533D01*
X3172850Y20839187D01*
X3168306Y20843306D01*
X3164187Y20847850D01*
X3160533Y20852777D01*
X3157380Y20858038D01*
X3154758Y20863582D01*
X3152691Y20869357D01*
X3151201Y20875307D01*
X3150301Y20881374D01*
X3150000Y20887500D01*
X3150000Y21012500D01*
X3150301Y21018626D01*
X3151201Y21024693D01*
X3152691Y21030643D01*
X3154758Y21036418D01*
X3157380Y21041962D01*
X3160533Y21047223D01*
X3164187Y21052150D01*
X3168306Y21056694D01*
X3172850Y21060813D01*
X3177777Y21064467D01*
X3183038Y21067620D01*
X3188582Y21070242D01*
X3194357Y21072309D01*
X3200307Y21073799D01*
X3206374Y21074699D01*
X3212500Y21075000D01*
X3912500Y21075000D01*
X3918626Y21074699D01*
X3918626Y21074699D01*
G37*
D18*
X3562500Y20950000D03*
D12*
G36*
X3918626Y20574699D02*
X3924693Y20573799D01*
X3930643Y20572309D01*
X3936418Y20570242D01*
X3941962Y20567620D01*
X3947223Y20564467D01*
X3952150Y20560813D01*
X3956694Y20556694D01*
X3960813Y20552150D01*
X3964467Y20547223D01*
X3967620Y20541962D01*
X3970242Y20536418D01*
X3972309Y20530643D01*
X3973799Y20524693D01*
X3974699Y20518626D01*
X3975000Y20512500D01*
X3975000Y20387500D01*
X3974699Y20381374D01*
X3973799Y20375307D01*
X3972309Y20369357D01*
X3970242Y20363582D01*
X3967620Y20358038D01*
X3964467Y20352777D01*
X3960813Y20347850D01*
X3956694Y20343306D01*
X3952150Y20339187D01*
X3947223Y20335533D01*
X3941962Y20332380D01*
X3936418Y20329758D01*
X3930643Y20327691D01*
X3924693Y20326201D01*
X3918626Y20325301D01*
X3912500Y20325000D01*
X3212500Y20325000D01*
X3206374Y20325301D01*
X3200307Y20326201D01*
X3194357Y20327691D01*
X3188582Y20329758D01*
X3183038Y20332380D01*
X3177777Y20335533D01*
X3172850Y20339187D01*
X3168306Y20343306D01*
X3164187Y20347850D01*
X3160533Y20352777D01*
X3157380Y20358038D01*
X3154758Y20363582D01*
X3152691Y20369357D01*
X3151201Y20375307D01*
X3150301Y20381374D01*
X3150000Y20387500D01*
X3150000Y20512500D01*
X3150301Y20518626D01*
X3151201Y20524693D01*
X3152691Y20530643D01*
X3154758Y20536418D01*
X3157380Y20541962D01*
X3160533Y20547223D01*
X3164187Y20552150D01*
X3168306Y20556694D01*
X3172850Y20560813D01*
X3177777Y20564467D01*
X3183038Y20567620D01*
X3188582Y20570242D01*
X3194357Y20572309D01*
X3200307Y20573799D01*
X3206374Y20574699D01*
X3212500Y20575000D01*
X3912500Y20575000D01*
X3918626Y20574699D01*
X3918626Y20574699D01*
G37*
D18*
X3562500Y20450000D03*
D12*
G36*
X3918626Y20074699D02*
X3924693Y20073799D01*
X3930643Y20072309D01*
X3936418Y20070242D01*
X3941962Y20067620D01*
X3947223Y20064467D01*
X3952150Y20060813D01*
X3956694Y20056694D01*
X3960813Y20052150D01*
X3964467Y20047223D01*
X3967620Y20041962D01*
X3970242Y20036418D01*
X3972309Y20030643D01*
X3973799Y20024693D01*
X3974699Y20018626D01*
X3975000Y20012500D01*
X3975000Y19887500D01*
X3974699Y19881374D01*
X3973799Y19875307D01*
X3972309Y19869357D01*
X3970242Y19863582D01*
X3967620Y19858038D01*
X3964467Y19852777D01*
X3960813Y19847850D01*
X3956694Y19843306D01*
X3952150Y19839187D01*
X3947223Y19835533D01*
X3941962Y19832380D01*
X3936418Y19829758D01*
X3930643Y19827691D01*
X3924693Y19826201D01*
X3918626Y19825301D01*
X3912500Y19825000D01*
X3212500Y19825000D01*
X3206374Y19825301D01*
X3200307Y19826201D01*
X3194357Y19827691D01*
X3188582Y19829758D01*
X3183038Y19832380D01*
X3177777Y19835533D01*
X3172850Y19839187D01*
X3168306Y19843306D01*
X3164187Y19847850D01*
X3160533Y19852777D01*
X3157380Y19858038D01*
X3154758Y19863582D01*
X3152691Y19869357D01*
X3151201Y19875307D01*
X3150301Y19881374D01*
X3150000Y19887500D01*
X3150000Y20012500D01*
X3150301Y20018626D01*
X3151201Y20024693D01*
X3152691Y20030643D01*
X3154758Y20036418D01*
X3157380Y20041962D01*
X3160533Y20047223D01*
X3164187Y20052150D01*
X3168306Y20056694D01*
X3172850Y20060813D01*
X3177777Y20064467D01*
X3183038Y20067620D01*
X3188582Y20070242D01*
X3194357Y20072309D01*
X3200307Y20073799D01*
X3206374Y20074699D01*
X3212500Y20075000D01*
X3912500Y20075000D01*
X3918626Y20074699D01*
X3918626Y20074699D01*
G37*
D18*
X3562500Y19950000D03*
D12*
G36*
X3918626Y19574699D02*
X3924693Y19573799D01*
X3930643Y19572309D01*
X3936418Y19570242D01*
X3941962Y19567620D01*
X3947223Y19564467D01*
X3952150Y19560813D01*
X3956694Y19556694D01*
X3960813Y19552150D01*
X3964467Y19547223D01*
X3967620Y19541962D01*
X3970242Y19536418D01*
X3972309Y19530643D01*
X3973799Y19524693D01*
X3974699Y19518626D01*
X3975000Y19512500D01*
X3975000Y19387500D01*
X3974699Y19381374D01*
X3973799Y19375307D01*
X3972309Y19369357D01*
X3970242Y19363582D01*
X3967620Y19358038D01*
X3964467Y19352777D01*
X3960813Y19347850D01*
X3956694Y19343306D01*
X3952150Y19339187D01*
X3947223Y19335533D01*
X3941962Y19332380D01*
X3936418Y19329758D01*
X3930643Y19327691D01*
X3924693Y19326201D01*
X3918626Y19325301D01*
X3912500Y19325000D01*
X3212500Y19325000D01*
X3206374Y19325301D01*
X3200307Y19326201D01*
X3194357Y19327691D01*
X3188582Y19329758D01*
X3183038Y19332380D01*
X3177777Y19335533D01*
X3172850Y19339187D01*
X3168306Y19343306D01*
X3164187Y19347850D01*
X3160533Y19352777D01*
X3157380Y19358038D01*
X3154758Y19363582D01*
X3152691Y19369357D01*
X3151201Y19375307D01*
X3150301Y19381374D01*
X3150000Y19387500D01*
X3150000Y19512500D01*
X3150301Y19518626D01*
X3151201Y19524693D01*
X3152691Y19530643D01*
X3154758Y19536418D01*
X3157380Y19541962D01*
X3160533Y19547223D01*
X3164187Y19552150D01*
X3168306Y19556694D01*
X3172850Y19560813D01*
X3177777Y19564467D01*
X3183038Y19567620D01*
X3188582Y19570242D01*
X3194357Y19572309D01*
X3200307Y19573799D01*
X3206374Y19574699D01*
X3212500Y19575000D01*
X3912500Y19575000D01*
X3918626Y19574699D01*
X3918626Y19574699D01*
G37*
D18*
X3562500Y19450000D03*
D12*
G36*
X3918626Y19074699D02*
X3924693Y19073799D01*
X3930643Y19072309D01*
X3936418Y19070242D01*
X3941962Y19067620D01*
X3947223Y19064467D01*
X3952150Y19060813D01*
X3956694Y19056694D01*
X3960813Y19052150D01*
X3964467Y19047223D01*
X3967620Y19041962D01*
X3970242Y19036418D01*
X3972309Y19030643D01*
X3973799Y19024693D01*
X3974699Y19018626D01*
X3975000Y19012500D01*
X3975000Y18887500D01*
X3974699Y18881374D01*
X3973799Y18875307D01*
X3972309Y18869357D01*
X3970242Y18863582D01*
X3967620Y18858038D01*
X3964467Y18852777D01*
X3960813Y18847850D01*
X3956694Y18843306D01*
X3952150Y18839187D01*
X3947223Y18835533D01*
X3941962Y18832380D01*
X3936418Y18829758D01*
X3930643Y18827691D01*
X3924693Y18826201D01*
X3918626Y18825301D01*
X3912500Y18825000D01*
X3212500Y18825000D01*
X3206374Y18825301D01*
X3200307Y18826201D01*
X3194357Y18827691D01*
X3188582Y18829758D01*
X3183038Y18832380D01*
X3177777Y18835533D01*
X3172850Y18839187D01*
X3168306Y18843306D01*
X3164187Y18847850D01*
X3160533Y18852777D01*
X3157380Y18858038D01*
X3154758Y18863582D01*
X3152691Y18869357D01*
X3151201Y18875307D01*
X3150301Y18881374D01*
X3150000Y18887500D01*
X3150000Y19012500D01*
X3150301Y19018626D01*
X3151201Y19024693D01*
X3152691Y19030643D01*
X3154758Y19036418D01*
X3157380Y19041962D01*
X3160533Y19047223D01*
X3164187Y19052150D01*
X3168306Y19056694D01*
X3172850Y19060813D01*
X3177777Y19064467D01*
X3183038Y19067620D01*
X3188582Y19070242D01*
X3194357Y19072309D01*
X3200307Y19073799D01*
X3206374Y19074699D01*
X3212500Y19075000D01*
X3912500Y19075000D01*
X3918626Y19074699D01*
X3918626Y19074699D01*
G37*
D18*
X3562500Y18950000D03*
D12*
G36*
X3918626Y18574699D02*
X3924693Y18573799D01*
X3930643Y18572309D01*
X3936418Y18570242D01*
X3941962Y18567620D01*
X3947223Y18564467D01*
X3952150Y18560813D01*
X3956694Y18556694D01*
X3960813Y18552150D01*
X3964467Y18547223D01*
X3967620Y18541962D01*
X3970242Y18536418D01*
X3972309Y18530643D01*
X3973799Y18524693D01*
X3974699Y18518626D01*
X3975000Y18512500D01*
X3975000Y18387500D01*
X3974699Y18381374D01*
X3973799Y18375307D01*
X3972309Y18369357D01*
X3970242Y18363582D01*
X3967620Y18358038D01*
X3964467Y18352777D01*
X3960813Y18347850D01*
X3956694Y18343306D01*
X3952150Y18339187D01*
X3947223Y18335533D01*
X3941962Y18332380D01*
X3936418Y18329758D01*
X3930643Y18327691D01*
X3924693Y18326201D01*
X3918626Y18325301D01*
X3912500Y18325000D01*
X3212500Y18325000D01*
X3206374Y18325301D01*
X3200307Y18326201D01*
X3194357Y18327691D01*
X3188582Y18329758D01*
X3183038Y18332380D01*
X3177777Y18335533D01*
X3172850Y18339187D01*
X3168306Y18343306D01*
X3164187Y18347850D01*
X3160533Y18352777D01*
X3157380Y18358038D01*
X3154758Y18363582D01*
X3152691Y18369357D01*
X3151201Y18375307D01*
X3150301Y18381374D01*
X3150000Y18387500D01*
X3150000Y18512500D01*
X3150301Y18518626D01*
X3151201Y18524693D01*
X3152691Y18530643D01*
X3154758Y18536418D01*
X3157380Y18541962D01*
X3160533Y18547223D01*
X3164187Y18552150D01*
X3168306Y18556694D01*
X3172850Y18560813D01*
X3177777Y18564467D01*
X3183038Y18567620D01*
X3188582Y18570242D01*
X3194357Y18572309D01*
X3200307Y18573799D01*
X3206374Y18574699D01*
X3212500Y18575000D01*
X3912500Y18575000D01*
X3918626Y18574699D01*
X3918626Y18574699D01*
G37*
D18*
X3562500Y18450000D03*
D12*
G36*
X4318626Y18174699D02*
X4324693Y18173799D01*
X4330643Y18172309D01*
X4336418Y18170242D01*
X4341962Y18167620D01*
X4347223Y18164467D01*
X4352150Y18160813D01*
X4356694Y18156694D01*
X4360813Y18152150D01*
X4364467Y18147223D01*
X4367620Y18141962D01*
X4370242Y18136418D01*
X4372309Y18130643D01*
X4373799Y18124693D01*
X4374699Y18118626D01*
X4375000Y18112500D01*
X4375000Y17412500D01*
X4374699Y17406374D01*
X4373799Y17400307D01*
X4372309Y17394357D01*
X4370242Y17388582D01*
X4367620Y17383038D01*
X4364467Y17377777D01*
X4360813Y17372850D01*
X4356694Y17368306D01*
X4352150Y17364187D01*
X4347223Y17360533D01*
X4341962Y17357380D01*
X4336418Y17354758D01*
X4330643Y17352691D01*
X4324693Y17351201D01*
X4318626Y17350301D01*
X4312500Y17350000D01*
X4187500Y17350000D01*
X4181374Y17350301D01*
X4175307Y17351201D01*
X4169357Y17352691D01*
X4163582Y17354758D01*
X4158038Y17357380D01*
X4152777Y17360533D01*
X4147850Y17364187D01*
X4143306Y17368306D01*
X4139187Y17372850D01*
X4135533Y17377777D01*
X4132380Y17383038D01*
X4129758Y17388582D01*
X4127691Y17394357D01*
X4126201Y17400307D01*
X4125301Y17406374D01*
X4125000Y17412500D01*
X4125000Y18112500D01*
X4125301Y18118626D01*
X4126201Y18124693D01*
X4127691Y18130643D01*
X4129758Y18136418D01*
X4132380Y18141962D01*
X4135533Y18147223D01*
X4139187Y18152150D01*
X4143306Y18156694D01*
X4147850Y18160813D01*
X4152777Y18164467D01*
X4158038Y18167620D01*
X4163582Y18170242D01*
X4169357Y18172309D01*
X4175307Y18173799D01*
X4181374Y18174699D01*
X4187500Y18175000D01*
X4312500Y18175000D01*
X4318626Y18174699D01*
X4318626Y18174699D01*
G37*
D18*
X4250000Y17762500D03*
D12*
G36*
X4818626Y18174699D02*
X4824693Y18173799D01*
X4830643Y18172309D01*
X4836418Y18170242D01*
X4841962Y18167620D01*
X4847223Y18164467D01*
X4852150Y18160813D01*
X4856694Y18156694D01*
X4860813Y18152150D01*
X4864467Y18147223D01*
X4867620Y18141962D01*
X4870242Y18136418D01*
X4872309Y18130643D01*
X4873799Y18124693D01*
X4874699Y18118626D01*
X4875000Y18112500D01*
X4875000Y17412500D01*
X4874699Y17406374D01*
X4873799Y17400307D01*
X4872309Y17394357D01*
X4870242Y17388582D01*
X4867620Y17383038D01*
X4864467Y17377777D01*
X4860813Y17372850D01*
X4856694Y17368306D01*
X4852150Y17364187D01*
X4847223Y17360533D01*
X4841962Y17357380D01*
X4836418Y17354758D01*
X4830643Y17352691D01*
X4824693Y17351201D01*
X4818626Y17350301D01*
X4812500Y17350000D01*
X4687500Y17350000D01*
X4681374Y17350301D01*
X4675307Y17351201D01*
X4669357Y17352691D01*
X4663582Y17354758D01*
X4658038Y17357380D01*
X4652777Y17360533D01*
X4647850Y17364187D01*
X4643306Y17368306D01*
X4639187Y17372850D01*
X4635533Y17377777D01*
X4632380Y17383038D01*
X4629758Y17388582D01*
X4627691Y17394357D01*
X4626201Y17400307D01*
X4625301Y17406374D01*
X4625000Y17412500D01*
X4625000Y18112500D01*
X4625301Y18118626D01*
X4626201Y18124693D01*
X4627691Y18130643D01*
X4629758Y18136418D01*
X4632380Y18141962D01*
X4635533Y18147223D01*
X4639187Y18152150D01*
X4643306Y18156694D01*
X4647850Y18160813D01*
X4652777Y18164467D01*
X4658038Y18167620D01*
X4663582Y18170242D01*
X4669357Y18172309D01*
X4675307Y18173799D01*
X4681374Y18174699D01*
X4687500Y18175000D01*
X4812500Y18175000D01*
X4818626Y18174699D01*
X4818626Y18174699D01*
G37*
D18*
X4750000Y17762500D03*
D12*
G36*
X5318626Y18174699D02*
X5324693Y18173799D01*
X5330643Y18172309D01*
X5336418Y18170242D01*
X5341962Y18167620D01*
X5347223Y18164467D01*
X5352150Y18160813D01*
X5356694Y18156694D01*
X5360813Y18152150D01*
X5364467Y18147223D01*
X5367620Y18141962D01*
X5370242Y18136418D01*
X5372309Y18130643D01*
X5373799Y18124693D01*
X5374699Y18118626D01*
X5375000Y18112500D01*
X5375000Y17412500D01*
X5374699Y17406374D01*
X5373799Y17400307D01*
X5372309Y17394357D01*
X5370242Y17388582D01*
X5367620Y17383038D01*
X5364467Y17377777D01*
X5360813Y17372850D01*
X5356694Y17368306D01*
X5352150Y17364187D01*
X5347223Y17360533D01*
X5341962Y17357380D01*
X5336418Y17354758D01*
X5330643Y17352691D01*
X5324693Y17351201D01*
X5318626Y17350301D01*
X5312500Y17350000D01*
X5187500Y17350000D01*
X5181374Y17350301D01*
X5175307Y17351201D01*
X5169357Y17352691D01*
X5163582Y17354758D01*
X5158038Y17357380D01*
X5152777Y17360533D01*
X5147850Y17364187D01*
X5143306Y17368306D01*
X5139187Y17372850D01*
X5135533Y17377777D01*
X5132380Y17383038D01*
X5129758Y17388582D01*
X5127691Y17394357D01*
X5126201Y17400307D01*
X5125301Y17406374D01*
X5125000Y17412500D01*
X5125000Y18112500D01*
X5125301Y18118626D01*
X5126201Y18124693D01*
X5127691Y18130643D01*
X5129758Y18136418D01*
X5132380Y18141962D01*
X5135533Y18147223D01*
X5139187Y18152150D01*
X5143306Y18156694D01*
X5147850Y18160813D01*
X5152777Y18164467D01*
X5158038Y18167620D01*
X5163582Y18170242D01*
X5169357Y18172309D01*
X5175307Y18173799D01*
X5181374Y18174699D01*
X5187500Y18175000D01*
X5312500Y18175000D01*
X5318626Y18174699D01*
X5318626Y18174699D01*
G37*
D18*
X5250000Y17762500D03*
D12*
G36*
X5818626Y18174699D02*
X5824693Y18173799D01*
X5830643Y18172309D01*
X5836418Y18170242D01*
X5841962Y18167620D01*
X5847223Y18164467D01*
X5852150Y18160813D01*
X5856694Y18156694D01*
X5860813Y18152150D01*
X5864467Y18147223D01*
X5867620Y18141962D01*
X5870242Y18136418D01*
X5872309Y18130643D01*
X5873799Y18124693D01*
X5874699Y18118626D01*
X5875000Y18112500D01*
X5875000Y17412500D01*
X5874699Y17406374D01*
X5873799Y17400307D01*
X5872309Y17394357D01*
X5870242Y17388582D01*
X5867620Y17383038D01*
X5864467Y17377777D01*
X5860813Y17372850D01*
X5856694Y17368306D01*
X5852150Y17364187D01*
X5847223Y17360533D01*
X5841962Y17357380D01*
X5836418Y17354758D01*
X5830643Y17352691D01*
X5824693Y17351201D01*
X5818626Y17350301D01*
X5812500Y17350000D01*
X5687500Y17350000D01*
X5681374Y17350301D01*
X5675307Y17351201D01*
X5669357Y17352691D01*
X5663582Y17354758D01*
X5658038Y17357380D01*
X5652777Y17360533D01*
X5647850Y17364187D01*
X5643306Y17368306D01*
X5639187Y17372850D01*
X5635533Y17377777D01*
X5632380Y17383038D01*
X5629758Y17388582D01*
X5627691Y17394357D01*
X5626201Y17400307D01*
X5625301Y17406374D01*
X5625000Y17412500D01*
X5625000Y18112500D01*
X5625301Y18118626D01*
X5626201Y18124693D01*
X5627691Y18130643D01*
X5629758Y18136418D01*
X5632380Y18141962D01*
X5635533Y18147223D01*
X5639187Y18152150D01*
X5643306Y18156694D01*
X5647850Y18160813D01*
X5652777Y18164467D01*
X5658038Y18167620D01*
X5663582Y18170242D01*
X5669357Y18172309D01*
X5675307Y18173799D01*
X5681374Y18174699D01*
X5687500Y18175000D01*
X5812500Y18175000D01*
X5818626Y18174699D01*
X5818626Y18174699D01*
G37*
D18*
X5750000Y17762500D03*
D12*
G36*
X6318626Y18174699D02*
X6324693Y18173799D01*
X6330643Y18172309D01*
X6336418Y18170242D01*
X6341962Y18167620D01*
X6347223Y18164467D01*
X6352150Y18160813D01*
X6356694Y18156694D01*
X6360813Y18152150D01*
X6364467Y18147223D01*
X6367620Y18141962D01*
X6370242Y18136418D01*
X6372309Y18130643D01*
X6373799Y18124693D01*
X6374699Y18118626D01*
X6375000Y18112500D01*
X6375000Y17412500D01*
X6374699Y17406374D01*
X6373799Y17400307D01*
X6372309Y17394357D01*
X6370242Y17388582D01*
X6367620Y17383038D01*
X6364467Y17377777D01*
X6360813Y17372850D01*
X6356694Y17368306D01*
X6352150Y17364187D01*
X6347223Y17360533D01*
X6341962Y17357380D01*
X6336418Y17354758D01*
X6330643Y17352691D01*
X6324693Y17351201D01*
X6318626Y17350301D01*
X6312500Y17350000D01*
X6187500Y17350000D01*
X6181374Y17350301D01*
X6175307Y17351201D01*
X6169357Y17352691D01*
X6163582Y17354758D01*
X6158038Y17357380D01*
X6152777Y17360533D01*
X6147850Y17364187D01*
X6143306Y17368306D01*
X6139187Y17372850D01*
X6135533Y17377777D01*
X6132380Y17383038D01*
X6129758Y17388582D01*
X6127691Y17394357D01*
X6126201Y17400307D01*
X6125301Y17406374D01*
X6125000Y17412500D01*
X6125000Y18112500D01*
X6125301Y18118626D01*
X6126201Y18124693D01*
X6127691Y18130643D01*
X6129758Y18136418D01*
X6132380Y18141962D01*
X6135533Y18147223D01*
X6139187Y18152150D01*
X6143306Y18156694D01*
X6147850Y18160813D01*
X6152777Y18164467D01*
X6158038Y18167620D01*
X6163582Y18170242D01*
X6169357Y18172309D01*
X6175307Y18173799D01*
X6181374Y18174699D01*
X6187500Y18175000D01*
X6312500Y18175000D01*
X6318626Y18174699D01*
X6318626Y18174699D01*
G37*
D18*
X6250000Y17762500D03*
D12*
G36*
X6818626Y18174699D02*
X6824693Y18173799D01*
X6830643Y18172309D01*
X6836418Y18170242D01*
X6841962Y18167620D01*
X6847223Y18164467D01*
X6852150Y18160813D01*
X6856694Y18156694D01*
X6860813Y18152150D01*
X6864467Y18147223D01*
X6867620Y18141962D01*
X6870242Y18136418D01*
X6872309Y18130643D01*
X6873799Y18124693D01*
X6874699Y18118626D01*
X6875000Y18112500D01*
X6875000Y17412500D01*
X6874699Y17406374D01*
X6873799Y17400307D01*
X6872309Y17394357D01*
X6870242Y17388582D01*
X6867620Y17383038D01*
X6864467Y17377777D01*
X6860813Y17372850D01*
X6856694Y17368306D01*
X6852150Y17364187D01*
X6847223Y17360533D01*
X6841962Y17357380D01*
X6836418Y17354758D01*
X6830643Y17352691D01*
X6824693Y17351201D01*
X6818626Y17350301D01*
X6812500Y17350000D01*
X6687500Y17350000D01*
X6681374Y17350301D01*
X6675307Y17351201D01*
X6669357Y17352691D01*
X6663582Y17354758D01*
X6658038Y17357380D01*
X6652777Y17360533D01*
X6647850Y17364187D01*
X6643306Y17368306D01*
X6639187Y17372850D01*
X6635533Y17377777D01*
X6632380Y17383038D01*
X6629758Y17388582D01*
X6627691Y17394357D01*
X6626201Y17400307D01*
X6625301Y17406374D01*
X6625000Y17412500D01*
X6625000Y18112500D01*
X6625301Y18118626D01*
X6626201Y18124693D01*
X6627691Y18130643D01*
X6629758Y18136418D01*
X6632380Y18141962D01*
X6635533Y18147223D01*
X6639187Y18152150D01*
X6643306Y18156694D01*
X6647850Y18160813D01*
X6652777Y18164467D01*
X6658038Y18167620D01*
X6663582Y18170242D01*
X6669357Y18172309D01*
X6675307Y18173799D01*
X6681374Y18174699D01*
X6687500Y18175000D01*
X6812500Y18175000D01*
X6818626Y18174699D01*
X6818626Y18174699D01*
G37*
D18*
X6750000Y17762500D03*
G04 #@! TD*
D10*
G04 #@! TO.C,REF\002A\002A*
X-10000000Y35000000D03*
G04 #@! TD*
M02*
