G04 #@! TF.GenerationSoftware,KiCad,Pcbnew,5.0.2+dfsg1-1*
G04 #@! TF.CreationDate,2020-07-05T13:54:42+02:00*
G04 #@! TF.ProjectId,edgedriver,65646765-6472-4697-9665-722e6b696361,rev?*
G04 #@! TF.SameCoordinates,Original*
G04 #@! TF.FileFunction,Soldermask,Top*
G04 #@! TF.FilePolarity,Negative*
%FSLAX46Y46*%
G04 Gerber Fmt 4.6, Leading zero omitted, Abs format (unit mm)*
G04 Created by KiCad (PCBNEW 5.0.2+dfsg1-1) date Sun Jul  5 13:54:42 2020*
%MOMM*%
%LPD*%
G01*
G04 APERTURE LIST*
%ADD10C,0.100000*%
G04 APERTURE END LIST*
D10*
G36*
X9000442Y894482D02*
X9066627Y887963D01*
X9179853Y853616D01*
X9236467Y836443D01*
X9375087Y762348D01*
X9392991Y752778D01*
X9428729Y723448D01*
X9530186Y640186D01*
X9613448Y538729D01*
X9642778Y502991D01*
X9642779Y502989D01*
X9726443Y346467D01*
X9726443Y346466D01*
X9777963Y176627D01*
X9795359Y0D01*
X9777963Y-176627D01*
X9751819Y-262812D01*
X9726443Y-346467D01*
X9683513Y-426782D01*
X9642778Y-502991D01*
X9613448Y-538729D01*
X9530186Y-640186D01*
X9457480Y-699853D01*
X9392991Y-752778D01*
X9392989Y-752779D01*
X9236467Y-836443D01*
X9179853Y-853616D01*
X9066627Y-887963D01*
X9000442Y-894482D01*
X8934260Y-901000D01*
X8845740Y-901000D01*
X8779558Y-894482D01*
X8713373Y-887963D01*
X8600147Y-853616D01*
X8543533Y-836443D01*
X8387011Y-752779D01*
X8387009Y-752778D01*
X8322520Y-699853D01*
X8249814Y-640186D01*
X8166552Y-538729D01*
X8137222Y-502991D01*
X8096487Y-426782D01*
X8053557Y-346467D01*
X8028181Y-262812D01*
X8002037Y-176627D01*
X7984641Y0D01*
X8002037Y176627D01*
X8053557Y346466D01*
X8053557Y346467D01*
X8137221Y502989D01*
X8137222Y502991D01*
X8166552Y538729D01*
X8249814Y640186D01*
X8351271Y723448D01*
X8387009Y752778D01*
X8404913Y762348D01*
X8543533Y836443D01*
X8600147Y853616D01*
X8713373Y887963D01*
X8779558Y894482D01*
X8845740Y901000D01*
X8934260Y901000D01*
X9000442Y894482D01*
X9000442Y894482D01*
G37*
G36*
X6460442Y894482D02*
X6526627Y887963D01*
X6639853Y853616D01*
X6696467Y836443D01*
X6835087Y762348D01*
X6852991Y752778D01*
X6888729Y723448D01*
X6990186Y640186D01*
X7073448Y538729D01*
X7102778Y502991D01*
X7102779Y502989D01*
X7186443Y346467D01*
X7186443Y346466D01*
X7237963Y176627D01*
X7255359Y0D01*
X7237963Y-176627D01*
X7211819Y-262812D01*
X7186443Y-346467D01*
X7143513Y-426782D01*
X7102778Y-502991D01*
X7073448Y-538729D01*
X6990186Y-640186D01*
X6917480Y-699853D01*
X6852991Y-752778D01*
X6852989Y-752779D01*
X6696467Y-836443D01*
X6639853Y-853616D01*
X6526627Y-887963D01*
X6460442Y-894482D01*
X6394260Y-901000D01*
X6305740Y-901000D01*
X6239558Y-894482D01*
X6173373Y-887963D01*
X6060147Y-853616D01*
X6003533Y-836443D01*
X5847011Y-752779D01*
X5847009Y-752778D01*
X5782520Y-699853D01*
X5709814Y-640186D01*
X5626552Y-538729D01*
X5597222Y-502991D01*
X5556487Y-426782D01*
X5513557Y-346467D01*
X5488181Y-262812D01*
X5462037Y-176627D01*
X5444641Y0D01*
X5462037Y176627D01*
X5513557Y346466D01*
X5513557Y346467D01*
X5597221Y502989D01*
X5597222Y502991D01*
X5626552Y538729D01*
X5709814Y640186D01*
X5811271Y723448D01*
X5847009Y752778D01*
X5864913Y762348D01*
X6003533Y836443D01*
X6060147Y853616D01*
X6173373Y887963D01*
X6239558Y894482D01*
X6305740Y901000D01*
X6394260Y901000D01*
X6460442Y894482D01*
X6460442Y894482D01*
G37*
G36*
X-8627188Y866376D02*
X-8463216Y798456D01*
X-8315646Y699853D01*
X-8190147Y574354D01*
X-8091544Y426784D01*
X-8023624Y262812D01*
X-7989000Y88741D01*
X-7989000Y-88741D01*
X-8023624Y-262812D01*
X-8091544Y-426784D01*
X-8190147Y-574354D01*
X-8315646Y-699853D01*
X-8463216Y-798456D01*
X-8627188Y-866376D01*
X-8801259Y-901000D01*
X-8978741Y-901000D01*
X-9152812Y-866376D01*
X-9316784Y-798456D01*
X-9464354Y-699853D01*
X-9589853Y-574354D01*
X-9688456Y-426784D01*
X-9756376Y-262812D01*
X-9791000Y-88741D01*
X-9791000Y88741D01*
X-9756376Y262812D01*
X-9688456Y426784D01*
X-9589853Y574354D01*
X-9464354Y699853D01*
X-9316784Y798456D01*
X-9152812Y866376D01*
X-8978741Y901000D01*
X-8801259Y901000D01*
X-8627188Y866376D01*
X-8627188Y866376D01*
G37*
G36*
X-6239558Y894482D02*
X-6173373Y887963D01*
X-6060147Y853616D01*
X-6003533Y836443D01*
X-5864913Y762348D01*
X-5847009Y752778D01*
X-5811271Y723448D01*
X-5709814Y640186D01*
X-5626552Y538729D01*
X-5597222Y502991D01*
X-5597221Y502989D01*
X-5513557Y346467D01*
X-5513557Y346466D01*
X-5462037Y176627D01*
X-5444641Y0D01*
X-5462037Y-176627D01*
X-5488181Y-262812D01*
X-5513557Y-346467D01*
X-5556487Y-426782D01*
X-5597222Y-502991D01*
X-5626552Y-538729D01*
X-5709814Y-640186D01*
X-5782520Y-699853D01*
X-5847009Y-752778D01*
X-5847011Y-752779D01*
X-6003533Y-836443D01*
X-6060147Y-853616D01*
X-6173373Y-887963D01*
X-6239558Y-894482D01*
X-6305740Y-901000D01*
X-6394260Y-901000D01*
X-6460442Y-894482D01*
X-6526627Y-887963D01*
X-6639853Y-853616D01*
X-6696467Y-836443D01*
X-6852989Y-752779D01*
X-6852991Y-752778D01*
X-6917480Y-699853D01*
X-6990186Y-640186D01*
X-7073448Y-538729D01*
X-7102778Y-502991D01*
X-7143513Y-426782D01*
X-7186443Y-346467D01*
X-7211819Y-262812D01*
X-7237963Y-176627D01*
X-7255359Y0D01*
X-7237963Y176627D01*
X-7186443Y346466D01*
X-7186443Y346467D01*
X-7102779Y502989D01*
X-7102778Y502991D01*
X-7073448Y538729D01*
X-6990186Y640186D01*
X-6888729Y723448D01*
X-6852991Y752778D01*
X-6835087Y762348D01*
X-6696467Y836443D01*
X-6639853Y853616D01*
X-6526627Y887963D01*
X-6460442Y894482D01*
X-6394260Y901000D01*
X-6305740Y901000D01*
X-6239558Y894482D01*
X-6239558Y894482D01*
G37*
G36*
X-3699558Y894482D02*
X-3633373Y887963D01*
X-3520147Y853616D01*
X-3463533Y836443D01*
X-3324913Y762348D01*
X-3307009Y752778D01*
X-3271271Y723448D01*
X-3169814Y640186D01*
X-3086552Y538729D01*
X-3057222Y502991D01*
X-3057221Y502989D01*
X-2973557Y346467D01*
X-2973557Y346466D01*
X-2922037Y176627D01*
X-2904641Y0D01*
X-2922037Y-176627D01*
X-2948181Y-262812D01*
X-2973557Y-346467D01*
X-3016487Y-426782D01*
X-3057222Y-502991D01*
X-3086552Y-538729D01*
X-3169814Y-640186D01*
X-3242520Y-699853D01*
X-3307009Y-752778D01*
X-3307011Y-752779D01*
X-3463533Y-836443D01*
X-3520147Y-853616D01*
X-3633373Y-887963D01*
X-3699558Y-894482D01*
X-3765740Y-901000D01*
X-3854260Y-901000D01*
X-3920442Y-894482D01*
X-3986627Y-887963D01*
X-4099853Y-853616D01*
X-4156467Y-836443D01*
X-4312989Y-752779D01*
X-4312991Y-752778D01*
X-4377480Y-699853D01*
X-4450186Y-640186D01*
X-4533448Y-538729D01*
X-4562778Y-502991D01*
X-4603513Y-426782D01*
X-4646443Y-346467D01*
X-4671819Y-262812D01*
X-4697963Y-176627D01*
X-4715359Y0D01*
X-4697963Y176627D01*
X-4646443Y346466D01*
X-4646443Y346467D01*
X-4562779Y502989D01*
X-4562778Y502991D01*
X-4533448Y538729D01*
X-4450186Y640186D01*
X-4348729Y723448D01*
X-4312991Y752778D01*
X-4295087Y762348D01*
X-4156467Y836443D01*
X-4099853Y853616D01*
X-3986627Y887963D01*
X-3920442Y894482D01*
X-3854260Y901000D01*
X-3765740Y901000D01*
X-3699558Y894482D01*
X-3699558Y894482D01*
G37*
G36*
X1380442Y894482D02*
X1446627Y887963D01*
X1559853Y853616D01*
X1616467Y836443D01*
X1755087Y762348D01*
X1772991Y752778D01*
X1808729Y723448D01*
X1910186Y640186D01*
X1993448Y538729D01*
X2022778Y502991D01*
X2022779Y502989D01*
X2106443Y346467D01*
X2106443Y346466D01*
X2157963Y176627D01*
X2175359Y0D01*
X2157963Y-176627D01*
X2131819Y-262812D01*
X2106443Y-346467D01*
X2063513Y-426782D01*
X2022778Y-502991D01*
X1993448Y-538729D01*
X1910186Y-640186D01*
X1837480Y-699853D01*
X1772991Y-752778D01*
X1772989Y-752779D01*
X1616467Y-836443D01*
X1559853Y-853616D01*
X1446627Y-887963D01*
X1380442Y-894482D01*
X1314260Y-901000D01*
X1225740Y-901000D01*
X1159558Y-894482D01*
X1093373Y-887963D01*
X980147Y-853616D01*
X923533Y-836443D01*
X767011Y-752779D01*
X767009Y-752778D01*
X702520Y-699853D01*
X629814Y-640186D01*
X546552Y-538729D01*
X517222Y-502991D01*
X476487Y-426782D01*
X433557Y-346467D01*
X408181Y-262812D01*
X382037Y-176627D01*
X364641Y0D01*
X382037Y176627D01*
X433557Y346466D01*
X433557Y346467D01*
X517221Y502989D01*
X517222Y502991D01*
X546552Y538729D01*
X629814Y640186D01*
X731271Y723448D01*
X767009Y752778D01*
X784913Y762348D01*
X923533Y836443D01*
X980147Y853616D01*
X1093373Y887963D01*
X1159558Y894482D01*
X1225740Y901000D01*
X1314260Y901000D01*
X1380442Y894482D01*
X1380442Y894482D01*
G37*
G36*
X3920442Y894482D02*
X3986627Y887963D01*
X4099853Y853616D01*
X4156467Y836443D01*
X4295087Y762348D01*
X4312991Y752778D01*
X4348729Y723448D01*
X4450186Y640186D01*
X4533448Y538729D01*
X4562778Y502991D01*
X4562779Y502989D01*
X4646443Y346467D01*
X4646443Y346466D01*
X4697963Y176627D01*
X4715359Y0D01*
X4697963Y-176627D01*
X4671819Y-262812D01*
X4646443Y-346467D01*
X4603513Y-426782D01*
X4562778Y-502991D01*
X4533448Y-538729D01*
X4450186Y-640186D01*
X4377480Y-699853D01*
X4312991Y-752778D01*
X4312989Y-752779D01*
X4156467Y-836443D01*
X4099853Y-853616D01*
X3986627Y-887963D01*
X3920442Y-894482D01*
X3854260Y-901000D01*
X3765740Y-901000D01*
X3699558Y-894482D01*
X3633373Y-887963D01*
X3520147Y-853616D01*
X3463533Y-836443D01*
X3307011Y-752779D01*
X3307009Y-752778D01*
X3242520Y-699853D01*
X3169814Y-640186D01*
X3086552Y-538729D01*
X3057222Y-502991D01*
X3016487Y-426782D01*
X2973557Y-346467D01*
X2948181Y-262812D01*
X2922037Y-176627D01*
X2904641Y0D01*
X2922037Y176627D01*
X2973557Y346466D01*
X2973557Y346467D01*
X3057221Y502989D01*
X3057222Y502991D01*
X3086552Y538729D01*
X3169814Y640186D01*
X3271271Y723448D01*
X3307009Y752778D01*
X3324913Y762348D01*
X3463533Y836443D01*
X3520147Y853616D01*
X3633373Y887963D01*
X3699558Y894482D01*
X3765740Y901000D01*
X3854260Y901000D01*
X3920442Y894482D01*
X3920442Y894482D01*
G37*
G36*
X-1159558Y894482D02*
X-1093373Y887963D01*
X-980147Y853616D01*
X-923533Y836443D01*
X-784913Y762348D01*
X-767009Y752778D01*
X-731271Y723448D01*
X-629814Y640186D01*
X-546552Y538729D01*
X-517222Y502991D01*
X-517221Y502989D01*
X-433557Y346467D01*
X-433557Y346466D01*
X-382037Y176627D01*
X-364641Y0D01*
X-382037Y-176627D01*
X-408181Y-262812D01*
X-433557Y-346467D01*
X-476487Y-426782D01*
X-517222Y-502991D01*
X-546552Y-538729D01*
X-629814Y-640186D01*
X-702520Y-699853D01*
X-767009Y-752778D01*
X-767011Y-752779D01*
X-923533Y-836443D01*
X-980147Y-853616D01*
X-1093373Y-887963D01*
X-1159558Y-894482D01*
X-1225740Y-901000D01*
X-1314260Y-901000D01*
X-1380442Y-894482D01*
X-1446627Y-887963D01*
X-1559853Y-853616D01*
X-1616467Y-836443D01*
X-1772989Y-752779D01*
X-1772991Y-752778D01*
X-1837480Y-699853D01*
X-1910186Y-640186D01*
X-1993448Y-538729D01*
X-2022778Y-502991D01*
X-2063513Y-426782D01*
X-2106443Y-346467D01*
X-2131819Y-262812D01*
X-2157963Y-176627D01*
X-2175359Y0D01*
X-2157963Y176627D01*
X-2106443Y346466D01*
X-2106443Y346467D01*
X-2022779Y502989D01*
X-2022778Y502991D01*
X-1993448Y538729D01*
X-1910186Y640186D01*
X-1808729Y723448D01*
X-1772991Y752778D01*
X-1755087Y762348D01*
X-1616467Y836443D01*
X-1559853Y853616D01*
X-1446627Y887963D01*
X-1380442Y894482D01*
X-1314260Y901000D01*
X-1225740Y901000D01*
X-1159558Y894482D01*
X-1159558Y894482D01*
G37*
G36*
X-11537188Y1666376D02*
X-11373216Y1598456D01*
X-11225646Y1499853D01*
X-11100147Y1374354D01*
X-11001544Y1226784D01*
X-10933624Y1062812D01*
X-10899000Y888741D01*
X-10899000Y711259D01*
X-10933624Y537188D01*
X-11001544Y373216D01*
X-11100147Y225646D01*
X-11225646Y100147D01*
X-11373216Y1544D01*
X-11537188Y-66376D01*
X-11711259Y-101000D01*
X-11888741Y-101000D01*
X-12062812Y-66376D01*
X-12226784Y1544D01*
X-12374354Y100147D01*
X-12499853Y225646D01*
X-12598456Y373216D01*
X-12666376Y537188D01*
X-12701000Y711259D01*
X-12701000Y888741D01*
X-12666376Y1062812D01*
X-12598456Y1226784D01*
X-12499853Y1374354D01*
X-12374354Y1499853D01*
X-12226784Y1598456D01*
X-12062812Y1666376D01*
X-11888741Y1701000D01*
X-11711259Y1701000D01*
X-11537188Y1666376D01*
X-11537188Y1666376D01*
G37*
G36*
X12147738Y2633347D02*
X12189598Y2625021D01*
X12224245Y2610670D01*
X12307890Y2576023D01*
X12414354Y2504886D01*
X12504886Y2414354D01*
X12576023Y2307890D01*
X12600173Y2249585D01*
X12623391Y2193534D01*
X12625021Y2189597D01*
X12650000Y2064021D01*
X12650000Y1935979D01*
X12625021Y1810403D01*
X12576023Y1692110D01*
X12504886Y1585646D01*
X12414354Y1495114D01*
X12307890Y1423977D01*
X12224245Y1389330D01*
X12189598Y1374979D01*
X12147738Y1366653D01*
X12064021Y1350000D01*
X11935979Y1350000D01*
X11852262Y1366653D01*
X11810402Y1374979D01*
X11775755Y1389330D01*
X11692110Y1423977D01*
X11585646Y1495114D01*
X11495114Y1585646D01*
X11423977Y1692110D01*
X11374979Y1810403D01*
X11350000Y1935979D01*
X11350000Y2064021D01*
X11374979Y2189597D01*
X11376610Y2193534D01*
X11399827Y2249585D01*
X11423977Y2307890D01*
X11495114Y2414354D01*
X11585646Y2504886D01*
X11692110Y2576023D01*
X11775755Y2610670D01*
X11810402Y2625021D01*
X11852262Y2633347D01*
X11935979Y2650000D01*
X12064021Y2650000D01*
X12147738Y2633347D01*
X12147738Y2633347D01*
G37*
G36*
X1380443Y3434481D02*
X1446627Y3427963D01*
X1559853Y3393616D01*
X1616467Y3376443D01*
X1755087Y3302348D01*
X1772991Y3292778D01*
X1808729Y3263448D01*
X1910186Y3180186D01*
X1993448Y3078729D01*
X2022778Y3042991D01*
X2022779Y3042989D01*
X2106443Y2886467D01*
X2106443Y2886466D01*
X2157963Y2716627D01*
X2175359Y2540000D01*
X2157963Y2363373D01*
X2141132Y2307890D01*
X2106443Y2193533D01*
X2104339Y2189597D01*
X2022778Y2037009D01*
X1993448Y2001271D01*
X1910186Y1899814D01*
X1837480Y1840147D01*
X1772991Y1787222D01*
X1772989Y1787221D01*
X1616467Y1703557D01*
X1559853Y1686384D01*
X1446627Y1652037D01*
X1380443Y1645519D01*
X1314260Y1639000D01*
X1225740Y1639000D01*
X1159557Y1645519D01*
X1093373Y1652037D01*
X980147Y1686384D01*
X923533Y1703557D01*
X767011Y1787221D01*
X767009Y1787222D01*
X702520Y1840147D01*
X629814Y1899814D01*
X546552Y2001271D01*
X517222Y2037009D01*
X435661Y2189597D01*
X433557Y2193533D01*
X398868Y2307890D01*
X382037Y2363373D01*
X364641Y2540000D01*
X382037Y2716627D01*
X433557Y2886466D01*
X433557Y2886467D01*
X517221Y3042989D01*
X517222Y3042991D01*
X546552Y3078729D01*
X629814Y3180186D01*
X731271Y3263448D01*
X767009Y3292778D01*
X784913Y3302348D01*
X923533Y3376443D01*
X980147Y3393616D01*
X1093373Y3427963D01*
X1159557Y3434481D01*
X1225740Y3441000D01*
X1314260Y3441000D01*
X1380443Y3434481D01*
X1380443Y3434481D01*
G37*
G36*
X-3547188Y3406376D02*
X-3383216Y3338456D01*
X-3235646Y3239853D01*
X-3110147Y3114354D01*
X-3011544Y2966784D01*
X-2943624Y2802812D01*
X-2909000Y2628741D01*
X-2909000Y2451259D01*
X-2943624Y2277188D01*
X-3011544Y2113216D01*
X-3110147Y1965646D01*
X-3235646Y1840147D01*
X-3383216Y1741544D01*
X-3547188Y1673624D01*
X-3721259Y1639000D01*
X-3898741Y1639000D01*
X-4072812Y1673624D01*
X-4236784Y1741544D01*
X-4384354Y1840147D01*
X-4509853Y1965646D01*
X-4608456Y2113216D01*
X-4676376Y2277188D01*
X-4711000Y2451259D01*
X-4711000Y2628741D01*
X-4676376Y2802812D01*
X-4608456Y2966784D01*
X-4509853Y3114354D01*
X-4384354Y3239853D01*
X-4236784Y3338456D01*
X-4072812Y3406376D01*
X-3898741Y3441000D01*
X-3721259Y3441000D01*
X-3547188Y3406376D01*
X-3547188Y3406376D01*
G37*
G36*
X-1159557Y3434481D02*
X-1093373Y3427963D01*
X-980147Y3393616D01*
X-923533Y3376443D01*
X-784913Y3302348D01*
X-767009Y3292778D01*
X-731271Y3263448D01*
X-629814Y3180186D01*
X-546552Y3078729D01*
X-517222Y3042991D01*
X-517221Y3042989D01*
X-433557Y2886467D01*
X-433557Y2886466D01*
X-382037Y2716627D01*
X-364641Y2540000D01*
X-382037Y2363373D01*
X-398868Y2307890D01*
X-433557Y2193533D01*
X-435661Y2189597D01*
X-517222Y2037009D01*
X-546552Y2001271D01*
X-629814Y1899814D01*
X-702520Y1840147D01*
X-767009Y1787222D01*
X-767011Y1787221D01*
X-923533Y1703557D01*
X-980147Y1686384D01*
X-1093373Y1652037D01*
X-1159557Y1645519D01*
X-1225740Y1639000D01*
X-1314260Y1639000D01*
X-1380443Y1645519D01*
X-1446627Y1652037D01*
X-1559853Y1686384D01*
X-1616467Y1703557D01*
X-1772989Y1787221D01*
X-1772991Y1787222D01*
X-1837480Y1840147D01*
X-1910186Y1899814D01*
X-1993448Y2001271D01*
X-2022778Y2037009D01*
X-2104339Y2189597D01*
X-2106443Y2193533D01*
X-2141132Y2307890D01*
X-2157963Y2363373D01*
X-2175359Y2540000D01*
X-2157963Y2716627D01*
X-2106443Y2886466D01*
X-2106443Y2886467D01*
X-2022779Y3042989D01*
X-2022778Y3042991D01*
X-1993448Y3078729D01*
X-1910186Y3180186D01*
X-1808729Y3263448D01*
X-1772991Y3292778D01*
X-1755087Y3302348D01*
X-1616467Y3376443D01*
X-1559853Y3393616D01*
X-1446627Y3427963D01*
X-1380443Y3434481D01*
X-1314260Y3441000D01*
X-1225740Y3441000D01*
X-1159557Y3434481D01*
X-1159557Y3434481D01*
G37*
G36*
X3920443Y3434481D02*
X3986627Y3427963D01*
X4099853Y3393616D01*
X4156467Y3376443D01*
X4295087Y3302348D01*
X4312991Y3292778D01*
X4348729Y3263448D01*
X4450186Y3180186D01*
X4533448Y3078729D01*
X4562778Y3042991D01*
X4562779Y3042989D01*
X4646443Y2886467D01*
X4646443Y2886466D01*
X4697963Y2716627D01*
X4715359Y2540000D01*
X4697963Y2363373D01*
X4681132Y2307890D01*
X4646443Y2193533D01*
X4644339Y2189597D01*
X4562778Y2037009D01*
X4533448Y2001271D01*
X4450186Y1899814D01*
X4377480Y1840147D01*
X4312991Y1787222D01*
X4312989Y1787221D01*
X4156467Y1703557D01*
X4099853Y1686384D01*
X3986627Y1652037D01*
X3920443Y1645519D01*
X3854260Y1639000D01*
X3765740Y1639000D01*
X3699557Y1645519D01*
X3633373Y1652037D01*
X3520147Y1686384D01*
X3463533Y1703557D01*
X3307011Y1787221D01*
X3307009Y1787222D01*
X3242520Y1840147D01*
X3169814Y1899814D01*
X3086552Y2001271D01*
X3057222Y2037009D01*
X2975661Y2189597D01*
X2973557Y2193533D01*
X2938868Y2307890D01*
X2922037Y2363373D01*
X2904641Y2540000D01*
X2922037Y2716627D01*
X2973557Y2886466D01*
X2973557Y2886467D01*
X3057221Y3042989D01*
X3057222Y3042991D01*
X3086552Y3078729D01*
X3169814Y3180186D01*
X3271271Y3263448D01*
X3307009Y3292778D01*
X3324913Y3302348D01*
X3463533Y3376443D01*
X3520147Y3393616D01*
X3633373Y3427963D01*
X3699557Y3434481D01*
X3765740Y3441000D01*
X3854260Y3441000D01*
X3920443Y3434481D01*
X3920443Y3434481D01*
G37*
G36*
X-13485608Y3490532D02*
X-13419424Y3484014D01*
X-13306198Y3449667D01*
X-13249584Y3432494D01*
X-13200720Y3406375D01*
X-13093060Y3348829D01*
X-13080421Y3338456D01*
X-12955865Y3236237D01*
X-12872603Y3134780D01*
X-12843273Y3099042D01*
X-12843272Y3099040D01*
X-12759608Y2942518D01*
X-12759608Y2942517D01*
X-12708088Y2772678D01*
X-12690692Y2596051D01*
X-12708088Y2419424D01*
X-12725091Y2363373D01*
X-12759608Y2249584D01*
X-12832498Y2113218D01*
X-12843273Y2093060D01*
X-12867105Y2064021D01*
X-12955865Y1955865D01*
X-13057322Y1872603D01*
X-13093060Y1843273D01*
X-13093062Y1843272D01*
X-13249584Y1759608D01*
X-13306198Y1742435D01*
X-13419424Y1708088D01*
X-13465429Y1703557D01*
X-13551791Y1695051D01*
X-13640311Y1695051D01*
X-13726673Y1703557D01*
X-13772678Y1708088D01*
X-13885904Y1742435D01*
X-13942518Y1759608D01*
X-14099040Y1843272D01*
X-14099042Y1843273D01*
X-14134780Y1872603D01*
X-14236237Y1955865D01*
X-14324997Y2064021D01*
X-14348829Y2093060D01*
X-14359604Y2113218D01*
X-14432494Y2249584D01*
X-14467011Y2363373D01*
X-14484014Y2419424D01*
X-14501410Y2596051D01*
X-14484014Y2772678D01*
X-14432494Y2942517D01*
X-14432494Y2942518D01*
X-14348830Y3099040D01*
X-14348829Y3099042D01*
X-14319499Y3134780D01*
X-14236237Y3236237D01*
X-14111681Y3338456D01*
X-14099042Y3348829D01*
X-13991382Y3406375D01*
X-13942518Y3432494D01*
X-13885904Y3449667D01*
X-13772678Y3484014D01*
X-13706494Y3490532D01*
X-13640311Y3497051D01*
X-13551791Y3497051D01*
X-13485608Y3490532D01*
X-13485608Y3490532D01*
G37*
G36*
X16201000Y8201500D02*
X14199000Y8201500D01*
X14199000Y9549000D01*
X14196598Y9573386D01*
X14189485Y9596835D01*
X14177934Y9618446D01*
X14162388Y9637388D01*
X14143446Y9652934D01*
X14121835Y9664485D01*
X14098386Y9671598D01*
X14074000Y9674000D01*
X13406000Y9674000D01*
X13381614Y9671598D01*
X13358165Y9664485D01*
X13336554Y9652934D01*
X13317612Y9637388D01*
X13302066Y9618446D01*
X13290515Y9596835D01*
X13283402Y9573386D01*
X13281000Y9549000D01*
X13281000Y6451000D01*
X13283402Y6426614D01*
X13290515Y6403165D01*
X13302066Y6381554D01*
X13317612Y6362612D01*
X13336554Y6347066D01*
X13358165Y6335515D01*
X13381614Y6328402D01*
X13406000Y6326000D01*
X14074000Y6326000D01*
X14098386Y6328402D01*
X14121835Y6335515D01*
X14143446Y6347066D01*
X14162388Y6362612D01*
X14177934Y6381554D01*
X14189485Y6403165D01*
X14196598Y6426614D01*
X14199000Y6451000D01*
X14199000Y7798500D01*
X16201000Y7798500D01*
X16201000Y3851500D01*
X14199000Y3851500D01*
X14199000Y4624000D01*
X14196598Y4648386D01*
X14189485Y4671835D01*
X14177934Y4693446D01*
X14162388Y4712388D01*
X14143446Y4727934D01*
X14121835Y4739485D01*
X14098386Y4746598D01*
X14074000Y4749000D01*
X11799000Y4749000D01*
X11799000Y11251000D01*
X14074000Y11251000D01*
X14098386Y11253402D01*
X14121835Y11260515D01*
X14143446Y11272066D01*
X14162388Y11287612D01*
X14177934Y11306554D01*
X14189485Y11328165D01*
X14196598Y11351614D01*
X14199000Y11376000D01*
X14199000Y12148500D01*
X16201000Y12148500D01*
X16201000Y8201500D01*
X16201000Y8201500D01*
G37*
G36*
X-7620409Y5196915D02*
X-7586431Y5186607D01*
X-7555113Y5169867D01*
X-7527661Y5147339D01*
X-7505133Y5119887D01*
X-7488393Y5088569D01*
X-7478085Y5054591D01*
X-7474000Y5013110D01*
X-7474000Y4411890D01*
X-7478085Y4370409D01*
X-7488393Y4336431D01*
X-7505133Y4305113D01*
X-7527661Y4277661D01*
X-7555113Y4255133D01*
X-7586431Y4238393D01*
X-7620409Y4228085D01*
X-7661890Y4224000D01*
X-8338110Y4224000D01*
X-8379591Y4228085D01*
X-8413569Y4238393D01*
X-8444887Y4255133D01*
X-8472339Y4277661D01*
X-8494867Y4305113D01*
X-8511607Y4336431D01*
X-8521915Y4370409D01*
X-8526000Y4411890D01*
X-8526000Y5013110D01*
X-8521915Y5054591D01*
X-8511607Y5088569D01*
X-8494867Y5119887D01*
X-8472339Y5147339D01*
X-8444887Y5169867D01*
X-8413569Y5186607D01*
X-8379591Y5196915D01*
X-8338110Y5201000D01*
X-7661890Y5201000D01*
X-7620409Y5196915D01*
X-7620409Y5196915D01*
G37*
G36*
X201000Y4974000D02*
X-6201000Y4974000D01*
X-6201000Y6526000D01*
X201000Y6526000D01*
X201000Y4974000D01*
X201000Y4974000D01*
G37*
G36*
X-7620409Y6771915D02*
X-7586431Y6761607D01*
X-7555113Y6744867D01*
X-7527661Y6722339D01*
X-7505133Y6694887D01*
X-7488393Y6663569D01*
X-7478085Y6629591D01*
X-7474000Y6588110D01*
X-7474000Y5986890D01*
X-7478085Y5945409D01*
X-7488393Y5911431D01*
X-7505133Y5880113D01*
X-7527661Y5852661D01*
X-7555113Y5830133D01*
X-7586431Y5813393D01*
X-7620409Y5803085D01*
X-7661890Y5799000D01*
X-8338110Y5799000D01*
X-8379591Y5803085D01*
X-8413569Y5813393D01*
X-8444887Y5830133D01*
X-8472339Y5852661D01*
X-8494867Y5880113D01*
X-8511607Y5911431D01*
X-8521915Y5945409D01*
X-8526000Y5986890D01*
X-8526000Y6588110D01*
X-8521915Y6629591D01*
X-8511607Y6663569D01*
X-8494867Y6694887D01*
X-8472339Y6722339D01*
X-8444887Y6744867D01*
X-8413569Y6761607D01*
X-8379591Y6771915D01*
X-8338110Y6776000D01*
X-7661890Y6776000D01*
X-7620409Y6771915D01*
X-7620409Y6771915D01*
G37*
G36*
X5901000Y7199000D02*
X4999000Y7199000D01*
X4999000Y8201000D01*
X5901000Y8201000D01*
X5901000Y7199000D01*
X5901000Y7199000D01*
G37*
G36*
X4001000Y7199000D02*
X3099000Y7199000D01*
X3099000Y8201000D01*
X4001000Y8201000D01*
X4001000Y7199000D01*
X4001000Y7199000D01*
G37*
G36*
X-7620409Y8196915D02*
X-7586431Y8186607D01*
X-7555113Y8169867D01*
X-7527661Y8147339D01*
X-7505133Y8119887D01*
X-7488393Y8088569D01*
X-7478085Y8054591D01*
X-7474000Y8013110D01*
X-7474000Y7411890D01*
X-7478085Y7370409D01*
X-7488393Y7336431D01*
X-7505133Y7305113D01*
X-7527661Y7277661D01*
X-7555113Y7255133D01*
X-7586431Y7238393D01*
X-7620409Y7228085D01*
X-7661890Y7224000D01*
X-8338110Y7224000D01*
X-8379591Y7228085D01*
X-8413569Y7238393D01*
X-8444887Y7255133D01*
X-8472339Y7277661D01*
X-8494867Y7305113D01*
X-8511607Y7336431D01*
X-8521915Y7370409D01*
X-8526000Y7411890D01*
X-8526000Y8013110D01*
X-8521915Y8054591D01*
X-8511607Y8088569D01*
X-8494867Y8119887D01*
X-8472339Y8147339D01*
X-8444887Y8169867D01*
X-8413569Y8186607D01*
X-8379591Y8196915D01*
X-8338110Y8201000D01*
X-7661890Y8201000D01*
X-7620409Y8196915D01*
X-7620409Y8196915D01*
G37*
G36*
X2379591Y8196915D02*
X2413569Y8186607D01*
X2444887Y8169867D01*
X2472339Y8147339D01*
X2494867Y8119887D01*
X2511607Y8088569D01*
X2521915Y8054591D01*
X2526000Y8013110D01*
X2526000Y7411890D01*
X2521915Y7370409D01*
X2511607Y7336431D01*
X2494867Y7305113D01*
X2472339Y7277661D01*
X2444887Y7255133D01*
X2413569Y7238393D01*
X2379591Y7228085D01*
X2338110Y7224000D01*
X1661890Y7224000D01*
X1620409Y7228085D01*
X1586431Y7238393D01*
X1555113Y7255133D01*
X1527661Y7277661D01*
X1505133Y7305113D01*
X1488393Y7336431D01*
X1478085Y7370409D01*
X1474000Y7411890D01*
X1474000Y8013110D01*
X1478085Y8054591D01*
X1488393Y8088569D01*
X1505133Y8119887D01*
X1527661Y8147339D01*
X1555113Y8169867D01*
X1586431Y8186607D01*
X1620409Y8196915D01*
X1661890Y8201000D01*
X2338110Y8201000D01*
X2379591Y8196915D01*
X2379591Y8196915D01*
G37*
G36*
X-7620409Y9771915D02*
X-7586431Y9761607D01*
X-7555113Y9744867D01*
X-7527661Y9722339D01*
X-7505133Y9694887D01*
X-7488393Y9663569D01*
X-7478085Y9629591D01*
X-7474000Y9588110D01*
X-7474000Y8986890D01*
X-7478085Y8945409D01*
X-7488393Y8911431D01*
X-7505133Y8880113D01*
X-7527661Y8852661D01*
X-7555113Y8830133D01*
X-7586431Y8813393D01*
X-7620409Y8803085D01*
X-7661890Y8799000D01*
X-8338110Y8799000D01*
X-8379591Y8803085D01*
X-8413569Y8813393D01*
X-8444887Y8830133D01*
X-8472339Y8852661D01*
X-8494867Y8880113D01*
X-8511607Y8911431D01*
X-8521915Y8945409D01*
X-8526000Y8986890D01*
X-8526000Y9588110D01*
X-8521915Y9629591D01*
X-8511607Y9663569D01*
X-8494867Y9694887D01*
X-8472339Y9722339D01*
X-8444887Y9744867D01*
X-8413569Y9761607D01*
X-8379591Y9771915D01*
X-8338110Y9776000D01*
X-7661890Y9776000D01*
X-7620409Y9771915D01*
X-7620409Y9771915D01*
G37*
G36*
X2379591Y9771915D02*
X2413569Y9761607D01*
X2444887Y9744867D01*
X2472339Y9722339D01*
X2494867Y9694887D01*
X2511607Y9663569D01*
X2521915Y9629591D01*
X2526000Y9588110D01*
X2526000Y8986890D01*
X2521915Y8945409D01*
X2511607Y8911431D01*
X2494867Y8880113D01*
X2472339Y8852661D01*
X2444887Y8830133D01*
X2413569Y8813393D01*
X2379591Y8803085D01*
X2338110Y8799000D01*
X1661890Y8799000D01*
X1620409Y8803085D01*
X1586431Y8813393D01*
X1555113Y8830133D01*
X1527661Y8852661D01*
X1505133Y8880113D01*
X1488393Y8911431D01*
X1478085Y8945409D01*
X1474000Y8986890D01*
X1474000Y9588110D01*
X1478085Y9629591D01*
X1488393Y9663569D01*
X1505133Y9694887D01*
X1527661Y9722339D01*
X1555113Y9744867D01*
X1586431Y9761607D01*
X1620409Y9771915D01*
X1661890Y9776000D01*
X2338110Y9776000D01*
X2379591Y9771915D01*
X2379591Y9771915D01*
G37*
G36*
X4951000Y9199000D02*
X4049000Y9199000D01*
X4049000Y10201000D01*
X4951000Y10201000D01*
X4951000Y9199000D01*
X4951000Y9199000D01*
G37*
G36*
X-7620409Y11196915D02*
X-7586431Y11186607D01*
X-7555113Y11169867D01*
X-7527661Y11147339D01*
X-7505133Y11119887D01*
X-7488393Y11088569D01*
X-7478085Y11054591D01*
X-7474000Y11013110D01*
X-7474000Y10411890D01*
X-7478085Y10370409D01*
X-7488393Y10336431D01*
X-7505133Y10305113D01*
X-7527661Y10277661D01*
X-7555113Y10255133D01*
X-7586431Y10238393D01*
X-7620409Y10228085D01*
X-7661890Y10224000D01*
X-8338110Y10224000D01*
X-8379591Y10228085D01*
X-8413569Y10238393D01*
X-8444887Y10255133D01*
X-8472339Y10277661D01*
X-8494867Y10305113D01*
X-8511607Y10336431D01*
X-8521915Y10370409D01*
X-8526000Y10411890D01*
X-8526000Y11013110D01*
X-8521915Y11054591D01*
X-8511607Y11088569D01*
X-8494867Y11119887D01*
X-8472339Y11147339D01*
X-8444887Y11169867D01*
X-8413569Y11186607D01*
X-8379591Y11196915D01*
X-8338110Y11201000D01*
X-7661890Y11201000D01*
X-7620409Y11196915D01*
X-7620409Y11196915D01*
G37*
G36*
X2379591Y11196915D02*
X2413569Y11186607D01*
X2444887Y11169867D01*
X2472339Y11147339D01*
X2494867Y11119887D01*
X2511607Y11088569D01*
X2521915Y11054591D01*
X2526000Y11013110D01*
X2526000Y10411890D01*
X2521915Y10370409D01*
X2511607Y10336431D01*
X2494867Y10305113D01*
X2472339Y10277661D01*
X2444887Y10255133D01*
X2413569Y10238393D01*
X2379591Y10228085D01*
X2338110Y10224000D01*
X1661890Y10224000D01*
X1620409Y10228085D01*
X1586431Y10238393D01*
X1555113Y10255133D01*
X1527661Y10277661D01*
X1505133Y10305113D01*
X1488393Y10336431D01*
X1478085Y10370409D01*
X1474000Y10411890D01*
X1474000Y11013110D01*
X1478085Y11054591D01*
X1488393Y11088569D01*
X1505133Y11119887D01*
X1527661Y11147339D01*
X1555113Y11169867D01*
X1586431Y11186607D01*
X1620409Y11196915D01*
X1661890Y11201000D01*
X2338110Y11201000D01*
X2379591Y11196915D01*
X2379591Y11196915D01*
G37*
G36*
X10379591Y11196915D02*
X10413569Y11186607D01*
X10444887Y11169867D01*
X10472339Y11147339D01*
X10494867Y11119887D01*
X10511607Y11088569D01*
X10521915Y11054591D01*
X10526000Y11013110D01*
X10526000Y10411890D01*
X10521915Y10370409D01*
X10511607Y10336431D01*
X10494867Y10305113D01*
X10472339Y10277661D01*
X10444887Y10255133D01*
X10413569Y10238393D01*
X10379591Y10228085D01*
X10338110Y10224000D01*
X9661890Y10224000D01*
X9620409Y10228085D01*
X9586431Y10238393D01*
X9555113Y10255133D01*
X9527661Y10277661D01*
X9505133Y10305113D01*
X9488393Y10336431D01*
X9478085Y10370409D01*
X9474000Y10411890D01*
X9474000Y11013110D01*
X9478085Y11054591D01*
X9488393Y11088569D01*
X9505133Y11119887D01*
X9527661Y11147339D01*
X9555113Y11169867D01*
X9586431Y11186607D01*
X9620409Y11196915D01*
X9661890Y11201000D01*
X10338110Y11201000D01*
X10379591Y11196915D01*
X10379591Y11196915D01*
G37*
G36*
X201000Y10874000D02*
X-6201000Y10874000D01*
X-6201000Y12426000D01*
X201000Y12426000D01*
X201000Y10874000D01*
X201000Y10874000D01*
G37*
G36*
X10379591Y12771915D02*
X10413569Y12761607D01*
X10444887Y12744867D01*
X10472339Y12722339D01*
X10494867Y12694887D01*
X10511607Y12663569D01*
X10521915Y12629591D01*
X10526000Y12588110D01*
X10526000Y11986890D01*
X10521915Y11945409D01*
X10511607Y11911431D01*
X10494867Y11880113D01*
X10472339Y11852661D01*
X10444887Y11830133D01*
X10413569Y11813393D01*
X10379591Y11803085D01*
X10338110Y11799000D01*
X9661890Y11799000D01*
X9620409Y11803085D01*
X9586431Y11813393D01*
X9555113Y11830133D01*
X9527661Y11852661D01*
X9505133Y11880113D01*
X9488393Y11911431D01*
X9478085Y11945409D01*
X9474000Y11986890D01*
X9474000Y12588110D01*
X9478085Y12629591D01*
X9488393Y12663569D01*
X9505133Y12694887D01*
X9527661Y12722339D01*
X9555113Y12744867D01*
X9586431Y12761607D01*
X9620409Y12771915D01*
X9661890Y12776000D01*
X10338110Y12776000D01*
X10379591Y12771915D01*
X10379591Y12771915D01*
G37*
G36*
X2379591Y12771915D02*
X2413569Y12761607D01*
X2444887Y12744867D01*
X2472339Y12722339D01*
X2494867Y12694887D01*
X2511607Y12663569D01*
X2521915Y12629591D01*
X2526000Y12588110D01*
X2526000Y11986890D01*
X2521915Y11945409D01*
X2511607Y11911431D01*
X2494867Y11880113D01*
X2472339Y11852661D01*
X2444887Y11830133D01*
X2413569Y11813393D01*
X2379591Y11803085D01*
X2338110Y11799000D01*
X1661890Y11799000D01*
X1620409Y11803085D01*
X1586431Y11813393D01*
X1555113Y11830133D01*
X1527661Y11852661D01*
X1505133Y11880113D01*
X1488393Y11911431D01*
X1478085Y11945409D01*
X1474000Y11986890D01*
X1474000Y12588110D01*
X1478085Y12629591D01*
X1488393Y12663569D01*
X1505133Y12694887D01*
X1527661Y12722339D01*
X1555113Y12744867D01*
X1586431Y12761607D01*
X1620409Y12771915D01*
X1661890Y12776000D01*
X2338110Y12776000D01*
X2379591Y12771915D01*
X2379591Y12771915D01*
G37*
G36*
X-7620409Y12771915D02*
X-7586431Y12761607D01*
X-7555113Y12744867D01*
X-7527661Y12722339D01*
X-7505133Y12694887D01*
X-7488393Y12663569D01*
X-7478085Y12629591D01*
X-7474000Y12588110D01*
X-7474000Y11986890D01*
X-7478085Y11945409D01*
X-7488393Y11911431D01*
X-7505133Y11880113D01*
X-7527661Y11852661D01*
X-7555113Y11830133D01*
X-7586431Y11813393D01*
X-7620409Y11803085D01*
X-7661890Y11799000D01*
X-8338110Y11799000D01*
X-8379591Y11803085D01*
X-8413569Y11813393D01*
X-8444887Y11830133D01*
X-8472339Y11852661D01*
X-8494867Y11880113D01*
X-8511607Y11911431D01*
X-8521915Y11945409D01*
X-8526000Y11986890D01*
X-8526000Y12588110D01*
X-8521915Y12629591D01*
X-8511607Y12663569D01*
X-8494867Y12694887D01*
X-8472339Y12722339D01*
X-8444887Y12744867D01*
X-8413569Y12761607D01*
X-8379591Y12771915D01*
X-8338110Y12776000D01*
X-7661890Y12776000D01*
X-7620409Y12771915D01*
X-7620409Y12771915D01*
G37*
G36*
X5901000Y12799000D02*
X4999000Y12799000D01*
X4999000Y13801000D01*
X5901000Y13801000D01*
X5901000Y12799000D01*
X5901000Y12799000D01*
G37*
G36*
X4001000Y12799000D02*
X3099000Y12799000D01*
X3099000Y13801000D01*
X4001000Y13801000D01*
X4001000Y12799000D01*
X4001000Y12799000D01*
G37*
G36*
X-7620409Y14196915D02*
X-7586431Y14186607D01*
X-7555113Y14169867D01*
X-7527661Y14147339D01*
X-7505133Y14119887D01*
X-7488393Y14088569D01*
X-7478085Y14054591D01*
X-7474000Y14013110D01*
X-7474000Y13411890D01*
X-7478085Y13370409D01*
X-7488393Y13336431D01*
X-7505133Y13305113D01*
X-7527661Y13277661D01*
X-7555113Y13255133D01*
X-7586431Y13238393D01*
X-7620409Y13228085D01*
X-7661890Y13224000D01*
X-8338110Y13224000D01*
X-8379591Y13228085D01*
X-8413569Y13238393D01*
X-8444887Y13255133D01*
X-8472339Y13277661D01*
X-8494867Y13305113D01*
X-8511607Y13336431D01*
X-8521915Y13370409D01*
X-8526000Y13411890D01*
X-8526000Y14013110D01*
X-8521915Y14054591D01*
X-8511607Y14088569D01*
X-8494867Y14119887D01*
X-8472339Y14147339D01*
X-8444887Y14169867D01*
X-8413569Y14186607D01*
X-8379591Y14196915D01*
X-8338110Y14201000D01*
X-7661890Y14201000D01*
X-7620409Y14196915D01*
X-7620409Y14196915D01*
G37*
G36*
X7479591Y14196915D02*
X7513569Y14186607D01*
X7544887Y14169867D01*
X7572339Y14147339D01*
X7594867Y14119887D01*
X7611607Y14088569D01*
X7621915Y14054591D01*
X7626000Y14013110D01*
X7626000Y13411890D01*
X7621915Y13370409D01*
X7611607Y13336431D01*
X7594867Y13305113D01*
X7572339Y13277661D01*
X7544887Y13255133D01*
X7513569Y13238393D01*
X7479591Y13228085D01*
X7438110Y13224000D01*
X6761890Y13224000D01*
X6720409Y13228085D01*
X6686431Y13238393D01*
X6655113Y13255133D01*
X6627661Y13277661D01*
X6605133Y13305113D01*
X6588393Y13336431D01*
X6578085Y13370409D01*
X6574000Y13411890D01*
X6574000Y14013110D01*
X6578085Y14054591D01*
X6588393Y14088569D01*
X6605133Y14119887D01*
X6627661Y14147339D01*
X6655113Y14169867D01*
X6686431Y14186607D01*
X6720409Y14196915D01*
X6761890Y14201000D01*
X7438110Y14201000D01*
X7479591Y14196915D01*
X7479591Y14196915D01*
G37*
G36*
X10379591Y14196915D02*
X10413569Y14186607D01*
X10444887Y14169867D01*
X10472339Y14147339D01*
X10494867Y14119887D01*
X10511607Y14088569D01*
X10521915Y14054591D01*
X10526000Y14013110D01*
X10526000Y13411890D01*
X10521915Y13370409D01*
X10511607Y13336431D01*
X10494867Y13305113D01*
X10472339Y13277661D01*
X10444887Y13255133D01*
X10413569Y13238393D01*
X10379591Y13228085D01*
X10338110Y13224000D01*
X9661890Y13224000D01*
X9620409Y13228085D01*
X9586431Y13238393D01*
X9555113Y13255133D01*
X9527661Y13277661D01*
X9505133Y13305113D01*
X9488393Y13336431D01*
X9478085Y13370409D01*
X9474000Y13411890D01*
X9474000Y14013110D01*
X9478085Y14054591D01*
X9488393Y14088569D01*
X9505133Y14119887D01*
X9527661Y14147339D01*
X9555113Y14169867D01*
X9586431Y14186607D01*
X9620409Y14196915D01*
X9661890Y14201000D01*
X10338110Y14201000D01*
X10379591Y14196915D01*
X10379591Y14196915D01*
G37*
G36*
X2379591Y14196915D02*
X2413569Y14186607D01*
X2444887Y14169867D01*
X2472339Y14147339D01*
X2494867Y14119887D01*
X2511607Y14088569D01*
X2521915Y14054591D01*
X2526000Y14013110D01*
X2526000Y13411890D01*
X2521915Y13370409D01*
X2511607Y13336431D01*
X2494867Y13305113D01*
X2472339Y13277661D01*
X2444887Y13255133D01*
X2413569Y13238393D01*
X2379591Y13228085D01*
X2338110Y13224000D01*
X1661890Y13224000D01*
X1620409Y13228085D01*
X1586431Y13238393D01*
X1555113Y13255133D01*
X1527661Y13277661D01*
X1505133Y13305113D01*
X1488393Y13336431D01*
X1478085Y13370409D01*
X1474000Y13411890D01*
X1474000Y14013110D01*
X1478085Y14054591D01*
X1488393Y14088569D01*
X1505133Y14119887D01*
X1527661Y14147339D01*
X1555113Y14169867D01*
X1586431Y14186607D01*
X1620409Y14196915D01*
X1661890Y14201000D01*
X2338110Y14201000D01*
X2379591Y14196915D01*
X2379591Y14196915D01*
G37*
G36*
X-1049000Y13299000D02*
X-4951000Y13299000D01*
X-4951000Y15401000D01*
X-1049000Y15401000D01*
X-1049000Y13299000D01*
X-1049000Y13299000D01*
G37*
G36*
X2379591Y15771915D02*
X2413569Y15761607D01*
X2444887Y15744867D01*
X2472339Y15722339D01*
X2494867Y15694887D01*
X2511607Y15663569D01*
X2521915Y15629591D01*
X2526000Y15588110D01*
X2526000Y14986890D01*
X2521915Y14945409D01*
X2511607Y14911431D01*
X2494867Y14880113D01*
X2472339Y14852661D01*
X2444887Y14830133D01*
X2413569Y14813393D01*
X2379591Y14803085D01*
X2338110Y14799000D01*
X1661890Y14799000D01*
X1620409Y14803085D01*
X1586431Y14813393D01*
X1555113Y14830133D01*
X1527661Y14852661D01*
X1505133Y14880113D01*
X1488393Y14911431D01*
X1478085Y14945409D01*
X1474000Y14986890D01*
X1474000Y15588110D01*
X1478085Y15629591D01*
X1488393Y15663569D01*
X1505133Y15694887D01*
X1527661Y15722339D01*
X1555113Y15744867D01*
X1586431Y15761607D01*
X1620409Y15771915D01*
X1661890Y15776000D01*
X2338110Y15776000D01*
X2379591Y15771915D01*
X2379591Y15771915D01*
G37*
G36*
X-7620409Y15771915D02*
X-7586431Y15761607D01*
X-7555113Y15744867D01*
X-7527661Y15722339D01*
X-7505133Y15694887D01*
X-7488393Y15663569D01*
X-7478085Y15629591D01*
X-7474000Y15588110D01*
X-7474000Y14986890D01*
X-7478085Y14945409D01*
X-7488393Y14911431D01*
X-7505133Y14880113D01*
X-7527661Y14852661D01*
X-7555113Y14830133D01*
X-7586431Y14813393D01*
X-7620409Y14803085D01*
X-7661890Y14799000D01*
X-8338110Y14799000D01*
X-8379591Y14803085D01*
X-8413569Y14813393D01*
X-8444887Y14830133D01*
X-8472339Y14852661D01*
X-8494867Y14880113D01*
X-8511607Y14911431D01*
X-8521915Y14945409D01*
X-8526000Y14986890D01*
X-8526000Y15588110D01*
X-8521915Y15629591D01*
X-8511607Y15663569D01*
X-8494867Y15694887D01*
X-8472339Y15722339D01*
X-8444887Y15744867D01*
X-8413569Y15761607D01*
X-8379591Y15771915D01*
X-8338110Y15776000D01*
X-7661890Y15776000D01*
X-7620409Y15771915D01*
X-7620409Y15771915D01*
G37*
G36*
X4951000Y14799000D02*
X4049000Y14799000D01*
X4049000Y15801000D01*
X4951000Y15801000D01*
X4951000Y14799000D01*
X4951000Y14799000D01*
G37*
G36*
X7479591Y15771915D02*
X7513569Y15761607D01*
X7544887Y15744867D01*
X7572339Y15722339D01*
X7594867Y15694887D01*
X7611607Y15663569D01*
X7621915Y15629591D01*
X7626000Y15588110D01*
X7626000Y14986890D01*
X7621915Y14945409D01*
X7611607Y14911431D01*
X7594867Y14880113D01*
X7572339Y14852661D01*
X7544887Y14830133D01*
X7513569Y14813393D01*
X7479591Y14803085D01*
X7438110Y14799000D01*
X6761890Y14799000D01*
X6720409Y14803085D01*
X6686431Y14813393D01*
X6655113Y14830133D01*
X6627661Y14852661D01*
X6605133Y14880113D01*
X6588393Y14911431D01*
X6578085Y14945409D01*
X6574000Y14986890D01*
X6574000Y15588110D01*
X6578085Y15629591D01*
X6588393Y15663569D01*
X6605133Y15694887D01*
X6627661Y15722339D01*
X6655113Y15744867D01*
X6686431Y15761607D01*
X6720409Y15771915D01*
X6761890Y15776000D01*
X7438110Y15776000D01*
X7479591Y15771915D01*
X7479591Y15771915D01*
G37*
G36*
X10379591Y15771915D02*
X10413569Y15761607D01*
X10444887Y15744867D01*
X10472339Y15722339D01*
X10494867Y15694887D01*
X10511607Y15663569D01*
X10521915Y15629591D01*
X10526000Y15588110D01*
X10526000Y14986890D01*
X10521915Y14945409D01*
X10511607Y14911431D01*
X10494867Y14880113D01*
X10472339Y14852661D01*
X10444887Y14830133D01*
X10413569Y14813393D01*
X10379591Y14803085D01*
X10338110Y14799000D01*
X9661890Y14799000D01*
X9620409Y14803085D01*
X9586431Y14813393D01*
X9555113Y14830133D01*
X9527661Y14852661D01*
X9505133Y14880113D01*
X9488393Y14911431D01*
X9478085Y14945409D01*
X9474000Y14986890D01*
X9474000Y15588110D01*
X9478085Y15629591D01*
X9488393Y15663569D01*
X9505133Y15694887D01*
X9527661Y15722339D01*
X9555113Y15744867D01*
X9586431Y15761607D01*
X9620409Y15771915D01*
X9661890Y15776000D01*
X10338110Y15776000D01*
X10379591Y15771915D01*
X10379591Y15771915D01*
G37*
G36*
X-7620409Y17196915D02*
X-7586431Y17186607D01*
X-7555113Y17169867D01*
X-7527661Y17147339D01*
X-7505133Y17119887D01*
X-7488393Y17088569D01*
X-7478085Y17054591D01*
X-7474000Y17013110D01*
X-7474000Y16411890D01*
X-7478085Y16370409D01*
X-7488393Y16336431D01*
X-7505133Y16305113D01*
X-7527661Y16277661D01*
X-7555113Y16255133D01*
X-7586431Y16238393D01*
X-7620409Y16228085D01*
X-7661890Y16224000D01*
X-8338110Y16224000D01*
X-8379591Y16228085D01*
X-8413569Y16238393D01*
X-8444887Y16255133D01*
X-8472339Y16277661D01*
X-8494867Y16305113D01*
X-8511607Y16336431D01*
X-8521915Y16370409D01*
X-8526000Y16411890D01*
X-8526000Y17013110D01*
X-8521915Y17054591D01*
X-8511607Y17088569D01*
X-8494867Y17119887D01*
X-8472339Y17147339D01*
X-8444887Y17169867D01*
X-8413569Y17186607D01*
X-8379591Y17196915D01*
X-8338110Y17201000D01*
X-7661890Y17201000D01*
X-7620409Y17196915D01*
X-7620409Y17196915D01*
G37*
G36*
X2379591Y17196915D02*
X2413569Y17186607D01*
X2444887Y17169867D01*
X2472339Y17147339D01*
X2494867Y17119887D01*
X2511607Y17088569D01*
X2521915Y17054591D01*
X2526000Y17013110D01*
X2526000Y16411890D01*
X2521915Y16370409D01*
X2511607Y16336431D01*
X2494867Y16305113D01*
X2472339Y16277661D01*
X2444887Y16255133D01*
X2413569Y16238393D01*
X2379591Y16228085D01*
X2338110Y16224000D01*
X1661890Y16224000D01*
X1620409Y16228085D01*
X1586431Y16238393D01*
X1555113Y16255133D01*
X1527661Y16277661D01*
X1505133Y16305113D01*
X1488393Y16336431D01*
X1478085Y16370409D01*
X1474000Y16411890D01*
X1474000Y17013110D01*
X1478085Y17054591D01*
X1488393Y17088569D01*
X1505133Y17119887D01*
X1527661Y17147339D01*
X1555113Y17169867D01*
X1586431Y17186607D01*
X1620409Y17196915D01*
X1661890Y17201000D01*
X2338110Y17201000D01*
X2379591Y17196915D01*
X2379591Y17196915D01*
G37*
G36*
X10379591Y17196915D02*
X10413569Y17186607D01*
X10444887Y17169867D01*
X10472339Y17147339D01*
X10494867Y17119887D01*
X10511607Y17088569D01*
X10521915Y17054591D01*
X10526000Y17013110D01*
X10526000Y16411890D01*
X10521915Y16370409D01*
X10511607Y16336431D01*
X10494867Y16305113D01*
X10472339Y16277661D01*
X10444887Y16255133D01*
X10413569Y16238393D01*
X10379591Y16228085D01*
X10338110Y16224000D01*
X9661890Y16224000D01*
X9620409Y16228085D01*
X9586431Y16238393D01*
X9555113Y16255133D01*
X9527661Y16277661D01*
X9505133Y16305113D01*
X9488393Y16336431D01*
X9478085Y16370409D01*
X9474000Y16411890D01*
X9474000Y17013110D01*
X9478085Y17054591D01*
X9488393Y17088569D01*
X9505133Y17119887D01*
X9527661Y17147339D01*
X9555113Y17169867D01*
X9586431Y17186607D01*
X9620409Y17196915D01*
X9661890Y17201000D01*
X10338110Y17201000D01*
X10379591Y17196915D01*
X10379591Y17196915D01*
G37*
G36*
X4405357Y22099917D02*
X4410028Y22098500D01*
X4414330Y22096200D01*
X4420705Y22090969D01*
X4441080Y22077356D01*
X4463719Y22067980D01*
X4487753Y22063200D01*
X4512257Y22063201D01*
X4536291Y22067983D01*
X4558929Y22077361D01*
X4579295Y22090969D01*
X4585670Y22096200D01*
X4589972Y22098500D01*
X4594643Y22099917D01*
X4605641Y22101000D01*
X4894359Y22101000D01*
X4905357Y22099917D01*
X4910028Y22098500D01*
X4914330Y22096200D01*
X4920705Y22090969D01*
X4941080Y22077356D01*
X4963719Y22067980D01*
X4987753Y22063200D01*
X5012257Y22063201D01*
X5036291Y22067983D01*
X5058929Y22077361D01*
X5079295Y22090969D01*
X5085670Y22096200D01*
X5089972Y22098500D01*
X5094643Y22099917D01*
X5105641Y22101000D01*
X5394359Y22101000D01*
X5405357Y22099917D01*
X5410028Y22098500D01*
X5414330Y22096200D01*
X5420705Y22090969D01*
X5441080Y22077356D01*
X5463719Y22067980D01*
X5487753Y22063200D01*
X5512257Y22063201D01*
X5536291Y22067983D01*
X5558929Y22077361D01*
X5579295Y22090969D01*
X5585670Y22096200D01*
X5589972Y22098500D01*
X5594643Y22099917D01*
X5605641Y22101000D01*
X5894359Y22101000D01*
X5905357Y22099917D01*
X5910028Y22098500D01*
X5914330Y22096200D01*
X5920705Y22090969D01*
X5941080Y22077356D01*
X5963719Y22067980D01*
X5987753Y22063200D01*
X6012257Y22063201D01*
X6036291Y22067983D01*
X6058929Y22077361D01*
X6079295Y22090969D01*
X6085670Y22096200D01*
X6089972Y22098500D01*
X6094643Y22099917D01*
X6105641Y22101000D01*
X6394359Y22101000D01*
X6405357Y22099917D01*
X6410028Y22098500D01*
X6414330Y22096200D01*
X6420705Y22090969D01*
X6441080Y22077356D01*
X6463719Y22067980D01*
X6487753Y22063200D01*
X6512257Y22063201D01*
X6536291Y22067983D01*
X6558929Y22077361D01*
X6579295Y22090969D01*
X6585670Y22096200D01*
X6589972Y22098500D01*
X6594643Y22099917D01*
X6605641Y22101000D01*
X6894359Y22101000D01*
X6905357Y22099917D01*
X6910028Y22098500D01*
X6914330Y22096200D01*
X6918104Y22093104D01*
X6921200Y22089330D01*
X6923500Y22085028D01*
X6924917Y22080357D01*
X6926000Y22069359D01*
X6926000Y21251000D01*
X6928402Y21226614D01*
X6935515Y21203165D01*
X6947066Y21181554D01*
X6962612Y21162612D01*
X6981554Y21147066D01*
X7003165Y21135515D01*
X7026614Y21128402D01*
X7051000Y21126000D01*
X7869359Y21126000D01*
X7880357Y21124917D01*
X7885028Y21123500D01*
X7889330Y21121200D01*
X7893104Y21118104D01*
X7896200Y21114330D01*
X7898500Y21110028D01*
X7899917Y21105357D01*
X7901000Y21094359D01*
X7901000Y20805641D01*
X7899917Y20794643D01*
X7898500Y20789972D01*
X7896200Y20785670D01*
X7890969Y20779295D01*
X7877356Y20758920D01*
X7867980Y20736281D01*
X7863200Y20712247D01*
X7863201Y20687743D01*
X7867983Y20663709D01*
X7877361Y20641071D01*
X7890969Y20620705D01*
X7896200Y20614330D01*
X7898500Y20610028D01*
X7899917Y20605357D01*
X7901000Y20594359D01*
X7901000Y20305641D01*
X7899917Y20294643D01*
X7898500Y20289972D01*
X7896200Y20285670D01*
X7890969Y20279295D01*
X7877356Y20258920D01*
X7867980Y20236281D01*
X7863200Y20212247D01*
X7863201Y20187743D01*
X7867983Y20163709D01*
X7877361Y20141071D01*
X7890969Y20120705D01*
X7896200Y20114330D01*
X7898500Y20110028D01*
X7899917Y20105357D01*
X7901000Y20094359D01*
X7901000Y19805641D01*
X7899917Y19794643D01*
X7898500Y19789972D01*
X7896200Y19785670D01*
X7890969Y19779295D01*
X7877356Y19758920D01*
X7867980Y19736281D01*
X7863200Y19712247D01*
X7863201Y19687743D01*
X7867983Y19663709D01*
X7877361Y19641071D01*
X7890969Y19620705D01*
X7896200Y19614330D01*
X7898500Y19610028D01*
X7899917Y19605357D01*
X7901000Y19594359D01*
X7901000Y19305641D01*
X7899917Y19294643D01*
X7898500Y19289972D01*
X7896200Y19285670D01*
X7890969Y19279295D01*
X7877356Y19258920D01*
X7867980Y19236281D01*
X7863200Y19212247D01*
X7863201Y19187743D01*
X7867983Y19163709D01*
X7877361Y19141071D01*
X7890969Y19120705D01*
X7896200Y19114330D01*
X7898500Y19110028D01*
X7899917Y19105357D01*
X7901000Y19094359D01*
X7901000Y18805641D01*
X7899917Y18794643D01*
X7898500Y18789972D01*
X7896200Y18785670D01*
X7890969Y18779295D01*
X7877356Y18758920D01*
X7867980Y18736281D01*
X7863200Y18712247D01*
X7863201Y18687743D01*
X7867983Y18663709D01*
X7877361Y18641071D01*
X7890969Y18620705D01*
X7896200Y18614330D01*
X7898500Y18610028D01*
X7899917Y18605357D01*
X7901000Y18594359D01*
X7901000Y18305641D01*
X7899917Y18294643D01*
X7898500Y18289972D01*
X7896200Y18285670D01*
X7893104Y18281896D01*
X7889330Y18278800D01*
X7885028Y18276500D01*
X7880357Y18275083D01*
X7869359Y18274000D01*
X7051000Y18274000D01*
X7026614Y18271598D01*
X7003165Y18264485D01*
X6981554Y18252934D01*
X6962612Y18237388D01*
X6947066Y18218446D01*
X6935515Y18196835D01*
X6928402Y18173386D01*
X6926000Y18149000D01*
X6926000Y17330641D01*
X6924917Y17319643D01*
X6923500Y17314972D01*
X6921200Y17310670D01*
X6918104Y17306896D01*
X6914330Y17303800D01*
X6910028Y17301500D01*
X6905357Y17300083D01*
X6894359Y17299000D01*
X6605641Y17299000D01*
X6594643Y17300083D01*
X6589972Y17301500D01*
X6585670Y17303800D01*
X6579295Y17309031D01*
X6558920Y17322644D01*
X6536281Y17332020D01*
X6512247Y17336800D01*
X6487743Y17336799D01*
X6463709Y17332017D01*
X6441071Y17322639D01*
X6420705Y17309031D01*
X6414330Y17303800D01*
X6410028Y17301500D01*
X6405357Y17300083D01*
X6394359Y17299000D01*
X6105641Y17299000D01*
X6094643Y17300083D01*
X6089972Y17301500D01*
X6085670Y17303800D01*
X6079295Y17309031D01*
X6058920Y17322644D01*
X6036281Y17332020D01*
X6012247Y17336800D01*
X5987743Y17336799D01*
X5963709Y17332017D01*
X5941071Y17322639D01*
X5920705Y17309031D01*
X5914330Y17303800D01*
X5910028Y17301500D01*
X5905357Y17300083D01*
X5894359Y17299000D01*
X5605641Y17299000D01*
X5594643Y17300083D01*
X5589972Y17301500D01*
X5585670Y17303800D01*
X5579295Y17309031D01*
X5558920Y17322644D01*
X5536281Y17332020D01*
X5512247Y17336800D01*
X5487743Y17336799D01*
X5463709Y17332017D01*
X5441071Y17322639D01*
X5420705Y17309031D01*
X5414330Y17303800D01*
X5410028Y17301500D01*
X5405357Y17300083D01*
X5394359Y17299000D01*
X5105641Y17299000D01*
X5094643Y17300083D01*
X5089972Y17301500D01*
X5085670Y17303800D01*
X5079295Y17309031D01*
X5058920Y17322644D01*
X5036281Y17332020D01*
X5012247Y17336800D01*
X4987743Y17336799D01*
X4963709Y17332017D01*
X4941071Y17322639D01*
X4920705Y17309031D01*
X4914330Y17303800D01*
X4910028Y17301500D01*
X4905357Y17300083D01*
X4894359Y17299000D01*
X4605641Y17299000D01*
X4594643Y17300083D01*
X4589972Y17301500D01*
X4585670Y17303800D01*
X4579295Y17309031D01*
X4558920Y17322644D01*
X4536281Y17332020D01*
X4512247Y17336800D01*
X4487743Y17336799D01*
X4463709Y17332017D01*
X4441071Y17322639D01*
X4420705Y17309031D01*
X4414330Y17303800D01*
X4410028Y17301500D01*
X4405357Y17300083D01*
X4394359Y17299000D01*
X4105641Y17299000D01*
X4094643Y17300083D01*
X4089972Y17301500D01*
X4085670Y17303800D01*
X4081896Y17306896D01*
X4078800Y17310670D01*
X4076500Y17314972D01*
X4075083Y17319643D01*
X4074000Y17330641D01*
X4074000Y18149000D01*
X4071598Y18173386D01*
X4064485Y18196835D01*
X4052934Y18218446D01*
X4037388Y18237388D01*
X4018446Y18252934D01*
X3996835Y18264485D01*
X3973386Y18271598D01*
X3949000Y18274000D01*
X3130641Y18274000D01*
X3119643Y18275083D01*
X3114972Y18276500D01*
X3110670Y18278800D01*
X3106896Y18281896D01*
X3103800Y18285670D01*
X3101500Y18289972D01*
X3100083Y18294643D01*
X3099000Y18305641D01*
X3099000Y18594359D01*
X3100083Y18605357D01*
X3101500Y18610028D01*
X3103800Y18614330D01*
X3109031Y18620705D01*
X3122644Y18641080D01*
X3132020Y18663719D01*
X3136800Y18687753D01*
X3136799Y18712257D01*
X3132017Y18736291D01*
X3122639Y18758929D01*
X3109031Y18779295D01*
X3103800Y18785670D01*
X3101500Y18789972D01*
X3100083Y18794643D01*
X3099000Y18805641D01*
X3099000Y19094359D01*
X3100083Y19105357D01*
X3101500Y19110028D01*
X3103800Y19114330D01*
X3109031Y19120705D01*
X3122644Y19141080D01*
X3132020Y19163719D01*
X3136800Y19187753D01*
X3136799Y19212257D01*
X3132017Y19236291D01*
X3122639Y19258929D01*
X3109031Y19279295D01*
X3103800Y19285670D01*
X3101500Y19289972D01*
X3100083Y19294643D01*
X3099000Y19305641D01*
X3099000Y19594359D01*
X3100083Y19605357D01*
X3101500Y19610028D01*
X3103800Y19614330D01*
X3109031Y19620705D01*
X3122644Y19641080D01*
X3132020Y19663719D01*
X3136800Y19687753D01*
X3136799Y19712257D01*
X3132017Y19736291D01*
X3122639Y19758929D01*
X3109031Y19779295D01*
X3103800Y19785670D01*
X3101500Y19789972D01*
X3100083Y19794643D01*
X3099000Y19805641D01*
X3099000Y20094359D01*
X3100083Y20105357D01*
X3101500Y20110028D01*
X3103800Y20114330D01*
X3109031Y20120705D01*
X3122644Y20141080D01*
X3132020Y20163719D01*
X3136800Y20187753D01*
X3136799Y20212257D01*
X3132017Y20236291D01*
X3122639Y20258929D01*
X3109031Y20279295D01*
X3103800Y20285670D01*
X3101500Y20289972D01*
X3100083Y20294643D01*
X3099000Y20305641D01*
X3099000Y20594359D01*
X3100083Y20605357D01*
X3101500Y20610028D01*
X3103800Y20614330D01*
X3109031Y20620705D01*
X3122644Y20641080D01*
X3132020Y20663719D01*
X3136800Y20687753D01*
X3136799Y20712257D01*
X3132017Y20736291D01*
X3122639Y20758929D01*
X3109031Y20779295D01*
X3103800Y20785670D01*
X3101500Y20789972D01*
X3100083Y20794643D01*
X3099000Y20805641D01*
X3099000Y21094359D01*
X3100083Y21105357D01*
X3101500Y21110028D01*
X3103800Y21114330D01*
X3106896Y21118104D01*
X3110670Y21121200D01*
X3114972Y21123500D01*
X3119643Y21124917D01*
X3130641Y21126000D01*
X3949000Y21126000D01*
X3973386Y21128402D01*
X3996835Y21135515D01*
X4018446Y21147066D01*
X4037388Y21162612D01*
X4052934Y21181554D01*
X4064485Y21203165D01*
X4071598Y21226614D01*
X4074000Y21251000D01*
X4074000Y22069359D01*
X4075083Y22080357D01*
X4076500Y22085028D01*
X4078800Y22089330D01*
X4081896Y22093104D01*
X4085670Y22096200D01*
X4089972Y22098500D01*
X4094643Y22099917D01*
X4105641Y22101000D01*
X4394359Y22101000D01*
X4405357Y22099917D01*
X4405357Y22099917D01*
G37*
G36*
X2379591Y18771915D02*
X2413569Y18761607D01*
X2444887Y18744867D01*
X2472339Y18722339D01*
X2494867Y18694887D01*
X2511607Y18663569D01*
X2521915Y18629591D01*
X2526000Y18588110D01*
X2526000Y17986890D01*
X2521915Y17945409D01*
X2511607Y17911431D01*
X2494867Y17880113D01*
X2472339Y17852661D01*
X2444887Y17830133D01*
X2413569Y17813393D01*
X2379591Y17803085D01*
X2338110Y17799000D01*
X1661890Y17799000D01*
X1620409Y17803085D01*
X1586431Y17813393D01*
X1555113Y17830133D01*
X1527661Y17852661D01*
X1505133Y17880113D01*
X1488393Y17911431D01*
X1478085Y17945409D01*
X1474000Y17986890D01*
X1474000Y18588110D01*
X1478085Y18629591D01*
X1488393Y18663569D01*
X1505133Y18694887D01*
X1527661Y18722339D01*
X1555113Y18744867D01*
X1586431Y18761607D01*
X1620409Y18771915D01*
X1661890Y18776000D01*
X2338110Y18776000D01*
X2379591Y18771915D01*
X2379591Y18771915D01*
G37*
G36*
X10379591Y18771915D02*
X10413569Y18761607D01*
X10444887Y18744867D01*
X10472339Y18722339D01*
X10494867Y18694887D01*
X10511607Y18663569D01*
X10521915Y18629591D01*
X10526000Y18588110D01*
X10526000Y17986890D01*
X10521915Y17945409D01*
X10511607Y17911431D01*
X10494867Y17880113D01*
X10472339Y17852661D01*
X10444887Y17830133D01*
X10413569Y17813393D01*
X10379591Y17803085D01*
X10338110Y17799000D01*
X9661890Y17799000D01*
X9620409Y17803085D01*
X9586431Y17813393D01*
X9555113Y17830133D01*
X9527661Y17852661D01*
X9505133Y17880113D01*
X9488393Y17911431D01*
X9478085Y17945409D01*
X9474000Y17986890D01*
X9474000Y18588110D01*
X9478085Y18629591D01*
X9488393Y18663569D01*
X9505133Y18694887D01*
X9527661Y18722339D01*
X9555113Y18744867D01*
X9586431Y18761607D01*
X9620409Y18771915D01*
X9661890Y18776000D01*
X10338110Y18776000D01*
X10379591Y18771915D01*
X10379591Y18771915D01*
G37*
G36*
X-7620409Y18771915D02*
X-7586431Y18761607D01*
X-7555113Y18744867D01*
X-7527661Y18722339D01*
X-7505133Y18694887D01*
X-7488393Y18663569D01*
X-7478085Y18629591D01*
X-7474000Y18588110D01*
X-7474000Y17986890D01*
X-7478085Y17945409D01*
X-7488393Y17911431D01*
X-7505133Y17880113D01*
X-7527661Y17852661D01*
X-7555113Y17830133D01*
X-7586431Y17813393D01*
X-7620409Y17803085D01*
X-7661890Y17799000D01*
X-8338110Y17799000D01*
X-8379591Y17803085D01*
X-8413569Y17813393D01*
X-8444887Y17830133D01*
X-8472339Y17852661D01*
X-8494867Y17880113D01*
X-8511607Y17911431D01*
X-8521915Y17945409D01*
X-8526000Y17986890D01*
X-8526000Y18588110D01*
X-8521915Y18629591D01*
X-8511607Y18663569D01*
X-8494867Y18694887D01*
X-8472339Y18722339D01*
X-8444887Y18744867D01*
X-8413569Y18761607D01*
X-8379591Y18771915D01*
X-8338110Y18776000D01*
X-7661890Y18776000D01*
X-7620409Y18771915D01*
X-7620409Y18771915D01*
G37*
G36*
X-7620409Y20196915D02*
X-7586431Y20186607D01*
X-7555113Y20169867D01*
X-7527661Y20147339D01*
X-7505133Y20119887D01*
X-7488393Y20088569D01*
X-7478085Y20054591D01*
X-7474000Y20013110D01*
X-7474000Y19411890D01*
X-7478085Y19370409D01*
X-7488393Y19336431D01*
X-7505133Y19305113D01*
X-7527661Y19277661D01*
X-7555113Y19255133D01*
X-7586431Y19238393D01*
X-7620409Y19228085D01*
X-7661890Y19224000D01*
X-8338110Y19224000D01*
X-8379591Y19228085D01*
X-8413569Y19238393D01*
X-8444887Y19255133D01*
X-8472339Y19277661D01*
X-8494867Y19305113D01*
X-8511607Y19336431D01*
X-8521915Y19370409D01*
X-8526000Y19411890D01*
X-8526000Y20013110D01*
X-8521915Y20054591D01*
X-8511607Y20088569D01*
X-8494867Y20119887D01*
X-8472339Y20147339D01*
X-8444887Y20169867D01*
X-8413569Y20186607D01*
X-8379591Y20196915D01*
X-8338110Y20201000D01*
X-7661890Y20201000D01*
X-7620409Y20196915D01*
X-7620409Y20196915D01*
G37*
G36*
X10379591Y20196915D02*
X10413569Y20186607D01*
X10444887Y20169867D01*
X10472339Y20147339D01*
X10494867Y20119887D01*
X10511607Y20088569D01*
X10521915Y20054591D01*
X10526000Y20013110D01*
X10526000Y19411890D01*
X10521915Y19370409D01*
X10511607Y19336431D01*
X10494867Y19305113D01*
X10472339Y19277661D01*
X10444887Y19255133D01*
X10413569Y19238393D01*
X10379591Y19228085D01*
X10338110Y19224000D01*
X9661890Y19224000D01*
X9620409Y19228085D01*
X9586431Y19238393D01*
X9555113Y19255133D01*
X9527661Y19277661D01*
X9505133Y19305113D01*
X9488393Y19336431D01*
X9478085Y19370409D01*
X9474000Y19411890D01*
X9474000Y20013110D01*
X9478085Y20054591D01*
X9488393Y20088569D01*
X9505133Y20119887D01*
X9527661Y20147339D01*
X9555113Y20169867D01*
X9586431Y20186607D01*
X9620409Y20196915D01*
X9661890Y20201000D01*
X10338110Y20201000D01*
X10379591Y20196915D01*
X10379591Y20196915D01*
G37*
G36*
X2379591Y20196915D02*
X2413569Y20186607D01*
X2444887Y20169867D01*
X2472339Y20147339D01*
X2494867Y20119887D01*
X2511607Y20088569D01*
X2521915Y20054591D01*
X2526000Y20013110D01*
X2526000Y19411890D01*
X2521915Y19370409D01*
X2511607Y19336431D01*
X2494867Y19305113D01*
X2472339Y19277661D01*
X2444887Y19255133D01*
X2413569Y19238393D01*
X2379591Y19228085D01*
X2338110Y19224000D01*
X1661890Y19224000D01*
X1620409Y19228085D01*
X1586431Y19238393D01*
X1555113Y19255133D01*
X1527661Y19277661D01*
X1505133Y19305113D01*
X1488393Y19336431D01*
X1478085Y19370409D01*
X1474000Y19411890D01*
X1474000Y20013110D01*
X1478085Y20054591D01*
X1488393Y20088569D01*
X1505133Y20119887D01*
X1527661Y20147339D01*
X1555113Y20169867D01*
X1586431Y20186607D01*
X1620409Y20196915D01*
X1661890Y20201000D01*
X2338110Y20201000D01*
X2379591Y20196915D01*
X2379591Y20196915D01*
G37*
G36*
X101000Y19599000D02*
X-1501000Y19599000D01*
X-1501000Y21701000D01*
X101000Y21701000D01*
X101000Y19599000D01*
X101000Y19599000D01*
G37*
G36*
X-4499000Y19599000D02*
X-6101000Y19599000D01*
X-6101000Y21701000D01*
X-4499000Y21701000D01*
X-4499000Y19599000D01*
X-4499000Y19599000D01*
G37*
G36*
X-2199000Y19599000D02*
X-3801000Y19599000D01*
X-3801000Y21701000D01*
X-2199000Y21701000D01*
X-2199000Y19599000D01*
X-2199000Y19599000D01*
G37*
G36*
X-7620409Y21771915D02*
X-7586431Y21761607D01*
X-7555113Y21744867D01*
X-7527661Y21722339D01*
X-7505133Y21694887D01*
X-7488393Y21663569D01*
X-7478085Y21629591D01*
X-7474000Y21588110D01*
X-7474000Y20986890D01*
X-7478085Y20945409D01*
X-7488393Y20911431D01*
X-7505133Y20880113D01*
X-7527661Y20852661D01*
X-7555113Y20830133D01*
X-7586431Y20813393D01*
X-7620409Y20803085D01*
X-7661890Y20799000D01*
X-8338110Y20799000D01*
X-8379591Y20803085D01*
X-8413569Y20813393D01*
X-8444887Y20830133D01*
X-8472339Y20852661D01*
X-8494867Y20880113D01*
X-8511607Y20911431D01*
X-8521915Y20945409D01*
X-8526000Y20986890D01*
X-8526000Y21588110D01*
X-8521915Y21629591D01*
X-8511607Y21663569D01*
X-8494867Y21694887D01*
X-8472339Y21722339D01*
X-8444887Y21744867D01*
X-8413569Y21761607D01*
X-8379591Y21771915D01*
X-8338110Y21776000D01*
X-7661890Y21776000D01*
X-7620409Y21771915D01*
X-7620409Y21771915D01*
G37*
G36*
X2379591Y21771915D02*
X2413569Y21761607D01*
X2444887Y21744867D01*
X2472339Y21722339D01*
X2494867Y21694887D01*
X2511607Y21663569D01*
X2521915Y21629591D01*
X2526000Y21588110D01*
X2526000Y20986890D01*
X2521915Y20945409D01*
X2511607Y20911431D01*
X2494867Y20880113D01*
X2472339Y20852661D01*
X2444887Y20830133D01*
X2413569Y20813393D01*
X2379591Y20803085D01*
X2338110Y20799000D01*
X1661890Y20799000D01*
X1620409Y20803085D01*
X1586431Y20813393D01*
X1555113Y20830133D01*
X1527661Y20852661D01*
X1505133Y20880113D01*
X1488393Y20911431D01*
X1478085Y20945409D01*
X1474000Y20986890D01*
X1474000Y21588110D01*
X1478085Y21629591D01*
X1488393Y21663569D01*
X1505133Y21694887D01*
X1527661Y21722339D01*
X1555113Y21744867D01*
X1586431Y21761607D01*
X1620409Y21771915D01*
X1661890Y21776000D01*
X2338110Y21776000D01*
X2379591Y21771915D01*
X2379591Y21771915D01*
G37*
G36*
X10379591Y21771915D02*
X10413569Y21761607D01*
X10444887Y21744867D01*
X10472339Y21722339D01*
X10494867Y21694887D01*
X10511607Y21663569D01*
X10521915Y21629591D01*
X10526000Y21588110D01*
X10526000Y20986890D01*
X10521915Y20945409D01*
X10511607Y20911431D01*
X10494867Y20880113D01*
X10472339Y20852661D01*
X10444887Y20830133D01*
X10413569Y20813393D01*
X10379591Y20803085D01*
X10338110Y20799000D01*
X9661890Y20799000D01*
X9620409Y20803085D01*
X9586431Y20813393D01*
X9555113Y20830133D01*
X9527661Y20852661D01*
X9505133Y20880113D01*
X9488393Y20911431D01*
X9478085Y20945409D01*
X9474000Y20986890D01*
X9474000Y21588110D01*
X9478085Y21629591D01*
X9488393Y21663569D01*
X9505133Y21694887D01*
X9527661Y21722339D01*
X9555113Y21744867D01*
X9586431Y21761607D01*
X9620409Y21771915D01*
X9661890Y21776000D01*
X10338110Y21776000D01*
X10379591Y21771915D01*
X10379591Y21771915D01*
G37*
G36*
X-2000000Y25000000D02*
X-8000000Y25000000D01*
X-8000000Y32000000D01*
X-2000000Y32000000D01*
X-2000000Y25000000D01*
X-2000000Y25000000D01*
G37*
G36*
X8000000Y25000000D02*
X2000000Y25000000D01*
X2000000Y32000000D01*
X8000000Y32000000D01*
X8000000Y25000000D01*
X8000000Y25000000D01*
G37*
G36*
X10147738Y35633347D02*
X10189598Y35625021D01*
X10224245Y35610670D01*
X10307890Y35576023D01*
X10414354Y35504886D01*
X10504886Y35414354D01*
X10576023Y35307890D01*
X10625021Y35189597D01*
X10650000Y35064021D01*
X10650000Y34935979D01*
X10625021Y34810403D01*
X10576023Y34692110D01*
X10504886Y34585646D01*
X10414354Y34495114D01*
X10307890Y34423977D01*
X10224245Y34389330D01*
X10189598Y34374979D01*
X10147738Y34366653D01*
X10064021Y34350000D01*
X9935979Y34350000D01*
X9852262Y34366653D01*
X9810402Y34374979D01*
X9775755Y34389330D01*
X9692110Y34423977D01*
X9585646Y34495114D01*
X9495114Y34585646D01*
X9423977Y34692110D01*
X9374979Y34810403D01*
X9350000Y34935979D01*
X9350000Y35064021D01*
X9374979Y35189597D01*
X9423977Y35307890D01*
X9495114Y35414354D01*
X9585646Y35504886D01*
X9692110Y35576023D01*
X9775755Y35610670D01*
X9810402Y35625021D01*
X9852262Y35633347D01*
X9935979Y35650000D01*
X10064021Y35650000D01*
X10147738Y35633347D01*
X10147738Y35633347D01*
G37*
G36*
X-9852262Y35633347D02*
X-9810402Y35625021D01*
X-9775755Y35610670D01*
X-9692110Y35576023D01*
X-9585646Y35504886D01*
X-9495114Y35414354D01*
X-9423977Y35307890D01*
X-9374979Y35189597D01*
X-9350000Y35064021D01*
X-9350000Y34935979D01*
X-9374979Y34810403D01*
X-9423977Y34692110D01*
X-9495114Y34585646D01*
X-9585646Y34495114D01*
X-9692110Y34423977D01*
X-9775755Y34389330D01*
X-9810402Y34374979D01*
X-9852262Y34366653D01*
X-9935979Y34350000D01*
X-10064021Y34350000D01*
X-10147738Y34366653D01*
X-10189598Y34374979D01*
X-10224245Y34389330D01*
X-10307890Y34423977D01*
X-10414354Y34495114D01*
X-10504886Y34585646D01*
X-10576023Y34692110D01*
X-10625021Y34810403D01*
X-10650000Y34935979D01*
X-10650000Y35064021D01*
X-10625021Y35189597D01*
X-10576023Y35307890D01*
X-10504886Y35414354D01*
X-10414354Y35504886D01*
X-10307890Y35576023D01*
X-10224245Y35610670D01*
X-10189598Y35625021D01*
X-10147738Y35633347D01*
X-10064021Y35650000D01*
X-9935979Y35650000D01*
X-9852262Y35633347D01*
X-9852262Y35633347D01*
G37*
M02*
