G04 #@! TF.GenerationSoftware,KiCad,Pcbnew,5.0.2+dfsg1-1*
G04 #@! TF.CreationDate,2020-10-18T19:03:35+02:00*
G04 #@! TF.ProjectId,edgedriver,65646765-6472-4697-9665-722e6b696361,rev?*
G04 #@! TF.SameCoordinates,Original*
G04 #@! TF.FileFunction,Profile,NP*
%FSLAX46Y46*%
G04 Gerber Fmt 4.6, Leading zero omitted, Abs format (unit mm)*
G04 Created by KiCad (PCBNEW 5.0.2+dfsg1-1) date Sun 18 Oct 2020 07:03:35 PM CEST*
%MOMM*%
%LPD*%
G01*
G04 APERTURE LIST*
%ADD10C,0.150000*%
%ADD11C,0.282843*%
G04 APERTURE END LIST*
D10*
X-12700000Y-381000D02*
X-11811000Y-1270000D01*
X-11830000Y33000000D02*
X-8000000Y33000000D01*
X-12700000Y32131000D02*
X-11830000Y33000000D01*
X11830000Y33000000D02*
X12700000Y32131000D01*
X11811000Y-1270000D02*
X12700000Y-381000D01*
X8000000Y33000000D02*
X11830000Y33000000D01*
X8000000Y31100000D02*
X8000000Y33000000D01*
X-8000000Y31100000D02*
X-8000000Y33000000D01*
X-12700000Y-381000D02*
X-12700000Y32131000D01*
X12700000Y-381000D02*
X12700000Y32131000D01*
X-11811000Y-1270000D02*
X11811000Y-1270000D01*
D11*
X-5649784Y31099910D02*
X-8000028Y31099910D01*
X-5649784Y29100034D02*
X-5649784Y31099910D01*
X-2249992Y29100034D02*
X-5649784Y29100034D01*
X-2249992Y26099698D02*
X-2249992Y29100034D01*
X2249992Y26099698D02*
X-2249992Y26099698D01*
X2249992Y29100034D02*
X2249992Y26099698D01*
X5649267Y29100034D02*
X2249992Y29100034D01*
X5649267Y31099910D02*
X5649267Y29100034D01*
X7999512Y31099910D02*
X5649267Y31099910D01*
M02*
