G04 #@! TF.GenerationSoftware,KiCad,Pcbnew,5.0.2+dfsg1-1*
G04 #@! TF.CreationDate,2020-10-18T19:03:35+02:00*
G04 #@! TF.ProjectId,edgedriver,65646765-6472-4697-9665-722e6b696361,rev?*
G04 #@! TF.SameCoordinates,Original*
G04 #@! TF.FileFunction,Copper,L2,Inr*
G04 #@! TF.FilePolarity,Positive*
%FSLAX46Y46*%
G04 Gerber Fmt 4.6, Leading zero omitted, Abs format (unit mm)*
G04 Created by KiCad (PCBNEW 5.0.2+dfsg1-1) date Sun 18 Oct 2020 07:03:35 PM CEST*
%MOMM*%
%LPD*%
G01*
G04 APERTURE LIST*
G04 #@! TA.AperFunction,ViaPad*
%ADD10O,1.600000X1.000000*%
G04 #@! TD*
G04 #@! TA.AperFunction,ViaPad*
%ADD11O,2.100000X1.000000*%
G04 #@! TD*
G04 #@! TA.AperFunction,ViaPad*
%ADD12C,1.700000*%
G04 #@! TD*
G04 #@! TA.AperFunction,ViaPad*
%ADD13O,1.700000X1.700000*%
G04 #@! TD*
G04 #@! TA.AperFunction,ViaPad*
%ADD14C,0.600000*%
G04 #@! TD*
G04 #@! TA.AperFunction,Conductor*
%ADD15C,0.250000*%
G04 #@! TD*
G04 #@! TA.AperFunction,Conductor*
%ADD16C,0.254000*%
G04 #@! TD*
G04 APERTURE END LIST*
D10*
G04 #@! TO.N,GND*
G04 #@! TO.C,J2*
X9950000Y15920000D03*
X9950000Y7280000D03*
D11*
X5770000Y7280000D03*
X5770000Y15920000D03*
G04 #@! TD*
D12*
G04 #@! TO.N,SWDIO*
G04 #@! TO.C,J4*
X-11430000Y2540000D03*
D13*
G04 #@! TO.N,SWDCLK*
X-11430000Y0D03*
G04 #@! TD*
D12*
G04 #@! TO.N,Net-(J3-Pad1)*
G04 #@! TO.C,J3*
X-3810000Y2540000D03*
D13*
G04 #@! TO.N,Net-(J3-Pad2)*
X-1270000Y2540000D03*
G04 #@! TO.N,Net-(J3-Pad3)*
X1270000Y2540000D03*
G04 #@! TO.N,Net-(J3-Pad4)*
X3810000Y2540000D03*
G04 #@! TD*
D12*
G04 #@! TO.N,GND*
G04 #@! TO.C,J1*
X-8890000Y0D03*
D13*
X-6350000Y0D03*
G04 #@! TO.N,Net-(J1-Pad3)*
X-3810000Y0D03*
G04 #@! TO.N,Net-(J1-Pad4)*
X-1270000Y0D03*
G04 #@! TO.N,Net-(J1-Pad5)*
X1270000Y0D03*
G04 #@! TO.N,Net-(J1-Pad6)*
X3810000Y0D03*
G04 #@! TO.N,+5V*
X6350000Y0D03*
X8890000Y0D03*
G04 #@! TD*
D14*
G04 #@! TO.N,Net-(J1-Pad5)*
X-4800000Y3800000D03*
G04 #@! TO.N,GND*
X-6100000Y9700000D03*
X-4000000Y26000000D03*
X-5500000Y26000000D03*
X-7000000Y26000000D03*
X-7000000Y27500000D03*
X-5500000Y27500000D03*
X-4000000Y27500000D03*
X-7000000Y29000000D03*
X-8500000Y27500000D03*
X-8500000Y29000000D03*
X-10300000Y16700000D03*
X-10400000Y8600000D03*
X-2600000Y19700000D03*
X-4200000Y19000000D03*
X-8500000Y26000000D03*
X-11800000Y24200000D03*
X3250000Y8350000D03*
X9000000Y20500000D03*
X5300000Y17600000D03*
G04 #@! TO.N,Net-(C1-Pad1)*
X8128000Y20320000D03*
X6223000Y18415000D03*
X8209824Y19060661D03*
G04 #@! TO.N,+5V*
X8500000Y27500000D03*
X7000000Y27500000D03*
X8500000Y26000000D03*
X7000000Y29000000D03*
X7000000Y26000000D03*
X8500000Y29000000D03*
X-9475000Y17300000D03*
X4000000Y26000000D03*
X5500000Y27500000D03*
X5500000Y26000000D03*
X4000000Y27500000D03*
X11811000Y18415000D03*
G04 #@! TO.N,3V3*
X-10400000Y20800000D03*
G04 #@! TO.N,ESPEN*
X-2800000Y18300000D03*
G04 #@! TO.N,Net-(J3-Pad1)*
X-4050000Y7300000D03*
G04 #@! TO.N,Net-(J3-Pad4)*
X-2400000Y3800000D03*
G04 #@! TO.N,ESPRST*
X2000034Y9000000D03*
G04 #@! TO.N,ESPRX*
X0Y9800000D03*
G04 #@! TO.N,ESPTX*
X2204238Y14298810D03*
G04 #@! TO.N,STMTX*
X-7260000Y17800000D03*
X-5360000Y19280000D03*
X-7425273Y10594573D03*
G04 #@! TO.N,STMRX*
X-7805131Y9890494D03*
G04 #@! TO.N,SWDIO*
X-8800000Y12900000D03*
G04 #@! TO.N,SWDCLK*
X-9425000Y10374958D03*
G04 #@! TO.N,Net-(J2-PadB5)*
X6100000Y13400000D03*
X8400000Y12100000D03*
G04 #@! TD*
D15*
G04 #@! TO.N,Net-(J3-Pad1)*
X-3810000Y2540000D02*
X-3160000Y2540000D01*
G04 #@! TO.N,Net-(J3-Pad3)*
X1270000Y2540000D02*
X760000Y2540000D01*
G04 #@! TD*
D16*
G04 #@! TO.N,GND*
G36*
X-8456000Y31357831D02*
X-8492137Y31303748D01*
X-8532683Y31099910D01*
X-8492137Y30896072D01*
X-8376672Y30723266D01*
X-8203866Y30607801D01*
X-8051478Y30577489D01*
X-6172204Y30577489D01*
X-6172205Y29151484D01*
X-6182439Y29100034D01*
X-6141893Y28896196D01*
X-6026428Y28723390D01*
X-5853622Y28607925D01*
X-5649784Y28567379D01*
X-5598335Y28577613D01*
X-2772412Y28577613D01*
X-2772413Y26151148D01*
X-2782647Y26099698D01*
X-2742101Y25895860D01*
X-2721174Y25864541D01*
X-2626636Y25723054D01*
X-2453830Y25607589D01*
X-2249992Y25567043D01*
X-2198543Y25577277D01*
X2198543Y25577277D01*
X2249992Y25567043D01*
X2453830Y25607589D01*
X2626636Y25723054D01*
X2742101Y25895860D01*
X2772413Y26048248D01*
X2772413Y26048249D01*
X2782647Y26099698D01*
X2775534Y26135459D01*
X3319000Y26135459D01*
X3319000Y25864541D01*
X3422676Y25614244D01*
X3614244Y25422676D01*
X3864541Y25319000D01*
X4135459Y25319000D01*
X4385756Y25422676D01*
X4577324Y25614244D01*
X4681000Y25864541D01*
X4681000Y26135459D01*
X4819000Y26135459D01*
X4819000Y25864541D01*
X4922676Y25614244D01*
X5114244Y25422676D01*
X5364541Y25319000D01*
X5635459Y25319000D01*
X5885756Y25422676D01*
X6077324Y25614244D01*
X6181000Y25864541D01*
X6181000Y26135459D01*
X6319000Y26135459D01*
X6319000Y25864541D01*
X6422676Y25614244D01*
X6614244Y25422676D01*
X6864541Y25319000D01*
X7135459Y25319000D01*
X7385756Y25422676D01*
X7577324Y25614244D01*
X7681000Y25864541D01*
X7681000Y26135459D01*
X7819000Y26135459D01*
X7819000Y25864541D01*
X7922676Y25614244D01*
X8114244Y25422676D01*
X8364541Y25319000D01*
X8635459Y25319000D01*
X8885756Y25422676D01*
X9077324Y25614244D01*
X9181000Y25864541D01*
X9181000Y26135459D01*
X9077324Y26385756D01*
X8885756Y26577324D01*
X8635459Y26681000D01*
X8364541Y26681000D01*
X8114244Y26577324D01*
X7922676Y26385756D01*
X7819000Y26135459D01*
X7681000Y26135459D01*
X7577324Y26385756D01*
X7385756Y26577324D01*
X7135459Y26681000D01*
X6864541Y26681000D01*
X6614244Y26577324D01*
X6422676Y26385756D01*
X6319000Y26135459D01*
X6181000Y26135459D01*
X6077324Y26385756D01*
X5885756Y26577324D01*
X5635459Y26681000D01*
X5364541Y26681000D01*
X5114244Y26577324D01*
X4922676Y26385756D01*
X4819000Y26135459D01*
X4681000Y26135459D01*
X4577324Y26385756D01*
X4385756Y26577324D01*
X4135459Y26681000D01*
X3864541Y26681000D01*
X3614244Y26577324D01*
X3422676Y26385756D01*
X3319000Y26135459D01*
X2775534Y26135459D01*
X2772413Y26151148D01*
X2772413Y27635459D01*
X3319000Y27635459D01*
X3319000Y27364541D01*
X3422676Y27114244D01*
X3614244Y26922676D01*
X3864541Y26819000D01*
X4135459Y26819000D01*
X4385756Y26922676D01*
X4577324Y27114244D01*
X4681000Y27364541D01*
X4681000Y27635459D01*
X4819000Y27635459D01*
X4819000Y27364541D01*
X4922676Y27114244D01*
X5114244Y26922676D01*
X5364541Y26819000D01*
X5635459Y26819000D01*
X5885756Y26922676D01*
X6077324Y27114244D01*
X6181000Y27364541D01*
X6181000Y27635459D01*
X6319000Y27635459D01*
X6319000Y27364541D01*
X6422676Y27114244D01*
X6614244Y26922676D01*
X6864541Y26819000D01*
X7135459Y26819000D01*
X7385756Y26922676D01*
X7577324Y27114244D01*
X7681000Y27364541D01*
X7681000Y27635459D01*
X7819000Y27635459D01*
X7819000Y27364541D01*
X7922676Y27114244D01*
X8114244Y26922676D01*
X8364541Y26819000D01*
X8635459Y26819000D01*
X8885756Y26922676D01*
X9077324Y27114244D01*
X9181000Y27364541D01*
X9181000Y27635459D01*
X9077324Y27885756D01*
X8885756Y28077324D01*
X8635459Y28181000D01*
X8364541Y28181000D01*
X8114244Y28077324D01*
X7922676Y27885756D01*
X7819000Y27635459D01*
X7681000Y27635459D01*
X7577324Y27885756D01*
X7385756Y28077324D01*
X7135459Y28181000D01*
X6864541Y28181000D01*
X6614244Y28077324D01*
X6422676Y27885756D01*
X6319000Y27635459D01*
X6181000Y27635459D01*
X6077324Y27885756D01*
X5885756Y28077324D01*
X5635459Y28181000D01*
X5364541Y28181000D01*
X5114244Y28077324D01*
X4922676Y27885756D01*
X4819000Y27635459D01*
X4681000Y27635459D01*
X4577324Y27885756D01*
X4385756Y28077324D01*
X4135459Y28181000D01*
X3864541Y28181000D01*
X3614244Y28077324D01*
X3422676Y27885756D01*
X3319000Y27635459D01*
X2772413Y27635459D01*
X2772413Y28577613D01*
X5597818Y28577613D01*
X5649267Y28567379D01*
X5853105Y28607925D01*
X6025911Y28723390D01*
X6141376Y28896196D01*
X6171688Y29048584D01*
X6171688Y29048585D01*
X6181922Y29100034D01*
X6174876Y29135459D01*
X6319000Y29135459D01*
X6319000Y28864541D01*
X6422676Y28614244D01*
X6614244Y28422676D01*
X6864541Y28319000D01*
X7135459Y28319000D01*
X7385756Y28422676D01*
X7577324Y28614244D01*
X7681000Y28864541D01*
X7681000Y29135459D01*
X7819000Y29135459D01*
X7819000Y28864541D01*
X7922676Y28614244D01*
X8114244Y28422676D01*
X8364541Y28319000D01*
X8635459Y28319000D01*
X8885756Y28422676D01*
X9077324Y28614244D01*
X9181000Y28864541D01*
X9181000Y29135459D01*
X9077324Y29385756D01*
X8885756Y29577324D01*
X8635459Y29681000D01*
X8364541Y29681000D01*
X8114244Y29577324D01*
X7922676Y29385756D01*
X7819000Y29135459D01*
X7681000Y29135459D01*
X7577324Y29385756D01*
X7385756Y29577324D01*
X7135459Y29681000D01*
X6864541Y29681000D01*
X6614244Y29577324D01*
X6422676Y29385756D01*
X6319000Y29135459D01*
X6174876Y29135459D01*
X6171688Y29151484D01*
X6171688Y30577489D01*
X8050962Y30577489D01*
X8203350Y30607801D01*
X8376156Y30723266D01*
X8491621Y30896072D01*
X8532167Y31099910D01*
X8491621Y31303748D01*
X8456000Y31357059D01*
X8456000Y32544000D01*
X11641274Y32544000D01*
X12244001Y31941964D01*
X12244001Y18945079D01*
X12196756Y18992324D01*
X11946459Y19096000D01*
X11675541Y19096000D01*
X11425244Y18992324D01*
X11233676Y18800756D01*
X11130000Y18550459D01*
X11130000Y18279541D01*
X11233676Y18029244D01*
X11425244Y17837676D01*
X11675541Y17734000D01*
X11946459Y17734000D01*
X12196756Y17837676D01*
X12244001Y17884921D01*
X12244000Y604456D01*
X11998154Y850302D01*
X11629509Y1003000D01*
X11230491Y1003000D01*
X10861846Y850302D01*
X10579698Y568154D01*
X10427000Y199509D01*
X10427000Y-199509D01*
X10579698Y-568154D01*
X10825544Y-814000D01*
X9826613Y-814000D01*
X10049576Y-480312D01*
X10145116Y0D01*
X10049576Y480312D01*
X9777501Y887501D01*
X9370312Y1159576D01*
X9011239Y1231000D01*
X8768761Y1231000D01*
X8409688Y1159576D01*
X8002499Y887501D01*
X7730424Y480312D01*
X7634884Y0D01*
X7730424Y-480312D01*
X7953387Y-814000D01*
X7286613Y-814000D01*
X7509576Y-480312D01*
X7605116Y0D01*
X7509576Y480312D01*
X7237501Y887501D01*
X6830312Y1159576D01*
X6471239Y1231000D01*
X6228761Y1231000D01*
X5869688Y1159576D01*
X5462499Y887501D01*
X5190424Y480312D01*
X5094884Y0D01*
X5190424Y-480312D01*
X5413387Y-814000D01*
X4746613Y-814000D01*
X4969576Y-480312D01*
X5065116Y0D01*
X4969576Y480312D01*
X4697501Y887501D01*
X4290312Y1159576D01*
X3931239Y1231000D01*
X3688761Y1231000D01*
X3329688Y1159576D01*
X2922499Y887501D01*
X2650424Y480312D01*
X2554884Y0D01*
X2650424Y-480312D01*
X2873387Y-814000D01*
X2206613Y-814000D01*
X2429576Y-480312D01*
X2525116Y0D01*
X2429576Y480312D01*
X2157501Y887501D01*
X1750312Y1159576D01*
X1391239Y1231000D01*
X1148761Y1231000D01*
X789688Y1159576D01*
X382499Y887501D01*
X110424Y480312D01*
X14884Y0D01*
X110424Y-480312D01*
X333387Y-814000D01*
X-333387Y-814000D01*
X-110424Y-480312D01*
X-14884Y0D01*
X-110424Y480312D01*
X-382499Y887501D01*
X-789688Y1159576D01*
X-1148761Y1231000D01*
X-1391239Y1231000D01*
X-1750312Y1159576D01*
X-2157501Y887501D01*
X-2429576Y480312D01*
X-2525116Y0D01*
X-2429576Y-480312D01*
X-2206613Y-814000D01*
X-2873387Y-814000D01*
X-2650424Y-480312D01*
X-2554884Y0D01*
X-2650424Y480312D01*
X-2922499Y887501D01*
X-3329688Y1159576D01*
X-3688761Y1231000D01*
X-3931239Y1231000D01*
X-4290312Y1159576D01*
X-4697501Y887501D01*
X-4969576Y480312D01*
X-5065116Y0D01*
X-4969576Y-480312D01*
X-4746613Y-814000D01*
X-10493387Y-814000D01*
X-10270424Y-480312D01*
X-10174884Y0D01*
X-10270424Y480312D01*
X-10542499Y887501D01*
X-10949688Y1159576D01*
X-11308761Y1231000D01*
X-11551239Y1231000D01*
X-11910312Y1159576D01*
X-12244000Y936613D01*
X-12244000Y1613102D01*
X-12127306Y1496408D01*
X-11674861Y1309000D01*
X-11185139Y1309000D01*
X-10732694Y1496408D01*
X-10386408Y1842694D01*
X-10199000Y2295139D01*
X-10199000Y2784861D01*
X-10386408Y3237306D01*
X-10732694Y3583592D01*
X-11185139Y3771000D01*
X-11674861Y3771000D01*
X-12127306Y3583592D01*
X-12244000Y3466898D01*
X-12244000Y3935459D01*
X-5481000Y3935459D01*
X-5481000Y3664541D01*
X-5377324Y3414244D01*
X-5185756Y3222676D01*
X-4935459Y3119000D01*
X-4902596Y3119000D01*
X-5041000Y2784861D01*
X-5041000Y2295139D01*
X-4853592Y1842694D01*
X-4507306Y1496408D01*
X-4054861Y1309000D01*
X-3565139Y1309000D01*
X-3112694Y1496408D01*
X-2766408Y1842694D01*
X-2579000Y2295139D01*
X-2579000Y2784861D01*
X-2755086Y3209972D01*
X-2535459Y3119000D01*
X-2363635Y3119000D01*
X-2429576Y3020312D01*
X-2525116Y2540000D01*
X-2429576Y2059688D01*
X-2157501Y1652499D01*
X-1750312Y1380424D01*
X-1391239Y1309000D01*
X-1148761Y1309000D01*
X-789688Y1380424D01*
X-382499Y1652499D01*
X-110424Y2059688D01*
X-14884Y2540000D01*
X14884Y2540000D01*
X110424Y2059688D01*
X382499Y1652499D01*
X789688Y1380424D01*
X1148761Y1309000D01*
X1391239Y1309000D01*
X1750312Y1380424D01*
X2157501Y1652499D01*
X2429576Y2059688D01*
X2525116Y2540000D01*
X2554884Y2540000D01*
X2650424Y2059688D01*
X2922499Y1652499D01*
X3329688Y1380424D01*
X3688761Y1309000D01*
X3931239Y1309000D01*
X4290312Y1380424D01*
X4697501Y1652499D01*
X4969576Y2059688D01*
X5065116Y2540000D01*
X4969576Y3020312D01*
X4697501Y3427501D01*
X4290312Y3699576D01*
X3931239Y3771000D01*
X3688761Y3771000D01*
X3329688Y3699576D01*
X2922499Y3427501D01*
X2650424Y3020312D01*
X2554884Y2540000D01*
X2525116Y2540000D01*
X2429576Y3020312D01*
X2157501Y3427501D01*
X1750312Y3699576D01*
X1391239Y3771000D01*
X1148761Y3771000D01*
X789688Y3699576D01*
X382499Y3427501D01*
X110424Y3020312D01*
X14884Y2540000D01*
X-14884Y2540000D01*
X-110424Y3020312D01*
X-382499Y3427501D01*
X-789688Y3699576D01*
X-1148761Y3771000D01*
X-1391239Y3771000D01*
X-1719000Y3705804D01*
X-1719000Y3935459D01*
X-1822676Y4185756D01*
X-2014244Y4377324D01*
X-2264541Y4481000D01*
X-2535459Y4481000D01*
X-2785756Y4377324D01*
X-2977324Y4185756D01*
X-3081000Y3935459D01*
X-3081000Y3664541D01*
X-3001350Y3472248D01*
X-3112694Y3583592D01*
X-3565139Y3771000D01*
X-4054861Y3771000D01*
X-4119000Y3744433D01*
X-4119000Y3935459D01*
X-4222676Y4185756D01*
X-4414244Y4377324D01*
X-4664541Y4481000D01*
X-4935459Y4481000D01*
X-5185756Y4377324D01*
X-5377324Y4185756D01*
X-5481000Y3935459D01*
X-12244000Y3935459D01*
X-12244000Y7435459D01*
X-4731000Y7435459D01*
X-4731000Y7164541D01*
X-4627324Y6914244D01*
X-4435756Y6722676D01*
X-4185459Y6619000D01*
X-3914541Y6619000D01*
X-3664244Y6722676D01*
X-3472676Y6914244D01*
X-3446216Y6978126D01*
X4125881Y6978126D01*
X4327632Y6567237D01*
X4668322Y6279998D01*
X5093000Y6145000D01*
X5643000Y6145000D01*
X5643000Y7153000D01*
X5897000Y7153000D01*
X5897000Y6145000D01*
X6447000Y6145000D01*
X6871678Y6279998D01*
X7212368Y6567237D01*
X7414119Y6978126D01*
X8555881Y6978126D01*
X8757632Y6567237D01*
X9098322Y6279998D01*
X9523000Y6145000D01*
X9823000Y6145000D01*
X9823000Y7153000D01*
X10077000Y7153000D01*
X10077000Y6145000D01*
X10377000Y6145000D01*
X10801678Y6279998D01*
X11142368Y6567237D01*
X11344119Y6978126D01*
X11217954Y7153000D01*
X10077000Y7153000D01*
X9823000Y7153000D01*
X8682046Y7153000D01*
X8555881Y6978126D01*
X7414119Y6978126D01*
X7287954Y7153000D01*
X5897000Y7153000D01*
X5643000Y7153000D01*
X4252046Y7153000D01*
X4125881Y6978126D01*
X-3446216Y6978126D01*
X-3369000Y7164541D01*
X-3369000Y7435459D01*
X-3429646Y7581874D01*
X4125881Y7581874D01*
X4252046Y7407000D01*
X5643000Y7407000D01*
X5643000Y7427000D01*
X5897000Y7427000D01*
X5897000Y7407000D01*
X7287954Y7407000D01*
X7414119Y7581874D01*
X8555881Y7581874D01*
X8682046Y7407000D01*
X9823000Y7407000D01*
X9823000Y8415000D01*
X10077000Y8415000D01*
X10077000Y7407000D01*
X11217954Y7407000D01*
X11344119Y7581874D01*
X11142368Y7992763D01*
X10801678Y8280002D01*
X10377000Y8415000D01*
X10077000Y8415000D01*
X9823000Y8415000D01*
X9523000Y8415000D01*
X9098322Y8280002D01*
X8757632Y7992763D01*
X8555881Y7581874D01*
X7414119Y7581874D01*
X7212368Y7992763D01*
X6871678Y8280002D01*
X6869219Y8280784D01*
X6898518Y8310083D01*
X7006000Y8569568D01*
X7006000Y8850432D01*
X6898518Y9109917D01*
X6699917Y9308518D01*
X6440432Y9416000D01*
X6159568Y9416000D01*
X5900083Y9308518D01*
X5701482Y9109917D01*
X5594000Y8850432D01*
X5594000Y8569568D01*
X5658024Y8415000D01*
X5093000Y8415000D01*
X4668322Y8280002D01*
X4327632Y7992763D01*
X4125881Y7581874D01*
X-3429646Y7581874D01*
X-3472676Y7685756D01*
X-3664244Y7877324D01*
X-3914541Y7981000D01*
X-4185459Y7981000D01*
X-4435756Y7877324D01*
X-4627324Y7685756D01*
X-4731000Y7435459D01*
X-12244000Y7435459D01*
X-12244000Y10510417D01*
X-10106000Y10510417D01*
X-10106000Y10239499D01*
X-10002324Y9989202D01*
X-9810756Y9797634D01*
X-9560459Y9693958D01*
X-9289541Y9693958D01*
X-9039244Y9797634D01*
X-8847676Y9989202D01*
X-8832454Y10025953D01*
X-8486131Y10025953D01*
X-8486131Y9755035D01*
X-8382455Y9504738D01*
X-8190887Y9313170D01*
X-7940590Y9209494D01*
X-7669672Y9209494D01*
X-7419375Y9313170D01*
X-7227807Y9504738D01*
X-7124131Y9755035D01*
X-7124131Y9935459D01*
X-681000Y9935459D01*
X-681000Y9664541D01*
X-577324Y9414244D01*
X-385756Y9222676D01*
X-135459Y9119000D01*
X135459Y9119000D01*
X175194Y9135459D01*
X1319034Y9135459D01*
X1319034Y8864541D01*
X1422710Y8614244D01*
X1614278Y8422676D01*
X1864575Y8319000D01*
X2135493Y8319000D01*
X2385790Y8422676D01*
X2577358Y8614244D01*
X2681034Y8864541D01*
X2681034Y9135459D01*
X2577358Y9385756D01*
X2385790Y9577324D01*
X2135493Y9681000D01*
X1864575Y9681000D01*
X1614278Y9577324D01*
X1422710Y9385756D01*
X1319034Y9135459D01*
X175194Y9135459D01*
X385756Y9222676D01*
X577324Y9414244D01*
X681000Y9664541D01*
X681000Y9935459D01*
X577324Y10185756D01*
X385756Y10377324D01*
X135459Y10481000D01*
X-135459Y10481000D01*
X-385756Y10377324D01*
X-577324Y10185756D01*
X-681000Y9935459D01*
X-7124131Y9935459D01*
X-7124131Y9982201D01*
X-7039517Y10017249D01*
X-6847949Y10208817D01*
X-6744273Y10459114D01*
X-6744273Y10730032D01*
X-6847949Y10980329D01*
X-7039517Y11171897D01*
X-7289814Y11275573D01*
X-7560732Y11275573D01*
X-7811029Y11171897D01*
X-8002597Y10980329D01*
X-8106273Y10730032D01*
X-8106273Y10502866D01*
X-8190887Y10467818D01*
X-8382455Y10276250D01*
X-8486131Y10025953D01*
X-8832454Y10025953D01*
X-8744000Y10239499D01*
X-8744000Y10510417D01*
X-8847676Y10760714D01*
X-9039244Y10952282D01*
X-9289541Y11055958D01*
X-9560459Y11055958D01*
X-9810756Y10952282D01*
X-10002324Y10760714D01*
X-10106000Y10510417D01*
X-12244000Y10510417D01*
X-12244000Y13035459D01*
X-9481000Y13035459D01*
X-9481000Y12764541D01*
X-9377324Y12514244D01*
X-9185756Y12322676D01*
X-8935459Y12219000D01*
X-8664541Y12219000D01*
X-8624806Y12235459D01*
X7719000Y12235459D01*
X7719000Y11964541D01*
X7822676Y11714244D01*
X8014244Y11522676D01*
X8264541Y11419000D01*
X8535459Y11419000D01*
X8785756Y11522676D01*
X8977324Y11714244D01*
X9081000Y11964541D01*
X9081000Y12235459D01*
X8977324Y12485756D01*
X8785756Y12677324D01*
X8535459Y12781000D01*
X8264541Y12781000D01*
X8014244Y12677324D01*
X7822676Y12485756D01*
X7719000Y12235459D01*
X-8624806Y12235459D01*
X-8414244Y12322676D01*
X-8222676Y12514244D01*
X-8119000Y12764541D01*
X-8119000Y13035459D01*
X-8222676Y13285756D01*
X-8414244Y13477324D01*
X-8664541Y13581000D01*
X-8935459Y13581000D01*
X-9185756Y13477324D01*
X-9377324Y13285756D01*
X-9481000Y13035459D01*
X-12244000Y13035459D01*
X-12244000Y14434269D01*
X1523238Y14434269D01*
X1523238Y14163351D01*
X1626914Y13913054D01*
X1818482Y13721486D01*
X2068779Y13617810D01*
X2339697Y13617810D01*
X2589994Y13721486D01*
X2781562Y13913054D01*
X2885238Y14163351D01*
X2885238Y14434269D01*
X2781562Y14684566D01*
X2589994Y14876134D01*
X2339697Y14979810D01*
X2068779Y14979810D01*
X1818482Y14876134D01*
X1626914Y14684566D01*
X1523238Y14434269D01*
X-12244000Y14434269D01*
X-12244000Y15618126D01*
X4125881Y15618126D01*
X4327632Y15207237D01*
X4668322Y14919998D01*
X5093000Y14785000D01*
X5658024Y14785000D01*
X5594000Y14630432D01*
X5594000Y14349568D01*
X5701482Y14090083D01*
X5784953Y14006612D01*
X5714244Y13977324D01*
X5522676Y13785756D01*
X5419000Y13535459D01*
X5419000Y13264541D01*
X5522676Y13014244D01*
X5714244Y12822676D01*
X5964541Y12719000D01*
X6235459Y12719000D01*
X6485756Y12822676D01*
X6677324Y13014244D01*
X6781000Y13264541D01*
X6781000Y13535459D01*
X6677324Y13785756D01*
X6609182Y13853898D01*
X6699917Y13891482D01*
X6898518Y14090083D01*
X7006000Y14349568D01*
X7006000Y14630432D01*
X6898518Y14889917D01*
X6869219Y14919216D01*
X6871678Y14919998D01*
X7212368Y15207237D01*
X7414119Y15618126D01*
X8555881Y15618126D01*
X8757632Y15207237D01*
X9098322Y14919998D01*
X9523000Y14785000D01*
X9823000Y14785000D01*
X9823000Y15793000D01*
X10077000Y15793000D01*
X10077000Y14785000D01*
X10377000Y14785000D01*
X10801678Y14919998D01*
X11142368Y15207237D01*
X11344119Y15618126D01*
X11217954Y15793000D01*
X10077000Y15793000D01*
X9823000Y15793000D01*
X8682046Y15793000D01*
X8555881Y15618126D01*
X7414119Y15618126D01*
X7287954Y15793000D01*
X5897000Y15793000D01*
X5897000Y15773000D01*
X5643000Y15773000D01*
X5643000Y15793000D01*
X4252046Y15793000D01*
X4125881Y15618126D01*
X-12244000Y15618126D01*
X-12244000Y16221874D01*
X4125881Y16221874D01*
X4252046Y16047000D01*
X5643000Y16047000D01*
X5643000Y17055000D01*
X5897000Y17055000D01*
X5897000Y16047000D01*
X7287954Y16047000D01*
X7414119Y16221874D01*
X8555881Y16221874D01*
X8682046Y16047000D01*
X9823000Y16047000D01*
X9823000Y17055000D01*
X10077000Y17055000D01*
X10077000Y16047000D01*
X11217954Y16047000D01*
X11344119Y16221874D01*
X11142368Y16632763D01*
X10801678Y16920002D01*
X10377000Y17055000D01*
X10077000Y17055000D01*
X9823000Y17055000D01*
X9523000Y17055000D01*
X9098322Y16920002D01*
X8757632Y16632763D01*
X8555881Y16221874D01*
X7414119Y16221874D01*
X7212368Y16632763D01*
X6871678Y16920002D01*
X6447000Y17055000D01*
X5897000Y17055000D01*
X5643000Y17055000D01*
X5093000Y17055000D01*
X4668322Y16920002D01*
X4327632Y16632763D01*
X4125881Y16221874D01*
X-12244000Y16221874D01*
X-12244000Y17435459D01*
X-10156000Y17435459D01*
X-10156000Y17164541D01*
X-10052324Y16914244D01*
X-9860756Y16722676D01*
X-9610459Y16619000D01*
X-9339541Y16619000D01*
X-9089244Y16722676D01*
X-8897676Y16914244D01*
X-8794000Y17164541D01*
X-8794000Y17435459D01*
X-8897676Y17685756D01*
X-9089244Y17877324D01*
X-9229594Y17935459D01*
X-7941000Y17935459D01*
X-7941000Y17664541D01*
X-7837324Y17414244D01*
X-7645756Y17222676D01*
X-7395459Y17119000D01*
X-7124541Y17119000D01*
X-6874244Y17222676D01*
X-6682676Y17414244D01*
X-6579000Y17664541D01*
X-6579000Y17935459D01*
X-6682676Y18185756D01*
X-6874244Y18377324D01*
X-7014594Y18435459D01*
X-3481000Y18435459D01*
X-3481000Y18164541D01*
X-3377324Y17914244D01*
X-3185756Y17722676D01*
X-2935459Y17619000D01*
X-2664541Y17619000D01*
X-2414244Y17722676D01*
X-2222676Y17914244D01*
X-2119000Y18164541D01*
X-2119000Y18435459D01*
X-2166634Y18550459D01*
X5542000Y18550459D01*
X5542000Y18279541D01*
X5645676Y18029244D01*
X5837244Y17837676D01*
X6087541Y17734000D01*
X6358459Y17734000D01*
X6608756Y17837676D01*
X6800324Y18029244D01*
X6904000Y18279541D01*
X6904000Y18550459D01*
X6800324Y18800756D01*
X6608756Y18992324D01*
X6358459Y19096000D01*
X6087541Y19096000D01*
X5837244Y18992324D01*
X5645676Y18800756D01*
X5542000Y18550459D01*
X-2166634Y18550459D01*
X-2222676Y18685756D01*
X-2414244Y18877324D01*
X-2664541Y18981000D01*
X-2935459Y18981000D01*
X-3185756Y18877324D01*
X-3377324Y18685756D01*
X-3481000Y18435459D01*
X-7014594Y18435459D01*
X-7124541Y18481000D01*
X-7395459Y18481000D01*
X-7645756Y18377324D01*
X-7837324Y18185756D01*
X-7941000Y17935459D01*
X-9229594Y17935459D01*
X-9339541Y17981000D01*
X-9610459Y17981000D01*
X-9860756Y17877324D01*
X-10052324Y17685756D01*
X-10156000Y17435459D01*
X-12244000Y17435459D01*
X-12244000Y19415459D01*
X-6041000Y19415459D01*
X-6041000Y19144541D01*
X-5937324Y18894244D01*
X-5745756Y18702676D01*
X-5495459Y18599000D01*
X-5224541Y18599000D01*
X-4974244Y18702676D01*
X-4782676Y18894244D01*
X-4679000Y19144541D01*
X-4679000Y19415459D01*
X-4782676Y19665756D01*
X-4974244Y19857324D01*
X-5224541Y19961000D01*
X-5495459Y19961000D01*
X-5745756Y19857324D01*
X-5937324Y19665756D01*
X-6041000Y19415459D01*
X-12244000Y19415459D01*
X-12244000Y20935459D01*
X-11081000Y20935459D01*
X-11081000Y20664541D01*
X-10977324Y20414244D01*
X-10785756Y20222676D01*
X-10535459Y20119000D01*
X-10264541Y20119000D01*
X-10014244Y20222676D01*
X-9822676Y20414244D01*
X-9805605Y20455459D01*
X7447000Y20455459D01*
X7447000Y20184541D01*
X7550676Y19934244D01*
X7742244Y19742676D01*
X7909530Y19673384D01*
X7824068Y19637985D01*
X7632500Y19446417D01*
X7528824Y19196120D01*
X7528824Y18925202D01*
X7632500Y18674905D01*
X7824068Y18483337D01*
X8074365Y18379661D01*
X8345283Y18379661D01*
X8595580Y18483337D01*
X8787148Y18674905D01*
X8890824Y18925202D01*
X8890824Y19196120D01*
X8787148Y19446417D01*
X8595580Y19637985D01*
X8428294Y19707277D01*
X8513756Y19742676D01*
X8705324Y19934244D01*
X8809000Y20184541D01*
X8809000Y20455459D01*
X8705324Y20705756D01*
X8513756Y20897324D01*
X8263459Y21001000D01*
X7992541Y21001000D01*
X7742244Y20897324D01*
X7550676Y20705756D01*
X7447000Y20455459D01*
X-9805605Y20455459D01*
X-9719000Y20664541D01*
X-9719000Y20935459D01*
X-9822676Y21185756D01*
X-10014244Y21377324D01*
X-10264541Y21481000D01*
X-10535459Y21481000D01*
X-10785756Y21377324D01*
X-10977324Y21185756D01*
X-11081000Y20935459D01*
X-12244000Y20935459D01*
X-12244000Y31145544D01*
X-11998154Y30899698D01*
X-11629509Y30747000D01*
X-11230491Y30747000D01*
X-10861846Y30899698D01*
X-10579698Y31181846D01*
X-10427000Y31550491D01*
X-10427000Y31949509D01*
X-10579698Y32318154D01*
X-10805544Y32544000D01*
X-8455999Y32544000D01*
X-8456000Y31357831D01*
X-8456000Y31357831D01*
G37*
X-8456000Y31357831D02*
X-8492137Y31303748D01*
X-8532683Y31099910D01*
X-8492137Y30896072D01*
X-8376672Y30723266D01*
X-8203866Y30607801D01*
X-8051478Y30577489D01*
X-6172204Y30577489D01*
X-6172205Y29151484D01*
X-6182439Y29100034D01*
X-6141893Y28896196D01*
X-6026428Y28723390D01*
X-5853622Y28607925D01*
X-5649784Y28567379D01*
X-5598335Y28577613D01*
X-2772412Y28577613D01*
X-2772413Y26151148D01*
X-2782647Y26099698D01*
X-2742101Y25895860D01*
X-2721174Y25864541D01*
X-2626636Y25723054D01*
X-2453830Y25607589D01*
X-2249992Y25567043D01*
X-2198543Y25577277D01*
X2198543Y25577277D01*
X2249992Y25567043D01*
X2453830Y25607589D01*
X2626636Y25723054D01*
X2742101Y25895860D01*
X2772413Y26048248D01*
X2772413Y26048249D01*
X2782647Y26099698D01*
X2775534Y26135459D01*
X3319000Y26135459D01*
X3319000Y25864541D01*
X3422676Y25614244D01*
X3614244Y25422676D01*
X3864541Y25319000D01*
X4135459Y25319000D01*
X4385756Y25422676D01*
X4577324Y25614244D01*
X4681000Y25864541D01*
X4681000Y26135459D01*
X4819000Y26135459D01*
X4819000Y25864541D01*
X4922676Y25614244D01*
X5114244Y25422676D01*
X5364541Y25319000D01*
X5635459Y25319000D01*
X5885756Y25422676D01*
X6077324Y25614244D01*
X6181000Y25864541D01*
X6181000Y26135459D01*
X6319000Y26135459D01*
X6319000Y25864541D01*
X6422676Y25614244D01*
X6614244Y25422676D01*
X6864541Y25319000D01*
X7135459Y25319000D01*
X7385756Y25422676D01*
X7577324Y25614244D01*
X7681000Y25864541D01*
X7681000Y26135459D01*
X7819000Y26135459D01*
X7819000Y25864541D01*
X7922676Y25614244D01*
X8114244Y25422676D01*
X8364541Y25319000D01*
X8635459Y25319000D01*
X8885756Y25422676D01*
X9077324Y25614244D01*
X9181000Y25864541D01*
X9181000Y26135459D01*
X9077324Y26385756D01*
X8885756Y26577324D01*
X8635459Y26681000D01*
X8364541Y26681000D01*
X8114244Y26577324D01*
X7922676Y26385756D01*
X7819000Y26135459D01*
X7681000Y26135459D01*
X7577324Y26385756D01*
X7385756Y26577324D01*
X7135459Y26681000D01*
X6864541Y26681000D01*
X6614244Y26577324D01*
X6422676Y26385756D01*
X6319000Y26135459D01*
X6181000Y26135459D01*
X6077324Y26385756D01*
X5885756Y26577324D01*
X5635459Y26681000D01*
X5364541Y26681000D01*
X5114244Y26577324D01*
X4922676Y26385756D01*
X4819000Y26135459D01*
X4681000Y26135459D01*
X4577324Y26385756D01*
X4385756Y26577324D01*
X4135459Y26681000D01*
X3864541Y26681000D01*
X3614244Y26577324D01*
X3422676Y26385756D01*
X3319000Y26135459D01*
X2775534Y26135459D01*
X2772413Y26151148D01*
X2772413Y27635459D01*
X3319000Y27635459D01*
X3319000Y27364541D01*
X3422676Y27114244D01*
X3614244Y26922676D01*
X3864541Y26819000D01*
X4135459Y26819000D01*
X4385756Y26922676D01*
X4577324Y27114244D01*
X4681000Y27364541D01*
X4681000Y27635459D01*
X4819000Y27635459D01*
X4819000Y27364541D01*
X4922676Y27114244D01*
X5114244Y26922676D01*
X5364541Y26819000D01*
X5635459Y26819000D01*
X5885756Y26922676D01*
X6077324Y27114244D01*
X6181000Y27364541D01*
X6181000Y27635459D01*
X6319000Y27635459D01*
X6319000Y27364541D01*
X6422676Y27114244D01*
X6614244Y26922676D01*
X6864541Y26819000D01*
X7135459Y26819000D01*
X7385756Y26922676D01*
X7577324Y27114244D01*
X7681000Y27364541D01*
X7681000Y27635459D01*
X7819000Y27635459D01*
X7819000Y27364541D01*
X7922676Y27114244D01*
X8114244Y26922676D01*
X8364541Y26819000D01*
X8635459Y26819000D01*
X8885756Y26922676D01*
X9077324Y27114244D01*
X9181000Y27364541D01*
X9181000Y27635459D01*
X9077324Y27885756D01*
X8885756Y28077324D01*
X8635459Y28181000D01*
X8364541Y28181000D01*
X8114244Y28077324D01*
X7922676Y27885756D01*
X7819000Y27635459D01*
X7681000Y27635459D01*
X7577324Y27885756D01*
X7385756Y28077324D01*
X7135459Y28181000D01*
X6864541Y28181000D01*
X6614244Y28077324D01*
X6422676Y27885756D01*
X6319000Y27635459D01*
X6181000Y27635459D01*
X6077324Y27885756D01*
X5885756Y28077324D01*
X5635459Y28181000D01*
X5364541Y28181000D01*
X5114244Y28077324D01*
X4922676Y27885756D01*
X4819000Y27635459D01*
X4681000Y27635459D01*
X4577324Y27885756D01*
X4385756Y28077324D01*
X4135459Y28181000D01*
X3864541Y28181000D01*
X3614244Y28077324D01*
X3422676Y27885756D01*
X3319000Y27635459D01*
X2772413Y27635459D01*
X2772413Y28577613D01*
X5597818Y28577613D01*
X5649267Y28567379D01*
X5853105Y28607925D01*
X6025911Y28723390D01*
X6141376Y28896196D01*
X6171688Y29048584D01*
X6171688Y29048585D01*
X6181922Y29100034D01*
X6174876Y29135459D01*
X6319000Y29135459D01*
X6319000Y28864541D01*
X6422676Y28614244D01*
X6614244Y28422676D01*
X6864541Y28319000D01*
X7135459Y28319000D01*
X7385756Y28422676D01*
X7577324Y28614244D01*
X7681000Y28864541D01*
X7681000Y29135459D01*
X7819000Y29135459D01*
X7819000Y28864541D01*
X7922676Y28614244D01*
X8114244Y28422676D01*
X8364541Y28319000D01*
X8635459Y28319000D01*
X8885756Y28422676D01*
X9077324Y28614244D01*
X9181000Y28864541D01*
X9181000Y29135459D01*
X9077324Y29385756D01*
X8885756Y29577324D01*
X8635459Y29681000D01*
X8364541Y29681000D01*
X8114244Y29577324D01*
X7922676Y29385756D01*
X7819000Y29135459D01*
X7681000Y29135459D01*
X7577324Y29385756D01*
X7385756Y29577324D01*
X7135459Y29681000D01*
X6864541Y29681000D01*
X6614244Y29577324D01*
X6422676Y29385756D01*
X6319000Y29135459D01*
X6174876Y29135459D01*
X6171688Y29151484D01*
X6171688Y30577489D01*
X8050962Y30577489D01*
X8203350Y30607801D01*
X8376156Y30723266D01*
X8491621Y30896072D01*
X8532167Y31099910D01*
X8491621Y31303748D01*
X8456000Y31357059D01*
X8456000Y32544000D01*
X11641274Y32544000D01*
X12244001Y31941964D01*
X12244001Y18945079D01*
X12196756Y18992324D01*
X11946459Y19096000D01*
X11675541Y19096000D01*
X11425244Y18992324D01*
X11233676Y18800756D01*
X11130000Y18550459D01*
X11130000Y18279541D01*
X11233676Y18029244D01*
X11425244Y17837676D01*
X11675541Y17734000D01*
X11946459Y17734000D01*
X12196756Y17837676D01*
X12244001Y17884921D01*
X12244000Y604456D01*
X11998154Y850302D01*
X11629509Y1003000D01*
X11230491Y1003000D01*
X10861846Y850302D01*
X10579698Y568154D01*
X10427000Y199509D01*
X10427000Y-199509D01*
X10579698Y-568154D01*
X10825544Y-814000D01*
X9826613Y-814000D01*
X10049576Y-480312D01*
X10145116Y0D01*
X10049576Y480312D01*
X9777501Y887501D01*
X9370312Y1159576D01*
X9011239Y1231000D01*
X8768761Y1231000D01*
X8409688Y1159576D01*
X8002499Y887501D01*
X7730424Y480312D01*
X7634884Y0D01*
X7730424Y-480312D01*
X7953387Y-814000D01*
X7286613Y-814000D01*
X7509576Y-480312D01*
X7605116Y0D01*
X7509576Y480312D01*
X7237501Y887501D01*
X6830312Y1159576D01*
X6471239Y1231000D01*
X6228761Y1231000D01*
X5869688Y1159576D01*
X5462499Y887501D01*
X5190424Y480312D01*
X5094884Y0D01*
X5190424Y-480312D01*
X5413387Y-814000D01*
X4746613Y-814000D01*
X4969576Y-480312D01*
X5065116Y0D01*
X4969576Y480312D01*
X4697501Y887501D01*
X4290312Y1159576D01*
X3931239Y1231000D01*
X3688761Y1231000D01*
X3329688Y1159576D01*
X2922499Y887501D01*
X2650424Y480312D01*
X2554884Y0D01*
X2650424Y-480312D01*
X2873387Y-814000D01*
X2206613Y-814000D01*
X2429576Y-480312D01*
X2525116Y0D01*
X2429576Y480312D01*
X2157501Y887501D01*
X1750312Y1159576D01*
X1391239Y1231000D01*
X1148761Y1231000D01*
X789688Y1159576D01*
X382499Y887501D01*
X110424Y480312D01*
X14884Y0D01*
X110424Y-480312D01*
X333387Y-814000D01*
X-333387Y-814000D01*
X-110424Y-480312D01*
X-14884Y0D01*
X-110424Y480312D01*
X-382499Y887501D01*
X-789688Y1159576D01*
X-1148761Y1231000D01*
X-1391239Y1231000D01*
X-1750312Y1159576D01*
X-2157501Y887501D01*
X-2429576Y480312D01*
X-2525116Y0D01*
X-2429576Y-480312D01*
X-2206613Y-814000D01*
X-2873387Y-814000D01*
X-2650424Y-480312D01*
X-2554884Y0D01*
X-2650424Y480312D01*
X-2922499Y887501D01*
X-3329688Y1159576D01*
X-3688761Y1231000D01*
X-3931239Y1231000D01*
X-4290312Y1159576D01*
X-4697501Y887501D01*
X-4969576Y480312D01*
X-5065116Y0D01*
X-4969576Y-480312D01*
X-4746613Y-814000D01*
X-10493387Y-814000D01*
X-10270424Y-480312D01*
X-10174884Y0D01*
X-10270424Y480312D01*
X-10542499Y887501D01*
X-10949688Y1159576D01*
X-11308761Y1231000D01*
X-11551239Y1231000D01*
X-11910312Y1159576D01*
X-12244000Y936613D01*
X-12244000Y1613102D01*
X-12127306Y1496408D01*
X-11674861Y1309000D01*
X-11185139Y1309000D01*
X-10732694Y1496408D01*
X-10386408Y1842694D01*
X-10199000Y2295139D01*
X-10199000Y2784861D01*
X-10386408Y3237306D01*
X-10732694Y3583592D01*
X-11185139Y3771000D01*
X-11674861Y3771000D01*
X-12127306Y3583592D01*
X-12244000Y3466898D01*
X-12244000Y3935459D01*
X-5481000Y3935459D01*
X-5481000Y3664541D01*
X-5377324Y3414244D01*
X-5185756Y3222676D01*
X-4935459Y3119000D01*
X-4902596Y3119000D01*
X-5041000Y2784861D01*
X-5041000Y2295139D01*
X-4853592Y1842694D01*
X-4507306Y1496408D01*
X-4054861Y1309000D01*
X-3565139Y1309000D01*
X-3112694Y1496408D01*
X-2766408Y1842694D01*
X-2579000Y2295139D01*
X-2579000Y2784861D01*
X-2755086Y3209972D01*
X-2535459Y3119000D01*
X-2363635Y3119000D01*
X-2429576Y3020312D01*
X-2525116Y2540000D01*
X-2429576Y2059688D01*
X-2157501Y1652499D01*
X-1750312Y1380424D01*
X-1391239Y1309000D01*
X-1148761Y1309000D01*
X-789688Y1380424D01*
X-382499Y1652499D01*
X-110424Y2059688D01*
X-14884Y2540000D01*
X14884Y2540000D01*
X110424Y2059688D01*
X382499Y1652499D01*
X789688Y1380424D01*
X1148761Y1309000D01*
X1391239Y1309000D01*
X1750312Y1380424D01*
X2157501Y1652499D01*
X2429576Y2059688D01*
X2525116Y2540000D01*
X2554884Y2540000D01*
X2650424Y2059688D01*
X2922499Y1652499D01*
X3329688Y1380424D01*
X3688761Y1309000D01*
X3931239Y1309000D01*
X4290312Y1380424D01*
X4697501Y1652499D01*
X4969576Y2059688D01*
X5065116Y2540000D01*
X4969576Y3020312D01*
X4697501Y3427501D01*
X4290312Y3699576D01*
X3931239Y3771000D01*
X3688761Y3771000D01*
X3329688Y3699576D01*
X2922499Y3427501D01*
X2650424Y3020312D01*
X2554884Y2540000D01*
X2525116Y2540000D01*
X2429576Y3020312D01*
X2157501Y3427501D01*
X1750312Y3699576D01*
X1391239Y3771000D01*
X1148761Y3771000D01*
X789688Y3699576D01*
X382499Y3427501D01*
X110424Y3020312D01*
X14884Y2540000D01*
X-14884Y2540000D01*
X-110424Y3020312D01*
X-382499Y3427501D01*
X-789688Y3699576D01*
X-1148761Y3771000D01*
X-1391239Y3771000D01*
X-1719000Y3705804D01*
X-1719000Y3935459D01*
X-1822676Y4185756D01*
X-2014244Y4377324D01*
X-2264541Y4481000D01*
X-2535459Y4481000D01*
X-2785756Y4377324D01*
X-2977324Y4185756D01*
X-3081000Y3935459D01*
X-3081000Y3664541D01*
X-3001350Y3472248D01*
X-3112694Y3583592D01*
X-3565139Y3771000D01*
X-4054861Y3771000D01*
X-4119000Y3744433D01*
X-4119000Y3935459D01*
X-4222676Y4185756D01*
X-4414244Y4377324D01*
X-4664541Y4481000D01*
X-4935459Y4481000D01*
X-5185756Y4377324D01*
X-5377324Y4185756D01*
X-5481000Y3935459D01*
X-12244000Y3935459D01*
X-12244000Y7435459D01*
X-4731000Y7435459D01*
X-4731000Y7164541D01*
X-4627324Y6914244D01*
X-4435756Y6722676D01*
X-4185459Y6619000D01*
X-3914541Y6619000D01*
X-3664244Y6722676D01*
X-3472676Y6914244D01*
X-3446216Y6978126D01*
X4125881Y6978126D01*
X4327632Y6567237D01*
X4668322Y6279998D01*
X5093000Y6145000D01*
X5643000Y6145000D01*
X5643000Y7153000D01*
X5897000Y7153000D01*
X5897000Y6145000D01*
X6447000Y6145000D01*
X6871678Y6279998D01*
X7212368Y6567237D01*
X7414119Y6978126D01*
X8555881Y6978126D01*
X8757632Y6567237D01*
X9098322Y6279998D01*
X9523000Y6145000D01*
X9823000Y6145000D01*
X9823000Y7153000D01*
X10077000Y7153000D01*
X10077000Y6145000D01*
X10377000Y6145000D01*
X10801678Y6279998D01*
X11142368Y6567237D01*
X11344119Y6978126D01*
X11217954Y7153000D01*
X10077000Y7153000D01*
X9823000Y7153000D01*
X8682046Y7153000D01*
X8555881Y6978126D01*
X7414119Y6978126D01*
X7287954Y7153000D01*
X5897000Y7153000D01*
X5643000Y7153000D01*
X4252046Y7153000D01*
X4125881Y6978126D01*
X-3446216Y6978126D01*
X-3369000Y7164541D01*
X-3369000Y7435459D01*
X-3429646Y7581874D01*
X4125881Y7581874D01*
X4252046Y7407000D01*
X5643000Y7407000D01*
X5643000Y7427000D01*
X5897000Y7427000D01*
X5897000Y7407000D01*
X7287954Y7407000D01*
X7414119Y7581874D01*
X8555881Y7581874D01*
X8682046Y7407000D01*
X9823000Y7407000D01*
X9823000Y8415000D01*
X10077000Y8415000D01*
X10077000Y7407000D01*
X11217954Y7407000D01*
X11344119Y7581874D01*
X11142368Y7992763D01*
X10801678Y8280002D01*
X10377000Y8415000D01*
X10077000Y8415000D01*
X9823000Y8415000D01*
X9523000Y8415000D01*
X9098322Y8280002D01*
X8757632Y7992763D01*
X8555881Y7581874D01*
X7414119Y7581874D01*
X7212368Y7992763D01*
X6871678Y8280002D01*
X6869219Y8280784D01*
X6898518Y8310083D01*
X7006000Y8569568D01*
X7006000Y8850432D01*
X6898518Y9109917D01*
X6699917Y9308518D01*
X6440432Y9416000D01*
X6159568Y9416000D01*
X5900083Y9308518D01*
X5701482Y9109917D01*
X5594000Y8850432D01*
X5594000Y8569568D01*
X5658024Y8415000D01*
X5093000Y8415000D01*
X4668322Y8280002D01*
X4327632Y7992763D01*
X4125881Y7581874D01*
X-3429646Y7581874D01*
X-3472676Y7685756D01*
X-3664244Y7877324D01*
X-3914541Y7981000D01*
X-4185459Y7981000D01*
X-4435756Y7877324D01*
X-4627324Y7685756D01*
X-4731000Y7435459D01*
X-12244000Y7435459D01*
X-12244000Y10510417D01*
X-10106000Y10510417D01*
X-10106000Y10239499D01*
X-10002324Y9989202D01*
X-9810756Y9797634D01*
X-9560459Y9693958D01*
X-9289541Y9693958D01*
X-9039244Y9797634D01*
X-8847676Y9989202D01*
X-8832454Y10025953D01*
X-8486131Y10025953D01*
X-8486131Y9755035D01*
X-8382455Y9504738D01*
X-8190887Y9313170D01*
X-7940590Y9209494D01*
X-7669672Y9209494D01*
X-7419375Y9313170D01*
X-7227807Y9504738D01*
X-7124131Y9755035D01*
X-7124131Y9935459D01*
X-681000Y9935459D01*
X-681000Y9664541D01*
X-577324Y9414244D01*
X-385756Y9222676D01*
X-135459Y9119000D01*
X135459Y9119000D01*
X175194Y9135459D01*
X1319034Y9135459D01*
X1319034Y8864541D01*
X1422710Y8614244D01*
X1614278Y8422676D01*
X1864575Y8319000D01*
X2135493Y8319000D01*
X2385790Y8422676D01*
X2577358Y8614244D01*
X2681034Y8864541D01*
X2681034Y9135459D01*
X2577358Y9385756D01*
X2385790Y9577324D01*
X2135493Y9681000D01*
X1864575Y9681000D01*
X1614278Y9577324D01*
X1422710Y9385756D01*
X1319034Y9135459D01*
X175194Y9135459D01*
X385756Y9222676D01*
X577324Y9414244D01*
X681000Y9664541D01*
X681000Y9935459D01*
X577324Y10185756D01*
X385756Y10377324D01*
X135459Y10481000D01*
X-135459Y10481000D01*
X-385756Y10377324D01*
X-577324Y10185756D01*
X-681000Y9935459D01*
X-7124131Y9935459D01*
X-7124131Y9982201D01*
X-7039517Y10017249D01*
X-6847949Y10208817D01*
X-6744273Y10459114D01*
X-6744273Y10730032D01*
X-6847949Y10980329D01*
X-7039517Y11171897D01*
X-7289814Y11275573D01*
X-7560732Y11275573D01*
X-7811029Y11171897D01*
X-8002597Y10980329D01*
X-8106273Y10730032D01*
X-8106273Y10502866D01*
X-8190887Y10467818D01*
X-8382455Y10276250D01*
X-8486131Y10025953D01*
X-8832454Y10025953D01*
X-8744000Y10239499D01*
X-8744000Y10510417D01*
X-8847676Y10760714D01*
X-9039244Y10952282D01*
X-9289541Y11055958D01*
X-9560459Y11055958D01*
X-9810756Y10952282D01*
X-10002324Y10760714D01*
X-10106000Y10510417D01*
X-12244000Y10510417D01*
X-12244000Y13035459D01*
X-9481000Y13035459D01*
X-9481000Y12764541D01*
X-9377324Y12514244D01*
X-9185756Y12322676D01*
X-8935459Y12219000D01*
X-8664541Y12219000D01*
X-8624806Y12235459D01*
X7719000Y12235459D01*
X7719000Y11964541D01*
X7822676Y11714244D01*
X8014244Y11522676D01*
X8264541Y11419000D01*
X8535459Y11419000D01*
X8785756Y11522676D01*
X8977324Y11714244D01*
X9081000Y11964541D01*
X9081000Y12235459D01*
X8977324Y12485756D01*
X8785756Y12677324D01*
X8535459Y12781000D01*
X8264541Y12781000D01*
X8014244Y12677324D01*
X7822676Y12485756D01*
X7719000Y12235459D01*
X-8624806Y12235459D01*
X-8414244Y12322676D01*
X-8222676Y12514244D01*
X-8119000Y12764541D01*
X-8119000Y13035459D01*
X-8222676Y13285756D01*
X-8414244Y13477324D01*
X-8664541Y13581000D01*
X-8935459Y13581000D01*
X-9185756Y13477324D01*
X-9377324Y13285756D01*
X-9481000Y13035459D01*
X-12244000Y13035459D01*
X-12244000Y14434269D01*
X1523238Y14434269D01*
X1523238Y14163351D01*
X1626914Y13913054D01*
X1818482Y13721486D01*
X2068779Y13617810D01*
X2339697Y13617810D01*
X2589994Y13721486D01*
X2781562Y13913054D01*
X2885238Y14163351D01*
X2885238Y14434269D01*
X2781562Y14684566D01*
X2589994Y14876134D01*
X2339697Y14979810D01*
X2068779Y14979810D01*
X1818482Y14876134D01*
X1626914Y14684566D01*
X1523238Y14434269D01*
X-12244000Y14434269D01*
X-12244000Y15618126D01*
X4125881Y15618126D01*
X4327632Y15207237D01*
X4668322Y14919998D01*
X5093000Y14785000D01*
X5658024Y14785000D01*
X5594000Y14630432D01*
X5594000Y14349568D01*
X5701482Y14090083D01*
X5784953Y14006612D01*
X5714244Y13977324D01*
X5522676Y13785756D01*
X5419000Y13535459D01*
X5419000Y13264541D01*
X5522676Y13014244D01*
X5714244Y12822676D01*
X5964541Y12719000D01*
X6235459Y12719000D01*
X6485756Y12822676D01*
X6677324Y13014244D01*
X6781000Y13264541D01*
X6781000Y13535459D01*
X6677324Y13785756D01*
X6609182Y13853898D01*
X6699917Y13891482D01*
X6898518Y14090083D01*
X7006000Y14349568D01*
X7006000Y14630432D01*
X6898518Y14889917D01*
X6869219Y14919216D01*
X6871678Y14919998D01*
X7212368Y15207237D01*
X7414119Y15618126D01*
X8555881Y15618126D01*
X8757632Y15207237D01*
X9098322Y14919998D01*
X9523000Y14785000D01*
X9823000Y14785000D01*
X9823000Y15793000D01*
X10077000Y15793000D01*
X10077000Y14785000D01*
X10377000Y14785000D01*
X10801678Y14919998D01*
X11142368Y15207237D01*
X11344119Y15618126D01*
X11217954Y15793000D01*
X10077000Y15793000D01*
X9823000Y15793000D01*
X8682046Y15793000D01*
X8555881Y15618126D01*
X7414119Y15618126D01*
X7287954Y15793000D01*
X5897000Y15793000D01*
X5897000Y15773000D01*
X5643000Y15773000D01*
X5643000Y15793000D01*
X4252046Y15793000D01*
X4125881Y15618126D01*
X-12244000Y15618126D01*
X-12244000Y16221874D01*
X4125881Y16221874D01*
X4252046Y16047000D01*
X5643000Y16047000D01*
X5643000Y17055000D01*
X5897000Y17055000D01*
X5897000Y16047000D01*
X7287954Y16047000D01*
X7414119Y16221874D01*
X8555881Y16221874D01*
X8682046Y16047000D01*
X9823000Y16047000D01*
X9823000Y17055000D01*
X10077000Y17055000D01*
X10077000Y16047000D01*
X11217954Y16047000D01*
X11344119Y16221874D01*
X11142368Y16632763D01*
X10801678Y16920002D01*
X10377000Y17055000D01*
X10077000Y17055000D01*
X9823000Y17055000D01*
X9523000Y17055000D01*
X9098322Y16920002D01*
X8757632Y16632763D01*
X8555881Y16221874D01*
X7414119Y16221874D01*
X7212368Y16632763D01*
X6871678Y16920002D01*
X6447000Y17055000D01*
X5897000Y17055000D01*
X5643000Y17055000D01*
X5093000Y17055000D01*
X4668322Y16920002D01*
X4327632Y16632763D01*
X4125881Y16221874D01*
X-12244000Y16221874D01*
X-12244000Y17435459D01*
X-10156000Y17435459D01*
X-10156000Y17164541D01*
X-10052324Y16914244D01*
X-9860756Y16722676D01*
X-9610459Y16619000D01*
X-9339541Y16619000D01*
X-9089244Y16722676D01*
X-8897676Y16914244D01*
X-8794000Y17164541D01*
X-8794000Y17435459D01*
X-8897676Y17685756D01*
X-9089244Y17877324D01*
X-9229594Y17935459D01*
X-7941000Y17935459D01*
X-7941000Y17664541D01*
X-7837324Y17414244D01*
X-7645756Y17222676D01*
X-7395459Y17119000D01*
X-7124541Y17119000D01*
X-6874244Y17222676D01*
X-6682676Y17414244D01*
X-6579000Y17664541D01*
X-6579000Y17935459D01*
X-6682676Y18185756D01*
X-6874244Y18377324D01*
X-7014594Y18435459D01*
X-3481000Y18435459D01*
X-3481000Y18164541D01*
X-3377324Y17914244D01*
X-3185756Y17722676D01*
X-2935459Y17619000D01*
X-2664541Y17619000D01*
X-2414244Y17722676D01*
X-2222676Y17914244D01*
X-2119000Y18164541D01*
X-2119000Y18435459D01*
X-2166634Y18550459D01*
X5542000Y18550459D01*
X5542000Y18279541D01*
X5645676Y18029244D01*
X5837244Y17837676D01*
X6087541Y17734000D01*
X6358459Y17734000D01*
X6608756Y17837676D01*
X6800324Y18029244D01*
X6904000Y18279541D01*
X6904000Y18550459D01*
X6800324Y18800756D01*
X6608756Y18992324D01*
X6358459Y19096000D01*
X6087541Y19096000D01*
X5837244Y18992324D01*
X5645676Y18800756D01*
X5542000Y18550459D01*
X-2166634Y18550459D01*
X-2222676Y18685756D01*
X-2414244Y18877324D01*
X-2664541Y18981000D01*
X-2935459Y18981000D01*
X-3185756Y18877324D01*
X-3377324Y18685756D01*
X-3481000Y18435459D01*
X-7014594Y18435459D01*
X-7124541Y18481000D01*
X-7395459Y18481000D01*
X-7645756Y18377324D01*
X-7837324Y18185756D01*
X-7941000Y17935459D01*
X-9229594Y17935459D01*
X-9339541Y17981000D01*
X-9610459Y17981000D01*
X-9860756Y17877324D01*
X-10052324Y17685756D01*
X-10156000Y17435459D01*
X-12244000Y17435459D01*
X-12244000Y19415459D01*
X-6041000Y19415459D01*
X-6041000Y19144541D01*
X-5937324Y18894244D01*
X-5745756Y18702676D01*
X-5495459Y18599000D01*
X-5224541Y18599000D01*
X-4974244Y18702676D01*
X-4782676Y18894244D01*
X-4679000Y19144541D01*
X-4679000Y19415459D01*
X-4782676Y19665756D01*
X-4974244Y19857324D01*
X-5224541Y19961000D01*
X-5495459Y19961000D01*
X-5745756Y19857324D01*
X-5937324Y19665756D01*
X-6041000Y19415459D01*
X-12244000Y19415459D01*
X-12244000Y20935459D01*
X-11081000Y20935459D01*
X-11081000Y20664541D01*
X-10977324Y20414244D01*
X-10785756Y20222676D01*
X-10535459Y20119000D01*
X-10264541Y20119000D01*
X-10014244Y20222676D01*
X-9822676Y20414244D01*
X-9805605Y20455459D01*
X7447000Y20455459D01*
X7447000Y20184541D01*
X7550676Y19934244D01*
X7742244Y19742676D01*
X7909530Y19673384D01*
X7824068Y19637985D01*
X7632500Y19446417D01*
X7528824Y19196120D01*
X7528824Y18925202D01*
X7632500Y18674905D01*
X7824068Y18483337D01*
X8074365Y18379661D01*
X8345283Y18379661D01*
X8595580Y18483337D01*
X8787148Y18674905D01*
X8890824Y18925202D01*
X8890824Y19196120D01*
X8787148Y19446417D01*
X8595580Y19637985D01*
X8428294Y19707277D01*
X8513756Y19742676D01*
X8705324Y19934244D01*
X8809000Y20184541D01*
X8809000Y20455459D01*
X8705324Y20705756D01*
X8513756Y20897324D01*
X8263459Y21001000D01*
X7992541Y21001000D01*
X7742244Y20897324D01*
X7550676Y20705756D01*
X7447000Y20455459D01*
X-9805605Y20455459D01*
X-9719000Y20664541D01*
X-9719000Y20935459D01*
X-9822676Y21185756D01*
X-10014244Y21377324D01*
X-10264541Y21481000D01*
X-10535459Y21481000D01*
X-10785756Y21377324D01*
X-10977324Y21185756D01*
X-11081000Y20935459D01*
X-12244000Y20935459D01*
X-12244000Y31145544D01*
X-11998154Y30899698D01*
X-11629509Y30747000D01*
X-11230491Y30747000D01*
X-10861846Y30899698D01*
X-10579698Y31181846D01*
X-10427000Y31550491D01*
X-10427000Y31949509D01*
X-10579698Y32318154D01*
X-10805544Y32544000D01*
X-8455999Y32544000D01*
X-8456000Y31357831D01*
G04 #@! TD*
M02*
