G04 #@! TF.GenerationSoftware,KiCad,Pcbnew,5.0.2+dfsg1-1*
G04 #@! TF.CreationDate,2020-10-18T19:03:35+02:00*
G04 #@! TF.ProjectId,edgedriver,65646765-6472-4697-9665-722e6b696361,rev?*
G04 #@! TF.SameCoordinates,Original*
G04 #@! TF.FileFunction,Legend,Top*
G04 #@! TF.FilePolarity,Positive*
%FSLAX46Y46*%
G04 Gerber Fmt 4.6, Leading zero omitted, Abs format (unit mm)*
G04 Created by KiCad (PCBNEW 5.0.2+dfsg1-1) date Sun 18 Oct 2020 07:03:35 PM CEST*
%MOMM*%
%LPD*%
G01*
G04 APERTURE LIST*
%ADD10C,0.300000*%
%ADD11C,0.150000*%
%ADD12C,0.120000*%
%ADD13C,0.400000*%
G04 APERTURE END LIST*
D10*
X-12001428Y29737857D02*
X-10858571Y29737857D01*
X10858571Y29737857D02*
X12001428Y29737857D01*
X11430000Y29166428D02*
X11430000Y30309285D01*
D11*
G04 #@! TO.C,U4*
X5100000Y18100000D02*
G75*
G03X5100000Y18100000I-200000J0D01*
G01*
D12*
G04 #@! TO.C,C9*
X-10990000Y20337221D02*
X-10990000Y20662779D01*
X-12010000Y20337221D02*
X-12010000Y20662779D01*
G04 #@! TO.C,C1*
X7690000Y21937221D02*
X7690000Y22262779D01*
X8710000Y21937221D02*
X8710000Y22262779D01*
G04 #@! TO.C,C6*
X11090000Y21937221D02*
X11090000Y22262779D01*
X12110000Y21937221D02*
X12110000Y22262779D01*
G04 #@! TO.C,C2*
X-12010000Y14337221D02*
X-12010000Y14662779D01*
X-10990000Y14337221D02*
X-10990000Y14662779D01*
G04 #@! TO.C,C3*
X9390000Y21937221D02*
X9390000Y22262779D01*
X10410000Y21937221D02*
X10410000Y22262779D01*
G04 #@! TO.C,C4*
X-990000Y20662779D02*
X-990000Y20337221D01*
X-2010000Y20662779D02*
X-2010000Y20337221D01*
G04 #@! TO.C,C5*
X-10990000Y17662779D02*
X-10990000Y17337221D01*
X-12010000Y17662779D02*
X-12010000Y17337221D01*
G04 #@! TO.C,C7*
X-2010000Y17337221D02*
X-2010000Y17662779D01*
X-990000Y17337221D02*
X-990000Y17662779D01*
G04 #@! TO.C,C8*
X-10990000Y11662779D02*
X-10990000Y11337221D01*
X-12010000Y11662779D02*
X-12010000Y11337221D01*
D13*
G04 #@! TO.C,U2*
X-8900000Y7300000D02*
G75*
G03X-8900000Y7300000I-200000J0D01*
G01*
G04 #@! TO.C,J2*
D11*
X8516666Y12167619D02*
X8516666Y11453333D01*
X8469047Y11310476D01*
X8373809Y11215238D01*
X8230952Y11167619D01*
X8135714Y11167619D01*
X8945238Y12072380D02*
X8992857Y12120000D01*
X9088095Y12167619D01*
X9326190Y12167619D01*
X9421428Y12120000D01*
X9469047Y12072380D01*
X9516666Y11977142D01*
X9516666Y11881904D01*
X9469047Y11739047D01*
X8897619Y11167619D01*
X9516666Y11167619D01*
G04 #@! TO.C,U3*
X-7161904Y17577619D02*
X-7161904Y16768095D01*
X-7114285Y16672857D01*
X-7066666Y16625238D01*
X-6971428Y16577619D01*
X-6780952Y16577619D01*
X-6685714Y16625238D01*
X-6638095Y16672857D01*
X-6590476Y16768095D01*
X-6590476Y17577619D01*
X-6209523Y17577619D02*
X-5590476Y17577619D01*
X-5923809Y17196666D01*
X-5780952Y17196666D01*
X-5685714Y17149047D01*
X-5638095Y17101428D01*
X-5590476Y17006190D01*
X-5590476Y16768095D01*
X-5638095Y16672857D01*
X-5685714Y16625238D01*
X-5780952Y16577619D01*
X-6066666Y16577619D01*
X-6161904Y16625238D01*
X-6209523Y16672857D01*
G04 #@! TO.C,U2*
X-7251904Y9127619D02*
X-7251904Y8318095D01*
X-7204285Y8222857D01*
X-7156666Y8175238D01*
X-7061428Y8127619D01*
X-6870952Y8127619D01*
X-6775714Y8175238D01*
X-6728095Y8222857D01*
X-6680476Y8318095D01*
X-6680476Y9127619D01*
X-6251904Y9032380D02*
X-6204285Y9080000D01*
X-6109047Y9127619D01*
X-5870952Y9127619D01*
X-5775714Y9080000D01*
X-5728095Y9032380D01*
X-5680476Y8937142D01*
X-5680476Y8841904D01*
X-5728095Y8699047D01*
X-6299523Y8127619D01*
X-5680476Y8127619D01*
G04 #@! TD*
M02*
