G04 #@! TF.GenerationSoftware,KiCad,Pcbnew,5.0.2+dfsg1-1*
G04 #@! TF.CreationDate,2021-01-20T13:30:11+01:00*
G04 #@! TF.ProjectId,edgedriver,65646765-6472-4697-9665-722e6b696361,rev?*
G04 #@! TF.SameCoordinates,Original*
G04 #@! TF.FileFunction,Soldermask,Bot*
G04 #@! TF.FilePolarity,Negative*
%FSLAX46Y46*%
G04 Gerber Fmt 4.6, Leading zero omitted, Abs format (unit mm)*
G04 Created by KiCad (PCBNEW 5.0.2+dfsg1-1) date Wed Jan 20 13:30:11 2021*
%MOMM*%
%LPD*%
G01*
G04 APERTURE LIST*
%ADD10C,0.010000*%
%ADD11C,0.100000*%
G04 APERTURE END LIST*
D10*
G04 #@! TO.C,U1*
G36*
X-4925000Y15665000D02*
X-4925000Y14335000D01*
X-3595000Y14335000D01*
X-3595000Y15665000D01*
X-4925000Y15665000D01*
G37*
X-4925000Y15665000D02*
X-4925000Y14335000D01*
X-3595000Y14335000D01*
X-3595000Y15665000D01*
X-4925000Y15665000D01*
G36*
X-4925000Y17500000D02*
X-4925000Y16170000D01*
X-3595000Y16170000D01*
X-3595000Y17500000D01*
X-4925000Y17500000D01*
G37*
X-4925000Y17500000D02*
X-4925000Y16170000D01*
X-3595000Y16170000D01*
X-3595000Y17500000D01*
X-4925000Y17500000D01*
G36*
X-4925000Y13830000D02*
X-4925000Y12500000D01*
X-3595000Y12500000D01*
X-3595000Y13830000D01*
X-4925000Y13830000D01*
G37*
X-4925000Y13830000D02*
X-4925000Y12500000D01*
X-3595000Y12500000D01*
X-3595000Y13830000D01*
X-4925000Y13830000D01*
G36*
X-6760000Y13830000D02*
X-6760000Y12500000D01*
X-5430000Y12500000D01*
X-5430000Y13830000D01*
X-6760000Y13830000D01*
G37*
X-6760000Y13830000D02*
X-6760000Y12500000D01*
X-5430000Y12500000D01*
X-5430000Y13830000D01*
X-6760000Y13830000D01*
G36*
X-6760000Y15665000D02*
X-6760000Y14335000D01*
X-5430000Y14335000D01*
X-5430000Y15665000D01*
X-6760000Y15665000D01*
G37*
X-6760000Y15665000D02*
X-6760000Y14335000D01*
X-5430000Y14335000D01*
X-5430000Y15665000D01*
X-6760000Y15665000D01*
G36*
X-6760000Y17500000D02*
X-6760000Y16170000D01*
X-5430000Y16170000D01*
X-5430000Y17500000D01*
X-6760000Y17500000D01*
G37*
X-6760000Y17500000D02*
X-6760000Y16170000D01*
X-5430000Y16170000D01*
X-5430000Y17500000D01*
X-6760000Y17500000D01*
G36*
X-3090000Y17500000D02*
X-3090000Y16170000D01*
X-1760000Y16170000D01*
X-1760000Y17500000D01*
X-3090000Y17500000D01*
G37*
X-3090000Y17500000D02*
X-3090000Y16170000D01*
X-1760000Y16170000D01*
X-1760000Y17500000D01*
X-3090000Y17500000D01*
G36*
X-3090000Y15665000D02*
X-3090000Y14335000D01*
X-1760000Y14335000D01*
X-1760000Y15665000D01*
X-3090000Y15665000D01*
G37*
X-3090000Y15665000D02*
X-3090000Y14335000D01*
X-1760000Y14335000D01*
X-1760000Y15665000D01*
X-3090000Y15665000D01*
G36*
X-3090000Y13830000D02*
X-3090000Y12500000D01*
X-1760000Y12500000D01*
X-1760000Y13830000D01*
X-3090000Y13830000D01*
G37*
X-3090000Y13830000D02*
X-3090000Y12500000D01*
X-1760000Y12500000D01*
X-1760000Y13830000D01*
X-3090000Y13830000D01*
D11*
G36*
X9000442Y894482D02*
X9066627Y887963D01*
X9179853Y853616D01*
X9236467Y836443D01*
X9375087Y762348D01*
X9392991Y752778D01*
X9428729Y723448D01*
X9530186Y640186D01*
X9613448Y538729D01*
X9642778Y502991D01*
X9642779Y502989D01*
X9726443Y346467D01*
X9726443Y346466D01*
X9777963Y176627D01*
X9795359Y0D01*
X9777963Y-176627D01*
X9774028Y-189598D01*
X9726443Y-346467D01*
X9690156Y-414354D01*
X9642778Y-502991D01*
X9641221Y-504888D01*
X9530186Y-640186D01*
X9457480Y-699853D01*
X9392991Y-752778D01*
X9392989Y-752779D01*
X9236467Y-836443D01*
X9179853Y-853616D01*
X9066627Y-887963D01*
X9000442Y-894482D01*
X8934260Y-901000D01*
X8845740Y-901000D01*
X8779558Y-894482D01*
X8713373Y-887963D01*
X8600147Y-853616D01*
X8543533Y-836443D01*
X8387011Y-752779D01*
X8387009Y-752778D01*
X8322520Y-699853D01*
X8249814Y-640186D01*
X8138779Y-504888D01*
X8137222Y-502991D01*
X8089844Y-414354D01*
X8053557Y-346467D01*
X8005972Y-189598D01*
X8002037Y-176627D01*
X7984641Y0D01*
X8002037Y176627D01*
X8053557Y346466D01*
X8053557Y346467D01*
X8137221Y502989D01*
X8137222Y502991D01*
X8166552Y538729D01*
X8249814Y640186D01*
X8351271Y723448D01*
X8387009Y752778D01*
X8404913Y762348D01*
X8543533Y836443D01*
X8600147Y853616D01*
X8713373Y887963D01*
X8779558Y894482D01*
X8845740Y901000D01*
X8934260Y901000D01*
X9000442Y894482D01*
X9000442Y894482D01*
G37*
G36*
X-11319558Y894482D02*
X-11253373Y887963D01*
X-11140147Y853616D01*
X-11083533Y836443D01*
X-10944913Y762348D01*
X-10927009Y752778D01*
X-10891271Y723448D01*
X-10789814Y640186D01*
X-10706552Y538729D01*
X-10677222Y502991D01*
X-10677221Y502989D01*
X-10593557Y346467D01*
X-10593557Y346466D01*
X-10542037Y176627D01*
X-10524641Y0D01*
X-10542037Y-176627D01*
X-10545972Y-189598D01*
X-10593557Y-346467D01*
X-10629844Y-414354D01*
X-10677222Y-502991D01*
X-10678779Y-504888D01*
X-10789814Y-640186D01*
X-10862520Y-699853D01*
X-10927009Y-752778D01*
X-10927011Y-752779D01*
X-11083533Y-836443D01*
X-11140147Y-853616D01*
X-11253373Y-887963D01*
X-11319558Y-894482D01*
X-11385740Y-901000D01*
X-11474260Y-901000D01*
X-11540442Y-894482D01*
X-11606627Y-887963D01*
X-11719853Y-853616D01*
X-11776467Y-836443D01*
X-11932989Y-752779D01*
X-11932991Y-752778D01*
X-11997480Y-699853D01*
X-12070186Y-640186D01*
X-12181221Y-504888D01*
X-12182778Y-502991D01*
X-12230156Y-414354D01*
X-12266443Y-346467D01*
X-12314028Y-189598D01*
X-12317963Y-176627D01*
X-12335359Y0D01*
X-12317963Y176627D01*
X-12266443Y346466D01*
X-12266443Y346467D01*
X-12182779Y502989D01*
X-12182778Y502991D01*
X-12153448Y538729D01*
X-12070186Y640186D01*
X-11968729Y723448D01*
X-11932991Y752778D01*
X-11915087Y762348D01*
X-11776467Y836443D01*
X-11719853Y853616D01*
X-11606627Y887963D01*
X-11540442Y894482D01*
X-11474260Y901000D01*
X-11385740Y901000D01*
X-11319558Y894482D01*
X-11319558Y894482D01*
G37*
G36*
X-8627188Y866376D02*
X-8463216Y798456D01*
X-8315646Y699853D01*
X-8190147Y574354D01*
X-8091544Y426784D01*
X-8023624Y262812D01*
X-7989000Y88741D01*
X-7989000Y-88741D01*
X-8023624Y-262812D01*
X-8091544Y-426784D01*
X-8190147Y-574354D01*
X-8315646Y-699853D01*
X-8463216Y-798456D01*
X-8627188Y-866376D01*
X-8801259Y-901000D01*
X-8978741Y-901000D01*
X-9152812Y-866376D01*
X-9316784Y-798456D01*
X-9464354Y-699853D01*
X-9589853Y-574354D01*
X-9688456Y-426784D01*
X-9756376Y-262812D01*
X-9791000Y-88741D01*
X-9791000Y88741D01*
X-9756376Y262812D01*
X-9688456Y426784D01*
X-9589853Y574354D01*
X-9464354Y699853D01*
X-9316784Y798456D01*
X-9152812Y866376D01*
X-8978741Y901000D01*
X-8801259Y901000D01*
X-8627188Y866376D01*
X-8627188Y866376D01*
G37*
G36*
X-6239558Y894482D02*
X-6173373Y887963D01*
X-6060147Y853616D01*
X-6003533Y836443D01*
X-5864913Y762348D01*
X-5847009Y752778D01*
X-5811271Y723448D01*
X-5709814Y640186D01*
X-5626552Y538729D01*
X-5597222Y502991D01*
X-5597221Y502989D01*
X-5513557Y346467D01*
X-5513557Y346466D01*
X-5462037Y176627D01*
X-5444641Y0D01*
X-5462037Y-176627D01*
X-5465972Y-189598D01*
X-5513557Y-346467D01*
X-5549844Y-414354D01*
X-5597222Y-502991D01*
X-5598779Y-504888D01*
X-5709814Y-640186D01*
X-5782520Y-699853D01*
X-5847009Y-752778D01*
X-5847011Y-752779D01*
X-6003533Y-836443D01*
X-6060147Y-853616D01*
X-6173373Y-887963D01*
X-6239558Y-894482D01*
X-6305740Y-901000D01*
X-6394260Y-901000D01*
X-6460442Y-894482D01*
X-6526627Y-887963D01*
X-6639853Y-853616D01*
X-6696467Y-836443D01*
X-6852989Y-752779D01*
X-6852991Y-752778D01*
X-6917480Y-699853D01*
X-6990186Y-640186D01*
X-7101221Y-504888D01*
X-7102778Y-502991D01*
X-7150156Y-414354D01*
X-7186443Y-346467D01*
X-7234028Y-189598D01*
X-7237963Y-176627D01*
X-7255359Y0D01*
X-7237963Y176627D01*
X-7186443Y346466D01*
X-7186443Y346467D01*
X-7102779Y502989D01*
X-7102778Y502991D01*
X-7073448Y538729D01*
X-6990186Y640186D01*
X-6888729Y723448D01*
X-6852991Y752778D01*
X-6835087Y762348D01*
X-6696467Y836443D01*
X-6639853Y853616D01*
X-6526627Y887963D01*
X-6460442Y894482D01*
X-6394260Y901000D01*
X-6305740Y901000D01*
X-6239558Y894482D01*
X-6239558Y894482D01*
G37*
G36*
X-3699558Y894482D02*
X-3633373Y887963D01*
X-3520147Y853616D01*
X-3463533Y836443D01*
X-3324913Y762348D01*
X-3307009Y752778D01*
X-3271271Y723448D01*
X-3169814Y640186D01*
X-3086552Y538729D01*
X-3057222Y502991D01*
X-3057221Y502989D01*
X-2973557Y346467D01*
X-2973557Y346466D01*
X-2922037Y176627D01*
X-2904641Y0D01*
X-2922037Y-176627D01*
X-2925972Y-189598D01*
X-2973557Y-346467D01*
X-3009844Y-414354D01*
X-3057222Y-502991D01*
X-3058779Y-504888D01*
X-3169814Y-640186D01*
X-3242520Y-699853D01*
X-3307009Y-752778D01*
X-3307011Y-752779D01*
X-3463533Y-836443D01*
X-3520147Y-853616D01*
X-3633373Y-887963D01*
X-3699558Y-894482D01*
X-3765740Y-901000D01*
X-3854260Y-901000D01*
X-3920442Y-894482D01*
X-3986627Y-887963D01*
X-4099853Y-853616D01*
X-4156467Y-836443D01*
X-4312989Y-752779D01*
X-4312991Y-752778D01*
X-4377480Y-699853D01*
X-4450186Y-640186D01*
X-4561221Y-504888D01*
X-4562778Y-502991D01*
X-4610156Y-414354D01*
X-4646443Y-346467D01*
X-4694028Y-189598D01*
X-4697963Y-176627D01*
X-4715359Y0D01*
X-4697963Y176627D01*
X-4646443Y346466D01*
X-4646443Y346467D01*
X-4562779Y502989D01*
X-4562778Y502991D01*
X-4533448Y538729D01*
X-4450186Y640186D01*
X-4348729Y723448D01*
X-4312991Y752778D01*
X-4295087Y762348D01*
X-4156467Y836443D01*
X-4099853Y853616D01*
X-3986627Y887963D01*
X-3920442Y894482D01*
X-3854260Y901000D01*
X-3765740Y901000D01*
X-3699558Y894482D01*
X-3699558Y894482D01*
G37*
G36*
X-1159558Y894482D02*
X-1093373Y887963D01*
X-980147Y853616D01*
X-923533Y836443D01*
X-784913Y762348D01*
X-767009Y752778D01*
X-731271Y723448D01*
X-629814Y640186D01*
X-546552Y538729D01*
X-517222Y502991D01*
X-517221Y502989D01*
X-433557Y346467D01*
X-433557Y346466D01*
X-382037Y176627D01*
X-364641Y0D01*
X-382037Y-176627D01*
X-385972Y-189598D01*
X-433557Y-346467D01*
X-469844Y-414354D01*
X-517222Y-502991D01*
X-518779Y-504888D01*
X-629814Y-640186D01*
X-702520Y-699853D01*
X-767009Y-752778D01*
X-767011Y-752779D01*
X-923533Y-836443D01*
X-980147Y-853616D01*
X-1093373Y-887963D01*
X-1159558Y-894482D01*
X-1225740Y-901000D01*
X-1314260Y-901000D01*
X-1380442Y-894482D01*
X-1446627Y-887963D01*
X-1559853Y-853616D01*
X-1616467Y-836443D01*
X-1772989Y-752779D01*
X-1772991Y-752778D01*
X-1837480Y-699853D01*
X-1910186Y-640186D01*
X-2021221Y-504888D01*
X-2022778Y-502991D01*
X-2070156Y-414354D01*
X-2106443Y-346467D01*
X-2154028Y-189598D01*
X-2157963Y-176627D01*
X-2175359Y0D01*
X-2157963Y176627D01*
X-2106443Y346466D01*
X-2106443Y346467D01*
X-2022779Y502989D01*
X-2022778Y502991D01*
X-1993448Y538729D01*
X-1910186Y640186D01*
X-1808729Y723448D01*
X-1772991Y752778D01*
X-1755087Y762348D01*
X-1616467Y836443D01*
X-1559853Y853616D01*
X-1446627Y887963D01*
X-1380442Y894482D01*
X-1314260Y901000D01*
X-1225740Y901000D01*
X-1159558Y894482D01*
X-1159558Y894482D01*
G37*
G36*
X1380442Y894482D02*
X1446627Y887963D01*
X1559853Y853616D01*
X1616467Y836443D01*
X1755087Y762348D01*
X1772991Y752778D01*
X1808729Y723448D01*
X1910186Y640186D01*
X1993448Y538729D01*
X2022778Y502991D01*
X2022779Y502989D01*
X2106443Y346467D01*
X2106443Y346466D01*
X2157963Y176627D01*
X2175359Y0D01*
X2157963Y-176627D01*
X2154028Y-189598D01*
X2106443Y-346467D01*
X2070156Y-414354D01*
X2022778Y-502991D01*
X2021221Y-504888D01*
X1910186Y-640186D01*
X1837480Y-699853D01*
X1772991Y-752778D01*
X1772989Y-752779D01*
X1616467Y-836443D01*
X1559853Y-853616D01*
X1446627Y-887963D01*
X1380442Y-894482D01*
X1314260Y-901000D01*
X1225740Y-901000D01*
X1159558Y-894482D01*
X1093373Y-887963D01*
X980147Y-853616D01*
X923533Y-836443D01*
X767011Y-752779D01*
X767009Y-752778D01*
X702520Y-699853D01*
X629814Y-640186D01*
X518779Y-504888D01*
X517222Y-502991D01*
X469844Y-414354D01*
X433557Y-346467D01*
X385972Y-189598D01*
X382037Y-176627D01*
X364641Y0D01*
X382037Y176627D01*
X433557Y346466D01*
X433557Y346467D01*
X517221Y502989D01*
X517222Y502991D01*
X546552Y538729D01*
X629814Y640186D01*
X731271Y723448D01*
X767009Y752778D01*
X784913Y762348D01*
X923533Y836443D01*
X980147Y853616D01*
X1093373Y887963D01*
X1159558Y894482D01*
X1225740Y901000D01*
X1314260Y901000D01*
X1380442Y894482D01*
X1380442Y894482D01*
G37*
G36*
X3920442Y894482D02*
X3986627Y887963D01*
X4099853Y853616D01*
X4156467Y836443D01*
X4295087Y762348D01*
X4312991Y752778D01*
X4348729Y723448D01*
X4450186Y640186D01*
X4533448Y538729D01*
X4562778Y502991D01*
X4562779Y502989D01*
X4646443Y346467D01*
X4646443Y346466D01*
X4697963Y176627D01*
X4715359Y0D01*
X4697963Y-176627D01*
X4694028Y-189598D01*
X4646443Y-346467D01*
X4610156Y-414354D01*
X4562778Y-502991D01*
X4561221Y-504888D01*
X4450186Y-640186D01*
X4377480Y-699853D01*
X4312991Y-752778D01*
X4312989Y-752779D01*
X4156467Y-836443D01*
X4099853Y-853616D01*
X3986627Y-887963D01*
X3920442Y-894482D01*
X3854260Y-901000D01*
X3765740Y-901000D01*
X3699558Y-894482D01*
X3633373Y-887963D01*
X3520147Y-853616D01*
X3463533Y-836443D01*
X3307011Y-752779D01*
X3307009Y-752778D01*
X3242520Y-699853D01*
X3169814Y-640186D01*
X3058779Y-504888D01*
X3057222Y-502991D01*
X3009844Y-414354D01*
X2973557Y-346467D01*
X2925972Y-189598D01*
X2922037Y-176627D01*
X2904641Y0D01*
X2922037Y176627D01*
X2973557Y346466D01*
X2973557Y346467D01*
X3057221Y502989D01*
X3057222Y502991D01*
X3086552Y538729D01*
X3169814Y640186D01*
X3271271Y723448D01*
X3307009Y752778D01*
X3324913Y762348D01*
X3463533Y836443D01*
X3520147Y853616D01*
X3633373Y887963D01*
X3699558Y894482D01*
X3765740Y901000D01*
X3854260Y901000D01*
X3920442Y894482D01*
X3920442Y894482D01*
G37*
G36*
X6460442Y894482D02*
X6526627Y887963D01*
X6639853Y853616D01*
X6696467Y836443D01*
X6835087Y762348D01*
X6852991Y752778D01*
X6888729Y723448D01*
X6990186Y640186D01*
X7073448Y538729D01*
X7102778Y502991D01*
X7102779Y502989D01*
X7186443Y346467D01*
X7186443Y346466D01*
X7237963Y176627D01*
X7255359Y0D01*
X7237963Y-176627D01*
X7234028Y-189598D01*
X7186443Y-346467D01*
X7150156Y-414354D01*
X7102778Y-502991D01*
X7101221Y-504888D01*
X6990186Y-640186D01*
X6917480Y-699853D01*
X6852991Y-752778D01*
X6852989Y-752779D01*
X6696467Y-836443D01*
X6639853Y-853616D01*
X6526627Y-887963D01*
X6460442Y-894482D01*
X6394260Y-901000D01*
X6305740Y-901000D01*
X6239558Y-894482D01*
X6173373Y-887963D01*
X6060147Y-853616D01*
X6003533Y-836443D01*
X5847011Y-752779D01*
X5847009Y-752778D01*
X5782520Y-699853D01*
X5709814Y-640186D01*
X5598779Y-504888D01*
X5597222Y-502991D01*
X5549844Y-414354D01*
X5513557Y-346467D01*
X5465972Y-189598D01*
X5462037Y-176627D01*
X5444641Y0D01*
X5462037Y176627D01*
X5513557Y346466D01*
X5513557Y346467D01*
X5597221Y502989D01*
X5597222Y502991D01*
X5626552Y538729D01*
X5709814Y640186D01*
X5811271Y723448D01*
X5847009Y752778D01*
X5864913Y762348D01*
X6003533Y836443D01*
X6060147Y853616D01*
X6173373Y887963D01*
X6239558Y894482D01*
X6305740Y901000D01*
X6394260Y901000D01*
X6460442Y894482D01*
X6460442Y894482D01*
G37*
G36*
X11577738Y633347D02*
X11619598Y625021D01*
X11654245Y610670D01*
X11737890Y576023D01*
X11844354Y504886D01*
X11934886Y414354D01*
X12006023Y307890D01*
X12055021Y189597D01*
X12080000Y64021D01*
X12080000Y-64021D01*
X12055021Y-189597D01*
X12006023Y-307890D01*
X11934886Y-414354D01*
X11844354Y-504886D01*
X11737890Y-576023D01*
X11654245Y-610670D01*
X11619598Y-625021D01*
X11577738Y-633347D01*
X11494021Y-650000D01*
X11365979Y-650000D01*
X11282262Y-633347D01*
X11240402Y-625021D01*
X11205755Y-610670D01*
X11122110Y-576023D01*
X11015646Y-504886D01*
X10925114Y-414354D01*
X10853977Y-307890D01*
X10804979Y-189597D01*
X10780000Y-64021D01*
X10780000Y64021D01*
X10804979Y189597D01*
X10853977Y307890D01*
X10925114Y414354D01*
X11015646Y504886D01*
X11122110Y576023D01*
X11205755Y610670D01*
X11240402Y625021D01*
X11282262Y633347D01*
X11365979Y650000D01*
X11494021Y650000D01*
X11577738Y633347D01*
X11577738Y633347D01*
G37*
G36*
X-3547188Y3406376D02*
X-3383216Y3338456D01*
X-3235646Y3239853D01*
X-3110147Y3114354D01*
X-3011544Y2966784D01*
X-2943624Y2802812D01*
X-2909000Y2628741D01*
X-2909000Y2451259D01*
X-2943624Y2277188D01*
X-3011544Y2113216D01*
X-3110147Y1965646D01*
X-3235646Y1840147D01*
X-3383216Y1741544D01*
X-3547188Y1673624D01*
X-3721259Y1639000D01*
X-3898741Y1639000D01*
X-4072812Y1673624D01*
X-4236784Y1741544D01*
X-4384354Y1840147D01*
X-4509853Y1965646D01*
X-4608456Y2113216D01*
X-4676376Y2277188D01*
X-4711000Y2451259D01*
X-4711000Y2628741D01*
X-4676376Y2802812D01*
X-4608456Y2966784D01*
X-4509853Y3114354D01*
X-4384354Y3239853D01*
X-4236784Y3338456D01*
X-4072812Y3406376D01*
X-3898741Y3441000D01*
X-3721259Y3441000D01*
X-3547188Y3406376D01*
X-3547188Y3406376D01*
G37*
G36*
X3920443Y3434481D02*
X3986627Y3427963D01*
X4099853Y3393616D01*
X4156467Y3376443D01*
X4295087Y3302348D01*
X4312991Y3292778D01*
X4348729Y3263448D01*
X4450186Y3180186D01*
X4533448Y3078729D01*
X4562778Y3042991D01*
X4562779Y3042989D01*
X4646443Y2886467D01*
X4646443Y2886466D01*
X4697963Y2716627D01*
X4715359Y2540000D01*
X4697963Y2363373D01*
X4671819Y2277188D01*
X4646443Y2193533D01*
X4603513Y2113218D01*
X4562778Y2037009D01*
X4533448Y2001271D01*
X4450186Y1899814D01*
X4377480Y1840147D01*
X4312991Y1787222D01*
X4312989Y1787221D01*
X4156467Y1703557D01*
X4099853Y1686384D01*
X3986627Y1652037D01*
X3920443Y1645519D01*
X3854260Y1639000D01*
X3765740Y1639000D01*
X3699557Y1645519D01*
X3633373Y1652037D01*
X3520147Y1686384D01*
X3463533Y1703557D01*
X3307011Y1787221D01*
X3307009Y1787222D01*
X3242520Y1840147D01*
X3169814Y1899814D01*
X3086552Y2001271D01*
X3057222Y2037009D01*
X3016487Y2113218D01*
X2973557Y2193533D01*
X2948181Y2277188D01*
X2922037Y2363373D01*
X2904641Y2540000D01*
X2922037Y2716627D01*
X2973557Y2886466D01*
X2973557Y2886467D01*
X3057221Y3042989D01*
X3057222Y3042991D01*
X3086552Y3078729D01*
X3169814Y3180186D01*
X3271271Y3263448D01*
X3307009Y3292778D01*
X3324913Y3302348D01*
X3463533Y3376443D01*
X3520147Y3393616D01*
X3633373Y3427963D01*
X3699557Y3434481D01*
X3765740Y3441000D01*
X3854260Y3441000D01*
X3920443Y3434481D01*
X3920443Y3434481D01*
G37*
G36*
X1380443Y3434481D02*
X1446627Y3427963D01*
X1559853Y3393616D01*
X1616467Y3376443D01*
X1755087Y3302348D01*
X1772991Y3292778D01*
X1808729Y3263448D01*
X1910186Y3180186D01*
X1993448Y3078729D01*
X2022778Y3042991D01*
X2022779Y3042989D01*
X2106443Y2886467D01*
X2106443Y2886466D01*
X2157963Y2716627D01*
X2175359Y2540000D01*
X2157963Y2363373D01*
X2131819Y2277188D01*
X2106443Y2193533D01*
X2063513Y2113218D01*
X2022778Y2037009D01*
X1993448Y2001271D01*
X1910186Y1899814D01*
X1837480Y1840147D01*
X1772991Y1787222D01*
X1772989Y1787221D01*
X1616467Y1703557D01*
X1559853Y1686384D01*
X1446627Y1652037D01*
X1380443Y1645519D01*
X1314260Y1639000D01*
X1225740Y1639000D01*
X1159557Y1645519D01*
X1093373Y1652037D01*
X980147Y1686384D01*
X923533Y1703557D01*
X767011Y1787221D01*
X767009Y1787222D01*
X702520Y1840147D01*
X629814Y1899814D01*
X546552Y2001271D01*
X517222Y2037009D01*
X476487Y2113218D01*
X433557Y2193533D01*
X408181Y2277188D01*
X382037Y2363373D01*
X364641Y2540000D01*
X382037Y2716627D01*
X433557Y2886466D01*
X433557Y2886467D01*
X517221Y3042989D01*
X517222Y3042991D01*
X546552Y3078729D01*
X629814Y3180186D01*
X731271Y3263448D01*
X767009Y3292778D01*
X784913Y3302348D01*
X923533Y3376443D01*
X980147Y3393616D01*
X1093373Y3427963D01*
X1159557Y3434481D01*
X1225740Y3441000D01*
X1314260Y3441000D01*
X1380443Y3434481D01*
X1380443Y3434481D01*
G37*
G36*
X-11167188Y3406376D02*
X-11003216Y3338456D01*
X-10855646Y3239853D01*
X-10730147Y3114354D01*
X-10631544Y2966784D01*
X-10563624Y2802812D01*
X-10529000Y2628741D01*
X-10529000Y2451259D01*
X-10563624Y2277188D01*
X-10631544Y2113216D01*
X-10730147Y1965646D01*
X-10855646Y1840147D01*
X-11003216Y1741544D01*
X-11167188Y1673624D01*
X-11341259Y1639000D01*
X-11518741Y1639000D01*
X-11692812Y1673624D01*
X-11856784Y1741544D01*
X-12004354Y1840147D01*
X-12129853Y1965646D01*
X-12228456Y2113216D01*
X-12296376Y2277188D01*
X-12331000Y2451259D01*
X-12331000Y2628741D01*
X-12296376Y2802812D01*
X-12228456Y2966784D01*
X-12129853Y3114354D01*
X-12004354Y3239853D01*
X-11856784Y3338456D01*
X-11692812Y3406376D01*
X-11518741Y3441000D01*
X-11341259Y3441000D01*
X-11167188Y3406376D01*
X-11167188Y3406376D01*
G37*
G36*
X-1159557Y3434481D02*
X-1093373Y3427963D01*
X-980147Y3393616D01*
X-923533Y3376443D01*
X-784913Y3302348D01*
X-767009Y3292778D01*
X-731271Y3263448D01*
X-629814Y3180186D01*
X-546552Y3078729D01*
X-517222Y3042991D01*
X-517221Y3042989D01*
X-433557Y2886467D01*
X-433557Y2886466D01*
X-382037Y2716627D01*
X-364641Y2540000D01*
X-382037Y2363373D01*
X-408181Y2277188D01*
X-433557Y2193533D01*
X-476487Y2113218D01*
X-517222Y2037009D01*
X-546552Y2001271D01*
X-629814Y1899814D01*
X-702520Y1840147D01*
X-767009Y1787222D01*
X-767011Y1787221D01*
X-923533Y1703557D01*
X-980147Y1686384D01*
X-1093373Y1652037D01*
X-1159557Y1645519D01*
X-1225740Y1639000D01*
X-1314260Y1639000D01*
X-1380443Y1645519D01*
X-1446627Y1652037D01*
X-1559853Y1686384D01*
X-1616467Y1703557D01*
X-1772989Y1787221D01*
X-1772991Y1787222D01*
X-1837480Y1840147D01*
X-1910186Y1899814D01*
X-1993448Y2001271D01*
X-2022778Y2037009D01*
X-2063513Y2113218D01*
X-2106443Y2193533D01*
X-2131819Y2277188D01*
X-2157963Y2363373D01*
X-2175359Y2540000D01*
X-2157963Y2716627D01*
X-2106443Y2886466D01*
X-2106443Y2886467D01*
X-2022779Y3042989D01*
X-2022778Y3042991D01*
X-1993448Y3078729D01*
X-1910186Y3180186D01*
X-1808729Y3263448D01*
X-1772991Y3292778D01*
X-1755087Y3302348D01*
X-1616467Y3376443D01*
X-1559853Y3393616D01*
X-1446627Y3427963D01*
X-1380443Y3434481D01*
X-1314260Y3441000D01*
X-1225740Y3441000D01*
X-1159557Y3434481D01*
X-1159557Y3434481D01*
G37*
G36*
X7791000Y4449000D02*
X6789000Y4449000D01*
X6789000Y6551000D01*
X7791000Y6551000D01*
X7791000Y4449000D01*
X7791000Y4449000D01*
G37*
G36*
X10331000Y4449000D02*
X9329000Y4449000D01*
X9329000Y6551000D01*
X10331000Y6551000D01*
X10331000Y4449000D01*
X10331000Y4449000D01*
G37*
G36*
X9061000Y4449000D02*
X8059000Y4449000D01*
X8059000Y6551000D01*
X9061000Y6551000D01*
X9061000Y4449000D01*
X9061000Y4449000D01*
G37*
G36*
X6521000Y4449000D02*
X5519000Y4449000D01*
X5519000Y6551000D01*
X6521000Y6551000D01*
X6521000Y4449000D01*
X6521000Y4449000D01*
G37*
G36*
X5251000Y4449000D02*
X4249000Y4449000D01*
X4249000Y6551000D01*
X5251000Y6551000D01*
X5251000Y4449000D01*
X5251000Y4449000D01*
G37*
G36*
X3981000Y4449000D02*
X2979000Y4449000D01*
X2979000Y6551000D01*
X3981000Y6551000D01*
X3981000Y4449000D01*
X3981000Y4449000D01*
G37*
G36*
X2711000Y4449000D02*
X1709000Y4449000D01*
X1709000Y6551000D01*
X2711000Y6551000D01*
X2711000Y4449000D01*
X2711000Y4449000D01*
G37*
G36*
X1441000Y4449000D02*
X439000Y4449000D01*
X439000Y6551000D01*
X1441000Y6551000D01*
X1441000Y4449000D01*
X1441000Y4449000D01*
G37*
G36*
X171000Y4449000D02*
X-831000Y4449000D01*
X-831000Y6551000D01*
X171000Y6551000D01*
X171000Y4449000D01*
X171000Y4449000D01*
G37*
G36*
X-3639000Y4449000D02*
X-4641000Y4449000D01*
X-4641000Y6551000D01*
X-3639000Y6551000D01*
X-3639000Y4449000D01*
X-3639000Y4449000D01*
G37*
G36*
X-4909000Y4449000D02*
X-5911000Y4449000D01*
X-5911000Y6551000D01*
X-4909000Y6551000D01*
X-4909000Y4449000D01*
X-4909000Y4449000D01*
G37*
G36*
X-6179000Y4449000D02*
X-7181000Y4449000D01*
X-7181000Y6551000D01*
X-6179000Y6551000D01*
X-6179000Y4449000D01*
X-6179000Y4449000D01*
G37*
G36*
X-7449000Y4449000D02*
X-8451000Y4449000D01*
X-8451000Y6551000D01*
X-7449000Y6551000D01*
X-7449000Y4449000D01*
X-7449000Y4449000D01*
G37*
G36*
X-8719000Y4449000D02*
X-9721000Y4449000D01*
X-9721000Y6551000D01*
X-8719000Y6551000D01*
X-8719000Y4449000D01*
X-8719000Y4449000D01*
G37*
G36*
X-9989000Y4449000D02*
X-10991000Y4449000D01*
X-10991000Y6551000D01*
X-9989000Y6551000D01*
X-9989000Y4449000D01*
X-9989000Y4449000D01*
G37*
G36*
X-11259000Y4449000D02*
X-12261000Y4449000D01*
X-12261000Y6551000D01*
X-11259000Y6551000D01*
X-11259000Y4449000D01*
X-11259000Y4449000D01*
G37*
G36*
X11601000Y4449000D02*
X10599000Y4449000D01*
X10599000Y6551000D01*
X11601000Y6551000D01*
X11601000Y4449000D01*
X11601000Y4449000D01*
G37*
G36*
X-2369000Y4449000D02*
X-3371000Y4449000D01*
X-3371000Y6551000D01*
X-2369000Y6551000D01*
X-2369000Y4449000D01*
X-2369000Y4449000D01*
G37*
G36*
X-1099000Y4449000D02*
X-2101000Y4449000D01*
X-2101000Y6551000D01*
X-1099000Y6551000D01*
X-1099000Y4449000D01*
X-1099000Y4449000D01*
G37*
G36*
X10358015Y9123027D02*
X10461879Y9091521D01*
X10557600Y9040356D01*
X10641501Y8971501D01*
X10710356Y8887600D01*
X10761521Y8791879D01*
X10793027Y8688015D01*
X10803666Y8580000D01*
X10793027Y8471985D01*
X10761521Y8368121D01*
X10710356Y8272400D01*
X10641501Y8188499D01*
X10557600Y8119644D01*
X10461879Y8068479D01*
X10358015Y8036973D01*
X10277067Y8029000D01*
X9622933Y8029000D01*
X9541985Y8036973D01*
X9438121Y8068479D01*
X9342400Y8119644D01*
X9258499Y8188499D01*
X9189644Y8272400D01*
X9138479Y8368121D01*
X9106973Y8471985D01*
X9096334Y8580000D01*
X9106973Y8688015D01*
X9138479Y8791879D01*
X9189644Y8887600D01*
X9258499Y8971501D01*
X9342400Y9040356D01*
X9438121Y9091521D01*
X9541985Y9123027D01*
X9622933Y9131000D01*
X10277067Y9131000D01*
X10358015Y9123027D01*
X10358015Y9123027D01*
G37*
G36*
X6428015Y9123027D02*
X6531879Y9091521D01*
X6627600Y9040356D01*
X6711501Y8971501D01*
X6780356Y8887600D01*
X6831521Y8791879D01*
X6863027Y8688015D01*
X6873666Y8580000D01*
X6863027Y8471985D01*
X6831521Y8368121D01*
X6780356Y8272400D01*
X6711501Y8188499D01*
X6627600Y8119644D01*
X6531879Y8068479D01*
X6428015Y8036973D01*
X6347067Y8029000D01*
X5192933Y8029000D01*
X5111985Y8036973D01*
X5008121Y8068479D01*
X4912400Y8119644D01*
X4828499Y8188499D01*
X4759644Y8272400D01*
X4708479Y8368121D01*
X4676973Y8471985D01*
X4666334Y8580000D01*
X4676973Y8688015D01*
X4708479Y8791879D01*
X4759644Y8887600D01*
X4828499Y8971501D01*
X4912400Y9040356D01*
X5008121Y9091521D01*
X5111985Y9123027D01*
X5192933Y9131000D01*
X6347067Y9131000D01*
X6428015Y9123027D01*
X6428015Y9123027D01*
G37*
G36*
X6409672Y10371551D02*
X6409674Y10371550D01*
X6409675Y10371550D01*
X6478103Y10343207D01*
X6539409Y10302243D01*
X6539689Y10302056D01*
X6592056Y10249689D01*
X6592058Y10249686D01*
X6633207Y10188103D01*
X6661550Y10119675D01*
X6676000Y10047033D01*
X6676000Y9972967D01*
X6661550Y9900325D01*
X6633207Y9831897D01*
X6592243Y9770591D01*
X6592056Y9770311D01*
X6539689Y9717944D01*
X6539686Y9717942D01*
X6478103Y9676793D01*
X6409675Y9648450D01*
X6409674Y9648450D01*
X6409672Y9648449D01*
X6337034Y9634000D01*
X6262966Y9634000D01*
X6190328Y9648449D01*
X6190326Y9648450D01*
X6190325Y9648450D01*
X6121897Y9676793D01*
X6060314Y9717942D01*
X6060311Y9717944D01*
X6007944Y9770311D01*
X6007757Y9770591D01*
X5966793Y9831897D01*
X5938450Y9900325D01*
X5924000Y9972967D01*
X5924000Y10047033D01*
X5938450Y10119675D01*
X5966793Y10188103D01*
X6007942Y10249686D01*
X6007944Y10249689D01*
X6060311Y10302056D01*
X6060591Y10302243D01*
X6121897Y10343207D01*
X6190325Y10371550D01*
X6190326Y10371550D01*
X6190328Y10371551D01*
X6262966Y10386000D01*
X6337034Y10386000D01*
X6409672Y10371551D01*
X6409672Y10371551D01*
G37*
G36*
X-1709000Y12449000D02*
X-6811000Y12449000D01*
X-6811000Y17551000D01*
X-1709000Y17551000D01*
X-1709000Y12449000D01*
X-1709000Y12449000D01*
G37*
G36*
X6409672Y16151551D02*
X6409674Y16151550D01*
X6409675Y16151550D01*
X6478103Y16123207D01*
X6539409Y16082243D01*
X6539689Y16082056D01*
X6592056Y16029689D01*
X6592058Y16029686D01*
X6633207Y15968103D01*
X6661550Y15899675D01*
X6676000Y15827033D01*
X6676000Y15752967D01*
X6661550Y15680325D01*
X6633207Y15611897D01*
X6592243Y15550591D01*
X6592056Y15550311D01*
X6539689Y15497944D01*
X6539686Y15497942D01*
X6478103Y15456793D01*
X6409675Y15428450D01*
X6409674Y15428450D01*
X6409672Y15428449D01*
X6337034Y15414000D01*
X6262966Y15414000D01*
X6190328Y15428449D01*
X6190326Y15428450D01*
X6190325Y15428450D01*
X6121897Y15456793D01*
X6060314Y15497942D01*
X6060311Y15497944D01*
X6007944Y15550311D01*
X6007757Y15550591D01*
X5966793Y15611897D01*
X5938450Y15680325D01*
X5924000Y15752967D01*
X5924000Y15827033D01*
X5938450Y15899675D01*
X5966793Y15968103D01*
X6007942Y16029686D01*
X6007944Y16029689D01*
X6060311Y16082056D01*
X6060591Y16082243D01*
X6121897Y16123207D01*
X6190325Y16151550D01*
X6190326Y16151550D01*
X6190328Y16151551D01*
X6262966Y16166000D01*
X6337034Y16166000D01*
X6409672Y16151551D01*
X6409672Y16151551D01*
G37*
G36*
X10358015Y17763027D02*
X10461879Y17731521D01*
X10557600Y17680356D01*
X10641501Y17611501D01*
X10710356Y17527600D01*
X10761521Y17431879D01*
X10793027Y17328015D01*
X10803666Y17220000D01*
X10793027Y17111985D01*
X10761521Y17008121D01*
X10710356Y16912400D01*
X10641501Y16828499D01*
X10557600Y16759644D01*
X10461879Y16708479D01*
X10358015Y16676973D01*
X10277067Y16669000D01*
X9622933Y16669000D01*
X9541985Y16676973D01*
X9438121Y16708479D01*
X9342400Y16759644D01*
X9258499Y16828499D01*
X9189644Y16912400D01*
X9138479Y17008121D01*
X9106973Y17111985D01*
X9096334Y17220000D01*
X9106973Y17328015D01*
X9138479Y17431879D01*
X9189644Y17527600D01*
X9258499Y17611501D01*
X9342400Y17680356D01*
X9438121Y17731521D01*
X9541985Y17763027D01*
X9622933Y17771000D01*
X10277067Y17771000D01*
X10358015Y17763027D01*
X10358015Y17763027D01*
G37*
G36*
X6428015Y17763027D02*
X6531879Y17731521D01*
X6627600Y17680356D01*
X6711501Y17611501D01*
X6780356Y17527600D01*
X6831521Y17431879D01*
X6863027Y17328015D01*
X6873666Y17220000D01*
X6863027Y17111985D01*
X6831521Y17008121D01*
X6780356Y16912400D01*
X6711501Y16828499D01*
X6627600Y16759644D01*
X6531879Y16708479D01*
X6428015Y16676973D01*
X6347067Y16669000D01*
X5192933Y16669000D01*
X5111985Y16676973D01*
X5008121Y16708479D01*
X4912400Y16759644D01*
X4828499Y16828499D01*
X4759644Y16912400D01*
X4708479Y17008121D01*
X4676973Y17111985D01*
X4666334Y17220000D01*
X4676973Y17328015D01*
X4708479Y17431879D01*
X4759644Y17527600D01*
X4828499Y17611501D01*
X4912400Y17680356D01*
X5008121Y17731521D01*
X5111985Y17763027D01*
X5192933Y17771000D01*
X6347067Y17771000D01*
X6428015Y17763027D01*
X6428015Y17763027D01*
G37*
G36*
X11601000Y21449000D02*
X10599000Y21449000D01*
X10599000Y23551000D01*
X11601000Y23551000D01*
X11601000Y21449000D01*
X11601000Y21449000D01*
G37*
G36*
X9061000Y21449000D02*
X8059000Y21449000D01*
X8059000Y23551000D01*
X9061000Y23551000D01*
X9061000Y21449000D01*
X9061000Y21449000D01*
G37*
G36*
X-9989000Y21449000D02*
X-10991000Y21449000D01*
X-10991000Y23551000D01*
X-9989000Y23551000D01*
X-9989000Y21449000D01*
X-9989000Y21449000D01*
G37*
G36*
X7791000Y21449000D02*
X6789000Y21449000D01*
X6789000Y23551000D01*
X7791000Y23551000D01*
X7791000Y21449000D01*
X7791000Y21449000D01*
G37*
G36*
X6521000Y21449000D02*
X5519000Y21449000D01*
X5519000Y23551000D01*
X6521000Y23551000D01*
X6521000Y21449000D01*
X6521000Y21449000D01*
G37*
G36*
X5251000Y21449000D02*
X4249000Y21449000D01*
X4249000Y23551000D01*
X5251000Y23551000D01*
X5251000Y21449000D01*
X5251000Y21449000D01*
G37*
G36*
X3981000Y21449000D02*
X2979000Y21449000D01*
X2979000Y23551000D01*
X3981000Y23551000D01*
X3981000Y21449000D01*
X3981000Y21449000D01*
G37*
G36*
X2711000Y21449000D02*
X1709000Y21449000D01*
X1709000Y23551000D01*
X2711000Y23551000D01*
X2711000Y21449000D01*
X2711000Y21449000D01*
G37*
G36*
X1441000Y21449000D02*
X439000Y21449000D01*
X439000Y23551000D01*
X1441000Y23551000D01*
X1441000Y21449000D01*
X1441000Y21449000D01*
G37*
G36*
X10331000Y21449000D02*
X9329000Y21449000D01*
X9329000Y23551000D01*
X10331000Y23551000D01*
X10331000Y21449000D01*
X10331000Y21449000D01*
G37*
G36*
X-1099000Y21449000D02*
X-2101000Y21449000D01*
X-2101000Y23551000D01*
X-1099000Y23551000D01*
X-1099000Y21449000D01*
X-1099000Y21449000D01*
G37*
G36*
X-2369000Y21449000D02*
X-3371000Y21449000D01*
X-3371000Y23551000D01*
X-2369000Y23551000D01*
X-2369000Y21449000D01*
X-2369000Y21449000D01*
G37*
G36*
X-3639000Y21449000D02*
X-4641000Y21449000D01*
X-4641000Y23551000D01*
X-3639000Y23551000D01*
X-3639000Y21449000D01*
X-3639000Y21449000D01*
G37*
G36*
X-4909000Y21449000D02*
X-5911000Y21449000D01*
X-5911000Y23551000D01*
X-4909000Y23551000D01*
X-4909000Y21449000D01*
X-4909000Y21449000D01*
G37*
G36*
X-6179000Y21449000D02*
X-7181000Y21449000D01*
X-7181000Y23551000D01*
X-6179000Y23551000D01*
X-6179000Y21449000D01*
X-6179000Y21449000D01*
G37*
G36*
X-7449000Y21449000D02*
X-8451000Y21449000D01*
X-8451000Y23551000D01*
X-7449000Y23551000D01*
X-7449000Y21449000D01*
X-7449000Y21449000D01*
G37*
G36*
X-8719000Y21449000D02*
X-9721000Y21449000D01*
X-9721000Y23551000D01*
X-8719000Y23551000D01*
X-8719000Y21449000D01*
X-8719000Y21449000D01*
G37*
G36*
X171000Y21449000D02*
X-831000Y21449000D01*
X-831000Y23551000D01*
X171000Y23551000D01*
X171000Y21449000D01*
X171000Y21449000D01*
G37*
G36*
X-11259000Y21449000D02*
X-12261000Y21449000D01*
X-12261000Y23551000D01*
X-11259000Y23551000D01*
X-11259000Y21449000D01*
X-11259000Y21449000D01*
G37*
G36*
X8000000Y25000000D02*
X2000000Y25000000D01*
X2000000Y32000000D01*
X8000000Y32000000D01*
X8000000Y25000000D01*
X8000000Y25000000D01*
G37*
G36*
X-2000000Y25000000D02*
X-8000000Y25000000D01*
X-8000000Y32000000D01*
X-2000000Y32000000D01*
X-2000000Y25000000D01*
X-2000000Y25000000D01*
G37*
G36*
X-11282262Y32383347D02*
X-11240402Y32375021D01*
X-11205755Y32360670D01*
X-11122110Y32326023D01*
X-11015646Y32254886D01*
X-10925114Y32164354D01*
X-10853977Y32057890D01*
X-10804979Y31939597D01*
X-10780000Y31814021D01*
X-10780000Y31685979D01*
X-10804979Y31560403D01*
X-10853977Y31442110D01*
X-10925114Y31335646D01*
X-11015646Y31245114D01*
X-11122110Y31173977D01*
X-11205755Y31139330D01*
X-11240402Y31124979D01*
X-11282262Y31116653D01*
X-11365979Y31100000D01*
X-11494021Y31100000D01*
X-11577738Y31116653D01*
X-11619598Y31124979D01*
X-11654245Y31139330D01*
X-11737890Y31173977D01*
X-11844354Y31245114D01*
X-11934886Y31335646D01*
X-12006023Y31442110D01*
X-12055021Y31560403D01*
X-12080000Y31685979D01*
X-12080000Y31814021D01*
X-12055021Y31939597D01*
X-12006023Y32057890D01*
X-11934886Y32164354D01*
X-11844354Y32254886D01*
X-11737890Y32326023D01*
X-11654245Y32360670D01*
X-11619598Y32375021D01*
X-11577738Y32383347D01*
X-11494021Y32400000D01*
X-11365979Y32400000D01*
X-11282262Y32383347D01*
X-11282262Y32383347D01*
G37*
M02*
