M48
METRIC,TZ
T1C0.200
T2C0.300
T3C0.600
T4C1.000
T5C0.650
T6C1.152
%
G90
G05
T1
X-8.5Y12.5
X-8.Y20.9
X-7.4Y8.5
X-7.3Y19.3
X-7.2Y11.2
X-5.5Y20.9
X-5.1Y18.4
X-5.Y19.3
X-4.6Y11.1
X-2.1Y3.9
X-1.1Y14.8
X0.5Y9.8
X1.Y8.2
X1.5Y18.16
X2.01Y15.77
X5.8Y7.6
X6.1Y14.9
X6.1Y10.9
X6.8Y12.8
X7.8Y20.7
X8.1Y14.1
T2
X-11.7Y24.4
X-11.6Y15.8
X-11.29Y7.3
X-10.5Y24.3
X-10.5Y17.3
X-10.Y14.6
X-9.3Y7.2
X-8.5Y29.
X-8.5Y27.5
X-8.5Y26.
X-7.Y29.
X-7.Y27.5
X-7.Y26.
X-5.5Y27.5
X-5.5Y26.
X-4.6Y13.4
X-4.Y27.5
X-4.Y26.
X-3.7Y16.4
X-2.6Y12.8
X-0.8Y20.3
X2.3Y20.9
X5.5Y27.5
X5.5Y26.
X6.6Y7.5
X6.7Y21.
X7.Y29.
X7.Y27.5
X7.Y26.
X8.5Y29.
X8.5Y27.5
X8.5Y26.
X9.4Y7.2
X11.6Y8.1
T4
X-8.89Y0.
X-6.35Y0.
X-3.81Y0.
X-1.27Y0.
X1.27Y0.
X3.81Y0.
X6.35Y0.
X8.89Y0.
X-11.43Y2.54
X-11.43Y0.
X-3.81Y2.54
X-1.27Y2.54
X1.27Y2.54
X3.81Y2.54
T5
X6.3Y15.79
X6.3Y10.01
T6
X-11.43Y31.75
X11.43Y0.
T3
X5.22Y17.22G85X6.32Y17.22
G05
X5.22Y8.58G85X6.32Y8.58
G05
X9.65Y17.22G85X10.25Y17.22
G05
X9.65Y8.58G85X10.25Y8.58
G05
T0
M30
