G04 #@! TF.GenerationSoftware,KiCad,Pcbnew,5.0.2+dfsg1-1*
G04 #@! TF.CreationDate,2021-01-20T13:30:11+01:00*
G04 #@! TF.ProjectId,edgedriver,65646765-6472-4697-9665-722e6b696361,rev?*
G04 #@! TF.SameCoordinates,Original*
G04 #@! TF.FileFunction,Paste,Top*
G04 #@! TF.FilePolarity,Positive*
%FSLAX46Y46*%
G04 Gerber Fmt 4.6, Leading zero omitted, Abs format (unit mm)*
G04 Created by KiCad (PCBNEW 5.0.2+dfsg1-1) date Wed Jan 20 13:30:11 2021*
%MOMM*%
%LPD*%
G01*
G04 APERTURE LIST*
%ADD10R,0.250000X1.300000*%
%ADD11R,1.300000X0.250000*%
%ADD12C,0.100000*%
%ADD13C,0.590000*%
%ADD14R,1.700000X0.900000*%
%ADD15R,0.900000X0.800000*%
%ADD16C,1.152000*%
%ADD17R,0.800000X0.900000*%
%ADD18C,0.875000*%
%ADD19R,2.000000X3.800000*%
%ADD20R,2.000000X1.500000*%
%ADD21C,1.050000*%
%ADD22C,0.250000*%
G04 APERTURE END LIST*
D10*
G04 #@! TO.C,U2*
X-8450000Y6450000D03*
X-7950000Y6450000D03*
X-7450000Y6450000D03*
X-6950000Y6450000D03*
X-6450000Y6450000D03*
X-5950000Y6450000D03*
X-5450000Y6450000D03*
X-4950000Y6450000D03*
X-4450000Y6450000D03*
X-3950000Y6450000D03*
X-3450000Y6450000D03*
X-2950000Y6450000D03*
D11*
X-1350000Y8050000D03*
X-1350000Y8550000D03*
X-1350000Y9050000D03*
X-1350000Y9550000D03*
X-1350000Y10050000D03*
X-1350000Y10550000D03*
X-1350000Y11050000D03*
X-1350000Y11550000D03*
X-1350000Y12050000D03*
X-1350000Y12550000D03*
X-1350000Y13050000D03*
X-1350000Y13550000D03*
D10*
X-2950000Y15150000D03*
X-3450000Y15150000D03*
X-3950000Y15150000D03*
X-4450000Y15150000D03*
X-4950000Y15150000D03*
X-5450000Y15150000D03*
X-5950000Y15150000D03*
X-6450000Y15150000D03*
X-6950000Y15150000D03*
X-7450000Y15150000D03*
X-7950000Y15150000D03*
X-8450000Y15150000D03*
D11*
X-10050000Y13550000D03*
X-10050000Y13050000D03*
X-10050000Y12550000D03*
X-10050000Y12050000D03*
X-10050000Y11550000D03*
X-10050000Y11050000D03*
X-10050000Y10550000D03*
X-10050000Y10050000D03*
X-10050000Y9550000D03*
X-10050000Y9050000D03*
X-10050000Y8550000D03*
X-10050000Y8050000D03*
G04 #@! TD*
D12*
G04 #@! TO.C,R6*
G36*
X-5853042Y4819290D02*
X-5838724Y4817166D01*
X-5824683Y4813649D01*
X-5811054Y4808772D01*
X-5797969Y4802583D01*
X-5785553Y4795142D01*
X-5773927Y4786519D01*
X-5763202Y4776798D01*
X-5753481Y4766073D01*
X-5744858Y4754447D01*
X-5737417Y4742031D01*
X-5731228Y4728946D01*
X-5726351Y4715317D01*
X-5722834Y4701276D01*
X-5720710Y4686958D01*
X-5720000Y4672500D01*
X-5720000Y4327500D01*
X-5720710Y4313042D01*
X-5722834Y4298724D01*
X-5726351Y4284683D01*
X-5731228Y4271054D01*
X-5737417Y4257969D01*
X-5744858Y4245553D01*
X-5753481Y4233927D01*
X-5763202Y4223202D01*
X-5773927Y4213481D01*
X-5785553Y4204858D01*
X-5797969Y4197417D01*
X-5811054Y4191228D01*
X-5824683Y4186351D01*
X-5838724Y4182834D01*
X-5853042Y4180710D01*
X-5867500Y4180000D01*
X-6162500Y4180000D01*
X-6176958Y4180710D01*
X-6191276Y4182834D01*
X-6205317Y4186351D01*
X-6218946Y4191228D01*
X-6232031Y4197417D01*
X-6244447Y4204858D01*
X-6256073Y4213481D01*
X-6266798Y4223202D01*
X-6276519Y4233927D01*
X-6285142Y4245553D01*
X-6292583Y4257969D01*
X-6298772Y4271054D01*
X-6303649Y4284683D01*
X-6307166Y4298724D01*
X-6309290Y4313042D01*
X-6310000Y4327500D01*
X-6310000Y4672500D01*
X-6309290Y4686958D01*
X-6307166Y4701276D01*
X-6303649Y4715317D01*
X-6298772Y4728946D01*
X-6292583Y4742031D01*
X-6285142Y4754447D01*
X-6276519Y4766073D01*
X-6266798Y4776798D01*
X-6256073Y4786519D01*
X-6244447Y4795142D01*
X-6232031Y4802583D01*
X-6218946Y4808772D01*
X-6205317Y4813649D01*
X-6191276Y4817166D01*
X-6176958Y4819290D01*
X-6162500Y4820000D01*
X-5867500Y4820000D01*
X-5853042Y4819290D01*
X-5853042Y4819290D01*
G37*
D13*
X-6015000Y4500000D03*
D12*
G36*
X-6823042Y4819290D02*
X-6808724Y4817166D01*
X-6794683Y4813649D01*
X-6781054Y4808772D01*
X-6767969Y4802583D01*
X-6755553Y4795142D01*
X-6743927Y4786519D01*
X-6733202Y4776798D01*
X-6723481Y4766073D01*
X-6714858Y4754447D01*
X-6707417Y4742031D01*
X-6701228Y4728946D01*
X-6696351Y4715317D01*
X-6692834Y4701276D01*
X-6690710Y4686958D01*
X-6690000Y4672500D01*
X-6690000Y4327500D01*
X-6690710Y4313042D01*
X-6692834Y4298724D01*
X-6696351Y4284683D01*
X-6701228Y4271054D01*
X-6707417Y4257969D01*
X-6714858Y4245553D01*
X-6723481Y4233927D01*
X-6733202Y4223202D01*
X-6743927Y4213481D01*
X-6755553Y4204858D01*
X-6767969Y4197417D01*
X-6781054Y4191228D01*
X-6794683Y4186351D01*
X-6808724Y4182834D01*
X-6823042Y4180710D01*
X-6837500Y4180000D01*
X-7132500Y4180000D01*
X-7146958Y4180710D01*
X-7161276Y4182834D01*
X-7175317Y4186351D01*
X-7188946Y4191228D01*
X-7202031Y4197417D01*
X-7214447Y4204858D01*
X-7226073Y4213481D01*
X-7236798Y4223202D01*
X-7246519Y4233927D01*
X-7255142Y4245553D01*
X-7262583Y4257969D01*
X-7268772Y4271054D01*
X-7273649Y4284683D01*
X-7277166Y4298724D01*
X-7279290Y4313042D01*
X-7280000Y4327500D01*
X-7280000Y4672500D01*
X-7279290Y4686958D01*
X-7277166Y4701276D01*
X-7273649Y4715317D01*
X-7268772Y4728946D01*
X-7262583Y4742031D01*
X-7255142Y4754447D01*
X-7246519Y4766073D01*
X-7236798Y4776798D01*
X-7226073Y4786519D01*
X-7214447Y4795142D01*
X-7202031Y4802583D01*
X-7188946Y4808772D01*
X-7175317Y4813649D01*
X-7161276Y4817166D01*
X-7146958Y4819290D01*
X-7132500Y4820000D01*
X-6837500Y4820000D01*
X-6823042Y4819290D01*
X-6823042Y4819290D01*
G37*
D13*
X-6985000Y4500000D03*
G04 #@! TD*
D12*
G04 #@! TO.C,C8*
G36*
X-7953042Y4819290D02*
X-7938724Y4817166D01*
X-7924683Y4813649D01*
X-7911054Y4808772D01*
X-7897969Y4802583D01*
X-7885553Y4795142D01*
X-7873927Y4786519D01*
X-7863202Y4776798D01*
X-7853481Y4766073D01*
X-7844858Y4754447D01*
X-7837417Y4742031D01*
X-7831228Y4728946D01*
X-7826351Y4715317D01*
X-7822834Y4701276D01*
X-7820710Y4686958D01*
X-7820000Y4672500D01*
X-7820000Y4327500D01*
X-7820710Y4313042D01*
X-7822834Y4298724D01*
X-7826351Y4284683D01*
X-7831228Y4271054D01*
X-7837417Y4257969D01*
X-7844858Y4245553D01*
X-7853481Y4233927D01*
X-7863202Y4223202D01*
X-7873927Y4213481D01*
X-7885553Y4204858D01*
X-7897969Y4197417D01*
X-7911054Y4191228D01*
X-7924683Y4186351D01*
X-7938724Y4182834D01*
X-7953042Y4180710D01*
X-7967500Y4180000D01*
X-8262500Y4180000D01*
X-8276958Y4180710D01*
X-8291276Y4182834D01*
X-8305317Y4186351D01*
X-8318946Y4191228D01*
X-8332031Y4197417D01*
X-8344447Y4204858D01*
X-8356073Y4213481D01*
X-8366798Y4223202D01*
X-8376519Y4233927D01*
X-8385142Y4245553D01*
X-8392583Y4257969D01*
X-8398772Y4271054D01*
X-8403649Y4284683D01*
X-8407166Y4298724D01*
X-8409290Y4313042D01*
X-8410000Y4327500D01*
X-8410000Y4672500D01*
X-8409290Y4686958D01*
X-8407166Y4701276D01*
X-8403649Y4715317D01*
X-8398772Y4728946D01*
X-8392583Y4742031D01*
X-8385142Y4754447D01*
X-8376519Y4766073D01*
X-8366798Y4776798D01*
X-8356073Y4786519D01*
X-8344447Y4795142D01*
X-8332031Y4802583D01*
X-8318946Y4808772D01*
X-8305317Y4813649D01*
X-8291276Y4817166D01*
X-8276958Y4819290D01*
X-8262500Y4820000D01*
X-7967500Y4820000D01*
X-7953042Y4819290D01*
X-7953042Y4819290D01*
G37*
D13*
X-8115000Y4500000D03*
D12*
G36*
X-8923042Y4819290D02*
X-8908724Y4817166D01*
X-8894683Y4813649D01*
X-8881054Y4808772D01*
X-8867969Y4802583D01*
X-8855553Y4795142D01*
X-8843927Y4786519D01*
X-8833202Y4776798D01*
X-8823481Y4766073D01*
X-8814858Y4754447D01*
X-8807417Y4742031D01*
X-8801228Y4728946D01*
X-8796351Y4715317D01*
X-8792834Y4701276D01*
X-8790710Y4686958D01*
X-8790000Y4672500D01*
X-8790000Y4327500D01*
X-8790710Y4313042D01*
X-8792834Y4298724D01*
X-8796351Y4284683D01*
X-8801228Y4271054D01*
X-8807417Y4257969D01*
X-8814858Y4245553D01*
X-8823481Y4233927D01*
X-8833202Y4223202D01*
X-8843927Y4213481D01*
X-8855553Y4204858D01*
X-8867969Y4197417D01*
X-8881054Y4191228D01*
X-8894683Y4186351D01*
X-8908724Y4182834D01*
X-8923042Y4180710D01*
X-8937500Y4180000D01*
X-9232500Y4180000D01*
X-9246958Y4180710D01*
X-9261276Y4182834D01*
X-9275317Y4186351D01*
X-9288946Y4191228D01*
X-9302031Y4197417D01*
X-9314447Y4204858D01*
X-9326073Y4213481D01*
X-9336798Y4223202D01*
X-9346519Y4233927D01*
X-9355142Y4245553D01*
X-9362583Y4257969D01*
X-9368772Y4271054D01*
X-9373649Y4284683D01*
X-9377166Y4298724D01*
X-9379290Y4313042D01*
X-9380000Y4327500D01*
X-9380000Y4672500D01*
X-9379290Y4686958D01*
X-9377166Y4701276D01*
X-9373649Y4715317D01*
X-9368772Y4728946D01*
X-9362583Y4742031D01*
X-9355142Y4754447D01*
X-9346519Y4766073D01*
X-9336798Y4776798D01*
X-9326073Y4786519D01*
X-9314447Y4795142D01*
X-9302031Y4802583D01*
X-9288946Y4808772D01*
X-9275317Y4813649D01*
X-9261276Y4817166D01*
X-9246958Y4819290D01*
X-9232500Y4820000D01*
X-8937500Y4820000D01*
X-8923042Y4819290D01*
X-8923042Y4819290D01*
G37*
D13*
X-9085000Y4500000D03*
G04 #@! TD*
D12*
G04 #@! TO.C,R7*
G36*
X-11223042Y9379290D02*
X-11208724Y9377166D01*
X-11194683Y9373649D01*
X-11181054Y9368772D01*
X-11167969Y9362583D01*
X-11155553Y9355142D01*
X-11143927Y9346519D01*
X-11133202Y9336798D01*
X-11123481Y9326073D01*
X-11114858Y9314447D01*
X-11107417Y9302031D01*
X-11101228Y9288946D01*
X-11096351Y9275317D01*
X-11092834Y9261276D01*
X-11090710Y9246958D01*
X-11090000Y9232500D01*
X-11090000Y8937500D01*
X-11090710Y8923042D01*
X-11092834Y8908724D01*
X-11096351Y8894683D01*
X-11101228Y8881054D01*
X-11107417Y8867969D01*
X-11114858Y8855553D01*
X-11123481Y8843927D01*
X-11133202Y8833202D01*
X-11143927Y8823481D01*
X-11155553Y8814858D01*
X-11167969Y8807417D01*
X-11181054Y8801228D01*
X-11194683Y8796351D01*
X-11208724Y8792834D01*
X-11223042Y8790710D01*
X-11237500Y8790000D01*
X-11582500Y8790000D01*
X-11596958Y8790710D01*
X-11611276Y8792834D01*
X-11625317Y8796351D01*
X-11638946Y8801228D01*
X-11652031Y8807417D01*
X-11664447Y8814858D01*
X-11676073Y8823481D01*
X-11686798Y8833202D01*
X-11696519Y8843927D01*
X-11705142Y8855553D01*
X-11712583Y8867969D01*
X-11718772Y8881054D01*
X-11723649Y8894683D01*
X-11727166Y8908724D01*
X-11729290Y8923042D01*
X-11730000Y8937500D01*
X-11730000Y9232500D01*
X-11729290Y9246958D01*
X-11727166Y9261276D01*
X-11723649Y9275317D01*
X-11718772Y9288946D01*
X-11712583Y9302031D01*
X-11705142Y9314447D01*
X-11696519Y9326073D01*
X-11686798Y9336798D01*
X-11676073Y9346519D01*
X-11664447Y9355142D01*
X-11652031Y9362583D01*
X-11638946Y9368772D01*
X-11625317Y9373649D01*
X-11611276Y9377166D01*
X-11596958Y9379290D01*
X-11582500Y9380000D01*
X-11237500Y9380000D01*
X-11223042Y9379290D01*
X-11223042Y9379290D01*
G37*
D13*
X-11410000Y9085000D03*
D12*
G36*
X-11223042Y10349290D02*
X-11208724Y10347166D01*
X-11194683Y10343649D01*
X-11181054Y10338772D01*
X-11167969Y10332583D01*
X-11155553Y10325142D01*
X-11143927Y10316519D01*
X-11133202Y10306798D01*
X-11123481Y10296073D01*
X-11114858Y10284447D01*
X-11107417Y10272031D01*
X-11101228Y10258946D01*
X-11096351Y10245317D01*
X-11092834Y10231276D01*
X-11090710Y10216958D01*
X-11090000Y10202500D01*
X-11090000Y9907500D01*
X-11090710Y9893042D01*
X-11092834Y9878724D01*
X-11096351Y9864683D01*
X-11101228Y9851054D01*
X-11107417Y9837969D01*
X-11114858Y9825553D01*
X-11123481Y9813927D01*
X-11133202Y9803202D01*
X-11143927Y9793481D01*
X-11155553Y9784858D01*
X-11167969Y9777417D01*
X-11181054Y9771228D01*
X-11194683Y9766351D01*
X-11208724Y9762834D01*
X-11223042Y9760710D01*
X-11237500Y9760000D01*
X-11582500Y9760000D01*
X-11596958Y9760710D01*
X-11611276Y9762834D01*
X-11625317Y9766351D01*
X-11638946Y9771228D01*
X-11652031Y9777417D01*
X-11664447Y9784858D01*
X-11676073Y9793481D01*
X-11686798Y9803202D01*
X-11696519Y9813927D01*
X-11705142Y9825553D01*
X-11712583Y9837969D01*
X-11718772Y9851054D01*
X-11723649Y9864683D01*
X-11727166Y9878724D01*
X-11729290Y9893042D01*
X-11730000Y9907500D01*
X-11730000Y10202500D01*
X-11729290Y10216958D01*
X-11727166Y10231276D01*
X-11723649Y10245317D01*
X-11718772Y10258946D01*
X-11712583Y10272031D01*
X-11705142Y10284447D01*
X-11696519Y10296073D01*
X-11686798Y10306798D01*
X-11676073Y10316519D01*
X-11664447Y10325142D01*
X-11652031Y10332583D01*
X-11638946Y10338772D01*
X-11625317Y10343649D01*
X-11611276Y10347166D01*
X-11596958Y10349290D01*
X-11582500Y10350000D01*
X-11237500Y10350000D01*
X-11223042Y10349290D01*
X-11223042Y10349290D01*
G37*
D13*
X-11410000Y10055000D03*
G04 #@! TD*
D14*
G04 #@! TO.C,SW1*
X7200000Y3000000D03*
X7200000Y6400000D03*
G04 #@! TD*
G04 #@! TO.C,SW2*
X10900000Y6400000D03*
X10900000Y3000000D03*
G04 #@! TD*
D15*
G04 #@! TO.C,Q2*
X990000Y15290000D03*
X990000Y13390000D03*
X2990000Y14340000D03*
G04 #@! TD*
D16*
G04 #@! TO.C,REF\002A\002A*
X11430000Y0D03*
G04 #@! TD*
D17*
G04 #@! TO.C,Q1*
X2000000Y8900000D03*
X1050000Y10900000D03*
X2950000Y10900000D03*
G04 #@! TD*
D12*
G04 #@! TO.C,C9*
G36*
X-11322309Y17248947D02*
X-11301074Y17245797D01*
X-11280250Y17240581D01*
X-11260038Y17233349D01*
X-11240632Y17224170D01*
X-11222219Y17213134D01*
X-11204976Y17200346D01*
X-11189070Y17185930D01*
X-11174654Y17170024D01*
X-11161866Y17152781D01*
X-11150830Y17134368D01*
X-11141651Y17114962D01*
X-11134419Y17094750D01*
X-11129203Y17073926D01*
X-11126053Y17052691D01*
X-11125000Y17031250D01*
X-11125000Y16593750D01*
X-11126053Y16572309D01*
X-11129203Y16551074D01*
X-11134419Y16530250D01*
X-11141651Y16510038D01*
X-11150830Y16490632D01*
X-11161866Y16472219D01*
X-11174654Y16454976D01*
X-11189070Y16439070D01*
X-11204976Y16424654D01*
X-11222219Y16411866D01*
X-11240632Y16400830D01*
X-11260038Y16391651D01*
X-11280250Y16384419D01*
X-11301074Y16379203D01*
X-11322309Y16376053D01*
X-11343750Y16375000D01*
X-11856250Y16375000D01*
X-11877691Y16376053D01*
X-11898926Y16379203D01*
X-11919750Y16384419D01*
X-11939962Y16391651D01*
X-11959368Y16400830D01*
X-11977781Y16411866D01*
X-11995024Y16424654D01*
X-12010930Y16439070D01*
X-12025346Y16454976D01*
X-12038134Y16472219D01*
X-12049170Y16490632D01*
X-12058349Y16510038D01*
X-12065581Y16530250D01*
X-12070797Y16551074D01*
X-12073947Y16572309D01*
X-12075000Y16593750D01*
X-12075000Y17031250D01*
X-12073947Y17052691D01*
X-12070797Y17073926D01*
X-12065581Y17094750D01*
X-12058349Y17114962D01*
X-12049170Y17134368D01*
X-12038134Y17152781D01*
X-12025346Y17170024D01*
X-12010930Y17185930D01*
X-11995024Y17200346D01*
X-11977781Y17213134D01*
X-11959368Y17224170D01*
X-11939962Y17233349D01*
X-11919750Y17240581D01*
X-11898926Y17245797D01*
X-11877691Y17248947D01*
X-11856250Y17250000D01*
X-11343750Y17250000D01*
X-11322309Y17248947D01*
X-11322309Y17248947D01*
G37*
D18*
X-11600000Y16812500D03*
D12*
G36*
X-11322309Y18823947D02*
X-11301074Y18820797D01*
X-11280250Y18815581D01*
X-11260038Y18808349D01*
X-11240632Y18799170D01*
X-11222219Y18788134D01*
X-11204976Y18775346D01*
X-11189070Y18760930D01*
X-11174654Y18745024D01*
X-11161866Y18727781D01*
X-11150830Y18709368D01*
X-11141651Y18689962D01*
X-11134419Y18669750D01*
X-11129203Y18648926D01*
X-11126053Y18627691D01*
X-11125000Y18606250D01*
X-11125000Y18168750D01*
X-11126053Y18147309D01*
X-11129203Y18126074D01*
X-11134419Y18105250D01*
X-11141651Y18085038D01*
X-11150830Y18065632D01*
X-11161866Y18047219D01*
X-11174654Y18029976D01*
X-11189070Y18014070D01*
X-11204976Y17999654D01*
X-11222219Y17986866D01*
X-11240632Y17975830D01*
X-11260038Y17966651D01*
X-11280250Y17959419D01*
X-11301074Y17954203D01*
X-11322309Y17951053D01*
X-11343750Y17950000D01*
X-11856250Y17950000D01*
X-11877691Y17951053D01*
X-11898926Y17954203D01*
X-11919750Y17959419D01*
X-11939962Y17966651D01*
X-11959368Y17975830D01*
X-11977781Y17986866D01*
X-11995024Y17999654D01*
X-12010930Y18014070D01*
X-12025346Y18029976D01*
X-12038134Y18047219D01*
X-12049170Y18065632D01*
X-12058349Y18085038D01*
X-12065581Y18105250D01*
X-12070797Y18126074D01*
X-12073947Y18147309D01*
X-12075000Y18168750D01*
X-12075000Y18606250D01*
X-12073947Y18627691D01*
X-12070797Y18648926D01*
X-12065581Y18669750D01*
X-12058349Y18689962D01*
X-12049170Y18709368D01*
X-12038134Y18727781D01*
X-12025346Y18745024D01*
X-12010930Y18760930D01*
X-11995024Y18775346D01*
X-11977781Y18788134D01*
X-11959368Y18799170D01*
X-11939962Y18808349D01*
X-11919750Y18815581D01*
X-11898926Y18820797D01*
X-11877691Y18823947D01*
X-11856250Y18825000D01*
X-11343750Y18825000D01*
X-11322309Y18823947D01*
X-11322309Y18823947D01*
G37*
D18*
X-11600000Y18387500D03*
G04 #@! TD*
D12*
G04 #@! TO.C,C2*
G36*
X-922309Y23423947D02*
X-901074Y23420797D01*
X-880250Y23415581D01*
X-860038Y23408349D01*
X-840632Y23399170D01*
X-822219Y23388134D01*
X-804976Y23375346D01*
X-789070Y23360930D01*
X-774654Y23345024D01*
X-761866Y23327781D01*
X-750830Y23309368D01*
X-741651Y23289962D01*
X-734419Y23269750D01*
X-729203Y23248926D01*
X-726053Y23227691D01*
X-725000Y23206250D01*
X-725000Y22768750D01*
X-726053Y22747309D01*
X-729203Y22726074D01*
X-734419Y22705250D01*
X-741651Y22685038D01*
X-750830Y22665632D01*
X-761866Y22647219D01*
X-774654Y22629976D01*
X-789070Y22614070D01*
X-804976Y22599654D01*
X-822219Y22586866D01*
X-840632Y22575830D01*
X-860038Y22566651D01*
X-880250Y22559419D01*
X-901074Y22554203D01*
X-922309Y22551053D01*
X-943750Y22550000D01*
X-1456250Y22550000D01*
X-1477691Y22551053D01*
X-1498926Y22554203D01*
X-1519750Y22559419D01*
X-1539962Y22566651D01*
X-1559368Y22575830D01*
X-1577781Y22586866D01*
X-1595024Y22599654D01*
X-1610930Y22614070D01*
X-1625346Y22629976D01*
X-1638134Y22647219D01*
X-1649170Y22665632D01*
X-1658349Y22685038D01*
X-1665581Y22705250D01*
X-1670797Y22726074D01*
X-1673947Y22747309D01*
X-1675000Y22768750D01*
X-1675000Y23206250D01*
X-1673947Y23227691D01*
X-1670797Y23248926D01*
X-1665581Y23269750D01*
X-1658349Y23289962D01*
X-1649170Y23309368D01*
X-1638134Y23327781D01*
X-1625346Y23345024D01*
X-1610930Y23360930D01*
X-1595024Y23375346D01*
X-1577781Y23388134D01*
X-1559368Y23399170D01*
X-1539962Y23408349D01*
X-1519750Y23415581D01*
X-1498926Y23420797D01*
X-1477691Y23423947D01*
X-1456250Y23425000D01*
X-943750Y23425000D01*
X-922309Y23423947D01*
X-922309Y23423947D01*
G37*
D18*
X-1200000Y22987500D03*
D12*
G36*
X-922309Y21848947D02*
X-901074Y21845797D01*
X-880250Y21840581D01*
X-860038Y21833349D01*
X-840632Y21824170D01*
X-822219Y21813134D01*
X-804976Y21800346D01*
X-789070Y21785930D01*
X-774654Y21770024D01*
X-761866Y21752781D01*
X-750830Y21734368D01*
X-741651Y21714962D01*
X-734419Y21694750D01*
X-729203Y21673926D01*
X-726053Y21652691D01*
X-725000Y21631250D01*
X-725000Y21193750D01*
X-726053Y21172309D01*
X-729203Y21151074D01*
X-734419Y21130250D01*
X-741651Y21110038D01*
X-750830Y21090632D01*
X-761866Y21072219D01*
X-774654Y21054976D01*
X-789070Y21039070D01*
X-804976Y21024654D01*
X-822219Y21011866D01*
X-840632Y21000830D01*
X-860038Y20991651D01*
X-880250Y20984419D01*
X-901074Y20979203D01*
X-922309Y20976053D01*
X-943750Y20975000D01*
X-1456250Y20975000D01*
X-1477691Y20976053D01*
X-1498926Y20979203D01*
X-1519750Y20984419D01*
X-1539962Y20991651D01*
X-1559368Y21000830D01*
X-1577781Y21011866D01*
X-1595024Y21024654D01*
X-1610930Y21039070D01*
X-1625346Y21054976D01*
X-1638134Y21072219D01*
X-1649170Y21090632D01*
X-1658349Y21110038D01*
X-1665581Y21130250D01*
X-1670797Y21151074D01*
X-1673947Y21172309D01*
X-1675000Y21193750D01*
X-1675000Y21631250D01*
X-1673947Y21652691D01*
X-1670797Y21673926D01*
X-1665581Y21694750D01*
X-1658349Y21714962D01*
X-1649170Y21734368D01*
X-1638134Y21752781D01*
X-1625346Y21770024D01*
X-1610930Y21785930D01*
X-1595024Y21800346D01*
X-1577781Y21813134D01*
X-1559368Y21824170D01*
X-1539962Y21833349D01*
X-1519750Y21840581D01*
X-1498926Y21845797D01*
X-1477691Y21848947D01*
X-1456250Y21850000D01*
X-943750Y21850000D01*
X-922309Y21848947D01*
X-922309Y21848947D01*
G37*
D18*
X-1200000Y21412500D03*
G04 #@! TD*
D12*
G04 #@! TO.C,C4*
G36*
X-11322309Y21823947D02*
X-11301074Y21820797D01*
X-11280250Y21815581D01*
X-11260038Y21808349D01*
X-11240632Y21799170D01*
X-11222219Y21788134D01*
X-11204976Y21775346D01*
X-11189070Y21760930D01*
X-11174654Y21745024D01*
X-11161866Y21727781D01*
X-11150830Y21709368D01*
X-11141651Y21689962D01*
X-11134419Y21669750D01*
X-11129203Y21648926D01*
X-11126053Y21627691D01*
X-11125000Y21606250D01*
X-11125000Y21168750D01*
X-11126053Y21147309D01*
X-11129203Y21126074D01*
X-11134419Y21105250D01*
X-11141651Y21085038D01*
X-11150830Y21065632D01*
X-11161866Y21047219D01*
X-11174654Y21029976D01*
X-11189070Y21014070D01*
X-11204976Y20999654D01*
X-11222219Y20986866D01*
X-11240632Y20975830D01*
X-11260038Y20966651D01*
X-11280250Y20959419D01*
X-11301074Y20954203D01*
X-11322309Y20951053D01*
X-11343750Y20950000D01*
X-11856250Y20950000D01*
X-11877691Y20951053D01*
X-11898926Y20954203D01*
X-11919750Y20959419D01*
X-11939962Y20966651D01*
X-11959368Y20975830D01*
X-11977781Y20986866D01*
X-11995024Y20999654D01*
X-12010930Y21014070D01*
X-12025346Y21029976D01*
X-12038134Y21047219D01*
X-12049170Y21065632D01*
X-12058349Y21085038D01*
X-12065581Y21105250D01*
X-12070797Y21126074D01*
X-12073947Y21147309D01*
X-12075000Y21168750D01*
X-12075000Y21606250D01*
X-12073947Y21627691D01*
X-12070797Y21648926D01*
X-12065581Y21669750D01*
X-12058349Y21689962D01*
X-12049170Y21709368D01*
X-12038134Y21727781D01*
X-12025346Y21745024D01*
X-12010930Y21760930D01*
X-11995024Y21775346D01*
X-11977781Y21788134D01*
X-11959368Y21799170D01*
X-11939962Y21808349D01*
X-11919750Y21815581D01*
X-11898926Y21820797D01*
X-11877691Y21823947D01*
X-11856250Y21825000D01*
X-11343750Y21825000D01*
X-11322309Y21823947D01*
X-11322309Y21823947D01*
G37*
D18*
X-11600000Y21387500D03*
D12*
G36*
X-11322309Y20248947D02*
X-11301074Y20245797D01*
X-11280250Y20240581D01*
X-11260038Y20233349D01*
X-11240632Y20224170D01*
X-11222219Y20213134D01*
X-11204976Y20200346D01*
X-11189070Y20185930D01*
X-11174654Y20170024D01*
X-11161866Y20152781D01*
X-11150830Y20134368D01*
X-11141651Y20114962D01*
X-11134419Y20094750D01*
X-11129203Y20073926D01*
X-11126053Y20052691D01*
X-11125000Y20031250D01*
X-11125000Y19593750D01*
X-11126053Y19572309D01*
X-11129203Y19551074D01*
X-11134419Y19530250D01*
X-11141651Y19510038D01*
X-11150830Y19490632D01*
X-11161866Y19472219D01*
X-11174654Y19454976D01*
X-11189070Y19439070D01*
X-11204976Y19424654D01*
X-11222219Y19411866D01*
X-11240632Y19400830D01*
X-11260038Y19391651D01*
X-11280250Y19384419D01*
X-11301074Y19379203D01*
X-11322309Y19376053D01*
X-11343750Y19375000D01*
X-11856250Y19375000D01*
X-11877691Y19376053D01*
X-11898926Y19379203D01*
X-11919750Y19384419D01*
X-11939962Y19391651D01*
X-11959368Y19400830D01*
X-11977781Y19411866D01*
X-11995024Y19424654D01*
X-12010930Y19439070D01*
X-12025346Y19454976D01*
X-12038134Y19472219D01*
X-12049170Y19490632D01*
X-12058349Y19510038D01*
X-12065581Y19530250D01*
X-12070797Y19551074D01*
X-12073947Y19572309D01*
X-12075000Y19593750D01*
X-12075000Y20031250D01*
X-12073947Y20052691D01*
X-12070797Y20073926D01*
X-12065581Y20094750D01*
X-12058349Y20114962D01*
X-12049170Y20134368D01*
X-12038134Y20152781D01*
X-12025346Y20170024D01*
X-12010930Y20185930D01*
X-11995024Y20200346D01*
X-11977781Y20213134D01*
X-11959368Y20224170D01*
X-11939962Y20233349D01*
X-11919750Y20240581D01*
X-11898926Y20245797D01*
X-11877691Y20248947D01*
X-11856250Y20250000D01*
X-11343750Y20250000D01*
X-11322309Y20248947D01*
X-11322309Y20248947D01*
G37*
D18*
X-11600000Y19812500D03*
G04 #@! TD*
D19*
G04 #@! TO.C,U3*
X-9550000Y20100000D03*
D20*
X-3250000Y20100000D03*
X-3250000Y22400000D03*
X-3250000Y17800000D03*
G04 #@! TD*
D12*
G04 #@! TO.C,U4*
G36*
X3199505Y20811296D02*
X3223773Y20807696D01*
X3247572Y20801735D01*
X3270671Y20793470D01*
X3292850Y20782980D01*
X3313893Y20770368D01*
X3333599Y20755753D01*
X3351777Y20739277D01*
X3368253Y20721099D01*
X3382868Y20701393D01*
X3395480Y20680350D01*
X3405970Y20658171D01*
X3414235Y20635072D01*
X3420196Y20611273D01*
X3423796Y20587005D01*
X3425000Y20562501D01*
X3425000Y20012499D01*
X3423796Y19987995D01*
X3420196Y19963727D01*
X3414235Y19939928D01*
X3405970Y19916829D01*
X3395480Y19894650D01*
X3382868Y19873607D01*
X3368253Y19853901D01*
X3351777Y19835723D01*
X3333599Y19819247D01*
X3313893Y19804632D01*
X3292850Y19792020D01*
X3270671Y19781530D01*
X3247572Y19773265D01*
X3223773Y19767304D01*
X3199505Y19763704D01*
X3175001Y19762500D01*
X2624999Y19762500D01*
X2600495Y19763704D01*
X2576227Y19767304D01*
X2552428Y19773265D01*
X2529329Y19781530D01*
X2507150Y19792020D01*
X2486107Y19804632D01*
X2466401Y19819247D01*
X2448223Y19835723D01*
X2431747Y19853901D01*
X2417132Y19873607D01*
X2404520Y19894650D01*
X2394030Y19916829D01*
X2385765Y19939928D01*
X2379804Y19963727D01*
X2376204Y19987995D01*
X2375000Y20012499D01*
X2375000Y20562501D01*
X2376204Y20587005D01*
X2379804Y20611273D01*
X2385765Y20635072D01*
X2394030Y20658171D01*
X2404520Y20680350D01*
X2417132Y20701393D01*
X2431747Y20721099D01*
X2448223Y20739277D01*
X2466401Y20755753D01*
X2486107Y20770368D01*
X2507150Y20782980D01*
X2529329Y20793470D01*
X2552428Y20801735D01*
X2576227Y20807696D01*
X2600495Y20811296D01*
X2624999Y20812500D01*
X3175001Y20812500D01*
X3199505Y20811296D01*
X3199505Y20811296D01*
G37*
D21*
X2900000Y20287500D03*
D12*
G36*
X3199505Y22111296D02*
X3223773Y22107696D01*
X3247572Y22101735D01*
X3270671Y22093470D01*
X3292850Y22082980D01*
X3313893Y22070368D01*
X3333599Y22055753D01*
X3351777Y22039277D01*
X3368253Y22021099D01*
X3382868Y22001393D01*
X3395480Y21980350D01*
X3405970Y21958171D01*
X3414235Y21935072D01*
X3420196Y21911273D01*
X3423796Y21887005D01*
X3425000Y21862501D01*
X3425000Y21312499D01*
X3423796Y21287995D01*
X3420196Y21263727D01*
X3414235Y21239928D01*
X3405970Y21216829D01*
X3395480Y21194650D01*
X3382868Y21173607D01*
X3368253Y21153901D01*
X3351777Y21135723D01*
X3333599Y21119247D01*
X3313893Y21104632D01*
X3292850Y21092020D01*
X3270671Y21081530D01*
X3247572Y21073265D01*
X3223773Y21067304D01*
X3199505Y21063704D01*
X3175001Y21062500D01*
X2624999Y21062500D01*
X2600495Y21063704D01*
X2576227Y21067304D01*
X2552428Y21073265D01*
X2529329Y21081530D01*
X2507150Y21092020D01*
X2486107Y21104632D01*
X2466401Y21119247D01*
X2448223Y21135723D01*
X2431747Y21153901D01*
X2417132Y21173607D01*
X2404520Y21194650D01*
X2394030Y21216829D01*
X2385765Y21239928D01*
X2379804Y21263727D01*
X2376204Y21287995D01*
X2375000Y21312499D01*
X2375000Y21862501D01*
X2376204Y21887005D01*
X2379804Y21911273D01*
X2385765Y21935072D01*
X2394030Y21958171D01*
X2404520Y21980350D01*
X2417132Y22001393D01*
X2431747Y22021099D01*
X2448223Y22039277D01*
X2466401Y22055753D01*
X2486107Y22070368D01*
X2507150Y22082980D01*
X2529329Y22093470D01*
X2552428Y22101735D01*
X2576227Y22107696D01*
X2600495Y22111296D01*
X2624999Y22112500D01*
X3175001Y22112500D01*
X3199505Y22111296D01*
X3199505Y22111296D01*
G37*
D21*
X2900000Y21587500D03*
D12*
G36*
X1899505Y20811296D02*
X1923773Y20807696D01*
X1947572Y20801735D01*
X1970671Y20793470D01*
X1992850Y20782980D01*
X2013893Y20770368D01*
X2033599Y20755753D01*
X2051777Y20739277D01*
X2068253Y20721099D01*
X2082868Y20701393D01*
X2095480Y20680350D01*
X2105970Y20658171D01*
X2114235Y20635072D01*
X2120196Y20611273D01*
X2123796Y20587005D01*
X2125000Y20562501D01*
X2125000Y20012499D01*
X2123796Y19987995D01*
X2120196Y19963727D01*
X2114235Y19939928D01*
X2105970Y19916829D01*
X2095480Y19894650D01*
X2082868Y19873607D01*
X2068253Y19853901D01*
X2051777Y19835723D01*
X2033599Y19819247D01*
X2013893Y19804632D01*
X1992850Y19792020D01*
X1970671Y19781530D01*
X1947572Y19773265D01*
X1923773Y19767304D01*
X1899505Y19763704D01*
X1875001Y19762500D01*
X1324999Y19762500D01*
X1300495Y19763704D01*
X1276227Y19767304D01*
X1252428Y19773265D01*
X1229329Y19781530D01*
X1207150Y19792020D01*
X1186107Y19804632D01*
X1166401Y19819247D01*
X1148223Y19835723D01*
X1131747Y19853901D01*
X1117132Y19873607D01*
X1104520Y19894650D01*
X1094030Y19916829D01*
X1085765Y19939928D01*
X1079804Y19963727D01*
X1076204Y19987995D01*
X1075000Y20012499D01*
X1075000Y20562501D01*
X1076204Y20587005D01*
X1079804Y20611273D01*
X1085765Y20635072D01*
X1094030Y20658171D01*
X1104520Y20680350D01*
X1117132Y20701393D01*
X1131747Y20721099D01*
X1148223Y20739277D01*
X1166401Y20755753D01*
X1186107Y20770368D01*
X1207150Y20782980D01*
X1229329Y20793470D01*
X1252428Y20801735D01*
X1276227Y20807696D01*
X1300495Y20811296D01*
X1324999Y20812500D01*
X1875001Y20812500D01*
X1899505Y20811296D01*
X1899505Y20811296D01*
G37*
D21*
X1600000Y20287500D03*
D12*
G36*
X1899505Y22111296D02*
X1923773Y22107696D01*
X1947572Y22101735D01*
X1970671Y22093470D01*
X1992850Y22082980D01*
X2013893Y22070368D01*
X2033599Y22055753D01*
X2051777Y22039277D01*
X2068253Y22021099D01*
X2082868Y22001393D01*
X2095480Y21980350D01*
X2105970Y21958171D01*
X2114235Y21935072D01*
X2120196Y21911273D01*
X2123796Y21887005D01*
X2125000Y21862501D01*
X2125000Y21312499D01*
X2123796Y21287995D01*
X2120196Y21263727D01*
X2114235Y21239928D01*
X2105970Y21216829D01*
X2095480Y21194650D01*
X2082868Y21173607D01*
X2068253Y21153901D01*
X2051777Y21135723D01*
X2033599Y21119247D01*
X2013893Y21104632D01*
X1992850Y21092020D01*
X1970671Y21081530D01*
X1947572Y21073265D01*
X1923773Y21067304D01*
X1899505Y21063704D01*
X1875001Y21062500D01*
X1324999Y21062500D01*
X1300495Y21063704D01*
X1276227Y21067304D01*
X1252428Y21073265D01*
X1229329Y21081530D01*
X1207150Y21092020D01*
X1186107Y21104632D01*
X1166401Y21119247D01*
X1148223Y21135723D01*
X1131747Y21153901D01*
X1117132Y21173607D01*
X1104520Y21194650D01*
X1094030Y21216829D01*
X1085765Y21239928D01*
X1079804Y21263727D01*
X1076204Y21287995D01*
X1075000Y21312499D01*
X1075000Y21862501D01*
X1076204Y21887005D01*
X1079804Y21911273D01*
X1085765Y21935072D01*
X1094030Y21958171D01*
X1104520Y21980350D01*
X1117132Y22001393D01*
X1131747Y22021099D01*
X1148223Y22039277D01*
X1166401Y22055753D01*
X1186107Y22070368D01*
X1207150Y22082980D01*
X1229329Y22093470D01*
X1252428Y22101735D01*
X1276227Y22107696D01*
X1300495Y22111296D01*
X1324999Y22112500D01*
X1875001Y22112500D01*
X1899505Y22111296D01*
X1899505Y22111296D01*
G37*
D21*
X1600000Y21587500D03*
D12*
G36*
X4543626Y19812199D02*
X4549693Y19811299D01*
X4555643Y19809809D01*
X4561418Y19807742D01*
X4566962Y19805120D01*
X4572223Y19801967D01*
X4577150Y19798313D01*
X4581694Y19794194D01*
X4585813Y19789650D01*
X4589467Y19784723D01*
X4592620Y19779462D01*
X4595242Y19773918D01*
X4597309Y19768143D01*
X4598799Y19762193D01*
X4599699Y19756126D01*
X4600000Y19750000D01*
X4600000Y19625000D01*
X4599699Y19618874D01*
X4598799Y19612807D01*
X4597309Y19606857D01*
X4595242Y19601082D01*
X4592620Y19595538D01*
X4589467Y19590277D01*
X4585813Y19585350D01*
X4581694Y19580806D01*
X4577150Y19576687D01*
X4572223Y19573033D01*
X4566962Y19569880D01*
X4561418Y19567258D01*
X4555643Y19565191D01*
X4549693Y19563701D01*
X4543626Y19562801D01*
X4537500Y19562500D01*
X3837500Y19562500D01*
X3831374Y19562801D01*
X3825307Y19563701D01*
X3819357Y19565191D01*
X3813582Y19567258D01*
X3808038Y19569880D01*
X3802777Y19573033D01*
X3797850Y19576687D01*
X3793306Y19580806D01*
X3789187Y19585350D01*
X3785533Y19590277D01*
X3782380Y19595538D01*
X3779758Y19601082D01*
X3777691Y19606857D01*
X3776201Y19612807D01*
X3775301Y19618874D01*
X3775000Y19625000D01*
X3775000Y19750000D01*
X3775301Y19756126D01*
X3776201Y19762193D01*
X3777691Y19768143D01*
X3779758Y19773918D01*
X3782380Y19779462D01*
X3785533Y19784723D01*
X3789187Y19789650D01*
X3793306Y19794194D01*
X3797850Y19798313D01*
X3802777Y19801967D01*
X3808038Y19805120D01*
X3813582Y19807742D01*
X3819357Y19809809D01*
X3825307Y19811299D01*
X3831374Y19812199D01*
X3837500Y19812500D01*
X4537500Y19812500D01*
X4543626Y19812199D01*
X4543626Y19812199D01*
G37*
D22*
X4187500Y19687500D03*
D12*
G36*
X4543626Y20312199D02*
X4549693Y20311299D01*
X4555643Y20309809D01*
X4561418Y20307742D01*
X4566962Y20305120D01*
X4572223Y20301967D01*
X4577150Y20298313D01*
X4581694Y20294194D01*
X4585813Y20289650D01*
X4589467Y20284723D01*
X4592620Y20279462D01*
X4595242Y20273918D01*
X4597309Y20268143D01*
X4598799Y20262193D01*
X4599699Y20256126D01*
X4600000Y20250000D01*
X4600000Y20125000D01*
X4599699Y20118874D01*
X4598799Y20112807D01*
X4597309Y20106857D01*
X4595242Y20101082D01*
X4592620Y20095538D01*
X4589467Y20090277D01*
X4585813Y20085350D01*
X4581694Y20080806D01*
X4577150Y20076687D01*
X4572223Y20073033D01*
X4566962Y20069880D01*
X4561418Y20067258D01*
X4555643Y20065191D01*
X4549693Y20063701D01*
X4543626Y20062801D01*
X4537500Y20062500D01*
X3837500Y20062500D01*
X3831374Y20062801D01*
X3825307Y20063701D01*
X3819357Y20065191D01*
X3813582Y20067258D01*
X3808038Y20069880D01*
X3802777Y20073033D01*
X3797850Y20076687D01*
X3793306Y20080806D01*
X3789187Y20085350D01*
X3785533Y20090277D01*
X3782380Y20095538D01*
X3779758Y20101082D01*
X3777691Y20106857D01*
X3776201Y20112807D01*
X3775301Y20118874D01*
X3775000Y20125000D01*
X3775000Y20250000D01*
X3775301Y20256126D01*
X3776201Y20262193D01*
X3777691Y20268143D01*
X3779758Y20273918D01*
X3782380Y20279462D01*
X3785533Y20284723D01*
X3789187Y20289650D01*
X3793306Y20294194D01*
X3797850Y20298313D01*
X3802777Y20301967D01*
X3808038Y20305120D01*
X3813582Y20307742D01*
X3819357Y20309809D01*
X3825307Y20311299D01*
X3831374Y20312199D01*
X3837500Y20312500D01*
X4537500Y20312500D01*
X4543626Y20312199D01*
X4543626Y20312199D01*
G37*
D22*
X4187500Y20187500D03*
D12*
G36*
X4543626Y20812199D02*
X4549693Y20811299D01*
X4555643Y20809809D01*
X4561418Y20807742D01*
X4566962Y20805120D01*
X4572223Y20801967D01*
X4577150Y20798313D01*
X4581694Y20794194D01*
X4585813Y20789650D01*
X4589467Y20784723D01*
X4592620Y20779462D01*
X4595242Y20773918D01*
X4597309Y20768143D01*
X4598799Y20762193D01*
X4599699Y20756126D01*
X4600000Y20750000D01*
X4600000Y20625000D01*
X4599699Y20618874D01*
X4598799Y20612807D01*
X4597309Y20606857D01*
X4595242Y20601082D01*
X4592620Y20595538D01*
X4589467Y20590277D01*
X4585813Y20585350D01*
X4581694Y20580806D01*
X4577150Y20576687D01*
X4572223Y20573033D01*
X4566962Y20569880D01*
X4561418Y20567258D01*
X4555643Y20565191D01*
X4549693Y20563701D01*
X4543626Y20562801D01*
X4537500Y20562500D01*
X3837500Y20562500D01*
X3831374Y20562801D01*
X3825307Y20563701D01*
X3819357Y20565191D01*
X3813582Y20567258D01*
X3808038Y20569880D01*
X3802777Y20573033D01*
X3797850Y20576687D01*
X3793306Y20580806D01*
X3789187Y20585350D01*
X3785533Y20590277D01*
X3782380Y20595538D01*
X3779758Y20601082D01*
X3777691Y20606857D01*
X3776201Y20612807D01*
X3775301Y20618874D01*
X3775000Y20625000D01*
X3775000Y20750000D01*
X3775301Y20756126D01*
X3776201Y20762193D01*
X3777691Y20768143D01*
X3779758Y20773918D01*
X3782380Y20779462D01*
X3785533Y20784723D01*
X3789187Y20789650D01*
X3793306Y20794194D01*
X3797850Y20798313D01*
X3802777Y20801967D01*
X3808038Y20805120D01*
X3813582Y20807742D01*
X3819357Y20809809D01*
X3825307Y20811299D01*
X3831374Y20812199D01*
X3837500Y20812500D01*
X4537500Y20812500D01*
X4543626Y20812199D01*
X4543626Y20812199D01*
G37*
D22*
X4187500Y20687500D03*
D12*
G36*
X4543626Y21312199D02*
X4549693Y21311299D01*
X4555643Y21309809D01*
X4561418Y21307742D01*
X4566962Y21305120D01*
X4572223Y21301967D01*
X4577150Y21298313D01*
X4581694Y21294194D01*
X4585813Y21289650D01*
X4589467Y21284723D01*
X4592620Y21279462D01*
X4595242Y21273918D01*
X4597309Y21268143D01*
X4598799Y21262193D01*
X4599699Y21256126D01*
X4600000Y21250000D01*
X4600000Y21125000D01*
X4599699Y21118874D01*
X4598799Y21112807D01*
X4597309Y21106857D01*
X4595242Y21101082D01*
X4592620Y21095538D01*
X4589467Y21090277D01*
X4585813Y21085350D01*
X4581694Y21080806D01*
X4577150Y21076687D01*
X4572223Y21073033D01*
X4566962Y21069880D01*
X4561418Y21067258D01*
X4555643Y21065191D01*
X4549693Y21063701D01*
X4543626Y21062801D01*
X4537500Y21062500D01*
X3837500Y21062500D01*
X3831374Y21062801D01*
X3825307Y21063701D01*
X3819357Y21065191D01*
X3813582Y21067258D01*
X3808038Y21069880D01*
X3802777Y21073033D01*
X3797850Y21076687D01*
X3793306Y21080806D01*
X3789187Y21085350D01*
X3785533Y21090277D01*
X3782380Y21095538D01*
X3779758Y21101082D01*
X3777691Y21106857D01*
X3776201Y21112807D01*
X3775301Y21118874D01*
X3775000Y21125000D01*
X3775000Y21250000D01*
X3775301Y21256126D01*
X3776201Y21262193D01*
X3777691Y21268143D01*
X3779758Y21273918D01*
X3782380Y21279462D01*
X3785533Y21284723D01*
X3789187Y21289650D01*
X3793306Y21294194D01*
X3797850Y21298313D01*
X3802777Y21301967D01*
X3808038Y21305120D01*
X3813582Y21307742D01*
X3819357Y21309809D01*
X3825307Y21311299D01*
X3831374Y21312199D01*
X3837500Y21312500D01*
X4537500Y21312500D01*
X4543626Y21312199D01*
X4543626Y21312199D01*
G37*
D22*
X4187500Y21187500D03*
D12*
G36*
X4543626Y21812199D02*
X4549693Y21811299D01*
X4555643Y21809809D01*
X4561418Y21807742D01*
X4566962Y21805120D01*
X4572223Y21801967D01*
X4577150Y21798313D01*
X4581694Y21794194D01*
X4585813Y21789650D01*
X4589467Y21784723D01*
X4592620Y21779462D01*
X4595242Y21773918D01*
X4597309Y21768143D01*
X4598799Y21762193D01*
X4599699Y21756126D01*
X4600000Y21750000D01*
X4600000Y21625000D01*
X4599699Y21618874D01*
X4598799Y21612807D01*
X4597309Y21606857D01*
X4595242Y21601082D01*
X4592620Y21595538D01*
X4589467Y21590277D01*
X4585813Y21585350D01*
X4581694Y21580806D01*
X4577150Y21576687D01*
X4572223Y21573033D01*
X4566962Y21569880D01*
X4561418Y21567258D01*
X4555643Y21565191D01*
X4549693Y21563701D01*
X4543626Y21562801D01*
X4537500Y21562500D01*
X3837500Y21562500D01*
X3831374Y21562801D01*
X3825307Y21563701D01*
X3819357Y21565191D01*
X3813582Y21567258D01*
X3808038Y21569880D01*
X3802777Y21573033D01*
X3797850Y21576687D01*
X3793306Y21580806D01*
X3789187Y21585350D01*
X3785533Y21590277D01*
X3782380Y21595538D01*
X3779758Y21601082D01*
X3777691Y21606857D01*
X3776201Y21612807D01*
X3775301Y21618874D01*
X3775000Y21625000D01*
X3775000Y21750000D01*
X3775301Y21756126D01*
X3776201Y21762193D01*
X3777691Y21768143D01*
X3779758Y21773918D01*
X3782380Y21779462D01*
X3785533Y21784723D01*
X3789187Y21789650D01*
X3793306Y21794194D01*
X3797850Y21798313D01*
X3802777Y21801967D01*
X3808038Y21805120D01*
X3813582Y21807742D01*
X3819357Y21809809D01*
X3825307Y21811299D01*
X3831374Y21812199D01*
X3837500Y21812500D01*
X4537500Y21812500D01*
X4543626Y21812199D01*
X4543626Y21812199D01*
G37*
D22*
X4187500Y21687500D03*
D12*
G36*
X4543626Y22312199D02*
X4549693Y22311299D01*
X4555643Y22309809D01*
X4561418Y22307742D01*
X4566962Y22305120D01*
X4572223Y22301967D01*
X4577150Y22298313D01*
X4581694Y22294194D01*
X4585813Y22289650D01*
X4589467Y22284723D01*
X4592620Y22279462D01*
X4595242Y22273918D01*
X4597309Y22268143D01*
X4598799Y22262193D01*
X4599699Y22256126D01*
X4600000Y22250000D01*
X4600000Y22125000D01*
X4599699Y22118874D01*
X4598799Y22112807D01*
X4597309Y22106857D01*
X4595242Y22101082D01*
X4592620Y22095538D01*
X4589467Y22090277D01*
X4585813Y22085350D01*
X4581694Y22080806D01*
X4577150Y22076687D01*
X4572223Y22073033D01*
X4566962Y22069880D01*
X4561418Y22067258D01*
X4555643Y22065191D01*
X4549693Y22063701D01*
X4543626Y22062801D01*
X4537500Y22062500D01*
X3837500Y22062500D01*
X3831374Y22062801D01*
X3825307Y22063701D01*
X3819357Y22065191D01*
X3813582Y22067258D01*
X3808038Y22069880D01*
X3802777Y22073033D01*
X3797850Y22076687D01*
X3793306Y22080806D01*
X3789187Y22085350D01*
X3785533Y22090277D01*
X3782380Y22095538D01*
X3779758Y22101082D01*
X3777691Y22106857D01*
X3776201Y22112807D01*
X3775301Y22118874D01*
X3775000Y22125000D01*
X3775000Y22250000D01*
X3775301Y22256126D01*
X3776201Y22262193D01*
X3777691Y22268143D01*
X3779758Y22273918D01*
X3782380Y22279462D01*
X3785533Y22284723D01*
X3789187Y22289650D01*
X3793306Y22294194D01*
X3797850Y22298313D01*
X3802777Y22301967D01*
X3808038Y22305120D01*
X3813582Y22307742D01*
X3819357Y22309809D01*
X3825307Y22311299D01*
X3831374Y22312199D01*
X3837500Y22312500D01*
X4537500Y22312500D01*
X4543626Y22312199D01*
X4543626Y22312199D01*
G37*
D22*
X4187500Y22187500D03*
D12*
G36*
X3568626Y23287199D02*
X3574693Y23286299D01*
X3580643Y23284809D01*
X3586418Y23282742D01*
X3591962Y23280120D01*
X3597223Y23276967D01*
X3602150Y23273313D01*
X3606694Y23269194D01*
X3610813Y23264650D01*
X3614467Y23259723D01*
X3617620Y23254462D01*
X3620242Y23248918D01*
X3622309Y23243143D01*
X3623799Y23237193D01*
X3624699Y23231126D01*
X3625000Y23225000D01*
X3625000Y22525000D01*
X3624699Y22518874D01*
X3623799Y22512807D01*
X3622309Y22506857D01*
X3620242Y22501082D01*
X3617620Y22495538D01*
X3614467Y22490277D01*
X3610813Y22485350D01*
X3606694Y22480806D01*
X3602150Y22476687D01*
X3597223Y22473033D01*
X3591962Y22469880D01*
X3586418Y22467258D01*
X3580643Y22465191D01*
X3574693Y22463701D01*
X3568626Y22462801D01*
X3562500Y22462500D01*
X3437500Y22462500D01*
X3431374Y22462801D01*
X3425307Y22463701D01*
X3419357Y22465191D01*
X3413582Y22467258D01*
X3408038Y22469880D01*
X3402777Y22473033D01*
X3397850Y22476687D01*
X3393306Y22480806D01*
X3389187Y22485350D01*
X3385533Y22490277D01*
X3382380Y22495538D01*
X3379758Y22501082D01*
X3377691Y22506857D01*
X3376201Y22512807D01*
X3375301Y22518874D01*
X3375000Y22525000D01*
X3375000Y23225000D01*
X3375301Y23231126D01*
X3376201Y23237193D01*
X3377691Y23243143D01*
X3379758Y23248918D01*
X3382380Y23254462D01*
X3385533Y23259723D01*
X3389187Y23264650D01*
X3393306Y23269194D01*
X3397850Y23273313D01*
X3402777Y23276967D01*
X3408038Y23280120D01*
X3413582Y23282742D01*
X3419357Y23284809D01*
X3425307Y23286299D01*
X3431374Y23287199D01*
X3437500Y23287500D01*
X3562500Y23287500D01*
X3568626Y23287199D01*
X3568626Y23287199D01*
G37*
D22*
X3500000Y22875000D03*
D12*
G36*
X3068626Y23287199D02*
X3074693Y23286299D01*
X3080643Y23284809D01*
X3086418Y23282742D01*
X3091962Y23280120D01*
X3097223Y23276967D01*
X3102150Y23273313D01*
X3106694Y23269194D01*
X3110813Y23264650D01*
X3114467Y23259723D01*
X3117620Y23254462D01*
X3120242Y23248918D01*
X3122309Y23243143D01*
X3123799Y23237193D01*
X3124699Y23231126D01*
X3125000Y23225000D01*
X3125000Y22525000D01*
X3124699Y22518874D01*
X3123799Y22512807D01*
X3122309Y22506857D01*
X3120242Y22501082D01*
X3117620Y22495538D01*
X3114467Y22490277D01*
X3110813Y22485350D01*
X3106694Y22480806D01*
X3102150Y22476687D01*
X3097223Y22473033D01*
X3091962Y22469880D01*
X3086418Y22467258D01*
X3080643Y22465191D01*
X3074693Y22463701D01*
X3068626Y22462801D01*
X3062500Y22462500D01*
X2937500Y22462500D01*
X2931374Y22462801D01*
X2925307Y22463701D01*
X2919357Y22465191D01*
X2913582Y22467258D01*
X2908038Y22469880D01*
X2902777Y22473033D01*
X2897850Y22476687D01*
X2893306Y22480806D01*
X2889187Y22485350D01*
X2885533Y22490277D01*
X2882380Y22495538D01*
X2879758Y22501082D01*
X2877691Y22506857D01*
X2876201Y22512807D01*
X2875301Y22518874D01*
X2875000Y22525000D01*
X2875000Y23225000D01*
X2875301Y23231126D01*
X2876201Y23237193D01*
X2877691Y23243143D01*
X2879758Y23248918D01*
X2882380Y23254462D01*
X2885533Y23259723D01*
X2889187Y23264650D01*
X2893306Y23269194D01*
X2897850Y23273313D01*
X2902777Y23276967D01*
X2908038Y23280120D01*
X2913582Y23282742D01*
X2919357Y23284809D01*
X2925307Y23286299D01*
X2931374Y23287199D01*
X2937500Y23287500D01*
X3062500Y23287500D01*
X3068626Y23287199D01*
X3068626Y23287199D01*
G37*
D22*
X3000000Y22875000D03*
D12*
G36*
X2568626Y23287199D02*
X2574693Y23286299D01*
X2580643Y23284809D01*
X2586418Y23282742D01*
X2591962Y23280120D01*
X2597223Y23276967D01*
X2602150Y23273313D01*
X2606694Y23269194D01*
X2610813Y23264650D01*
X2614467Y23259723D01*
X2617620Y23254462D01*
X2620242Y23248918D01*
X2622309Y23243143D01*
X2623799Y23237193D01*
X2624699Y23231126D01*
X2625000Y23225000D01*
X2625000Y22525000D01*
X2624699Y22518874D01*
X2623799Y22512807D01*
X2622309Y22506857D01*
X2620242Y22501082D01*
X2617620Y22495538D01*
X2614467Y22490277D01*
X2610813Y22485350D01*
X2606694Y22480806D01*
X2602150Y22476687D01*
X2597223Y22473033D01*
X2591962Y22469880D01*
X2586418Y22467258D01*
X2580643Y22465191D01*
X2574693Y22463701D01*
X2568626Y22462801D01*
X2562500Y22462500D01*
X2437500Y22462500D01*
X2431374Y22462801D01*
X2425307Y22463701D01*
X2419357Y22465191D01*
X2413582Y22467258D01*
X2408038Y22469880D01*
X2402777Y22473033D01*
X2397850Y22476687D01*
X2393306Y22480806D01*
X2389187Y22485350D01*
X2385533Y22490277D01*
X2382380Y22495538D01*
X2379758Y22501082D01*
X2377691Y22506857D01*
X2376201Y22512807D01*
X2375301Y22518874D01*
X2375000Y22525000D01*
X2375000Y23225000D01*
X2375301Y23231126D01*
X2376201Y23237193D01*
X2377691Y23243143D01*
X2379758Y23248918D01*
X2382380Y23254462D01*
X2385533Y23259723D01*
X2389187Y23264650D01*
X2393306Y23269194D01*
X2397850Y23273313D01*
X2402777Y23276967D01*
X2408038Y23280120D01*
X2413582Y23282742D01*
X2419357Y23284809D01*
X2425307Y23286299D01*
X2431374Y23287199D01*
X2437500Y23287500D01*
X2562500Y23287500D01*
X2568626Y23287199D01*
X2568626Y23287199D01*
G37*
D22*
X2500000Y22875000D03*
D12*
G36*
X2068626Y23287199D02*
X2074693Y23286299D01*
X2080643Y23284809D01*
X2086418Y23282742D01*
X2091962Y23280120D01*
X2097223Y23276967D01*
X2102150Y23273313D01*
X2106694Y23269194D01*
X2110813Y23264650D01*
X2114467Y23259723D01*
X2117620Y23254462D01*
X2120242Y23248918D01*
X2122309Y23243143D01*
X2123799Y23237193D01*
X2124699Y23231126D01*
X2125000Y23225000D01*
X2125000Y22525000D01*
X2124699Y22518874D01*
X2123799Y22512807D01*
X2122309Y22506857D01*
X2120242Y22501082D01*
X2117620Y22495538D01*
X2114467Y22490277D01*
X2110813Y22485350D01*
X2106694Y22480806D01*
X2102150Y22476687D01*
X2097223Y22473033D01*
X2091962Y22469880D01*
X2086418Y22467258D01*
X2080643Y22465191D01*
X2074693Y22463701D01*
X2068626Y22462801D01*
X2062500Y22462500D01*
X1937500Y22462500D01*
X1931374Y22462801D01*
X1925307Y22463701D01*
X1919357Y22465191D01*
X1913582Y22467258D01*
X1908038Y22469880D01*
X1902777Y22473033D01*
X1897850Y22476687D01*
X1893306Y22480806D01*
X1889187Y22485350D01*
X1885533Y22490277D01*
X1882380Y22495538D01*
X1879758Y22501082D01*
X1877691Y22506857D01*
X1876201Y22512807D01*
X1875301Y22518874D01*
X1875000Y22525000D01*
X1875000Y23225000D01*
X1875301Y23231126D01*
X1876201Y23237193D01*
X1877691Y23243143D01*
X1879758Y23248918D01*
X1882380Y23254462D01*
X1885533Y23259723D01*
X1889187Y23264650D01*
X1893306Y23269194D01*
X1897850Y23273313D01*
X1902777Y23276967D01*
X1908038Y23280120D01*
X1913582Y23282742D01*
X1919357Y23284809D01*
X1925307Y23286299D01*
X1931374Y23287199D01*
X1937500Y23287500D01*
X2062500Y23287500D01*
X2068626Y23287199D01*
X2068626Y23287199D01*
G37*
D22*
X2000000Y22875000D03*
D12*
G36*
X1568626Y23287199D02*
X1574693Y23286299D01*
X1580643Y23284809D01*
X1586418Y23282742D01*
X1591962Y23280120D01*
X1597223Y23276967D01*
X1602150Y23273313D01*
X1606694Y23269194D01*
X1610813Y23264650D01*
X1614467Y23259723D01*
X1617620Y23254462D01*
X1620242Y23248918D01*
X1622309Y23243143D01*
X1623799Y23237193D01*
X1624699Y23231126D01*
X1625000Y23225000D01*
X1625000Y22525000D01*
X1624699Y22518874D01*
X1623799Y22512807D01*
X1622309Y22506857D01*
X1620242Y22501082D01*
X1617620Y22495538D01*
X1614467Y22490277D01*
X1610813Y22485350D01*
X1606694Y22480806D01*
X1602150Y22476687D01*
X1597223Y22473033D01*
X1591962Y22469880D01*
X1586418Y22467258D01*
X1580643Y22465191D01*
X1574693Y22463701D01*
X1568626Y22462801D01*
X1562500Y22462500D01*
X1437500Y22462500D01*
X1431374Y22462801D01*
X1425307Y22463701D01*
X1419357Y22465191D01*
X1413582Y22467258D01*
X1408038Y22469880D01*
X1402777Y22473033D01*
X1397850Y22476687D01*
X1393306Y22480806D01*
X1389187Y22485350D01*
X1385533Y22490277D01*
X1382380Y22495538D01*
X1379758Y22501082D01*
X1377691Y22506857D01*
X1376201Y22512807D01*
X1375301Y22518874D01*
X1375000Y22525000D01*
X1375000Y23225000D01*
X1375301Y23231126D01*
X1376201Y23237193D01*
X1377691Y23243143D01*
X1379758Y23248918D01*
X1382380Y23254462D01*
X1385533Y23259723D01*
X1389187Y23264650D01*
X1393306Y23269194D01*
X1397850Y23273313D01*
X1402777Y23276967D01*
X1408038Y23280120D01*
X1413582Y23282742D01*
X1419357Y23284809D01*
X1425307Y23286299D01*
X1431374Y23287199D01*
X1437500Y23287500D01*
X1562500Y23287500D01*
X1568626Y23287199D01*
X1568626Y23287199D01*
G37*
D22*
X1500000Y22875000D03*
D12*
G36*
X1068626Y23287199D02*
X1074693Y23286299D01*
X1080643Y23284809D01*
X1086418Y23282742D01*
X1091962Y23280120D01*
X1097223Y23276967D01*
X1102150Y23273313D01*
X1106694Y23269194D01*
X1110813Y23264650D01*
X1114467Y23259723D01*
X1117620Y23254462D01*
X1120242Y23248918D01*
X1122309Y23243143D01*
X1123799Y23237193D01*
X1124699Y23231126D01*
X1125000Y23225000D01*
X1125000Y22525000D01*
X1124699Y22518874D01*
X1123799Y22512807D01*
X1122309Y22506857D01*
X1120242Y22501082D01*
X1117620Y22495538D01*
X1114467Y22490277D01*
X1110813Y22485350D01*
X1106694Y22480806D01*
X1102150Y22476687D01*
X1097223Y22473033D01*
X1091962Y22469880D01*
X1086418Y22467258D01*
X1080643Y22465191D01*
X1074693Y22463701D01*
X1068626Y22462801D01*
X1062500Y22462500D01*
X937500Y22462500D01*
X931374Y22462801D01*
X925307Y22463701D01*
X919357Y22465191D01*
X913582Y22467258D01*
X908038Y22469880D01*
X902777Y22473033D01*
X897850Y22476687D01*
X893306Y22480806D01*
X889187Y22485350D01*
X885533Y22490277D01*
X882380Y22495538D01*
X879758Y22501082D01*
X877691Y22506857D01*
X876201Y22512807D01*
X875301Y22518874D01*
X875000Y22525000D01*
X875000Y23225000D01*
X875301Y23231126D01*
X876201Y23237193D01*
X877691Y23243143D01*
X879758Y23248918D01*
X882380Y23254462D01*
X885533Y23259723D01*
X889187Y23264650D01*
X893306Y23269194D01*
X897850Y23273313D01*
X902777Y23276967D01*
X908038Y23280120D01*
X913582Y23282742D01*
X919357Y23284809D01*
X925307Y23286299D01*
X931374Y23287199D01*
X937500Y23287500D01*
X1062500Y23287500D01*
X1068626Y23287199D01*
X1068626Y23287199D01*
G37*
D22*
X1000000Y22875000D03*
D12*
G36*
X668626Y22312199D02*
X674693Y22311299D01*
X680643Y22309809D01*
X686418Y22307742D01*
X691962Y22305120D01*
X697223Y22301967D01*
X702150Y22298313D01*
X706694Y22294194D01*
X710813Y22289650D01*
X714467Y22284723D01*
X717620Y22279462D01*
X720242Y22273918D01*
X722309Y22268143D01*
X723799Y22262193D01*
X724699Y22256126D01*
X725000Y22250000D01*
X725000Y22125000D01*
X724699Y22118874D01*
X723799Y22112807D01*
X722309Y22106857D01*
X720242Y22101082D01*
X717620Y22095538D01*
X714467Y22090277D01*
X710813Y22085350D01*
X706694Y22080806D01*
X702150Y22076687D01*
X697223Y22073033D01*
X691962Y22069880D01*
X686418Y22067258D01*
X680643Y22065191D01*
X674693Y22063701D01*
X668626Y22062801D01*
X662500Y22062500D01*
X-37500Y22062500D01*
X-43626Y22062801D01*
X-49693Y22063701D01*
X-55643Y22065191D01*
X-61418Y22067258D01*
X-66962Y22069880D01*
X-72223Y22073033D01*
X-77150Y22076687D01*
X-81694Y22080806D01*
X-85813Y22085350D01*
X-89467Y22090277D01*
X-92620Y22095538D01*
X-95242Y22101082D01*
X-97309Y22106857D01*
X-98799Y22112807D01*
X-99699Y22118874D01*
X-100000Y22125000D01*
X-100000Y22250000D01*
X-99699Y22256126D01*
X-98799Y22262193D01*
X-97309Y22268143D01*
X-95242Y22273918D01*
X-92620Y22279462D01*
X-89467Y22284723D01*
X-85813Y22289650D01*
X-81694Y22294194D01*
X-77150Y22298313D01*
X-72223Y22301967D01*
X-66962Y22305120D01*
X-61418Y22307742D01*
X-55643Y22309809D01*
X-49693Y22311299D01*
X-43626Y22312199D01*
X-37500Y22312500D01*
X662500Y22312500D01*
X668626Y22312199D01*
X668626Y22312199D01*
G37*
D22*
X312500Y22187500D03*
D12*
G36*
X668626Y21812199D02*
X674693Y21811299D01*
X680643Y21809809D01*
X686418Y21807742D01*
X691962Y21805120D01*
X697223Y21801967D01*
X702150Y21798313D01*
X706694Y21794194D01*
X710813Y21789650D01*
X714467Y21784723D01*
X717620Y21779462D01*
X720242Y21773918D01*
X722309Y21768143D01*
X723799Y21762193D01*
X724699Y21756126D01*
X725000Y21750000D01*
X725000Y21625000D01*
X724699Y21618874D01*
X723799Y21612807D01*
X722309Y21606857D01*
X720242Y21601082D01*
X717620Y21595538D01*
X714467Y21590277D01*
X710813Y21585350D01*
X706694Y21580806D01*
X702150Y21576687D01*
X697223Y21573033D01*
X691962Y21569880D01*
X686418Y21567258D01*
X680643Y21565191D01*
X674693Y21563701D01*
X668626Y21562801D01*
X662500Y21562500D01*
X-37500Y21562500D01*
X-43626Y21562801D01*
X-49693Y21563701D01*
X-55643Y21565191D01*
X-61418Y21567258D01*
X-66962Y21569880D01*
X-72223Y21573033D01*
X-77150Y21576687D01*
X-81694Y21580806D01*
X-85813Y21585350D01*
X-89467Y21590277D01*
X-92620Y21595538D01*
X-95242Y21601082D01*
X-97309Y21606857D01*
X-98799Y21612807D01*
X-99699Y21618874D01*
X-100000Y21625000D01*
X-100000Y21750000D01*
X-99699Y21756126D01*
X-98799Y21762193D01*
X-97309Y21768143D01*
X-95242Y21773918D01*
X-92620Y21779462D01*
X-89467Y21784723D01*
X-85813Y21789650D01*
X-81694Y21794194D01*
X-77150Y21798313D01*
X-72223Y21801967D01*
X-66962Y21805120D01*
X-61418Y21807742D01*
X-55643Y21809809D01*
X-49693Y21811299D01*
X-43626Y21812199D01*
X-37500Y21812500D01*
X662500Y21812500D01*
X668626Y21812199D01*
X668626Y21812199D01*
G37*
D22*
X312500Y21687500D03*
D12*
G36*
X668626Y21312199D02*
X674693Y21311299D01*
X680643Y21309809D01*
X686418Y21307742D01*
X691962Y21305120D01*
X697223Y21301967D01*
X702150Y21298313D01*
X706694Y21294194D01*
X710813Y21289650D01*
X714467Y21284723D01*
X717620Y21279462D01*
X720242Y21273918D01*
X722309Y21268143D01*
X723799Y21262193D01*
X724699Y21256126D01*
X725000Y21250000D01*
X725000Y21125000D01*
X724699Y21118874D01*
X723799Y21112807D01*
X722309Y21106857D01*
X720242Y21101082D01*
X717620Y21095538D01*
X714467Y21090277D01*
X710813Y21085350D01*
X706694Y21080806D01*
X702150Y21076687D01*
X697223Y21073033D01*
X691962Y21069880D01*
X686418Y21067258D01*
X680643Y21065191D01*
X674693Y21063701D01*
X668626Y21062801D01*
X662500Y21062500D01*
X-37500Y21062500D01*
X-43626Y21062801D01*
X-49693Y21063701D01*
X-55643Y21065191D01*
X-61418Y21067258D01*
X-66962Y21069880D01*
X-72223Y21073033D01*
X-77150Y21076687D01*
X-81694Y21080806D01*
X-85813Y21085350D01*
X-89467Y21090277D01*
X-92620Y21095538D01*
X-95242Y21101082D01*
X-97309Y21106857D01*
X-98799Y21112807D01*
X-99699Y21118874D01*
X-100000Y21125000D01*
X-100000Y21250000D01*
X-99699Y21256126D01*
X-98799Y21262193D01*
X-97309Y21268143D01*
X-95242Y21273918D01*
X-92620Y21279462D01*
X-89467Y21284723D01*
X-85813Y21289650D01*
X-81694Y21294194D01*
X-77150Y21298313D01*
X-72223Y21301967D01*
X-66962Y21305120D01*
X-61418Y21307742D01*
X-55643Y21309809D01*
X-49693Y21311299D01*
X-43626Y21312199D01*
X-37500Y21312500D01*
X662500Y21312500D01*
X668626Y21312199D01*
X668626Y21312199D01*
G37*
D22*
X312500Y21187500D03*
D12*
G36*
X668626Y20812199D02*
X674693Y20811299D01*
X680643Y20809809D01*
X686418Y20807742D01*
X691962Y20805120D01*
X697223Y20801967D01*
X702150Y20798313D01*
X706694Y20794194D01*
X710813Y20789650D01*
X714467Y20784723D01*
X717620Y20779462D01*
X720242Y20773918D01*
X722309Y20768143D01*
X723799Y20762193D01*
X724699Y20756126D01*
X725000Y20750000D01*
X725000Y20625000D01*
X724699Y20618874D01*
X723799Y20612807D01*
X722309Y20606857D01*
X720242Y20601082D01*
X717620Y20595538D01*
X714467Y20590277D01*
X710813Y20585350D01*
X706694Y20580806D01*
X702150Y20576687D01*
X697223Y20573033D01*
X691962Y20569880D01*
X686418Y20567258D01*
X680643Y20565191D01*
X674693Y20563701D01*
X668626Y20562801D01*
X662500Y20562500D01*
X-37500Y20562500D01*
X-43626Y20562801D01*
X-49693Y20563701D01*
X-55643Y20565191D01*
X-61418Y20567258D01*
X-66962Y20569880D01*
X-72223Y20573033D01*
X-77150Y20576687D01*
X-81694Y20580806D01*
X-85813Y20585350D01*
X-89467Y20590277D01*
X-92620Y20595538D01*
X-95242Y20601082D01*
X-97309Y20606857D01*
X-98799Y20612807D01*
X-99699Y20618874D01*
X-100000Y20625000D01*
X-100000Y20750000D01*
X-99699Y20756126D01*
X-98799Y20762193D01*
X-97309Y20768143D01*
X-95242Y20773918D01*
X-92620Y20779462D01*
X-89467Y20784723D01*
X-85813Y20789650D01*
X-81694Y20794194D01*
X-77150Y20798313D01*
X-72223Y20801967D01*
X-66962Y20805120D01*
X-61418Y20807742D01*
X-55643Y20809809D01*
X-49693Y20811299D01*
X-43626Y20812199D01*
X-37500Y20812500D01*
X662500Y20812500D01*
X668626Y20812199D01*
X668626Y20812199D01*
G37*
D22*
X312500Y20687500D03*
D12*
G36*
X668626Y20312199D02*
X674693Y20311299D01*
X680643Y20309809D01*
X686418Y20307742D01*
X691962Y20305120D01*
X697223Y20301967D01*
X702150Y20298313D01*
X706694Y20294194D01*
X710813Y20289650D01*
X714467Y20284723D01*
X717620Y20279462D01*
X720242Y20273918D01*
X722309Y20268143D01*
X723799Y20262193D01*
X724699Y20256126D01*
X725000Y20250000D01*
X725000Y20125000D01*
X724699Y20118874D01*
X723799Y20112807D01*
X722309Y20106857D01*
X720242Y20101082D01*
X717620Y20095538D01*
X714467Y20090277D01*
X710813Y20085350D01*
X706694Y20080806D01*
X702150Y20076687D01*
X697223Y20073033D01*
X691962Y20069880D01*
X686418Y20067258D01*
X680643Y20065191D01*
X674693Y20063701D01*
X668626Y20062801D01*
X662500Y20062500D01*
X-37500Y20062500D01*
X-43626Y20062801D01*
X-49693Y20063701D01*
X-55643Y20065191D01*
X-61418Y20067258D01*
X-66962Y20069880D01*
X-72223Y20073033D01*
X-77150Y20076687D01*
X-81694Y20080806D01*
X-85813Y20085350D01*
X-89467Y20090277D01*
X-92620Y20095538D01*
X-95242Y20101082D01*
X-97309Y20106857D01*
X-98799Y20112807D01*
X-99699Y20118874D01*
X-100000Y20125000D01*
X-100000Y20250000D01*
X-99699Y20256126D01*
X-98799Y20262193D01*
X-97309Y20268143D01*
X-95242Y20273918D01*
X-92620Y20279462D01*
X-89467Y20284723D01*
X-85813Y20289650D01*
X-81694Y20294194D01*
X-77150Y20298313D01*
X-72223Y20301967D01*
X-66962Y20305120D01*
X-61418Y20307742D01*
X-55643Y20309809D01*
X-49693Y20311299D01*
X-43626Y20312199D01*
X-37500Y20312500D01*
X662500Y20312500D01*
X668626Y20312199D01*
X668626Y20312199D01*
G37*
D22*
X312500Y20187500D03*
D12*
G36*
X668626Y19812199D02*
X674693Y19811299D01*
X680643Y19809809D01*
X686418Y19807742D01*
X691962Y19805120D01*
X697223Y19801967D01*
X702150Y19798313D01*
X706694Y19794194D01*
X710813Y19789650D01*
X714467Y19784723D01*
X717620Y19779462D01*
X720242Y19773918D01*
X722309Y19768143D01*
X723799Y19762193D01*
X724699Y19756126D01*
X725000Y19750000D01*
X725000Y19625000D01*
X724699Y19618874D01*
X723799Y19612807D01*
X722309Y19606857D01*
X720242Y19601082D01*
X717620Y19595538D01*
X714467Y19590277D01*
X710813Y19585350D01*
X706694Y19580806D01*
X702150Y19576687D01*
X697223Y19573033D01*
X691962Y19569880D01*
X686418Y19567258D01*
X680643Y19565191D01*
X674693Y19563701D01*
X668626Y19562801D01*
X662500Y19562500D01*
X-37500Y19562500D01*
X-43626Y19562801D01*
X-49693Y19563701D01*
X-55643Y19565191D01*
X-61418Y19567258D01*
X-66962Y19569880D01*
X-72223Y19573033D01*
X-77150Y19576687D01*
X-81694Y19580806D01*
X-85813Y19585350D01*
X-89467Y19590277D01*
X-92620Y19595538D01*
X-95242Y19601082D01*
X-97309Y19606857D01*
X-98799Y19612807D01*
X-99699Y19618874D01*
X-100000Y19625000D01*
X-100000Y19750000D01*
X-99699Y19756126D01*
X-98799Y19762193D01*
X-97309Y19768143D01*
X-95242Y19773918D01*
X-92620Y19779462D01*
X-89467Y19784723D01*
X-85813Y19789650D01*
X-81694Y19794194D01*
X-77150Y19798313D01*
X-72223Y19801967D01*
X-66962Y19805120D01*
X-61418Y19807742D01*
X-55643Y19809809D01*
X-49693Y19811299D01*
X-43626Y19812199D01*
X-37500Y19812500D01*
X662500Y19812500D01*
X668626Y19812199D01*
X668626Y19812199D01*
G37*
D22*
X312500Y19687500D03*
D12*
G36*
X1068626Y19412199D02*
X1074693Y19411299D01*
X1080643Y19409809D01*
X1086418Y19407742D01*
X1091962Y19405120D01*
X1097223Y19401967D01*
X1102150Y19398313D01*
X1106694Y19394194D01*
X1110813Y19389650D01*
X1114467Y19384723D01*
X1117620Y19379462D01*
X1120242Y19373918D01*
X1122309Y19368143D01*
X1123799Y19362193D01*
X1124699Y19356126D01*
X1125000Y19350000D01*
X1125000Y18650000D01*
X1124699Y18643874D01*
X1123799Y18637807D01*
X1122309Y18631857D01*
X1120242Y18626082D01*
X1117620Y18620538D01*
X1114467Y18615277D01*
X1110813Y18610350D01*
X1106694Y18605806D01*
X1102150Y18601687D01*
X1097223Y18598033D01*
X1091962Y18594880D01*
X1086418Y18592258D01*
X1080643Y18590191D01*
X1074693Y18588701D01*
X1068626Y18587801D01*
X1062500Y18587500D01*
X937500Y18587500D01*
X931374Y18587801D01*
X925307Y18588701D01*
X919357Y18590191D01*
X913582Y18592258D01*
X908038Y18594880D01*
X902777Y18598033D01*
X897850Y18601687D01*
X893306Y18605806D01*
X889187Y18610350D01*
X885533Y18615277D01*
X882380Y18620538D01*
X879758Y18626082D01*
X877691Y18631857D01*
X876201Y18637807D01*
X875301Y18643874D01*
X875000Y18650000D01*
X875000Y19350000D01*
X875301Y19356126D01*
X876201Y19362193D01*
X877691Y19368143D01*
X879758Y19373918D01*
X882380Y19379462D01*
X885533Y19384723D01*
X889187Y19389650D01*
X893306Y19394194D01*
X897850Y19398313D01*
X902777Y19401967D01*
X908038Y19405120D01*
X913582Y19407742D01*
X919357Y19409809D01*
X925307Y19411299D01*
X931374Y19412199D01*
X937500Y19412500D01*
X1062500Y19412500D01*
X1068626Y19412199D01*
X1068626Y19412199D01*
G37*
D22*
X1000000Y19000000D03*
D12*
G36*
X1568626Y19412199D02*
X1574693Y19411299D01*
X1580643Y19409809D01*
X1586418Y19407742D01*
X1591962Y19405120D01*
X1597223Y19401967D01*
X1602150Y19398313D01*
X1606694Y19394194D01*
X1610813Y19389650D01*
X1614467Y19384723D01*
X1617620Y19379462D01*
X1620242Y19373918D01*
X1622309Y19368143D01*
X1623799Y19362193D01*
X1624699Y19356126D01*
X1625000Y19350000D01*
X1625000Y18650000D01*
X1624699Y18643874D01*
X1623799Y18637807D01*
X1622309Y18631857D01*
X1620242Y18626082D01*
X1617620Y18620538D01*
X1614467Y18615277D01*
X1610813Y18610350D01*
X1606694Y18605806D01*
X1602150Y18601687D01*
X1597223Y18598033D01*
X1591962Y18594880D01*
X1586418Y18592258D01*
X1580643Y18590191D01*
X1574693Y18588701D01*
X1568626Y18587801D01*
X1562500Y18587500D01*
X1437500Y18587500D01*
X1431374Y18587801D01*
X1425307Y18588701D01*
X1419357Y18590191D01*
X1413582Y18592258D01*
X1408038Y18594880D01*
X1402777Y18598033D01*
X1397850Y18601687D01*
X1393306Y18605806D01*
X1389187Y18610350D01*
X1385533Y18615277D01*
X1382380Y18620538D01*
X1379758Y18626082D01*
X1377691Y18631857D01*
X1376201Y18637807D01*
X1375301Y18643874D01*
X1375000Y18650000D01*
X1375000Y19350000D01*
X1375301Y19356126D01*
X1376201Y19362193D01*
X1377691Y19368143D01*
X1379758Y19373918D01*
X1382380Y19379462D01*
X1385533Y19384723D01*
X1389187Y19389650D01*
X1393306Y19394194D01*
X1397850Y19398313D01*
X1402777Y19401967D01*
X1408038Y19405120D01*
X1413582Y19407742D01*
X1419357Y19409809D01*
X1425307Y19411299D01*
X1431374Y19412199D01*
X1437500Y19412500D01*
X1562500Y19412500D01*
X1568626Y19412199D01*
X1568626Y19412199D01*
G37*
D22*
X1500000Y19000000D03*
D12*
G36*
X2068626Y19412199D02*
X2074693Y19411299D01*
X2080643Y19409809D01*
X2086418Y19407742D01*
X2091962Y19405120D01*
X2097223Y19401967D01*
X2102150Y19398313D01*
X2106694Y19394194D01*
X2110813Y19389650D01*
X2114467Y19384723D01*
X2117620Y19379462D01*
X2120242Y19373918D01*
X2122309Y19368143D01*
X2123799Y19362193D01*
X2124699Y19356126D01*
X2125000Y19350000D01*
X2125000Y18650000D01*
X2124699Y18643874D01*
X2123799Y18637807D01*
X2122309Y18631857D01*
X2120242Y18626082D01*
X2117620Y18620538D01*
X2114467Y18615277D01*
X2110813Y18610350D01*
X2106694Y18605806D01*
X2102150Y18601687D01*
X2097223Y18598033D01*
X2091962Y18594880D01*
X2086418Y18592258D01*
X2080643Y18590191D01*
X2074693Y18588701D01*
X2068626Y18587801D01*
X2062500Y18587500D01*
X1937500Y18587500D01*
X1931374Y18587801D01*
X1925307Y18588701D01*
X1919357Y18590191D01*
X1913582Y18592258D01*
X1908038Y18594880D01*
X1902777Y18598033D01*
X1897850Y18601687D01*
X1893306Y18605806D01*
X1889187Y18610350D01*
X1885533Y18615277D01*
X1882380Y18620538D01*
X1879758Y18626082D01*
X1877691Y18631857D01*
X1876201Y18637807D01*
X1875301Y18643874D01*
X1875000Y18650000D01*
X1875000Y19350000D01*
X1875301Y19356126D01*
X1876201Y19362193D01*
X1877691Y19368143D01*
X1879758Y19373918D01*
X1882380Y19379462D01*
X1885533Y19384723D01*
X1889187Y19389650D01*
X1893306Y19394194D01*
X1897850Y19398313D01*
X1902777Y19401967D01*
X1908038Y19405120D01*
X1913582Y19407742D01*
X1919357Y19409809D01*
X1925307Y19411299D01*
X1931374Y19412199D01*
X1937500Y19412500D01*
X2062500Y19412500D01*
X2068626Y19412199D01*
X2068626Y19412199D01*
G37*
D22*
X2000000Y19000000D03*
D12*
G36*
X2568626Y19412199D02*
X2574693Y19411299D01*
X2580643Y19409809D01*
X2586418Y19407742D01*
X2591962Y19405120D01*
X2597223Y19401967D01*
X2602150Y19398313D01*
X2606694Y19394194D01*
X2610813Y19389650D01*
X2614467Y19384723D01*
X2617620Y19379462D01*
X2620242Y19373918D01*
X2622309Y19368143D01*
X2623799Y19362193D01*
X2624699Y19356126D01*
X2625000Y19350000D01*
X2625000Y18650000D01*
X2624699Y18643874D01*
X2623799Y18637807D01*
X2622309Y18631857D01*
X2620242Y18626082D01*
X2617620Y18620538D01*
X2614467Y18615277D01*
X2610813Y18610350D01*
X2606694Y18605806D01*
X2602150Y18601687D01*
X2597223Y18598033D01*
X2591962Y18594880D01*
X2586418Y18592258D01*
X2580643Y18590191D01*
X2574693Y18588701D01*
X2568626Y18587801D01*
X2562500Y18587500D01*
X2437500Y18587500D01*
X2431374Y18587801D01*
X2425307Y18588701D01*
X2419357Y18590191D01*
X2413582Y18592258D01*
X2408038Y18594880D01*
X2402777Y18598033D01*
X2397850Y18601687D01*
X2393306Y18605806D01*
X2389187Y18610350D01*
X2385533Y18615277D01*
X2382380Y18620538D01*
X2379758Y18626082D01*
X2377691Y18631857D01*
X2376201Y18637807D01*
X2375301Y18643874D01*
X2375000Y18650000D01*
X2375000Y19350000D01*
X2375301Y19356126D01*
X2376201Y19362193D01*
X2377691Y19368143D01*
X2379758Y19373918D01*
X2382380Y19379462D01*
X2385533Y19384723D01*
X2389187Y19389650D01*
X2393306Y19394194D01*
X2397850Y19398313D01*
X2402777Y19401967D01*
X2408038Y19405120D01*
X2413582Y19407742D01*
X2419357Y19409809D01*
X2425307Y19411299D01*
X2431374Y19412199D01*
X2437500Y19412500D01*
X2562500Y19412500D01*
X2568626Y19412199D01*
X2568626Y19412199D01*
G37*
D22*
X2500000Y19000000D03*
D12*
G36*
X3068626Y19412199D02*
X3074693Y19411299D01*
X3080643Y19409809D01*
X3086418Y19407742D01*
X3091962Y19405120D01*
X3097223Y19401967D01*
X3102150Y19398313D01*
X3106694Y19394194D01*
X3110813Y19389650D01*
X3114467Y19384723D01*
X3117620Y19379462D01*
X3120242Y19373918D01*
X3122309Y19368143D01*
X3123799Y19362193D01*
X3124699Y19356126D01*
X3125000Y19350000D01*
X3125000Y18650000D01*
X3124699Y18643874D01*
X3123799Y18637807D01*
X3122309Y18631857D01*
X3120242Y18626082D01*
X3117620Y18620538D01*
X3114467Y18615277D01*
X3110813Y18610350D01*
X3106694Y18605806D01*
X3102150Y18601687D01*
X3097223Y18598033D01*
X3091962Y18594880D01*
X3086418Y18592258D01*
X3080643Y18590191D01*
X3074693Y18588701D01*
X3068626Y18587801D01*
X3062500Y18587500D01*
X2937500Y18587500D01*
X2931374Y18587801D01*
X2925307Y18588701D01*
X2919357Y18590191D01*
X2913582Y18592258D01*
X2908038Y18594880D01*
X2902777Y18598033D01*
X2897850Y18601687D01*
X2893306Y18605806D01*
X2889187Y18610350D01*
X2885533Y18615277D01*
X2882380Y18620538D01*
X2879758Y18626082D01*
X2877691Y18631857D01*
X2876201Y18637807D01*
X2875301Y18643874D01*
X2875000Y18650000D01*
X2875000Y19350000D01*
X2875301Y19356126D01*
X2876201Y19362193D01*
X2877691Y19368143D01*
X2879758Y19373918D01*
X2882380Y19379462D01*
X2885533Y19384723D01*
X2889187Y19389650D01*
X2893306Y19394194D01*
X2897850Y19398313D01*
X2902777Y19401967D01*
X2908038Y19405120D01*
X2913582Y19407742D01*
X2919357Y19409809D01*
X2925307Y19411299D01*
X2931374Y19412199D01*
X2937500Y19412500D01*
X3062500Y19412500D01*
X3068626Y19412199D01*
X3068626Y19412199D01*
G37*
D22*
X3000000Y19000000D03*
D12*
G36*
X3568626Y19412199D02*
X3574693Y19411299D01*
X3580643Y19409809D01*
X3586418Y19407742D01*
X3591962Y19405120D01*
X3597223Y19401967D01*
X3602150Y19398313D01*
X3606694Y19394194D01*
X3610813Y19389650D01*
X3614467Y19384723D01*
X3617620Y19379462D01*
X3620242Y19373918D01*
X3622309Y19368143D01*
X3623799Y19362193D01*
X3624699Y19356126D01*
X3625000Y19350000D01*
X3625000Y18650000D01*
X3624699Y18643874D01*
X3623799Y18637807D01*
X3622309Y18631857D01*
X3620242Y18626082D01*
X3617620Y18620538D01*
X3614467Y18615277D01*
X3610813Y18610350D01*
X3606694Y18605806D01*
X3602150Y18601687D01*
X3597223Y18598033D01*
X3591962Y18594880D01*
X3586418Y18592258D01*
X3580643Y18590191D01*
X3574693Y18588701D01*
X3568626Y18587801D01*
X3562500Y18587500D01*
X3437500Y18587500D01*
X3431374Y18587801D01*
X3425307Y18588701D01*
X3419357Y18590191D01*
X3413582Y18592258D01*
X3408038Y18594880D01*
X3402777Y18598033D01*
X3397850Y18601687D01*
X3393306Y18605806D01*
X3389187Y18610350D01*
X3385533Y18615277D01*
X3382380Y18620538D01*
X3379758Y18626082D01*
X3377691Y18631857D01*
X3376201Y18637807D01*
X3375301Y18643874D01*
X3375000Y18650000D01*
X3375000Y19350000D01*
X3375301Y19356126D01*
X3376201Y19362193D01*
X3377691Y19368143D01*
X3379758Y19373918D01*
X3382380Y19379462D01*
X3385533Y19384723D01*
X3389187Y19389650D01*
X3393306Y19394194D01*
X3397850Y19398313D01*
X3402777Y19401967D01*
X3408038Y19405120D01*
X3413582Y19407742D01*
X3419357Y19409809D01*
X3425307Y19411299D01*
X3431374Y19412199D01*
X3437500Y19412500D01*
X3562500Y19412500D01*
X3568626Y19412199D01*
X3568626Y19412199D01*
G37*
D22*
X3500000Y19000000D03*
G04 #@! TD*
D16*
G04 #@! TO.C,REF\002A\002A*
X-11430000Y31750000D03*
G04 #@! TD*
D12*
G04 #@! TO.C,R1*
G36*
X2196958Y16899290D02*
X2211276Y16897166D01*
X2225317Y16893649D01*
X2238946Y16888772D01*
X2252031Y16882583D01*
X2264447Y16875142D01*
X2276073Y16866519D01*
X2286798Y16856798D01*
X2296519Y16846073D01*
X2305142Y16834447D01*
X2312583Y16822031D01*
X2318772Y16808946D01*
X2323649Y16795317D01*
X2327166Y16781276D01*
X2329290Y16766958D01*
X2330000Y16752500D01*
X2330000Y16457500D01*
X2329290Y16443042D01*
X2327166Y16428724D01*
X2323649Y16414683D01*
X2318772Y16401054D01*
X2312583Y16387969D01*
X2305142Y16375553D01*
X2296519Y16363927D01*
X2286798Y16353202D01*
X2276073Y16343481D01*
X2264447Y16334858D01*
X2252031Y16327417D01*
X2238946Y16321228D01*
X2225317Y16316351D01*
X2211276Y16312834D01*
X2196958Y16310710D01*
X2182500Y16310000D01*
X1837500Y16310000D01*
X1823042Y16310710D01*
X1808724Y16312834D01*
X1794683Y16316351D01*
X1781054Y16321228D01*
X1767969Y16327417D01*
X1755553Y16334858D01*
X1743927Y16343481D01*
X1733202Y16353202D01*
X1723481Y16363927D01*
X1714858Y16375553D01*
X1707417Y16387969D01*
X1701228Y16401054D01*
X1696351Y16414683D01*
X1692834Y16428724D01*
X1690710Y16443042D01*
X1690000Y16457500D01*
X1690000Y16752500D01*
X1690710Y16766958D01*
X1692834Y16781276D01*
X1696351Y16795317D01*
X1701228Y16808946D01*
X1707417Y16822031D01*
X1714858Y16834447D01*
X1723481Y16846073D01*
X1733202Y16856798D01*
X1743927Y16866519D01*
X1755553Y16875142D01*
X1767969Y16882583D01*
X1781054Y16888772D01*
X1794683Y16893649D01*
X1808724Y16897166D01*
X1823042Y16899290D01*
X1837500Y16900000D01*
X2182500Y16900000D01*
X2196958Y16899290D01*
X2196958Y16899290D01*
G37*
D13*
X2010000Y16605000D03*
D12*
G36*
X2196958Y17869290D02*
X2211276Y17867166D01*
X2225317Y17863649D01*
X2238946Y17858772D01*
X2252031Y17852583D01*
X2264447Y17845142D01*
X2276073Y17836519D01*
X2286798Y17826798D01*
X2296519Y17816073D01*
X2305142Y17804447D01*
X2312583Y17792031D01*
X2318772Y17778946D01*
X2323649Y17765317D01*
X2327166Y17751276D01*
X2329290Y17736958D01*
X2330000Y17722500D01*
X2330000Y17427500D01*
X2329290Y17413042D01*
X2327166Y17398724D01*
X2323649Y17384683D01*
X2318772Y17371054D01*
X2312583Y17357969D01*
X2305142Y17345553D01*
X2296519Y17333927D01*
X2286798Y17323202D01*
X2276073Y17313481D01*
X2264447Y17304858D01*
X2252031Y17297417D01*
X2238946Y17291228D01*
X2225317Y17286351D01*
X2211276Y17282834D01*
X2196958Y17280710D01*
X2182500Y17280000D01*
X1837500Y17280000D01*
X1823042Y17280710D01*
X1808724Y17282834D01*
X1794683Y17286351D01*
X1781054Y17291228D01*
X1767969Y17297417D01*
X1755553Y17304858D01*
X1743927Y17313481D01*
X1733202Y17323202D01*
X1723481Y17333927D01*
X1714858Y17345553D01*
X1707417Y17357969D01*
X1701228Y17371054D01*
X1696351Y17384683D01*
X1692834Y17398724D01*
X1690710Y17413042D01*
X1690000Y17427500D01*
X1690000Y17722500D01*
X1690710Y17736958D01*
X1692834Y17751276D01*
X1696351Y17765317D01*
X1701228Y17778946D01*
X1707417Y17792031D01*
X1714858Y17804447D01*
X1723481Y17816073D01*
X1733202Y17826798D01*
X1743927Y17836519D01*
X1755553Y17845142D01*
X1767969Y17852583D01*
X1781054Y17858772D01*
X1794683Y17863649D01*
X1808724Y17867166D01*
X1823042Y17869290D01*
X1837500Y17870000D01*
X2182500Y17870000D01*
X2196958Y17869290D01*
X2196958Y17869290D01*
G37*
D13*
X2010000Y17575000D03*
G04 #@! TD*
D12*
G04 #@! TO.C,C1*
G36*
X6286958Y22409290D02*
X6301276Y22407166D01*
X6315317Y22403649D01*
X6328946Y22398772D01*
X6342031Y22392583D01*
X6354447Y22385142D01*
X6366073Y22376519D01*
X6376798Y22366798D01*
X6386519Y22356073D01*
X6395142Y22344447D01*
X6402583Y22332031D01*
X6408772Y22318946D01*
X6413649Y22305317D01*
X6417166Y22291276D01*
X6419290Y22276958D01*
X6420000Y22262500D01*
X6420000Y21967500D01*
X6419290Y21953042D01*
X6417166Y21938724D01*
X6413649Y21924683D01*
X6408772Y21911054D01*
X6402583Y21897969D01*
X6395142Y21885553D01*
X6386519Y21873927D01*
X6376798Y21863202D01*
X6366073Y21853481D01*
X6354447Y21844858D01*
X6342031Y21837417D01*
X6328946Y21831228D01*
X6315317Y21826351D01*
X6301276Y21822834D01*
X6286958Y21820710D01*
X6272500Y21820000D01*
X5927500Y21820000D01*
X5913042Y21820710D01*
X5898724Y21822834D01*
X5884683Y21826351D01*
X5871054Y21831228D01*
X5857969Y21837417D01*
X5845553Y21844858D01*
X5833927Y21853481D01*
X5823202Y21863202D01*
X5813481Y21873927D01*
X5804858Y21885553D01*
X5797417Y21897969D01*
X5791228Y21911054D01*
X5786351Y21924683D01*
X5782834Y21938724D01*
X5780710Y21953042D01*
X5780000Y21967500D01*
X5780000Y22262500D01*
X5780710Y22276958D01*
X5782834Y22291276D01*
X5786351Y22305317D01*
X5791228Y22318946D01*
X5797417Y22332031D01*
X5804858Y22344447D01*
X5813481Y22356073D01*
X5823202Y22366798D01*
X5833927Y22376519D01*
X5845553Y22385142D01*
X5857969Y22392583D01*
X5871054Y22398772D01*
X5884683Y22403649D01*
X5898724Y22407166D01*
X5913042Y22409290D01*
X5927500Y22410000D01*
X6272500Y22410000D01*
X6286958Y22409290D01*
X6286958Y22409290D01*
G37*
D13*
X6100000Y22115000D03*
D12*
G36*
X6286958Y23379290D02*
X6301276Y23377166D01*
X6315317Y23373649D01*
X6328946Y23368772D01*
X6342031Y23362583D01*
X6354447Y23355142D01*
X6366073Y23346519D01*
X6376798Y23336798D01*
X6386519Y23326073D01*
X6395142Y23314447D01*
X6402583Y23302031D01*
X6408772Y23288946D01*
X6413649Y23275317D01*
X6417166Y23261276D01*
X6419290Y23246958D01*
X6420000Y23232500D01*
X6420000Y22937500D01*
X6419290Y22923042D01*
X6417166Y22908724D01*
X6413649Y22894683D01*
X6408772Y22881054D01*
X6402583Y22867969D01*
X6395142Y22855553D01*
X6386519Y22843927D01*
X6376798Y22833202D01*
X6366073Y22823481D01*
X6354447Y22814858D01*
X6342031Y22807417D01*
X6328946Y22801228D01*
X6315317Y22796351D01*
X6301276Y22792834D01*
X6286958Y22790710D01*
X6272500Y22790000D01*
X5927500Y22790000D01*
X5913042Y22790710D01*
X5898724Y22792834D01*
X5884683Y22796351D01*
X5871054Y22801228D01*
X5857969Y22807417D01*
X5845553Y22814858D01*
X5833927Y22823481D01*
X5823202Y22833202D01*
X5813481Y22843927D01*
X5804858Y22855553D01*
X5797417Y22867969D01*
X5791228Y22881054D01*
X5786351Y22894683D01*
X5782834Y22908724D01*
X5780710Y22923042D01*
X5780000Y22937500D01*
X5780000Y23232500D01*
X5780710Y23246958D01*
X5782834Y23261276D01*
X5786351Y23275317D01*
X5791228Y23288946D01*
X5797417Y23302031D01*
X5804858Y23314447D01*
X5813481Y23326073D01*
X5823202Y23336798D01*
X5833927Y23346519D01*
X5845553Y23355142D01*
X5857969Y23362583D01*
X5871054Y23368772D01*
X5884683Y23373649D01*
X5898724Y23377166D01*
X5913042Y23379290D01*
X5927500Y23380000D01*
X6272500Y23380000D01*
X6286958Y23379290D01*
X6286958Y23379290D01*
G37*
D13*
X6100000Y23085000D03*
G04 #@! TD*
D12*
G04 #@! TO.C,C3*
G36*
X8686958Y23379290D02*
X8701276Y23377166D01*
X8715317Y23373649D01*
X8728946Y23368772D01*
X8742031Y23362583D01*
X8754447Y23355142D01*
X8766073Y23346519D01*
X8776798Y23336798D01*
X8786519Y23326073D01*
X8795142Y23314447D01*
X8802583Y23302031D01*
X8808772Y23288946D01*
X8813649Y23275317D01*
X8817166Y23261276D01*
X8819290Y23246958D01*
X8820000Y23232500D01*
X8820000Y22937500D01*
X8819290Y22923042D01*
X8817166Y22908724D01*
X8813649Y22894683D01*
X8808772Y22881054D01*
X8802583Y22867969D01*
X8795142Y22855553D01*
X8786519Y22843927D01*
X8776798Y22833202D01*
X8766073Y22823481D01*
X8754447Y22814858D01*
X8742031Y22807417D01*
X8728946Y22801228D01*
X8715317Y22796351D01*
X8701276Y22792834D01*
X8686958Y22790710D01*
X8672500Y22790000D01*
X8327500Y22790000D01*
X8313042Y22790710D01*
X8298724Y22792834D01*
X8284683Y22796351D01*
X8271054Y22801228D01*
X8257969Y22807417D01*
X8245553Y22814858D01*
X8233927Y22823481D01*
X8223202Y22833202D01*
X8213481Y22843927D01*
X8204858Y22855553D01*
X8197417Y22867969D01*
X8191228Y22881054D01*
X8186351Y22894683D01*
X8182834Y22908724D01*
X8180710Y22923042D01*
X8180000Y22937500D01*
X8180000Y23232500D01*
X8180710Y23246958D01*
X8182834Y23261276D01*
X8186351Y23275317D01*
X8191228Y23288946D01*
X8197417Y23302031D01*
X8204858Y23314447D01*
X8213481Y23326073D01*
X8223202Y23336798D01*
X8233927Y23346519D01*
X8245553Y23355142D01*
X8257969Y23362583D01*
X8271054Y23368772D01*
X8284683Y23373649D01*
X8298724Y23377166D01*
X8313042Y23379290D01*
X8327500Y23380000D01*
X8672500Y23380000D01*
X8686958Y23379290D01*
X8686958Y23379290D01*
G37*
D13*
X8500000Y23085000D03*
D12*
G36*
X8686958Y22409290D02*
X8701276Y22407166D01*
X8715317Y22403649D01*
X8728946Y22398772D01*
X8742031Y22392583D01*
X8754447Y22385142D01*
X8766073Y22376519D01*
X8776798Y22366798D01*
X8786519Y22356073D01*
X8795142Y22344447D01*
X8802583Y22332031D01*
X8808772Y22318946D01*
X8813649Y22305317D01*
X8817166Y22291276D01*
X8819290Y22276958D01*
X8820000Y22262500D01*
X8820000Y21967500D01*
X8819290Y21953042D01*
X8817166Y21938724D01*
X8813649Y21924683D01*
X8808772Y21911054D01*
X8802583Y21897969D01*
X8795142Y21885553D01*
X8786519Y21873927D01*
X8776798Y21863202D01*
X8766073Y21853481D01*
X8754447Y21844858D01*
X8742031Y21837417D01*
X8728946Y21831228D01*
X8715317Y21826351D01*
X8701276Y21822834D01*
X8686958Y21820710D01*
X8672500Y21820000D01*
X8327500Y21820000D01*
X8313042Y21820710D01*
X8298724Y21822834D01*
X8284683Y21826351D01*
X8271054Y21831228D01*
X8257969Y21837417D01*
X8245553Y21844858D01*
X8233927Y21853481D01*
X8223202Y21863202D01*
X8213481Y21873927D01*
X8204858Y21885553D01*
X8197417Y21897969D01*
X8191228Y21911054D01*
X8186351Y21924683D01*
X8182834Y21938724D01*
X8180710Y21953042D01*
X8180000Y21967500D01*
X8180000Y22262500D01*
X8180710Y22276958D01*
X8182834Y22291276D01*
X8186351Y22305317D01*
X8191228Y22318946D01*
X8197417Y22332031D01*
X8204858Y22344447D01*
X8213481Y22356073D01*
X8223202Y22366798D01*
X8233927Y22376519D01*
X8245553Y22385142D01*
X8257969Y22392583D01*
X8271054Y22398772D01*
X8284683Y22403649D01*
X8298724Y22407166D01*
X8313042Y22409290D01*
X8327500Y22410000D01*
X8672500Y22410000D01*
X8686958Y22409290D01*
X8686958Y22409290D01*
G37*
D13*
X8500000Y22115000D03*
G04 #@! TD*
D12*
G04 #@! TO.C,C5*
G36*
X-11413042Y23879290D02*
X-11398724Y23877166D01*
X-11384683Y23873649D01*
X-11371054Y23868772D01*
X-11357969Y23862583D01*
X-11345553Y23855142D01*
X-11333927Y23846519D01*
X-11323202Y23836798D01*
X-11313481Y23826073D01*
X-11304858Y23814447D01*
X-11297417Y23802031D01*
X-11291228Y23788946D01*
X-11286351Y23775317D01*
X-11282834Y23761276D01*
X-11280710Y23746958D01*
X-11280000Y23732500D01*
X-11280000Y23437500D01*
X-11280710Y23423042D01*
X-11282834Y23408724D01*
X-11286351Y23394683D01*
X-11291228Y23381054D01*
X-11297417Y23367969D01*
X-11304858Y23355553D01*
X-11313481Y23343927D01*
X-11323202Y23333202D01*
X-11333927Y23323481D01*
X-11345553Y23314858D01*
X-11357969Y23307417D01*
X-11371054Y23301228D01*
X-11384683Y23296351D01*
X-11398724Y23292834D01*
X-11413042Y23290710D01*
X-11427500Y23290000D01*
X-11772500Y23290000D01*
X-11786958Y23290710D01*
X-11801276Y23292834D01*
X-11815317Y23296351D01*
X-11828946Y23301228D01*
X-11842031Y23307417D01*
X-11854447Y23314858D01*
X-11866073Y23323481D01*
X-11876798Y23333202D01*
X-11886519Y23343927D01*
X-11895142Y23355553D01*
X-11902583Y23367969D01*
X-11908772Y23381054D01*
X-11913649Y23394683D01*
X-11917166Y23408724D01*
X-11919290Y23423042D01*
X-11920000Y23437500D01*
X-11920000Y23732500D01*
X-11919290Y23746958D01*
X-11917166Y23761276D01*
X-11913649Y23775317D01*
X-11908772Y23788946D01*
X-11902583Y23802031D01*
X-11895142Y23814447D01*
X-11886519Y23826073D01*
X-11876798Y23836798D01*
X-11866073Y23846519D01*
X-11854447Y23855142D01*
X-11842031Y23862583D01*
X-11828946Y23868772D01*
X-11815317Y23873649D01*
X-11801276Y23877166D01*
X-11786958Y23879290D01*
X-11772500Y23880000D01*
X-11427500Y23880000D01*
X-11413042Y23879290D01*
X-11413042Y23879290D01*
G37*
D13*
X-11600000Y23585000D03*
D12*
G36*
X-11413042Y22909290D02*
X-11398724Y22907166D01*
X-11384683Y22903649D01*
X-11371054Y22898772D01*
X-11357969Y22892583D01*
X-11345553Y22885142D01*
X-11333927Y22876519D01*
X-11323202Y22866798D01*
X-11313481Y22856073D01*
X-11304858Y22844447D01*
X-11297417Y22832031D01*
X-11291228Y22818946D01*
X-11286351Y22805317D01*
X-11282834Y22791276D01*
X-11280710Y22776958D01*
X-11280000Y22762500D01*
X-11280000Y22467500D01*
X-11280710Y22453042D01*
X-11282834Y22438724D01*
X-11286351Y22424683D01*
X-11291228Y22411054D01*
X-11297417Y22397969D01*
X-11304858Y22385553D01*
X-11313481Y22373927D01*
X-11323202Y22363202D01*
X-11333927Y22353481D01*
X-11345553Y22344858D01*
X-11357969Y22337417D01*
X-11371054Y22331228D01*
X-11384683Y22326351D01*
X-11398724Y22322834D01*
X-11413042Y22320710D01*
X-11427500Y22320000D01*
X-11772500Y22320000D01*
X-11786958Y22320710D01*
X-11801276Y22322834D01*
X-11815317Y22326351D01*
X-11828946Y22331228D01*
X-11842031Y22337417D01*
X-11854447Y22344858D01*
X-11866073Y22353481D01*
X-11876798Y22363202D01*
X-11886519Y22373927D01*
X-11895142Y22385553D01*
X-11902583Y22397969D01*
X-11908772Y22411054D01*
X-11913649Y22424683D01*
X-11917166Y22438724D01*
X-11919290Y22453042D01*
X-11920000Y22467500D01*
X-11920000Y22762500D01*
X-11919290Y22776958D01*
X-11917166Y22791276D01*
X-11913649Y22805317D01*
X-11908772Y22818946D01*
X-11902583Y22832031D01*
X-11895142Y22844447D01*
X-11886519Y22856073D01*
X-11876798Y22866798D01*
X-11866073Y22876519D01*
X-11854447Y22885142D01*
X-11842031Y22892583D01*
X-11828946Y22898772D01*
X-11815317Y22903649D01*
X-11801276Y22907166D01*
X-11786958Y22909290D01*
X-11772500Y22910000D01*
X-11427500Y22910000D01*
X-11413042Y22909290D01*
X-11413042Y22909290D01*
G37*
D13*
X-11600000Y22615000D03*
G04 #@! TD*
D12*
G04 #@! TO.C,C6*
G36*
X7586958Y22409290D02*
X7601276Y22407166D01*
X7615317Y22403649D01*
X7628946Y22398772D01*
X7642031Y22392583D01*
X7654447Y22385142D01*
X7666073Y22376519D01*
X7676798Y22366798D01*
X7686519Y22356073D01*
X7695142Y22344447D01*
X7702583Y22332031D01*
X7708772Y22318946D01*
X7713649Y22305317D01*
X7717166Y22291276D01*
X7719290Y22276958D01*
X7720000Y22262500D01*
X7720000Y21967500D01*
X7719290Y21953042D01*
X7717166Y21938724D01*
X7713649Y21924683D01*
X7708772Y21911054D01*
X7702583Y21897969D01*
X7695142Y21885553D01*
X7686519Y21873927D01*
X7676798Y21863202D01*
X7666073Y21853481D01*
X7654447Y21844858D01*
X7642031Y21837417D01*
X7628946Y21831228D01*
X7615317Y21826351D01*
X7601276Y21822834D01*
X7586958Y21820710D01*
X7572500Y21820000D01*
X7227500Y21820000D01*
X7213042Y21820710D01*
X7198724Y21822834D01*
X7184683Y21826351D01*
X7171054Y21831228D01*
X7157969Y21837417D01*
X7145553Y21844858D01*
X7133927Y21853481D01*
X7123202Y21863202D01*
X7113481Y21873927D01*
X7104858Y21885553D01*
X7097417Y21897969D01*
X7091228Y21911054D01*
X7086351Y21924683D01*
X7082834Y21938724D01*
X7080710Y21953042D01*
X7080000Y21967500D01*
X7080000Y22262500D01*
X7080710Y22276958D01*
X7082834Y22291276D01*
X7086351Y22305317D01*
X7091228Y22318946D01*
X7097417Y22332031D01*
X7104858Y22344447D01*
X7113481Y22356073D01*
X7123202Y22366798D01*
X7133927Y22376519D01*
X7145553Y22385142D01*
X7157969Y22392583D01*
X7171054Y22398772D01*
X7184683Y22403649D01*
X7198724Y22407166D01*
X7213042Y22409290D01*
X7227500Y22410000D01*
X7572500Y22410000D01*
X7586958Y22409290D01*
X7586958Y22409290D01*
G37*
D13*
X7400000Y22115000D03*
D12*
G36*
X7586958Y23379290D02*
X7601276Y23377166D01*
X7615317Y23373649D01*
X7628946Y23368772D01*
X7642031Y23362583D01*
X7654447Y23355142D01*
X7666073Y23346519D01*
X7676798Y23336798D01*
X7686519Y23326073D01*
X7695142Y23314447D01*
X7702583Y23302031D01*
X7708772Y23288946D01*
X7713649Y23275317D01*
X7717166Y23261276D01*
X7719290Y23246958D01*
X7720000Y23232500D01*
X7720000Y22937500D01*
X7719290Y22923042D01*
X7717166Y22908724D01*
X7713649Y22894683D01*
X7708772Y22881054D01*
X7702583Y22867969D01*
X7695142Y22855553D01*
X7686519Y22843927D01*
X7676798Y22833202D01*
X7666073Y22823481D01*
X7654447Y22814858D01*
X7642031Y22807417D01*
X7628946Y22801228D01*
X7615317Y22796351D01*
X7601276Y22792834D01*
X7586958Y22790710D01*
X7572500Y22790000D01*
X7227500Y22790000D01*
X7213042Y22790710D01*
X7198724Y22792834D01*
X7184683Y22796351D01*
X7171054Y22801228D01*
X7157969Y22807417D01*
X7145553Y22814858D01*
X7133927Y22823481D01*
X7123202Y22833202D01*
X7113481Y22843927D01*
X7104858Y22855553D01*
X7097417Y22867969D01*
X7091228Y22881054D01*
X7086351Y22894683D01*
X7082834Y22908724D01*
X7080710Y22923042D01*
X7080000Y22937500D01*
X7080000Y23232500D01*
X7080710Y23246958D01*
X7082834Y23261276D01*
X7086351Y23275317D01*
X7091228Y23288946D01*
X7097417Y23302031D01*
X7104858Y23314447D01*
X7113481Y23326073D01*
X7123202Y23336798D01*
X7133927Y23346519D01*
X7145553Y23355142D01*
X7157969Y23362583D01*
X7171054Y23368772D01*
X7184683Y23373649D01*
X7198724Y23377166D01*
X7213042Y23379290D01*
X7227500Y23380000D01*
X7572500Y23380000D01*
X7586958Y23379290D01*
X7586958Y23379290D01*
G37*
D13*
X7400000Y23085000D03*
G04 #@! TD*
D12*
G04 #@! TO.C,C7*
G36*
X4186958Y6609290D02*
X4201276Y6607166D01*
X4215317Y6603649D01*
X4228946Y6598772D01*
X4242031Y6592583D01*
X4254447Y6585142D01*
X4266073Y6576519D01*
X4276798Y6566798D01*
X4286519Y6556073D01*
X4295142Y6544447D01*
X4302583Y6532031D01*
X4308772Y6518946D01*
X4313649Y6505317D01*
X4317166Y6491276D01*
X4319290Y6476958D01*
X4320000Y6462500D01*
X4320000Y6167500D01*
X4319290Y6153042D01*
X4317166Y6138724D01*
X4313649Y6124683D01*
X4308772Y6111054D01*
X4302583Y6097969D01*
X4295142Y6085553D01*
X4286519Y6073927D01*
X4276798Y6063202D01*
X4266073Y6053481D01*
X4254447Y6044858D01*
X4242031Y6037417D01*
X4228946Y6031228D01*
X4215317Y6026351D01*
X4201276Y6022834D01*
X4186958Y6020710D01*
X4172500Y6020000D01*
X3827500Y6020000D01*
X3813042Y6020710D01*
X3798724Y6022834D01*
X3784683Y6026351D01*
X3771054Y6031228D01*
X3757969Y6037417D01*
X3745553Y6044858D01*
X3733927Y6053481D01*
X3723202Y6063202D01*
X3713481Y6073927D01*
X3704858Y6085553D01*
X3697417Y6097969D01*
X3691228Y6111054D01*
X3686351Y6124683D01*
X3682834Y6138724D01*
X3680710Y6153042D01*
X3680000Y6167500D01*
X3680000Y6462500D01*
X3680710Y6476958D01*
X3682834Y6491276D01*
X3686351Y6505317D01*
X3691228Y6518946D01*
X3697417Y6532031D01*
X3704858Y6544447D01*
X3713481Y6556073D01*
X3723202Y6566798D01*
X3733927Y6576519D01*
X3745553Y6585142D01*
X3757969Y6592583D01*
X3771054Y6598772D01*
X3784683Y6603649D01*
X3798724Y6607166D01*
X3813042Y6609290D01*
X3827500Y6610000D01*
X4172500Y6610000D01*
X4186958Y6609290D01*
X4186958Y6609290D01*
G37*
D13*
X4000000Y6315000D03*
D12*
G36*
X4186958Y7579290D02*
X4201276Y7577166D01*
X4215317Y7573649D01*
X4228946Y7568772D01*
X4242031Y7562583D01*
X4254447Y7555142D01*
X4266073Y7546519D01*
X4276798Y7536798D01*
X4286519Y7526073D01*
X4295142Y7514447D01*
X4302583Y7502031D01*
X4308772Y7488946D01*
X4313649Y7475317D01*
X4317166Y7461276D01*
X4319290Y7446958D01*
X4320000Y7432500D01*
X4320000Y7137500D01*
X4319290Y7123042D01*
X4317166Y7108724D01*
X4313649Y7094683D01*
X4308772Y7081054D01*
X4302583Y7067969D01*
X4295142Y7055553D01*
X4286519Y7043927D01*
X4276798Y7033202D01*
X4266073Y7023481D01*
X4254447Y7014858D01*
X4242031Y7007417D01*
X4228946Y7001228D01*
X4215317Y6996351D01*
X4201276Y6992834D01*
X4186958Y6990710D01*
X4172500Y6990000D01*
X3827500Y6990000D01*
X3813042Y6990710D01*
X3798724Y6992834D01*
X3784683Y6996351D01*
X3771054Y7001228D01*
X3757969Y7007417D01*
X3745553Y7014858D01*
X3733927Y7023481D01*
X3723202Y7033202D01*
X3713481Y7043927D01*
X3704858Y7055553D01*
X3697417Y7067969D01*
X3691228Y7081054D01*
X3686351Y7094683D01*
X3682834Y7108724D01*
X3680710Y7123042D01*
X3680000Y7137500D01*
X3680000Y7432500D01*
X3680710Y7446958D01*
X3682834Y7461276D01*
X3686351Y7475317D01*
X3691228Y7488946D01*
X3697417Y7502031D01*
X3704858Y7514447D01*
X3713481Y7526073D01*
X3723202Y7536798D01*
X3733927Y7546519D01*
X3745553Y7555142D01*
X3757969Y7562583D01*
X3771054Y7568772D01*
X3784683Y7573649D01*
X3798724Y7577166D01*
X3813042Y7579290D01*
X3827500Y7580000D01*
X4172500Y7580000D01*
X4186958Y7579290D01*
X4186958Y7579290D01*
G37*
D13*
X4000000Y7285000D03*
G04 #@! TD*
D12*
G04 #@! TO.C,R2*
G36*
X9786958Y22409290D02*
X9801276Y22407166D01*
X9815317Y22403649D01*
X9828946Y22398772D01*
X9842031Y22392583D01*
X9854447Y22385142D01*
X9866073Y22376519D01*
X9876798Y22366798D01*
X9886519Y22356073D01*
X9895142Y22344447D01*
X9902583Y22332031D01*
X9908772Y22318946D01*
X9913649Y22305317D01*
X9917166Y22291276D01*
X9919290Y22276958D01*
X9920000Y22262500D01*
X9920000Y21967500D01*
X9919290Y21953042D01*
X9917166Y21938724D01*
X9913649Y21924683D01*
X9908772Y21911054D01*
X9902583Y21897969D01*
X9895142Y21885553D01*
X9886519Y21873927D01*
X9876798Y21863202D01*
X9866073Y21853481D01*
X9854447Y21844858D01*
X9842031Y21837417D01*
X9828946Y21831228D01*
X9815317Y21826351D01*
X9801276Y21822834D01*
X9786958Y21820710D01*
X9772500Y21820000D01*
X9427500Y21820000D01*
X9413042Y21820710D01*
X9398724Y21822834D01*
X9384683Y21826351D01*
X9371054Y21831228D01*
X9357969Y21837417D01*
X9345553Y21844858D01*
X9333927Y21853481D01*
X9323202Y21863202D01*
X9313481Y21873927D01*
X9304858Y21885553D01*
X9297417Y21897969D01*
X9291228Y21911054D01*
X9286351Y21924683D01*
X9282834Y21938724D01*
X9280710Y21953042D01*
X9280000Y21967500D01*
X9280000Y22262500D01*
X9280710Y22276958D01*
X9282834Y22291276D01*
X9286351Y22305317D01*
X9291228Y22318946D01*
X9297417Y22332031D01*
X9304858Y22344447D01*
X9313481Y22356073D01*
X9323202Y22366798D01*
X9333927Y22376519D01*
X9345553Y22385142D01*
X9357969Y22392583D01*
X9371054Y22398772D01*
X9384683Y22403649D01*
X9398724Y22407166D01*
X9413042Y22409290D01*
X9427500Y22410000D01*
X9772500Y22410000D01*
X9786958Y22409290D01*
X9786958Y22409290D01*
G37*
D13*
X9600000Y22115000D03*
D12*
G36*
X9786958Y23379290D02*
X9801276Y23377166D01*
X9815317Y23373649D01*
X9828946Y23368772D01*
X9842031Y23362583D01*
X9854447Y23355142D01*
X9866073Y23346519D01*
X9876798Y23336798D01*
X9886519Y23326073D01*
X9895142Y23314447D01*
X9902583Y23302031D01*
X9908772Y23288946D01*
X9913649Y23275317D01*
X9917166Y23261276D01*
X9919290Y23246958D01*
X9920000Y23232500D01*
X9920000Y22937500D01*
X9919290Y22923042D01*
X9917166Y22908724D01*
X9913649Y22894683D01*
X9908772Y22881054D01*
X9902583Y22867969D01*
X9895142Y22855553D01*
X9886519Y22843927D01*
X9876798Y22833202D01*
X9866073Y22823481D01*
X9854447Y22814858D01*
X9842031Y22807417D01*
X9828946Y22801228D01*
X9815317Y22796351D01*
X9801276Y22792834D01*
X9786958Y22790710D01*
X9772500Y22790000D01*
X9427500Y22790000D01*
X9413042Y22790710D01*
X9398724Y22792834D01*
X9384683Y22796351D01*
X9371054Y22801228D01*
X9357969Y22807417D01*
X9345553Y22814858D01*
X9333927Y22823481D01*
X9323202Y22833202D01*
X9313481Y22843927D01*
X9304858Y22855553D01*
X9297417Y22867969D01*
X9291228Y22881054D01*
X9286351Y22894683D01*
X9282834Y22908724D01*
X9280710Y22923042D01*
X9280000Y22937500D01*
X9280000Y23232500D01*
X9280710Y23246958D01*
X9282834Y23261276D01*
X9286351Y23275317D01*
X9291228Y23288946D01*
X9297417Y23302031D01*
X9304858Y23314447D01*
X9313481Y23326073D01*
X9323202Y23336798D01*
X9333927Y23346519D01*
X9345553Y23355142D01*
X9357969Y23362583D01*
X9371054Y23368772D01*
X9384683Y23373649D01*
X9398724Y23377166D01*
X9413042Y23379290D01*
X9427500Y23380000D01*
X9772500Y23380000D01*
X9786958Y23379290D01*
X9786958Y23379290D01*
G37*
D13*
X9600000Y23085000D03*
G04 #@! TD*
D12*
G04 #@! TO.C,R3*
G36*
X1676958Y12319290D02*
X1691276Y12317166D01*
X1705317Y12313649D01*
X1718946Y12308772D01*
X1732031Y12302583D01*
X1744447Y12295142D01*
X1756073Y12286519D01*
X1766798Y12276798D01*
X1776519Y12266073D01*
X1785142Y12254447D01*
X1792583Y12242031D01*
X1798772Y12228946D01*
X1803649Y12215317D01*
X1807166Y12201276D01*
X1809290Y12186958D01*
X1810000Y12172500D01*
X1810000Y11827500D01*
X1809290Y11813042D01*
X1807166Y11798724D01*
X1803649Y11784683D01*
X1798772Y11771054D01*
X1792583Y11757969D01*
X1785142Y11745553D01*
X1776519Y11733927D01*
X1766798Y11723202D01*
X1756073Y11713481D01*
X1744447Y11704858D01*
X1732031Y11697417D01*
X1718946Y11691228D01*
X1705317Y11686351D01*
X1691276Y11682834D01*
X1676958Y11680710D01*
X1662500Y11680000D01*
X1367500Y11680000D01*
X1353042Y11680710D01*
X1338724Y11682834D01*
X1324683Y11686351D01*
X1311054Y11691228D01*
X1297969Y11697417D01*
X1285553Y11704858D01*
X1273927Y11713481D01*
X1263202Y11723202D01*
X1253481Y11733927D01*
X1244858Y11745553D01*
X1237417Y11757969D01*
X1231228Y11771054D01*
X1226351Y11784683D01*
X1222834Y11798724D01*
X1220710Y11813042D01*
X1220000Y11827500D01*
X1220000Y12172500D01*
X1220710Y12186958D01*
X1222834Y12201276D01*
X1226351Y12215317D01*
X1231228Y12228946D01*
X1237417Y12242031D01*
X1244858Y12254447D01*
X1253481Y12266073D01*
X1263202Y12276798D01*
X1273927Y12286519D01*
X1285553Y12295142D01*
X1297969Y12302583D01*
X1311054Y12308772D01*
X1324683Y12313649D01*
X1338724Y12317166D01*
X1353042Y12319290D01*
X1367500Y12320000D01*
X1662500Y12320000D01*
X1676958Y12319290D01*
X1676958Y12319290D01*
G37*
D13*
X1515000Y12000000D03*
D12*
G36*
X2646958Y12319290D02*
X2661276Y12317166D01*
X2675317Y12313649D01*
X2688946Y12308772D01*
X2702031Y12302583D01*
X2714447Y12295142D01*
X2726073Y12286519D01*
X2736798Y12276798D01*
X2746519Y12266073D01*
X2755142Y12254447D01*
X2762583Y12242031D01*
X2768772Y12228946D01*
X2773649Y12215317D01*
X2777166Y12201276D01*
X2779290Y12186958D01*
X2780000Y12172500D01*
X2780000Y11827500D01*
X2779290Y11813042D01*
X2777166Y11798724D01*
X2773649Y11784683D01*
X2768772Y11771054D01*
X2762583Y11757969D01*
X2755142Y11745553D01*
X2746519Y11733927D01*
X2736798Y11723202D01*
X2726073Y11713481D01*
X2714447Y11704858D01*
X2702031Y11697417D01*
X2688946Y11691228D01*
X2675317Y11686351D01*
X2661276Y11682834D01*
X2646958Y11680710D01*
X2632500Y11680000D01*
X2337500Y11680000D01*
X2323042Y11680710D01*
X2308724Y11682834D01*
X2294683Y11686351D01*
X2281054Y11691228D01*
X2267969Y11697417D01*
X2255553Y11704858D01*
X2243927Y11713481D01*
X2233202Y11723202D01*
X2223481Y11733927D01*
X2214858Y11745553D01*
X2207417Y11757969D01*
X2201228Y11771054D01*
X2196351Y11784683D01*
X2192834Y11798724D01*
X2190710Y11813042D01*
X2190000Y11827500D01*
X2190000Y12172500D01*
X2190710Y12186958D01*
X2192834Y12201276D01*
X2196351Y12215317D01*
X2201228Y12228946D01*
X2207417Y12242031D01*
X2214858Y12254447D01*
X2223481Y12266073D01*
X2233202Y12276798D01*
X2243927Y12286519D01*
X2255553Y12295142D01*
X2267969Y12302583D01*
X2281054Y12308772D01*
X2294683Y12313649D01*
X2308724Y12317166D01*
X2323042Y12319290D01*
X2337500Y12320000D01*
X2632500Y12320000D01*
X2646958Y12319290D01*
X2646958Y12319290D01*
G37*
D13*
X2485000Y12000000D03*
G04 #@! TD*
D12*
G04 #@! TO.C,R4*
G36*
X1186958Y16879290D02*
X1201276Y16877166D01*
X1215317Y16873649D01*
X1228946Y16868772D01*
X1242031Y16862583D01*
X1254447Y16855142D01*
X1266073Y16846519D01*
X1276798Y16836798D01*
X1286519Y16826073D01*
X1295142Y16814447D01*
X1302583Y16802031D01*
X1308772Y16788946D01*
X1313649Y16775317D01*
X1317166Y16761276D01*
X1319290Y16746958D01*
X1320000Y16732500D01*
X1320000Y16437500D01*
X1319290Y16423042D01*
X1317166Y16408724D01*
X1313649Y16394683D01*
X1308772Y16381054D01*
X1302583Y16367969D01*
X1295142Y16355553D01*
X1286519Y16343927D01*
X1276798Y16333202D01*
X1266073Y16323481D01*
X1254447Y16314858D01*
X1242031Y16307417D01*
X1228946Y16301228D01*
X1215317Y16296351D01*
X1201276Y16292834D01*
X1186958Y16290710D01*
X1172500Y16290000D01*
X827500Y16290000D01*
X813042Y16290710D01*
X798724Y16292834D01*
X784683Y16296351D01*
X771054Y16301228D01*
X757969Y16307417D01*
X745553Y16314858D01*
X733927Y16323481D01*
X723202Y16333202D01*
X713481Y16343927D01*
X704858Y16355553D01*
X697417Y16367969D01*
X691228Y16381054D01*
X686351Y16394683D01*
X682834Y16408724D01*
X680710Y16423042D01*
X680000Y16437500D01*
X680000Y16732500D01*
X680710Y16746958D01*
X682834Y16761276D01*
X686351Y16775317D01*
X691228Y16788946D01*
X697417Y16802031D01*
X704858Y16814447D01*
X713481Y16826073D01*
X723202Y16836798D01*
X733927Y16846519D01*
X745553Y16855142D01*
X757969Y16862583D01*
X771054Y16868772D01*
X784683Y16873649D01*
X798724Y16877166D01*
X813042Y16879290D01*
X827500Y16880000D01*
X1172500Y16880000D01*
X1186958Y16879290D01*
X1186958Y16879290D01*
G37*
D13*
X1000000Y16585000D03*
D12*
G36*
X1186958Y17849290D02*
X1201276Y17847166D01*
X1215317Y17843649D01*
X1228946Y17838772D01*
X1242031Y17832583D01*
X1254447Y17825142D01*
X1266073Y17816519D01*
X1276798Y17806798D01*
X1286519Y17796073D01*
X1295142Y17784447D01*
X1302583Y17772031D01*
X1308772Y17758946D01*
X1313649Y17745317D01*
X1317166Y17731276D01*
X1319290Y17716958D01*
X1320000Y17702500D01*
X1320000Y17407500D01*
X1319290Y17393042D01*
X1317166Y17378724D01*
X1313649Y17364683D01*
X1308772Y17351054D01*
X1302583Y17337969D01*
X1295142Y17325553D01*
X1286519Y17313927D01*
X1276798Y17303202D01*
X1266073Y17293481D01*
X1254447Y17284858D01*
X1242031Y17277417D01*
X1228946Y17271228D01*
X1215317Y17266351D01*
X1201276Y17262834D01*
X1186958Y17260710D01*
X1172500Y17260000D01*
X827500Y17260000D01*
X813042Y17260710D01*
X798724Y17262834D01*
X784683Y17266351D01*
X771054Y17271228D01*
X757969Y17277417D01*
X745553Y17284858D01*
X733927Y17293481D01*
X723202Y17303202D01*
X713481Y17313927D01*
X704858Y17325553D01*
X697417Y17337969D01*
X691228Y17351054D01*
X686351Y17364683D01*
X682834Y17378724D01*
X680710Y17393042D01*
X680000Y17407500D01*
X680000Y17702500D01*
X680710Y17716958D01*
X682834Y17731276D01*
X686351Y17745317D01*
X691228Y17758946D01*
X697417Y17772031D01*
X704858Y17784447D01*
X713481Y17796073D01*
X723202Y17806798D01*
X733927Y17816519D01*
X745553Y17825142D01*
X757969Y17832583D01*
X771054Y17838772D01*
X784683Y17843649D01*
X798724Y17847166D01*
X813042Y17849290D01*
X827500Y17850000D01*
X1172500Y17850000D01*
X1186958Y17849290D01*
X1186958Y17849290D01*
G37*
D13*
X1000000Y17555000D03*
G04 #@! TD*
D12*
G04 #@! TO.C,R5*
G36*
X1986958Y7579290D02*
X2001276Y7577166D01*
X2015317Y7573649D01*
X2028946Y7568772D01*
X2042031Y7562583D01*
X2054447Y7555142D01*
X2066073Y7546519D01*
X2076798Y7536798D01*
X2086519Y7526073D01*
X2095142Y7514447D01*
X2102583Y7502031D01*
X2108772Y7488946D01*
X2113649Y7475317D01*
X2117166Y7461276D01*
X2119290Y7446958D01*
X2120000Y7432500D01*
X2120000Y7137500D01*
X2119290Y7123042D01*
X2117166Y7108724D01*
X2113649Y7094683D01*
X2108772Y7081054D01*
X2102583Y7067969D01*
X2095142Y7055553D01*
X2086519Y7043927D01*
X2076798Y7033202D01*
X2066073Y7023481D01*
X2054447Y7014858D01*
X2042031Y7007417D01*
X2028946Y7001228D01*
X2015317Y6996351D01*
X2001276Y6992834D01*
X1986958Y6990710D01*
X1972500Y6990000D01*
X1627500Y6990000D01*
X1613042Y6990710D01*
X1598724Y6992834D01*
X1584683Y6996351D01*
X1571054Y7001228D01*
X1557969Y7007417D01*
X1545553Y7014858D01*
X1533927Y7023481D01*
X1523202Y7033202D01*
X1513481Y7043927D01*
X1504858Y7055553D01*
X1497417Y7067969D01*
X1491228Y7081054D01*
X1486351Y7094683D01*
X1482834Y7108724D01*
X1480710Y7123042D01*
X1480000Y7137500D01*
X1480000Y7432500D01*
X1480710Y7446958D01*
X1482834Y7461276D01*
X1486351Y7475317D01*
X1491228Y7488946D01*
X1497417Y7502031D01*
X1504858Y7514447D01*
X1513481Y7526073D01*
X1523202Y7536798D01*
X1533927Y7546519D01*
X1545553Y7555142D01*
X1557969Y7562583D01*
X1571054Y7568772D01*
X1584683Y7573649D01*
X1598724Y7577166D01*
X1613042Y7579290D01*
X1627500Y7580000D01*
X1972500Y7580000D01*
X1986958Y7579290D01*
X1986958Y7579290D01*
G37*
D13*
X1800000Y7285000D03*
D12*
G36*
X1986958Y6609290D02*
X2001276Y6607166D01*
X2015317Y6603649D01*
X2028946Y6598772D01*
X2042031Y6592583D01*
X2054447Y6585142D01*
X2066073Y6576519D01*
X2076798Y6566798D01*
X2086519Y6556073D01*
X2095142Y6544447D01*
X2102583Y6532031D01*
X2108772Y6518946D01*
X2113649Y6505317D01*
X2117166Y6491276D01*
X2119290Y6476958D01*
X2120000Y6462500D01*
X2120000Y6167500D01*
X2119290Y6153042D01*
X2117166Y6138724D01*
X2113649Y6124683D01*
X2108772Y6111054D01*
X2102583Y6097969D01*
X2095142Y6085553D01*
X2086519Y6073927D01*
X2076798Y6063202D01*
X2066073Y6053481D01*
X2054447Y6044858D01*
X2042031Y6037417D01*
X2028946Y6031228D01*
X2015317Y6026351D01*
X2001276Y6022834D01*
X1986958Y6020710D01*
X1972500Y6020000D01*
X1627500Y6020000D01*
X1613042Y6020710D01*
X1598724Y6022834D01*
X1584683Y6026351D01*
X1571054Y6031228D01*
X1557969Y6037417D01*
X1545553Y6044858D01*
X1533927Y6053481D01*
X1523202Y6063202D01*
X1513481Y6073927D01*
X1504858Y6085553D01*
X1497417Y6097969D01*
X1491228Y6111054D01*
X1486351Y6124683D01*
X1482834Y6138724D01*
X1480710Y6153042D01*
X1480000Y6167500D01*
X1480000Y6462500D01*
X1480710Y6476958D01*
X1482834Y6491276D01*
X1486351Y6505317D01*
X1491228Y6518946D01*
X1497417Y6532031D01*
X1504858Y6544447D01*
X1513481Y6556073D01*
X1523202Y6566798D01*
X1533927Y6576519D01*
X1545553Y6585142D01*
X1557969Y6592583D01*
X1571054Y6598772D01*
X1584683Y6603649D01*
X1598724Y6607166D01*
X1613042Y6609290D01*
X1627500Y6610000D01*
X1972500Y6610000D01*
X1986958Y6609290D01*
X1986958Y6609290D01*
G37*
D13*
X1800000Y6315000D03*
G04 #@! TD*
D12*
G04 #@! TO.C,R8*
G36*
X9946958Y18919290D02*
X9961276Y18917166D01*
X9975317Y18913649D01*
X9988946Y18908772D01*
X10002031Y18902583D01*
X10014447Y18895142D01*
X10026073Y18886519D01*
X10036798Y18876798D01*
X10046519Y18866073D01*
X10055142Y18854447D01*
X10062583Y18842031D01*
X10068772Y18828946D01*
X10073649Y18815317D01*
X10077166Y18801276D01*
X10079290Y18786958D01*
X10080000Y18772500D01*
X10080000Y18427500D01*
X10079290Y18413042D01*
X10077166Y18398724D01*
X10073649Y18384683D01*
X10068772Y18371054D01*
X10062583Y18357969D01*
X10055142Y18345553D01*
X10046519Y18333927D01*
X10036798Y18323202D01*
X10026073Y18313481D01*
X10014447Y18304858D01*
X10002031Y18297417D01*
X9988946Y18291228D01*
X9975317Y18286351D01*
X9961276Y18282834D01*
X9946958Y18280710D01*
X9932500Y18280000D01*
X9637500Y18280000D01*
X9623042Y18280710D01*
X9608724Y18282834D01*
X9594683Y18286351D01*
X9581054Y18291228D01*
X9567969Y18297417D01*
X9555553Y18304858D01*
X9543927Y18313481D01*
X9533202Y18323202D01*
X9523481Y18333927D01*
X9514858Y18345553D01*
X9507417Y18357969D01*
X9501228Y18371054D01*
X9496351Y18384683D01*
X9492834Y18398724D01*
X9490710Y18413042D01*
X9490000Y18427500D01*
X9490000Y18772500D01*
X9490710Y18786958D01*
X9492834Y18801276D01*
X9496351Y18815317D01*
X9501228Y18828946D01*
X9507417Y18842031D01*
X9514858Y18854447D01*
X9523481Y18866073D01*
X9533202Y18876798D01*
X9543927Y18886519D01*
X9555553Y18895142D01*
X9567969Y18902583D01*
X9581054Y18908772D01*
X9594683Y18913649D01*
X9608724Y18917166D01*
X9623042Y18919290D01*
X9637500Y18920000D01*
X9932500Y18920000D01*
X9946958Y18919290D01*
X9946958Y18919290D01*
G37*
D13*
X9785000Y18600000D03*
D12*
G36*
X8976958Y18919290D02*
X8991276Y18917166D01*
X9005317Y18913649D01*
X9018946Y18908772D01*
X9032031Y18902583D01*
X9044447Y18895142D01*
X9056073Y18886519D01*
X9066798Y18876798D01*
X9076519Y18866073D01*
X9085142Y18854447D01*
X9092583Y18842031D01*
X9098772Y18828946D01*
X9103649Y18815317D01*
X9107166Y18801276D01*
X9109290Y18786958D01*
X9110000Y18772500D01*
X9110000Y18427500D01*
X9109290Y18413042D01*
X9107166Y18398724D01*
X9103649Y18384683D01*
X9098772Y18371054D01*
X9092583Y18357969D01*
X9085142Y18345553D01*
X9076519Y18333927D01*
X9066798Y18323202D01*
X9056073Y18313481D01*
X9044447Y18304858D01*
X9032031Y18297417D01*
X9018946Y18291228D01*
X9005317Y18286351D01*
X8991276Y18282834D01*
X8976958Y18280710D01*
X8962500Y18280000D01*
X8667500Y18280000D01*
X8653042Y18280710D01*
X8638724Y18282834D01*
X8624683Y18286351D01*
X8611054Y18291228D01*
X8597969Y18297417D01*
X8585553Y18304858D01*
X8573927Y18313481D01*
X8563202Y18323202D01*
X8553481Y18333927D01*
X8544858Y18345553D01*
X8537417Y18357969D01*
X8531228Y18371054D01*
X8526351Y18384683D01*
X8522834Y18398724D01*
X8520710Y18413042D01*
X8520000Y18427500D01*
X8520000Y18772500D01*
X8520710Y18786958D01*
X8522834Y18801276D01*
X8526351Y18815317D01*
X8531228Y18828946D01*
X8537417Y18842031D01*
X8544858Y18854447D01*
X8553481Y18866073D01*
X8563202Y18876798D01*
X8573927Y18886519D01*
X8585553Y18895142D01*
X8597969Y18902583D01*
X8611054Y18908772D01*
X8624683Y18913649D01*
X8638724Y18917166D01*
X8653042Y18919290D01*
X8667500Y18920000D01*
X8962500Y18920000D01*
X8976958Y18919290D01*
X8976958Y18919290D01*
G37*
D13*
X8815000Y18600000D03*
G04 #@! TD*
D12*
G04 #@! TO.C,R9*
G36*
X6746958Y18919290D02*
X6761276Y18917166D01*
X6775317Y18913649D01*
X6788946Y18908772D01*
X6802031Y18902583D01*
X6814447Y18895142D01*
X6826073Y18886519D01*
X6836798Y18876798D01*
X6846519Y18866073D01*
X6855142Y18854447D01*
X6862583Y18842031D01*
X6868772Y18828946D01*
X6873649Y18815317D01*
X6877166Y18801276D01*
X6879290Y18786958D01*
X6880000Y18772500D01*
X6880000Y18427500D01*
X6879290Y18413042D01*
X6877166Y18398724D01*
X6873649Y18384683D01*
X6868772Y18371054D01*
X6862583Y18357969D01*
X6855142Y18345553D01*
X6846519Y18333927D01*
X6836798Y18323202D01*
X6826073Y18313481D01*
X6814447Y18304858D01*
X6802031Y18297417D01*
X6788946Y18291228D01*
X6775317Y18286351D01*
X6761276Y18282834D01*
X6746958Y18280710D01*
X6732500Y18280000D01*
X6437500Y18280000D01*
X6423042Y18280710D01*
X6408724Y18282834D01*
X6394683Y18286351D01*
X6381054Y18291228D01*
X6367969Y18297417D01*
X6355553Y18304858D01*
X6343927Y18313481D01*
X6333202Y18323202D01*
X6323481Y18333927D01*
X6314858Y18345553D01*
X6307417Y18357969D01*
X6301228Y18371054D01*
X6296351Y18384683D01*
X6292834Y18398724D01*
X6290710Y18413042D01*
X6290000Y18427500D01*
X6290000Y18772500D01*
X6290710Y18786958D01*
X6292834Y18801276D01*
X6296351Y18815317D01*
X6301228Y18828946D01*
X6307417Y18842031D01*
X6314858Y18854447D01*
X6323481Y18866073D01*
X6333202Y18876798D01*
X6343927Y18886519D01*
X6355553Y18895142D01*
X6367969Y18902583D01*
X6381054Y18908772D01*
X6394683Y18913649D01*
X6408724Y18917166D01*
X6423042Y18919290D01*
X6437500Y18920000D01*
X6732500Y18920000D01*
X6746958Y18919290D01*
X6746958Y18919290D01*
G37*
D13*
X6585000Y18600000D03*
D12*
G36*
X5776958Y18919290D02*
X5791276Y18917166D01*
X5805317Y18913649D01*
X5818946Y18908772D01*
X5832031Y18902583D01*
X5844447Y18895142D01*
X5856073Y18886519D01*
X5866798Y18876798D01*
X5876519Y18866073D01*
X5885142Y18854447D01*
X5892583Y18842031D01*
X5898772Y18828946D01*
X5903649Y18815317D01*
X5907166Y18801276D01*
X5909290Y18786958D01*
X5910000Y18772500D01*
X5910000Y18427500D01*
X5909290Y18413042D01*
X5907166Y18398724D01*
X5903649Y18384683D01*
X5898772Y18371054D01*
X5892583Y18357969D01*
X5885142Y18345553D01*
X5876519Y18333927D01*
X5866798Y18323202D01*
X5856073Y18313481D01*
X5844447Y18304858D01*
X5832031Y18297417D01*
X5818946Y18291228D01*
X5805317Y18286351D01*
X5791276Y18282834D01*
X5776958Y18280710D01*
X5762500Y18280000D01*
X5467500Y18280000D01*
X5453042Y18280710D01*
X5438724Y18282834D01*
X5424683Y18286351D01*
X5411054Y18291228D01*
X5397969Y18297417D01*
X5385553Y18304858D01*
X5373927Y18313481D01*
X5363202Y18323202D01*
X5353481Y18333927D01*
X5344858Y18345553D01*
X5337417Y18357969D01*
X5331228Y18371054D01*
X5326351Y18384683D01*
X5322834Y18398724D01*
X5320710Y18413042D01*
X5320000Y18427500D01*
X5320000Y18772500D01*
X5320710Y18786958D01*
X5322834Y18801276D01*
X5326351Y18815317D01*
X5331228Y18828946D01*
X5337417Y18842031D01*
X5344858Y18854447D01*
X5353481Y18866073D01*
X5363202Y18876798D01*
X5373927Y18886519D01*
X5385553Y18895142D01*
X5397969Y18902583D01*
X5411054Y18908772D01*
X5424683Y18913649D01*
X5438724Y18917166D01*
X5453042Y18919290D01*
X5467500Y18920000D01*
X5762500Y18920000D01*
X5776958Y18919290D01*
X5776958Y18919290D01*
G37*
D13*
X5615000Y18600000D03*
G04 #@! TD*
D12*
G04 #@! TO.C,R10*
G36*
X3086958Y7579290D02*
X3101276Y7577166D01*
X3115317Y7573649D01*
X3128946Y7568772D01*
X3142031Y7562583D01*
X3154447Y7555142D01*
X3166073Y7546519D01*
X3176798Y7536798D01*
X3186519Y7526073D01*
X3195142Y7514447D01*
X3202583Y7502031D01*
X3208772Y7488946D01*
X3213649Y7475317D01*
X3217166Y7461276D01*
X3219290Y7446958D01*
X3220000Y7432500D01*
X3220000Y7137500D01*
X3219290Y7123042D01*
X3217166Y7108724D01*
X3213649Y7094683D01*
X3208772Y7081054D01*
X3202583Y7067969D01*
X3195142Y7055553D01*
X3186519Y7043927D01*
X3176798Y7033202D01*
X3166073Y7023481D01*
X3154447Y7014858D01*
X3142031Y7007417D01*
X3128946Y7001228D01*
X3115317Y6996351D01*
X3101276Y6992834D01*
X3086958Y6990710D01*
X3072500Y6990000D01*
X2727500Y6990000D01*
X2713042Y6990710D01*
X2698724Y6992834D01*
X2684683Y6996351D01*
X2671054Y7001228D01*
X2657969Y7007417D01*
X2645553Y7014858D01*
X2633927Y7023481D01*
X2623202Y7033202D01*
X2613481Y7043927D01*
X2604858Y7055553D01*
X2597417Y7067969D01*
X2591228Y7081054D01*
X2586351Y7094683D01*
X2582834Y7108724D01*
X2580710Y7123042D01*
X2580000Y7137500D01*
X2580000Y7432500D01*
X2580710Y7446958D01*
X2582834Y7461276D01*
X2586351Y7475317D01*
X2591228Y7488946D01*
X2597417Y7502031D01*
X2604858Y7514447D01*
X2613481Y7526073D01*
X2623202Y7536798D01*
X2633927Y7546519D01*
X2645553Y7555142D01*
X2657969Y7562583D01*
X2671054Y7568772D01*
X2684683Y7573649D01*
X2698724Y7577166D01*
X2713042Y7579290D01*
X2727500Y7580000D01*
X3072500Y7580000D01*
X3086958Y7579290D01*
X3086958Y7579290D01*
G37*
D13*
X2900000Y7285000D03*
D12*
G36*
X3086958Y6609290D02*
X3101276Y6607166D01*
X3115317Y6603649D01*
X3128946Y6598772D01*
X3142031Y6592583D01*
X3154447Y6585142D01*
X3166073Y6576519D01*
X3176798Y6566798D01*
X3186519Y6556073D01*
X3195142Y6544447D01*
X3202583Y6532031D01*
X3208772Y6518946D01*
X3213649Y6505317D01*
X3217166Y6491276D01*
X3219290Y6476958D01*
X3220000Y6462500D01*
X3220000Y6167500D01*
X3219290Y6153042D01*
X3217166Y6138724D01*
X3213649Y6124683D01*
X3208772Y6111054D01*
X3202583Y6097969D01*
X3195142Y6085553D01*
X3186519Y6073927D01*
X3176798Y6063202D01*
X3166073Y6053481D01*
X3154447Y6044858D01*
X3142031Y6037417D01*
X3128946Y6031228D01*
X3115317Y6026351D01*
X3101276Y6022834D01*
X3086958Y6020710D01*
X3072500Y6020000D01*
X2727500Y6020000D01*
X2713042Y6020710D01*
X2698724Y6022834D01*
X2684683Y6026351D01*
X2671054Y6031228D01*
X2657969Y6037417D01*
X2645553Y6044858D01*
X2633927Y6053481D01*
X2623202Y6063202D01*
X2613481Y6073927D01*
X2604858Y6085553D01*
X2597417Y6097969D01*
X2591228Y6111054D01*
X2586351Y6124683D01*
X2582834Y6138724D01*
X2580710Y6153042D01*
X2580000Y6167500D01*
X2580000Y6462500D01*
X2580710Y6476958D01*
X2582834Y6491276D01*
X2586351Y6505317D01*
X2591228Y6518946D01*
X2597417Y6532031D01*
X2604858Y6544447D01*
X2613481Y6556073D01*
X2623202Y6566798D01*
X2633927Y6576519D01*
X2645553Y6585142D01*
X2657969Y6592583D01*
X2671054Y6598772D01*
X2684683Y6603649D01*
X2698724Y6607166D01*
X2713042Y6609290D01*
X2727500Y6610000D01*
X3072500Y6610000D01*
X3086958Y6609290D01*
X3086958Y6609290D01*
G37*
D13*
X2900000Y6315000D03*
G04 #@! TD*
D12*
G04 #@! TO.C,R11*
G36*
X886958Y6609290D02*
X901276Y6607166D01*
X915317Y6603649D01*
X928946Y6598772D01*
X942031Y6592583D01*
X954447Y6585142D01*
X966073Y6576519D01*
X976798Y6566798D01*
X986519Y6556073D01*
X995142Y6544447D01*
X1002583Y6532031D01*
X1008772Y6518946D01*
X1013649Y6505317D01*
X1017166Y6491276D01*
X1019290Y6476958D01*
X1020000Y6462500D01*
X1020000Y6167500D01*
X1019290Y6153042D01*
X1017166Y6138724D01*
X1013649Y6124683D01*
X1008772Y6111054D01*
X1002583Y6097969D01*
X995142Y6085553D01*
X986519Y6073927D01*
X976798Y6063202D01*
X966073Y6053481D01*
X954447Y6044858D01*
X942031Y6037417D01*
X928946Y6031228D01*
X915317Y6026351D01*
X901276Y6022834D01*
X886958Y6020710D01*
X872500Y6020000D01*
X527500Y6020000D01*
X513042Y6020710D01*
X498724Y6022834D01*
X484683Y6026351D01*
X471054Y6031228D01*
X457969Y6037417D01*
X445553Y6044858D01*
X433927Y6053481D01*
X423202Y6063202D01*
X413481Y6073927D01*
X404858Y6085553D01*
X397417Y6097969D01*
X391228Y6111054D01*
X386351Y6124683D01*
X382834Y6138724D01*
X380710Y6153042D01*
X380000Y6167500D01*
X380000Y6462500D01*
X380710Y6476958D01*
X382834Y6491276D01*
X386351Y6505317D01*
X391228Y6518946D01*
X397417Y6532031D01*
X404858Y6544447D01*
X413481Y6556073D01*
X423202Y6566798D01*
X433927Y6576519D01*
X445553Y6585142D01*
X457969Y6592583D01*
X471054Y6598772D01*
X484683Y6603649D01*
X498724Y6607166D01*
X513042Y6609290D01*
X527500Y6610000D01*
X872500Y6610000D01*
X886958Y6609290D01*
X886958Y6609290D01*
G37*
D13*
X700000Y6315000D03*
D12*
G36*
X886958Y7579290D02*
X901276Y7577166D01*
X915317Y7573649D01*
X928946Y7568772D01*
X942031Y7562583D01*
X954447Y7555142D01*
X966073Y7546519D01*
X976798Y7536798D01*
X986519Y7526073D01*
X995142Y7514447D01*
X1002583Y7502031D01*
X1008772Y7488946D01*
X1013649Y7475317D01*
X1017166Y7461276D01*
X1019290Y7446958D01*
X1020000Y7432500D01*
X1020000Y7137500D01*
X1019290Y7123042D01*
X1017166Y7108724D01*
X1013649Y7094683D01*
X1008772Y7081054D01*
X1002583Y7067969D01*
X995142Y7055553D01*
X986519Y7043927D01*
X976798Y7033202D01*
X966073Y7023481D01*
X954447Y7014858D01*
X942031Y7007417D01*
X928946Y7001228D01*
X915317Y6996351D01*
X901276Y6992834D01*
X886958Y6990710D01*
X872500Y6990000D01*
X527500Y6990000D01*
X513042Y6990710D01*
X498724Y6992834D01*
X484683Y6996351D01*
X471054Y7001228D01*
X457969Y7007417D01*
X445553Y7014858D01*
X433927Y7023481D01*
X423202Y7033202D01*
X413481Y7043927D01*
X404858Y7055553D01*
X397417Y7067969D01*
X391228Y7081054D01*
X386351Y7094683D01*
X382834Y7108724D01*
X380710Y7123042D01*
X380000Y7137500D01*
X380000Y7432500D01*
X380710Y7446958D01*
X382834Y7461276D01*
X386351Y7475317D01*
X391228Y7488946D01*
X397417Y7502031D01*
X404858Y7514447D01*
X413481Y7526073D01*
X423202Y7536798D01*
X433927Y7546519D01*
X445553Y7555142D01*
X457969Y7562583D01*
X471054Y7568772D01*
X484683Y7573649D01*
X498724Y7577166D01*
X513042Y7579290D01*
X527500Y7580000D01*
X872500Y7580000D01*
X886958Y7579290D01*
X886958Y7579290D01*
G37*
D13*
X700000Y7285000D03*
G04 #@! TD*
D12*
G04 #@! TO.C,R12*
G36*
X5286958Y6609290D02*
X5301276Y6607166D01*
X5315317Y6603649D01*
X5328946Y6598772D01*
X5342031Y6592583D01*
X5354447Y6585142D01*
X5366073Y6576519D01*
X5376798Y6566798D01*
X5386519Y6556073D01*
X5395142Y6544447D01*
X5402583Y6532031D01*
X5408772Y6518946D01*
X5413649Y6505317D01*
X5417166Y6491276D01*
X5419290Y6476958D01*
X5420000Y6462500D01*
X5420000Y6167500D01*
X5419290Y6153042D01*
X5417166Y6138724D01*
X5413649Y6124683D01*
X5408772Y6111054D01*
X5402583Y6097969D01*
X5395142Y6085553D01*
X5386519Y6073927D01*
X5376798Y6063202D01*
X5366073Y6053481D01*
X5354447Y6044858D01*
X5342031Y6037417D01*
X5328946Y6031228D01*
X5315317Y6026351D01*
X5301276Y6022834D01*
X5286958Y6020710D01*
X5272500Y6020000D01*
X4927500Y6020000D01*
X4913042Y6020710D01*
X4898724Y6022834D01*
X4884683Y6026351D01*
X4871054Y6031228D01*
X4857969Y6037417D01*
X4845553Y6044858D01*
X4833927Y6053481D01*
X4823202Y6063202D01*
X4813481Y6073927D01*
X4804858Y6085553D01*
X4797417Y6097969D01*
X4791228Y6111054D01*
X4786351Y6124683D01*
X4782834Y6138724D01*
X4780710Y6153042D01*
X4780000Y6167500D01*
X4780000Y6462500D01*
X4780710Y6476958D01*
X4782834Y6491276D01*
X4786351Y6505317D01*
X4791228Y6518946D01*
X4797417Y6532031D01*
X4804858Y6544447D01*
X4813481Y6556073D01*
X4823202Y6566798D01*
X4833927Y6576519D01*
X4845553Y6585142D01*
X4857969Y6592583D01*
X4871054Y6598772D01*
X4884683Y6603649D01*
X4898724Y6607166D01*
X4913042Y6609290D01*
X4927500Y6610000D01*
X5272500Y6610000D01*
X5286958Y6609290D01*
X5286958Y6609290D01*
G37*
D13*
X5100000Y6315000D03*
D12*
G36*
X5286958Y7579290D02*
X5301276Y7577166D01*
X5315317Y7573649D01*
X5328946Y7568772D01*
X5342031Y7562583D01*
X5354447Y7555142D01*
X5366073Y7546519D01*
X5376798Y7536798D01*
X5386519Y7526073D01*
X5395142Y7514447D01*
X5402583Y7502031D01*
X5408772Y7488946D01*
X5413649Y7475317D01*
X5417166Y7461276D01*
X5419290Y7446958D01*
X5420000Y7432500D01*
X5420000Y7137500D01*
X5419290Y7123042D01*
X5417166Y7108724D01*
X5413649Y7094683D01*
X5408772Y7081054D01*
X5402583Y7067969D01*
X5395142Y7055553D01*
X5386519Y7043927D01*
X5376798Y7033202D01*
X5366073Y7023481D01*
X5354447Y7014858D01*
X5342031Y7007417D01*
X5328946Y7001228D01*
X5315317Y6996351D01*
X5301276Y6992834D01*
X5286958Y6990710D01*
X5272500Y6990000D01*
X4927500Y6990000D01*
X4913042Y6990710D01*
X4898724Y6992834D01*
X4884683Y6996351D01*
X4871054Y7001228D01*
X4857969Y7007417D01*
X4845553Y7014858D01*
X4833927Y7023481D01*
X4823202Y7033202D01*
X4813481Y7043927D01*
X4804858Y7055553D01*
X4797417Y7067969D01*
X4791228Y7081054D01*
X4786351Y7094683D01*
X4782834Y7108724D01*
X4780710Y7123042D01*
X4780000Y7137500D01*
X4780000Y7432500D01*
X4780710Y7446958D01*
X4782834Y7461276D01*
X4786351Y7475317D01*
X4791228Y7488946D01*
X4797417Y7502031D01*
X4804858Y7514447D01*
X4813481Y7526073D01*
X4823202Y7536798D01*
X4833927Y7546519D01*
X4845553Y7555142D01*
X4857969Y7562583D01*
X4871054Y7568772D01*
X4884683Y7573649D01*
X4898724Y7577166D01*
X4913042Y7579290D01*
X4927500Y7580000D01*
X5272500Y7580000D01*
X5286958Y7579290D01*
X5286958Y7579290D01*
G37*
D13*
X5100000Y7285000D03*
G04 #@! TD*
D12*
G04 #@! TO.C,C10*
G36*
X-353042Y16919290D02*
X-338724Y16917166D01*
X-324683Y16913649D01*
X-311054Y16908772D01*
X-297969Y16902583D01*
X-285553Y16895142D01*
X-273927Y16886519D01*
X-263202Y16876798D01*
X-253481Y16866073D01*
X-244858Y16854447D01*
X-237417Y16842031D01*
X-231228Y16828946D01*
X-226351Y16815317D01*
X-222834Y16801276D01*
X-220710Y16786958D01*
X-220000Y16772500D01*
X-220000Y16427500D01*
X-220710Y16413042D01*
X-222834Y16398724D01*
X-226351Y16384683D01*
X-231228Y16371054D01*
X-237417Y16357969D01*
X-244858Y16345553D01*
X-253481Y16333927D01*
X-263202Y16323202D01*
X-273927Y16313481D01*
X-285553Y16304858D01*
X-297969Y16297417D01*
X-311054Y16291228D01*
X-324683Y16286351D01*
X-338724Y16282834D01*
X-353042Y16280710D01*
X-367500Y16280000D01*
X-662500Y16280000D01*
X-676958Y16280710D01*
X-691276Y16282834D01*
X-705317Y16286351D01*
X-718946Y16291228D01*
X-732031Y16297417D01*
X-744447Y16304858D01*
X-756073Y16313481D01*
X-766798Y16323202D01*
X-776519Y16333927D01*
X-785142Y16345553D01*
X-792583Y16357969D01*
X-798772Y16371054D01*
X-803649Y16384683D01*
X-807166Y16398724D01*
X-809290Y16413042D01*
X-810000Y16427500D01*
X-810000Y16772500D01*
X-809290Y16786958D01*
X-807166Y16801276D01*
X-803649Y16815317D01*
X-798772Y16828946D01*
X-792583Y16842031D01*
X-785142Y16854447D01*
X-776519Y16866073D01*
X-766798Y16876798D01*
X-756073Y16886519D01*
X-744447Y16895142D01*
X-732031Y16902583D01*
X-718946Y16908772D01*
X-705317Y16913649D01*
X-691276Y16917166D01*
X-676958Y16919290D01*
X-662500Y16920000D01*
X-367500Y16920000D01*
X-353042Y16919290D01*
X-353042Y16919290D01*
G37*
D13*
X-515000Y16600000D03*
D12*
G36*
X-1323042Y16919290D02*
X-1308724Y16917166D01*
X-1294683Y16913649D01*
X-1281054Y16908772D01*
X-1267969Y16902583D01*
X-1255553Y16895142D01*
X-1243927Y16886519D01*
X-1233202Y16876798D01*
X-1223481Y16866073D01*
X-1214858Y16854447D01*
X-1207417Y16842031D01*
X-1201228Y16828946D01*
X-1196351Y16815317D01*
X-1192834Y16801276D01*
X-1190710Y16786958D01*
X-1190000Y16772500D01*
X-1190000Y16427500D01*
X-1190710Y16413042D01*
X-1192834Y16398724D01*
X-1196351Y16384683D01*
X-1201228Y16371054D01*
X-1207417Y16357969D01*
X-1214858Y16345553D01*
X-1223481Y16333927D01*
X-1233202Y16323202D01*
X-1243927Y16313481D01*
X-1255553Y16304858D01*
X-1267969Y16297417D01*
X-1281054Y16291228D01*
X-1294683Y16286351D01*
X-1308724Y16282834D01*
X-1323042Y16280710D01*
X-1337500Y16280000D01*
X-1632500Y16280000D01*
X-1646958Y16280710D01*
X-1661276Y16282834D01*
X-1675317Y16286351D01*
X-1688946Y16291228D01*
X-1702031Y16297417D01*
X-1714447Y16304858D01*
X-1726073Y16313481D01*
X-1736798Y16323202D01*
X-1746519Y16333927D01*
X-1755142Y16345553D01*
X-1762583Y16357969D01*
X-1768772Y16371054D01*
X-1773649Y16384683D01*
X-1777166Y16398724D01*
X-1779290Y16413042D01*
X-1780000Y16427500D01*
X-1780000Y16772500D01*
X-1779290Y16786958D01*
X-1777166Y16801276D01*
X-1773649Y16815317D01*
X-1768772Y16828946D01*
X-1762583Y16842031D01*
X-1755142Y16854447D01*
X-1746519Y16866073D01*
X-1736798Y16876798D01*
X-1726073Y16886519D01*
X-1714447Y16895142D01*
X-1702031Y16902583D01*
X-1688946Y16908772D01*
X-1675317Y16913649D01*
X-1661276Y16917166D01*
X-1646958Y16919290D01*
X-1632500Y16920000D01*
X-1337500Y16920000D01*
X-1323042Y16919290D01*
X-1323042Y16919290D01*
G37*
D13*
X-1485000Y16600000D03*
G04 #@! TD*
M02*
