G04 #@! TF.GenerationSoftware,KiCad,Pcbnew,5.0.2+dfsg1-1*
G04 #@! TF.CreationDate,2021-01-20T13:30:11+01:00*
G04 #@! TF.ProjectId,edgedriver,65646765-6472-4697-9665-722e6b696361,rev?*
G04 #@! TF.SameCoordinates,Original*
G04 #@! TF.FileFunction,Copper,L4,Bot*
G04 #@! TF.FilePolarity,Positive*
%FSLAX46Y46*%
G04 Gerber Fmt 4.6, Leading zero omitted, Abs format (unit mm)*
G04 Created by KiCad (PCBNEW 5.0.2+dfsg1-1) date Wed Jan 20 13:30:11 2021*
%MOMM*%
%LPD*%
G01*
G04 APERTURE LIST*
G04 #@! TA.AperFunction,SMDPad,CuDef*
%ADD10R,0.900000X2.000000*%
G04 #@! TD*
G04 #@! TA.AperFunction,SMDPad,CuDef*
%ADD11R,5.000000X5.000000*%
G04 #@! TD*
G04 #@! TA.AperFunction,ComponentPad*
%ADD12O,1.600000X1.000000*%
G04 #@! TD*
G04 #@! TA.AperFunction,ComponentPad*
%ADD13O,2.100000X1.000000*%
G04 #@! TD*
G04 #@! TA.AperFunction,ComponentPad*
%ADD14C,1.700000*%
G04 #@! TD*
G04 #@! TA.AperFunction,ComponentPad*
%ADD15O,1.700000X1.700000*%
G04 #@! TD*
G04 #@! TA.AperFunction,ViaPad*
%ADD16C,0.450000*%
G04 #@! TD*
G04 #@! TA.AperFunction,ViaPad*
%ADD17C,0.600000*%
G04 #@! TD*
G04 #@! TA.AperFunction,Conductor*
%ADD18C,0.250000*%
G04 #@! TD*
G04 #@! TA.AperFunction,Conductor*
%ADD19C,0.400000*%
G04 #@! TD*
G04 #@! TA.AperFunction,Conductor*
%ADD20C,0.240000*%
G04 #@! TD*
G04 #@! TA.AperFunction,Conductor*
%ADD21C,0.200000*%
G04 #@! TD*
G04 #@! TA.AperFunction,Conductor*
%ADD22C,0.150000*%
G04 #@! TD*
G04 #@! TA.AperFunction,Conductor*
%ADD23C,0.254000*%
G04 #@! TD*
G04 APERTURE END LIST*
D10*
G04 #@! TO.P,U1,1*
G04 #@! TO.N,GND*
X-11760000Y22500000D03*
G04 #@! TO.P,U1,2*
G04 #@! TO.N,3V3*
X-10490000Y22500000D03*
G04 #@! TO.P,U1,3*
G04 #@! TO.N,ESPEN*
X-9220000Y22500000D03*
G04 #@! TO.P,U1,4*
G04 #@! TO.N,Net-(U1-Pad4)*
X-7950000Y22500000D03*
G04 #@! TO.P,U1,5*
G04 #@! TO.N,Net-(U1-Pad5)*
X-6680000Y22500000D03*
G04 #@! TO.P,U1,6*
G04 #@! TO.N,Net-(U1-Pad6)*
X-5410000Y22500000D03*
G04 #@! TO.P,U1,7*
G04 #@! TO.N,STMTX*
X-4140000Y22500000D03*
G04 #@! TO.P,U1,8*
G04 #@! TO.N,Net-(U1-Pad8)*
X-2870000Y22500000D03*
G04 #@! TO.P,U1,9*
G04 #@! TO.N,Net-(U1-Pad9)*
X-1600000Y22500000D03*
G04 #@! TO.P,U1,10*
G04 #@! TO.N,Net-(U1-Pad10)*
X-330000Y22500000D03*
G04 #@! TO.P,U1,11*
G04 #@! TO.N,Net-(U1-Pad11)*
X940000Y22500000D03*
G04 #@! TO.P,U1,12*
G04 #@! TO.N,Net-(U1-Pad12)*
X2210000Y22500000D03*
G04 #@! TO.P,U1,13*
G04 #@! TO.N,Net-(U1-Pad13)*
X3480000Y22500000D03*
G04 #@! TO.P,U1,14*
G04 #@! TO.N,Net-(U1-Pad14)*
X4750000Y22500000D03*
G04 #@! TO.P,U1,15*
G04 #@! TO.N,GND*
X6020000Y22500000D03*
G04 #@! TO.P,U1,16*
G04 #@! TO.N,STMRX*
X7290000Y22500000D03*
G04 #@! TO.P,U1,17*
G04 #@! TO.N,Net-(U1-Pad17)*
X8560000Y22500000D03*
G04 #@! TO.P,U1,18*
G04 #@! TO.N,Net-(U1-Pad18)*
X9830000Y22500000D03*
G04 #@! TO.P,U1,19*
G04 #@! TO.N,Net-(U1-Pad19)*
X11100000Y22500000D03*
G04 #@! TO.P,U1,20*
G04 #@! TO.N,Net-(U1-Pad20)*
X11100000Y5500000D03*
G04 #@! TO.P,U1,21*
G04 #@! TO.N,Net-(U1-Pad21)*
X9830000Y5500000D03*
G04 #@! TO.P,U1,22*
G04 #@! TO.N,Net-(U1-Pad22)*
X8560000Y5500000D03*
G04 #@! TO.P,U1,23*
G04 #@! TO.N,Net-(U1-Pad23)*
X7290000Y5500000D03*
G04 #@! TO.P,U1,24*
G04 #@! TO.N,Net-(U1-Pad24)*
X6020000Y5500000D03*
G04 #@! TO.P,U1,25*
G04 #@! TO.N,ESPRST*
X4750000Y5500000D03*
G04 #@! TO.P,U1,26*
G04 #@! TO.N,Net-(U1-Pad26)*
X3480000Y5500000D03*
G04 #@! TO.P,U1,27*
G04 #@! TO.N,Net-(U1-Pad27)*
X2210000Y5500000D03*
G04 #@! TO.P,U1,28*
G04 #@! TO.N,Net-(U1-Pad28)*
X940000Y5500000D03*
G04 #@! TO.P,U1,29*
G04 #@! TO.N,Net-(U1-Pad29)*
X-330000Y5500000D03*
G04 #@! TO.P,U1,30*
G04 #@! TO.N,Net-(U1-Pad30)*
X-1600000Y5500000D03*
G04 #@! TO.P,U1,31*
G04 #@! TO.N,Net-(U1-Pad31)*
X-2870000Y5500000D03*
G04 #@! TO.P,U1,32*
G04 #@! TO.N,Net-(U1-Pad32)*
X-4140000Y5500000D03*
G04 #@! TO.P,U1,33*
G04 #@! TO.N,Net-(U1-Pad33)*
X-5410000Y5500000D03*
G04 #@! TO.P,U1,34*
G04 #@! TO.N,ESPRX*
X-6680000Y5500000D03*
G04 #@! TO.P,U1,35*
G04 #@! TO.N,ESPTX*
X-7950000Y5500000D03*
G04 #@! TO.P,U1,36*
G04 #@! TO.N,Net-(U1-Pad36)*
X-9220000Y5500000D03*
G04 #@! TO.P,U1,37*
G04 #@! TO.N,Net-(U1-Pad37)*
X-10490000Y5500000D03*
G04 #@! TO.P,U1,38*
G04 #@! TO.N,GND*
X-11760000Y5500000D03*
D11*
G04 #@! TO.P,U1,39*
X-4260000Y15000000D03*
G04 #@! TD*
D12*
G04 #@! TO.P,J2,S1*
G04 #@! TO.N,GND*
X9950000Y17220000D03*
X9950000Y8580000D03*
D13*
X5770000Y8580000D03*
X5770000Y17220000D03*
G04 #@! TD*
D14*
G04 #@! TO.P,J4,1*
G04 #@! TO.N,SWDIO*
X-11430000Y2540000D03*
D15*
G04 #@! TO.P,J4,2*
G04 #@! TO.N,SWDCLK*
X-11430000Y0D03*
G04 #@! TD*
D14*
G04 #@! TO.P,J3,1*
G04 #@! TO.N,Net-(J3-Pad1)*
X-3810000Y2540000D03*
D15*
G04 #@! TO.P,J3,2*
G04 #@! TO.N,Net-(J3-Pad2)*
X-1270000Y2540000D03*
G04 #@! TO.P,J3,3*
G04 #@! TO.N,Net-(J3-Pad3)*
X1270000Y2540000D03*
G04 #@! TO.P,J3,4*
G04 #@! TO.N,Net-(J3-Pad4)*
X3810000Y2540000D03*
G04 #@! TD*
D14*
G04 #@! TO.P,J1,1*
G04 #@! TO.N,GND*
X-8890000Y0D03*
D15*
G04 #@! TO.P,J1,2*
X-6350000Y0D03*
G04 #@! TO.P,J1,3*
G04 #@! TO.N,Net-(J1-Pad3)*
X-3810000Y0D03*
G04 #@! TO.P,J1,4*
G04 #@! TO.N,Net-(J1-Pad4)*
X-1270000Y0D03*
G04 #@! TO.P,J1,5*
G04 #@! TO.N,Net-(J1-Pad5)*
X1270000Y0D03*
G04 #@! TO.P,J1,6*
G04 #@! TO.N,Net-(J1-Pad6)*
X3810000Y0D03*
G04 #@! TO.P,J1,7*
G04 #@! TO.N,+5V*
X6350000Y0D03*
G04 #@! TO.P,J1,8*
X8890000Y0D03*
G04 #@! TD*
D16*
G04 #@! TO.N,+5V*
X6800000Y12800000D03*
X8100000Y14100000D03*
D17*
G04 #@! TO.N,GND*
X-4000000Y26000000D03*
X-5500000Y26000000D03*
X-7000000Y26000000D03*
X-7000000Y27500000D03*
X-5500000Y27500000D03*
X-4000000Y27500000D03*
X-7000000Y29000000D03*
X-8500000Y27500000D03*
X-8500000Y29000000D03*
X-8500000Y26000000D03*
X2300000Y20900000D03*
X6700000Y21000000D03*
X-11700000Y24400000D03*
X-2600000Y12800000D03*
X-800000Y20300000D03*
X-11600000Y15800000D03*
X-3700000Y16400000D03*
X-11290000Y7300000D03*
X-9300000Y7200000D03*
X-4600000Y13400000D03*
X-10000000Y14600000D03*
D16*
X-5500000Y20900000D03*
X-8000000Y20900000D03*
X-7300000Y19300000D03*
X-5000000Y19300000D03*
X-4600000Y11100000D03*
X-7200000Y11200000D03*
X-8500000Y12500000D03*
X-7400000Y8500000D03*
G04 #@! TO.N,Net-(C1-Pad1)*
X6100000Y14900000D03*
X6100000Y10900000D03*
X7800000Y20700000D03*
D17*
G04 #@! TO.N,+5V*
X8500000Y27500000D03*
X7000000Y27500000D03*
X7000000Y29000000D03*
X7000000Y26000000D03*
X8500000Y29000000D03*
X5500000Y27500000D03*
X5500000Y26000000D03*
X8500000Y26000000D03*
X11600000Y8100000D03*
X6600000Y7500000D03*
X9400000Y7200000D03*
G04 #@! TO.N,3V3*
X-10500000Y17300000D03*
X-10500000Y24300000D03*
D16*
G04 #@! TO.N,ESPEN*
X500000Y9800000D03*
G04 #@! TO.N,Net-(J3-Pad1)*
X-2100000Y3900000D03*
G04 #@! TO.N,ESPRST*
X5800000Y7600000D03*
X1000000Y8200000D03*
G04 #@! TO.N,ESPRX*
X2010000Y15770000D03*
G04 #@! TO.N,ESPTX*
X1500000Y18160000D03*
G04 #@! TO.N,STMTX*
X-5100000Y18400000D03*
G04 #@! TO.N,STMRX*
X-1100000Y14800000D03*
G04 #@! TD*
D18*
G04 #@! TO.N,GND*
X-11760000Y5500000D02*
X-11760000Y6240000D01*
D19*
X-4000000Y26000000D02*
X-2100000Y24100000D01*
X5700000Y24100000D02*
X-2100000Y24100000D01*
X6020000Y23780000D02*
X5700000Y24100000D01*
X6020000Y23780000D02*
X6020000Y22500000D01*
X-10100000Y26000000D02*
X-8500000Y26000000D01*
X-11700000Y24400000D02*
X-10100000Y26000000D01*
X6020000Y22500000D02*
X6020000Y23365996D01*
X2300000Y20900000D02*
X2290000Y20900000D01*
D20*
X2290000Y20900000D02*
X2290000Y20800000D01*
X2290000Y20800000D02*
X2290000Y20800000D01*
D19*
X2300000Y20900000D02*
X5400000Y20900000D01*
X5400000Y20900000D02*
X5500000Y20900000D01*
X6020000Y21420000D02*
X6020000Y22500000D01*
X5500000Y20900000D02*
X6020000Y21420000D01*
X5400000Y20900000D02*
X6600000Y20900000D01*
X6600000Y20900000D02*
X6700000Y21000000D01*
D20*
X-11760000Y24340000D02*
X-11760000Y22500000D01*
X-11700000Y24400000D02*
X-11760000Y24340000D01*
D19*
X-8890000Y0D02*
X-8890000Y1970000D01*
X-11760000Y4010000D02*
X-11760000Y5500000D01*
X-11590000Y3840000D02*
X-11760000Y4010000D01*
X-10760000Y3840000D02*
X-11590000Y3840000D01*
X-8890000Y1970000D02*
X-10760000Y3840000D01*
X-2700000Y19100000D02*
X-2700000Y16560000D01*
X-1500000Y20300000D02*
X-2700000Y19100000D01*
X2300000Y20900000D02*
X1700000Y20300000D01*
X-2700000Y16560000D02*
X-4260000Y15000000D01*
X1700000Y20300000D02*
X-1500000Y20300000D01*
X-11760000Y22500000D02*
X-11760000Y15960000D01*
X-11760000Y15960000D02*
X-11600000Y15800000D01*
D20*
X-4260000Y15000000D02*
X-5000000Y15000000D01*
X-5000000Y15000000D02*
X-6900000Y13100000D01*
X-11600000Y15800000D02*
X-11200000Y15800000D01*
X-11200000Y15800000D02*
X-10000000Y14600000D01*
D21*
G04 #@! TO.N,Net-(C1-Pad1)*
X6100000Y14900000D02*
X6100000Y10900000D01*
X7800000Y20700000D02*
X7800000Y16100000D01*
X7800000Y16100000D02*
X6600000Y14900000D01*
X6100000Y14900000D02*
X6600000Y14900000D01*
D20*
G04 #@! TO.N,+5V*
X10000000Y9900000D02*
X11500000Y9900000D01*
D19*
G04 #@! TO.N,3V3*
X-10500000Y22490000D02*
X-10490000Y22500000D01*
X-10500000Y17300000D02*
X-10500000Y22490000D01*
D20*
X-10490000Y24290000D02*
X-10490000Y22500000D01*
X-10500000Y24300000D02*
X-10490000Y24290000D01*
D22*
G04 #@! TO.N,ESPEN*
X-9220000Y12020000D02*
X-9220000Y22500000D01*
X-7600000Y10400000D02*
X-9220000Y12020000D01*
X-100000Y10400000D02*
X-7600000Y10400000D01*
X500000Y9800000D02*
X-100000Y10400000D01*
G04 #@! TO.N,Net-(J3-Pad1)*
X-3370000Y2540000D02*
X-3810000Y2540000D01*
D20*
X-2050000Y3860000D02*
X-3370000Y2540000D01*
D22*
G04 #@! TO.N,ESPRST*
X4750000Y6650000D02*
X4750000Y5500000D01*
X5800000Y7600000D02*
X4750000Y6650000D01*
X1600000Y7600000D02*
X5800000Y7600000D01*
X1000000Y8200000D02*
X1600000Y7600000D01*
D18*
G04 #@! TO.N,ESPRX*
X-6680000Y6420000D02*
X-6680000Y5500000D01*
X-6680000Y6420000D02*
X-6680000Y5500000D01*
D22*
X-6680000Y6920000D02*
X-6680000Y5500000D01*
X-4800000Y8800000D02*
X-6680000Y6920000D01*
X1100000Y8800000D02*
X-4800000Y8800000D01*
X1970000Y9670000D02*
X1100000Y8800000D01*
X1970000Y15730000D02*
X1970000Y9670000D01*
X2010000Y15770000D02*
X1970000Y15730000D01*
G04 #@! TO.N,ESPTX*
X-7950000Y6850000D02*
X-7950000Y5500000D01*
X-5600000Y9200000D02*
X-7950000Y6850000D01*
X1500000Y18160000D02*
X1500000Y9900000D01*
X800000Y9200000D02*
X-5600000Y9200000D01*
X1500000Y9900000D02*
X800000Y9200000D01*
G04 #@! TO.N,STMTX*
X-4140000Y19360000D02*
X-4140000Y22500000D01*
X-5100000Y18400000D02*
X-4140000Y19360000D01*
G04 #@! TO.N,STMRX*
X300000Y16200000D02*
X300000Y18200000D01*
X300000Y18200000D02*
X1800000Y19700000D01*
X1800000Y19700000D02*
X6400000Y19700000D01*
X-1100000Y14800000D02*
X300000Y16200000D01*
X7290000Y20590000D02*
X7290000Y22500000D01*
X6400000Y19700000D02*
X7290000Y20590000D01*
G04 #@! TD*
D21*
G04 #@! TO.N,GND*
G36*
X-8225000Y31287760D02*
X-8274540Y31213617D01*
X-8297158Y31099910D01*
X-8274540Y30986203D01*
X-8210131Y30889807D01*
X-8113735Y30825398D01*
X-8028729Y30808489D01*
X-5941204Y30808489D01*
X-5941205Y29128735D01*
X-5946914Y29100034D01*
X-5924296Y28986327D01*
X-5859887Y28889931D01*
X-5763491Y28825522D01*
X-5649784Y28802904D01*
X-5621084Y28808613D01*
X-2541412Y28808613D01*
X-2541413Y26128399D01*
X-2547122Y26099698D01*
X-2524504Y25985991D01*
X-2460095Y25889595D01*
X-2363699Y25825186D01*
X-2249992Y25802568D01*
X-2221292Y25808277D01*
X-1100000Y25808277D01*
X-1100000Y24600000D01*
X-9900000Y24600000D01*
X-9900000Y31900000D01*
X-8225000Y31900000D01*
X-8225000Y31287760D01*
X-8225000Y31287760D01*
G37*
X-8225000Y31287760D02*
X-8274540Y31213617D01*
X-8297158Y31099910D01*
X-8274540Y30986203D01*
X-8210131Y30889807D01*
X-8113735Y30825398D01*
X-8028729Y30808489D01*
X-5941204Y30808489D01*
X-5941205Y29128735D01*
X-5946914Y29100034D01*
X-5924296Y28986327D01*
X-5859887Y28889931D01*
X-5763491Y28825522D01*
X-5649784Y28802904D01*
X-5621084Y28808613D01*
X-2541412Y28808613D01*
X-2541413Y26128399D01*
X-2547122Y26099698D01*
X-2524504Y25985991D01*
X-2460095Y25889595D01*
X-2363699Y25825186D01*
X-2249992Y25802568D01*
X-2221292Y25808277D01*
X-1100000Y25808277D01*
X-1100000Y24600000D01*
X-9900000Y24600000D01*
X-9900000Y31900000D01*
X-8225000Y31900000D01*
X-8225000Y31287760D01*
G04 #@! TO.N,+5V*
G36*
X9900000Y24600000D02*
X5749241Y24600000D01*
X5700000Y24609795D01*
X5650759Y24600000D01*
X1100000Y24600000D01*
X1100000Y25808277D01*
X2221292Y25808277D01*
X2249992Y25802568D01*
X2363699Y25825186D01*
X2460095Y25889595D01*
X2524504Y25985991D01*
X2541413Y26070997D01*
X2541413Y26070998D01*
X2547122Y26099698D01*
X2541413Y26128399D01*
X2541413Y28808613D01*
X5620567Y28808613D01*
X5649267Y28802904D01*
X5762974Y28825522D01*
X5859370Y28889931D01*
X5923779Y28986327D01*
X5940688Y29071333D01*
X5940688Y29071334D01*
X5946397Y29100034D01*
X5940688Y29128735D01*
X5940688Y30808489D01*
X8028213Y30808489D01*
X8113219Y30825398D01*
X8209615Y30889807D01*
X8274024Y30986203D01*
X8296642Y31099910D01*
X8274024Y31213617D01*
X8225000Y31286987D01*
X8225000Y31900000D01*
X9900000Y31900000D01*
X9900000Y24600000D01*
X9900000Y24600000D01*
G37*
X9900000Y24600000D02*
X5749241Y24600000D01*
X5700000Y24609795D01*
X5650759Y24600000D01*
X1100000Y24600000D01*
X1100000Y25808277D01*
X2221292Y25808277D01*
X2249992Y25802568D01*
X2363699Y25825186D01*
X2460095Y25889595D01*
X2524504Y25985991D01*
X2541413Y26070997D01*
X2541413Y26070998D01*
X2547122Y26099698D01*
X2541413Y26128399D01*
X2541413Y28808613D01*
X5620567Y28808613D01*
X5649267Y28802904D01*
X5762974Y28825522D01*
X5859370Y28889931D01*
X5923779Y28986327D01*
X5940688Y29071333D01*
X5940688Y29071334D01*
X5946397Y29100034D01*
X5940688Y29128735D01*
X5940688Y30808489D01*
X8028213Y30808489D01*
X8113219Y30825398D01*
X8209615Y30889807D01*
X8274024Y30986203D01*
X8296642Y31099910D01*
X8274024Y31213617D01*
X8225000Y31286987D01*
X8225000Y31900000D01*
X9900000Y31900000D01*
X9900000Y24600000D01*
D23*
G36*
X12173000Y31247394D02*
X12173000Y5627000D01*
X11883406Y5627000D01*
X11883406Y6500000D01*
X11858027Y6627589D01*
X11785754Y6735754D01*
X11677589Y6808027D01*
X11550000Y6833406D01*
X10650000Y6833406D01*
X10522411Y6808027D01*
X10465000Y6769666D01*
X10407589Y6808027D01*
X10280000Y6833406D01*
X9380000Y6833406D01*
X9252411Y6808027D01*
X9195000Y6769666D01*
X9137589Y6808027D01*
X9010000Y6833406D01*
X8110000Y6833406D01*
X7982411Y6808027D01*
X7925000Y6769666D01*
X7867589Y6808027D01*
X7740000Y6833406D01*
X6840000Y6833406D01*
X6712411Y6808027D01*
X6655000Y6769666D01*
X6597589Y6808027D01*
X6470000Y6833406D01*
X5570000Y6833406D01*
X5546792Y6828790D01*
X5789078Y7048000D01*
X5909800Y7048000D01*
X6112683Y7132037D01*
X6267963Y7287317D01*
X6352000Y7490200D01*
X6352000Y7709800D01*
X6334106Y7753000D01*
X6401448Y7753000D01*
X6642679Y7800984D01*
X6916233Y7983767D01*
X7099016Y8257321D01*
X7163201Y8580000D01*
X8806799Y8580000D01*
X8870984Y8257321D01*
X9053767Y7983767D01*
X9327321Y7800984D01*
X9568552Y7753000D01*
X10331448Y7753000D01*
X10572679Y7800984D01*
X10846233Y7983767D01*
X11029016Y8257321D01*
X11093201Y8580000D01*
X11029016Y8902679D01*
X10846233Y9176233D01*
X10572679Y9359016D01*
X10331448Y9407000D01*
X9568552Y9407000D01*
X9327321Y9359016D01*
X9053767Y9176233D01*
X8870984Y8902679D01*
X8806799Y8580000D01*
X7163201Y8580000D01*
X7099016Y8902679D01*
X6916233Y9176233D01*
X6642679Y9359016D01*
X6500446Y9387308D01*
X6669328Y9457261D01*
X6852739Y9640672D01*
X6952000Y9880309D01*
X6952000Y10139691D01*
X6852739Y10379328D01*
X6669328Y10562739D01*
X6574118Y10602176D01*
X6652000Y10790200D01*
X6652000Y11009800D01*
X6567963Y11212683D01*
X6527000Y11253646D01*
X6527000Y14473000D01*
X6557947Y14473000D01*
X6600000Y14464635D01*
X6642053Y14473000D01*
X6642054Y14473000D01*
X6766607Y14497775D01*
X6907850Y14592150D01*
X6931675Y14627807D01*
X8072198Y15768329D01*
X8107850Y15792150D01*
X8202225Y15933393D01*
X8227000Y16057946D01*
X8235365Y16099999D01*
X8227000Y16142052D01*
X8227000Y17220000D01*
X8806799Y17220000D01*
X8870984Y16897321D01*
X9053767Y16623767D01*
X9327321Y16440984D01*
X9568552Y16393000D01*
X10331448Y16393000D01*
X10572679Y16440984D01*
X10846233Y16623767D01*
X11029016Y16897321D01*
X11093201Y17220000D01*
X11029016Y17542679D01*
X10846233Y17816233D01*
X10572679Y17999016D01*
X10331448Y18047000D01*
X9568552Y18047000D01*
X9327321Y17999016D01*
X9053767Y17816233D01*
X8870984Y17542679D01*
X8806799Y17220000D01*
X8227000Y17220000D01*
X8227000Y20346354D01*
X8267963Y20387317D01*
X8352000Y20590200D01*
X8352000Y20809800D01*
X8267963Y21012683D01*
X8114052Y21166594D01*
X9010000Y21166594D01*
X9137589Y21191973D01*
X9195000Y21230334D01*
X9252411Y21191973D01*
X9380000Y21166594D01*
X10280000Y21166594D01*
X10407589Y21191973D01*
X10465000Y21230334D01*
X10522411Y21191973D01*
X10650000Y21166594D01*
X11550000Y21166594D01*
X11677589Y21191973D01*
X11785754Y21264246D01*
X11858027Y21372411D01*
X11883406Y21500000D01*
X11883406Y23500000D01*
X11858027Y23627589D01*
X11785754Y23735754D01*
X11677589Y23808027D01*
X11550000Y23833406D01*
X10650000Y23833406D01*
X10522411Y23808027D01*
X10465000Y23769666D01*
X10407589Y23808027D01*
X10280000Y23833406D01*
X9380000Y23833406D01*
X9252411Y23808027D01*
X9195000Y23769666D01*
X9137589Y23808027D01*
X9010000Y23833406D01*
X8110000Y23833406D01*
X7982411Y23808027D01*
X7925000Y23769666D01*
X7867589Y23808027D01*
X7740000Y23833406D01*
X6840000Y23833406D01*
X6712411Y23808027D01*
X6655000Y23769666D01*
X6597589Y23808027D01*
X6549860Y23817521D01*
X6547000Y23831899D01*
X6547000Y23831903D01*
X6516423Y23985625D01*
X6399945Y24159945D01*
X6355943Y24189347D01*
X6109346Y24435944D01*
X6079945Y24479945D01*
X5905625Y24596423D01*
X5751903Y24627000D01*
X5751898Y24627000D01*
X5700000Y24637323D01*
X5648102Y24627000D01*
X3927000Y24627000D01*
X3927000Y25341353D01*
X9282355Y29903322D01*
X9313083Y29942197D01*
X9327000Y30000000D01*
X9327000Y31873000D01*
X11547394Y31873000D01*
X12173000Y31247394D01*
X12173000Y31247394D01*
G37*
X12173000Y31247394D02*
X12173000Y5627000D01*
X11883406Y5627000D01*
X11883406Y6500000D01*
X11858027Y6627589D01*
X11785754Y6735754D01*
X11677589Y6808027D01*
X11550000Y6833406D01*
X10650000Y6833406D01*
X10522411Y6808027D01*
X10465000Y6769666D01*
X10407589Y6808027D01*
X10280000Y6833406D01*
X9380000Y6833406D01*
X9252411Y6808027D01*
X9195000Y6769666D01*
X9137589Y6808027D01*
X9010000Y6833406D01*
X8110000Y6833406D01*
X7982411Y6808027D01*
X7925000Y6769666D01*
X7867589Y6808027D01*
X7740000Y6833406D01*
X6840000Y6833406D01*
X6712411Y6808027D01*
X6655000Y6769666D01*
X6597589Y6808027D01*
X6470000Y6833406D01*
X5570000Y6833406D01*
X5546792Y6828790D01*
X5789078Y7048000D01*
X5909800Y7048000D01*
X6112683Y7132037D01*
X6267963Y7287317D01*
X6352000Y7490200D01*
X6352000Y7709800D01*
X6334106Y7753000D01*
X6401448Y7753000D01*
X6642679Y7800984D01*
X6916233Y7983767D01*
X7099016Y8257321D01*
X7163201Y8580000D01*
X8806799Y8580000D01*
X8870984Y8257321D01*
X9053767Y7983767D01*
X9327321Y7800984D01*
X9568552Y7753000D01*
X10331448Y7753000D01*
X10572679Y7800984D01*
X10846233Y7983767D01*
X11029016Y8257321D01*
X11093201Y8580000D01*
X11029016Y8902679D01*
X10846233Y9176233D01*
X10572679Y9359016D01*
X10331448Y9407000D01*
X9568552Y9407000D01*
X9327321Y9359016D01*
X9053767Y9176233D01*
X8870984Y8902679D01*
X8806799Y8580000D01*
X7163201Y8580000D01*
X7099016Y8902679D01*
X6916233Y9176233D01*
X6642679Y9359016D01*
X6500446Y9387308D01*
X6669328Y9457261D01*
X6852739Y9640672D01*
X6952000Y9880309D01*
X6952000Y10139691D01*
X6852739Y10379328D01*
X6669328Y10562739D01*
X6574118Y10602176D01*
X6652000Y10790200D01*
X6652000Y11009800D01*
X6567963Y11212683D01*
X6527000Y11253646D01*
X6527000Y14473000D01*
X6557947Y14473000D01*
X6600000Y14464635D01*
X6642053Y14473000D01*
X6642054Y14473000D01*
X6766607Y14497775D01*
X6907850Y14592150D01*
X6931675Y14627807D01*
X8072198Y15768329D01*
X8107850Y15792150D01*
X8202225Y15933393D01*
X8227000Y16057946D01*
X8235365Y16099999D01*
X8227000Y16142052D01*
X8227000Y17220000D01*
X8806799Y17220000D01*
X8870984Y16897321D01*
X9053767Y16623767D01*
X9327321Y16440984D01*
X9568552Y16393000D01*
X10331448Y16393000D01*
X10572679Y16440984D01*
X10846233Y16623767D01*
X11029016Y16897321D01*
X11093201Y17220000D01*
X11029016Y17542679D01*
X10846233Y17816233D01*
X10572679Y17999016D01*
X10331448Y18047000D01*
X9568552Y18047000D01*
X9327321Y17999016D01*
X9053767Y17816233D01*
X8870984Y17542679D01*
X8806799Y17220000D01*
X8227000Y17220000D01*
X8227000Y20346354D01*
X8267963Y20387317D01*
X8352000Y20590200D01*
X8352000Y20809800D01*
X8267963Y21012683D01*
X8114052Y21166594D01*
X9010000Y21166594D01*
X9137589Y21191973D01*
X9195000Y21230334D01*
X9252411Y21191973D01*
X9380000Y21166594D01*
X10280000Y21166594D01*
X10407589Y21191973D01*
X10465000Y21230334D01*
X10522411Y21191973D01*
X10650000Y21166594D01*
X11550000Y21166594D01*
X11677589Y21191973D01*
X11785754Y21264246D01*
X11858027Y21372411D01*
X11883406Y21500000D01*
X11883406Y23500000D01*
X11858027Y23627589D01*
X11785754Y23735754D01*
X11677589Y23808027D01*
X11550000Y23833406D01*
X10650000Y23833406D01*
X10522411Y23808027D01*
X10465000Y23769666D01*
X10407589Y23808027D01*
X10280000Y23833406D01*
X9380000Y23833406D01*
X9252411Y23808027D01*
X9195000Y23769666D01*
X9137589Y23808027D01*
X9010000Y23833406D01*
X8110000Y23833406D01*
X7982411Y23808027D01*
X7925000Y23769666D01*
X7867589Y23808027D01*
X7740000Y23833406D01*
X6840000Y23833406D01*
X6712411Y23808027D01*
X6655000Y23769666D01*
X6597589Y23808027D01*
X6549860Y23817521D01*
X6547000Y23831899D01*
X6547000Y23831903D01*
X6516423Y23985625D01*
X6399945Y24159945D01*
X6355943Y24189347D01*
X6109346Y24435944D01*
X6079945Y24479945D01*
X5905625Y24596423D01*
X5751903Y24627000D01*
X5751898Y24627000D01*
X5700000Y24637323D01*
X5648102Y24627000D01*
X3927000Y24627000D01*
X3927000Y25341353D01*
X9282355Y29903322D01*
X9313083Y29942197D01*
X9327000Y30000000D01*
X9327000Y31873000D01*
X11547394Y31873000D01*
X12173000Y31247394D01*
G04 #@! TO.N,GND*
G36*
X-9327000Y30000000D02*
X-9317333Y29951399D01*
X-9282355Y29903322D01*
X-3927000Y25341353D01*
X-3927000Y23833406D01*
X-4590000Y23833406D01*
X-4717589Y23808027D01*
X-4775000Y23769666D01*
X-4832411Y23808027D01*
X-4960000Y23833406D01*
X-5860000Y23833406D01*
X-5987589Y23808027D01*
X-6045000Y23769666D01*
X-6102411Y23808027D01*
X-6230000Y23833406D01*
X-7130000Y23833406D01*
X-7257589Y23808027D01*
X-7315000Y23769666D01*
X-7372411Y23808027D01*
X-7500000Y23833406D01*
X-8400000Y23833406D01*
X-8527589Y23808027D01*
X-8585000Y23769666D01*
X-8642411Y23808027D01*
X-8770000Y23833406D01*
X-9670000Y23833406D01*
X-9797589Y23808027D01*
X-9855000Y23769666D01*
X-9912411Y23808027D01*
X-10040000Y23833406D01*
X-10043000Y23833406D01*
X-10043000Y23870288D01*
X-9968455Y23944833D01*
X-9873000Y24175282D01*
X-9873000Y24424718D01*
X-9968455Y24655167D01*
X-10144833Y24831545D01*
X-10375282Y24927000D01*
X-10624718Y24927000D01*
X-10855167Y24831545D01*
X-11031545Y24655167D01*
X-11127000Y24424718D01*
X-11127000Y24175282D01*
X-11095118Y24098312D01*
X-11183690Y24135000D01*
X-11474250Y24135000D01*
X-11633000Y23976250D01*
X-11633000Y22627000D01*
X-11613000Y22627000D01*
X-11613000Y22373000D01*
X-11633000Y22373000D01*
X-11633000Y21023750D01*
X-11474250Y20865000D01*
X-11183690Y20865000D01*
X-11026999Y20929903D01*
X-11027000Y17659712D01*
X-11031545Y17655167D01*
X-11127000Y17424718D01*
X-11127000Y17175282D01*
X-11031545Y16944833D01*
X-10855167Y16768455D01*
X-10624718Y16673000D01*
X-10375282Y16673000D01*
X-10144833Y16768455D01*
X-9968455Y16944833D01*
X-9873000Y17175282D01*
X-9873000Y17424718D01*
X-9968455Y17655167D01*
X-9973000Y17659712D01*
X-9973000Y21179921D01*
X-9912411Y21191973D01*
X-9855000Y21230334D01*
X-9797589Y21191973D01*
X-9670000Y21166594D01*
X-9621999Y21166594D01*
X-9622000Y12059585D01*
X-9629874Y12020000D01*
X-9622000Y11980415D01*
X-9622000Y11980411D01*
X-9598675Y11863149D01*
X-9509825Y11730175D01*
X-9476262Y11707749D01*
X-7912250Y10143736D01*
X-7889825Y10110175D01*
X-7856265Y10087751D01*
X-7856263Y10087749D01*
X-7795697Y10047280D01*
X-7756852Y10021325D01*
X-7639590Y9998000D01*
X-7639585Y9998000D01*
X-7600000Y9990126D01*
X-7560415Y9998000D01*
X-3927000Y9998000D01*
X-3927000Y9602000D01*
X-5560415Y9602000D01*
X-5600000Y9609874D01*
X-5639585Y9602000D01*
X-5639590Y9602000D01*
X-5756852Y9578675D01*
X-5756854Y9578674D01*
X-5756853Y9578674D01*
X-5856263Y9512251D01*
X-5856265Y9512249D01*
X-5889825Y9489825D01*
X-5912249Y9456264D01*
X-8206262Y7162251D01*
X-8239825Y7139825D01*
X-8328675Y7006851D01*
X-8352000Y6889589D01*
X-8352000Y6889585D01*
X-8359874Y6850000D01*
X-8356573Y6833406D01*
X-8400000Y6833406D01*
X-8527589Y6808027D01*
X-8585000Y6769666D01*
X-8642411Y6808027D01*
X-8770000Y6833406D01*
X-9670000Y6833406D01*
X-9797589Y6808027D01*
X-9855000Y6769666D01*
X-9912411Y6808027D01*
X-10040000Y6833406D01*
X-10760782Y6833406D01*
X-10771673Y6859698D01*
X-10950301Y7038327D01*
X-11183690Y7135000D01*
X-11474250Y7135000D01*
X-11633000Y6976250D01*
X-11633000Y5627000D01*
X-11887000Y5627000D01*
X-11887000Y6976250D01*
X-12045750Y7135000D01*
X-12173000Y7135000D01*
X-12173000Y20865000D01*
X-12045750Y20865000D01*
X-11887000Y21023750D01*
X-11887000Y22373000D01*
X-11907000Y22373000D01*
X-11907000Y22627000D01*
X-11887000Y22627000D01*
X-11887000Y23976250D01*
X-12045750Y24135000D01*
X-12173000Y24135000D01*
X-12173000Y31074544D01*
X-11998154Y30899698D01*
X-11629509Y30747000D01*
X-11230491Y30747000D01*
X-10861846Y30899698D01*
X-10579698Y31181846D01*
X-10427000Y31550491D01*
X-10427000Y31873000D01*
X-9327000Y31873000D01*
X-9327000Y30000000D01*
X-9327000Y30000000D01*
G37*
X-9327000Y30000000D02*
X-9317333Y29951399D01*
X-9282355Y29903322D01*
X-3927000Y25341353D01*
X-3927000Y23833406D01*
X-4590000Y23833406D01*
X-4717589Y23808027D01*
X-4775000Y23769666D01*
X-4832411Y23808027D01*
X-4960000Y23833406D01*
X-5860000Y23833406D01*
X-5987589Y23808027D01*
X-6045000Y23769666D01*
X-6102411Y23808027D01*
X-6230000Y23833406D01*
X-7130000Y23833406D01*
X-7257589Y23808027D01*
X-7315000Y23769666D01*
X-7372411Y23808027D01*
X-7500000Y23833406D01*
X-8400000Y23833406D01*
X-8527589Y23808027D01*
X-8585000Y23769666D01*
X-8642411Y23808027D01*
X-8770000Y23833406D01*
X-9670000Y23833406D01*
X-9797589Y23808027D01*
X-9855000Y23769666D01*
X-9912411Y23808027D01*
X-10040000Y23833406D01*
X-10043000Y23833406D01*
X-10043000Y23870288D01*
X-9968455Y23944833D01*
X-9873000Y24175282D01*
X-9873000Y24424718D01*
X-9968455Y24655167D01*
X-10144833Y24831545D01*
X-10375282Y24927000D01*
X-10624718Y24927000D01*
X-10855167Y24831545D01*
X-11031545Y24655167D01*
X-11127000Y24424718D01*
X-11127000Y24175282D01*
X-11095118Y24098312D01*
X-11183690Y24135000D01*
X-11474250Y24135000D01*
X-11633000Y23976250D01*
X-11633000Y22627000D01*
X-11613000Y22627000D01*
X-11613000Y22373000D01*
X-11633000Y22373000D01*
X-11633000Y21023750D01*
X-11474250Y20865000D01*
X-11183690Y20865000D01*
X-11026999Y20929903D01*
X-11027000Y17659712D01*
X-11031545Y17655167D01*
X-11127000Y17424718D01*
X-11127000Y17175282D01*
X-11031545Y16944833D01*
X-10855167Y16768455D01*
X-10624718Y16673000D01*
X-10375282Y16673000D01*
X-10144833Y16768455D01*
X-9968455Y16944833D01*
X-9873000Y17175282D01*
X-9873000Y17424718D01*
X-9968455Y17655167D01*
X-9973000Y17659712D01*
X-9973000Y21179921D01*
X-9912411Y21191973D01*
X-9855000Y21230334D01*
X-9797589Y21191973D01*
X-9670000Y21166594D01*
X-9621999Y21166594D01*
X-9622000Y12059585D01*
X-9629874Y12020000D01*
X-9622000Y11980415D01*
X-9622000Y11980411D01*
X-9598675Y11863149D01*
X-9509825Y11730175D01*
X-9476262Y11707749D01*
X-7912250Y10143736D01*
X-7889825Y10110175D01*
X-7856265Y10087751D01*
X-7856263Y10087749D01*
X-7795697Y10047280D01*
X-7756852Y10021325D01*
X-7639590Y9998000D01*
X-7639585Y9998000D01*
X-7600000Y9990126D01*
X-7560415Y9998000D01*
X-3927000Y9998000D01*
X-3927000Y9602000D01*
X-5560415Y9602000D01*
X-5600000Y9609874D01*
X-5639585Y9602000D01*
X-5639590Y9602000D01*
X-5756852Y9578675D01*
X-5756854Y9578674D01*
X-5756853Y9578674D01*
X-5856263Y9512251D01*
X-5856265Y9512249D01*
X-5889825Y9489825D01*
X-5912249Y9456264D01*
X-8206262Y7162251D01*
X-8239825Y7139825D01*
X-8328675Y7006851D01*
X-8352000Y6889589D01*
X-8352000Y6889585D01*
X-8359874Y6850000D01*
X-8356573Y6833406D01*
X-8400000Y6833406D01*
X-8527589Y6808027D01*
X-8585000Y6769666D01*
X-8642411Y6808027D01*
X-8770000Y6833406D01*
X-9670000Y6833406D01*
X-9797589Y6808027D01*
X-9855000Y6769666D01*
X-9912411Y6808027D01*
X-10040000Y6833406D01*
X-10760782Y6833406D01*
X-10771673Y6859698D01*
X-10950301Y7038327D01*
X-11183690Y7135000D01*
X-11474250Y7135000D01*
X-11633000Y6976250D01*
X-11633000Y5627000D01*
X-11887000Y5627000D01*
X-11887000Y6976250D01*
X-12045750Y7135000D01*
X-12173000Y7135000D01*
X-12173000Y20865000D01*
X-12045750Y20865000D01*
X-11887000Y21023750D01*
X-11887000Y22373000D01*
X-11907000Y22373000D01*
X-11907000Y22627000D01*
X-11887000Y22627000D01*
X-11887000Y23976250D01*
X-12045750Y24135000D01*
X-12173000Y24135000D01*
X-12173000Y31074544D01*
X-11998154Y30899698D01*
X-11629509Y30747000D01*
X-11230491Y30747000D01*
X-10861846Y30899698D01*
X-10579698Y31181846D01*
X-10427000Y31550491D01*
X-10427000Y31873000D01*
X-9327000Y31873000D01*
X-9327000Y30000000D01*
G36*
X-4717589Y21191973D02*
X-4590000Y21166594D01*
X-4541999Y21166594D01*
X-4542000Y19526514D01*
X-5116513Y18952000D01*
X-5209800Y18952000D01*
X-5412683Y18867963D01*
X-5567963Y18712683D01*
X-5652000Y18509800D01*
X-5652000Y18290200D01*
X-5587714Y18135000D01*
X-6886310Y18135000D01*
X-7119699Y18038327D01*
X-7298327Y17859698D01*
X-7395000Y17626309D01*
X-7395000Y15285750D01*
X-7236250Y15127000D01*
X-4387000Y15127000D01*
X-4387000Y17976250D01*
X-4545750Y18135000D01*
X-4612286Y18135000D01*
X-4548000Y18290200D01*
X-4548000Y18383487D01*
X-3927000Y19004486D01*
X-3927000Y18135000D01*
X-3974250Y18135000D01*
X-4133000Y17976250D01*
X-4133000Y15127000D01*
X-4113000Y15127000D01*
X-4113000Y14873000D01*
X-4133000Y14873000D01*
X-4133000Y12023750D01*
X-3974250Y11865000D01*
X-3927000Y11865000D01*
X-3927000Y10802000D01*
X-7433486Y10802000D01*
X-8818000Y12186513D01*
X-8818000Y14714250D01*
X-7395000Y14714250D01*
X-7395000Y12373691D01*
X-7298327Y12140302D01*
X-7119699Y11961673D01*
X-6886310Y11865000D01*
X-4545750Y11865000D01*
X-4387000Y12023750D01*
X-4387000Y14873000D01*
X-7236250Y14873000D01*
X-7395000Y14714250D01*
X-8818000Y14714250D01*
X-8818000Y21166594D01*
X-8770000Y21166594D01*
X-8642411Y21191973D01*
X-8585000Y21230334D01*
X-8527589Y21191973D01*
X-8400000Y21166594D01*
X-7500000Y21166594D01*
X-7372411Y21191973D01*
X-7315000Y21230334D01*
X-7257589Y21191973D01*
X-7130000Y21166594D01*
X-6230000Y21166594D01*
X-6102411Y21191973D01*
X-6045000Y21230334D01*
X-5987589Y21191973D01*
X-5860000Y21166594D01*
X-4960000Y21166594D01*
X-4832411Y21191973D01*
X-4775000Y21230334D01*
X-4717589Y21191973D01*
X-4717589Y21191973D01*
G37*
X-4717589Y21191973D02*
X-4590000Y21166594D01*
X-4541999Y21166594D01*
X-4542000Y19526514D01*
X-5116513Y18952000D01*
X-5209800Y18952000D01*
X-5412683Y18867963D01*
X-5567963Y18712683D01*
X-5652000Y18509800D01*
X-5652000Y18290200D01*
X-5587714Y18135000D01*
X-6886310Y18135000D01*
X-7119699Y18038327D01*
X-7298327Y17859698D01*
X-7395000Y17626309D01*
X-7395000Y15285750D01*
X-7236250Y15127000D01*
X-4387000Y15127000D01*
X-4387000Y17976250D01*
X-4545750Y18135000D01*
X-4612286Y18135000D01*
X-4548000Y18290200D01*
X-4548000Y18383487D01*
X-3927000Y19004486D01*
X-3927000Y18135000D01*
X-3974250Y18135000D01*
X-4133000Y17976250D01*
X-4133000Y15127000D01*
X-4113000Y15127000D01*
X-4113000Y14873000D01*
X-4133000Y14873000D01*
X-4133000Y12023750D01*
X-3974250Y11865000D01*
X-3927000Y11865000D01*
X-3927000Y10802000D01*
X-7433486Y10802000D01*
X-8818000Y12186513D01*
X-8818000Y14714250D01*
X-7395000Y14714250D01*
X-7395000Y12373691D01*
X-7298327Y12140302D01*
X-7119699Y11961673D01*
X-6886310Y11865000D01*
X-4545750Y11865000D01*
X-4387000Y12023750D01*
X-4387000Y14873000D01*
X-7236250Y14873000D01*
X-7395000Y14714250D01*
X-8818000Y14714250D01*
X-8818000Y21166594D01*
X-8770000Y21166594D01*
X-8642411Y21191973D01*
X-8585000Y21230334D01*
X-8527589Y21191973D01*
X-8400000Y21166594D01*
X-7500000Y21166594D01*
X-7372411Y21191973D01*
X-7315000Y21230334D01*
X-7257589Y21191973D01*
X-7130000Y21166594D01*
X-6230000Y21166594D01*
X-6102411Y21191973D01*
X-6045000Y21230334D01*
X-5987589Y21191973D01*
X-5860000Y21166594D01*
X-4960000Y21166594D01*
X-4832411Y21191973D01*
X-4775000Y21230334D01*
X-4717589Y21191973D01*
G04 #@! TO.N,Net-(J3-Pad1)*
G36*
X-2083109Y3773906D02*
X-3359333Y2066407D01*
X-4044147Y3189183D01*
X-2225914Y3937867D01*
X-2083109Y3773906D01*
X-2083109Y3773906D01*
G37*
X-2083109Y3773906D02*
X-3359333Y2066407D01*
X-4044147Y3189183D01*
X-2225914Y3937867D01*
X-2083109Y3773906D01*
G04 #@! TD*
M02*
