G04 #@! TF.GenerationSoftware,KiCad,Pcbnew,5.0.2+dfsg1-1*
G04 #@! TF.CreationDate,2021-01-20T13:30:11+01:00*
G04 #@! TF.ProjectId,edgedriver,65646765-6472-4697-9665-722e6b696361,rev?*
G04 #@! TF.SameCoordinates,Original*
G04 #@! TF.FileFunction,Copper,L3,Inr*
G04 #@! TF.FilePolarity,Positive*
%FSLAX46Y46*%
G04 Gerber Fmt 4.6, Leading zero omitted, Abs format (unit mm)*
G04 Created by KiCad (PCBNEW 5.0.2+dfsg1-1) date Wed Jan 20 13:30:11 2021*
%MOMM*%
%LPD*%
G01*
G04 APERTURE LIST*
G04 #@! TA.AperFunction,ViaPad*
%ADD10O,1.600000X1.000000*%
G04 #@! TD*
G04 #@! TA.AperFunction,ViaPad*
%ADD11O,2.100000X1.000000*%
G04 #@! TD*
G04 #@! TA.AperFunction,ViaPad*
%ADD12C,1.700000*%
G04 #@! TD*
G04 #@! TA.AperFunction,ViaPad*
%ADD13O,1.700000X1.700000*%
G04 #@! TD*
G04 #@! TA.AperFunction,ViaPad*
%ADD14C,0.450000*%
G04 #@! TD*
G04 #@! TA.AperFunction,ViaPad*
%ADD15C,0.600000*%
G04 #@! TD*
G04 #@! TA.AperFunction,Conductor*
%ADD16C,0.254000*%
G04 #@! TD*
G04 APERTURE END LIST*
D10*
G04 #@! TO.N,GND*
G04 #@! TO.C,J2*
X9950000Y17220000D03*
X9950000Y8580000D03*
D11*
X5770000Y8580000D03*
X5770000Y17220000D03*
G04 #@! TD*
D12*
G04 #@! TO.N,SWDIO*
G04 #@! TO.C,J4*
X-11430000Y2540000D03*
D13*
G04 #@! TO.N,SWDCLK*
X-11430000Y0D03*
G04 #@! TD*
D12*
G04 #@! TO.N,Net-(J3-Pad1)*
G04 #@! TO.C,J3*
X-3810000Y2540000D03*
D13*
G04 #@! TO.N,Net-(J3-Pad2)*
X-1270000Y2540000D03*
G04 #@! TO.N,Net-(J3-Pad3)*
X1270000Y2540000D03*
G04 #@! TO.N,Net-(J3-Pad4)*
X3810000Y2540000D03*
G04 #@! TD*
D12*
G04 #@! TO.N,GND*
G04 #@! TO.C,J1*
X-8890000Y0D03*
D13*
X-6350000Y0D03*
G04 #@! TO.N,Net-(J1-Pad3)*
X-3810000Y0D03*
G04 #@! TO.N,Net-(J1-Pad4)*
X-1270000Y0D03*
G04 #@! TO.N,Net-(J1-Pad5)*
X1270000Y0D03*
G04 #@! TO.N,Net-(J1-Pad6)*
X3810000Y0D03*
G04 #@! TO.N,+5V*
X6350000Y0D03*
X8890000Y0D03*
G04 #@! TD*
D14*
G04 #@! TO.N,+5V*
X6800000Y12800000D03*
X8100000Y14100000D03*
D15*
G04 #@! TO.N,GND*
X-4000000Y26000000D03*
X-5500000Y26000000D03*
X-7000000Y26000000D03*
X-7000000Y27500000D03*
X-5500000Y27500000D03*
X-4000000Y27500000D03*
X-7000000Y29000000D03*
X-8500000Y27500000D03*
X-8500000Y29000000D03*
X-8500000Y26000000D03*
X2300000Y20900000D03*
X6700000Y21000000D03*
X-11700000Y24400000D03*
X-2600000Y12800000D03*
X-800000Y20300000D03*
X-11600000Y15800000D03*
X-3700000Y16400000D03*
X-11290000Y7300000D03*
X-9300000Y7200000D03*
X-4600000Y13400000D03*
X-10000000Y14600000D03*
D14*
X-5500000Y20900000D03*
X-8000000Y20900000D03*
X-7300000Y19300000D03*
X-5000000Y19300000D03*
X-4600000Y11100000D03*
X-7200000Y11200000D03*
X-8500000Y12500000D03*
X-7400000Y8500000D03*
G04 #@! TO.N,Net-(C1-Pad1)*
X6100000Y14900000D03*
X6100000Y10900000D03*
X7800000Y20700000D03*
D15*
G04 #@! TO.N,+5V*
X8500000Y27500000D03*
X7000000Y27500000D03*
X7000000Y29000000D03*
X7000000Y26000000D03*
X8500000Y29000000D03*
X5500000Y27500000D03*
X5500000Y26000000D03*
X8500000Y26000000D03*
X11600000Y8100000D03*
X6600000Y7500000D03*
X9400000Y7200000D03*
G04 #@! TO.N,3V3*
X-10500000Y17300000D03*
X-10500000Y24300000D03*
D14*
G04 #@! TO.N,ESPEN*
X500000Y9800000D03*
G04 #@! TO.N,Net-(J3-Pad1)*
X-2100000Y3900000D03*
G04 #@! TO.N,ESPRST*
X5800000Y7600000D03*
X1000000Y8200000D03*
G04 #@! TO.N,ESPRX*
X2010000Y15770000D03*
G04 #@! TO.N,ESPTX*
X1500000Y18160000D03*
G04 #@! TO.N,STMTX*
X-5100000Y18400000D03*
G04 #@! TO.N,STMRX*
X-1100000Y14800000D03*
G04 #@! TD*
D16*
G04 #@! TO.N,+5V*
G36*
X-8456000Y31357831D02*
X-8492137Y31303748D01*
X-8532683Y31099910D01*
X-8492137Y30896072D01*
X-8376672Y30723266D01*
X-8203866Y30607801D01*
X-8051478Y30577489D01*
X-6172204Y30577489D01*
X-6172205Y29151484D01*
X-6182439Y29100034D01*
X-6141893Y28896196D01*
X-6026428Y28723390D01*
X-5853622Y28607925D01*
X-5649784Y28567379D01*
X-5598335Y28577613D01*
X-2772412Y28577613D01*
X-2772413Y26151148D01*
X-2782647Y26099698D01*
X-2742101Y25895860D01*
X-2721174Y25864541D01*
X-2626636Y25723054D01*
X-2453830Y25607589D01*
X-2249992Y25567043D01*
X-2198543Y25577277D01*
X2198543Y25577277D01*
X2249992Y25567043D01*
X2453830Y25607589D01*
X2626636Y25723054D01*
X2742101Y25895860D01*
X2772413Y26048248D01*
X2772413Y26048249D01*
X2782647Y26099698D01*
X2772413Y26151148D01*
X2772413Y28577613D01*
X5597818Y28577613D01*
X5649267Y28567379D01*
X5853105Y28607925D01*
X6025911Y28723390D01*
X6141376Y28896196D01*
X6171688Y29048584D01*
X6171688Y29048585D01*
X6181922Y29100034D01*
X6171688Y29151484D01*
X6171688Y30577489D01*
X8050962Y30577489D01*
X8203350Y30607801D01*
X8376156Y30723266D01*
X8491621Y30896072D01*
X8532167Y31099910D01*
X8491621Y31303748D01*
X8456000Y31357059D01*
X8456000Y32544000D01*
X11641274Y32544000D01*
X12244001Y31941964D01*
X12244000Y604456D01*
X11998154Y850302D01*
X11629509Y1003000D01*
X11230491Y1003000D01*
X10861846Y850302D01*
X10579698Y568154D01*
X10427000Y199509D01*
X10427000Y-199509D01*
X10579698Y-568154D01*
X10825544Y-814000D01*
X4746613Y-814000D01*
X4969576Y-480312D01*
X5065116Y0D01*
X4969576Y480312D01*
X4697501Y887501D01*
X4290312Y1159576D01*
X3931239Y1231000D01*
X3688761Y1231000D01*
X3329688Y1159576D01*
X2922499Y887501D01*
X2650424Y480312D01*
X2554884Y0D01*
X2650424Y-480312D01*
X2873387Y-814000D01*
X2206613Y-814000D01*
X2429576Y-480312D01*
X2525116Y0D01*
X2429576Y480312D01*
X2157501Y887501D01*
X1750312Y1159576D01*
X1391239Y1231000D01*
X1148761Y1231000D01*
X789688Y1159576D01*
X382499Y887501D01*
X110424Y480312D01*
X14884Y0D01*
X110424Y-480312D01*
X333387Y-814000D01*
X-333387Y-814000D01*
X-110424Y-480312D01*
X-14884Y0D01*
X-110424Y480312D01*
X-382499Y887501D01*
X-789688Y1159576D01*
X-1148761Y1231000D01*
X-1391239Y1231000D01*
X-1750312Y1159576D01*
X-2157501Y887501D01*
X-2429576Y480312D01*
X-2525116Y0D01*
X-2429576Y-480312D01*
X-2206613Y-814000D01*
X-2873387Y-814000D01*
X-2650424Y-480312D01*
X-2554884Y0D01*
X-2650424Y480312D01*
X-2922499Y887501D01*
X-3329688Y1159576D01*
X-3688761Y1231000D01*
X-3931239Y1231000D01*
X-4290312Y1159576D01*
X-4697501Y887501D01*
X-4969576Y480312D01*
X-5065116Y0D01*
X-4969576Y-480312D01*
X-4746613Y-814000D01*
X-5413387Y-814000D01*
X-5190424Y-480312D01*
X-5094884Y0D01*
X-5190424Y480312D01*
X-5462499Y887501D01*
X-5869688Y1159576D01*
X-6228761Y1231000D01*
X-6471239Y1231000D01*
X-6830312Y1159576D01*
X-7237501Y887501D01*
X-7509576Y480312D01*
X-7605116Y0D01*
X-7509576Y-480312D01*
X-7286613Y-814000D01*
X-7963102Y-814000D01*
X-7846408Y-697306D01*
X-7659000Y-244861D01*
X-7659000Y244861D01*
X-7846408Y697306D01*
X-8192694Y1043592D01*
X-8645139Y1231000D01*
X-9134861Y1231000D01*
X-9587306Y1043592D01*
X-9933592Y697306D01*
X-10121000Y244861D01*
X-10121000Y-244861D01*
X-9933592Y-697306D01*
X-9816898Y-814000D01*
X-10493387Y-814000D01*
X-10270424Y-480312D01*
X-10174884Y0D01*
X-10270424Y480312D01*
X-10542499Y887501D01*
X-10949688Y1159576D01*
X-11308761Y1231000D01*
X-11551239Y1231000D01*
X-11910312Y1159576D01*
X-12244000Y936613D01*
X-12244000Y1613102D01*
X-12127306Y1496408D01*
X-11674861Y1309000D01*
X-11185139Y1309000D01*
X-10732694Y1496408D01*
X-10386408Y1842694D01*
X-10199000Y2295139D01*
X-10199000Y2784861D01*
X-5041000Y2784861D01*
X-5041000Y2295139D01*
X-4853592Y1842694D01*
X-4507306Y1496408D01*
X-4054861Y1309000D01*
X-3565139Y1309000D01*
X-3112694Y1496408D01*
X-2766408Y1842694D01*
X-2579000Y2295139D01*
X-2579000Y2784861D01*
X-2766408Y3237306D01*
X-3112694Y3583592D01*
X-3565139Y3771000D01*
X-4054861Y3771000D01*
X-4507306Y3583592D01*
X-4853592Y3237306D01*
X-5041000Y2784861D01*
X-10199000Y2784861D01*
X-10386408Y3237306D01*
X-10732694Y3583592D01*
X-11185139Y3771000D01*
X-11674861Y3771000D01*
X-12127306Y3583592D01*
X-12244000Y3466898D01*
X-12244000Y4020541D01*
X-2706000Y4020541D01*
X-2706000Y3779459D01*
X-2613742Y3556729D01*
X-2443271Y3386258D01*
X-2241032Y3302488D01*
X-2429576Y3020312D01*
X-2525116Y2540000D01*
X-2429576Y2059688D01*
X-2157501Y1652499D01*
X-1750312Y1380424D01*
X-1391239Y1309000D01*
X-1148761Y1309000D01*
X-789688Y1380424D01*
X-382499Y1652499D01*
X-110424Y2059688D01*
X-14884Y2540000D01*
X14884Y2540000D01*
X110424Y2059688D01*
X382499Y1652499D01*
X789688Y1380424D01*
X1148761Y1309000D01*
X1391239Y1309000D01*
X1750312Y1380424D01*
X2157501Y1652499D01*
X2429576Y2059688D01*
X2525116Y2540000D01*
X2554884Y2540000D01*
X2650424Y2059688D01*
X2922499Y1652499D01*
X3329688Y1380424D01*
X3688761Y1309000D01*
X3931239Y1309000D01*
X4290312Y1380424D01*
X4697501Y1652499D01*
X4969576Y2059688D01*
X5065116Y2540000D01*
X4969576Y3020312D01*
X4697501Y3427501D01*
X4290312Y3699576D01*
X3931239Y3771000D01*
X3688761Y3771000D01*
X3329688Y3699576D01*
X2922499Y3427501D01*
X2650424Y3020312D01*
X2554884Y2540000D01*
X2525116Y2540000D01*
X2429576Y3020312D01*
X2157501Y3427501D01*
X1750312Y3699576D01*
X1391239Y3771000D01*
X1148761Y3771000D01*
X789688Y3699576D01*
X382499Y3427501D01*
X110424Y3020312D01*
X14884Y2540000D01*
X-14884Y2540000D01*
X-110424Y3020312D01*
X-382499Y3427501D01*
X-789688Y3699576D01*
X-1148761Y3771000D01*
X-1391239Y3771000D01*
X-1507045Y3747965D01*
X-1494000Y3779459D01*
X-1494000Y4020541D01*
X-1586258Y4243271D01*
X-1756729Y4413742D01*
X-1979459Y4506000D01*
X-2220541Y4506000D01*
X-2443271Y4413742D01*
X-2613742Y4243271D01*
X-2706000Y4020541D01*
X-12244000Y4020541D01*
X-12244000Y7435459D01*
X-11971000Y7435459D01*
X-11971000Y7164541D01*
X-11867324Y6914244D01*
X-11675756Y6722676D01*
X-11425459Y6619000D01*
X-11154541Y6619000D01*
X-10904244Y6722676D01*
X-10712676Y6914244D01*
X-10609000Y7164541D01*
X-10609000Y7335459D01*
X-9981000Y7335459D01*
X-9981000Y7064541D01*
X-9877324Y6814244D01*
X-9685756Y6622676D01*
X-9435459Y6519000D01*
X-9164541Y6519000D01*
X-8914244Y6622676D01*
X-8722676Y6814244D01*
X-8619000Y7064541D01*
X-8619000Y7335459D01*
X-8722676Y7585756D01*
X-8914244Y7777324D01*
X-9164541Y7881000D01*
X-9435459Y7881000D01*
X-9685756Y7777324D01*
X-9877324Y7585756D01*
X-9981000Y7335459D01*
X-10609000Y7335459D01*
X-10609000Y7435459D01*
X-10712676Y7685756D01*
X-10904244Y7877324D01*
X-11154541Y7981000D01*
X-11425459Y7981000D01*
X-11675756Y7877324D01*
X-11867324Y7685756D01*
X-11971000Y7435459D01*
X-12244000Y7435459D01*
X-12244000Y8620541D01*
X-8006000Y8620541D01*
X-8006000Y8379459D01*
X-7913742Y8156729D01*
X-7743271Y7986258D01*
X-7520541Y7894000D01*
X-7279459Y7894000D01*
X-7056729Y7986258D01*
X-6886258Y8156729D01*
X-6818405Y8320541D01*
X394000Y8320541D01*
X394000Y8079459D01*
X486258Y7856729D01*
X656729Y7686258D01*
X879459Y7594000D01*
X1120541Y7594000D01*
X1343271Y7686258D01*
X1513742Y7856729D01*
X1606000Y8079459D01*
X1606000Y8320541D01*
X1513742Y8543271D01*
X1477013Y8580000D01*
X4321741Y8580000D01*
X4390117Y8236251D01*
X4584835Y7944835D01*
X4876251Y7750117D01*
X5133233Y7699000D01*
X5194000Y7699000D01*
X5194000Y7479459D01*
X5286258Y7256729D01*
X5456729Y7086258D01*
X5679459Y6994000D01*
X5920541Y6994000D01*
X6143271Y7086258D01*
X6313742Y7256729D01*
X6406000Y7479459D01*
X6406000Y7699000D01*
X6406767Y7699000D01*
X6663749Y7750117D01*
X6955165Y7944835D01*
X7149883Y8236251D01*
X7218259Y8580000D01*
X8751741Y8580000D01*
X8820117Y8236251D01*
X9014835Y7944835D01*
X9306251Y7750117D01*
X9563233Y7699000D01*
X10336767Y7699000D01*
X10593749Y7750117D01*
X10885165Y7944835D01*
X11079883Y8236251D01*
X11148259Y8580000D01*
X11079883Y8923749D01*
X10885165Y9215165D01*
X10593749Y9409883D01*
X10336767Y9461000D01*
X9563233Y9461000D01*
X9306251Y9409883D01*
X9014835Y9215165D01*
X8820117Y8923749D01*
X8751741Y8580000D01*
X7218259Y8580000D01*
X7149883Y8923749D01*
X6955165Y9215165D01*
X6676113Y9401622D01*
X6699917Y9411482D01*
X6898518Y9610083D01*
X7006000Y9869568D01*
X7006000Y10150432D01*
X6898518Y10409917D01*
X6699917Y10608518D01*
X6644672Y10631401D01*
X6706000Y10779459D01*
X6706000Y11020541D01*
X6613742Y11243271D01*
X6443271Y11413742D01*
X6220541Y11506000D01*
X5979459Y11506000D01*
X5756729Y11413742D01*
X5586258Y11243271D01*
X5494000Y11020541D01*
X5494000Y10779459D01*
X5586258Y10556729D01*
X5717276Y10425711D01*
X5701482Y10409917D01*
X5594000Y10150432D01*
X5594000Y9869568D01*
X5701482Y9610083D01*
X5850565Y9461000D01*
X5133233Y9461000D01*
X4876251Y9409883D01*
X4584835Y9215165D01*
X4390117Y8923749D01*
X4321741Y8580000D01*
X1477013Y8580000D01*
X1343271Y8713742D01*
X1120541Y8806000D01*
X879459Y8806000D01*
X656729Y8713742D01*
X486258Y8543271D01*
X394000Y8320541D01*
X-6818405Y8320541D01*
X-6794000Y8379459D01*
X-6794000Y8620541D01*
X-6886258Y8843271D01*
X-7056729Y9013742D01*
X-7279459Y9106000D01*
X-7520541Y9106000D01*
X-7743271Y9013742D01*
X-7913742Y8843271D01*
X-8006000Y8620541D01*
X-12244000Y8620541D01*
X-12244000Y9920541D01*
X-106000Y9920541D01*
X-106000Y9679459D01*
X-13742Y9456729D01*
X156729Y9286258D01*
X379459Y9194000D01*
X620541Y9194000D01*
X843271Y9286258D01*
X1013742Y9456729D01*
X1106000Y9679459D01*
X1106000Y9920541D01*
X1013742Y10143271D01*
X843271Y10313742D01*
X620541Y10406000D01*
X379459Y10406000D01*
X156729Y10313742D01*
X-13742Y10143271D01*
X-106000Y9920541D01*
X-12244000Y9920541D01*
X-12244000Y11320541D01*
X-7806000Y11320541D01*
X-7806000Y11079459D01*
X-7713742Y10856729D01*
X-7543271Y10686258D01*
X-7320541Y10594000D01*
X-7079459Y10594000D01*
X-6856729Y10686258D01*
X-6686258Y10856729D01*
X-6594000Y11079459D01*
X-6594000Y11220541D01*
X-5206000Y11220541D01*
X-5206000Y10979459D01*
X-5113742Y10756729D01*
X-4943271Y10586258D01*
X-4720541Y10494000D01*
X-4479459Y10494000D01*
X-4256729Y10586258D01*
X-4086258Y10756729D01*
X-3994000Y10979459D01*
X-3994000Y11220541D01*
X-4086258Y11443271D01*
X-4256729Y11613742D01*
X-4479459Y11706000D01*
X-4720541Y11706000D01*
X-4943271Y11613742D01*
X-5113742Y11443271D01*
X-5206000Y11220541D01*
X-6594000Y11220541D01*
X-6594000Y11320541D01*
X-6686258Y11543271D01*
X-6856729Y11713742D01*
X-7079459Y11806000D01*
X-7320541Y11806000D01*
X-7543271Y11713742D01*
X-7713742Y11543271D01*
X-7806000Y11320541D01*
X-12244000Y11320541D01*
X-12244000Y12620541D01*
X-9106000Y12620541D01*
X-9106000Y12379459D01*
X-9013742Y12156729D01*
X-8843271Y11986258D01*
X-8620541Y11894000D01*
X-8379459Y11894000D01*
X-8156729Y11986258D01*
X-7986258Y12156729D01*
X-7894000Y12379459D01*
X-7894000Y12620541D01*
X-7986258Y12843271D01*
X-8156729Y13013742D01*
X-8379459Y13106000D01*
X-8620541Y13106000D01*
X-8843271Y13013742D01*
X-9013742Y12843271D01*
X-9106000Y12620541D01*
X-12244000Y12620541D01*
X-12244000Y13535459D01*
X-5281000Y13535459D01*
X-5281000Y13264541D01*
X-5177324Y13014244D01*
X-4985756Y12822676D01*
X-4735459Y12719000D01*
X-4464541Y12719000D01*
X-4214244Y12822676D01*
X-4101461Y12935459D01*
X-3281000Y12935459D01*
X-3281000Y12664541D01*
X-3177324Y12414244D01*
X-2985756Y12222676D01*
X-2735459Y12119000D01*
X-2464541Y12119000D01*
X-2214244Y12222676D01*
X-2022676Y12414244D01*
X-1919000Y12664541D01*
X-1919000Y12935459D01*
X-2022676Y13185756D01*
X-2214244Y13377324D01*
X-2464541Y13481000D01*
X-2735459Y13481000D01*
X-2985756Y13377324D01*
X-3177324Y13185756D01*
X-3281000Y12935459D01*
X-4101461Y12935459D01*
X-4022676Y13014244D01*
X-3919000Y13264541D01*
X-3919000Y13535459D01*
X-4022676Y13785756D01*
X-4214244Y13977324D01*
X-4464541Y14081000D01*
X-4735459Y14081000D01*
X-4985756Y13977324D01*
X-5177324Y13785756D01*
X-5281000Y13535459D01*
X-12244000Y13535459D01*
X-12244000Y14735459D01*
X-10681000Y14735459D01*
X-10681000Y14464541D01*
X-10577324Y14214244D01*
X-10385756Y14022676D01*
X-10135459Y13919000D01*
X-9864541Y13919000D01*
X-9614244Y14022676D01*
X-9422676Y14214244D01*
X-9319000Y14464541D01*
X-9319000Y14735459D01*
X-9395663Y14920541D01*
X-1706000Y14920541D01*
X-1706000Y14679459D01*
X-1613742Y14456729D01*
X-1443271Y14286258D01*
X-1220541Y14194000D01*
X-979459Y14194000D01*
X-756729Y14286258D01*
X-586258Y14456729D01*
X-494000Y14679459D01*
X-494000Y14920541D01*
X-586258Y15143271D01*
X-756729Y15313742D01*
X-979459Y15406000D01*
X-1220541Y15406000D01*
X-1443271Y15313742D01*
X-1613742Y15143271D01*
X-1706000Y14920541D01*
X-9395663Y14920541D01*
X-9422676Y14985756D01*
X-9614244Y15177324D01*
X-9864541Y15281000D01*
X-10135459Y15281000D01*
X-10385756Y15177324D01*
X-10577324Y14985756D01*
X-10681000Y14735459D01*
X-12244000Y14735459D01*
X-12244000Y15575215D01*
X-12177324Y15414244D01*
X-11985756Y15222676D01*
X-11735459Y15119000D01*
X-11464541Y15119000D01*
X-11214244Y15222676D01*
X-11022676Y15414244D01*
X-10919000Y15664541D01*
X-10919000Y15935459D01*
X-11022676Y16185756D01*
X-11214244Y16377324D01*
X-11464541Y16481000D01*
X-11735459Y16481000D01*
X-11985756Y16377324D01*
X-12177324Y16185756D01*
X-12244000Y16024785D01*
X-12244000Y16535459D01*
X-4381000Y16535459D01*
X-4381000Y16264541D01*
X-4277324Y16014244D01*
X-4085756Y15822676D01*
X-3835459Y15719000D01*
X-3564541Y15719000D01*
X-3314244Y15822676D01*
X-3246379Y15890541D01*
X1404000Y15890541D01*
X1404000Y15649459D01*
X1496258Y15426729D01*
X1666729Y15256258D01*
X1889459Y15164000D01*
X2130541Y15164000D01*
X2353271Y15256258D01*
X2523742Y15426729D01*
X2616000Y15649459D01*
X2616000Y15890541D01*
X2523742Y16113271D01*
X2353271Y16283742D01*
X2130541Y16376000D01*
X1889459Y16376000D01*
X1666729Y16283742D01*
X1496258Y16113271D01*
X1404000Y15890541D01*
X-3246379Y15890541D01*
X-3122676Y16014244D01*
X-3019000Y16264541D01*
X-3019000Y16535459D01*
X-3122676Y16785756D01*
X-3314244Y16977324D01*
X-3564541Y17081000D01*
X-3835459Y17081000D01*
X-4085756Y16977324D01*
X-4277324Y16785756D01*
X-4381000Y16535459D01*
X-12244000Y16535459D01*
X-12244000Y17435459D01*
X-11181000Y17435459D01*
X-11181000Y17164541D01*
X-11077324Y16914244D01*
X-10885756Y16722676D01*
X-10635459Y16619000D01*
X-10364541Y16619000D01*
X-10114244Y16722676D01*
X-9922676Y16914244D01*
X-9819000Y17164541D01*
X-9819000Y17220000D01*
X4321741Y17220000D01*
X4390117Y16876251D01*
X4584835Y16584835D01*
X4876251Y16390117D01*
X5133233Y16339000D01*
X5850565Y16339000D01*
X5701482Y16189917D01*
X5594000Y15930432D01*
X5594000Y15649568D01*
X5701482Y15390083D01*
X5717276Y15374289D01*
X5586258Y15243271D01*
X5494000Y15020541D01*
X5494000Y14779459D01*
X5586258Y14556729D01*
X5756729Y14386258D01*
X5979459Y14294000D01*
X6220541Y14294000D01*
X6443271Y14386258D01*
X6613742Y14556729D01*
X6706000Y14779459D01*
X6706000Y15020541D01*
X6644672Y15168599D01*
X6699917Y15191482D01*
X6898518Y15390083D01*
X7006000Y15649568D01*
X7006000Y15930432D01*
X6898518Y16189917D01*
X6699917Y16388518D01*
X6676113Y16398378D01*
X6955165Y16584835D01*
X7149883Y16876251D01*
X7218259Y17220000D01*
X8751741Y17220000D01*
X8820117Y16876251D01*
X9014835Y16584835D01*
X9306251Y16390117D01*
X9563233Y16339000D01*
X10336767Y16339000D01*
X10593749Y16390117D01*
X10885165Y16584835D01*
X11079883Y16876251D01*
X11148259Y17220000D01*
X11079883Y17563749D01*
X10885165Y17855165D01*
X10593749Y18049883D01*
X10336767Y18101000D01*
X9563233Y18101000D01*
X9306251Y18049883D01*
X9014835Y17855165D01*
X8820117Y17563749D01*
X8751741Y17220000D01*
X7218259Y17220000D01*
X7149883Y17563749D01*
X6955165Y17855165D01*
X6663749Y18049883D01*
X6406767Y18101000D01*
X5133233Y18101000D01*
X4876251Y18049883D01*
X4584835Y17855165D01*
X4390117Y17563749D01*
X4321741Y17220000D01*
X-9819000Y17220000D01*
X-9819000Y17435459D01*
X-9922676Y17685756D01*
X-10114244Y17877324D01*
X-10364541Y17981000D01*
X-10635459Y17981000D01*
X-10885756Y17877324D01*
X-11077324Y17685756D01*
X-11181000Y17435459D01*
X-12244000Y17435459D01*
X-12244000Y18520541D01*
X-5706000Y18520541D01*
X-5706000Y18279459D01*
X-5613742Y18056729D01*
X-5443271Y17886258D01*
X-5220541Y17794000D01*
X-4979459Y17794000D01*
X-4756729Y17886258D01*
X-4586258Y18056729D01*
X-4494000Y18279459D01*
X-4494000Y18280541D01*
X894000Y18280541D01*
X894000Y18039459D01*
X986258Y17816729D01*
X1156729Y17646258D01*
X1379459Y17554000D01*
X1620541Y17554000D01*
X1843271Y17646258D01*
X2013742Y17816729D01*
X2106000Y18039459D01*
X2106000Y18280541D01*
X2013742Y18503271D01*
X1843271Y18673742D01*
X1620541Y18766000D01*
X1379459Y18766000D01*
X1156729Y18673742D01*
X986258Y18503271D01*
X894000Y18280541D01*
X-4494000Y18280541D01*
X-4494000Y18520541D01*
X-4586258Y18743271D01*
X-4642987Y18800000D01*
X-4486258Y18956729D01*
X-4394000Y19179459D01*
X-4394000Y19420541D01*
X-4486258Y19643271D01*
X-4656729Y19813742D01*
X-4879459Y19906000D01*
X-5120541Y19906000D01*
X-5343271Y19813742D01*
X-5513742Y19643271D01*
X-5606000Y19420541D01*
X-5606000Y19179459D01*
X-5513742Y18956729D01*
X-5457013Y18900000D01*
X-5613742Y18743271D01*
X-5706000Y18520541D01*
X-12244000Y18520541D01*
X-12244000Y19420541D01*
X-7906000Y19420541D01*
X-7906000Y19179459D01*
X-7813742Y18956729D01*
X-7643271Y18786258D01*
X-7420541Y18694000D01*
X-7179459Y18694000D01*
X-6956729Y18786258D01*
X-6786258Y18956729D01*
X-6694000Y19179459D01*
X-6694000Y19420541D01*
X-6786258Y19643271D01*
X-6956729Y19813742D01*
X-7179459Y19906000D01*
X-7420541Y19906000D01*
X-7643271Y19813742D01*
X-7813742Y19643271D01*
X-7906000Y19420541D01*
X-12244000Y19420541D01*
X-12244000Y21020541D01*
X-8606000Y21020541D01*
X-8606000Y20779459D01*
X-8513742Y20556729D01*
X-8343271Y20386258D01*
X-8120541Y20294000D01*
X-7879459Y20294000D01*
X-7656729Y20386258D01*
X-7486258Y20556729D01*
X-7394000Y20779459D01*
X-7394000Y21020541D01*
X-6106000Y21020541D01*
X-6106000Y20779459D01*
X-6013742Y20556729D01*
X-5843271Y20386258D01*
X-5620541Y20294000D01*
X-5379459Y20294000D01*
X-5156729Y20386258D01*
X-5107528Y20435459D01*
X-1481000Y20435459D01*
X-1481000Y20164541D01*
X-1377324Y19914244D01*
X-1185756Y19722676D01*
X-935459Y19619000D01*
X-664541Y19619000D01*
X-414244Y19722676D01*
X-222676Y19914244D01*
X-119000Y20164541D01*
X-119000Y20435459D01*
X-222676Y20685756D01*
X-414244Y20877324D01*
X-664541Y20981000D01*
X-935459Y20981000D01*
X-1185756Y20877324D01*
X-1377324Y20685756D01*
X-1481000Y20435459D01*
X-5107528Y20435459D01*
X-4986258Y20556729D01*
X-4894000Y20779459D01*
X-4894000Y21020541D01*
X-4900179Y21035459D01*
X1619000Y21035459D01*
X1619000Y20764541D01*
X1722676Y20514244D01*
X1914244Y20322676D01*
X2164541Y20219000D01*
X2435459Y20219000D01*
X2685756Y20322676D01*
X2877324Y20514244D01*
X2981000Y20764541D01*
X2981000Y21035459D01*
X2939579Y21135459D01*
X6019000Y21135459D01*
X6019000Y20864541D01*
X6122676Y20614244D01*
X6314244Y20422676D01*
X6564541Y20319000D01*
X6835459Y20319000D01*
X7085756Y20422676D01*
X7208217Y20545137D01*
X7286258Y20356729D01*
X7456729Y20186258D01*
X7679459Y20094000D01*
X7920541Y20094000D01*
X8143271Y20186258D01*
X8313742Y20356729D01*
X8406000Y20579459D01*
X8406000Y20820541D01*
X8313742Y21043271D01*
X8143271Y21213742D01*
X7920541Y21306000D01*
X7679459Y21306000D01*
X7456729Y21213742D01*
X7380252Y21137265D01*
X7277324Y21385756D01*
X7085756Y21577324D01*
X6835459Y21681000D01*
X6564541Y21681000D01*
X6314244Y21577324D01*
X6122676Y21385756D01*
X6019000Y21135459D01*
X2939579Y21135459D01*
X2877324Y21285756D01*
X2685756Y21477324D01*
X2435459Y21581000D01*
X2164541Y21581000D01*
X1914244Y21477324D01*
X1722676Y21285756D01*
X1619000Y21035459D01*
X-4900179Y21035459D01*
X-4986258Y21243271D01*
X-5156729Y21413742D01*
X-5379459Y21506000D01*
X-5620541Y21506000D01*
X-5843271Y21413742D01*
X-6013742Y21243271D01*
X-6106000Y21020541D01*
X-7394000Y21020541D01*
X-7486258Y21243271D01*
X-7656729Y21413742D01*
X-7879459Y21506000D01*
X-8120541Y21506000D01*
X-8343271Y21413742D01*
X-8513742Y21243271D01*
X-8606000Y21020541D01*
X-12244000Y21020541D01*
X-12244000Y23980920D01*
X-12085756Y23822676D01*
X-11835459Y23719000D01*
X-11564541Y23719000D01*
X-11314244Y23822676D01*
X-11122676Y24014244D01*
X-11120711Y24018989D01*
X-11077324Y23914244D01*
X-10885756Y23722676D01*
X-10635459Y23619000D01*
X-10364541Y23619000D01*
X-10114244Y23722676D01*
X-9922676Y23914244D01*
X-9819000Y24164541D01*
X-9819000Y24435459D01*
X-9922676Y24685756D01*
X-10114244Y24877324D01*
X-10364541Y24981000D01*
X-10635459Y24981000D01*
X-10885756Y24877324D01*
X-11077324Y24685756D01*
X-11079289Y24681011D01*
X-11122676Y24785756D01*
X-11314244Y24977324D01*
X-11564541Y25081000D01*
X-11835459Y25081000D01*
X-12085756Y24977324D01*
X-12244000Y24819080D01*
X-12244000Y26135459D01*
X-9181000Y26135459D01*
X-9181000Y25864541D01*
X-9077324Y25614244D01*
X-8885756Y25422676D01*
X-8635459Y25319000D01*
X-8364541Y25319000D01*
X-8114244Y25422676D01*
X-7922676Y25614244D01*
X-7819000Y25864541D01*
X-7819000Y26135459D01*
X-7681000Y26135459D01*
X-7681000Y25864541D01*
X-7577324Y25614244D01*
X-7385756Y25422676D01*
X-7135459Y25319000D01*
X-6864541Y25319000D01*
X-6614244Y25422676D01*
X-6422676Y25614244D01*
X-6319000Y25864541D01*
X-6319000Y26135459D01*
X-6181000Y26135459D01*
X-6181000Y25864541D01*
X-6077324Y25614244D01*
X-5885756Y25422676D01*
X-5635459Y25319000D01*
X-5364541Y25319000D01*
X-5114244Y25422676D01*
X-4922676Y25614244D01*
X-4819000Y25864541D01*
X-4819000Y26135459D01*
X-4681000Y26135459D01*
X-4681000Y25864541D01*
X-4577324Y25614244D01*
X-4385756Y25422676D01*
X-4135459Y25319000D01*
X-3864541Y25319000D01*
X-3614244Y25422676D01*
X-3422676Y25614244D01*
X-3319000Y25864541D01*
X-3319000Y26135459D01*
X-3422676Y26385756D01*
X-3614244Y26577324D01*
X-3864541Y26681000D01*
X-4135459Y26681000D01*
X-4385756Y26577324D01*
X-4577324Y26385756D01*
X-4681000Y26135459D01*
X-4819000Y26135459D01*
X-4922676Y26385756D01*
X-5114244Y26577324D01*
X-5364541Y26681000D01*
X-5635459Y26681000D01*
X-5885756Y26577324D01*
X-6077324Y26385756D01*
X-6181000Y26135459D01*
X-6319000Y26135459D01*
X-6422676Y26385756D01*
X-6614244Y26577324D01*
X-6864541Y26681000D01*
X-7135459Y26681000D01*
X-7385756Y26577324D01*
X-7577324Y26385756D01*
X-7681000Y26135459D01*
X-7819000Y26135459D01*
X-7922676Y26385756D01*
X-8114244Y26577324D01*
X-8364541Y26681000D01*
X-8635459Y26681000D01*
X-8885756Y26577324D01*
X-9077324Y26385756D01*
X-9181000Y26135459D01*
X-12244000Y26135459D01*
X-12244000Y27635459D01*
X-9181000Y27635459D01*
X-9181000Y27364541D01*
X-9077324Y27114244D01*
X-8885756Y26922676D01*
X-8635459Y26819000D01*
X-8364541Y26819000D01*
X-8114244Y26922676D01*
X-7922676Y27114244D01*
X-7819000Y27364541D01*
X-7819000Y27635459D01*
X-7681000Y27635459D01*
X-7681000Y27364541D01*
X-7577324Y27114244D01*
X-7385756Y26922676D01*
X-7135459Y26819000D01*
X-6864541Y26819000D01*
X-6614244Y26922676D01*
X-6422676Y27114244D01*
X-6319000Y27364541D01*
X-6319000Y27635459D01*
X-6181000Y27635459D01*
X-6181000Y27364541D01*
X-6077324Y27114244D01*
X-5885756Y26922676D01*
X-5635459Y26819000D01*
X-5364541Y26819000D01*
X-5114244Y26922676D01*
X-4922676Y27114244D01*
X-4819000Y27364541D01*
X-4819000Y27635459D01*
X-4681000Y27635459D01*
X-4681000Y27364541D01*
X-4577324Y27114244D01*
X-4385756Y26922676D01*
X-4135459Y26819000D01*
X-3864541Y26819000D01*
X-3614244Y26922676D01*
X-3422676Y27114244D01*
X-3319000Y27364541D01*
X-3319000Y27635459D01*
X-3422676Y27885756D01*
X-3614244Y28077324D01*
X-3864541Y28181000D01*
X-4135459Y28181000D01*
X-4385756Y28077324D01*
X-4577324Y27885756D01*
X-4681000Y27635459D01*
X-4819000Y27635459D01*
X-4922676Y27885756D01*
X-5114244Y28077324D01*
X-5364541Y28181000D01*
X-5635459Y28181000D01*
X-5885756Y28077324D01*
X-6077324Y27885756D01*
X-6181000Y27635459D01*
X-6319000Y27635459D01*
X-6422676Y27885756D01*
X-6614244Y28077324D01*
X-6864541Y28181000D01*
X-7135459Y28181000D01*
X-7385756Y28077324D01*
X-7577324Y27885756D01*
X-7681000Y27635459D01*
X-7819000Y27635459D01*
X-7922676Y27885756D01*
X-8114244Y28077324D01*
X-8364541Y28181000D01*
X-8635459Y28181000D01*
X-8885756Y28077324D01*
X-9077324Y27885756D01*
X-9181000Y27635459D01*
X-12244000Y27635459D01*
X-12244000Y29135459D01*
X-9181000Y29135459D01*
X-9181000Y28864541D01*
X-9077324Y28614244D01*
X-8885756Y28422676D01*
X-8635459Y28319000D01*
X-8364541Y28319000D01*
X-8114244Y28422676D01*
X-7922676Y28614244D01*
X-7819000Y28864541D01*
X-7819000Y29135459D01*
X-7681000Y29135459D01*
X-7681000Y28864541D01*
X-7577324Y28614244D01*
X-7385756Y28422676D01*
X-7135459Y28319000D01*
X-6864541Y28319000D01*
X-6614244Y28422676D01*
X-6422676Y28614244D01*
X-6319000Y28864541D01*
X-6319000Y29135459D01*
X-6422676Y29385756D01*
X-6614244Y29577324D01*
X-6864541Y29681000D01*
X-7135459Y29681000D01*
X-7385756Y29577324D01*
X-7577324Y29385756D01*
X-7681000Y29135459D01*
X-7819000Y29135459D01*
X-7922676Y29385756D01*
X-8114244Y29577324D01*
X-8364541Y29681000D01*
X-8635459Y29681000D01*
X-8885756Y29577324D01*
X-9077324Y29385756D01*
X-9181000Y29135459D01*
X-12244000Y29135459D01*
X-12244000Y31145544D01*
X-11998154Y30899698D01*
X-11629509Y30747000D01*
X-11230491Y30747000D01*
X-10861846Y30899698D01*
X-10579698Y31181846D01*
X-10427000Y31550491D01*
X-10427000Y31949509D01*
X-10579698Y32318154D01*
X-10805544Y32544000D01*
X-8455999Y32544000D01*
X-8456000Y31357831D01*
X-8456000Y31357831D01*
G37*
X-8456000Y31357831D02*
X-8492137Y31303748D01*
X-8532683Y31099910D01*
X-8492137Y30896072D01*
X-8376672Y30723266D01*
X-8203866Y30607801D01*
X-8051478Y30577489D01*
X-6172204Y30577489D01*
X-6172205Y29151484D01*
X-6182439Y29100034D01*
X-6141893Y28896196D01*
X-6026428Y28723390D01*
X-5853622Y28607925D01*
X-5649784Y28567379D01*
X-5598335Y28577613D01*
X-2772412Y28577613D01*
X-2772413Y26151148D01*
X-2782647Y26099698D01*
X-2742101Y25895860D01*
X-2721174Y25864541D01*
X-2626636Y25723054D01*
X-2453830Y25607589D01*
X-2249992Y25567043D01*
X-2198543Y25577277D01*
X2198543Y25577277D01*
X2249992Y25567043D01*
X2453830Y25607589D01*
X2626636Y25723054D01*
X2742101Y25895860D01*
X2772413Y26048248D01*
X2772413Y26048249D01*
X2782647Y26099698D01*
X2772413Y26151148D01*
X2772413Y28577613D01*
X5597818Y28577613D01*
X5649267Y28567379D01*
X5853105Y28607925D01*
X6025911Y28723390D01*
X6141376Y28896196D01*
X6171688Y29048584D01*
X6171688Y29048585D01*
X6181922Y29100034D01*
X6171688Y29151484D01*
X6171688Y30577489D01*
X8050962Y30577489D01*
X8203350Y30607801D01*
X8376156Y30723266D01*
X8491621Y30896072D01*
X8532167Y31099910D01*
X8491621Y31303748D01*
X8456000Y31357059D01*
X8456000Y32544000D01*
X11641274Y32544000D01*
X12244001Y31941964D01*
X12244000Y604456D01*
X11998154Y850302D01*
X11629509Y1003000D01*
X11230491Y1003000D01*
X10861846Y850302D01*
X10579698Y568154D01*
X10427000Y199509D01*
X10427000Y-199509D01*
X10579698Y-568154D01*
X10825544Y-814000D01*
X4746613Y-814000D01*
X4969576Y-480312D01*
X5065116Y0D01*
X4969576Y480312D01*
X4697501Y887501D01*
X4290312Y1159576D01*
X3931239Y1231000D01*
X3688761Y1231000D01*
X3329688Y1159576D01*
X2922499Y887501D01*
X2650424Y480312D01*
X2554884Y0D01*
X2650424Y-480312D01*
X2873387Y-814000D01*
X2206613Y-814000D01*
X2429576Y-480312D01*
X2525116Y0D01*
X2429576Y480312D01*
X2157501Y887501D01*
X1750312Y1159576D01*
X1391239Y1231000D01*
X1148761Y1231000D01*
X789688Y1159576D01*
X382499Y887501D01*
X110424Y480312D01*
X14884Y0D01*
X110424Y-480312D01*
X333387Y-814000D01*
X-333387Y-814000D01*
X-110424Y-480312D01*
X-14884Y0D01*
X-110424Y480312D01*
X-382499Y887501D01*
X-789688Y1159576D01*
X-1148761Y1231000D01*
X-1391239Y1231000D01*
X-1750312Y1159576D01*
X-2157501Y887501D01*
X-2429576Y480312D01*
X-2525116Y0D01*
X-2429576Y-480312D01*
X-2206613Y-814000D01*
X-2873387Y-814000D01*
X-2650424Y-480312D01*
X-2554884Y0D01*
X-2650424Y480312D01*
X-2922499Y887501D01*
X-3329688Y1159576D01*
X-3688761Y1231000D01*
X-3931239Y1231000D01*
X-4290312Y1159576D01*
X-4697501Y887501D01*
X-4969576Y480312D01*
X-5065116Y0D01*
X-4969576Y-480312D01*
X-4746613Y-814000D01*
X-5413387Y-814000D01*
X-5190424Y-480312D01*
X-5094884Y0D01*
X-5190424Y480312D01*
X-5462499Y887501D01*
X-5869688Y1159576D01*
X-6228761Y1231000D01*
X-6471239Y1231000D01*
X-6830312Y1159576D01*
X-7237501Y887501D01*
X-7509576Y480312D01*
X-7605116Y0D01*
X-7509576Y-480312D01*
X-7286613Y-814000D01*
X-7963102Y-814000D01*
X-7846408Y-697306D01*
X-7659000Y-244861D01*
X-7659000Y244861D01*
X-7846408Y697306D01*
X-8192694Y1043592D01*
X-8645139Y1231000D01*
X-9134861Y1231000D01*
X-9587306Y1043592D01*
X-9933592Y697306D01*
X-10121000Y244861D01*
X-10121000Y-244861D01*
X-9933592Y-697306D01*
X-9816898Y-814000D01*
X-10493387Y-814000D01*
X-10270424Y-480312D01*
X-10174884Y0D01*
X-10270424Y480312D01*
X-10542499Y887501D01*
X-10949688Y1159576D01*
X-11308761Y1231000D01*
X-11551239Y1231000D01*
X-11910312Y1159576D01*
X-12244000Y936613D01*
X-12244000Y1613102D01*
X-12127306Y1496408D01*
X-11674861Y1309000D01*
X-11185139Y1309000D01*
X-10732694Y1496408D01*
X-10386408Y1842694D01*
X-10199000Y2295139D01*
X-10199000Y2784861D01*
X-5041000Y2784861D01*
X-5041000Y2295139D01*
X-4853592Y1842694D01*
X-4507306Y1496408D01*
X-4054861Y1309000D01*
X-3565139Y1309000D01*
X-3112694Y1496408D01*
X-2766408Y1842694D01*
X-2579000Y2295139D01*
X-2579000Y2784861D01*
X-2766408Y3237306D01*
X-3112694Y3583592D01*
X-3565139Y3771000D01*
X-4054861Y3771000D01*
X-4507306Y3583592D01*
X-4853592Y3237306D01*
X-5041000Y2784861D01*
X-10199000Y2784861D01*
X-10386408Y3237306D01*
X-10732694Y3583592D01*
X-11185139Y3771000D01*
X-11674861Y3771000D01*
X-12127306Y3583592D01*
X-12244000Y3466898D01*
X-12244000Y4020541D01*
X-2706000Y4020541D01*
X-2706000Y3779459D01*
X-2613742Y3556729D01*
X-2443271Y3386258D01*
X-2241032Y3302488D01*
X-2429576Y3020312D01*
X-2525116Y2540000D01*
X-2429576Y2059688D01*
X-2157501Y1652499D01*
X-1750312Y1380424D01*
X-1391239Y1309000D01*
X-1148761Y1309000D01*
X-789688Y1380424D01*
X-382499Y1652499D01*
X-110424Y2059688D01*
X-14884Y2540000D01*
X14884Y2540000D01*
X110424Y2059688D01*
X382499Y1652499D01*
X789688Y1380424D01*
X1148761Y1309000D01*
X1391239Y1309000D01*
X1750312Y1380424D01*
X2157501Y1652499D01*
X2429576Y2059688D01*
X2525116Y2540000D01*
X2554884Y2540000D01*
X2650424Y2059688D01*
X2922499Y1652499D01*
X3329688Y1380424D01*
X3688761Y1309000D01*
X3931239Y1309000D01*
X4290312Y1380424D01*
X4697501Y1652499D01*
X4969576Y2059688D01*
X5065116Y2540000D01*
X4969576Y3020312D01*
X4697501Y3427501D01*
X4290312Y3699576D01*
X3931239Y3771000D01*
X3688761Y3771000D01*
X3329688Y3699576D01*
X2922499Y3427501D01*
X2650424Y3020312D01*
X2554884Y2540000D01*
X2525116Y2540000D01*
X2429576Y3020312D01*
X2157501Y3427501D01*
X1750312Y3699576D01*
X1391239Y3771000D01*
X1148761Y3771000D01*
X789688Y3699576D01*
X382499Y3427501D01*
X110424Y3020312D01*
X14884Y2540000D01*
X-14884Y2540000D01*
X-110424Y3020312D01*
X-382499Y3427501D01*
X-789688Y3699576D01*
X-1148761Y3771000D01*
X-1391239Y3771000D01*
X-1507045Y3747965D01*
X-1494000Y3779459D01*
X-1494000Y4020541D01*
X-1586258Y4243271D01*
X-1756729Y4413742D01*
X-1979459Y4506000D01*
X-2220541Y4506000D01*
X-2443271Y4413742D01*
X-2613742Y4243271D01*
X-2706000Y4020541D01*
X-12244000Y4020541D01*
X-12244000Y7435459D01*
X-11971000Y7435459D01*
X-11971000Y7164541D01*
X-11867324Y6914244D01*
X-11675756Y6722676D01*
X-11425459Y6619000D01*
X-11154541Y6619000D01*
X-10904244Y6722676D01*
X-10712676Y6914244D01*
X-10609000Y7164541D01*
X-10609000Y7335459D01*
X-9981000Y7335459D01*
X-9981000Y7064541D01*
X-9877324Y6814244D01*
X-9685756Y6622676D01*
X-9435459Y6519000D01*
X-9164541Y6519000D01*
X-8914244Y6622676D01*
X-8722676Y6814244D01*
X-8619000Y7064541D01*
X-8619000Y7335459D01*
X-8722676Y7585756D01*
X-8914244Y7777324D01*
X-9164541Y7881000D01*
X-9435459Y7881000D01*
X-9685756Y7777324D01*
X-9877324Y7585756D01*
X-9981000Y7335459D01*
X-10609000Y7335459D01*
X-10609000Y7435459D01*
X-10712676Y7685756D01*
X-10904244Y7877324D01*
X-11154541Y7981000D01*
X-11425459Y7981000D01*
X-11675756Y7877324D01*
X-11867324Y7685756D01*
X-11971000Y7435459D01*
X-12244000Y7435459D01*
X-12244000Y8620541D01*
X-8006000Y8620541D01*
X-8006000Y8379459D01*
X-7913742Y8156729D01*
X-7743271Y7986258D01*
X-7520541Y7894000D01*
X-7279459Y7894000D01*
X-7056729Y7986258D01*
X-6886258Y8156729D01*
X-6818405Y8320541D01*
X394000Y8320541D01*
X394000Y8079459D01*
X486258Y7856729D01*
X656729Y7686258D01*
X879459Y7594000D01*
X1120541Y7594000D01*
X1343271Y7686258D01*
X1513742Y7856729D01*
X1606000Y8079459D01*
X1606000Y8320541D01*
X1513742Y8543271D01*
X1477013Y8580000D01*
X4321741Y8580000D01*
X4390117Y8236251D01*
X4584835Y7944835D01*
X4876251Y7750117D01*
X5133233Y7699000D01*
X5194000Y7699000D01*
X5194000Y7479459D01*
X5286258Y7256729D01*
X5456729Y7086258D01*
X5679459Y6994000D01*
X5920541Y6994000D01*
X6143271Y7086258D01*
X6313742Y7256729D01*
X6406000Y7479459D01*
X6406000Y7699000D01*
X6406767Y7699000D01*
X6663749Y7750117D01*
X6955165Y7944835D01*
X7149883Y8236251D01*
X7218259Y8580000D01*
X8751741Y8580000D01*
X8820117Y8236251D01*
X9014835Y7944835D01*
X9306251Y7750117D01*
X9563233Y7699000D01*
X10336767Y7699000D01*
X10593749Y7750117D01*
X10885165Y7944835D01*
X11079883Y8236251D01*
X11148259Y8580000D01*
X11079883Y8923749D01*
X10885165Y9215165D01*
X10593749Y9409883D01*
X10336767Y9461000D01*
X9563233Y9461000D01*
X9306251Y9409883D01*
X9014835Y9215165D01*
X8820117Y8923749D01*
X8751741Y8580000D01*
X7218259Y8580000D01*
X7149883Y8923749D01*
X6955165Y9215165D01*
X6676113Y9401622D01*
X6699917Y9411482D01*
X6898518Y9610083D01*
X7006000Y9869568D01*
X7006000Y10150432D01*
X6898518Y10409917D01*
X6699917Y10608518D01*
X6644672Y10631401D01*
X6706000Y10779459D01*
X6706000Y11020541D01*
X6613742Y11243271D01*
X6443271Y11413742D01*
X6220541Y11506000D01*
X5979459Y11506000D01*
X5756729Y11413742D01*
X5586258Y11243271D01*
X5494000Y11020541D01*
X5494000Y10779459D01*
X5586258Y10556729D01*
X5717276Y10425711D01*
X5701482Y10409917D01*
X5594000Y10150432D01*
X5594000Y9869568D01*
X5701482Y9610083D01*
X5850565Y9461000D01*
X5133233Y9461000D01*
X4876251Y9409883D01*
X4584835Y9215165D01*
X4390117Y8923749D01*
X4321741Y8580000D01*
X1477013Y8580000D01*
X1343271Y8713742D01*
X1120541Y8806000D01*
X879459Y8806000D01*
X656729Y8713742D01*
X486258Y8543271D01*
X394000Y8320541D01*
X-6818405Y8320541D01*
X-6794000Y8379459D01*
X-6794000Y8620541D01*
X-6886258Y8843271D01*
X-7056729Y9013742D01*
X-7279459Y9106000D01*
X-7520541Y9106000D01*
X-7743271Y9013742D01*
X-7913742Y8843271D01*
X-8006000Y8620541D01*
X-12244000Y8620541D01*
X-12244000Y9920541D01*
X-106000Y9920541D01*
X-106000Y9679459D01*
X-13742Y9456729D01*
X156729Y9286258D01*
X379459Y9194000D01*
X620541Y9194000D01*
X843271Y9286258D01*
X1013742Y9456729D01*
X1106000Y9679459D01*
X1106000Y9920541D01*
X1013742Y10143271D01*
X843271Y10313742D01*
X620541Y10406000D01*
X379459Y10406000D01*
X156729Y10313742D01*
X-13742Y10143271D01*
X-106000Y9920541D01*
X-12244000Y9920541D01*
X-12244000Y11320541D01*
X-7806000Y11320541D01*
X-7806000Y11079459D01*
X-7713742Y10856729D01*
X-7543271Y10686258D01*
X-7320541Y10594000D01*
X-7079459Y10594000D01*
X-6856729Y10686258D01*
X-6686258Y10856729D01*
X-6594000Y11079459D01*
X-6594000Y11220541D01*
X-5206000Y11220541D01*
X-5206000Y10979459D01*
X-5113742Y10756729D01*
X-4943271Y10586258D01*
X-4720541Y10494000D01*
X-4479459Y10494000D01*
X-4256729Y10586258D01*
X-4086258Y10756729D01*
X-3994000Y10979459D01*
X-3994000Y11220541D01*
X-4086258Y11443271D01*
X-4256729Y11613742D01*
X-4479459Y11706000D01*
X-4720541Y11706000D01*
X-4943271Y11613742D01*
X-5113742Y11443271D01*
X-5206000Y11220541D01*
X-6594000Y11220541D01*
X-6594000Y11320541D01*
X-6686258Y11543271D01*
X-6856729Y11713742D01*
X-7079459Y11806000D01*
X-7320541Y11806000D01*
X-7543271Y11713742D01*
X-7713742Y11543271D01*
X-7806000Y11320541D01*
X-12244000Y11320541D01*
X-12244000Y12620541D01*
X-9106000Y12620541D01*
X-9106000Y12379459D01*
X-9013742Y12156729D01*
X-8843271Y11986258D01*
X-8620541Y11894000D01*
X-8379459Y11894000D01*
X-8156729Y11986258D01*
X-7986258Y12156729D01*
X-7894000Y12379459D01*
X-7894000Y12620541D01*
X-7986258Y12843271D01*
X-8156729Y13013742D01*
X-8379459Y13106000D01*
X-8620541Y13106000D01*
X-8843271Y13013742D01*
X-9013742Y12843271D01*
X-9106000Y12620541D01*
X-12244000Y12620541D01*
X-12244000Y13535459D01*
X-5281000Y13535459D01*
X-5281000Y13264541D01*
X-5177324Y13014244D01*
X-4985756Y12822676D01*
X-4735459Y12719000D01*
X-4464541Y12719000D01*
X-4214244Y12822676D01*
X-4101461Y12935459D01*
X-3281000Y12935459D01*
X-3281000Y12664541D01*
X-3177324Y12414244D01*
X-2985756Y12222676D01*
X-2735459Y12119000D01*
X-2464541Y12119000D01*
X-2214244Y12222676D01*
X-2022676Y12414244D01*
X-1919000Y12664541D01*
X-1919000Y12935459D01*
X-2022676Y13185756D01*
X-2214244Y13377324D01*
X-2464541Y13481000D01*
X-2735459Y13481000D01*
X-2985756Y13377324D01*
X-3177324Y13185756D01*
X-3281000Y12935459D01*
X-4101461Y12935459D01*
X-4022676Y13014244D01*
X-3919000Y13264541D01*
X-3919000Y13535459D01*
X-4022676Y13785756D01*
X-4214244Y13977324D01*
X-4464541Y14081000D01*
X-4735459Y14081000D01*
X-4985756Y13977324D01*
X-5177324Y13785756D01*
X-5281000Y13535459D01*
X-12244000Y13535459D01*
X-12244000Y14735459D01*
X-10681000Y14735459D01*
X-10681000Y14464541D01*
X-10577324Y14214244D01*
X-10385756Y14022676D01*
X-10135459Y13919000D01*
X-9864541Y13919000D01*
X-9614244Y14022676D01*
X-9422676Y14214244D01*
X-9319000Y14464541D01*
X-9319000Y14735459D01*
X-9395663Y14920541D01*
X-1706000Y14920541D01*
X-1706000Y14679459D01*
X-1613742Y14456729D01*
X-1443271Y14286258D01*
X-1220541Y14194000D01*
X-979459Y14194000D01*
X-756729Y14286258D01*
X-586258Y14456729D01*
X-494000Y14679459D01*
X-494000Y14920541D01*
X-586258Y15143271D01*
X-756729Y15313742D01*
X-979459Y15406000D01*
X-1220541Y15406000D01*
X-1443271Y15313742D01*
X-1613742Y15143271D01*
X-1706000Y14920541D01*
X-9395663Y14920541D01*
X-9422676Y14985756D01*
X-9614244Y15177324D01*
X-9864541Y15281000D01*
X-10135459Y15281000D01*
X-10385756Y15177324D01*
X-10577324Y14985756D01*
X-10681000Y14735459D01*
X-12244000Y14735459D01*
X-12244000Y15575215D01*
X-12177324Y15414244D01*
X-11985756Y15222676D01*
X-11735459Y15119000D01*
X-11464541Y15119000D01*
X-11214244Y15222676D01*
X-11022676Y15414244D01*
X-10919000Y15664541D01*
X-10919000Y15935459D01*
X-11022676Y16185756D01*
X-11214244Y16377324D01*
X-11464541Y16481000D01*
X-11735459Y16481000D01*
X-11985756Y16377324D01*
X-12177324Y16185756D01*
X-12244000Y16024785D01*
X-12244000Y16535459D01*
X-4381000Y16535459D01*
X-4381000Y16264541D01*
X-4277324Y16014244D01*
X-4085756Y15822676D01*
X-3835459Y15719000D01*
X-3564541Y15719000D01*
X-3314244Y15822676D01*
X-3246379Y15890541D01*
X1404000Y15890541D01*
X1404000Y15649459D01*
X1496258Y15426729D01*
X1666729Y15256258D01*
X1889459Y15164000D01*
X2130541Y15164000D01*
X2353271Y15256258D01*
X2523742Y15426729D01*
X2616000Y15649459D01*
X2616000Y15890541D01*
X2523742Y16113271D01*
X2353271Y16283742D01*
X2130541Y16376000D01*
X1889459Y16376000D01*
X1666729Y16283742D01*
X1496258Y16113271D01*
X1404000Y15890541D01*
X-3246379Y15890541D01*
X-3122676Y16014244D01*
X-3019000Y16264541D01*
X-3019000Y16535459D01*
X-3122676Y16785756D01*
X-3314244Y16977324D01*
X-3564541Y17081000D01*
X-3835459Y17081000D01*
X-4085756Y16977324D01*
X-4277324Y16785756D01*
X-4381000Y16535459D01*
X-12244000Y16535459D01*
X-12244000Y17435459D01*
X-11181000Y17435459D01*
X-11181000Y17164541D01*
X-11077324Y16914244D01*
X-10885756Y16722676D01*
X-10635459Y16619000D01*
X-10364541Y16619000D01*
X-10114244Y16722676D01*
X-9922676Y16914244D01*
X-9819000Y17164541D01*
X-9819000Y17220000D01*
X4321741Y17220000D01*
X4390117Y16876251D01*
X4584835Y16584835D01*
X4876251Y16390117D01*
X5133233Y16339000D01*
X5850565Y16339000D01*
X5701482Y16189917D01*
X5594000Y15930432D01*
X5594000Y15649568D01*
X5701482Y15390083D01*
X5717276Y15374289D01*
X5586258Y15243271D01*
X5494000Y15020541D01*
X5494000Y14779459D01*
X5586258Y14556729D01*
X5756729Y14386258D01*
X5979459Y14294000D01*
X6220541Y14294000D01*
X6443271Y14386258D01*
X6613742Y14556729D01*
X6706000Y14779459D01*
X6706000Y15020541D01*
X6644672Y15168599D01*
X6699917Y15191482D01*
X6898518Y15390083D01*
X7006000Y15649568D01*
X7006000Y15930432D01*
X6898518Y16189917D01*
X6699917Y16388518D01*
X6676113Y16398378D01*
X6955165Y16584835D01*
X7149883Y16876251D01*
X7218259Y17220000D01*
X8751741Y17220000D01*
X8820117Y16876251D01*
X9014835Y16584835D01*
X9306251Y16390117D01*
X9563233Y16339000D01*
X10336767Y16339000D01*
X10593749Y16390117D01*
X10885165Y16584835D01*
X11079883Y16876251D01*
X11148259Y17220000D01*
X11079883Y17563749D01*
X10885165Y17855165D01*
X10593749Y18049883D01*
X10336767Y18101000D01*
X9563233Y18101000D01*
X9306251Y18049883D01*
X9014835Y17855165D01*
X8820117Y17563749D01*
X8751741Y17220000D01*
X7218259Y17220000D01*
X7149883Y17563749D01*
X6955165Y17855165D01*
X6663749Y18049883D01*
X6406767Y18101000D01*
X5133233Y18101000D01*
X4876251Y18049883D01*
X4584835Y17855165D01*
X4390117Y17563749D01*
X4321741Y17220000D01*
X-9819000Y17220000D01*
X-9819000Y17435459D01*
X-9922676Y17685756D01*
X-10114244Y17877324D01*
X-10364541Y17981000D01*
X-10635459Y17981000D01*
X-10885756Y17877324D01*
X-11077324Y17685756D01*
X-11181000Y17435459D01*
X-12244000Y17435459D01*
X-12244000Y18520541D01*
X-5706000Y18520541D01*
X-5706000Y18279459D01*
X-5613742Y18056729D01*
X-5443271Y17886258D01*
X-5220541Y17794000D01*
X-4979459Y17794000D01*
X-4756729Y17886258D01*
X-4586258Y18056729D01*
X-4494000Y18279459D01*
X-4494000Y18280541D01*
X894000Y18280541D01*
X894000Y18039459D01*
X986258Y17816729D01*
X1156729Y17646258D01*
X1379459Y17554000D01*
X1620541Y17554000D01*
X1843271Y17646258D01*
X2013742Y17816729D01*
X2106000Y18039459D01*
X2106000Y18280541D01*
X2013742Y18503271D01*
X1843271Y18673742D01*
X1620541Y18766000D01*
X1379459Y18766000D01*
X1156729Y18673742D01*
X986258Y18503271D01*
X894000Y18280541D01*
X-4494000Y18280541D01*
X-4494000Y18520541D01*
X-4586258Y18743271D01*
X-4642987Y18800000D01*
X-4486258Y18956729D01*
X-4394000Y19179459D01*
X-4394000Y19420541D01*
X-4486258Y19643271D01*
X-4656729Y19813742D01*
X-4879459Y19906000D01*
X-5120541Y19906000D01*
X-5343271Y19813742D01*
X-5513742Y19643271D01*
X-5606000Y19420541D01*
X-5606000Y19179459D01*
X-5513742Y18956729D01*
X-5457013Y18900000D01*
X-5613742Y18743271D01*
X-5706000Y18520541D01*
X-12244000Y18520541D01*
X-12244000Y19420541D01*
X-7906000Y19420541D01*
X-7906000Y19179459D01*
X-7813742Y18956729D01*
X-7643271Y18786258D01*
X-7420541Y18694000D01*
X-7179459Y18694000D01*
X-6956729Y18786258D01*
X-6786258Y18956729D01*
X-6694000Y19179459D01*
X-6694000Y19420541D01*
X-6786258Y19643271D01*
X-6956729Y19813742D01*
X-7179459Y19906000D01*
X-7420541Y19906000D01*
X-7643271Y19813742D01*
X-7813742Y19643271D01*
X-7906000Y19420541D01*
X-12244000Y19420541D01*
X-12244000Y21020541D01*
X-8606000Y21020541D01*
X-8606000Y20779459D01*
X-8513742Y20556729D01*
X-8343271Y20386258D01*
X-8120541Y20294000D01*
X-7879459Y20294000D01*
X-7656729Y20386258D01*
X-7486258Y20556729D01*
X-7394000Y20779459D01*
X-7394000Y21020541D01*
X-6106000Y21020541D01*
X-6106000Y20779459D01*
X-6013742Y20556729D01*
X-5843271Y20386258D01*
X-5620541Y20294000D01*
X-5379459Y20294000D01*
X-5156729Y20386258D01*
X-5107528Y20435459D01*
X-1481000Y20435459D01*
X-1481000Y20164541D01*
X-1377324Y19914244D01*
X-1185756Y19722676D01*
X-935459Y19619000D01*
X-664541Y19619000D01*
X-414244Y19722676D01*
X-222676Y19914244D01*
X-119000Y20164541D01*
X-119000Y20435459D01*
X-222676Y20685756D01*
X-414244Y20877324D01*
X-664541Y20981000D01*
X-935459Y20981000D01*
X-1185756Y20877324D01*
X-1377324Y20685756D01*
X-1481000Y20435459D01*
X-5107528Y20435459D01*
X-4986258Y20556729D01*
X-4894000Y20779459D01*
X-4894000Y21020541D01*
X-4900179Y21035459D01*
X1619000Y21035459D01*
X1619000Y20764541D01*
X1722676Y20514244D01*
X1914244Y20322676D01*
X2164541Y20219000D01*
X2435459Y20219000D01*
X2685756Y20322676D01*
X2877324Y20514244D01*
X2981000Y20764541D01*
X2981000Y21035459D01*
X2939579Y21135459D01*
X6019000Y21135459D01*
X6019000Y20864541D01*
X6122676Y20614244D01*
X6314244Y20422676D01*
X6564541Y20319000D01*
X6835459Y20319000D01*
X7085756Y20422676D01*
X7208217Y20545137D01*
X7286258Y20356729D01*
X7456729Y20186258D01*
X7679459Y20094000D01*
X7920541Y20094000D01*
X8143271Y20186258D01*
X8313742Y20356729D01*
X8406000Y20579459D01*
X8406000Y20820541D01*
X8313742Y21043271D01*
X8143271Y21213742D01*
X7920541Y21306000D01*
X7679459Y21306000D01*
X7456729Y21213742D01*
X7380252Y21137265D01*
X7277324Y21385756D01*
X7085756Y21577324D01*
X6835459Y21681000D01*
X6564541Y21681000D01*
X6314244Y21577324D01*
X6122676Y21385756D01*
X6019000Y21135459D01*
X2939579Y21135459D01*
X2877324Y21285756D01*
X2685756Y21477324D01*
X2435459Y21581000D01*
X2164541Y21581000D01*
X1914244Y21477324D01*
X1722676Y21285756D01*
X1619000Y21035459D01*
X-4900179Y21035459D01*
X-4986258Y21243271D01*
X-5156729Y21413742D01*
X-5379459Y21506000D01*
X-5620541Y21506000D01*
X-5843271Y21413742D01*
X-6013742Y21243271D01*
X-6106000Y21020541D01*
X-7394000Y21020541D01*
X-7486258Y21243271D01*
X-7656729Y21413742D01*
X-7879459Y21506000D01*
X-8120541Y21506000D01*
X-8343271Y21413742D01*
X-8513742Y21243271D01*
X-8606000Y21020541D01*
X-12244000Y21020541D01*
X-12244000Y23980920D01*
X-12085756Y23822676D01*
X-11835459Y23719000D01*
X-11564541Y23719000D01*
X-11314244Y23822676D01*
X-11122676Y24014244D01*
X-11120711Y24018989D01*
X-11077324Y23914244D01*
X-10885756Y23722676D01*
X-10635459Y23619000D01*
X-10364541Y23619000D01*
X-10114244Y23722676D01*
X-9922676Y23914244D01*
X-9819000Y24164541D01*
X-9819000Y24435459D01*
X-9922676Y24685756D01*
X-10114244Y24877324D01*
X-10364541Y24981000D01*
X-10635459Y24981000D01*
X-10885756Y24877324D01*
X-11077324Y24685756D01*
X-11079289Y24681011D01*
X-11122676Y24785756D01*
X-11314244Y24977324D01*
X-11564541Y25081000D01*
X-11835459Y25081000D01*
X-12085756Y24977324D01*
X-12244000Y24819080D01*
X-12244000Y26135459D01*
X-9181000Y26135459D01*
X-9181000Y25864541D01*
X-9077324Y25614244D01*
X-8885756Y25422676D01*
X-8635459Y25319000D01*
X-8364541Y25319000D01*
X-8114244Y25422676D01*
X-7922676Y25614244D01*
X-7819000Y25864541D01*
X-7819000Y26135459D01*
X-7681000Y26135459D01*
X-7681000Y25864541D01*
X-7577324Y25614244D01*
X-7385756Y25422676D01*
X-7135459Y25319000D01*
X-6864541Y25319000D01*
X-6614244Y25422676D01*
X-6422676Y25614244D01*
X-6319000Y25864541D01*
X-6319000Y26135459D01*
X-6181000Y26135459D01*
X-6181000Y25864541D01*
X-6077324Y25614244D01*
X-5885756Y25422676D01*
X-5635459Y25319000D01*
X-5364541Y25319000D01*
X-5114244Y25422676D01*
X-4922676Y25614244D01*
X-4819000Y25864541D01*
X-4819000Y26135459D01*
X-4681000Y26135459D01*
X-4681000Y25864541D01*
X-4577324Y25614244D01*
X-4385756Y25422676D01*
X-4135459Y25319000D01*
X-3864541Y25319000D01*
X-3614244Y25422676D01*
X-3422676Y25614244D01*
X-3319000Y25864541D01*
X-3319000Y26135459D01*
X-3422676Y26385756D01*
X-3614244Y26577324D01*
X-3864541Y26681000D01*
X-4135459Y26681000D01*
X-4385756Y26577324D01*
X-4577324Y26385756D01*
X-4681000Y26135459D01*
X-4819000Y26135459D01*
X-4922676Y26385756D01*
X-5114244Y26577324D01*
X-5364541Y26681000D01*
X-5635459Y26681000D01*
X-5885756Y26577324D01*
X-6077324Y26385756D01*
X-6181000Y26135459D01*
X-6319000Y26135459D01*
X-6422676Y26385756D01*
X-6614244Y26577324D01*
X-6864541Y26681000D01*
X-7135459Y26681000D01*
X-7385756Y26577324D01*
X-7577324Y26385756D01*
X-7681000Y26135459D01*
X-7819000Y26135459D01*
X-7922676Y26385756D01*
X-8114244Y26577324D01*
X-8364541Y26681000D01*
X-8635459Y26681000D01*
X-8885756Y26577324D01*
X-9077324Y26385756D01*
X-9181000Y26135459D01*
X-12244000Y26135459D01*
X-12244000Y27635459D01*
X-9181000Y27635459D01*
X-9181000Y27364541D01*
X-9077324Y27114244D01*
X-8885756Y26922676D01*
X-8635459Y26819000D01*
X-8364541Y26819000D01*
X-8114244Y26922676D01*
X-7922676Y27114244D01*
X-7819000Y27364541D01*
X-7819000Y27635459D01*
X-7681000Y27635459D01*
X-7681000Y27364541D01*
X-7577324Y27114244D01*
X-7385756Y26922676D01*
X-7135459Y26819000D01*
X-6864541Y26819000D01*
X-6614244Y26922676D01*
X-6422676Y27114244D01*
X-6319000Y27364541D01*
X-6319000Y27635459D01*
X-6181000Y27635459D01*
X-6181000Y27364541D01*
X-6077324Y27114244D01*
X-5885756Y26922676D01*
X-5635459Y26819000D01*
X-5364541Y26819000D01*
X-5114244Y26922676D01*
X-4922676Y27114244D01*
X-4819000Y27364541D01*
X-4819000Y27635459D01*
X-4681000Y27635459D01*
X-4681000Y27364541D01*
X-4577324Y27114244D01*
X-4385756Y26922676D01*
X-4135459Y26819000D01*
X-3864541Y26819000D01*
X-3614244Y26922676D01*
X-3422676Y27114244D01*
X-3319000Y27364541D01*
X-3319000Y27635459D01*
X-3422676Y27885756D01*
X-3614244Y28077324D01*
X-3864541Y28181000D01*
X-4135459Y28181000D01*
X-4385756Y28077324D01*
X-4577324Y27885756D01*
X-4681000Y27635459D01*
X-4819000Y27635459D01*
X-4922676Y27885756D01*
X-5114244Y28077324D01*
X-5364541Y28181000D01*
X-5635459Y28181000D01*
X-5885756Y28077324D01*
X-6077324Y27885756D01*
X-6181000Y27635459D01*
X-6319000Y27635459D01*
X-6422676Y27885756D01*
X-6614244Y28077324D01*
X-6864541Y28181000D01*
X-7135459Y28181000D01*
X-7385756Y28077324D01*
X-7577324Y27885756D01*
X-7681000Y27635459D01*
X-7819000Y27635459D01*
X-7922676Y27885756D01*
X-8114244Y28077324D01*
X-8364541Y28181000D01*
X-8635459Y28181000D01*
X-8885756Y28077324D01*
X-9077324Y27885756D01*
X-9181000Y27635459D01*
X-12244000Y27635459D01*
X-12244000Y29135459D01*
X-9181000Y29135459D01*
X-9181000Y28864541D01*
X-9077324Y28614244D01*
X-8885756Y28422676D01*
X-8635459Y28319000D01*
X-8364541Y28319000D01*
X-8114244Y28422676D01*
X-7922676Y28614244D01*
X-7819000Y28864541D01*
X-7819000Y29135459D01*
X-7681000Y29135459D01*
X-7681000Y28864541D01*
X-7577324Y28614244D01*
X-7385756Y28422676D01*
X-7135459Y28319000D01*
X-6864541Y28319000D01*
X-6614244Y28422676D01*
X-6422676Y28614244D01*
X-6319000Y28864541D01*
X-6319000Y29135459D01*
X-6422676Y29385756D01*
X-6614244Y29577324D01*
X-6864541Y29681000D01*
X-7135459Y29681000D01*
X-7385756Y29577324D01*
X-7577324Y29385756D01*
X-7681000Y29135459D01*
X-7819000Y29135459D01*
X-7922676Y29385756D01*
X-8114244Y29577324D01*
X-8364541Y29681000D01*
X-8635459Y29681000D01*
X-8885756Y29577324D01*
X-9077324Y29385756D01*
X-9181000Y29135459D01*
X-12244000Y29135459D01*
X-12244000Y31145544D01*
X-11998154Y30899698D01*
X-11629509Y30747000D01*
X-11230491Y30747000D01*
X-10861846Y30899698D01*
X-10579698Y31181846D01*
X-10427000Y31550491D01*
X-10427000Y31949509D01*
X-10579698Y32318154D01*
X-10805544Y32544000D01*
X-8455999Y32544000D01*
X-8456000Y31357831D01*
G04 #@! TD*
M02*
