G04 #@! TF.GenerationSoftware,KiCad,Pcbnew,5.0.2+dfsg1-1*
G04 #@! TF.CreationDate,2021-01-20T13:30:11+01:00*
G04 #@! TF.ProjectId,edgedriver,65646765-6472-4697-9665-722e6b696361,rev?*
G04 #@! TF.SameCoordinates,Original*
G04 #@! TF.FileFunction,Copper,L2,Inr*
G04 #@! TF.FilePolarity,Positive*
%FSLAX46Y46*%
G04 Gerber Fmt 4.6, Leading zero omitted, Abs format (unit mm)*
G04 Created by KiCad (PCBNEW 5.0.2+dfsg1-1) date Wed Jan 20 13:30:11 2021*
%MOMM*%
%LPD*%
G01*
G04 APERTURE LIST*
G04 #@! TA.AperFunction,ViaPad*
%ADD10O,1.600000X1.000000*%
G04 #@! TD*
G04 #@! TA.AperFunction,ViaPad*
%ADD11O,2.100000X1.000000*%
G04 #@! TD*
G04 #@! TA.AperFunction,ViaPad*
%ADD12C,1.700000*%
G04 #@! TD*
G04 #@! TA.AperFunction,ViaPad*
%ADD13O,1.700000X1.700000*%
G04 #@! TD*
G04 #@! TA.AperFunction,ViaPad*
%ADD14C,0.450000*%
G04 #@! TD*
G04 #@! TA.AperFunction,ViaPad*
%ADD15C,0.600000*%
G04 #@! TD*
G04 #@! TA.AperFunction,Conductor*
%ADD16C,0.254000*%
G04 #@! TD*
G04 APERTURE END LIST*
D10*
G04 #@! TO.N,GND*
G04 #@! TO.C,J2*
X9950000Y17220000D03*
X9950000Y8580000D03*
D11*
X5770000Y8580000D03*
X5770000Y17220000D03*
G04 #@! TD*
D12*
G04 #@! TO.N,SWDIO*
G04 #@! TO.C,J4*
X-11430000Y2540000D03*
D13*
G04 #@! TO.N,SWDCLK*
X-11430000Y0D03*
G04 #@! TD*
D12*
G04 #@! TO.N,Net-(J3-Pad1)*
G04 #@! TO.C,J3*
X-3810000Y2540000D03*
D13*
G04 #@! TO.N,Net-(J3-Pad2)*
X-1270000Y2540000D03*
G04 #@! TO.N,Net-(J3-Pad3)*
X1270000Y2540000D03*
G04 #@! TO.N,Net-(J3-Pad4)*
X3810000Y2540000D03*
G04 #@! TD*
D12*
G04 #@! TO.N,GND*
G04 #@! TO.C,J1*
X-8890000Y0D03*
D13*
X-6350000Y0D03*
G04 #@! TO.N,Net-(J1-Pad3)*
X-3810000Y0D03*
G04 #@! TO.N,Net-(J1-Pad4)*
X-1270000Y0D03*
G04 #@! TO.N,Net-(J1-Pad5)*
X1270000Y0D03*
G04 #@! TO.N,Net-(J1-Pad6)*
X3810000Y0D03*
G04 #@! TO.N,+5V*
X6350000Y0D03*
X8890000Y0D03*
G04 #@! TD*
D14*
G04 #@! TO.N,+5V*
X6800000Y12800000D03*
X8100000Y14100000D03*
D15*
G04 #@! TO.N,GND*
X-4000000Y26000000D03*
X-5500000Y26000000D03*
X-7000000Y26000000D03*
X-7000000Y27500000D03*
X-5500000Y27500000D03*
X-4000000Y27500000D03*
X-7000000Y29000000D03*
X-8500000Y27500000D03*
X-8500000Y29000000D03*
X-8500000Y26000000D03*
X2300000Y20900000D03*
X6700000Y21000000D03*
X-11700000Y24400000D03*
X-2600000Y12800000D03*
X-800000Y20300000D03*
X-11600000Y15800000D03*
X-3700000Y16400000D03*
X-11290000Y7300000D03*
X-9300000Y7200000D03*
X-4600000Y13400000D03*
X-10000000Y14600000D03*
D14*
X-5500000Y20900000D03*
X-8000000Y20900000D03*
X-7300000Y19300000D03*
X-5000000Y19300000D03*
X-4600000Y11100000D03*
X-7200000Y11200000D03*
X-8500000Y12500000D03*
X-7400000Y8500000D03*
G04 #@! TO.N,Net-(C1-Pad1)*
X6100000Y14900000D03*
X6100000Y10900000D03*
X7800000Y20700000D03*
D15*
G04 #@! TO.N,+5V*
X8500000Y27500000D03*
X7000000Y27500000D03*
X7000000Y29000000D03*
X7000000Y26000000D03*
X8500000Y29000000D03*
X5500000Y27500000D03*
X5500000Y26000000D03*
X8500000Y26000000D03*
X11600000Y8100000D03*
X6600000Y7500000D03*
X9400000Y7200000D03*
G04 #@! TO.N,3V3*
X-10500000Y17300000D03*
X-10500000Y24300000D03*
D14*
G04 #@! TO.N,ESPEN*
X500000Y9800000D03*
G04 #@! TO.N,Net-(J3-Pad1)*
X-2100000Y3900000D03*
G04 #@! TO.N,ESPRST*
X5800000Y7600000D03*
X1000000Y8200000D03*
G04 #@! TO.N,ESPRX*
X2010000Y15770000D03*
G04 #@! TO.N,ESPTX*
X1500000Y18160000D03*
G04 #@! TO.N,STMTX*
X-5100000Y18400000D03*
G04 #@! TO.N,STMRX*
X-1100000Y14800000D03*
G04 #@! TD*
D16*
G04 #@! TO.N,GND*
G36*
X-8456000Y31357831D02*
X-8492137Y31303748D01*
X-8532683Y31099910D01*
X-8492137Y30896072D01*
X-8376672Y30723266D01*
X-8203866Y30607801D01*
X-8051478Y30577489D01*
X-6172204Y30577489D01*
X-6172205Y29151484D01*
X-6182439Y29100034D01*
X-6141893Y28896196D01*
X-6026428Y28723390D01*
X-5853622Y28607925D01*
X-5649784Y28567379D01*
X-5598335Y28577613D01*
X-2772412Y28577613D01*
X-2772413Y26151148D01*
X-2782647Y26099698D01*
X-2742101Y25895860D01*
X-2721174Y25864541D01*
X-2626636Y25723054D01*
X-2453830Y25607589D01*
X-2249992Y25567043D01*
X-2198543Y25577277D01*
X2198543Y25577277D01*
X2249992Y25567043D01*
X2453830Y25607589D01*
X2626636Y25723054D01*
X2742101Y25895860D01*
X2772413Y26048248D01*
X2772413Y26048249D01*
X2782647Y26099698D01*
X2775534Y26135459D01*
X4819000Y26135459D01*
X4819000Y25864541D01*
X4922676Y25614244D01*
X5114244Y25422676D01*
X5364541Y25319000D01*
X5635459Y25319000D01*
X5885756Y25422676D01*
X6077324Y25614244D01*
X6181000Y25864541D01*
X6181000Y26135459D01*
X6319000Y26135459D01*
X6319000Y25864541D01*
X6422676Y25614244D01*
X6614244Y25422676D01*
X6864541Y25319000D01*
X7135459Y25319000D01*
X7385756Y25422676D01*
X7577324Y25614244D01*
X7681000Y25864541D01*
X7681000Y26135459D01*
X7819000Y26135459D01*
X7819000Y25864541D01*
X7922676Y25614244D01*
X8114244Y25422676D01*
X8364541Y25319000D01*
X8635459Y25319000D01*
X8885756Y25422676D01*
X9077324Y25614244D01*
X9181000Y25864541D01*
X9181000Y26135459D01*
X9077324Y26385756D01*
X8885756Y26577324D01*
X8635459Y26681000D01*
X8364541Y26681000D01*
X8114244Y26577324D01*
X7922676Y26385756D01*
X7819000Y26135459D01*
X7681000Y26135459D01*
X7577324Y26385756D01*
X7385756Y26577324D01*
X7135459Y26681000D01*
X6864541Y26681000D01*
X6614244Y26577324D01*
X6422676Y26385756D01*
X6319000Y26135459D01*
X6181000Y26135459D01*
X6077324Y26385756D01*
X5885756Y26577324D01*
X5635459Y26681000D01*
X5364541Y26681000D01*
X5114244Y26577324D01*
X4922676Y26385756D01*
X4819000Y26135459D01*
X2775534Y26135459D01*
X2772413Y26151148D01*
X2772413Y27635459D01*
X4819000Y27635459D01*
X4819000Y27364541D01*
X4922676Y27114244D01*
X5114244Y26922676D01*
X5364541Y26819000D01*
X5635459Y26819000D01*
X5885756Y26922676D01*
X6077324Y27114244D01*
X6181000Y27364541D01*
X6181000Y27635459D01*
X6319000Y27635459D01*
X6319000Y27364541D01*
X6422676Y27114244D01*
X6614244Y26922676D01*
X6864541Y26819000D01*
X7135459Y26819000D01*
X7385756Y26922676D01*
X7577324Y27114244D01*
X7681000Y27364541D01*
X7681000Y27635459D01*
X7819000Y27635459D01*
X7819000Y27364541D01*
X7922676Y27114244D01*
X8114244Y26922676D01*
X8364541Y26819000D01*
X8635459Y26819000D01*
X8885756Y26922676D01*
X9077324Y27114244D01*
X9181000Y27364541D01*
X9181000Y27635459D01*
X9077324Y27885756D01*
X8885756Y28077324D01*
X8635459Y28181000D01*
X8364541Y28181000D01*
X8114244Y28077324D01*
X7922676Y27885756D01*
X7819000Y27635459D01*
X7681000Y27635459D01*
X7577324Y27885756D01*
X7385756Y28077324D01*
X7135459Y28181000D01*
X6864541Y28181000D01*
X6614244Y28077324D01*
X6422676Y27885756D01*
X6319000Y27635459D01*
X6181000Y27635459D01*
X6077324Y27885756D01*
X5885756Y28077324D01*
X5635459Y28181000D01*
X5364541Y28181000D01*
X5114244Y28077324D01*
X4922676Y27885756D01*
X4819000Y27635459D01*
X2772413Y27635459D01*
X2772413Y28577613D01*
X5597818Y28577613D01*
X5649267Y28567379D01*
X5853105Y28607925D01*
X6025911Y28723390D01*
X6141376Y28896196D01*
X6171688Y29048584D01*
X6171688Y29048585D01*
X6181922Y29100034D01*
X6174876Y29135459D01*
X6319000Y29135459D01*
X6319000Y28864541D01*
X6422676Y28614244D01*
X6614244Y28422676D01*
X6864541Y28319000D01*
X7135459Y28319000D01*
X7385756Y28422676D01*
X7577324Y28614244D01*
X7681000Y28864541D01*
X7681000Y29135459D01*
X7819000Y29135459D01*
X7819000Y28864541D01*
X7922676Y28614244D01*
X8114244Y28422676D01*
X8364541Y28319000D01*
X8635459Y28319000D01*
X8885756Y28422676D01*
X9077324Y28614244D01*
X9181000Y28864541D01*
X9181000Y29135459D01*
X9077324Y29385756D01*
X8885756Y29577324D01*
X8635459Y29681000D01*
X8364541Y29681000D01*
X8114244Y29577324D01*
X7922676Y29385756D01*
X7819000Y29135459D01*
X7681000Y29135459D01*
X7577324Y29385756D01*
X7385756Y29577324D01*
X7135459Y29681000D01*
X6864541Y29681000D01*
X6614244Y29577324D01*
X6422676Y29385756D01*
X6319000Y29135459D01*
X6174876Y29135459D01*
X6171688Y29151484D01*
X6171688Y30577489D01*
X8050962Y30577489D01*
X8203350Y30607801D01*
X8376156Y30723266D01*
X8491621Y30896072D01*
X8532167Y31099910D01*
X8491621Y31303748D01*
X8456000Y31357059D01*
X8456000Y32544000D01*
X11641274Y32544000D01*
X12244001Y31941964D01*
X12244000Y8324785D01*
X12177324Y8485756D01*
X11985756Y8677324D01*
X11735459Y8781000D01*
X11464541Y8781000D01*
X11285893Y8707002D01*
X11217955Y8707002D01*
X11344119Y8881874D01*
X11142368Y9292763D01*
X10801678Y9580002D01*
X10377000Y9715000D01*
X10077000Y9715000D01*
X10077000Y8707000D01*
X10097000Y8707000D01*
X10097000Y8453000D01*
X10077000Y8453000D01*
X10077000Y8433000D01*
X9823000Y8433000D01*
X9823000Y8453000D01*
X8682046Y8453000D01*
X8555881Y8278126D01*
X8757632Y7867237D01*
X8945643Y7708723D01*
X8822676Y7585756D01*
X8719000Y7335459D01*
X8719000Y7064541D01*
X8822676Y6814244D01*
X9014244Y6622676D01*
X9264541Y6519000D01*
X9535459Y6519000D01*
X9785756Y6622676D01*
X9977324Y6814244D01*
X10081000Y7064541D01*
X10081000Y7335459D01*
X10035627Y7445000D01*
X10377000Y7445000D01*
X10801678Y7579998D01*
X11006688Y7752844D01*
X11022676Y7714244D01*
X11214244Y7522676D01*
X11464541Y7419000D01*
X11735459Y7419000D01*
X11985756Y7522676D01*
X12177324Y7714244D01*
X12244000Y7875215D01*
X12244000Y604456D01*
X11998154Y850302D01*
X11629509Y1003000D01*
X11230491Y1003000D01*
X10861846Y850302D01*
X10579698Y568154D01*
X10427000Y199509D01*
X10427000Y-199509D01*
X10579698Y-568154D01*
X10825544Y-814000D01*
X9826613Y-814000D01*
X10049576Y-480312D01*
X10145116Y0D01*
X10049576Y480312D01*
X9777501Y887501D01*
X9370312Y1159576D01*
X9011239Y1231000D01*
X8768761Y1231000D01*
X8409688Y1159576D01*
X8002499Y887501D01*
X7730424Y480312D01*
X7634884Y0D01*
X7730424Y-480312D01*
X7953387Y-814000D01*
X7286613Y-814000D01*
X7509576Y-480312D01*
X7605116Y0D01*
X7509576Y480312D01*
X7237501Y887501D01*
X6830312Y1159576D01*
X6471239Y1231000D01*
X6228761Y1231000D01*
X5869688Y1159576D01*
X5462499Y887501D01*
X5190424Y480312D01*
X5094884Y0D01*
X5190424Y-480312D01*
X5413387Y-814000D01*
X4746613Y-814000D01*
X4969576Y-480312D01*
X5065116Y0D01*
X4969576Y480312D01*
X4697501Y887501D01*
X4290312Y1159576D01*
X3931239Y1231000D01*
X3688761Y1231000D01*
X3329688Y1159576D01*
X2922499Y887501D01*
X2650424Y480312D01*
X2554884Y0D01*
X2650424Y-480312D01*
X2873387Y-814000D01*
X2206613Y-814000D01*
X2429576Y-480312D01*
X2525116Y0D01*
X2429576Y480312D01*
X2157501Y887501D01*
X1750312Y1159576D01*
X1391239Y1231000D01*
X1148761Y1231000D01*
X789688Y1159576D01*
X382499Y887501D01*
X110424Y480312D01*
X14884Y0D01*
X110424Y-480312D01*
X333387Y-814000D01*
X-333387Y-814000D01*
X-110424Y-480312D01*
X-14884Y0D01*
X-110424Y480312D01*
X-382499Y887501D01*
X-789688Y1159576D01*
X-1148761Y1231000D01*
X-1391239Y1231000D01*
X-1750312Y1159576D01*
X-2157501Y887501D01*
X-2429576Y480312D01*
X-2525116Y0D01*
X-2429576Y-480312D01*
X-2206613Y-814000D01*
X-2873387Y-814000D01*
X-2650424Y-480312D01*
X-2554884Y0D01*
X-2650424Y480312D01*
X-2922499Y887501D01*
X-3329688Y1159576D01*
X-3688761Y1231000D01*
X-3931239Y1231000D01*
X-4290312Y1159576D01*
X-4697501Y887501D01*
X-4969576Y480312D01*
X-5065116Y0D01*
X-4969576Y-480312D01*
X-4746613Y-814000D01*
X-10493387Y-814000D01*
X-10270424Y-480312D01*
X-10174884Y0D01*
X-10270424Y480312D01*
X-10542499Y887501D01*
X-10949688Y1159576D01*
X-11308761Y1231000D01*
X-11551239Y1231000D01*
X-11910312Y1159576D01*
X-12244000Y936613D01*
X-12244000Y1613102D01*
X-12127306Y1496408D01*
X-11674861Y1309000D01*
X-11185139Y1309000D01*
X-10732694Y1496408D01*
X-10386408Y1842694D01*
X-10199000Y2295139D01*
X-10199000Y2784861D01*
X-5041000Y2784861D01*
X-5041000Y2295139D01*
X-4853592Y1842694D01*
X-4507306Y1496408D01*
X-4054861Y1309000D01*
X-3565139Y1309000D01*
X-3112694Y1496408D01*
X-2766408Y1842694D01*
X-2579000Y2295139D01*
X-2579000Y2784861D01*
X-2766408Y3237306D01*
X-3112694Y3583592D01*
X-3565139Y3771000D01*
X-4054861Y3771000D01*
X-4507306Y3583592D01*
X-4853592Y3237306D01*
X-5041000Y2784861D01*
X-10199000Y2784861D01*
X-10386408Y3237306D01*
X-10732694Y3583592D01*
X-11185139Y3771000D01*
X-11674861Y3771000D01*
X-12127306Y3583592D01*
X-12244000Y3466898D01*
X-12244000Y4020541D01*
X-2706000Y4020541D01*
X-2706000Y3779459D01*
X-2613742Y3556729D01*
X-2443271Y3386258D01*
X-2241032Y3302488D01*
X-2429576Y3020312D01*
X-2525116Y2540000D01*
X-2429576Y2059688D01*
X-2157501Y1652499D01*
X-1750312Y1380424D01*
X-1391239Y1309000D01*
X-1148761Y1309000D01*
X-789688Y1380424D01*
X-382499Y1652499D01*
X-110424Y2059688D01*
X-14884Y2540000D01*
X14884Y2540000D01*
X110424Y2059688D01*
X382499Y1652499D01*
X789688Y1380424D01*
X1148761Y1309000D01*
X1391239Y1309000D01*
X1750312Y1380424D01*
X2157501Y1652499D01*
X2429576Y2059688D01*
X2525116Y2540000D01*
X2554884Y2540000D01*
X2650424Y2059688D01*
X2922499Y1652499D01*
X3329688Y1380424D01*
X3688761Y1309000D01*
X3931239Y1309000D01*
X4290312Y1380424D01*
X4697501Y1652499D01*
X4969576Y2059688D01*
X5065116Y2540000D01*
X4969576Y3020312D01*
X4697501Y3427501D01*
X4290312Y3699576D01*
X3931239Y3771000D01*
X3688761Y3771000D01*
X3329688Y3699576D01*
X2922499Y3427501D01*
X2650424Y3020312D01*
X2554884Y2540000D01*
X2525116Y2540000D01*
X2429576Y3020312D01*
X2157501Y3427501D01*
X1750312Y3699576D01*
X1391239Y3771000D01*
X1148761Y3771000D01*
X789688Y3699576D01*
X382499Y3427501D01*
X110424Y3020312D01*
X14884Y2540000D01*
X-14884Y2540000D01*
X-110424Y3020312D01*
X-382499Y3427501D01*
X-789688Y3699576D01*
X-1148761Y3771000D01*
X-1391239Y3771000D01*
X-1507045Y3747965D01*
X-1494000Y3779459D01*
X-1494000Y4020541D01*
X-1586258Y4243271D01*
X-1756729Y4413742D01*
X-1979459Y4506000D01*
X-2220541Y4506000D01*
X-2443271Y4413742D01*
X-2613742Y4243271D01*
X-2706000Y4020541D01*
X-12244000Y4020541D01*
X-12244000Y8320541D01*
X394000Y8320541D01*
X394000Y8079459D01*
X486258Y7856729D01*
X656729Y7686258D01*
X879459Y7594000D01*
X1120541Y7594000D01*
X1343271Y7686258D01*
X1513742Y7856729D01*
X1606000Y8079459D01*
X1606000Y8278126D01*
X4125881Y8278126D01*
X4327632Y7867237D01*
X4668322Y7579998D01*
X5093000Y7445000D01*
X5208273Y7445000D01*
X5286258Y7256729D01*
X5456729Y7086258D01*
X5679459Y6994000D01*
X5920541Y6994000D01*
X6077787Y7059133D01*
X6214244Y6922676D01*
X6464541Y6819000D01*
X6735459Y6819000D01*
X6985756Y6922676D01*
X7177324Y7114244D01*
X7281000Y7364541D01*
X7281000Y7635459D01*
X7192080Y7850132D01*
X7212368Y7867237D01*
X7414119Y8278126D01*
X7287954Y8453000D01*
X5897000Y8453000D01*
X5897000Y8433000D01*
X5643000Y8433000D01*
X5643000Y8453000D01*
X4252046Y8453000D01*
X4125881Y8278126D01*
X1606000Y8278126D01*
X1606000Y8320541D01*
X1513742Y8543271D01*
X1343271Y8713742D01*
X1120541Y8806000D01*
X879459Y8806000D01*
X656729Y8713742D01*
X486258Y8543271D01*
X394000Y8320541D01*
X-12244000Y8320541D01*
X-12244000Y8881874D01*
X4125881Y8881874D01*
X4252046Y8707000D01*
X5643000Y8707000D01*
X5643000Y8727000D01*
X5897000Y8727000D01*
X5897000Y8707000D01*
X7287954Y8707000D01*
X7414119Y8881874D01*
X8555881Y8881874D01*
X8682046Y8707000D01*
X9823000Y8707000D01*
X9823000Y9715000D01*
X9523000Y9715000D01*
X9098322Y9580002D01*
X8757632Y9292763D01*
X8555881Y8881874D01*
X7414119Y8881874D01*
X7212368Y9292763D01*
X6871678Y9580002D01*
X6869219Y9580784D01*
X6898518Y9610083D01*
X7006000Y9869568D01*
X7006000Y10150432D01*
X6898518Y10409917D01*
X6699917Y10608518D01*
X6644672Y10631401D01*
X6706000Y10779459D01*
X6706000Y11020541D01*
X6613742Y11243271D01*
X6443271Y11413742D01*
X6220541Y11506000D01*
X5979459Y11506000D01*
X5756729Y11413742D01*
X5586258Y11243271D01*
X5494000Y11020541D01*
X5494000Y10779459D01*
X5586258Y10556729D01*
X5717276Y10425711D01*
X5701482Y10409917D01*
X5594000Y10150432D01*
X5594000Y9869568D01*
X5658024Y9715000D01*
X5093000Y9715000D01*
X4668322Y9580002D01*
X4327632Y9292763D01*
X4125881Y8881874D01*
X-12244000Y8881874D01*
X-12244000Y9920541D01*
X-106000Y9920541D01*
X-106000Y9679459D01*
X-13742Y9456729D01*
X156729Y9286258D01*
X379459Y9194000D01*
X620541Y9194000D01*
X843271Y9286258D01*
X1013742Y9456729D01*
X1106000Y9679459D01*
X1106000Y9920541D01*
X1013742Y10143271D01*
X843271Y10313742D01*
X620541Y10406000D01*
X379459Y10406000D01*
X156729Y10313742D01*
X-13742Y10143271D01*
X-106000Y9920541D01*
X-12244000Y9920541D01*
X-12244000Y12920541D01*
X6194000Y12920541D01*
X6194000Y12679459D01*
X6286258Y12456729D01*
X6456729Y12286258D01*
X6679459Y12194000D01*
X6920541Y12194000D01*
X7143271Y12286258D01*
X7313742Y12456729D01*
X7406000Y12679459D01*
X7406000Y12920541D01*
X7313742Y13143271D01*
X7143271Y13313742D01*
X6920541Y13406000D01*
X6679459Y13406000D01*
X6456729Y13313742D01*
X6286258Y13143271D01*
X6194000Y12920541D01*
X-12244000Y12920541D01*
X-12244000Y14920541D01*
X-1706000Y14920541D01*
X-1706000Y14679459D01*
X-1613742Y14456729D01*
X-1443271Y14286258D01*
X-1220541Y14194000D01*
X-979459Y14194000D01*
X-915384Y14220541D01*
X7494000Y14220541D01*
X7494000Y13979459D01*
X7586258Y13756729D01*
X7756729Y13586258D01*
X7979459Y13494000D01*
X8220541Y13494000D01*
X8443271Y13586258D01*
X8613742Y13756729D01*
X8706000Y13979459D01*
X8706000Y14220541D01*
X8613742Y14443271D01*
X8443271Y14613742D01*
X8220541Y14706000D01*
X7979459Y14706000D01*
X7756729Y14613742D01*
X7586258Y14443271D01*
X7494000Y14220541D01*
X-915384Y14220541D01*
X-756729Y14286258D01*
X-586258Y14456729D01*
X-494000Y14679459D01*
X-494000Y14920541D01*
X-586258Y15143271D01*
X-756729Y15313742D01*
X-979459Y15406000D01*
X-1220541Y15406000D01*
X-1443271Y15313742D01*
X-1613742Y15143271D01*
X-1706000Y14920541D01*
X-12244000Y14920541D01*
X-12244000Y15890541D01*
X1404000Y15890541D01*
X1404000Y15649459D01*
X1496258Y15426729D01*
X1666729Y15256258D01*
X1889459Y15164000D01*
X2130541Y15164000D01*
X2353271Y15256258D01*
X2523742Y15426729D01*
X2616000Y15649459D01*
X2616000Y15890541D01*
X2523742Y16113271D01*
X2353271Y16283742D01*
X2130541Y16376000D01*
X1889459Y16376000D01*
X1666729Y16283742D01*
X1496258Y16113271D01*
X1404000Y15890541D01*
X-12244000Y15890541D01*
X-12244000Y17435459D01*
X-11181000Y17435459D01*
X-11181000Y17164541D01*
X-11077324Y16914244D01*
X-10885756Y16722676D01*
X-10635459Y16619000D01*
X-10364541Y16619000D01*
X-10114244Y16722676D01*
X-9922676Y16914244D01*
X-9921069Y16918126D01*
X4125881Y16918126D01*
X4327632Y16507237D01*
X4668322Y16219998D01*
X5093000Y16085000D01*
X5658024Y16085000D01*
X5594000Y15930432D01*
X5594000Y15649568D01*
X5701482Y15390083D01*
X5717276Y15374289D01*
X5586258Y15243271D01*
X5494000Y15020541D01*
X5494000Y14779459D01*
X5586258Y14556729D01*
X5756729Y14386258D01*
X5979459Y14294000D01*
X6220541Y14294000D01*
X6443271Y14386258D01*
X6613742Y14556729D01*
X6706000Y14779459D01*
X6706000Y15020541D01*
X6644672Y15168599D01*
X6699917Y15191482D01*
X6898518Y15390083D01*
X7006000Y15649568D01*
X7006000Y15930432D01*
X6898518Y16189917D01*
X6869219Y16219216D01*
X6871678Y16219998D01*
X7212368Y16507237D01*
X7414119Y16918126D01*
X8555881Y16918126D01*
X8757632Y16507237D01*
X9098322Y16219998D01*
X9523000Y16085000D01*
X9823000Y16085000D01*
X9823000Y17093000D01*
X10077000Y17093000D01*
X10077000Y16085000D01*
X10377000Y16085000D01*
X10801678Y16219998D01*
X11142368Y16507237D01*
X11344119Y16918126D01*
X11217954Y17093000D01*
X10077000Y17093000D01*
X9823000Y17093000D01*
X8682046Y17093000D01*
X8555881Y16918126D01*
X7414119Y16918126D01*
X7287954Y17093000D01*
X5897000Y17093000D01*
X5897000Y17073000D01*
X5643000Y17073000D01*
X5643000Y17093000D01*
X4252046Y17093000D01*
X4125881Y16918126D01*
X-9921069Y16918126D01*
X-9819000Y17164541D01*
X-9819000Y17435459D01*
X-9854794Y17521874D01*
X4125881Y17521874D01*
X4252046Y17347000D01*
X5643000Y17347000D01*
X5643000Y18355000D01*
X5897000Y18355000D01*
X5897000Y17347000D01*
X7287954Y17347000D01*
X7414119Y17521874D01*
X8555881Y17521874D01*
X8682046Y17347000D01*
X9823000Y17347000D01*
X9823000Y18355000D01*
X10077000Y18355000D01*
X10077000Y17347000D01*
X11217954Y17347000D01*
X11344119Y17521874D01*
X11142368Y17932763D01*
X10801678Y18220002D01*
X10377000Y18355000D01*
X10077000Y18355000D01*
X9823000Y18355000D01*
X9523000Y18355000D01*
X9098322Y18220002D01*
X8757632Y17932763D01*
X8555881Y17521874D01*
X7414119Y17521874D01*
X7212368Y17932763D01*
X6871678Y18220002D01*
X6447000Y18355000D01*
X5897000Y18355000D01*
X5643000Y18355000D01*
X5093000Y18355000D01*
X4668322Y18220002D01*
X4327632Y17932763D01*
X4125881Y17521874D01*
X-9854794Y17521874D01*
X-9922676Y17685756D01*
X-10114244Y17877324D01*
X-10364541Y17981000D01*
X-10635459Y17981000D01*
X-10885756Y17877324D01*
X-11077324Y17685756D01*
X-11181000Y17435459D01*
X-12244000Y17435459D01*
X-12244000Y18520541D01*
X-5706000Y18520541D01*
X-5706000Y18279459D01*
X-5613742Y18056729D01*
X-5443271Y17886258D01*
X-5220541Y17794000D01*
X-4979459Y17794000D01*
X-4756729Y17886258D01*
X-4586258Y18056729D01*
X-4494000Y18279459D01*
X-4494000Y18280541D01*
X894000Y18280541D01*
X894000Y18039459D01*
X986258Y17816729D01*
X1156729Y17646258D01*
X1379459Y17554000D01*
X1620541Y17554000D01*
X1843271Y17646258D01*
X2013742Y17816729D01*
X2106000Y18039459D01*
X2106000Y18280541D01*
X2013742Y18503271D01*
X1843271Y18673742D01*
X1620541Y18766000D01*
X1379459Y18766000D01*
X1156729Y18673742D01*
X986258Y18503271D01*
X894000Y18280541D01*
X-4494000Y18280541D01*
X-4494000Y18520541D01*
X-4586258Y18743271D01*
X-4756729Y18913742D01*
X-4979459Y19006000D01*
X-5220541Y19006000D01*
X-5443271Y18913742D01*
X-5613742Y18743271D01*
X-5706000Y18520541D01*
X-12244000Y18520541D01*
X-12244000Y20820541D01*
X7194000Y20820541D01*
X7194000Y20579459D01*
X7286258Y20356729D01*
X7456729Y20186258D01*
X7679459Y20094000D01*
X7920541Y20094000D01*
X8143271Y20186258D01*
X8313742Y20356729D01*
X8406000Y20579459D01*
X8406000Y20820541D01*
X8313742Y21043271D01*
X8143271Y21213742D01*
X7920541Y21306000D01*
X7679459Y21306000D01*
X7456729Y21213742D01*
X7286258Y21043271D01*
X7194000Y20820541D01*
X-12244000Y20820541D01*
X-12244000Y24435459D01*
X-11181000Y24435459D01*
X-11181000Y24164541D01*
X-11077324Y23914244D01*
X-10885756Y23722676D01*
X-10635459Y23619000D01*
X-10364541Y23619000D01*
X-10114244Y23722676D01*
X-9922676Y23914244D01*
X-9819000Y24164541D01*
X-9819000Y24435459D01*
X-9922676Y24685756D01*
X-10114244Y24877324D01*
X-10364541Y24981000D01*
X-10635459Y24981000D01*
X-10885756Y24877324D01*
X-11077324Y24685756D01*
X-11181000Y24435459D01*
X-12244000Y24435459D01*
X-12244000Y31145544D01*
X-11998154Y30899698D01*
X-11629509Y30747000D01*
X-11230491Y30747000D01*
X-10861846Y30899698D01*
X-10579698Y31181846D01*
X-10427000Y31550491D01*
X-10427000Y31949509D01*
X-10579698Y32318154D01*
X-10805544Y32544000D01*
X-8455999Y32544000D01*
X-8456000Y31357831D01*
X-8456000Y31357831D01*
G37*
X-8456000Y31357831D02*
X-8492137Y31303748D01*
X-8532683Y31099910D01*
X-8492137Y30896072D01*
X-8376672Y30723266D01*
X-8203866Y30607801D01*
X-8051478Y30577489D01*
X-6172204Y30577489D01*
X-6172205Y29151484D01*
X-6182439Y29100034D01*
X-6141893Y28896196D01*
X-6026428Y28723390D01*
X-5853622Y28607925D01*
X-5649784Y28567379D01*
X-5598335Y28577613D01*
X-2772412Y28577613D01*
X-2772413Y26151148D01*
X-2782647Y26099698D01*
X-2742101Y25895860D01*
X-2721174Y25864541D01*
X-2626636Y25723054D01*
X-2453830Y25607589D01*
X-2249992Y25567043D01*
X-2198543Y25577277D01*
X2198543Y25577277D01*
X2249992Y25567043D01*
X2453830Y25607589D01*
X2626636Y25723054D01*
X2742101Y25895860D01*
X2772413Y26048248D01*
X2772413Y26048249D01*
X2782647Y26099698D01*
X2775534Y26135459D01*
X4819000Y26135459D01*
X4819000Y25864541D01*
X4922676Y25614244D01*
X5114244Y25422676D01*
X5364541Y25319000D01*
X5635459Y25319000D01*
X5885756Y25422676D01*
X6077324Y25614244D01*
X6181000Y25864541D01*
X6181000Y26135459D01*
X6319000Y26135459D01*
X6319000Y25864541D01*
X6422676Y25614244D01*
X6614244Y25422676D01*
X6864541Y25319000D01*
X7135459Y25319000D01*
X7385756Y25422676D01*
X7577324Y25614244D01*
X7681000Y25864541D01*
X7681000Y26135459D01*
X7819000Y26135459D01*
X7819000Y25864541D01*
X7922676Y25614244D01*
X8114244Y25422676D01*
X8364541Y25319000D01*
X8635459Y25319000D01*
X8885756Y25422676D01*
X9077324Y25614244D01*
X9181000Y25864541D01*
X9181000Y26135459D01*
X9077324Y26385756D01*
X8885756Y26577324D01*
X8635459Y26681000D01*
X8364541Y26681000D01*
X8114244Y26577324D01*
X7922676Y26385756D01*
X7819000Y26135459D01*
X7681000Y26135459D01*
X7577324Y26385756D01*
X7385756Y26577324D01*
X7135459Y26681000D01*
X6864541Y26681000D01*
X6614244Y26577324D01*
X6422676Y26385756D01*
X6319000Y26135459D01*
X6181000Y26135459D01*
X6077324Y26385756D01*
X5885756Y26577324D01*
X5635459Y26681000D01*
X5364541Y26681000D01*
X5114244Y26577324D01*
X4922676Y26385756D01*
X4819000Y26135459D01*
X2775534Y26135459D01*
X2772413Y26151148D01*
X2772413Y27635459D01*
X4819000Y27635459D01*
X4819000Y27364541D01*
X4922676Y27114244D01*
X5114244Y26922676D01*
X5364541Y26819000D01*
X5635459Y26819000D01*
X5885756Y26922676D01*
X6077324Y27114244D01*
X6181000Y27364541D01*
X6181000Y27635459D01*
X6319000Y27635459D01*
X6319000Y27364541D01*
X6422676Y27114244D01*
X6614244Y26922676D01*
X6864541Y26819000D01*
X7135459Y26819000D01*
X7385756Y26922676D01*
X7577324Y27114244D01*
X7681000Y27364541D01*
X7681000Y27635459D01*
X7819000Y27635459D01*
X7819000Y27364541D01*
X7922676Y27114244D01*
X8114244Y26922676D01*
X8364541Y26819000D01*
X8635459Y26819000D01*
X8885756Y26922676D01*
X9077324Y27114244D01*
X9181000Y27364541D01*
X9181000Y27635459D01*
X9077324Y27885756D01*
X8885756Y28077324D01*
X8635459Y28181000D01*
X8364541Y28181000D01*
X8114244Y28077324D01*
X7922676Y27885756D01*
X7819000Y27635459D01*
X7681000Y27635459D01*
X7577324Y27885756D01*
X7385756Y28077324D01*
X7135459Y28181000D01*
X6864541Y28181000D01*
X6614244Y28077324D01*
X6422676Y27885756D01*
X6319000Y27635459D01*
X6181000Y27635459D01*
X6077324Y27885756D01*
X5885756Y28077324D01*
X5635459Y28181000D01*
X5364541Y28181000D01*
X5114244Y28077324D01*
X4922676Y27885756D01*
X4819000Y27635459D01*
X2772413Y27635459D01*
X2772413Y28577613D01*
X5597818Y28577613D01*
X5649267Y28567379D01*
X5853105Y28607925D01*
X6025911Y28723390D01*
X6141376Y28896196D01*
X6171688Y29048584D01*
X6171688Y29048585D01*
X6181922Y29100034D01*
X6174876Y29135459D01*
X6319000Y29135459D01*
X6319000Y28864541D01*
X6422676Y28614244D01*
X6614244Y28422676D01*
X6864541Y28319000D01*
X7135459Y28319000D01*
X7385756Y28422676D01*
X7577324Y28614244D01*
X7681000Y28864541D01*
X7681000Y29135459D01*
X7819000Y29135459D01*
X7819000Y28864541D01*
X7922676Y28614244D01*
X8114244Y28422676D01*
X8364541Y28319000D01*
X8635459Y28319000D01*
X8885756Y28422676D01*
X9077324Y28614244D01*
X9181000Y28864541D01*
X9181000Y29135459D01*
X9077324Y29385756D01*
X8885756Y29577324D01*
X8635459Y29681000D01*
X8364541Y29681000D01*
X8114244Y29577324D01*
X7922676Y29385756D01*
X7819000Y29135459D01*
X7681000Y29135459D01*
X7577324Y29385756D01*
X7385756Y29577324D01*
X7135459Y29681000D01*
X6864541Y29681000D01*
X6614244Y29577324D01*
X6422676Y29385756D01*
X6319000Y29135459D01*
X6174876Y29135459D01*
X6171688Y29151484D01*
X6171688Y30577489D01*
X8050962Y30577489D01*
X8203350Y30607801D01*
X8376156Y30723266D01*
X8491621Y30896072D01*
X8532167Y31099910D01*
X8491621Y31303748D01*
X8456000Y31357059D01*
X8456000Y32544000D01*
X11641274Y32544000D01*
X12244001Y31941964D01*
X12244000Y8324785D01*
X12177324Y8485756D01*
X11985756Y8677324D01*
X11735459Y8781000D01*
X11464541Y8781000D01*
X11285893Y8707002D01*
X11217955Y8707002D01*
X11344119Y8881874D01*
X11142368Y9292763D01*
X10801678Y9580002D01*
X10377000Y9715000D01*
X10077000Y9715000D01*
X10077000Y8707000D01*
X10097000Y8707000D01*
X10097000Y8453000D01*
X10077000Y8453000D01*
X10077000Y8433000D01*
X9823000Y8433000D01*
X9823000Y8453000D01*
X8682046Y8453000D01*
X8555881Y8278126D01*
X8757632Y7867237D01*
X8945643Y7708723D01*
X8822676Y7585756D01*
X8719000Y7335459D01*
X8719000Y7064541D01*
X8822676Y6814244D01*
X9014244Y6622676D01*
X9264541Y6519000D01*
X9535459Y6519000D01*
X9785756Y6622676D01*
X9977324Y6814244D01*
X10081000Y7064541D01*
X10081000Y7335459D01*
X10035627Y7445000D01*
X10377000Y7445000D01*
X10801678Y7579998D01*
X11006688Y7752844D01*
X11022676Y7714244D01*
X11214244Y7522676D01*
X11464541Y7419000D01*
X11735459Y7419000D01*
X11985756Y7522676D01*
X12177324Y7714244D01*
X12244000Y7875215D01*
X12244000Y604456D01*
X11998154Y850302D01*
X11629509Y1003000D01*
X11230491Y1003000D01*
X10861846Y850302D01*
X10579698Y568154D01*
X10427000Y199509D01*
X10427000Y-199509D01*
X10579698Y-568154D01*
X10825544Y-814000D01*
X9826613Y-814000D01*
X10049576Y-480312D01*
X10145116Y0D01*
X10049576Y480312D01*
X9777501Y887501D01*
X9370312Y1159576D01*
X9011239Y1231000D01*
X8768761Y1231000D01*
X8409688Y1159576D01*
X8002499Y887501D01*
X7730424Y480312D01*
X7634884Y0D01*
X7730424Y-480312D01*
X7953387Y-814000D01*
X7286613Y-814000D01*
X7509576Y-480312D01*
X7605116Y0D01*
X7509576Y480312D01*
X7237501Y887501D01*
X6830312Y1159576D01*
X6471239Y1231000D01*
X6228761Y1231000D01*
X5869688Y1159576D01*
X5462499Y887501D01*
X5190424Y480312D01*
X5094884Y0D01*
X5190424Y-480312D01*
X5413387Y-814000D01*
X4746613Y-814000D01*
X4969576Y-480312D01*
X5065116Y0D01*
X4969576Y480312D01*
X4697501Y887501D01*
X4290312Y1159576D01*
X3931239Y1231000D01*
X3688761Y1231000D01*
X3329688Y1159576D01*
X2922499Y887501D01*
X2650424Y480312D01*
X2554884Y0D01*
X2650424Y-480312D01*
X2873387Y-814000D01*
X2206613Y-814000D01*
X2429576Y-480312D01*
X2525116Y0D01*
X2429576Y480312D01*
X2157501Y887501D01*
X1750312Y1159576D01*
X1391239Y1231000D01*
X1148761Y1231000D01*
X789688Y1159576D01*
X382499Y887501D01*
X110424Y480312D01*
X14884Y0D01*
X110424Y-480312D01*
X333387Y-814000D01*
X-333387Y-814000D01*
X-110424Y-480312D01*
X-14884Y0D01*
X-110424Y480312D01*
X-382499Y887501D01*
X-789688Y1159576D01*
X-1148761Y1231000D01*
X-1391239Y1231000D01*
X-1750312Y1159576D01*
X-2157501Y887501D01*
X-2429576Y480312D01*
X-2525116Y0D01*
X-2429576Y-480312D01*
X-2206613Y-814000D01*
X-2873387Y-814000D01*
X-2650424Y-480312D01*
X-2554884Y0D01*
X-2650424Y480312D01*
X-2922499Y887501D01*
X-3329688Y1159576D01*
X-3688761Y1231000D01*
X-3931239Y1231000D01*
X-4290312Y1159576D01*
X-4697501Y887501D01*
X-4969576Y480312D01*
X-5065116Y0D01*
X-4969576Y-480312D01*
X-4746613Y-814000D01*
X-10493387Y-814000D01*
X-10270424Y-480312D01*
X-10174884Y0D01*
X-10270424Y480312D01*
X-10542499Y887501D01*
X-10949688Y1159576D01*
X-11308761Y1231000D01*
X-11551239Y1231000D01*
X-11910312Y1159576D01*
X-12244000Y936613D01*
X-12244000Y1613102D01*
X-12127306Y1496408D01*
X-11674861Y1309000D01*
X-11185139Y1309000D01*
X-10732694Y1496408D01*
X-10386408Y1842694D01*
X-10199000Y2295139D01*
X-10199000Y2784861D01*
X-5041000Y2784861D01*
X-5041000Y2295139D01*
X-4853592Y1842694D01*
X-4507306Y1496408D01*
X-4054861Y1309000D01*
X-3565139Y1309000D01*
X-3112694Y1496408D01*
X-2766408Y1842694D01*
X-2579000Y2295139D01*
X-2579000Y2784861D01*
X-2766408Y3237306D01*
X-3112694Y3583592D01*
X-3565139Y3771000D01*
X-4054861Y3771000D01*
X-4507306Y3583592D01*
X-4853592Y3237306D01*
X-5041000Y2784861D01*
X-10199000Y2784861D01*
X-10386408Y3237306D01*
X-10732694Y3583592D01*
X-11185139Y3771000D01*
X-11674861Y3771000D01*
X-12127306Y3583592D01*
X-12244000Y3466898D01*
X-12244000Y4020541D01*
X-2706000Y4020541D01*
X-2706000Y3779459D01*
X-2613742Y3556729D01*
X-2443271Y3386258D01*
X-2241032Y3302488D01*
X-2429576Y3020312D01*
X-2525116Y2540000D01*
X-2429576Y2059688D01*
X-2157501Y1652499D01*
X-1750312Y1380424D01*
X-1391239Y1309000D01*
X-1148761Y1309000D01*
X-789688Y1380424D01*
X-382499Y1652499D01*
X-110424Y2059688D01*
X-14884Y2540000D01*
X14884Y2540000D01*
X110424Y2059688D01*
X382499Y1652499D01*
X789688Y1380424D01*
X1148761Y1309000D01*
X1391239Y1309000D01*
X1750312Y1380424D01*
X2157501Y1652499D01*
X2429576Y2059688D01*
X2525116Y2540000D01*
X2554884Y2540000D01*
X2650424Y2059688D01*
X2922499Y1652499D01*
X3329688Y1380424D01*
X3688761Y1309000D01*
X3931239Y1309000D01*
X4290312Y1380424D01*
X4697501Y1652499D01*
X4969576Y2059688D01*
X5065116Y2540000D01*
X4969576Y3020312D01*
X4697501Y3427501D01*
X4290312Y3699576D01*
X3931239Y3771000D01*
X3688761Y3771000D01*
X3329688Y3699576D01*
X2922499Y3427501D01*
X2650424Y3020312D01*
X2554884Y2540000D01*
X2525116Y2540000D01*
X2429576Y3020312D01*
X2157501Y3427501D01*
X1750312Y3699576D01*
X1391239Y3771000D01*
X1148761Y3771000D01*
X789688Y3699576D01*
X382499Y3427501D01*
X110424Y3020312D01*
X14884Y2540000D01*
X-14884Y2540000D01*
X-110424Y3020312D01*
X-382499Y3427501D01*
X-789688Y3699576D01*
X-1148761Y3771000D01*
X-1391239Y3771000D01*
X-1507045Y3747965D01*
X-1494000Y3779459D01*
X-1494000Y4020541D01*
X-1586258Y4243271D01*
X-1756729Y4413742D01*
X-1979459Y4506000D01*
X-2220541Y4506000D01*
X-2443271Y4413742D01*
X-2613742Y4243271D01*
X-2706000Y4020541D01*
X-12244000Y4020541D01*
X-12244000Y8320541D01*
X394000Y8320541D01*
X394000Y8079459D01*
X486258Y7856729D01*
X656729Y7686258D01*
X879459Y7594000D01*
X1120541Y7594000D01*
X1343271Y7686258D01*
X1513742Y7856729D01*
X1606000Y8079459D01*
X1606000Y8278126D01*
X4125881Y8278126D01*
X4327632Y7867237D01*
X4668322Y7579998D01*
X5093000Y7445000D01*
X5208273Y7445000D01*
X5286258Y7256729D01*
X5456729Y7086258D01*
X5679459Y6994000D01*
X5920541Y6994000D01*
X6077787Y7059133D01*
X6214244Y6922676D01*
X6464541Y6819000D01*
X6735459Y6819000D01*
X6985756Y6922676D01*
X7177324Y7114244D01*
X7281000Y7364541D01*
X7281000Y7635459D01*
X7192080Y7850132D01*
X7212368Y7867237D01*
X7414119Y8278126D01*
X7287954Y8453000D01*
X5897000Y8453000D01*
X5897000Y8433000D01*
X5643000Y8433000D01*
X5643000Y8453000D01*
X4252046Y8453000D01*
X4125881Y8278126D01*
X1606000Y8278126D01*
X1606000Y8320541D01*
X1513742Y8543271D01*
X1343271Y8713742D01*
X1120541Y8806000D01*
X879459Y8806000D01*
X656729Y8713742D01*
X486258Y8543271D01*
X394000Y8320541D01*
X-12244000Y8320541D01*
X-12244000Y8881874D01*
X4125881Y8881874D01*
X4252046Y8707000D01*
X5643000Y8707000D01*
X5643000Y8727000D01*
X5897000Y8727000D01*
X5897000Y8707000D01*
X7287954Y8707000D01*
X7414119Y8881874D01*
X8555881Y8881874D01*
X8682046Y8707000D01*
X9823000Y8707000D01*
X9823000Y9715000D01*
X9523000Y9715000D01*
X9098322Y9580002D01*
X8757632Y9292763D01*
X8555881Y8881874D01*
X7414119Y8881874D01*
X7212368Y9292763D01*
X6871678Y9580002D01*
X6869219Y9580784D01*
X6898518Y9610083D01*
X7006000Y9869568D01*
X7006000Y10150432D01*
X6898518Y10409917D01*
X6699917Y10608518D01*
X6644672Y10631401D01*
X6706000Y10779459D01*
X6706000Y11020541D01*
X6613742Y11243271D01*
X6443271Y11413742D01*
X6220541Y11506000D01*
X5979459Y11506000D01*
X5756729Y11413742D01*
X5586258Y11243271D01*
X5494000Y11020541D01*
X5494000Y10779459D01*
X5586258Y10556729D01*
X5717276Y10425711D01*
X5701482Y10409917D01*
X5594000Y10150432D01*
X5594000Y9869568D01*
X5658024Y9715000D01*
X5093000Y9715000D01*
X4668322Y9580002D01*
X4327632Y9292763D01*
X4125881Y8881874D01*
X-12244000Y8881874D01*
X-12244000Y9920541D01*
X-106000Y9920541D01*
X-106000Y9679459D01*
X-13742Y9456729D01*
X156729Y9286258D01*
X379459Y9194000D01*
X620541Y9194000D01*
X843271Y9286258D01*
X1013742Y9456729D01*
X1106000Y9679459D01*
X1106000Y9920541D01*
X1013742Y10143271D01*
X843271Y10313742D01*
X620541Y10406000D01*
X379459Y10406000D01*
X156729Y10313742D01*
X-13742Y10143271D01*
X-106000Y9920541D01*
X-12244000Y9920541D01*
X-12244000Y12920541D01*
X6194000Y12920541D01*
X6194000Y12679459D01*
X6286258Y12456729D01*
X6456729Y12286258D01*
X6679459Y12194000D01*
X6920541Y12194000D01*
X7143271Y12286258D01*
X7313742Y12456729D01*
X7406000Y12679459D01*
X7406000Y12920541D01*
X7313742Y13143271D01*
X7143271Y13313742D01*
X6920541Y13406000D01*
X6679459Y13406000D01*
X6456729Y13313742D01*
X6286258Y13143271D01*
X6194000Y12920541D01*
X-12244000Y12920541D01*
X-12244000Y14920541D01*
X-1706000Y14920541D01*
X-1706000Y14679459D01*
X-1613742Y14456729D01*
X-1443271Y14286258D01*
X-1220541Y14194000D01*
X-979459Y14194000D01*
X-915384Y14220541D01*
X7494000Y14220541D01*
X7494000Y13979459D01*
X7586258Y13756729D01*
X7756729Y13586258D01*
X7979459Y13494000D01*
X8220541Y13494000D01*
X8443271Y13586258D01*
X8613742Y13756729D01*
X8706000Y13979459D01*
X8706000Y14220541D01*
X8613742Y14443271D01*
X8443271Y14613742D01*
X8220541Y14706000D01*
X7979459Y14706000D01*
X7756729Y14613742D01*
X7586258Y14443271D01*
X7494000Y14220541D01*
X-915384Y14220541D01*
X-756729Y14286258D01*
X-586258Y14456729D01*
X-494000Y14679459D01*
X-494000Y14920541D01*
X-586258Y15143271D01*
X-756729Y15313742D01*
X-979459Y15406000D01*
X-1220541Y15406000D01*
X-1443271Y15313742D01*
X-1613742Y15143271D01*
X-1706000Y14920541D01*
X-12244000Y14920541D01*
X-12244000Y15890541D01*
X1404000Y15890541D01*
X1404000Y15649459D01*
X1496258Y15426729D01*
X1666729Y15256258D01*
X1889459Y15164000D01*
X2130541Y15164000D01*
X2353271Y15256258D01*
X2523742Y15426729D01*
X2616000Y15649459D01*
X2616000Y15890541D01*
X2523742Y16113271D01*
X2353271Y16283742D01*
X2130541Y16376000D01*
X1889459Y16376000D01*
X1666729Y16283742D01*
X1496258Y16113271D01*
X1404000Y15890541D01*
X-12244000Y15890541D01*
X-12244000Y17435459D01*
X-11181000Y17435459D01*
X-11181000Y17164541D01*
X-11077324Y16914244D01*
X-10885756Y16722676D01*
X-10635459Y16619000D01*
X-10364541Y16619000D01*
X-10114244Y16722676D01*
X-9922676Y16914244D01*
X-9921069Y16918126D01*
X4125881Y16918126D01*
X4327632Y16507237D01*
X4668322Y16219998D01*
X5093000Y16085000D01*
X5658024Y16085000D01*
X5594000Y15930432D01*
X5594000Y15649568D01*
X5701482Y15390083D01*
X5717276Y15374289D01*
X5586258Y15243271D01*
X5494000Y15020541D01*
X5494000Y14779459D01*
X5586258Y14556729D01*
X5756729Y14386258D01*
X5979459Y14294000D01*
X6220541Y14294000D01*
X6443271Y14386258D01*
X6613742Y14556729D01*
X6706000Y14779459D01*
X6706000Y15020541D01*
X6644672Y15168599D01*
X6699917Y15191482D01*
X6898518Y15390083D01*
X7006000Y15649568D01*
X7006000Y15930432D01*
X6898518Y16189917D01*
X6869219Y16219216D01*
X6871678Y16219998D01*
X7212368Y16507237D01*
X7414119Y16918126D01*
X8555881Y16918126D01*
X8757632Y16507237D01*
X9098322Y16219998D01*
X9523000Y16085000D01*
X9823000Y16085000D01*
X9823000Y17093000D01*
X10077000Y17093000D01*
X10077000Y16085000D01*
X10377000Y16085000D01*
X10801678Y16219998D01*
X11142368Y16507237D01*
X11344119Y16918126D01*
X11217954Y17093000D01*
X10077000Y17093000D01*
X9823000Y17093000D01*
X8682046Y17093000D01*
X8555881Y16918126D01*
X7414119Y16918126D01*
X7287954Y17093000D01*
X5897000Y17093000D01*
X5897000Y17073000D01*
X5643000Y17073000D01*
X5643000Y17093000D01*
X4252046Y17093000D01*
X4125881Y16918126D01*
X-9921069Y16918126D01*
X-9819000Y17164541D01*
X-9819000Y17435459D01*
X-9854794Y17521874D01*
X4125881Y17521874D01*
X4252046Y17347000D01*
X5643000Y17347000D01*
X5643000Y18355000D01*
X5897000Y18355000D01*
X5897000Y17347000D01*
X7287954Y17347000D01*
X7414119Y17521874D01*
X8555881Y17521874D01*
X8682046Y17347000D01*
X9823000Y17347000D01*
X9823000Y18355000D01*
X10077000Y18355000D01*
X10077000Y17347000D01*
X11217954Y17347000D01*
X11344119Y17521874D01*
X11142368Y17932763D01*
X10801678Y18220002D01*
X10377000Y18355000D01*
X10077000Y18355000D01*
X9823000Y18355000D01*
X9523000Y18355000D01*
X9098322Y18220002D01*
X8757632Y17932763D01*
X8555881Y17521874D01*
X7414119Y17521874D01*
X7212368Y17932763D01*
X6871678Y18220002D01*
X6447000Y18355000D01*
X5897000Y18355000D01*
X5643000Y18355000D01*
X5093000Y18355000D01*
X4668322Y18220002D01*
X4327632Y17932763D01*
X4125881Y17521874D01*
X-9854794Y17521874D01*
X-9922676Y17685756D01*
X-10114244Y17877324D01*
X-10364541Y17981000D01*
X-10635459Y17981000D01*
X-10885756Y17877324D01*
X-11077324Y17685756D01*
X-11181000Y17435459D01*
X-12244000Y17435459D01*
X-12244000Y18520541D01*
X-5706000Y18520541D01*
X-5706000Y18279459D01*
X-5613742Y18056729D01*
X-5443271Y17886258D01*
X-5220541Y17794000D01*
X-4979459Y17794000D01*
X-4756729Y17886258D01*
X-4586258Y18056729D01*
X-4494000Y18279459D01*
X-4494000Y18280541D01*
X894000Y18280541D01*
X894000Y18039459D01*
X986258Y17816729D01*
X1156729Y17646258D01*
X1379459Y17554000D01*
X1620541Y17554000D01*
X1843271Y17646258D01*
X2013742Y17816729D01*
X2106000Y18039459D01*
X2106000Y18280541D01*
X2013742Y18503271D01*
X1843271Y18673742D01*
X1620541Y18766000D01*
X1379459Y18766000D01*
X1156729Y18673742D01*
X986258Y18503271D01*
X894000Y18280541D01*
X-4494000Y18280541D01*
X-4494000Y18520541D01*
X-4586258Y18743271D01*
X-4756729Y18913742D01*
X-4979459Y19006000D01*
X-5220541Y19006000D01*
X-5443271Y18913742D01*
X-5613742Y18743271D01*
X-5706000Y18520541D01*
X-12244000Y18520541D01*
X-12244000Y20820541D01*
X7194000Y20820541D01*
X7194000Y20579459D01*
X7286258Y20356729D01*
X7456729Y20186258D01*
X7679459Y20094000D01*
X7920541Y20094000D01*
X8143271Y20186258D01*
X8313742Y20356729D01*
X8406000Y20579459D01*
X8406000Y20820541D01*
X8313742Y21043271D01*
X8143271Y21213742D01*
X7920541Y21306000D01*
X7679459Y21306000D01*
X7456729Y21213742D01*
X7286258Y21043271D01*
X7194000Y20820541D01*
X-12244000Y20820541D01*
X-12244000Y24435459D01*
X-11181000Y24435459D01*
X-11181000Y24164541D01*
X-11077324Y23914244D01*
X-10885756Y23722676D01*
X-10635459Y23619000D01*
X-10364541Y23619000D01*
X-10114244Y23722676D01*
X-9922676Y23914244D01*
X-9819000Y24164541D01*
X-9819000Y24435459D01*
X-9922676Y24685756D01*
X-10114244Y24877324D01*
X-10364541Y24981000D01*
X-10635459Y24981000D01*
X-10885756Y24877324D01*
X-11077324Y24685756D01*
X-11181000Y24435459D01*
X-12244000Y24435459D01*
X-12244000Y31145544D01*
X-11998154Y30899698D01*
X-11629509Y30747000D01*
X-11230491Y30747000D01*
X-10861846Y30899698D01*
X-10579698Y31181846D01*
X-10427000Y31550491D01*
X-10427000Y31949509D01*
X-10579698Y32318154D01*
X-10805544Y32544000D01*
X-8455999Y32544000D01*
X-8456000Y31357831D01*
G04 #@! TD*
M02*
