<?xml version="1.0" encoding="UTF-8" standalone="no"?>
<!-- Created with Inkscape (http://www.inkscape.org/) -->

<svg
   xmlns:dc="http://purl.org/dc/elements/1.1/"
   xmlns:cc="http://creativecommons.org/ns#"
   xmlns:rdf="http://www.w3.org/1999/02/22-rdf-syntax-ns#"
   xmlns:svg="http://www.w3.org/2000/svg"
   xmlns="http://www.w3.org/2000/svg"
   xmlns:sodipodi="http://sodipodi.sourceforge.net/DTD/sodipodi-0.dtd"
   xmlns:inkscape="http://www.inkscape.org/namespaces/inkscape"
   width="210mm"
   height="297mm"
   viewBox="0 0 210 297"
   version="1.1"
   id="svg8"
   inkscape:version="0.92.4 (5da689c313, 2019-01-14)"
   sodipodi:docname="driveroutline.svg">
  <defs
     id="defs2" />
  <sodipodi:namedview
     id="base"
     pagecolor="#ffffff"
     bordercolor="#666666"
     borderopacity="1.0"
     inkscape:pageopacity="0.0"
     inkscape:pageshadow="2"
     inkscape:zoom="5.6568543"
     inkscape:cx="4.7643758"
     inkscape:cy="1201.8798"
     inkscape:document-units="mm"
     inkscape:current-layer="layer5"
     showgrid="false"
     inkscape:snap-page="true"
     inkscape:snap-center="true"
     inkscape:snap-midpoints="true"
     inkscape:window-width="1364"
     inkscape:window-height="750"
     inkscape:window-x="0"
     inkscape:window-y="0"
     inkscape:window-maximized="0"
     inkscape:snap-intersection-paths="true"
     showguides="true"
     inkscape:guide-bbox="true"
     inkscape:snap-global="true" />
  <metadata
     id="metadata5">
    <rdf:RDF>
      <cc:Work
         rdf:about="">
        <dc:format>image/svg+xml</dc:format>
        <dc:type
           rdf:resource="http://purl.org/dc/dcmitype/StillImage" />
        <dc:title />
      </cc:Work>
    </rdf:RDF>
  </metadata>
  <g
     inkscape:label="scratch"
     inkscape:groupmode="layer"
     id="layer1"
     style="display:none"
     sodipodi:insensitive="true">
    <g
       id="g10937"
       transform="translate(0,-29.1)">
      <rect
         rx="1"
         y="-2"
         x="-10.16"
         height="22"
         width="20.32"
         id="rect815"
         style="opacity:1;vector-effect:none;fill:#71d65d;fill-opacity:0.24736843;stroke:none;stroke-width:0.4031873;stroke-linecap:square;stroke-linejoin:miter;stroke-miterlimit:4;stroke-dasharray:none;stroke-dashoffset:0;stroke-opacity:1;paint-order:normal" />
      <rect
         y="-0.10000001"
         x="-5.6500001"
         height="2.0999999"
         width="11.3"
         id="rect817"
         style="opacity:1;vector-effect:none;fill:#71d65d;fill-opacity:0.24736843;stroke:none;stroke-width:0.26274079;stroke-linecap:square;stroke-linejoin:miter;stroke-miterlimit:4;stroke-dasharray:none;stroke-dashoffset:0;stroke-opacity:1;paint-order:normal" />
      <rect
         style="opacity:1;vector-effect:none;fill:#71d65d;fill-opacity:0.24736843;stroke:none;stroke-width:0.26090753;stroke-linecap:square;stroke-linejoin:miter;stroke-miterlimit:4;stroke-dasharray:none;stroke-dashoffset:0;stroke-opacity:1;paint-order:normal"
         id="rect819"
         width="4.5"
         height="5.1999998"
         x="-2.25"
         y="-0.20000009" />
      <rect
         style="opacity:1;vector-effect:none;fill:#71d65d;fill-opacity:0.24736843;stroke:none;stroke-width:0.86297578;stroke-linecap:square;stroke-linejoin:miter;stroke-miterlimit:4;stroke-dasharray:none;stroke-dashoffset:0;stroke-opacity:1;paint-order:normal"
         id="rect821"
         width="16"
         height="16"
         x="-8"
         y="-16" />
    </g>
    <path
       style="opacity:1;vector-effect:none;fill:#7b7b7b;fill-opacity:0.54736843;stroke:none;stroke-width:0.39999998;stroke-linecap:round;stroke-linejoin:round;stroke-miterlimit:4;stroke-dasharray:none;stroke-dashoffset:0;stroke-opacity:1;paint-order:normal"
       d="m -16.51,-3.81 5.079999,5.08 h 22.860002 l 5.079998,-5.08 v -20.32 h -33.02 z"
       id="path10916"
       inkscape:connector-curvature="0" />
    <rect
       style="opacity:1;vector-effect:none;fill:#7b7b7b;fill-opacity:0.54736843;stroke:none;stroke-width:0.40000001;stroke-linecap:round;stroke-linejoin:round;stroke-miterlimit:4;stroke-dasharray:none;stroke-dashoffset:0;stroke-opacity:1;paint-order:normal"
       id="rect10941"
       width="2"
       height="2"
       x="-14.368407"
       y="6.9802642"
       inkscape:transform-center-x="-1.4142137"
       inkscape:transform-center-y="1.9641019e-06"
       transform="rotate(45.000057)" />
    <rect
       style="opacity:1;vector-effect:none;fill:#7b7b7b;fill-opacity:0.54736843;stroke:none;stroke-width:0.40000001;stroke-linecap:round;stroke-linejoin:round;stroke-miterlimit:4;stroke-dasharray:none;stroke-dashoffset:0;stroke-opacity:1;paint-order:normal"
       id="rect10941-3"
       width="2"
       height="2"
       x="-16.51"
       y="-5.8100095"
       inkscape:transform-center-x="-1"
       inkscape:transform-center-y="-1" />
    <rect
       transform="rotate(45.000057)"
       inkscape:transform-center-y="1.9641019e-06"
       inkscape:transform-center-x="-1.4142137"
       y="6.9802642"
       x="-13.539982"
       height="2"
       width="2"
       id="rect10960"
       style="opacity:1;vector-effect:none;fill:#7b7b7b;fill-opacity:0.54736843;stroke:none;stroke-width:0.40000001;stroke-linecap:round;stroke-linejoin:round;stroke-miterlimit:4;stroke-dasharray:none;stroke-dashoffset:0;stroke-opacity:1;paint-order:normal" />
    <rect
       inkscape:transform-center-y="-1"
       inkscape:transform-center-x="-1"
       y="-6.6384354"
       x="-16.51"
       height="2"
       width="2"
       id="rect10964"
       style="opacity:1;vector-effect:none;fill:#7b7b7b;fill-opacity:0.54736843;stroke:none;stroke-width:0.40000001;stroke-linecap:round;stroke-linejoin:round;stroke-miterlimit:4;stroke-dasharray:none;stroke-dashoffset:0;stroke-opacity:1;paint-order:normal" />
    <rect
       transform="matrix(-0.70710608,0.70710748,0.70710748,0.70710608,0,0)"
       inkscape:transform-center-y="1.9641019e-06"
       inkscape:transform-center-x="-1.4142137"
       y="6.9802694"
       x="-14.368401"
       height="2"
       width="2"
       id="rect10973"
       style="opacity:1;vector-effect:none;fill:#7b7b7b;fill-opacity:0.54736843;stroke:none;stroke-width:0.40000001;stroke-linecap:round;stroke-linejoin:round;stroke-miterlimit:4;stroke-dasharray:none;stroke-dashoffset:0;stroke-opacity:1;paint-order:normal" />
    <rect
       inkscape:transform-center-y="-1"
       inkscape:transform-center-x="-1"
       y="-5.8100009"
       x="-16.509998"
       height="2"
       width="2"
       id="rect10975"
       style="opacity:1;vector-effect:none;fill:#7b7b7b;fill-opacity:0.54736843;stroke:none;stroke-width:0.40000001;stroke-linecap:round;stroke-linejoin:round;stroke-miterlimit:4;stroke-dasharray:none;stroke-dashoffset:0;stroke-opacity:1;paint-order:normal"
       transform="scale(-1,1)" />
    <rect
       style="opacity:1;vector-effect:none;fill:#7b7b7b;fill-opacity:0.54736843;stroke:none;stroke-width:0.40000001;stroke-linecap:round;stroke-linejoin:round;stroke-miterlimit:4;stroke-dasharray:none;stroke-dashoffset:0;stroke-opacity:1;paint-order:normal"
       id="rect10979"
       width="2"
       height="2"
       x="-13.539975"
       y="6.9802694"
       inkscape:transform-center-x="-1.4142137"
       inkscape:transform-center-y="1.9641019e-06"
       transform="matrix(-0.70710608,0.70710748,0.70710748,0.70710608,0,0)" />
    <rect
       style="opacity:1;vector-effect:none;fill:#7b7b7b;fill-opacity:0.54736843;stroke:none;stroke-width:0.40000001;stroke-linecap:round;stroke-linejoin:round;stroke-miterlimit:4;stroke-dasharray:none;stroke-dashoffset:0;stroke-opacity:1;paint-order:normal"
       id="rect10981"
       width="2"
       height="2"
       x="-16.509998"
       y="-6.6384268"
       inkscape:transform-center-x="-1"
       inkscape:transform-center-y="-1"
       transform="scale(-1,1)" />
    <rect
       style="opacity:1;vector-effect:none;fill:#7b7b7b;fill-opacity:0.54736843;stroke:none;stroke-width:0.40000001;stroke-linecap:round;stroke-linejoin:round;stroke-miterlimit:4;stroke-dasharray:none;stroke-dashoffset:0;stroke-opacity:1;paint-order:normal"
       id="rect10985"
       width="2"
       height="2"
       x="7.1842146"
       y="6.9802499"
       inkscape:transform-center-x="-1.4142137"
       inkscape:transform-center-y="1.9641019e-06"
       transform="matrix(-0.70710748,-0.70710608,-0.70710608,0.70710748,0,0)" />
    <rect
       style="opacity:1;vector-effect:none;fill:#7b7b7b;fill-opacity:0.54736843;stroke:none;stroke-width:0.40000001;stroke-linecap:round;stroke-linejoin:round;stroke-miterlimit:4;stroke-dasharray:none;stroke-dashoffset:0;stroke-opacity:1;paint-order:normal"
       id="rect10987"
       width="2"
       height="2"
       x="-1.2700002"
       y="9.4300003"
       inkscape:transform-center-x="-1"
       inkscape:transform-center-y="-1"
       transform="matrix(0,-1,-1,0,0,0)" />
    <rect
       transform="matrix(-0.70710748,-0.70710608,-0.70710608,0.70710748,0,0)"
       inkscape:transform-center-y="1.9641019e-06"
       inkscape:transform-center-x="-1.4142137"
       y="6.9802499"
       x="8.01264"
       height="2"
       width="2"
       id="rect10991"
       style="opacity:1;vector-effect:none;fill:#7b7b7b;fill-opacity:0.54736843;stroke:none;stroke-width:0.40000001;stroke-linecap:round;stroke-linejoin:round;stroke-miterlimit:4;stroke-dasharray:none;stroke-dashoffset:0;stroke-opacity:1;paint-order:normal" />
    <rect
       inkscape:transform-center-y="-1"
       inkscape:transform-center-x="-1"
       y="8.6015749"
       x="-1.2700002"
       height="2"
       width="2"
       id="rect10993"
       style="opacity:1;vector-effect:none;fill:#7b7b7b;fill-opacity:0.54736843;stroke:none;stroke-width:0.40000001;stroke-linecap:round;stroke-linejoin:round;stroke-miterlimit:4;stroke-dasharray:none;stroke-dashoffset:0;stroke-opacity:1;paint-order:normal"
       transform="matrix(0,-1,-1,0,0,0)" />
    <rect
       transform="rotate(-44.999943)"
       inkscape:transform-center-y="1.9641019e-06"
       inkscape:transform-center-x="-1.4142137"
       y="6.9802494"
       x="7.1842146"
       height="2"
       width="2"
       id="rect10997"
       style="opacity:1;vector-effect:none;fill:#7b7b7b;fill-opacity:0.54736843;stroke:none;stroke-width:0.40000001;stroke-linecap:round;stroke-linejoin:round;stroke-miterlimit:4;stroke-dasharray:none;stroke-dashoffset:0;stroke-opacity:1;paint-order:normal" />
    <rect
       inkscape:transform-center-y="-1"
       inkscape:transform-center-x="-1"
       y="9.4300003"
       x="-1.2699997"
       height="2"
       width="2"
       id="rect10999"
       style="opacity:1;vector-effect:none;fill:#7b7b7b;fill-opacity:0.54736843;stroke:none;stroke-width:0.40000001;stroke-linecap:round;stroke-linejoin:round;stroke-miterlimit:4;stroke-dasharray:none;stroke-dashoffset:0;stroke-opacity:1;paint-order:normal"
       transform="rotate(-90)" />
    <rect
       style="opacity:1;vector-effect:none;fill:#7b7b7b;fill-opacity:0.54736843;stroke:none;stroke-width:0.40000001;stroke-linecap:round;stroke-linejoin:round;stroke-miterlimit:4;stroke-dasharray:none;stroke-dashoffset:0;stroke-opacity:1;paint-order:normal"
       id="rect11003"
       width="2"
       height="2"
       x="8.01264"
       y="6.9802494"
       inkscape:transform-center-x="-1.4142137"
       inkscape:transform-center-y="1.9641019e-06"
       transform="rotate(-44.999943)" />
    <rect
       style="opacity:1;vector-effect:none;fill:#7b7b7b;fill-opacity:0.54736843;stroke:none;stroke-width:0.40000001;stroke-linecap:round;stroke-linejoin:round;stroke-miterlimit:4;stroke-dasharray:none;stroke-dashoffset:0;stroke-opacity:1;paint-order:normal"
       id="rect11005"
       width="2"
       height="2"
       x="-1.2699997"
       y="8.6015739"
       inkscape:transform-center-x="-1"
       inkscape:transform-center-y="-1"
       transform="rotate(-90)" />
    <rect
       style="opacity:1;vector-effect:none;fill:#7b7b7b;fill-opacity:0.54736843;stroke:none;stroke-width:0.40000001;stroke-linecap:round;stroke-linejoin:round;stroke-miterlimit:4;stroke-dasharray:none;stroke-dashoffset:0;stroke-opacity:1;paint-order:normal"
       id="rect11009"
       width="8.5099993"
       height="20.969999"
       x="8"
       y="-45.099998" />
    <rect
       style="opacity:1;vector-effect:none;fill:#7b7b7b;fill-opacity:0.54736843;stroke:none;stroke-width:0.40000001;stroke-linecap:round;stroke-linejoin:round;stroke-miterlimit:4;stroke-dasharray:none;stroke-dashoffset:0;stroke-opacity:1;paint-order:normal"
       id="rect11011"
       width="8.5100012"
       height="20.969999"
       x="-16.510002"
       y="-45.099998" />
    <rect
       y="-41.099998"
       x="-19.702009"
       height="4.8667412"
       width="7.1920066"
       id="rect11031"
       style="opacity:1;vector-effect:none;fill:#7b7b7b;fill-opacity:0.54736843;stroke:none;stroke-width:0.40000001;stroke-linecap:round;stroke-linejoin:round;stroke-miterlimit:4;stroke-dasharray:none;stroke-dashoffset:0;stroke-opacity:1;paint-order:normal" />
    <rect
       style="opacity:1;vector-effect:none;fill:#7b7b7b;fill-opacity:0.54736843;stroke:none;stroke-width:0.40000001;stroke-linecap:round;stroke-linejoin:round;stroke-miterlimit:4;stroke-dasharray:none;stroke-dashoffset:0;stroke-opacity:1;paint-order:normal"
       id="rect11033"
       width="7.1920066"
       height="4.8667412"
       x="12.509999"
       y="-41.099998" />
    <path
       style="opacity:1;vector-effect:none;fill:none;fill-opacity:0.54736843;stroke:#000000;stroke-width:0.1;stroke-linecap:round;stroke-linejoin:round;stroke-miterlimit:4;stroke-dasharray:none;stroke-dashoffset:0;stroke-opacity:1;paint-order:normal"
       d="m -16.510213,-41.099999 3.999751,-4 h 4.5104622 v 16 H -5.65 V -27.1 h 11.3 v -1.999999 h 2.3499998 v -16 h 4.5102492 l 3.999751,4 -2e-6,36.4615722 -0.585784,1.4142122 -3.908428,3.9084296 -1.414212,0.5857847 -21.20336,4e-7 -1.414212,-0.58578467 -3.908428,-3.90843843 -0.585785,-1.4142122 z"
       id="path11037"
       inkscape:connector-curvature="0"
       sodipodi:nodetypes="ccccccccccccccccccccc" />
  </g>
  <g
     inkscape:groupmode="layer"
     id="layer5"
     inkscape:label="edges-off"
     style="display:inline"
     sodipodi:insensitive="true">
    <path
       style="opacity:1;vector-effect:none;fill:none;fill-opacity:0.54736843;stroke:#000000;stroke-width:0.75590551;stroke-linecap:round;stroke-linejoin:round;stroke-miterlimit:4;stroke-dasharray:none;stroke-dashoffset:0;stroke-opacity:1;paint-order:normal"
       d="m -40.03125,-140.22176 c -2.001146,0.002 -3.920104,0.7967 -5.335938,2.21094 l -0.0098,0.004 -14.771485,14.77148 -0.0039,0.01 c -1.414208,1.41587 -2.209335,3.33475 -2.210937,5.33593 v 100.35848 c 0.0016,2.00118 0.796729,3.920066 2.210937,5.335938 l 0.0039,0.0098 14.771485,14.7714845 0.0098,0.00391 c 1.415834,1.4142385 3.334792,2.2093274 5.335938,2.2109374 h 80.060547 c 2.00115,-0.002 3.920107,-0.7966989 5.335937,-2.2109374 l 0.0098,-0.00391 14.771484,-14.7714845 0.0039,-0.0098 c 1.414208,-1.415872 2.209338,-3.334758 2.210937,-5.335938 v -100.35848 c -0.0016,-2.00118 -0.796729,-3.92006 -2.210937,-5.33593 l -0.0039,-0.01 -14.771484,-14.77148 -0.0098,-0.004 c -1.41583,-1.41424 -3.334787,-2.20894 -5.335937,-2.21094 h -9.794922 v 22.67879 h -8.882813 v 7.55859 H 8.5039062 v 11.339849 H -8.5039062 V -109.98438 H -21.353516 v -7.55859 h -8.882812 v -22.67879 z"
       transform="scale(0.26458333)"
       id="path1321"
       inkscape:connector-curvature="0" />
  </g>
  <g
     inkscape:label="back_silk"
     id="g15907"
     inkscape:groupmode="layer"
     style="display:inline"
     sodipodi:insensitive="true">
    <path
       style="display:inline;opacity:1;vector-effect:none;fill:#0de720;fill-opacity:1;stroke:none;stroke-width:2.05039549;stroke-linecap:round;stroke-linejoin:round;stroke-miterlimit:4;stroke-dasharray:none;stroke-dashoffset:0;stroke-opacity:1;paint-order:normal"
       d="m -40.03125,-139.4668 c -1.801504,0.002 -3.524436,0.72118 -4.798828,1.99414 -0.05269,0.0501 -0.112953,0.0917 -0.177734,0.125 l 0.05859,-0.0215 -14.548828,14.55664 0.04492,-0.125 c -0.0378,0.091 -0.0926,0.17234 -0.162109,0.24219 -1.27301,1.27448 -1.992701,3.0053 -1.994141,4.80664 v 100.35742 c 0.0014,1.801335 0.721147,3.530196 1.994141,4.804688 0.05597,0.05614 0.102766,0.120729 0.138672,0.191406 l -0.02148,-0.07227 4.273438,4.2753908 c -0.179074,-0.4690561 -0.271699,-0.9666727 -0.273438,-1.46875 6.8e-4,-2.2959148 1.862288,-4.1566488 4.158203,-4.1562498 2.295152,6.79e-4 4.15557,1.861098 4.15625,4.1562498 3.97e-4,2.2959144 -1.860334,4.1575239 -4.15625,4.1582031 -0.50118,-6.985e-4 -0.998105,-0.092011 -1.466797,-0.2695313 l 4.302735,4.3046875 c -0.166262,-0.4536648 -0.252206,-0.9328422 -0.253906,-1.4160156 6.72e-4,-2.2951521 1.861097,-4.1555708 4.15625,-4.15625 2.295911,-3.991e-4 4.157526,1.8603352 4.158203,4.15625 4e-4,2.29667732 -1.861528,4.1586024 -4.158203,4.1582031 -0.4824,-0.00131 -0.960898,-0.086566 -1.414063,-0.2519531 L -44.949219,1.9492188 -45,1.9257812 c 0.06232,0.034122 0.119541,0.07686 0.169922,0.1269532 1.274453,1.2730192 2.997517,1.990738 4.798828,1.9921875 h 5.490234 C -36.422729,3.6078324 -37.755615,1.9319435 -37.757812,0 c -4e-4,-2.2966775 1.861525,-4.1586026 4.158203,-4.1582031 2.295914,6.792e-4 4.156649,1.8622883 4.15625,4.1582031 -0.002,1.9313641 -1.333777,3.6070195 -3.214844,4.0449219 h 7.716797 C -26.823249,3.6077958 -28.156,1.9319438 -28.158203,0 -28.158602,-2.2966775 -26.296678,-4.1586026 -24,-4.1582031 c 2.296678,-3.995e-4 4.158602,1.8615256 4.158203,4.1582031 -0.0016,1.9302054 -1.331423,3.605468 -3.210937,4.0449219 h 7.71289 C -17.221687,3.6077958 -18.554438,1.9319438 -18.556641,0 c -3.98e-4,-2.2959148 1.860336,-4.1575239 4.15625,-4.1582031 2.296678,-3.995e-4 4.158603,1.8615256 4.158203,4.1582031 -0.0016,1.9302054 -1.331422,3.605468 -3.210937,4.0449219 h 7.7128906 C -7.6220774,3.6077957 -8.9548293,1.9319437 -8.9570312,0 c -3.995e-4,-2.2959148 1.8603351,-4.1575239 4.15625,-4.1582031 C -2.5041042,-4.1586026 -0.64217886,-2.2966775 -0.64257812,0 -0.6441447,1.9302056 -1.9740007,3.6054682 -3.8535156,4.0449219 H 3.859375 C 1.9775322,3.6077957 0.6447808,1.9319438 0.64257812,0 0.64217886,-2.2966775 2.5041042,-4.1586026 4.8007812,-4.1582031 7.0966961,-4.1575239 8.9574307,-2.2959148 8.9570312,0 8.955041,1.931364 7.6232542,3.6070194 5.7421875,4.0449219 H 13.458984 C 11.577142,3.6077954 10.244386,1.9319435 10.242188,0 c -4e-4,-2.2966775 1.861525,-4.1586026 4.158203,-4.1582031 2.295914,6.792e-4 4.156648,1.8622883 4.15625,4.1582031 -0.002,1.9313641 -1.333777,3.6070195 -3.214844,4.0449219 h 7.716797 C 21.176751,3.6077958 19.844,1.9319438 19.841797,0 19.841398,-2.2966775 21.703322,-4.1586026 24,-4.1582031 26.296678,-4.1586026 28.158602,-2.2966775 28.158203,0 c -0.0016,1.9302054 -1.331422,3.605468 -3.210937,4.0449219 h 7.71289 C 30.778313,3.6077958 29.445562,1.9319438 29.443359,0 29.44296,-2.2959148 31.303695,-4.1575239 33.599609,-4.1582031 35.896287,-4.1586026 37.758212,-2.2966775 37.757812,0 37.756251,1.9302054 36.42639,3.605468 34.546875,4.0449219 h 5.484375 c 1.801508,-0.0018 3.524303,-0.7192352 4.798828,-1.9921875 0.048,-0.049513 0.102544,-0.092227 0.16211,-0.1269532 l -0.04297,0.023438 14.55664,-14.5644532 -0.02344,0.06641 c 0.03515,-0.06545 0.08005,-0.12535 0.132812,-0.177734 1.272994,-1.27449 1.992701,-3.003351 1.994141,-4.804688 V -117.88867 c -0.0018,-1.80153 -0.721192,-3.53219 -1.994141,-4.80664 -0.05276,-0.0522 -0.09728,-0.11051 -0.132812,-0.17578 l 0.02344,0.0586 -14.55664,-14.55664 0.05859,0.0215 c -0.06478,-0.0333 -0.125047,-0.0749 -0.177734,-0.125 -1.274407,-1.27294 -2.99732,-1.99233 -4.798828,-1.99414 h -9.042969 l 0.002,44.60157 c -6.7e-5,0.417422 -0.338438,0.755791 -0.755859,0.755859 H 6.8027344 v -3.777344 H -6.8027344 v 3.777344 H -30.236328 c -0.417422,-6.4e-5 -0.755793,-0.338456 -0.75586,-0.755859 l 0.0039,-44.60157 z m 2.236328,4.34961 c 1.565017,3.7e-4 2.833622,1.26897 2.833984,2.83399 -3.67e-4,1.56501 -1.268971,2.83361 -2.833984,2.83398 -1.565776,7.1e-4 -2.835569,-1.2682 -2.835937,-2.83398 3.62e-4,-1.56578 1.270157,-2.8347 2.835937,-2.83399 z m 75.589844,0 c 1.56578,-7.1e-4 2.835575,1.26821 2.835937,2.83399 -3.68e-4,1.56578 -1.270161,2.83469 -2.835937,2.83398 -1.565013,-3.7e-4 -2.833617,-1.26897 -2.833984,-2.83398 3.62e-4,-1.56502 1.268967,-2.83362 2.833984,-2.83399 z m -71.542969,45.542971 h 91.570313 v 3.019531 h 1.517578 v 67.283204 h -1.517578 v 3.019531 h -91.570313 v -3.019531 h -25.589844 v -67.283204 h 25.589844 z m 19.347656,75.816407 c 2.296678,-4.01e-4 4.158603,1.861525 4.158203,4.1582026 -6.7e-4,2.2959149 -1.862288,4.1566491 -4.158203,4.15625 -2.295152,-6.792e-4 -4.15557,-1.8610975 -4.15625,-4.15625 -3.98e-4,-2.2959146 1.860336,-4.1575326 4.15625,-4.1582026 z m 9.5996098,0 c 2.2966759,-4.01e-4 4.15860219,1.861525 4.15820308,4.1582026 -6.7919e-4,2.2959149 -1.86228918,4.1566491 -4.15820308,4.15625 -2.2951522,-6.792e-4 -4.1555716,-1.8610975 -4.15625,-4.15625 -3.992e-4,-2.2959146 1.8603347,-4.1575326 4.15625,-4.1582026 z m 9.6015624,0 c 2.2959149,6.7e-4 4.1566492,1.862288 4.15625,4.1582026 -6.776e-4,2.2951525 -1.8610982,4.1555708 -4.15625,4.15625 -2.2959141,3.991e-4 -4.15752314,-1.8603351 -4.15820308,-4.15625 -3.9911e-4,-2.2966756 1.86152698,-4.1586036 4.15820308,-4.1582026 z m 9.5996098,0 c 2.295914,6.7e-4 4.156648,1.862288 4.15625,4.1582026 -6.81e-4,2.2951525 -1.861099,4.1555708 -4.15625,4.15625 -2.295916,3.991e-4 -4.157532,-1.8603351 -4.158203,-4.15625 -4.01e-4,-2.2966776 1.861525,-4.1586036 4.158203,-4.1582026 z m 30.953125,3.363281 c 1.56654,-7.14e-4 2.836651,1.2693968 2.835937,2.8359372 -3.65e-4,1.5657777 -1.270159,2.8346977 -2.835937,2.8339844 -1.565015,-3.647e-4 -2.83362,-1.268969 -2.833985,-2.8339844 -7.13e-4,-1.5657779 1.268207,-2.8355722 2.833985,-2.8359372 z"
       transform="scale(0.26458333)"
       id="path859"
       inkscape:connector-curvature="0"
       sodipodi:nodetypes="ccccccccccccccccccccccccccccccccccccccccccccccccccccccccccccccccccccccccccccccccccccccccccccccccccccccccccccccccccccccccccccccccccccccccccccccc" />
  </g>
  <g
     inkscape:groupmode="layer"
     id="layer6"
     inkscape:label="front_silk"
     style="display:inline"
     sodipodi:insensitive="true">
    <path
       style="opacity:1;vector-effect:none;fill:#efb9b9;fill-opacity:0.69473685;stroke:none;stroke-width:2.05039549;stroke-linecap:round;stroke-linejoin:round;stroke-miterlimit:4;stroke-dasharray:none;stroke-dashoffset:0;stroke-opacity:1;paint-order:normal"
       d="m -40.03125,-139.4668 c -1.801504,0.002 -3.524436,0.72118 -4.798828,1.99414 -0.05269,0.0501 -0.112954,0.0917 -0.177734,0.125 l 0.05859,-0.0215 -14.548828,14.55664 0.04492,-0.125 c -0.0378,0.091 -0.0926,0.17234 -0.162109,0.24219 -1.27301,1.27448 -1.992743,3.0053 -1.994141,4.80664 v 100.35742 c 0.0014,1.801335 0.721147,3.530196 1.994141,4.804688 0.05597,0.05614 0.102766,0.120729 0.138672,0.191406 l -0.02148,-0.07227 4.273438,4.2753908 c -0.179074,-0.4690561 -0.271699,-0.9666728 -0.273438,-1.46875 6.8e-4,-2.2959148 1.862288,-4.1566488 4.158203,-4.1562498 2.295152,6.79e-4 4.15557,1.861098 4.15625,4.1562498 3.97e-4,2.2959139 -1.860334,4.1575239 -4.15625,4.1582031 -0.50118,-6.985e-4 -0.998105,-0.092011 -1.466797,-0.2695313 l 4.302735,4.3046875 c -0.166262,-0.4536648 -0.252207,-0.9328422 -0.253906,-1.4160156 6.71e-4,-2.2951521 1.861097,-4.1555708 4.15625,-4.15625 2.295907,-3.991e-4 4.157526,1.8603352 4.158203,4.15625 4e-4,2.29667721 -1.861533,4.1586024 -4.158203,4.1582031 -0.4824,-0.00131 -0.960898,-0.086566 -1.414063,-0.2519531 L -44.949219,1.9492188 -45,1.9257812 c 0.06232,0.034122 0.119541,0.07686 0.169922,0.1269532 1.274453,1.2730192 2.997517,1.990738 4.798828,1.9921875 h 5.490234 C -36.422729,3.6078249 -37.755618,1.9319435 -37.757812,0 c -4e-4,-2.2966775 1.861525,-4.1586026 4.158203,-4.1582031 2.295914,6.792e-4 4.156649,1.8622883 4.15625,4.1582031 -0.002,1.9313641 -1.333777,3.6070195 -3.214844,4.0449219 h 7.716797 C -26.823249,3.6077958 -28.156,1.9319438 -28.158203,0 -28.158602,-2.2966775 -26.296678,-4.1586026 -24,-4.1582031 c 2.296678,-3.995e-4 4.158602,1.8615256 4.158203,4.1582031 -0.0016,1.9302054 -1.331423,3.605468 -3.210937,4.0449219 h 7.71289 C -17.221687,3.6077958 -18.554438,1.9319438 -18.556641,0 c -3.98e-4,-2.2959148 1.860336,-4.1575239 4.15625,-4.1582031 2.296678,-3.995e-4 4.158603,1.8615256 4.158203,4.1582031 -0.0016,1.9302054 -1.331422,3.605468 -3.210937,4.0449219 h 7.7128906 C -7.6220774,3.6077957 -8.9548294,1.9319437 -8.9570312,0 c -3.995e-4,-2.2959148 1.8603351,-4.1575239 4.15625,-4.1582031 C -2.5041045,-4.1586026 -0.64217887,-2.2966775 -0.64257812,0 -0.6441447,1.9302056 -1.9740007,3.6054682 -3.8535156,4.0449219 H 3.859375 C 1.9775322,3.6077957 0.6447808,1.9319438 0.64257812,0 0.64217887,-2.2966775 2.5041045,-4.1586026 4.8007812,-4.1582031 7.0966961,-4.1575239 8.9574307,-2.2959148 8.9570312,0 8.9550411,1.931364 7.6232542,3.6070194 5.7421875,4.0449219 H 13.458984 C 11.577142,3.6077954 10.244382,1.9319435 10.242188,0 c -4e-4,-2.2966775 1.861525,-4.1586026 4.158203,-4.1582031 2.295914,6.792e-4 4.156648,1.8622883 4.15625,4.1582031 -0.002,1.9313641 -1.333777,3.6070195 -3.214844,4.0449219 h 7.716797 C 21.176751,3.6077958 19.844,1.9319438 19.841797,0 19.841398,-2.2966775 21.703322,-4.1586026 24,-4.1582031 26.296678,-4.1586026 28.158602,-2.2966775 28.158203,0 c -0.0016,1.9302054 -1.331422,3.605468 -3.210937,4.0449219 h 7.71289 C 30.778313,3.6077958 29.445562,1.9319438 29.443359,0 29.44296,-2.2959148 31.303695,-4.1575239 33.599609,-4.1582031 35.896287,-4.1586026 37.758212,-2.2966775 37.757812,0 37.756254,1.9302054 36.42639,3.605468 34.546875,4.0449219 h 5.484375 c 1.801508,-0.0018 3.524303,-0.7192352 4.798828,-1.9921875 0.048,-0.049513 0.102544,-0.092227 0.16211,-0.1269532 l -0.04297,0.023438 14.55664,-14.5644532 -0.02344,0.06641 c 0.03515,-0.06545 0.08005,-0.125355 0.132812,-0.177734 0.338533,-0.338937 0.596342,-0.680151 0.853516,-1.076172 h -6.802734 c -0.418024,0.0024 -0.758099,-0.333913 -0.759766,-0.751954 v -2.613281 l -0.02344,-0.0293 H 44.59375 c -0.418023,0.0024 -0.758095,-0.335868 -0.759766,-0.753906 v -24.583984 c 0.0017,-0.418054 0.341743,-0.754365 0.759766,-0.751953 h 8.289062 l 0.02344,-0.0293 v -2.607422 c 0.0017,-0.418046 0.341742,-0.754365 0.759766,-0.751953 h 7.943359 v -71.212887 c -0.0018,-1.80153 -0.721188,-3.53219 -1.994141,-4.80664 -0.0528,-0.0522 -0.09728,-0.11051 -0.132812,-0.17578 l 0.02344,0.0586 -14.55664,-14.55664 0.05859,0.0215 c -0.06478,-0.0333 -0.125047,-0.0749 -0.177734,-0.125 -1.274411,-1.27294 -2.997316,-1.99233 -4.798828,-1.99414 h -9.042969 l 0.002,44.601564 c -6.7e-5,0.417422 -0.338438,0.755791 -0.755859,0.755859 H 6.8027344 v -3.777344 H -6.8027344 v 3.777344 H -30.236328 c -0.417422,-6.8e-5 -0.755793,-0.338456 -0.75586,-0.755859 l 0.0039,-44.601564 z m 2.236328,4.34961 c 1.565017,3.7e-4 2.833622,1.26897 2.833984,2.83399 -3.67e-4,1.56501 -1.268971,2.83361 -2.833984,2.83398 -1.565776,7.1e-4 -2.835569,-1.2682 -2.835937,-2.83398 3.62e-4,-1.56578 1.270157,-2.8347 2.835937,-2.83399 z m 75.589844,0 c 1.56578,-7.1e-4 2.835575,1.26821 2.835937,2.83399 -3.68e-4,1.56578 -1.270161,2.83469 -2.835937,2.83398 -1.565013,-3.7e-4 -2.833617,-1.26897 -2.833984,-2.83398 3.62e-4,-1.56502 1.268967,-2.83362 2.833984,-2.83399 z M 11.78125,-84.283203 h 18.011719 c 0.454574,0 0.820312,0.365752 0.820312,0.820312 v 18.011719 c 0,0.454575 -0.365737,0.822266 -0.820312,0.822266 H 11.78125 c -0.454575,0 -0.820313,-0.367706 -0.820312,-0.822266 v -18.011719 c 0,-0.454575 0.365736,-0.820312 0.820312,-0.820312 z m -44.007812,1.132812 h 3.982421 c 0.418772,0 0.75586,0.337096 0.75586,0.75586 v 66.521484 c 0,0.418772 -0.337088,0.75586 -0.75586,0.755859 h -3.982421 c -0.418773,0 -0.75586,-0.337088 -0.75586,-0.755859 v -66.521484 c 0,-0.418772 0.337088,-0.75586 0.75586,-0.75586 z m 37.7929682,0 h 3.9824219 c 0.4187717,0 0.7558599,0.337088 0.7558599,0.75586 v 55.18164 c 0,0.418772 -0.3370882,0.75586 -0.7558599,0.75586 H 5.5664062 c -0.4187715,0 -0.7558593,-0.337088 -0.7558593,-0.75586 v -55.18164 c 0,-0.418772 0.3370878,-0.75586 0.7558593,-0.75586 z m 30.2363278,0 h 3.982422 c 0.418772,0 0.75586,0.337088 0.75586,0.75586 v 43.84375 c 0,0.418771 -0.337088,0.755859 -0.75586,0.755859 h -3.982422 c -0.418771,0 -0.755859,-0.337086 -0.755859,-0.755859 v -43.84375 c 0,-0.418772 0.337088,-0.75586 0.755859,-0.75586 z m -58.861328,0.373047 H 0.38476562 c 0.41742203,6.5e-5 0.75579258,0.338456 0.75585938,0.75586 v 23.80664 c -6.68e-5,0.417423 -0.33843743,0.755792 -0.75585938,0.75586 H -3.2109375 v 7.195312 c -0.00114,0.415899 -0.3380083,0.752769 -0.7539063,0.753906 H -18.712891 c -0.415898,-0.0011 -0.752766,-0.338003 -0.753906,-0.753906 v -7.195312 h -3.591797 c -0.417422,-6.8e-5 -0.755792,-0.338456 -0.755859,-0.75586 v -23.80664 c 6.7e-5,-0.417423 0.338438,-0.755795 0.755859,-0.75586 z m 38.357422,22.304688 h 3.402344 c 0.41877,0 0.755859,0.337087 0.755859,0.755859 v 1.511719 h 2.082031 c 0.837545,0 1.513672,0.674176 1.513672,1.511719 V -48.375 c 0,0.418764 -0.33904,0.755859 -0.757812,0.755859 h -3.400391 c -0.41877,0 -0.755859,-0.337087 -0.755859,-0.755859 v -1.511719 H 15.871094 V -48.375 c 0,0.418764 -0.337088,0.755859 -0.75586,0.755859 h -3.402343 c -0.418772,0 -0.75586,-0.337087 -0.75586,-0.755859 v -8.318359 c 0,-0.837543 0.674175,-1.511719 1.511719,-1.511719 h 2.074219 v -1.511719 c 0,-0.418764 0.337087,-0.755859 0.755859,-0.755859 z m 9.544922,0 h 3.980469 c 0.418771,0 0.757812,0.337087 0.757812,0.755859 v 9.826172 c 0,0.418772 -0.339041,0.755859 -0.757812,0.755859 H 24.84375 c -0.418772,0 -0.755859,-0.337087 -0.755859,-0.755859 v -9.826172 c 0,-0.418772 0.337087,-0.755859 0.755859,-0.755859 z m -48.464844,12.74414 H 0.94921875 c 0.41742205,6.5e-5 0.75579255,0.33846 0.75585935,0.75586 v 28.166015 c -6.68e-5,0.417422 -0.3384374,0.755792 -0.75585935,0.75586 H -23.621094 c -0.417422,-6.8e-5 -0.755792,-0.338437 -0.755859,-0.75586 v -28.166015 c 6.7e-5,-0.417419 0.338438,-0.755795 0.755859,-0.75586 z m 38.919922,8.419922 h 3.402344 c 0.41877,0 0.755859,0.337088 0.755859,0.75586 v 1.513672 h 2.082031 c 0.837545,0 1.513672,0.674174 1.513672,1.511718 v 8.314453 c 0,0.418772 -0.33904,0.75586 -0.757812,0.75586 h -3.400391 c -0.41877,0 -0.755859,-0.337088 -0.755859,-0.75586 v -1.511718 h -2.267578 v 1.511718 c 0,0.418772 -0.337088,0.75586 -0.75586,0.75586 h -3.402343 c -0.418772,0 -0.75586,-0.337088 -0.75586,-0.75586 v -8.314453 c 0,-0.837544 0.674175,-1.511719 1.511719,-1.511718 h 2.074219 v -1.513672 c 0,-0.418764 0.337087,-0.75586 0.755859,-0.75586 z m 7.220703,25.509766 h 4.984375 v 1.474609 h -3.384765 v 1.203125 c 0.152779,-0.04167 0.306206,-0.07291 0.458984,-0.09375 0.156249,-0.0243 0.317711,-0.03711 0.484375,-0.03711 0.947917,0 1.685112,0.237195 2.212891,0.712891 0.527777,0.472215 0.791015,1.1332468 0.791015,1.9804682 0,0.8402778 -0.286892,1.4969619 -0.863281,1.9726563 -0.572917,0.4756944 -1.369791,0.7148437 -2.390625,0.7148437 -0.440972,0 -0.878472,-0.044055 -1.3125,-0.1308593 -0.430555,-0.083324 -0.860027,-0.2111546 -1.287109,-0.3847657 v -1.578125 c 0.423611,0.2430577 0.824651,0.4253486 1.203125,0.546875 0.381944,0.121527 0.741318,0.1816407 1.078125,0.1816407 0.486111,0 0.868706,-0.1174048 1.146484,-0.3535157 0.28125,-0.2395841 0.421875,-0.5625006 0.421875,-0.96875 0,-0.4097214 -0.140625,-0.7326387 -0.421875,-0.96875 -0.277776,-0.2361107 -0.660373,-0.3554687 -1.146484,-0.3554687 -0.288197,0 -0.595486,0.038846 -0.921875,0.1152344 -0.326389,0.072918 -0.677735,0.1875005 -1.052735,0.34375 z m -36.919922,0.04102 c 2.296677,-4e-4 4.158603,1.861525 4.158203,4.1582026 -6.7e-4,2.2959149 -1.862288,4.1566491 -4.158203,4.15625 -2.295152,-6.792e-4 -4.15557,-1.8610978 -4.15625,-4.15625 -3.98e-4,-2.2959146 1.860336,-4.1575326 4.15625,-4.1582026 z m 9.5996098,0 c 2.2966765,-4e-4 4.15860203,1.861525 4.15820308,4.1582026 -6.7938e-4,2.2959149 -1.86228908,4.1566491 -4.15820308,4.15625 -2.2951522,-6.792e-4 -4.1555717,-1.8610978 -4.15625,-4.15625 -3.992e-4,-2.2959146 1.8603355,-4.1575326 4.15625,-4.1582026 z m 9.6015624,0 c 2.2959145,6.7e-4 4.1566492,1.862288 4.15625,4.1582026 -6.783e-4,2.2951522 -1.8610978,4.1555708 -4.15625,4.15625 -2.295914,3.991e-4 -4.1575237,-1.8603351 -4.15820308,-4.15625 -3.9895e-4,-2.2966756 1.86152658,-4.1586026 4.15820308,-4.1582026 z m 9.5996098,0 c 2.295914,6.7e-4 4.156648,1.862288 4.15625,4.1582026 -6.8e-4,2.2951522 -1.861098,4.1555708 -4.15625,4.15625 -2.295915,3.991e-4 -4.157532,-1.8603351 -4.158203,-4.15625 -4e-4,-2.2966776 1.861526,-4.1586026 4.158203,-4.1582026 z m 14.568359,1.902343 h 1.863281 l 1.453125,4.0312502 1.449219,-4.0312502 h 1.869141 l -2.296875,5.8320315 h -2.046875 z m 16.384766,1.460938 c 1.56654,-7.14e-4 2.836651,1.2693968 2.835937,2.8359372 -3.65e-4,1.5657777 -1.270159,2.8346977 -2.835937,2.8339844 -1.565015,-3.647e-4 -2.83362,-1.268969 -2.833985,-2.8339844 -7.13e-4,-1.5657779 1.268207,-2.8355722 2.833985,-2.8359372 z m -78.197266,0.9433591 h 8.367188 v 1.515625 h -8.367188 z"
       transform="scale(0.26458333)"
       id="rect10944"
       inkscape:connector-curvature="0"
       sodipodi:nodetypes="ccccccccccccccccccccccccccccccccccccccccccccccccccccccccccccccccccccccccccccccccccccccccccccccccccccccccccccccccccccccsssssscsssssscsssssssssssssssssssssscccccccccccccccssscssssssccsssssscssssssssssscccccccccssscssssssccsssssccssccccccscscsccccscscsccccccccccccccccccccccccccccccccccccccccc" />
  </g>
</svg>
