G04 #@! TF.GenerationSoftware,KiCad,Pcbnew,5.1.9+dfsg1-1*
G04 #@! TF.CreationDate,2022-04-19T21:03:17+02:00*
G04 #@! TF.ProjectId,edgedriver,65646765-6472-4697-9665-722e6b696361,rev?*
G04 #@! TF.SameCoordinates,Original*
G04 #@! TF.FileFunction,Soldermask,Bot*
G04 #@! TF.FilePolarity,Negative*
%FSLAX46Y46*%
G04 Gerber Fmt 4.6, Leading zero omitted, Abs format (unit mm)*
G04 Created by KiCad (PCBNEW 5.1.9+dfsg1-1) date 2022-04-19 21:03:17*
%MOMM*%
%LPD*%
G01*
G04 APERTURE LIST*
%ADD10C,0.010000*%
%ADD11O,1.600000X1.000000*%
%ADD12C,0.650000*%
%ADD13O,2.100000X1.000000*%
%ADD14R,0.900000X2.000000*%
%ADD15R,5.000000X5.000000*%
%ADD16C,1.700000*%
%ADD17O,1.700000X1.700000*%
%ADD18C,0.254000*%
%ADD19C,0.100000*%
G04 APERTURE END LIST*
D10*
G36*
X-3090000Y13830000D02*
G01*
X-3090000Y12500000D01*
X-1760000Y12500000D01*
X-1760000Y13830000D01*
X-3090000Y13830000D01*
G37*
X-3090000Y13830000D02*
X-3090000Y12500000D01*
X-1760000Y12500000D01*
X-1760000Y13830000D01*
X-3090000Y13830000D01*
G36*
X-3090000Y15665000D02*
G01*
X-3090000Y14335000D01*
X-1760000Y14335000D01*
X-1760000Y15665000D01*
X-3090000Y15665000D01*
G37*
X-3090000Y15665000D02*
X-3090000Y14335000D01*
X-1760000Y14335000D01*
X-1760000Y15665000D01*
X-3090000Y15665000D01*
G36*
X-3090000Y17500000D02*
G01*
X-3090000Y16170000D01*
X-1760000Y16170000D01*
X-1760000Y17500000D01*
X-3090000Y17500000D01*
G37*
X-3090000Y17500000D02*
X-3090000Y16170000D01*
X-1760000Y16170000D01*
X-1760000Y17500000D01*
X-3090000Y17500000D01*
G36*
X-6760000Y17500000D02*
G01*
X-6760000Y16170000D01*
X-5430000Y16170000D01*
X-5430000Y17500000D01*
X-6760000Y17500000D01*
G37*
X-6760000Y17500000D02*
X-6760000Y16170000D01*
X-5430000Y16170000D01*
X-5430000Y17500000D01*
X-6760000Y17500000D01*
G36*
X-6760000Y15665000D02*
G01*
X-6760000Y14335000D01*
X-5430000Y14335000D01*
X-5430000Y15665000D01*
X-6760000Y15665000D01*
G37*
X-6760000Y15665000D02*
X-6760000Y14335000D01*
X-5430000Y14335000D01*
X-5430000Y15665000D01*
X-6760000Y15665000D01*
G36*
X-6760000Y13830000D02*
G01*
X-6760000Y12500000D01*
X-5430000Y12500000D01*
X-5430000Y13830000D01*
X-6760000Y13830000D01*
G37*
X-6760000Y13830000D02*
X-6760000Y12500000D01*
X-5430000Y12500000D01*
X-5430000Y13830000D01*
X-6760000Y13830000D01*
G36*
X-4925000Y13830000D02*
G01*
X-4925000Y12500000D01*
X-3595000Y12500000D01*
X-3595000Y13830000D01*
X-4925000Y13830000D01*
G37*
X-4925000Y13830000D02*
X-4925000Y12500000D01*
X-3595000Y12500000D01*
X-3595000Y13830000D01*
X-4925000Y13830000D01*
G36*
X-4925000Y17500000D02*
G01*
X-4925000Y16170000D01*
X-3595000Y16170000D01*
X-3595000Y17500000D01*
X-4925000Y17500000D01*
G37*
X-4925000Y17500000D02*
X-4925000Y16170000D01*
X-3595000Y16170000D01*
X-3595000Y17500000D01*
X-4925000Y17500000D01*
G36*
X-4925000Y15665000D02*
G01*
X-4925000Y14335000D01*
X-3595000Y14335000D01*
X-3595000Y15665000D01*
X-4925000Y15665000D01*
G37*
X-4925000Y15665000D02*
X-4925000Y14335000D01*
X-3595000Y14335000D01*
X-3595000Y15665000D01*
X-4925000Y15665000D01*
D11*
X9950000Y17220000D03*
D12*
X6300000Y15790000D03*
D11*
X9950000Y8580000D03*
D12*
X6300000Y10010000D03*
D13*
X5770000Y8580000D03*
X5770000Y17220000D03*
D14*
X-11760000Y22500000D03*
X-10490000Y22500000D03*
X-9220000Y22500000D03*
X-7950000Y22500000D03*
X-6680000Y22500000D03*
X-5410000Y22500000D03*
X-4140000Y22500000D03*
X-2870000Y22500000D03*
X-1600000Y22500000D03*
X-330000Y22500000D03*
X940000Y22500000D03*
X2210000Y22500000D03*
X3480000Y22500000D03*
X4750000Y22500000D03*
X6020000Y22500000D03*
X7290000Y22500000D03*
X8560000Y22500000D03*
X9830000Y22500000D03*
X11100000Y22500000D03*
X11100000Y5500000D03*
X9830000Y5500000D03*
X8560000Y5500000D03*
X7290000Y5500000D03*
X6020000Y5500000D03*
X4750000Y5500000D03*
X3480000Y5500000D03*
X2210000Y5500000D03*
X940000Y5500000D03*
X-330000Y5500000D03*
X-1600000Y5500000D03*
X-2870000Y5500000D03*
X-4140000Y5500000D03*
X-5410000Y5500000D03*
X-6680000Y5500000D03*
X-7950000Y5500000D03*
X-9220000Y5500000D03*
X-10490000Y5500000D03*
X-11760000Y5500000D03*
D15*
X-4260000Y15000000D03*
D16*
X-11430000Y2540000D03*
D17*
X-11430000Y0D03*
D16*
X-3810000Y2540000D03*
D17*
X-1270000Y2540000D03*
X1270000Y2540000D03*
X3810000Y2540000D03*
D16*
X-8890000Y0D03*
D17*
X-6350000Y0D03*
X-3810000Y0D03*
X-1270000Y0D03*
X1270000Y0D03*
X3810000Y0D03*
X6350000Y0D03*
X8890000Y0D03*
D18*
X-5649784Y31099910D02*
X-5649784Y29100034D01*
X-2249992Y29100034D01*
X-2249992Y26099698D01*
X-2127000Y26099698D01*
X-2127000Y25127000D01*
X-7873000Y25127000D01*
X-7873000Y31099995D01*
X-5649784Y31099910D01*
D19*
G36*
X-5649784Y31099910D02*
G01*
X-5649784Y29100034D01*
X-2249992Y29100034D01*
X-2249992Y26099698D01*
X-2127000Y26099698D01*
X-2127000Y25127000D01*
X-7873000Y25127000D01*
X-7873000Y31099995D01*
X-5649784Y31099910D01*
G37*
D18*
X7873000Y25127000D02*
X2127000Y25127000D01*
X2127000Y26099698D01*
X2249992Y26099698D01*
X2249992Y29100034D01*
X5649267Y29100034D01*
X5649267Y31099910D01*
X7873000Y31099910D01*
X7873000Y25127000D01*
D19*
G36*
X7873000Y25127000D02*
G01*
X2127000Y25127000D01*
X2127000Y26099698D01*
X2249992Y26099698D01*
X2249992Y29100034D01*
X5649267Y29100034D01*
X5649267Y31099910D01*
X7873000Y31099910D01*
X7873000Y25127000D01*
G37*
M02*
