M48
METRIC
T1C0.200
T2C0.300
T3C0.600
T4C1.000
T5C0.650
%
G90
G05
T1
X-7.4Y8.5
X-7.15Y10.85
X-5.85Y10.75
X-3.3Y8.2
X-3.3Y7.5
X-2.3Y3.8
X-1.7Y7.35
X-1.65Y8.05
X-1.27Y14.8
X-0.355Y10.25
X1.212Y8.129
X1.5Y18.16
X2.01Y15.77
X3.942Y7.643
X6.1Y14.9
X6.1Y10.9
X7.8Y20.7
T2
X-11.9Y12.9
X-11.6Y15.8
X-11.45Y11.3
X-11.29Y7.3
X-10.4Y12.9
X-10.0Y14.6
X-10.0Y7.3
X-9.9Y25.1
X-9.9Y11.35
X-9.795Y20.65
X-9.65Y3.65
X-8.5Y29.0
X-8.5Y27.5
X-8.5Y26.0
X-8.1Y18.55
X-8.1Y17.05
X-7.0Y29.0
X-7.0Y27.5
X-7.0Y26.0
X-6.3Y14.2
X-5.5Y27.5
X-5.5Y26.0
X-4.9Y18.55
X-4.9Y17.0
X-4.0Y27.5
X-4.0Y26.0
X-2.7Y14.2
X-2.3Y11.9
X1.9Y7.9
X2.3Y20.9
X5.5Y27.5
X5.5Y26.0
X6.6Y3.9
X6.7Y21.0
X6.95Y10.75
X7.0Y29.0
X7.0Y27.5
X7.0Y26.0
X8.5Y29.0
X8.5Y27.5
X8.5Y26.0
X9.4Y7.5
X9.4Y4.0
X10.35Y9.8
X11.4Y3.9
T4
X-11.43Y2.54
X-11.43Y0.0
X-8.89Y0.0
X-6.35Y0.0
X-3.81Y2.54
X-3.81Y0.0
X-1.27Y2.54
X-1.27Y0.0
X1.27Y2.54
X1.27Y0.0
X3.81Y2.54
X3.81Y0.0
X6.35Y0.0
X8.89Y0.0
T5
X6.3Y15.79
X6.3Y10.01
T3
G00X5.22Y17.22
M15
G01X6.32Y17.22
M16
G05
G00X5.22Y8.58
M15
G01X6.32Y8.58
M16
G05
G00X9.65Y17.22
M15
G01X10.25Y17.22
M16
G05
G00X9.65Y8.58
M15
G01X10.25Y8.58
M16
G05
T0
M30
