G04 #@! TF.GenerationSoftware,KiCad,Pcbnew,5.1.9+dfsg1-1*
G04 #@! TF.CreationDate,2022-04-19T21:03:17+02:00*
G04 #@! TF.ProjectId,edgedriver,65646765-6472-4697-9665-722e6b696361,rev?*
G04 #@! TF.SameCoordinates,Original*
G04 #@! TF.FileFunction,Copper,L4,Bot*
G04 #@! TF.FilePolarity,Positive*
%FSLAX46Y46*%
G04 Gerber Fmt 4.6, Leading zero omitted, Abs format (unit mm)*
G04 Created by KiCad (PCBNEW 5.1.9+dfsg1-1) date 2022-04-19 21:03:17*
%MOMM*%
%LPD*%
G01*
G04 APERTURE LIST*
G04 #@! TA.AperFunction,ComponentPad*
%ADD10O,1.600000X1.000000*%
G04 #@! TD*
G04 #@! TA.AperFunction,ComponentPad*
%ADD11O,2.100000X1.000000*%
G04 #@! TD*
G04 #@! TA.AperFunction,SMDPad,CuDef*
%ADD12R,0.900000X2.000000*%
G04 #@! TD*
G04 #@! TA.AperFunction,SMDPad,CuDef*
%ADD13R,5.000000X5.000000*%
G04 #@! TD*
G04 #@! TA.AperFunction,ComponentPad*
%ADD14C,1.700000*%
G04 #@! TD*
G04 #@! TA.AperFunction,ComponentPad*
%ADD15O,1.700000X1.700000*%
G04 #@! TD*
G04 #@! TA.AperFunction,ViaPad*
%ADD16C,0.600000*%
G04 #@! TD*
G04 #@! TA.AperFunction,ViaPad*
%ADD17C,0.450000*%
G04 #@! TD*
G04 #@! TA.AperFunction,Conductor*
%ADD18C,0.250000*%
G04 #@! TD*
G04 #@! TA.AperFunction,Conductor*
%ADD19C,0.400000*%
G04 #@! TD*
G04 #@! TA.AperFunction,Conductor*
%ADD20C,0.240000*%
G04 #@! TD*
G04 #@! TA.AperFunction,Conductor*
%ADD21C,0.200000*%
G04 #@! TD*
G04 #@! TA.AperFunction,Conductor*
%ADD22C,0.150000*%
G04 #@! TD*
G04 #@! TA.AperFunction,Conductor*
%ADD23C,0.100000*%
G04 #@! TD*
G04 #@! TA.AperFunction,Conductor*
%ADD24C,0.254000*%
G04 #@! TD*
G04 APERTURE END LIST*
D10*
X9950000Y17220000D03*
X9950000Y8580000D03*
D11*
X5770000Y8580000D03*
X5770000Y17220000D03*
D12*
X-11760000Y22500000D03*
X-10490000Y22500000D03*
X-9220000Y22500000D03*
X-7950000Y22500000D03*
X-6680000Y22500000D03*
X-5410000Y22500000D03*
X-4140000Y22500000D03*
X-2870000Y22500000D03*
X-1600000Y22500000D03*
X-330000Y22500000D03*
X940000Y22500000D03*
X2210000Y22500000D03*
X3480000Y22500000D03*
X4750000Y22500000D03*
X6020000Y22500000D03*
X7290000Y22500000D03*
X8560000Y22500000D03*
X9830000Y22500000D03*
X11100000Y22500000D03*
X11100000Y5500000D03*
X9830000Y5500000D03*
X8560000Y5500000D03*
X7290000Y5500000D03*
X6020000Y5500000D03*
X4750000Y5500000D03*
X3480000Y5500000D03*
X2210000Y5500000D03*
X940000Y5500000D03*
X-330000Y5500000D03*
X-1600000Y5500000D03*
X-2870000Y5500000D03*
X-4140000Y5500000D03*
X-5410000Y5500000D03*
X-6680000Y5500000D03*
X-7950000Y5500000D03*
X-9220000Y5500000D03*
X-10490000Y5500000D03*
X-11760000Y5500000D03*
D13*
X-4260000Y15000000D03*
D14*
X-11430000Y2540000D03*
D15*
X-11430000Y0D03*
D14*
X-3810000Y2540000D03*
D15*
X-1270000Y2540000D03*
X1270000Y2540000D03*
X3810000Y2540000D03*
D14*
X-8890000Y0D03*
D15*
X-6350000Y0D03*
X-3810000Y0D03*
X-1270000Y0D03*
X1270000Y0D03*
X3810000Y0D03*
X6350000Y0D03*
X8890000Y0D03*
D16*
X-4000000Y26000000D03*
X-5500000Y26000000D03*
X-7000000Y26000000D03*
X-7000000Y27500000D03*
X-5500000Y27500000D03*
X-4000000Y27500000D03*
X-7000000Y29000000D03*
X-8500000Y27500000D03*
X-8500000Y29000000D03*
X-8500000Y26000000D03*
X2300000Y20900000D03*
X6700000Y21000000D03*
X-11600000Y15800000D03*
X-6300000Y14200000D03*
X-11290000Y7300000D03*
X-10000000Y7300000D03*
X-2300000Y11900000D03*
X-10000000Y14600000D03*
D17*
X-5850000Y10750000D03*
D16*
X-10400000Y12900000D03*
X-11900000Y12900000D03*
X-11450000Y11300000D03*
X-9900000Y11350000D03*
X-9650000Y3650000D03*
D17*
X-7400000Y8500000D03*
D16*
X-2700000Y14200000D03*
X1900000Y7900000D03*
X-8100000Y18550000D03*
X-8100000Y17050000D03*
X-4900000Y17000000D03*
X-4900000Y18550000D03*
D17*
X-3300000Y8200000D03*
X-1650000Y8050000D03*
X6100000Y14900000D03*
X6100000Y10900000D03*
X7800000Y20700000D03*
D16*
X8500000Y27500000D03*
X7000000Y27500000D03*
X7000000Y29000000D03*
X7000000Y26000000D03*
X8500000Y29000000D03*
X5500000Y27500000D03*
X5500000Y26000000D03*
X8500000Y26000000D03*
X10350000Y9800000D03*
X6950000Y10750000D03*
X9400000Y7500000D03*
X6600000Y3900000D03*
X9400000Y4000000D03*
X11400000Y3900000D03*
X-9900000Y25100000D03*
X-9795000Y20650000D03*
D17*
X-354990Y10250000D03*
X-2300000Y3800000D03*
X-3300000Y7500000D03*
X-1700000Y7350000D03*
X1212203Y8129265D03*
X3942500Y7642500D03*
X2010000Y15770000D03*
X1500000Y18160000D03*
X-7150000Y10850000D03*
X-1270010Y14800000D03*
D18*
X-11760000Y5500000D02*
X-11760000Y6240000D01*
D19*
X-4000000Y26000000D02*
X-2100000Y24100000D01*
X5700000Y24100000D02*
X-2100000Y24100000D01*
X6020000Y23780000D02*
X5700000Y24100000D01*
X6020000Y23780000D02*
X6020000Y22500000D01*
X-10100000Y26000000D02*
X-8500000Y26000000D01*
X-11700000Y24400000D02*
X-10100000Y26000000D01*
X6020000Y22500000D02*
X6020000Y23365996D01*
X2300000Y20900000D02*
X2290000Y20900000D01*
D20*
X2290000Y20900000D02*
X2290000Y20800000D01*
X2290000Y20800000D02*
X2290000Y20800000D01*
D19*
X2300000Y20900000D02*
X5400000Y20900000D01*
X5400000Y20900000D02*
X5500000Y20900000D01*
X6020000Y21420000D02*
X6020000Y22500000D01*
X5500000Y20900000D02*
X6020000Y21420000D01*
X5400000Y20900000D02*
X6600000Y20900000D01*
X6600000Y20900000D02*
X6700000Y21000000D01*
D20*
X-11760000Y24340000D02*
X-11760000Y22500000D01*
X-11700000Y24400000D02*
X-11760000Y24340000D01*
D19*
X-8890000Y0D02*
X-8890000Y1970000D01*
X-11760000Y4010000D02*
X-11760000Y5500000D01*
X-11590000Y3840000D02*
X-11760000Y4010000D01*
X-10760000Y3840000D02*
X-11590000Y3840000D01*
X-8890000Y1970000D02*
X-10760000Y3840000D01*
X-11760000Y22500000D02*
X-11760000Y15960000D01*
X-11760000Y15960000D02*
X-11600000Y15800000D01*
D20*
X-4260000Y15000000D02*
X-5000000Y15000000D01*
X-11600000Y15800000D02*
X-11200000Y15800000D01*
X-11200000Y15800000D02*
X-10000000Y14600000D01*
D19*
X-2700000Y16560000D02*
X-4260000Y15000000D01*
X-2700000Y19500000D02*
X-2700000Y16560000D01*
X-1300000Y20900000D02*
X-2700000Y19500000D01*
X2300000Y20900000D02*
X-1300000Y20900000D01*
D21*
X6100000Y14900000D02*
X6100000Y10900000D01*
X7800000Y20700000D02*
X7800000Y16100000D01*
X7800000Y16100000D02*
X6600000Y14900000D01*
X6100000Y14900000D02*
X6600000Y14900000D01*
D20*
X10000000Y9900000D02*
X11500000Y9900000D01*
D19*
X-10500000Y22490000D02*
X-10490000Y22500000D01*
X-10490000Y22500000D02*
X-10600000Y22390000D01*
D20*
X-10490000Y24510000D02*
X-10490000Y22500000D01*
X-9900000Y25100000D02*
X-10490000Y24510000D01*
D19*
X-10490000Y21345000D02*
X-9795000Y20650000D01*
X-10490000Y22500000D02*
X-10490000Y21345000D01*
D22*
X-9220000Y12020000D02*
X-7450000Y10250000D01*
X-7450000Y10250000D02*
X-354990Y10250000D01*
X-9220000Y22500000D02*
X-9220000Y12020000D01*
X-3370000Y2540000D02*
X-3810000Y2540000D01*
X-3560000Y2540000D02*
X-3810000Y2540000D01*
X-2300000Y3800000D02*
X-3560000Y2540000D01*
X-1850000Y7500000D02*
X-1700000Y7350000D01*
X-3300000Y7500000D02*
X-1850000Y7500000D01*
X4750000Y6835000D02*
X3942500Y7642500D01*
X4750000Y5500000D02*
X4750000Y6835000D01*
X3109999Y8475001D02*
X3942500Y7642500D01*
X1557939Y8475001D02*
X3109999Y8475001D01*
X1212203Y8129265D02*
X1557939Y8475001D01*
D18*
X-6680000Y6420000D02*
X-6680000Y5500000D01*
X-6680000Y6420000D02*
X-6680000Y5500000D01*
D22*
X-6680000Y6920000D02*
X-6680000Y5500000D01*
X-4800000Y8800000D02*
X-6680000Y6920000D01*
X1100000Y8800000D02*
X-4800000Y8800000D01*
X1970000Y9670000D02*
X1100000Y8800000D01*
X1970000Y15730000D02*
X1970000Y9670000D01*
X2010000Y15770000D02*
X1970000Y15730000D01*
X-7950000Y6850000D02*
X-7950000Y5500000D01*
X-5600000Y9200000D02*
X-7950000Y6850000D01*
X1500000Y18160000D02*
X1500000Y9900000D01*
X1500000Y9900000D02*
X800000Y9200000D01*
X800000Y9200000D02*
X-5600000Y9200000D01*
X-4140000Y21560000D02*
X-4140000Y22500000D01*
X-4550000Y21150000D02*
X-4140000Y21560000D01*
X-8150000Y21150000D02*
X-4550000Y21150000D01*
X-8850000Y20450000D02*
X-8150000Y21150000D01*
X-8850000Y12550000D02*
X-8850000Y20450000D01*
X-7150000Y10850000D02*
X-8850000Y12550000D01*
X7290000Y20590000D02*
X6400000Y19700000D01*
X7290000Y22500000D02*
X7290000Y20590000D01*
X1800000Y19700000D02*
X-1270010Y16629990D01*
X-1270010Y16629990D02*
X-1270010Y14800000D01*
X6400000Y19700000D02*
X1800000Y19700000D01*
D21*
X-8225000Y31285151D02*
X-8243508Y31262598D01*
X-8270569Y31211972D01*
X-8287232Y31157038D01*
X-8292859Y31099910D01*
X-8287232Y31042782D01*
X-8270569Y30987848D01*
X-8243508Y30937222D01*
X-8207091Y30892847D01*
X-8162716Y30856430D01*
X-8112090Y30829369D01*
X-8057156Y30812706D01*
X-8014343Y30808489D01*
X-5941204Y30808489D01*
X-5941205Y29114349D01*
X-5942615Y29100034D01*
X-5936988Y29042906D01*
X-5920325Y28987972D01*
X-5893264Y28937346D01*
X-5856847Y28892971D01*
X-5812472Y28856554D01*
X-5761846Y28829493D01*
X-5706912Y28812830D01*
X-5649784Y28807203D01*
X-5635469Y28808613D01*
X-2541412Y28808613D01*
X-2541413Y26114013D01*
X-2542823Y26099698D01*
X-2537196Y26042570D01*
X-2520533Y25987636D01*
X-2493472Y25937010D01*
X-2457055Y25892635D01*
X-2412680Y25856218D01*
X-2362054Y25829157D01*
X-2307120Y25812494D01*
X-2249992Y25806867D01*
X-2235677Y25808277D01*
X-1100000Y25808277D01*
X-1100000Y24600000D01*
X-9568331Y24600000D01*
X-9517522Y24633950D01*
X-9433950Y24717522D01*
X-9368287Y24815793D01*
X-9323058Y24924986D01*
X-9300000Y25040905D01*
X-9300000Y25159095D01*
X-9323058Y25275014D01*
X-9368287Y25384207D01*
X-9433950Y25482478D01*
X-9517522Y25566050D01*
X-9615793Y25631713D01*
X-9724986Y25676942D01*
X-9840905Y25700000D01*
X-9900000Y25700000D01*
X-9900000Y31900000D01*
X-8225000Y31900000D01*
X-8225000Y31285151D01*
G04 #@! TA.AperFunction,Conductor*
D23*
G36*
X-8225000Y31285151D02*
G01*
X-8243508Y31262598D01*
X-8270569Y31211972D01*
X-8287232Y31157038D01*
X-8292859Y31099910D01*
X-8287232Y31042782D01*
X-8270569Y30987848D01*
X-8243508Y30937222D01*
X-8207091Y30892847D01*
X-8162716Y30856430D01*
X-8112090Y30829369D01*
X-8057156Y30812706D01*
X-8014343Y30808489D01*
X-5941204Y30808489D01*
X-5941205Y29114349D01*
X-5942615Y29100034D01*
X-5936988Y29042906D01*
X-5920325Y28987972D01*
X-5893264Y28937346D01*
X-5856847Y28892971D01*
X-5812472Y28856554D01*
X-5761846Y28829493D01*
X-5706912Y28812830D01*
X-5649784Y28807203D01*
X-5635469Y28808613D01*
X-2541412Y28808613D01*
X-2541413Y26114013D01*
X-2542823Y26099698D01*
X-2537196Y26042570D01*
X-2520533Y25987636D01*
X-2493472Y25937010D01*
X-2457055Y25892635D01*
X-2412680Y25856218D01*
X-2362054Y25829157D01*
X-2307120Y25812494D01*
X-2249992Y25806867D01*
X-2235677Y25808277D01*
X-1100000Y25808277D01*
X-1100000Y24600000D01*
X-9568331Y24600000D01*
X-9517522Y24633950D01*
X-9433950Y24717522D01*
X-9368287Y24815793D01*
X-9323058Y24924986D01*
X-9300000Y25040905D01*
X-9300000Y25159095D01*
X-9323058Y25275014D01*
X-9368287Y25384207D01*
X-9433950Y25482478D01*
X-9517522Y25566050D01*
X-9615793Y25631713D01*
X-9724986Y25676942D01*
X-9840905Y25700000D01*
X-9900000Y25700000D01*
X-9900000Y31900000D01*
X-8225000Y31900000D01*
X-8225000Y31285151D01*
G37*
G04 #@! TD.AperFunction*
D21*
X9900000Y24600000D02*
X5724560Y24600000D01*
X5700000Y24602419D01*
X5675440Y24600000D01*
X1100000Y24600000D01*
X1100000Y25808277D01*
X2235677Y25808277D01*
X2249992Y25806867D01*
X2307120Y25812494D01*
X2362054Y25829157D01*
X2412680Y25856218D01*
X2457055Y25892635D01*
X2493472Y25937010D01*
X2520533Y25987636D01*
X2537196Y26042570D01*
X2541413Y26085383D01*
X2542823Y26099698D01*
X2541413Y26114013D01*
X2541413Y28808613D01*
X5634952Y28808613D01*
X5649267Y28807203D01*
X5706395Y28812830D01*
X5761329Y28829493D01*
X5811955Y28856554D01*
X5856330Y28892971D01*
X5892747Y28937346D01*
X5919808Y28987972D01*
X5936471Y29042906D01*
X5940688Y29085719D01*
X5942098Y29100034D01*
X5940688Y29114349D01*
X5940688Y30808489D01*
X8013827Y30808489D01*
X8056640Y30812706D01*
X8111574Y30829369D01*
X8162200Y30856430D01*
X8206575Y30892847D01*
X8242992Y30937222D01*
X8270053Y30987848D01*
X8286716Y31042782D01*
X8292343Y31099910D01*
X8286716Y31157038D01*
X8270053Y31211972D01*
X8242992Y31262598D01*
X8225000Y31284522D01*
X8225000Y31900000D01*
X9900000Y31900000D01*
X9900000Y24600000D01*
G04 #@! TA.AperFunction,Conductor*
D23*
G36*
X9900000Y24600000D02*
G01*
X5724560Y24600000D01*
X5700000Y24602419D01*
X5675440Y24600000D01*
X1100000Y24600000D01*
X1100000Y25808277D01*
X2235677Y25808277D01*
X2249992Y25806867D01*
X2307120Y25812494D01*
X2362054Y25829157D01*
X2412680Y25856218D01*
X2457055Y25892635D01*
X2493472Y25937010D01*
X2520533Y25987636D01*
X2537196Y26042570D01*
X2541413Y26085383D01*
X2542823Y26099698D01*
X2541413Y26114013D01*
X2541413Y28808613D01*
X5634952Y28808613D01*
X5649267Y28807203D01*
X5706395Y28812830D01*
X5761329Y28829493D01*
X5811955Y28856554D01*
X5856330Y28892971D01*
X5892747Y28937346D01*
X5919808Y28987972D01*
X5936471Y29042906D01*
X5940688Y29085719D01*
X5942098Y29100034D01*
X5940688Y29114349D01*
X5940688Y30808489D01*
X8013827Y30808489D01*
X8056640Y30812706D01*
X8111574Y30829369D01*
X8162200Y30856430D01*
X8206575Y30892847D01*
X8242992Y30937222D01*
X8270053Y30987848D01*
X8286716Y31042782D01*
X8292343Y31099910D01*
X8286716Y31157038D01*
X8270053Y31211972D01*
X8242992Y31262598D01*
X8225000Y31284522D01*
X8225000Y31900000D01*
X9900000Y31900000D01*
X9900000Y24600000D01*
G37*
G04 #@! TD.AperFunction*
D24*
X12173000Y31247394D02*
X12173000Y-339486D01*
X11644487Y-868000D01*
X4606530Y-868000D01*
X4724236Y-750294D01*
X4853044Y-557519D01*
X4941769Y-343318D01*
X4987000Y-115924D01*
X4987000Y115924D01*
X4941769Y343318D01*
X4853044Y557519D01*
X4724236Y750294D01*
X4560294Y914236D01*
X4367519Y1043044D01*
X4153318Y1131769D01*
X3927000Y1176786D01*
X3927000Y1363214D01*
X4153318Y1408231D01*
X4367519Y1496956D01*
X4560294Y1625764D01*
X4724236Y1789706D01*
X4853044Y1982481D01*
X4941769Y2196682D01*
X4987000Y2424076D01*
X4987000Y2655924D01*
X4941769Y2883318D01*
X4853044Y3097519D01*
X4724236Y3290294D01*
X4560294Y3454236D01*
X4367519Y3583044D01*
X4153318Y3671769D01*
X3927000Y3716786D01*
X3927000Y4171418D01*
X3930000Y4171418D01*
X3994103Y4177732D01*
X4055743Y4196430D01*
X4112550Y4226794D01*
X4115000Y4228805D01*
X4117450Y4226794D01*
X4174257Y4196430D01*
X4235897Y4177732D01*
X4300000Y4171418D01*
X5200000Y4171418D01*
X5264103Y4177732D01*
X5325743Y4196430D01*
X5382550Y4226794D01*
X5385000Y4228805D01*
X5387450Y4226794D01*
X5444257Y4196430D01*
X5505897Y4177732D01*
X5570000Y4171418D01*
X6470000Y4171418D01*
X6534103Y4177732D01*
X6595743Y4196430D01*
X6652550Y4226794D01*
X6655000Y4228805D01*
X6657450Y4226794D01*
X6714257Y4196430D01*
X6775897Y4177732D01*
X6840000Y4171418D01*
X7740000Y4171418D01*
X7804103Y4177732D01*
X7865743Y4196430D01*
X7922550Y4226794D01*
X7925000Y4228805D01*
X7927450Y4226794D01*
X7984257Y4196430D01*
X8045897Y4177732D01*
X8110000Y4171418D01*
X9010000Y4171418D01*
X9074103Y4177732D01*
X9135743Y4196430D01*
X9192550Y4226794D01*
X9195000Y4228805D01*
X9197450Y4226794D01*
X9254257Y4196430D01*
X9315897Y4177732D01*
X9380000Y4171418D01*
X10280000Y4171418D01*
X10344103Y4177732D01*
X10405743Y4196430D01*
X10462550Y4226794D01*
X10465000Y4228805D01*
X10467450Y4226794D01*
X10524257Y4196430D01*
X10585897Y4177732D01*
X10650000Y4171418D01*
X11550000Y4171418D01*
X11614103Y4177732D01*
X11675743Y4196430D01*
X11732550Y4226794D01*
X11782343Y4267657D01*
X11823206Y4317450D01*
X11853570Y4374257D01*
X11872268Y4435897D01*
X11878582Y4500000D01*
X11878582Y6500000D01*
X11872268Y6564103D01*
X11853570Y6625743D01*
X11823206Y6682550D01*
X11782343Y6732343D01*
X11732550Y6773206D01*
X11675743Y6803570D01*
X11614103Y6822268D01*
X11550000Y6828582D01*
X10650000Y6828582D01*
X10585897Y6822268D01*
X10524257Y6803570D01*
X10467450Y6773206D01*
X10465000Y6771195D01*
X10462550Y6773206D01*
X10405743Y6803570D01*
X10344103Y6822268D01*
X10280000Y6828582D01*
X9380000Y6828582D01*
X9315897Y6822268D01*
X9254257Y6803570D01*
X9197450Y6773206D01*
X9195000Y6771195D01*
X9192550Y6773206D01*
X9135743Y6803570D01*
X9074103Y6822268D01*
X9010000Y6828582D01*
X8110000Y6828582D01*
X8045897Y6822268D01*
X7984257Y6803570D01*
X7927450Y6773206D01*
X7925000Y6771195D01*
X7922550Y6773206D01*
X7865743Y6803570D01*
X7804103Y6822268D01*
X7740000Y6828582D01*
X6840000Y6828582D01*
X6775897Y6822268D01*
X6714257Y6803570D01*
X6657450Y6773206D01*
X6655000Y6771195D01*
X6652550Y6773206D01*
X6595743Y6803570D01*
X6534103Y6822268D01*
X6470000Y6828582D01*
X5570000Y6828582D01*
X5505897Y6822268D01*
X5444257Y6803570D01*
X5387450Y6773206D01*
X5385000Y6771195D01*
X5382550Y6773206D01*
X5325743Y6803570D01*
X5264103Y6822268D01*
X5200000Y6828582D01*
X5153312Y6828582D01*
X5153944Y6835001D01*
X5152000Y6854740D01*
X5152000Y6854747D01*
X5146183Y6913806D01*
X5123197Y6989583D01*
X5085868Y7059420D01*
X5035632Y7120632D01*
X5020295Y7133219D01*
X4494500Y7659013D01*
X4494500Y7696867D01*
X4473287Y7803512D01*
X4431676Y7903970D01*
X4371266Y7994380D01*
X4294380Y8071266D01*
X4203970Y8131676D01*
X4103512Y8173287D01*
X3996867Y8194500D01*
X3959014Y8194500D01*
X3927000Y8226514D01*
X3927000Y19298000D01*
X6380261Y19298000D01*
X6400000Y19296056D01*
X6419739Y19298000D01*
X6419747Y19298000D01*
X6478806Y19303817D01*
X6554583Y19326803D01*
X6624420Y19364132D01*
X6685632Y19414368D01*
X6698223Y19429710D01*
X7373000Y20104486D01*
X7373001Y16276871D01*
X6951726Y15855595D01*
X6926944Y15980181D01*
X6877795Y16098838D01*
X6806442Y16205626D01*
X6715626Y16296442D01*
X6608838Y16367795D01*
X6503466Y16411441D01*
X6638010Y16452255D01*
X6781679Y16529048D01*
X6907606Y16632394D01*
X7010952Y16758321D01*
X7087745Y16901990D01*
X7135034Y17057880D01*
X7151001Y17220000D01*
X7135034Y17382120D01*
X7087745Y17538010D01*
X7010952Y17681679D01*
X6907606Y17807606D01*
X6781679Y17910952D01*
X6638010Y17987745D01*
X6482120Y18035034D01*
X6360624Y18047000D01*
X5179376Y18047000D01*
X5057880Y18035034D01*
X4901990Y17987745D01*
X4758321Y17910952D01*
X4632394Y17807606D01*
X4529048Y17681679D01*
X4452255Y17538010D01*
X4404966Y17382120D01*
X4388999Y17220000D01*
X4404966Y17057880D01*
X4452255Y16901990D01*
X4529048Y16758321D01*
X4632394Y16632394D01*
X4758321Y16529048D01*
X4901990Y16452255D01*
X5057880Y16404966D01*
X5179376Y16393000D01*
X6052013Y16393000D01*
X5991162Y16367795D01*
X5884374Y16296442D01*
X5793558Y16205626D01*
X5722205Y16098838D01*
X5673056Y15980181D01*
X5648000Y15854216D01*
X5648000Y15725784D01*
X5673056Y15599819D01*
X5722205Y15481162D01*
X5793558Y15374374D01*
X5802698Y15365234D01*
X5748120Y15328766D01*
X5671234Y15251880D01*
X5610824Y15161470D01*
X5569213Y15061012D01*
X5548000Y14954367D01*
X5548000Y14845633D01*
X5569213Y14738988D01*
X5610824Y14638530D01*
X5671234Y14548120D01*
X5673000Y14546354D01*
X5673001Y11253647D01*
X5671234Y11251880D01*
X5610824Y11161470D01*
X5569213Y11061012D01*
X5548000Y10954367D01*
X5548000Y10845633D01*
X5569213Y10738988D01*
X5610824Y10638530D01*
X5671234Y10548120D01*
X5748120Y10471234D01*
X5802698Y10434766D01*
X5793558Y10425626D01*
X5722205Y10318838D01*
X5673056Y10200181D01*
X5648000Y10074216D01*
X5648000Y9945784D01*
X5673056Y9819819D01*
X5722205Y9701162D01*
X5793558Y9594374D01*
X5884374Y9503558D01*
X5991162Y9432205D01*
X6052013Y9407000D01*
X5179376Y9407000D01*
X5057880Y9395034D01*
X4901990Y9347745D01*
X4758321Y9270952D01*
X4632394Y9167606D01*
X4529048Y9041679D01*
X4452255Y8898010D01*
X4404966Y8742120D01*
X4388999Y8580000D01*
X4404966Y8417880D01*
X4452255Y8261990D01*
X4529048Y8118321D01*
X4632394Y7992394D01*
X4758321Y7889048D01*
X4901990Y7812255D01*
X5057880Y7764966D01*
X5179376Y7753000D01*
X6360624Y7753000D01*
X6482120Y7764966D01*
X6638010Y7812255D01*
X6781679Y7889048D01*
X6907606Y7992394D01*
X7010952Y8118321D01*
X7087745Y8261990D01*
X7135034Y8417880D01*
X7151001Y8580000D01*
X8818999Y8580000D01*
X8834966Y8417880D01*
X8882255Y8261990D01*
X8959048Y8118321D01*
X9062394Y7992394D01*
X9188321Y7889048D01*
X9331990Y7812255D01*
X9487880Y7764966D01*
X9609376Y7753000D01*
X10290624Y7753000D01*
X10412120Y7764966D01*
X10568010Y7812255D01*
X10711679Y7889048D01*
X10837606Y7992394D01*
X10940952Y8118321D01*
X11017745Y8261990D01*
X11065034Y8417880D01*
X11081001Y8580000D01*
X11065034Y8742120D01*
X11017745Y8898010D01*
X10940952Y9041679D01*
X10837606Y9167606D01*
X10711679Y9270952D01*
X10568010Y9347745D01*
X10412120Y9395034D01*
X10290624Y9407000D01*
X9609376Y9407000D01*
X9487880Y9395034D01*
X9331990Y9347745D01*
X9188321Y9270952D01*
X9062394Y9167606D01*
X8959048Y9041679D01*
X8882255Y8898010D01*
X8834966Y8742120D01*
X8818999Y8580000D01*
X7151001Y8580000D01*
X7135034Y8742120D01*
X7087745Y8898010D01*
X7010952Y9041679D01*
X6907606Y9167606D01*
X6781679Y9270952D01*
X6638010Y9347745D01*
X6503466Y9388559D01*
X6608838Y9432205D01*
X6715626Y9503558D01*
X6806442Y9594374D01*
X6877795Y9701162D01*
X6926944Y9819819D01*
X6952000Y9945784D01*
X6952000Y10074216D01*
X6926944Y10200181D01*
X6877795Y10318838D01*
X6806442Y10425626D01*
X6715626Y10516442D01*
X6608838Y10587795D01*
X6566887Y10605172D01*
X6589176Y10638530D01*
X6630787Y10738988D01*
X6652000Y10845633D01*
X6652000Y10954367D01*
X6630787Y11061012D01*
X6589176Y11161470D01*
X6528766Y11251880D01*
X6527000Y11253646D01*
X6527000Y14473000D01*
X6579033Y14473000D01*
X6600000Y14470935D01*
X6620967Y14473000D01*
X6620978Y14473000D01*
X6683707Y14479178D01*
X6764196Y14503595D01*
X6838376Y14543245D01*
X6903395Y14596605D01*
X6916768Y14612900D01*
X8087111Y15783241D01*
X8103395Y15796605D01*
X8116759Y15812889D01*
X8116768Y15812898D01*
X8156755Y15861623D01*
X8196404Y15935803D01*
X8196405Y15935804D01*
X8220822Y16016293D01*
X8227000Y16079022D01*
X8227000Y16079034D01*
X8229065Y16099999D01*
X8227000Y16120964D01*
X8227000Y17220000D01*
X8818999Y17220000D01*
X8834966Y17057880D01*
X8882255Y16901990D01*
X8959048Y16758321D01*
X9062394Y16632394D01*
X9188321Y16529048D01*
X9331990Y16452255D01*
X9487880Y16404966D01*
X9609376Y16393000D01*
X10290624Y16393000D01*
X10412120Y16404966D01*
X10568010Y16452255D01*
X10711679Y16529048D01*
X10837606Y16632394D01*
X10940952Y16758321D01*
X11017745Y16901990D01*
X11065034Y17057880D01*
X11081001Y17220000D01*
X11065034Y17382120D01*
X11017745Y17538010D01*
X10940952Y17681679D01*
X10837606Y17807606D01*
X10711679Y17910952D01*
X10568010Y17987745D01*
X10412120Y18035034D01*
X10290624Y18047000D01*
X9609376Y18047000D01*
X9487880Y18035034D01*
X9331990Y17987745D01*
X9188321Y17910952D01*
X9062394Y17807606D01*
X8959048Y17681679D01*
X8882255Y17538010D01*
X8834966Y17382120D01*
X8818999Y17220000D01*
X8227000Y17220000D01*
X8227000Y20346354D01*
X8228766Y20348120D01*
X8289176Y20438530D01*
X8330787Y20538988D01*
X8352000Y20645633D01*
X8352000Y20754367D01*
X8330787Y20861012D01*
X8289176Y20961470D01*
X8228766Y21051880D01*
X8151880Y21128766D01*
X8084251Y21173954D01*
X8110000Y21171418D01*
X9010000Y21171418D01*
X9074103Y21177732D01*
X9135743Y21196430D01*
X9192550Y21226794D01*
X9195000Y21228805D01*
X9197450Y21226794D01*
X9254257Y21196430D01*
X9315897Y21177732D01*
X9380000Y21171418D01*
X10280000Y21171418D01*
X10344103Y21177732D01*
X10405743Y21196430D01*
X10462550Y21226794D01*
X10465000Y21228805D01*
X10467450Y21226794D01*
X10524257Y21196430D01*
X10585897Y21177732D01*
X10650000Y21171418D01*
X11550000Y21171418D01*
X11614103Y21177732D01*
X11675743Y21196430D01*
X11732550Y21226794D01*
X11782343Y21267657D01*
X11823206Y21317450D01*
X11853570Y21374257D01*
X11872268Y21435897D01*
X11878582Y21500000D01*
X11878582Y23500000D01*
X11872268Y23564103D01*
X11853570Y23625743D01*
X11823206Y23682550D01*
X11782343Y23732343D01*
X11732550Y23773206D01*
X11675743Y23803570D01*
X11614103Y23822268D01*
X11550000Y23828582D01*
X10650000Y23828582D01*
X10585897Y23822268D01*
X10524257Y23803570D01*
X10467450Y23773206D01*
X10465000Y23771195D01*
X10462550Y23773206D01*
X10405743Y23803570D01*
X10344103Y23822268D01*
X10280000Y23828582D01*
X9380000Y23828582D01*
X9315897Y23822268D01*
X9254257Y23803570D01*
X9197450Y23773206D01*
X9195000Y23771195D01*
X9192550Y23773206D01*
X9135743Y23803570D01*
X9074103Y23822268D01*
X9010000Y23828582D01*
X8110000Y23828582D01*
X8045897Y23822268D01*
X7984257Y23803570D01*
X7927450Y23773206D01*
X7925000Y23771195D01*
X7922550Y23773206D01*
X7865743Y23803570D01*
X7804103Y23822268D01*
X7740000Y23828582D01*
X6840000Y23828582D01*
X6775897Y23822268D01*
X6714257Y23803570D01*
X6657450Y23773206D01*
X6655000Y23771195D01*
X6652550Y23773206D01*
X6595743Y23803570D01*
X6545733Y23818740D01*
X6544764Y23828582D01*
X6539374Y23883310D01*
X6509239Y23982650D01*
X6460304Y24074202D01*
X6394448Y24154448D01*
X6374334Y24170955D01*
X6090955Y24454334D01*
X6074448Y24474448D01*
X5994202Y24540304D01*
X5902650Y24589239D01*
X5803310Y24619374D01*
X5725881Y24627000D01*
X5700000Y24629549D01*
X5674119Y24627000D01*
X3927000Y24627000D01*
X3927000Y25341353D01*
X9282355Y29903322D01*
X9299634Y29921246D01*
X9313083Y29942197D01*
X9322187Y29965369D01*
X9327000Y30000000D01*
X9327000Y31873000D01*
X11547394Y31873000D01*
X12173000Y31247394D01*
G04 #@! TA.AperFunction,Conductor*
D23*
G36*
X12173000Y31247394D02*
G01*
X12173000Y-339486D01*
X11644487Y-868000D01*
X4606530Y-868000D01*
X4724236Y-750294D01*
X4853044Y-557519D01*
X4941769Y-343318D01*
X4987000Y-115924D01*
X4987000Y115924D01*
X4941769Y343318D01*
X4853044Y557519D01*
X4724236Y750294D01*
X4560294Y914236D01*
X4367519Y1043044D01*
X4153318Y1131769D01*
X3927000Y1176786D01*
X3927000Y1363214D01*
X4153318Y1408231D01*
X4367519Y1496956D01*
X4560294Y1625764D01*
X4724236Y1789706D01*
X4853044Y1982481D01*
X4941769Y2196682D01*
X4987000Y2424076D01*
X4987000Y2655924D01*
X4941769Y2883318D01*
X4853044Y3097519D01*
X4724236Y3290294D01*
X4560294Y3454236D01*
X4367519Y3583044D01*
X4153318Y3671769D01*
X3927000Y3716786D01*
X3927000Y4171418D01*
X3930000Y4171418D01*
X3994103Y4177732D01*
X4055743Y4196430D01*
X4112550Y4226794D01*
X4115000Y4228805D01*
X4117450Y4226794D01*
X4174257Y4196430D01*
X4235897Y4177732D01*
X4300000Y4171418D01*
X5200000Y4171418D01*
X5264103Y4177732D01*
X5325743Y4196430D01*
X5382550Y4226794D01*
X5385000Y4228805D01*
X5387450Y4226794D01*
X5444257Y4196430D01*
X5505897Y4177732D01*
X5570000Y4171418D01*
X6470000Y4171418D01*
X6534103Y4177732D01*
X6595743Y4196430D01*
X6652550Y4226794D01*
X6655000Y4228805D01*
X6657450Y4226794D01*
X6714257Y4196430D01*
X6775897Y4177732D01*
X6840000Y4171418D01*
X7740000Y4171418D01*
X7804103Y4177732D01*
X7865743Y4196430D01*
X7922550Y4226794D01*
X7925000Y4228805D01*
X7927450Y4226794D01*
X7984257Y4196430D01*
X8045897Y4177732D01*
X8110000Y4171418D01*
X9010000Y4171418D01*
X9074103Y4177732D01*
X9135743Y4196430D01*
X9192550Y4226794D01*
X9195000Y4228805D01*
X9197450Y4226794D01*
X9254257Y4196430D01*
X9315897Y4177732D01*
X9380000Y4171418D01*
X10280000Y4171418D01*
X10344103Y4177732D01*
X10405743Y4196430D01*
X10462550Y4226794D01*
X10465000Y4228805D01*
X10467450Y4226794D01*
X10524257Y4196430D01*
X10585897Y4177732D01*
X10650000Y4171418D01*
X11550000Y4171418D01*
X11614103Y4177732D01*
X11675743Y4196430D01*
X11732550Y4226794D01*
X11782343Y4267657D01*
X11823206Y4317450D01*
X11853570Y4374257D01*
X11872268Y4435897D01*
X11878582Y4500000D01*
X11878582Y6500000D01*
X11872268Y6564103D01*
X11853570Y6625743D01*
X11823206Y6682550D01*
X11782343Y6732343D01*
X11732550Y6773206D01*
X11675743Y6803570D01*
X11614103Y6822268D01*
X11550000Y6828582D01*
X10650000Y6828582D01*
X10585897Y6822268D01*
X10524257Y6803570D01*
X10467450Y6773206D01*
X10465000Y6771195D01*
X10462550Y6773206D01*
X10405743Y6803570D01*
X10344103Y6822268D01*
X10280000Y6828582D01*
X9380000Y6828582D01*
X9315897Y6822268D01*
X9254257Y6803570D01*
X9197450Y6773206D01*
X9195000Y6771195D01*
X9192550Y6773206D01*
X9135743Y6803570D01*
X9074103Y6822268D01*
X9010000Y6828582D01*
X8110000Y6828582D01*
X8045897Y6822268D01*
X7984257Y6803570D01*
X7927450Y6773206D01*
X7925000Y6771195D01*
X7922550Y6773206D01*
X7865743Y6803570D01*
X7804103Y6822268D01*
X7740000Y6828582D01*
X6840000Y6828582D01*
X6775897Y6822268D01*
X6714257Y6803570D01*
X6657450Y6773206D01*
X6655000Y6771195D01*
X6652550Y6773206D01*
X6595743Y6803570D01*
X6534103Y6822268D01*
X6470000Y6828582D01*
X5570000Y6828582D01*
X5505897Y6822268D01*
X5444257Y6803570D01*
X5387450Y6773206D01*
X5385000Y6771195D01*
X5382550Y6773206D01*
X5325743Y6803570D01*
X5264103Y6822268D01*
X5200000Y6828582D01*
X5153312Y6828582D01*
X5153944Y6835001D01*
X5152000Y6854740D01*
X5152000Y6854747D01*
X5146183Y6913806D01*
X5123197Y6989583D01*
X5085868Y7059420D01*
X5035632Y7120632D01*
X5020295Y7133219D01*
X4494500Y7659013D01*
X4494500Y7696867D01*
X4473287Y7803512D01*
X4431676Y7903970D01*
X4371266Y7994380D01*
X4294380Y8071266D01*
X4203970Y8131676D01*
X4103512Y8173287D01*
X3996867Y8194500D01*
X3959014Y8194500D01*
X3927000Y8226514D01*
X3927000Y19298000D01*
X6380261Y19298000D01*
X6400000Y19296056D01*
X6419739Y19298000D01*
X6419747Y19298000D01*
X6478806Y19303817D01*
X6554583Y19326803D01*
X6624420Y19364132D01*
X6685632Y19414368D01*
X6698223Y19429710D01*
X7373000Y20104486D01*
X7373001Y16276871D01*
X6951726Y15855595D01*
X6926944Y15980181D01*
X6877795Y16098838D01*
X6806442Y16205626D01*
X6715626Y16296442D01*
X6608838Y16367795D01*
X6503466Y16411441D01*
X6638010Y16452255D01*
X6781679Y16529048D01*
X6907606Y16632394D01*
X7010952Y16758321D01*
X7087745Y16901990D01*
X7135034Y17057880D01*
X7151001Y17220000D01*
X7135034Y17382120D01*
X7087745Y17538010D01*
X7010952Y17681679D01*
X6907606Y17807606D01*
X6781679Y17910952D01*
X6638010Y17987745D01*
X6482120Y18035034D01*
X6360624Y18047000D01*
X5179376Y18047000D01*
X5057880Y18035034D01*
X4901990Y17987745D01*
X4758321Y17910952D01*
X4632394Y17807606D01*
X4529048Y17681679D01*
X4452255Y17538010D01*
X4404966Y17382120D01*
X4388999Y17220000D01*
X4404966Y17057880D01*
X4452255Y16901990D01*
X4529048Y16758321D01*
X4632394Y16632394D01*
X4758321Y16529048D01*
X4901990Y16452255D01*
X5057880Y16404966D01*
X5179376Y16393000D01*
X6052013Y16393000D01*
X5991162Y16367795D01*
X5884374Y16296442D01*
X5793558Y16205626D01*
X5722205Y16098838D01*
X5673056Y15980181D01*
X5648000Y15854216D01*
X5648000Y15725784D01*
X5673056Y15599819D01*
X5722205Y15481162D01*
X5793558Y15374374D01*
X5802698Y15365234D01*
X5748120Y15328766D01*
X5671234Y15251880D01*
X5610824Y15161470D01*
X5569213Y15061012D01*
X5548000Y14954367D01*
X5548000Y14845633D01*
X5569213Y14738988D01*
X5610824Y14638530D01*
X5671234Y14548120D01*
X5673000Y14546354D01*
X5673001Y11253647D01*
X5671234Y11251880D01*
X5610824Y11161470D01*
X5569213Y11061012D01*
X5548000Y10954367D01*
X5548000Y10845633D01*
X5569213Y10738988D01*
X5610824Y10638530D01*
X5671234Y10548120D01*
X5748120Y10471234D01*
X5802698Y10434766D01*
X5793558Y10425626D01*
X5722205Y10318838D01*
X5673056Y10200181D01*
X5648000Y10074216D01*
X5648000Y9945784D01*
X5673056Y9819819D01*
X5722205Y9701162D01*
X5793558Y9594374D01*
X5884374Y9503558D01*
X5991162Y9432205D01*
X6052013Y9407000D01*
X5179376Y9407000D01*
X5057880Y9395034D01*
X4901990Y9347745D01*
X4758321Y9270952D01*
X4632394Y9167606D01*
X4529048Y9041679D01*
X4452255Y8898010D01*
X4404966Y8742120D01*
X4388999Y8580000D01*
X4404966Y8417880D01*
X4452255Y8261990D01*
X4529048Y8118321D01*
X4632394Y7992394D01*
X4758321Y7889048D01*
X4901990Y7812255D01*
X5057880Y7764966D01*
X5179376Y7753000D01*
X6360624Y7753000D01*
X6482120Y7764966D01*
X6638010Y7812255D01*
X6781679Y7889048D01*
X6907606Y7992394D01*
X7010952Y8118321D01*
X7087745Y8261990D01*
X7135034Y8417880D01*
X7151001Y8580000D01*
X8818999Y8580000D01*
X8834966Y8417880D01*
X8882255Y8261990D01*
X8959048Y8118321D01*
X9062394Y7992394D01*
X9188321Y7889048D01*
X9331990Y7812255D01*
X9487880Y7764966D01*
X9609376Y7753000D01*
X10290624Y7753000D01*
X10412120Y7764966D01*
X10568010Y7812255D01*
X10711679Y7889048D01*
X10837606Y7992394D01*
X10940952Y8118321D01*
X11017745Y8261990D01*
X11065034Y8417880D01*
X11081001Y8580000D01*
X11065034Y8742120D01*
X11017745Y8898010D01*
X10940952Y9041679D01*
X10837606Y9167606D01*
X10711679Y9270952D01*
X10568010Y9347745D01*
X10412120Y9395034D01*
X10290624Y9407000D01*
X9609376Y9407000D01*
X9487880Y9395034D01*
X9331990Y9347745D01*
X9188321Y9270952D01*
X9062394Y9167606D01*
X8959048Y9041679D01*
X8882255Y8898010D01*
X8834966Y8742120D01*
X8818999Y8580000D01*
X7151001Y8580000D01*
X7135034Y8742120D01*
X7087745Y8898010D01*
X7010952Y9041679D01*
X6907606Y9167606D01*
X6781679Y9270952D01*
X6638010Y9347745D01*
X6503466Y9388559D01*
X6608838Y9432205D01*
X6715626Y9503558D01*
X6806442Y9594374D01*
X6877795Y9701162D01*
X6926944Y9819819D01*
X6952000Y9945784D01*
X6952000Y10074216D01*
X6926944Y10200181D01*
X6877795Y10318838D01*
X6806442Y10425626D01*
X6715626Y10516442D01*
X6608838Y10587795D01*
X6566887Y10605172D01*
X6589176Y10638530D01*
X6630787Y10738988D01*
X6652000Y10845633D01*
X6652000Y10954367D01*
X6630787Y11061012D01*
X6589176Y11161470D01*
X6528766Y11251880D01*
X6527000Y11253646D01*
X6527000Y14473000D01*
X6579033Y14473000D01*
X6600000Y14470935D01*
X6620967Y14473000D01*
X6620978Y14473000D01*
X6683707Y14479178D01*
X6764196Y14503595D01*
X6838376Y14543245D01*
X6903395Y14596605D01*
X6916768Y14612900D01*
X8087111Y15783241D01*
X8103395Y15796605D01*
X8116759Y15812889D01*
X8116768Y15812898D01*
X8156755Y15861623D01*
X8196404Y15935803D01*
X8196405Y15935804D01*
X8220822Y16016293D01*
X8227000Y16079022D01*
X8227000Y16079034D01*
X8229065Y16099999D01*
X8227000Y16120964D01*
X8227000Y17220000D01*
X8818999Y17220000D01*
X8834966Y17057880D01*
X8882255Y16901990D01*
X8959048Y16758321D01*
X9062394Y16632394D01*
X9188321Y16529048D01*
X9331990Y16452255D01*
X9487880Y16404966D01*
X9609376Y16393000D01*
X10290624Y16393000D01*
X10412120Y16404966D01*
X10568010Y16452255D01*
X10711679Y16529048D01*
X10837606Y16632394D01*
X10940952Y16758321D01*
X11017745Y16901990D01*
X11065034Y17057880D01*
X11081001Y17220000D01*
X11065034Y17382120D01*
X11017745Y17538010D01*
X10940952Y17681679D01*
X10837606Y17807606D01*
X10711679Y17910952D01*
X10568010Y17987745D01*
X10412120Y18035034D01*
X10290624Y18047000D01*
X9609376Y18047000D01*
X9487880Y18035034D01*
X9331990Y17987745D01*
X9188321Y17910952D01*
X9062394Y17807606D01*
X8959048Y17681679D01*
X8882255Y17538010D01*
X8834966Y17382120D01*
X8818999Y17220000D01*
X8227000Y17220000D01*
X8227000Y20346354D01*
X8228766Y20348120D01*
X8289176Y20438530D01*
X8330787Y20538988D01*
X8352000Y20645633D01*
X8352000Y20754367D01*
X8330787Y20861012D01*
X8289176Y20961470D01*
X8228766Y21051880D01*
X8151880Y21128766D01*
X8084251Y21173954D01*
X8110000Y21171418D01*
X9010000Y21171418D01*
X9074103Y21177732D01*
X9135743Y21196430D01*
X9192550Y21226794D01*
X9195000Y21228805D01*
X9197450Y21226794D01*
X9254257Y21196430D01*
X9315897Y21177732D01*
X9380000Y21171418D01*
X10280000Y21171418D01*
X10344103Y21177732D01*
X10405743Y21196430D01*
X10462550Y21226794D01*
X10465000Y21228805D01*
X10467450Y21226794D01*
X10524257Y21196430D01*
X10585897Y21177732D01*
X10650000Y21171418D01*
X11550000Y21171418D01*
X11614103Y21177732D01*
X11675743Y21196430D01*
X11732550Y21226794D01*
X11782343Y21267657D01*
X11823206Y21317450D01*
X11853570Y21374257D01*
X11872268Y21435897D01*
X11878582Y21500000D01*
X11878582Y23500000D01*
X11872268Y23564103D01*
X11853570Y23625743D01*
X11823206Y23682550D01*
X11782343Y23732343D01*
X11732550Y23773206D01*
X11675743Y23803570D01*
X11614103Y23822268D01*
X11550000Y23828582D01*
X10650000Y23828582D01*
X10585897Y23822268D01*
X10524257Y23803570D01*
X10467450Y23773206D01*
X10465000Y23771195D01*
X10462550Y23773206D01*
X10405743Y23803570D01*
X10344103Y23822268D01*
X10280000Y23828582D01*
X9380000Y23828582D01*
X9315897Y23822268D01*
X9254257Y23803570D01*
X9197450Y23773206D01*
X9195000Y23771195D01*
X9192550Y23773206D01*
X9135743Y23803570D01*
X9074103Y23822268D01*
X9010000Y23828582D01*
X8110000Y23828582D01*
X8045897Y23822268D01*
X7984257Y23803570D01*
X7927450Y23773206D01*
X7925000Y23771195D01*
X7922550Y23773206D01*
X7865743Y23803570D01*
X7804103Y23822268D01*
X7740000Y23828582D01*
X6840000Y23828582D01*
X6775897Y23822268D01*
X6714257Y23803570D01*
X6657450Y23773206D01*
X6655000Y23771195D01*
X6652550Y23773206D01*
X6595743Y23803570D01*
X6545733Y23818740D01*
X6544764Y23828582D01*
X6539374Y23883310D01*
X6509239Y23982650D01*
X6460304Y24074202D01*
X6394448Y24154448D01*
X6374334Y24170955D01*
X6090955Y24454334D01*
X6074448Y24474448D01*
X5994202Y24540304D01*
X5902650Y24589239D01*
X5803310Y24619374D01*
X5725881Y24627000D01*
X5700000Y24629549D01*
X5674119Y24627000D01*
X3927000Y24627000D01*
X3927000Y25341353D01*
X9282355Y29903322D01*
X9299634Y29921246D01*
X9313083Y29942197D01*
X9322187Y29965369D01*
X9327000Y30000000D01*
X9327000Y31873000D01*
X11547394Y31873000D01*
X12173000Y31247394D01*
G37*
G04 #@! TD.AperFunction*
D24*
X-9327000Y30000000D02*
X-9324560Y29975224D01*
X-9317333Y29951399D01*
X-9305597Y29929443D01*
X-9282355Y29903322D01*
X-3927332Y25341636D01*
X-3935880Y23828582D01*
X-4590000Y23828582D01*
X-4654103Y23822268D01*
X-4715743Y23803570D01*
X-4772550Y23773206D01*
X-4775000Y23771195D01*
X-4777450Y23773206D01*
X-4834257Y23803570D01*
X-4895897Y23822268D01*
X-4960000Y23828582D01*
X-5860000Y23828582D01*
X-5924103Y23822268D01*
X-5985743Y23803570D01*
X-6042550Y23773206D01*
X-6045000Y23771195D01*
X-6047450Y23773206D01*
X-6104257Y23803570D01*
X-6165897Y23822268D01*
X-6230000Y23828582D01*
X-7130000Y23828582D01*
X-7194103Y23822268D01*
X-7255743Y23803570D01*
X-7312550Y23773206D01*
X-7315000Y23771195D01*
X-7317450Y23773206D01*
X-7374257Y23803570D01*
X-7435897Y23822268D01*
X-7500000Y23828582D01*
X-8400000Y23828582D01*
X-8464103Y23822268D01*
X-8525743Y23803570D01*
X-8582550Y23773206D01*
X-8585000Y23771195D01*
X-8587450Y23773206D01*
X-8644257Y23803570D01*
X-8705897Y23822268D01*
X-8770000Y23828582D01*
X-9670000Y23828582D01*
X-9734103Y23822268D01*
X-9795743Y23803570D01*
X-9852550Y23773206D01*
X-9855000Y23771195D01*
X-9857450Y23773206D01*
X-9914257Y23803570D01*
X-9975897Y23822268D01*
X-10040000Y23828582D01*
X-10043000Y23828582D01*
X-10043000Y24324848D01*
X-9894848Y24473000D01*
X-9838246Y24473000D01*
X-9717111Y24497095D01*
X-9603004Y24544360D01*
X-9500311Y24612977D01*
X-9412977Y24700311D01*
X-9344360Y24803004D01*
X-9297095Y24917111D01*
X-9273000Y25038246D01*
X-9273000Y25161754D01*
X-9297095Y25282889D01*
X-9344360Y25396996D01*
X-9412977Y25499689D01*
X-9500311Y25587023D01*
X-9603004Y25655640D01*
X-9717111Y25702905D01*
X-9838246Y25727000D01*
X-9961754Y25727000D01*
X-10082889Y25702905D01*
X-10196996Y25655640D01*
X-10299689Y25587023D01*
X-10387023Y25499689D01*
X-10455640Y25396996D01*
X-10502905Y25282889D01*
X-10527000Y25161754D01*
X-10527000Y25105152D01*
X-10790550Y24841602D01*
X-10807605Y24827605D01*
X-10863465Y24759540D01*
X-10904972Y24681886D01*
X-10930531Y24597626D01*
X-10937000Y24531949D01*
X-10937000Y24531942D01*
X-10939161Y24510000D01*
X-10937000Y24488057D01*
X-10937000Y24015349D01*
X-10955506Y24030537D01*
X-11065820Y24089502D01*
X-11185518Y24125812D01*
X-11310000Y24138072D01*
X-11474250Y24135000D01*
X-11633000Y23976250D01*
X-11633000Y22627000D01*
X-11613000Y22627000D01*
X-11613000Y22373000D01*
X-11633000Y22373000D01*
X-11633000Y21023750D01*
X-11474250Y20865000D01*
X-11310000Y20861928D01*
X-11185518Y20874188D01*
X-11065820Y20910498D01*
X-10955506Y20969463D01*
X-10900560Y21014556D01*
X-10864447Y20970552D01*
X-10844338Y20954049D01*
X-10407962Y20517673D01*
X-10397905Y20467111D01*
X-10350640Y20353004D01*
X-10282023Y20250311D01*
X-10194689Y20162977D01*
X-10091996Y20094360D01*
X-9977889Y20047095D01*
X-9856754Y20023000D01*
X-9733246Y20023000D01*
X-9622000Y20045128D01*
X-9621999Y12039749D01*
X-9623944Y12020000D01*
X-9616183Y11941195D01*
X-9606871Y11910498D01*
X-9593196Y11865417D01*
X-9555867Y11795580D01*
X-9505631Y11734368D01*
X-9490295Y11721782D01*
X-7748219Y9979705D01*
X-7735632Y9964368D01*
X-7674420Y9914132D01*
X-7604583Y9876803D01*
X-7528806Y9853817D01*
X-7469747Y9848000D01*
X-7469740Y9848000D01*
X-7450001Y9846056D01*
X-7430261Y9848000D01*
X-4014867Y9848000D01*
X-4016257Y9602000D01*
X-5580261Y9602000D01*
X-5600000Y9603944D01*
X-5619740Y9602000D01*
X-5619747Y9602000D01*
X-5678806Y9596183D01*
X-5754583Y9573197D01*
X-5824420Y9535868D01*
X-5885632Y9485632D01*
X-5898219Y9470295D01*
X-8220290Y7148223D01*
X-8235632Y7135632D01*
X-8285868Y7074419D01*
X-8323197Y7004582D01*
X-8346183Y6928805D01*
X-8352000Y6869746D01*
X-8352000Y6869739D01*
X-8353944Y6850000D01*
X-8352000Y6830260D01*
X-8352000Y6828582D01*
X-8400000Y6828582D01*
X-8464103Y6822268D01*
X-8525743Y6803570D01*
X-8582550Y6773206D01*
X-8585000Y6771195D01*
X-8587450Y6773206D01*
X-8644257Y6803570D01*
X-8705897Y6822268D01*
X-8770000Y6828582D01*
X-9670000Y6828582D01*
X-9734103Y6822268D01*
X-9795743Y6803570D01*
X-9852550Y6773206D01*
X-9855000Y6771195D01*
X-9857450Y6773206D01*
X-9914257Y6803570D01*
X-9975897Y6822268D01*
X-10040000Y6828582D01*
X-10765613Y6828582D01*
X-10779463Y6854494D01*
X-10858815Y6951185D01*
X-10955506Y7030537D01*
X-11065820Y7089502D01*
X-11185518Y7125812D01*
X-11310000Y7138072D01*
X-11474250Y7135000D01*
X-11633000Y6976250D01*
X-11633000Y5627000D01*
X-11613000Y5627000D01*
X-11613000Y5373000D01*
X-11633000Y5373000D01*
X-11633000Y4023750D01*
X-11474250Y3865000D01*
X-11310000Y3861928D01*
X-11185518Y3874188D01*
X-11065820Y3910498D01*
X-10955506Y3969463D01*
X-10858815Y4048815D01*
X-10779463Y4145506D01*
X-10765613Y4171418D01*
X-10040000Y4171418D01*
X-9975897Y4177732D01*
X-9914257Y4196430D01*
X-9857450Y4226794D01*
X-9855000Y4228805D01*
X-9852550Y4226794D01*
X-9795743Y4196430D01*
X-9734103Y4177732D01*
X-9670000Y4171418D01*
X-8770000Y4171418D01*
X-8705897Y4177732D01*
X-8644257Y4196430D01*
X-8587450Y4226794D01*
X-8585000Y4228805D01*
X-8582550Y4226794D01*
X-8525743Y4196430D01*
X-8464103Y4177732D01*
X-8400000Y4171418D01*
X-7500000Y4171418D01*
X-7435897Y4177732D01*
X-7374257Y4196430D01*
X-7317450Y4226794D01*
X-7315000Y4228805D01*
X-7312550Y4226794D01*
X-7255743Y4196430D01*
X-7194103Y4177732D01*
X-7130000Y4171418D01*
X-6230000Y4171418D01*
X-6165897Y4177732D01*
X-6104257Y4196430D01*
X-6047450Y4226794D01*
X-6045000Y4228805D01*
X-6042550Y4226794D01*
X-5985743Y4196430D01*
X-5924103Y4177732D01*
X-5860000Y4171418D01*
X-4960000Y4171418D01*
X-4895897Y4177732D01*
X-4834257Y4196430D01*
X-4777450Y4226794D01*
X-4775000Y4228805D01*
X-4772550Y4226794D01*
X-4715743Y4196430D01*
X-4654103Y4177732D01*
X-4590000Y4171418D01*
X-4046938Y4171418D01*
X-4049644Y3692390D01*
X-4153318Y3671769D01*
X-4367519Y3583044D01*
X-4560294Y3454236D01*
X-4724236Y3290294D01*
X-4853044Y3097519D01*
X-4941769Y2883318D01*
X-4987000Y2655924D01*
X-4987000Y2424076D01*
X-4941769Y2196682D01*
X-4853044Y1982481D01*
X-4724236Y1789706D01*
X-4560294Y1625764D01*
X-4367519Y1496956D01*
X-4153318Y1408231D01*
X-4062651Y1390196D01*
X-4064011Y1149533D01*
X-4153318Y1131769D01*
X-4367519Y1043044D01*
X-4560294Y914236D01*
X-4724236Y750294D01*
X-4853044Y557519D01*
X-4941769Y343318D01*
X-4987000Y115924D01*
X-4987000Y-115924D01*
X-4941769Y-343318D01*
X-4853044Y-557519D01*
X-4724236Y-750294D01*
X-4606530Y-868000D01*
X-10633470Y-868000D01*
X-10515764Y-750294D01*
X-10386956Y-557519D01*
X-10298231Y-343318D01*
X-10253000Y-115924D01*
X-10253000Y115924D01*
X-10298231Y343318D01*
X-10386956Y557519D01*
X-10515764Y750294D01*
X-10679706Y914236D01*
X-10872481Y1043044D01*
X-11086682Y1131769D01*
X-11314076Y1177000D01*
X-11545924Y1177000D01*
X-11773318Y1131769D01*
X-11987519Y1043044D01*
X-12180294Y914236D01*
X-12298000Y796530D01*
X-12298000Y1743470D01*
X-12180294Y1625764D01*
X-11987519Y1496956D01*
X-11773318Y1408231D01*
X-11545924Y1363000D01*
X-11314076Y1363000D01*
X-11086682Y1408231D01*
X-10872481Y1496956D01*
X-10679706Y1625764D01*
X-10515764Y1789706D01*
X-10386956Y1982481D01*
X-10298231Y2196682D01*
X-10253000Y2424076D01*
X-10253000Y2655924D01*
X-10298231Y2883318D01*
X-10386956Y3097519D01*
X-10515764Y3290294D01*
X-10679706Y3454236D01*
X-10872481Y3583044D01*
X-11086682Y3671769D01*
X-11314076Y3717000D01*
X-11545924Y3717000D01*
X-11773318Y3671769D01*
X-11987519Y3583044D01*
X-12180294Y3454236D01*
X-12298000Y3336530D01*
X-12298000Y3870595D01*
X-12210000Y3861928D01*
X-12045750Y3865000D01*
X-11887000Y4023750D01*
X-11887000Y5373000D01*
X-11907000Y5373000D01*
X-11907000Y5627000D01*
X-11887000Y5627000D01*
X-11887000Y6976250D01*
X-12045750Y7135000D01*
X-12210000Y7138072D01*
X-12284721Y7130713D01*
X-12221243Y20863035D01*
X-12210000Y20861928D01*
X-12045750Y20865000D01*
X-11887000Y21023750D01*
X-11887000Y22373000D01*
X-11907000Y22373000D01*
X-11907000Y22627000D01*
X-11887000Y22627000D01*
X-11887000Y23976250D01*
X-12045750Y24135000D01*
X-12206105Y24137999D01*
X-12173243Y31247151D01*
X-11547394Y31873000D01*
X-9327000Y31873000D01*
X-9327000Y30000000D01*
G04 #@! TA.AperFunction,Conductor*
D23*
G36*
X-9327000Y30000000D02*
G01*
X-9324560Y29975224D01*
X-9317333Y29951399D01*
X-9305597Y29929443D01*
X-9282355Y29903322D01*
X-3927332Y25341636D01*
X-3935880Y23828582D01*
X-4590000Y23828582D01*
X-4654103Y23822268D01*
X-4715743Y23803570D01*
X-4772550Y23773206D01*
X-4775000Y23771195D01*
X-4777450Y23773206D01*
X-4834257Y23803570D01*
X-4895897Y23822268D01*
X-4960000Y23828582D01*
X-5860000Y23828582D01*
X-5924103Y23822268D01*
X-5985743Y23803570D01*
X-6042550Y23773206D01*
X-6045000Y23771195D01*
X-6047450Y23773206D01*
X-6104257Y23803570D01*
X-6165897Y23822268D01*
X-6230000Y23828582D01*
X-7130000Y23828582D01*
X-7194103Y23822268D01*
X-7255743Y23803570D01*
X-7312550Y23773206D01*
X-7315000Y23771195D01*
X-7317450Y23773206D01*
X-7374257Y23803570D01*
X-7435897Y23822268D01*
X-7500000Y23828582D01*
X-8400000Y23828582D01*
X-8464103Y23822268D01*
X-8525743Y23803570D01*
X-8582550Y23773206D01*
X-8585000Y23771195D01*
X-8587450Y23773206D01*
X-8644257Y23803570D01*
X-8705897Y23822268D01*
X-8770000Y23828582D01*
X-9670000Y23828582D01*
X-9734103Y23822268D01*
X-9795743Y23803570D01*
X-9852550Y23773206D01*
X-9855000Y23771195D01*
X-9857450Y23773206D01*
X-9914257Y23803570D01*
X-9975897Y23822268D01*
X-10040000Y23828582D01*
X-10043000Y23828582D01*
X-10043000Y24324848D01*
X-9894848Y24473000D01*
X-9838246Y24473000D01*
X-9717111Y24497095D01*
X-9603004Y24544360D01*
X-9500311Y24612977D01*
X-9412977Y24700311D01*
X-9344360Y24803004D01*
X-9297095Y24917111D01*
X-9273000Y25038246D01*
X-9273000Y25161754D01*
X-9297095Y25282889D01*
X-9344360Y25396996D01*
X-9412977Y25499689D01*
X-9500311Y25587023D01*
X-9603004Y25655640D01*
X-9717111Y25702905D01*
X-9838246Y25727000D01*
X-9961754Y25727000D01*
X-10082889Y25702905D01*
X-10196996Y25655640D01*
X-10299689Y25587023D01*
X-10387023Y25499689D01*
X-10455640Y25396996D01*
X-10502905Y25282889D01*
X-10527000Y25161754D01*
X-10527000Y25105152D01*
X-10790550Y24841602D01*
X-10807605Y24827605D01*
X-10863465Y24759540D01*
X-10904972Y24681886D01*
X-10930531Y24597626D01*
X-10937000Y24531949D01*
X-10937000Y24531942D01*
X-10939161Y24510000D01*
X-10937000Y24488057D01*
X-10937000Y24015349D01*
X-10955506Y24030537D01*
X-11065820Y24089502D01*
X-11185518Y24125812D01*
X-11310000Y24138072D01*
X-11474250Y24135000D01*
X-11633000Y23976250D01*
X-11633000Y22627000D01*
X-11613000Y22627000D01*
X-11613000Y22373000D01*
X-11633000Y22373000D01*
X-11633000Y21023750D01*
X-11474250Y20865000D01*
X-11310000Y20861928D01*
X-11185518Y20874188D01*
X-11065820Y20910498D01*
X-10955506Y20969463D01*
X-10900560Y21014556D01*
X-10864447Y20970552D01*
X-10844338Y20954049D01*
X-10407962Y20517673D01*
X-10397905Y20467111D01*
X-10350640Y20353004D01*
X-10282023Y20250311D01*
X-10194689Y20162977D01*
X-10091996Y20094360D01*
X-9977889Y20047095D01*
X-9856754Y20023000D01*
X-9733246Y20023000D01*
X-9622000Y20045128D01*
X-9621999Y12039749D01*
X-9623944Y12020000D01*
X-9616183Y11941195D01*
X-9606871Y11910498D01*
X-9593196Y11865417D01*
X-9555867Y11795580D01*
X-9505631Y11734368D01*
X-9490295Y11721782D01*
X-7748219Y9979705D01*
X-7735632Y9964368D01*
X-7674420Y9914132D01*
X-7604583Y9876803D01*
X-7528806Y9853817D01*
X-7469747Y9848000D01*
X-7469740Y9848000D01*
X-7450001Y9846056D01*
X-7430261Y9848000D01*
X-4014867Y9848000D01*
X-4016257Y9602000D01*
X-5580261Y9602000D01*
X-5600000Y9603944D01*
X-5619740Y9602000D01*
X-5619747Y9602000D01*
X-5678806Y9596183D01*
X-5754583Y9573197D01*
X-5824420Y9535868D01*
X-5885632Y9485632D01*
X-5898219Y9470295D01*
X-8220290Y7148223D01*
X-8235632Y7135632D01*
X-8285868Y7074419D01*
X-8323197Y7004582D01*
X-8346183Y6928805D01*
X-8352000Y6869746D01*
X-8352000Y6869739D01*
X-8353944Y6850000D01*
X-8352000Y6830260D01*
X-8352000Y6828582D01*
X-8400000Y6828582D01*
X-8464103Y6822268D01*
X-8525743Y6803570D01*
X-8582550Y6773206D01*
X-8585000Y6771195D01*
X-8587450Y6773206D01*
X-8644257Y6803570D01*
X-8705897Y6822268D01*
X-8770000Y6828582D01*
X-9670000Y6828582D01*
X-9734103Y6822268D01*
X-9795743Y6803570D01*
X-9852550Y6773206D01*
X-9855000Y6771195D01*
X-9857450Y6773206D01*
X-9914257Y6803570D01*
X-9975897Y6822268D01*
X-10040000Y6828582D01*
X-10765613Y6828582D01*
X-10779463Y6854494D01*
X-10858815Y6951185D01*
X-10955506Y7030537D01*
X-11065820Y7089502D01*
X-11185518Y7125812D01*
X-11310000Y7138072D01*
X-11474250Y7135000D01*
X-11633000Y6976250D01*
X-11633000Y5627000D01*
X-11613000Y5627000D01*
X-11613000Y5373000D01*
X-11633000Y5373000D01*
X-11633000Y4023750D01*
X-11474250Y3865000D01*
X-11310000Y3861928D01*
X-11185518Y3874188D01*
X-11065820Y3910498D01*
X-10955506Y3969463D01*
X-10858815Y4048815D01*
X-10779463Y4145506D01*
X-10765613Y4171418D01*
X-10040000Y4171418D01*
X-9975897Y4177732D01*
X-9914257Y4196430D01*
X-9857450Y4226794D01*
X-9855000Y4228805D01*
X-9852550Y4226794D01*
X-9795743Y4196430D01*
X-9734103Y4177732D01*
X-9670000Y4171418D01*
X-8770000Y4171418D01*
X-8705897Y4177732D01*
X-8644257Y4196430D01*
X-8587450Y4226794D01*
X-8585000Y4228805D01*
X-8582550Y4226794D01*
X-8525743Y4196430D01*
X-8464103Y4177732D01*
X-8400000Y4171418D01*
X-7500000Y4171418D01*
X-7435897Y4177732D01*
X-7374257Y4196430D01*
X-7317450Y4226794D01*
X-7315000Y4228805D01*
X-7312550Y4226794D01*
X-7255743Y4196430D01*
X-7194103Y4177732D01*
X-7130000Y4171418D01*
X-6230000Y4171418D01*
X-6165897Y4177732D01*
X-6104257Y4196430D01*
X-6047450Y4226794D01*
X-6045000Y4228805D01*
X-6042550Y4226794D01*
X-5985743Y4196430D01*
X-5924103Y4177732D01*
X-5860000Y4171418D01*
X-4960000Y4171418D01*
X-4895897Y4177732D01*
X-4834257Y4196430D01*
X-4777450Y4226794D01*
X-4775000Y4228805D01*
X-4772550Y4226794D01*
X-4715743Y4196430D01*
X-4654103Y4177732D01*
X-4590000Y4171418D01*
X-4046938Y4171418D01*
X-4049644Y3692390D01*
X-4153318Y3671769D01*
X-4367519Y3583044D01*
X-4560294Y3454236D01*
X-4724236Y3290294D01*
X-4853044Y3097519D01*
X-4941769Y2883318D01*
X-4987000Y2655924D01*
X-4987000Y2424076D01*
X-4941769Y2196682D01*
X-4853044Y1982481D01*
X-4724236Y1789706D01*
X-4560294Y1625764D01*
X-4367519Y1496956D01*
X-4153318Y1408231D01*
X-4062651Y1390196D01*
X-4064011Y1149533D01*
X-4153318Y1131769D01*
X-4367519Y1043044D01*
X-4560294Y914236D01*
X-4724236Y750294D01*
X-4853044Y557519D01*
X-4941769Y343318D01*
X-4987000Y115924D01*
X-4987000Y-115924D01*
X-4941769Y-343318D01*
X-4853044Y-557519D01*
X-4724236Y-750294D01*
X-4606530Y-868000D01*
X-10633470Y-868000D01*
X-10515764Y-750294D01*
X-10386956Y-557519D01*
X-10298231Y-343318D01*
X-10253000Y-115924D01*
X-10253000Y115924D01*
X-10298231Y343318D01*
X-10386956Y557519D01*
X-10515764Y750294D01*
X-10679706Y914236D01*
X-10872481Y1043044D01*
X-11086682Y1131769D01*
X-11314076Y1177000D01*
X-11545924Y1177000D01*
X-11773318Y1131769D01*
X-11987519Y1043044D01*
X-12180294Y914236D01*
X-12298000Y796530D01*
X-12298000Y1743470D01*
X-12180294Y1625764D01*
X-11987519Y1496956D01*
X-11773318Y1408231D01*
X-11545924Y1363000D01*
X-11314076Y1363000D01*
X-11086682Y1408231D01*
X-10872481Y1496956D01*
X-10679706Y1625764D01*
X-10515764Y1789706D01*
X-10386956Y1982481D01*
X-10298231Y2196682D01*
X-10253000Y2424076D01*
X-10253000Y2655924D01*
X-10298231Y2883318D01*
X-10386956Y3097519D01*
X-10515764Y3290294D01*
X-10679706Y3454236D01*
X-10872481Y3583044D01*
X-11086682Y3671769D01*
X-11314076Y3717000D01*
X-11545924Y3717000D01*
X-11773318Y3671769D01*
X-11987519Y3583044D01*
X-12180294Y3454236D01*
X-12298000Y3336530D01*
X-12298000Y3870595D01*
X-12210000Y3861928D01*
X-12045750Y3865000D01*
X-11887000Y4023750D01*
X-11887000Y5373000D01*
X-11907000Y5373000D01*
X-11907000Y5627000D01*
X-11887000Y5627000D01*
X-11887000Y6976250D01*
X-12045750Y7135000D01*
X-12210000Y7138072D01*
X-12284721Y7130713D01*
X-12221243Y20863035D01*
X-12210000Y20861928D01*
X-12045750Y20865000D01*
X-11887000Y21023750D01*
X-11887000Y22373000D01*
X-11907000Y22373000D01*
X-11907000Y22627000D01*
X-11887000Y22627000D01*
X-11887000Y23976250D01*
X-12045750Y24135000D01*
X-12206105Y24137999D01*
X-12173243Y31247151D01*
X-11547394Y31873000D01*
X-9327000Y31873000D01*
X-9327000Y30000000D01*
G37*
G04 #@! TD.AperFunction*
D24*
X-3968047Y18135009D02*
X-3974250Y18135000D01*
X-4133000Y17976250D01*
X-4133000Y15127000D01*
X-4113000Y15127000D01*
X-4113000Y14873000D01*
X-4133000Y14873000D01*
X-4133000Y12023750D01*
X-4003307Y11894057D01*
X-4010324Y10652000D01*
X-6634534Y10652000D01*
X-6619213Y10688988D01*
X-6598000Y10795633D01*
X-6598000Y10904367D01*
X-6619213Y11011012D01*
X-6660824Y11111470D01*
X-6721234Y11201880D01*
X-6798120Y11278766D01*
X-6888530Y11339176D01*
X-6988988Y11380787D01*
X-7095633Y11402000D01*
X-7133486Y11402000D01*
X-8231486Y12500000D01*
X-7398072Y12500000D01*
X-7385812Y12375518D01*
X-7349502Y12255820D01*
X-7290537Y12145506D01*
X-7211185Y12048815D01*
X-7114494Y11969463D01*
X-7004180Y11910498D01*
X-6884482Y11874188D01*
X-6760000Y11861928D01*
X-4545750Y11865000D01*
X-4387000Y12023750D01*
X-4387000Y14873000D01*
X-7236250Y14873000D01*
X-7395000Y14714250D01*
X-7398072Y12500000D01*
X-8231486Y12500000D01*
X-8448000Y12716513D01*
X-8448000Y17500000D01*
X-7398072Y17500000D01*
X-7395000Y15285750D01*
X-7236250Y15127000D01*
X-4387000Y15127000D01*
X-4387000Y17976250D01*
X-4545750Y18135000D01*
X-6760000Y18138072D01*
X-6884482Y18125812D01*
X-7004180Y18089502D01*
X-7114494Y18030537D01*
X-7211185Y17951185D01*
X-7290537Y17854494D01*
X-7349502Y17744180D01*
X-7385812Y17624482D01*
X-7398072Y17500000D01*
X-8448000Y17500000D01*
X-8448000Y20283487D01*
X-7983486Y20748000D01*
X-4569739Y20748000D01*
X-4550000Y20746056D01*
X-4530261Y20748000D01*
X-4530253Y20748000D01*
X-4471194Y20753817D01*
X-4395417Y20776803D01*
X-4325580Y20814132D01*
X-4264368Y20864368D01*
X-4251777Y20879710D01*
X-3960068Y21171418D01*
X-3950893Y21171418D01*
X-3968047Y18135009D01*
G04 #@! TA.AperFunction,Conductor*
D23*
G36*
X-3968047Y18135009D02*
G01*
X-3974250Y18135000D01*
X-4133000Y17976250D01*
X-4133000Y15127000D01*
X-4113000Y15127000D01*
X-4113000Y14873000D01*
X-4133000Y14873000D01*
X-4133000Y12023750D01*
X-4003307Y11894057D01*
X-4010324Y10652000D01*
X-6634534Y10652000D01*
X-6619213Y10688988D01*
X-6598000Y10795633D01*
X-6598000Y10904367D01*
X-6619213Y11011012D01*
X-6660824Y11111470D01*
X-6721234Y11201880D01*
X-6798120Y11278766D01*
X-6888530Y11339176D01*
X-6988988Y11380787D01*
X-7095633Y11402000D01*
X-7133486Y11402000D01*
X-8231486Y12500000D01*
X-7398072Y12500000D01*
X-7385812Y12375518D01*
X-7349502Y12255820D01*
X-7290537Y12145506D01*
X-7211185Y12048815D01*
X-7114494Y11969463D01*
X-7004180Y11910498D01*
X-6884482Y11874188D01*
X-6760000Y11861928D01*
X-4545750Y11865000D01*
X-4387000Y12023750D01*
X-4387000Y14873000D01*
X-7236250Y14873000D01*
X-7395000Y14714250D01*
X-7398072Y12500000D01*
X-8231486Y12500000D01*
X-8448000Y12716513D01*
X-8448000Y17500000D01*
X-7398072Y17500000D01*
X-7395000Y15285750D01*
X-7236250Y15127000D01*
X-4387000Y15127000D01*
X-4387000Y17976250D01*
X-4545750Y18135000D01*
X-6760000Y18138072D01*
X-6884482Y18125812D01*
X-7004180Y18089502D01*
X-7114494Y18030537D01*
X-7211185Y17951185D01*
X-7290537Y17854494D01*
X-7349502Y17744180D01*
X-7385812Y17624482D01*
X-7398072Y17500000D01*
X-8448000Y17500000D01*
X-8448000Y20283487D01*
X-7983486Y20748000D01*
X-4569739Y20748000D01*
X-4550000Y20746056D01*
X-4530261Y20748000D01*
X-4530253Y20748000D01*
X-4471194Y20753817D01*
X-4395417Y20776803D01*
X-4325580Y20814132D01*
X-4264368Y20864368D01*
X-4251777Y20879710D01*
X-3960068Y21171418D01*
X-3950893Y21171418D01*
X-3968047Y18135009D01*
G37*
G04 #@! TD.AperFunction*
D24*
X-2083109Y3773906D02*
X-3359333Y2066407D01*
X-4044147Y3189183D01*
X-2225914Y3937867D01*
X-2083109Y3773906D01*
G04 #@! TA.AperFunction,Conductor*
D23*
G36*
X-2083109Y3773906D02*
G01*
X-3359333Y2066407D01*
X-4044147Y3189183D01*
X-2225914Y3937867D01*
X-2083109Y3773906D01*
G37*
G04 #@! TD.AperFunction*
M02*
