G04 #@! TF.GenerationSoftware,KiCad,Pcbnew,5.1.9+dfsg1-1*
G04 #@! TF.CreationDate,2022-04-17T13:51:57+02:00*
G04 #@! TF.ProjectId,edgedriver,65646765-6472-4697-9665-722e6b696361,rev?*
G04 #@! TF.SameCoordinates,Original*
G04 #@! TF.FileFunction,Copper,L3,Inr*
G04 #@! TF.FilePolarity,Positive*
%FSLAX46Y46*%
G04 Gerber Fmt 4.6, Leading zero omitted, Abs format (unit mm)*
G04 Created by KiCad (PCBNEW 5.1.9+dfsg1-1) date 2022-04-17 13:51:57*
%MOMM*%
%LPD*%
G01*
G04 APERTURE LIST*
G04 #@! TA.AperFunction,ComponentPad*
%ADD10O,1.600000X1.000000*%
G04 #@! TD*
G04 #@! TA.AperFunction,ComponentPad*
%ADD11O,2.100000X1.000000*%
G04 #@! TD*
G04 #@! TA.AperFunction,ComponentPad*
%ADD12C,1.700000*%
G04 #@! TD*
G04 #@! TA.AperFunction,ComponentPad*
%ADD13O,1.700000X1.700000*%
G04 #@! TD*
G04 #@! TA.AperFunction,ViaPad*
%ADD14C,0.600000*%
G04 #@! TD*
G04 #@! TA.AperFunction,ViaPad*
%ADD15C,0.450000*%
G04 #@! TD*
G04 #@! TA.AperFunction,Conductor*
%ADD16C,0.254000*%
G04 #@! TD*
G04 #@! TA.AperFunction,Conductor*
%ADD17C,0.100000*%
G04 #@! TD*
G04 APERTURE END LIST*
D10*
X9950000Y17220000D03*
X9950000Y8580000D03*
D11*
X5770000Y8580000D03*
X5770000Y17220000D03*
D12*
X-11430000Y2540000D03*
D13*
X-11430000Y0D03*
D12*
X-3810000Y2540000D03*
D13*
X-1270000Y2540000D03*
X1270000Y2540000D03*
X3810000Y2540000D03*
D12*
X-8890000Y0D03*
D13*
X-6350000Y0D03*
X-3810000Y0D03*
X-1270000Y0D03*
X1270000Y0D03*
X3810000Y0D03*
X6350000Y0D03*
X8890000Y0D03*
D14*
X-4000000Y26000000D03*
X-5500000Y26000000D03*
X-7000000Y26000000D03*
X-7000000Y27500000D03*
X-5500000Y27500000D03*
X-4000000Y27500000D03*
X-7000000Y29000000D03*
X-8500000Y27500000D03*
X-8500000Y29000000D03*
X-8500000Y26000000D03*
X2300000Y20900000D03*
X6700000Y21000000D03*
X-11600000Y15800000D03*
X-6300000Y14200000D03*
X-11290000Y7300000D03*
X-10000000Y7300000D03*
X-2300000Y11900000D03*
X-10000000Y14600000D03*
D15*
X-5850000Y10750000D03*
D14*
X-10400000Y12900000D03*
X-11900000Y12900000D03*
X-11450000Y11300000D03*
X-9900000Y11350000D03*
X-9650000Y3650000D03*
D15*
X-7400000Y8500000D03*
D14*
X-2700000Y14200000D03*
X1900000Y7900000D03*
X-8100000Y18550000D03*
X-8100000Y17050000D03*
X-4900000Y17000000D03*
X-4900000Y18550000D03*
D15*
X-3300000Y8200000D03*
X-1650000Y8050000D03*
X6100000Y14900000D03*
X6100000Y10900000D03*
X7800000Y20700000D03*
D14*
X8500000Y27500000D03*
X7000000Y27500000D03*
X7000000Y29000000D03*
X7000000Y26000000D03*
X8500000Y29000000D03*
X5500000Y27500000D03*
X5500000Y26000000D03*
X8500000Y26000000D03*
X10350000Y9800000D03*
X6950000Y10750000D03*
X9400000Y7500000D03*
X6600000Y3900000D03*
X9400000Y4000000D03*
X11400000Y3900000D03*
X-9900000Y25100000D03*
X-9795000Y20650000D03*
D15*
X-354990Y10250000D03*
X-2300000Y3800000D03*
X-3300000Y7500000D03*
X-1700000Y7350000D03*
X1212203Y8129265D03*
X3942500Y7642500D03*
X2010000Y15770000D03*
X1500000Y18160000D03*
X-7150000Y10850000D03*
X-1270010Y14800000D03*
D16*
X-8456000Y31355085D02*
X-8485017Y31300799D01*
X-8514889Y31202322D01*
X-8524976Y31099910D01*
X-8514889Y30997498D01*
X-8485017Y30899021D01*
X-8436506Y30808265D01*
X-8371222Y30728716D01*
X-8291673Y30663432D01*
X-8200917Y30614921D01*
X-8102440Y30585049D01*
X-8025684Y30577489D01*
X-6172204Y30577489D01*
X-6172205Y29125691D01*
X-6174732Y29100034D01*
X-6164645Y28997622D01*
X-6134773Y28899145D01*
X-6086262Y28808389D01*
X-6020978Y28728840D01*
X-5941429Y28663556D01*
X-5850673Y28615045D01*
X-5752196Y28585173D01*
X-5649784Y28575086D01*
X-5624128Y28577613D01*
X-2772412Y28577613D01*
X-2772413Y26125354D01*
X-2774940Y26099698D01*
X-2764853Y25997286D01*
X-2734981Y25898809D01*
X-2686470Y25808053D01*
X-2621186Y25728504D01*
X-2541637Y25663220D01*
X-2450881Y25614709D01*
X-2352404Y25584837D01*
X-2249992Y25574750D01*
X-2224336Y25577277D01*
X2224336Y25577277D01*
X2249992Y25574750D01*
X2275648Y25577277D01*
X2352404Y25584837D01*
X2450881Y25614709D01*
X2541637Y25663220D01*
X2621186Y25728504D01*
X2686470Y25808053D01*
X2734981Y25898809D01*
X2764853Y25997286D01*
X2774940Y26099698D01*
X2772413Y26125354D01*
X2772413Y28577613D01*
X5623611Y28577613D01*
X5649267Y28575086D01*
X5674923Y28577613D01*
X5751679Y28585173D01*
X5850156Y28615045D01*
X5940912Y28663556D01*
X6020461Y28728840D01*
X6085745Y28808389D01*
X6134256Y28899145D01*
X6164128Y28997622D01*
X6174215Y29100034D01*
X6171688Y29125690D01*
X6171688Y30577489D01*
X8025168Y30577489D01*
X8101924Y30585049D01*
X8200401Y30614921D01*
X8291157Y30663432D01*
X8370706Y30728716D01*
X8435990Y30808265D01*
X8484501Y30899021D01*
X8514373Y30997498D01*
X8524460Y31099910D01*
X8514373Y31202322D01*
X8484501Y31300799D01*
X8456000Y31354120D01*
X8456000Y32544000D01*
X11641273Y32544000D01*
X12244001Y31941964D01*
X12244000Y-192118D01*
X11622119Y-814000D01*
X4736897Y-814000D01*
X4766180Y-784717D01*
X4900898Y-583097D01*
X4993693Y-359069D01*
X5041000Y-121243D01*
X5041000Y121243D01*
X4993693Y359069D01*
X4900898Y583097D01*
X4766180Y784717D01*
X4594717Y956180D01*
X4393097Y1090898D01*
X4169069Y1183693D01*
X3931243Y1231000D01*
X3688757Y1231000D01*
X3450931Y1183693D01*
X3226903Y1090898D01*
X3025283Y956180D01*
X2853820Y784717D01*
X2719102Y583097D01*
X2626307Y359069D01*
X2579000Y121243D01*
X2579000Y-121243D01*
X2626307Y-359069D01*
X2719102Y-583097D01*
X2853820Y-784717D01*
X2883103Y-814000D01*
X2196897Y-814000D01*
X2226180Y-784717D01*
X2360898Y-583097D01*
X2453693Y-359069D01*
X2501000Y-121243D01*
X2501000Y121243D01*
X2453693Y359069D01*
X2360898Y583097D01*
X2226180Y784717D01*
X2054717Y956180D01*
X1853097Y1090898D01*
X1629069Y1183693D01*
X1391243Y1231000D01*
X1148757Y1231000D01*
X910931Y1183693D01*
X686903Y1090898D01*
X485283Y956180D01*
X313820Y784717D01*
X179102Y583097D01*
X86307Y359069D01*
X39000Y121243D01*
X39000Y-121243D01*
X86307Y-359069D01*
X179102Y-583097D01*
X313820Y-784717D01*
X343103Y-814000D01*
X-343103Y-814000D01*
X-313820Y-784717D01*
X-179102Y-583097D01*
X-86307Y-359069D01*
X-39000Y-121243D01*
X-39000Y121243D01*
X-86307Y359069D01*
X-179102Y583097D01*
X-313820Y784717D01*
X-485283Y956180D01*
X-686903Y1090898D01*
X-910931Y1183693D01*
X-1148757Y1231000D01*
X-1391243Y1231000D01*
X-1629069Y1183693D01*
X-1853097Y1090898D01*
X-2054717Y956180D01*
X-2226180Y784717D01*
X-2360898Y583097D01*
X-2453693Y359069D01*
X-2501000Y121243D01*
X-2501000Y-121243D01*
X-2453693Y-359069D01*
X-2360898Y-583097D01*
X-2226180Y-784717D01*
X-2196897Y-814000D01*
X-2883103Y-814000D01*
X-2853820Y-784717D01*
X-2719102Y-583097D01*
X-2626307Y-359069D01*
X-2579000Y-121243D01*
X-2579000Y121243D01*
X-2626307Y359069D01*
X-2719102Y583097D01*
X-2853820Y784717D01*
X-3025283Y956180D01*
X-3226903Y1090898D01*
X-3450931Y1183693D01*
X-3688757Y1231000D01*
X-3931243Y1231000D01*
X-4169069Y1183693D01*
X-4393097Y1090898D01*
X-4594717Y956180D01*
X-4766180Y784717D01*
X-4900898Y583097D01*
X-4993693Y359069D01*
X-5041000Y121243D01*
X-5041000Y-121243D01*
X-4993693Y-359069D01*
X-4900898Y-583097D01*
X-4766180Y-784717D01*
X-4736897Y-814000D01*
X-5423103Y-814000D01*
X-5393820Y-784717D01*
X-5259102Y-583097D01*
X-5166307Y-359069D01*
X-5119000Y-121243D01*
X-5119000Y121243D01*
X-5166307Y359069D01*
X-5259102Y583097D01*
X-5393820Y784717D01*
X-5565283Y956180D01*
X-5766903Y1090898D01*
X-5990931Y1183693D01*
X-6228757Y1231000D01*
X-6471243Y1231000D01*
X-6709069Y1183693D01*
X-6933097Y1090898D01*
X-7134717Y956180D01*
X-7306180Y784717D01*
X-7440898Y583097D01*
X-7533693Y359069D01*
X-7581000Y121243D01*
X-7581000Y-121243D01*
X-7533693Y-359069D01*
X-7440898Y-583097D01*
X-7306180Y-784717D01*
X-7276897Y-814000D01*
X-7963103Y-814000D01*
X-7933820Y-784717D01*
X-7799102Y-583097D01*
X-7706307Y-359069D01*
X-7659000Y-121243D01*
X-7659000Y121243D01*
X-7706307Y359069D01*
X-7799102Y583097D01*
X-7933820Y784717D01*
X-8105283Y956180D01*
X-8306903Y1090898D01*
X-8530931Y1183693D01*
X-8768757Y1231000D01*
X-9011243Y1231000D01*
X-9249069Y1183693D01*
X-9473097Y1090898D01*
X-9674717Y956180D01*
X-9846180Y784717D01*
X-9980898Y583097D01*
X-10073693Y359069D01*
X-10121000Y121243D01*
X-10121000Y-121243D01*
X-10073693Y-359069D01*
X-9980898Y-583097D01*
X-9846180Y-784717D01*
X-9816897Y-814000D01*
X-10503103Y-814000D01*
X-10473820Y-784717D01*
X-10339102Y-583097D01*
X-10246307Y-359069D01*
X-10199000Y-121243D01*
X-10199000Y121243D01*
X-10246307Y359069D01*
X-10339102Y583097D01*
X-10473820Y784717D01*
X-10645283Y956180D01*
X-10846903Y1090898D01*
X-11070931Y1183693D01*
X-11308757Y1231000D01*
X-11551243Y1231000D01*
X-11789069Y1183693D01*
X-12013097Y1090898D01*
X-12214717Y956180D01*
X-12244000Y926897D01*
X-12244000Y1613103D01*
X-12214717Y1583820D01*
X-12013097Y1449102D01*
X-11789069Y1356307D01*
X-11551243Y1309000D01*
X-11308757Y1309000D01*
X-11070931Y1356307D01*
X-10846903Y1449102D01*
X-10645283Y1583820D01*
X-10473820Y1755283D01*
X-10339102Y1956903D01*
X-10246307Y2180931D01*
X-10199000Y2418757D01*
X-10199000Y2661243D01*
X-5041000Y2661243D01*
X-5041000Y2418757D01*
X-4993693Y2180931D01*
X-4900898Y1956903D01*
X-4766180Y1755283D01*
X-4594717Y1583820D01*
X-4393097Y1449102D01*
X-4169069Y1356307D01*
X-3931243Y1309000D01*
X-3688757Y1309000D01*
X-3450931Y1356307D01*
X-3226903Y1449102D01*
X-3025283Y1583820D01*
X-2853820Y1755283D01*
X-2719102Y1956903D01*
X-2626307Y2180931D01*
X-2579000Y2418757D01*
X-2579000Y2661243D01*
X-2626307Y2899069D01*
X-2719102Y3123097D01*
X-2853820Y3324717D01*
X-3025283Y3496180D01*
X-3226903Y3630898D01*
X-3450931Y3723693D01*
X-3688757Y3771000D01*
X-3931243Y3771000D01*
X-4169069Y3723693D01*
X-4393097Y3630898D01*
X-4594717Y3496180D01*
X-4766180Y3324717D01*
X-4900898Y3123097D01*
X-4993693Y2899069D01*
X-5041000Y2661243D01*
X-10199000Y2661243D01*
X-10246307Y2899069D01*
X-10339102Y3123097D01*
X-10473820Y3324717D01*
X-10645283Y3496180D01*
X-10846903Y3630898D01*
X-11054948Y3717073D01*
X-10331000Y3717073D01*
X-10331000Y3582927D01*
X-10304829Y3451360D01*
X-10253494Y3327426D01*
X-10178967Y3215888D01*
X-10084112Y3121033D01*
X-9972574Y3046506D01*
X-9848640Y2995171D01*
X-9717073Y2969000D01*
X-9582927Y2969000D01*
X-9451360Y2995171D01*
X-9327426Y3046506D01*
X-9215888Y3121033D01*
X-9121033Y3215888D01*
X-9046506Y3327426D01*
X-8995171Y3451360D01*
X-8969000Y3582927D01*
X-8969000Y3717073D01*
X-8995171Y3848640D01*
X-8999746Y3859686D01*
X-2906000Y3859686D01*
X-2906000Y3740314D01*
X-2882712Y3623236D01*
X-2837030Y3512951D01*
X-2770711Y3413698D01*
X-2686302Y3329289D01*
X-2587049Y3262970D01*
X-2476764Y3217288D01*
X-2359686Y3194000D01*
X-2313522Y3194000D01*
X-2360898Y3123097D01*
X-2453693Y2899069D01*
X-2501000Y2661243D01*
X-2501000Y2418757D01*
X-2453693Y2180931D01*
X-2360898Y1956903D01*
X-2226180Y1755283D01*
X-2054717Y1583820D01*
X-1853097Y1449102D01*
X-1629069Y1356307D01*
X-1391243Y1309000D01*
X-1148757Y1309000D01*
X-910931Y1356307D01*
X-686903Y1449102D01*
X-485283Y1583820D01*
X-313820Y1755283D01*
X-179102Y1956903D01*
X-86307Y2180931D01*
X-39000Y2418757D01*
X-39000Y2661243D01*
X39000Y2661243D01*
X39000Y2418757D01*
X86307Y2180931D01*
X179102Y1956903D01*
X313820Y1755283D01*
X485283Y1583820D01*
X686903Y1449102D01*
X910931Y1356307D01*
X1148757Y1309000D01*
X1391243Y1309000D01*
X1629069Y1356307D01*
X1853097Y1449102D01*
X2054717Y1583820D01*
X2226180Y1755283D01*
X2360898Y1956903D01*
X2453693Y2180931D01*
X2501000Y2418757D01*
X2501000Y2661243D01*
X2579000Y2661243D01*
X2579000Y2418757D01*
X2626307Y2180931D01*
X2719102Y1956903D01*
X2853820Y1755283D01*
X3025283Y1583820D01*
X3226903Y1449102D01*
X3450931Y1356307D01*
X3688757Y1309000D01*
X3931243Y1309000D01*
X4169069Y1356307D01*
X4393097Y1449102D01*
X4594717Y1583820D01*
X4766180Y1755283D01*
X4900898Y1956903D01*
X4993693Y2180931D01*
X5041000Y2418757D01*
X5041000Y2661243D01*
X4993693Y2899069D01*
X4900898Y3123097D01*
X4766180Y3324717D01*
X4594717Y3496180D01*
X4393097Y3630898D01*
X4169069Y3723693D01*
X3931243Y3771000D01*
X3688757Y3771000D01*
X3450931Y3723693D01*
X3226903Y3630898D01*
X3025283Y3496180D01*
X2853820Y3324717D01*
X2719102Y3123097D01*
X2626307Y2899069D01*
X2579000Y2661243D01*
X2501000Y2661243D01*
X2453693Y2899069D01*
X2360898Y3123097D01*
X2226180Y3324717D01*
X2054717Y3496180D01*
X1853097Y3630898D01*
X1629069Y3723693D01*
X1391243Y3771000D01*
X1148757Y3771000D01*
X910931Y3723693D01*
X686903Y3630898D01*
X485283Y3496180D01*
X313820Y3324717D01*
X179102Y3123097D01*
X86307Y2899069D01*
X39000Y2661243D01*
X-39000Y2661243D01*
X-86307Y2899069D01*
X-179102Y3123097D01*
X-313820Y3324717D01*
X-485283Y3496180D01*
X-686903Y3630898D01*
X-910931Y3723693D01*
X-1148757Y3771000D01*
X-1391243Y3771000D01*
X-1629069Y3723693D01*
X-1703433Y3692891D01*
X-1694000Y3740314D01*
X-1694000Y3859686D01*
X-1717288Y3976764D01*
X-1762970Y4087049D01*
X-1829289Y4186302D01*
X-1913698Y4270711D01*
X-2012951Y4337030D01*
X-2123236Y4382712D01*
X-2240314Y4406000D01*
X-2359686Y4406000D01*
X-2476764Y4382712D01*
X-2587049Y4337030D01*
X-2686302Y4270711D01*
X-2770711Y4186302D01*
X-2837030Y4087049D01*
X-2882712Y3976764D01*
X-2906000Y3859686D01*
X-8999746Y3859686D01*
X-9046506Y3972574D01*
X-9121033Y4084112D01*
X-9215888Y4178967D01*
X-9327426Y4253494D01*
X-9451360Y4304829D01*
X-9582927Y4331000D01*
X-9717073Y4331000D01*
X-9848640Y4304829D01*
X-9972574Y4253494D01*
X-10084112Y4178967D01*
X-10178967Y4084112D01*
X-10253494Y3972574D01*
X-10304829Y3848640D01*
X-10331000Y3717073D01*
X-11054948Y3717073D01*
X-11070931Y3723693D01*
X-11308757Y3771000D01*
X-11551243Y3771000D01*
X-11789069Y3723693D01*
X-12013097Y3630898D01*
X-12214717Y3496180D01*
X-12244000Y3466897D01*
X-12244000Y7367073D01*
X-11971000Y7367073D01*
X-11971000Y7232927D01*
X-11944829Y7101360D01*
X-11893494Y6977426D01*
X-11818967Y6865888D01*
X-11724112Y6771033D01*
X-11612574Y6696506D01*
X-11488640Y6645171D01*
X-11357073Y6619000D01*
X-11222927Y6619000D01*
X-11091360Y6645171D01*
X-10967426Y6696506D01*
X-10855888Y6771033D01*
X-10761033Y6865888D01*
X-10686506Y6977426D01*
X-10645000Y7077631D01*
X-10603494Y6977426D01*
X-10528967Y6865888D01*
X-10434112Y6771033D01*
X-10322574Y6696506D01*
X-10198640Y6645171D01*
X-10067073Y6619000D01*
X-9932927Y6619000D01*
X-9801360Y6645171D01*
X-9677426Y6696506D01*
X-9565888Y6771033D01*
X-9471033Y6865888D01*
X-9396506Y6977426D01*
X-9345171Y7101360D01*
X-9319000Y7232927D01*
X-9319000Y7367073D01*
X-9345171Y7498640D01*
X-9396506Y7622574D01*
X-9471033Y7734112D01*
X-9565888Y7828967D01*
X-9677426Y7903494D01*
X-9801360Y7954829D01*
X-9932927Y7981000D01*
X-10067073Y7981000D01*
X-10198640Y7954829D01*
X-10322574Y7903494D01*
X-10434112Y7828967D01*
X-10528967Y7734112D01*
X-10603494Y7622574D01*
X-10645000Y7522369D01*
X-10686506Y7622574D01*
X-10761033Y7734112D01*
X-10855888Y7828967D01*
X-10967426Y7903494D01*
X-11091360Y7954829D01*
X-11222927Y7981000D01*
X-11357073Y7981000D01*
X-11488640Y7954829D01*
X-11612574Y7903494D01*
X-11724112Y7828967D01*
X-11818967Y7734112D01*
X-11893494Y7622574D01*
X-11944829Y7498640D01*
X-11971000Y7367073D01*
X-12244000Y7367073D01*
X-12244000Y8559686D01*
X-8006000Y8559686D01*
X-8006000Y8440314D01*
X-7982712Y8323236D01*
X-7937030Y8212951D01*
X-7870711Y8113698D01*
X-7786302Y8029289D01*
X-7687049Y7962970D01*
X-7576764Y7917288D01*
X-7459686Y7894000D01*
X-7340314Y7894000D01*
X-7223236Y7917288D01*
X-7112951Y7962970D01*
X-7013698Y8029289D01*
X-6929289Y8113698D01*
X-6862970Y8212951D01*
X-6843612Y8259686D01*
X-3906000Y8259686D01*
X-3906000Y8140314D01*
X-3882712Y8023236D01*
X-3837030Y7912951D01*
X-3794967Y7850000D01*
X-3837030Y7787049D01*
X-3882712Y7676764D01*
X-3906000Y7559686D01*
X-3906000Y7440314D01*
X-3882712Y7323236D01*
X-3837030Y7212951D01*
X-3770711Y7113698D01*
X-3686302Y7029289D01*
X-3587049Y6962970D01*
X-3476764Y6917288D01*
X-3359686Y6894000D01*
X-3240314Y6894000D01*
X-3123236Y6917288D01*
X-3012951Y6962970D01*
X-2913698Y7029289D01*
X-2829289Y7113698D01*
X-2762970Y7212951D01*
X-2717288Y7323236D01*
X-2700093Y7409686D01*
X-2306000Y7409686D01*
X-2306000Y7290314D01*
X-2282712Y7173236D01*
X-2237030Y7062951D01*
X-2170711Y6963698D01*
X-2086302Y6879289D01*
X-1987049Y6812970D01*
X-1876764Y6767288D01*
X-1759686Y6744000D01*
X-1640314Y6744000D01*
X-1523236Y6767288D01*
X-1412951Y6812970D01*
X-1313698Y6879289D01*
X-1229289Y6963698D01*
X-1162970Y7062951D01*
X-1117288Y7173236D01*
X-1094000Y7290314D01*
X-1094000Y7409686D01*
X-1117288Y7526764D01*
X-1162970Y7637049D01*
X-1180181Y7662806D01*
X-1179289Y7663698D01*
X-1112970Y7762951D01*
X-1067288Y7873236D01*
X-1044000Y7990314D01*
X-1044000Y8109686D01*
X-1059766Y8188951D01*
X606203Y8188951D01*
X606203Y8069579D01*
X629491Y7952501D01*
X675173Y7842216D01*
X741492Y7742963D01*
X825901Y7658554D01*
X925154Y7592235D01*
X1035439Y7546553D01*
X1152517Y7523265D01*
X1271889Y7523265D01*
X1325562Y7533941D01*
X1371033Y7465888D01*
X1465888Y7371033D01*
X1577426Y7296506D01*
X1701360Y7245171D01*
X1832927Y7219000D01*
X1967073Y7219000D01*
X2098640Y7245171D01*
X2222574Y7296506D01*
X2334112Y7371033D01*
X2428967Y7465888D01*
X2503494Y7577426D01*
X2554829Y7701360D01*
X2554993Y7702186D01*
X3336500Y7702186D01*
X3336500Y7582814D01*
X3359788Y7465736D01*
X3405470Y7355451D01*
X3471789Y7256198D01*
X3556198Y7171789D01*
X3655451Y7105470D01*
X3765736Y7059788D01*
X3882814Y7036500D01*
X4002186Y7036500D01*
X4119264Y7059788D01*
X4229549Y7105470D01*
X4328802Y7171789D01*
X4413211Y7256198D01*
X4479530Y7355451D01*
X4525212Y7465736D01*
X4548500Y7582814D01*
X4548500Y7702186D01*
X4525212Y7819264D01*
X4479530Y7929549D01*
X4413211Y8028802D01*
X4328802Y8113211D01*
X4229549Y8179530D01*
X4119264Y8225212D01*
X4002186Y8248500D01*
X3882814Y8248500D01*
X3765736Y8225212D01*
X3655451Y8179530D01*
X3556198Y8113211D01*
X3471789Y8028802D01*
X3405470Y7929549D01*
X3359788Y7819264D01*
X3336500Y7702186D01*
X2554993Y7702186D01*
X2581000Y7832927D01*
X2581000Y7967073D01*
X2554829Y8098640D01*
X2503494Y8222574D01*
X2428967Y8334112D01*
X2334112Y8428967D01*
X2222574Y8503494D01*
X2098640Y8554829D01*
X1972101Y8580000D01*
X4334738Y8580000D01*
X4351748Y8407294D01*
X4402125Y8241225D01*
X4483932Y8088175D01*
X4594025Y7954025D01*
X4728175Y7843932D01*
X4881225Y7762125D01*
X5047294Y7711748D01*
X5176727Y7699000D01*
X6363273Y7699000D01*
X6492706Y7711748D01*
X6658775Y7762125D01*
X6811825Y7843932D01*
X6945975Y7954025D01*
X7056068Y8088175D01*
X7137875Y8241225D01*
X7188252Y8407294D01*
X7205262Y8580000D01*
X8764738Y8580000D01*
X8781748Y8407294D01*
X8832125Y8241225D01*
X8913932Y8088175D01*
X9024025Y7954025D01*
X9158175Y7843932D01*
X9311225Y7762125D01*
X9477294Y7711748D01*
X9606727Y7699000D01*
X10293273Y7699000D01*
X10422706Y7711748D01*
X10588775Y7762125D01*
X10741825Y7843932D01*
X10875975Y7954025D01*
X10986068Y8088175D01*
X11067875Y8241225D01*
X11118252Y8407294D01*
X11135262Y8580000D01*
X11118252Y8752706D01*
X11067875Y8918775D01*
X10986068Y9071825D01*
X10875975Y9205975D01*
X10741825Y9316068D01*
X10588775Y9397875D01*
X10422706Y9448252D01*
X10293273Y9461000D01*
X9606727Y9461000D01*
X9477294Y9448252D01*
X9311225Y9397875D01*
X9158175Y9316068D01*
X9024025Y9205975D01*
X8913932Y9071825D01*
X8832125Y8918775D01*
X8781748Y8752706D01*
X8764738Y8580000D01*
X7205262Y8580000D01*
X7188252Y8752706D01*
X7137875Y8918775D01*
X7056068Y9071825D01*
X6945975Y9205975D01*
X6811825Y9316068D01*
X6658775Y9397875D01*
X6655942Y9398734D01*
X6750049Y9461614D01*
X6848386Y9559951D01*
X6925649Y9675584D01*
X6978869Y9804067D01*
X7006000Y9940465D01*
X7006000Y10079535D01*
X6978869Y10215933D01*
X6925649Y10344416D01*
X6848386Y10460049D01*
X6750049Y10558386D01*
X6643827Y10629361D01*
X6682712Y10723236D01*
X6706000Y10840314D01*
X6706000Y10959686D01*
X6682712Y11076764D01*
X6637030Y11187049D01*
X6570711Y11286302D01*
X6486302Y11370711D01*
X6387049Y11437030D01*
X6276764Y11482712D01*
X6159686Y11506000D01*
X6040314Y11506000D01*
X5923236Y11482712D01*
X5812951Y11437030D01*
X5713698Y11370711D01*
X5629289Y11286302D01*
X5562970Y11187049D01*
X5517288Y11076764D01*
X5494000Y10959686D01*
X5494000Y10840314D01*
X5517288Y10723236D01*
X5562970Y10612951D01*
X5629289Y10513698D01*
X5713698Y10429289D01*
X5725702Y10421268D01*
X5674351Y10344416D01*
X5621131Y10215933D01*
X5594000Y10079535D01*
X5594000Y9940465D01*
X5621131Y9804067D01*
X5674351Y9675584D01*
X5751614Y9559951D01*
X5849951Y9461614D01*
X5850870Y9461000D01*
X5176727Y9461000D01*
X5047294Y9448252D01*
X4881225Y9397875D01*
X4728175Y9316068D01*
X4594025Y9205975D01*
X4483932Y9071825D01*
X4402125Y8918775D01*
X4351748Y8752706D01*
X4334738Y8580000D01*
X1972101Y8580000D01*
X1967073Y8581000D01*
X1832927Y8581000D01*
X1701360Y8554829D01*
X1660554Y8537927D01*
X1598505Y8599976D01*
X1499252Y8666295D01*
X1388967Y8711977D01*
X1271889Y8735265D01*
X1152517Y8735265D01*
X1035439Y8711977D01*
X925154Y8666295D01*
X825901Y8599976D01*
X741492Y8515567D01*
X675173Y8416314D01*
X629491Y8306029D01*
X606203Y8188951D01*
X-1059766Y8188951D01*
X-1067288Y8226764D01*
X-1112970Y8337049D01*
X-1179289Y8436302D01*
X-1263698Y8520711D01*
X-1362951Y8587030D01*
X-1473236Y8632712D01*
X-1590314Y8656000D01*
X-1709686Y8656000D01*
X-1826764Y8632712D01*
X-1937049Y8587030D01*
X-2036302Y8520711D01*
X-2120711Y8436302D01*
X-2187030Y8337049D01*
X-2232712Y8226764D01*
X-2256000Y8109686D01*
X-2256000Y7990314D01*
X-2232712Y7873236D01*
X-2187030Y7762951D01*
X-2169819Y7737194D01*
X-2170711Y7736302D01*
X-2237030Y7637049D01*
X-2282712Y7526764D01*
X-2306000Y7409686D01*
X-2700093Y7409686D01*
X-2694000Y7440314D01*
X-2694000Y7559686D01*
X-2717288Y7676764D01*
X-2762970Y7787049D01*
X-2805033Y7850000D01*
X-2762970Y7912951D01*
X-2717288Y8023236D01*
X-2694000Y8140314D01*
X-2694000Y8259686D01*
X-2717288Y8376764D01*
X-2762970Y8487049D01*
X-2829289Y8586302D01*
X-2913698Y8670711D01*
X-3012951Y8737030D01*
X-3123236Y8782712D01*
X-3240314Y8806000D01*
X-3359686Y8806000D01*
X-3476764Y8782712D01*
X-3587049Y8737030D01*
X-3686302Y8670711D01*
X-3770711Y8586302D01*
X-3837030Y8487049D01*
X-3882712Y8376764D01*
X-3906000Y8259686D01*
X-6843612Y8259686D01*
X-6817288Y8323236D01*
X-6794000Y8440314D01*
X-6794000Y8559686D01*
X-6817288Y8676764D01*
X-6862970Y8787049D01*
X-6929289Y8886302D01*
X-7013698Y8970711D01*
X-7112951Y9037030D01*
X-7223236Y9082712D01*
X-7340314Y9106000D01*
X-7459686Y9106000D01*
X-7576764Y9082712D01*
X-7687049Y9037030D01*
X-7786302Y8970711D01*
X-7870711Y8886302D01*
X-7937030Y8787049D01*
X-7982712Y8676764D01*
X-8006000Y8559686D01*
X-12244000Y8559686D01*
X-12244000Y11367073D01*
X-12131000Y11367073D01*
X-12131000Y11232927D01*
X-12104829Y11101360D01*
X-12053494Y10977426D01*
X-11978967Y10865888D01*
X-11884112Y10771033D01*
X-11772574Y10696506D01*
X-11648640Y10645171D01*
X-11517073Y10619000D01*
X-11382927Y10619000D01*
X-11251360Y10645171D01*
X-11127426Y10696506D01*
X-11015888Y10771033D01*
X-10921033Y10865888D01*
X-10846506Y10977426D01*
X-10795171Y11101360D01*
X-10769000Y11232927D01*
X-10769000Y11367073D01*
X-10778945Y11417073D01*
X-10581000Y11417073D01*
X-10581000Y11282927D01*
X-10554829Y11151360D01*
X-10503494Y11027426D01*
X-10428967Y10915888D01*
X-10334112Y10821033D01*
X-10222574Y10746506D01*
X-10098640Y10695171D01*
X-9967073Y10669000D01*
X-9832927Y10669000D01*
X-9701360Y10695171D01*
X-9577426Y10746506D01*
X-9465888Y10821033D01*
X-9377235Y10909686D01*
X-7756000Y10909686D01*
X-7756000Y10790314D01*
X-7732712Y10673236D01*
X-7687030Y10562951D01*
X-7620711Y10463698D01*
X-7536302Y10379289D01*
X-7437049Y10312970D01*
X-7326764Y10267288D01*
X-7209686Y10244000D01*
X-7090314Y10244000D01*
X-6973236Y10267288D01*
X-6862951Y10312970D01*
X-6763698Y10379289D01*
X-6679289Y10463698D01*
X-6612970Y10562951D01*
X-6567288Y10673236D01*
X-6544000Y10790314D01*
X-6544000Y10809686D01*
X-6456000Y10809686D01*
X-6456000Y10690314D01*
X-6432712Y10573236D01*
X-6387030Y10462951D01*
X-6320711Y10363698D01*
X-6236302Y10279289D01*
X-6137049Y10212970D01*
X-6026764Y10167288D01*
X-5909686Y10144000D01*
X-5790314Y10144000D01*
X-5673236Y10167288D01*
X-5562951Y10212970D01*
X-5463698Y10279289D01*
X-5433301Y10309686D01*
X-960990Y10309686D01*
X-960990Y10190314D01*
X-937702Y10073236D01*
X-892020Y9962951D01*
X-825701Y9863698D01*
X-741292Y9779289D01*
X-642039Y9712970D01*
X-531754Y9667288D01*
X-414676Y9644000D01*
X-295304Y9644000D01*
X-178226Y9667288D01*
X-67941Y9712970D01*
X31312Y9779289D01*
X115721Y9863698D01*
X182040Y9962951D01*
X227722Y10073236D01*
X251010Y10190314D01*
X251010Y10309686D01*
X227722Y10426764D01*
X182040Y10537049D01*
X115721Y10636302D01*
X31312Y10720711D01*
X-67941Y10787030D01*
X-178226Y10832712D01*
X-295304Y10856000D01*
X-414676Y10856000D01*
X-531754Y10832712D01*
X-642039Y10787030D01*
X-741292Y10720711D01*
X-825701Y10636302D01*
X-892020Y10537049D01*
X-937702Y10426764D01*
X-960990Y10309686D01*
X-5433301Y10309686D01*
X-5379289Y10363698D01*
X-5312970Y10462951D01*
X-5267288Y10573236D01*
X-5244000Y10690314D01*
X-5244000Y10809686D01*
X-5267288Y10926764D01*
X-5312970Y11037049D01*
X-5379289Y11136302D01*
X-5463698Y11220711D01*
X-5562951Y11287030D01*
X-5673236Y11332712D01*
X-5790314Y11356000D01*
X-5909686Y11356000D01*
X-6026764Y11332712D01*
X-6137049Y11287030D01*
X-6236302Y11220711D01*
X-6320711Y11136302D01*
X-6387030Y11037049D01*
X-6432712Y10926764D01*
X-6456000Y10809686D01*
X-6544000Y10809686D01*
X-6544000Y10909686D01*
X-6567288Y11026764D01*
X-6612970Y11137049D01*
X-6679289Y11236302D01*
X-6763698Y11320711D01*
X-6862951Y11387030D01*
X-6973236Y11432712D01*
X-7090314Y11456000D01*
X-7209686Y11456000D01*
X-7326764Y11432712D01*
X-7437049Y11387030D01*
X-7536302Y11320711D01*
X-7620711Y11236302D01*
X-7687030Y11137049D01*
X-7732712Y11026764D01*
X-7756000Y10909686D01*
X-9377235Y10909686D01*
X-9371033Y10915888D01*
X-9296506Y11027426D01*
X-9245171Y11151360D01*
X-9219000Y11282927D01*
X-9219000Y11417073D01*
X-9245171Y11548640D01*
X-9296506Y11672574D01*
X-9371033Y11784112D01*
X-9465888Y11878967D01*
X-9577426Y11953494D01*
X-9610208Y11967073D01*
X-2981000Y11967073D01*
X-2981000Y11832927D01*
X-2954829Y11701360D01*
X-2903494Y11577426D01*
X-2828967Y11465888D01*
X-2734112Y11371033D01*
X-2622574Y11296506D01*
X-2498640Y11245171D01*
X-2367073Y11219000D01*
X-2232927Y11219000D01*
X-2101360Y11245171D01*
X-1977426Y11296506D01*
X-1865888Y11371033D01*
X-1771033Y11465888D01*
X-1696506Y11577426D01*
X-1645171Y11701360D01*
X-1619000Y11832927D01*
X-1619000Y11967073D01*
X-1645171Y12098640D01*
X-1696506Y12222574D01*
X-1771033Y12334112D01*
X-1865888Y12428967D01*
X-1977426Y12503494D01*
X-2101360Y12554829D01*
X-2232927Y12581000D01*
X-2367073Y12581000D01*
X-2498640Y12554829D01*
X-2622574Y12503494D01*
X-2734112Y12428967D01*
X-2828967Y12334112D01*
X-2903494Y12222574D01*
X-2954829Y12098640D01*
X-2981000Y11967073D01*
X-9610208Y11967073D01*
X-9701360Y12004829D01*
X-9832927Y12031000D01*
X-9967073Y12031000D01*
X-10098640Y12004829D01*
X-10222574Y11953494D01*
X-10334112Y11878967D01*
X-10428967Y11784112D01*
X-10503494Y11672574D01*
X-10554829Y11548640D01*
X-10581000Y11417073D01*
X-10778945Y11417073D01*
X-10795171Y11498640D01*
X-10846506Y11622574D01*
X-10921033Y11734112D01*
X-11015888Y11828967D01*
X-11127426Y11903494D01*
X-11251360Y11954829D01*
X-11382927Y11981000D01*
X-11517073Y11981000D01*
X-11648640Y11954829D01*
X-11772574Y11903494D01*
X-11884112Y11828967D01*
X-11978967Y11734112D01*
X-12053494Y11622574D01*
X-12104829Y11498640D01*
X-12131000Y11367073D01*
X-12244000Y11367073D01*
X-12244000Y12310822D01*
X-12222574Y12296506D01*
X-12098640Y12245171D01*
X-11967073Y12219000D01*
X-11832927Y12219000D01*
X-11701360Y12245171D01*
X-11577426Y12296506D01*
X-11465888Y12371033D01*
X-11371033Y12465888D01*
X-11296506Y12577426D01*
X-11245171Y12701360D01*
X-11219000Y12832927D01*
X-11219000Y12967073D01*
X-11081000Y12967073D01*
X-11081000Y12832927D01*
X-11054829Y12701360D01*
X-11003494Y12577426D01*
X-10928967Y12465888D01*
X-10834112Y12371033D01*
X-10722574Y12296506D01*
X-10598640Y12245171D01*
X-10467073Y12219000D01*
X-10332927Y12219000D01*
X-10201360Y12245171D01*
X-10077426Y12296506D01*
X-9965888Y12371033D01*
X-9871033Y12465888D01*
X-9796506Y12577426D01*
X-9745171Y12701360D01*
X-9719000Y12832927D01*
X-9719000Y12967073D01*
X-9745171Y13098640D01*
X-9796506Y13222574D01*
X-9871033Y13334112D01*
X-9965888Y13428967D01*
X-10077426Y13503494D01*
X-10201360Y13554829D01*
X-10332927Y13581000D01*
X-10467073Y13581000D01*
X-10598640Y13554829D01*
X-10722574Y13503494D01*
X-10834112Y13428967D01*
X-10928967Y13334112D01*
X-11003494Y13222574D01*
X-11054829Y13098640D01*
X-11081000Y12967073D01*
X-11219000Y12967073D01*
X-11245171Y13098640D01*
X-11296506Y13222574D01*
X-11371033Y13334112D01*
X-11465888Y13428967D01*
X-11577426Y13503494D01*
X-11701360Y13554829D01*
X-11832927Y13581000D01*
X-11967073Y13581000D01*
X-12098640Y13554829D01*
X-12222574Y13503494D01*
X-12244000Y13489178D01*
X-12244000Y14667073D01*
X-10681000Y14667073D01*
X-10681000Y14532927D01*
X-10654829Y14401360D01*
X-10603494Y14277426D01*
X-10528967Y14165888D01*
X-10434112Y14071033D01*
X-10322574Y13996506D01*
X-10198640Y13945171D01*
X-10067073Y13919000D01*
X-9932927Y13919000D01*
X-9801360Y13945171D01*
X-9677426Y13996506D01*
X-9565888Y14071033D01*
X-9471033Y14165888D01*
X-9403424Y14267073D01*
X-6981000Y14267073D01*
X-6981000Y14132927D01*
X-6954829Y14001360D01*
X-6903494Y13877426D01*
X-6828967Y13765888D01*
X-6734112Y13671033D01*
X-6622574Y13596506D01*
X-6498640Y13545171D01*
X-6367073Y13519000D01*
X-6232927Y13519000D01*
X-6101360Y13545171D01*
X-5977426Y13596506D01*
X-5865888Y13671033D01*
X-5771033Y13765888D01*
X-5696506Y13877426D01*
X-5645171Y14001360D01*
X-5619000Y14132927D01*
X-5619000Y14267073D01*
X-3381000Y14267073D01*
X-3381000Y14132927D01*
X-3354829Y14001360D01*
X-3303494Y13877426D01*
X-3228967Y13765888D01*
X-3134112Y13671033D01*
X-3022574Y13596506D01*
X-2898640Y13545171D01*
X-2767073Y13519000D01*
X-2632927Y13519000D01*
X-2501360Y13545171D01*
X-2377426Y13596506D01*
X-2265888Y13671033D01*
X-2171033Y13765888D01*
X-2096506Y13877426D01*
X-2045171Y14001360D01*
X-2019000Y14132927D01*
X-2019000Y14267073D01*
X-2045171Y14398640D01*
X-2096506Y14522574D01*
X-2171033Y14634112D01*
X-2265888Y14728967D01*
X-2377426Y14803494D01*
X-2501360Y14854829D01*
X-2525777Y14859686D01*
X-1876010Y14859686D01*
X-1876010Y14740314D01*
X-1852722Y14623236D01*
X-1807040Y14512951D01*
X-1740721Y14413698D01*
X-1656312Y14329289D01*
X-1557059Y14262970D01*
X-1446774Y14217288D01*
X-1329696Y14194000D01*
X-1210324Y14194000D01*
X-1093246Y14217288D01*
X-982961Y14262970D01*
X-883708Y14329289D01*
X-799299Y14413698D01*
X-732980Y14512951D01*
X-687298Y14623236D01*
X-664010Y14740314D01*
X-664010Y14859686D01*
X-687298Y14976764D01*
X-732980Y15087049D01*
X-799299Y15186302D01*
X-883708Y15270711D01*
X-982961Y15337030D01*
X-1093246Y15382712D01*
X-1210324Y15406000D01*
X-1329696Y15406000D01*
X-1446774Y15382712D01*
X-1557059Y15337030D01*
X-1656312Y15270711D01*
X-1740721Y15186302D01*
X-1807040Y15087049D01*
X-1852722Y14976764D01*
X-1876010Y14859686D01*
X-2525777Y14859686D01*
X-2632927Y14881000D01*
X-2767073Y14881000D01*
X-2898640Y14854829D01*
X-3022574Y14803494D01*
X-3134112Y14728967D01*
X-3228967Y14634112D01*
X-3303494Y14522574D01*
X-3354829Y14398640D01*
X-3381000Y14267073D01*
X-5619000Y14267073D01*
X-5645171Y14398640D01*
X-5696506Y14522574D01*
X-5771033Y14634112D01*
X-5865888Y14728967D01*
X-5977426Y14803494D01*
X-6101360Y14854829D01*
X-6232927Y14881000D01*
X-6367073Y14881000D01*
X-6498640Y14854829D01*
X-6622574Y14803494D01*
X-6734112Y14728967D01*
X-6828967Y14634112D01*
X-6903494Y14522574D01*
X-6954829Y14398640D01*
X-6981000Y14267073D01*
X-9403424Y14267073D01*
X-9396506Y14277426D01*
X-9345171Y14401360D01*
X-9319000Y14532927D01*
X-9319000Y14667073D01*
X-9345171Y14798640D01*
X-9396506Y14922574D01*
X-9471033Y15034112D01*
X-9565888Y15128967D01*
X-9677426Y15203494D01*
X-9801360Y15254829D01*
X-9932927Y15281000D01*
X-10067073Y15281000D01*
X-10198640Y15254829D01*
X-10322574Y15203494D01*
X-10434112Y15128967D01*
X-10528967Y15034112D01*
X-10603494Y14922574D01*
X-10654829Y14798640D01*
X-10681000Y14667073D01*
X-12244000Y14667073D01*
X-12244000Y15575216D01*
X-12203494Y15477426D01*
X-12128967Y15365888D01*
X-12034112Y15271033D01*
X-11922574Y15196506D01*
X-11798640Y15145171D01*
X-11667073Y15119000D01*
X-11532927Y15119000D01*
X-11401360Y15145171D01*
X-11277426Y15196506D01*
X-11165888Y15271033D01*
X-11071033Y15365888D01*
X-10996506Y15477426D01*
X-10945171Y15601360D01*
X-10919000Y15732927D01*
X-10919000Y15829686D01*
X1404000Y15829686D01*
X1404000Y15710314D01*
X1427288Y15593236D01*
X1472970Y15482951D01*
X1539289Y15383698D01*
X1623698Y15299289D01*
X1722951Y15232970D01*
X1833236Y15187288D01*
X1950314Y15164000D01*
X2069686Y15164000D01*
X2186764Y15187288D01*
X2297049Y15232970D01*
X2396302Y15299289D01*
X2480711Y15383698D01*
X2547030Y15482951D01*
X2592712Y15593236D01*
X2616000Y15710314D01*
X2616000Y15829686D01*
X2592712Y15946764D01*
X2547030Y16057049D01*
X2480711Y16156302D01*
X2396302Y16240711D01*
X2297049Y16307030D01*
X2186764Y16352712D01*
X2069686Y16376000D01*
X1950314Y16376000D01*
X1833236Y16352712D01*
X1722951Y16307030D01*
X1623698Y16240711D01*
X1539289Y16156302D01*
X1472970Y16057049D01*
X1427288Y15946764D01*
X1404000Y15829686D01*
X-10919000Y15829686D01*
X-10919000Y15867073D01*
X-10945171Y15998640D01*
X-10996506Y16122574D01*
X-11071033Y16234112D01*
X-11165888Y16328967D01*
X-11277426Y16403494D01*
X-11401360Y16454829D01*
X-11532927Y16481000D01*
X-11667073Y16481000D01*
X-11798640Y16454829D01*
X-11922574Y16403494D01*
X-12034112Y16328967D01*
X-12128967Y16234112D01*
X-12203494Y16122574D01*
X-12244000Y16024784D01*
X-12244000Y17117073D01*
X-8781000Y17117073D01*
X-8781000Y16982927D01*
X-8754829Y16851360D01*
X-8703494Y16727426D01*
X-8628967Y16615888D01*
X-8534112Y16521033D01*
X-8422574Y16446506D01*
X-8298640Y16395171D01*
X-8167073Y16369000D01*
X-8032927Y16369000D01*
X-7901360Y16395171D01*
X-7777426Y16446506D01*
X-7665888Y16521033D01*
X-7571033Y16615888D01*
X-7496506Y16727426D01*
X-7445171Y16851360D01*
X-7419000Y16982927D01*
X-7419000Y17067073D01*
X-5581000Y17067073D01*
X-5581000Y16932927D01*
X-5554829Y16801360D01*
X-5503494Y16677426D01*
X-5428967Y16565888D01*
X-5334112Y16471033D01*
X-5222574Y16396506D01*
X-5098640Y16345171D01*
X-4967073Y16319000D01*
X-4832927Y16319000D01*
X-4701360Y16345171D01*
X-4577426Y16396506D01*
X-4465888Y16471033D01*
X-4371033Y16565888D01*
X-4296506Y16677426D01*
X-4245171Y16801360D01*
X-4219000Y16932927D01*
X-4219000Y17067073D01*
X-4245171Y17198640D01*
X-4254018Y17220000D01*
X4334738Y17220000D01*
X4351748Y17047294D01*
X4402125Y16881225D01*
X4483932Y16728175D01*
X4594025Y16594025D01*
X4728175Y16483932D01*
X4881225Y16402125D01*
X5047294Y16351748D01*
X5176727Y16339000D01*
X5850870Y16339000D01*
X5849951Y16338386D01*
X5751614Y16240049D01*
X5674351Y16124416D01*
X5621131Y15995933D01*
X5594000Y15859535D01*
X5594000Y15720465D01*
X5621131Y15584067D01*
X5674351Y15455584D01*
X5725702Y15378732D01*
X5713698Y15370711D01*
X5629289Y15286302D01*
X5562970Y15187049D01*
X5517288Y15076764D01*
X5494000Y14959686D01*
X5494000Y14840314D01*
X5517288Y14723236D01*
X5562970Y14612951D01*
X5629289Y14513698D01*
X5713698Y14429289D01*
X5812951Y14362970D01*
X5923236Y14317288D01*
X6040314Y14294000D01*
X6159686Y14294000D01*
X6276764Y14317288D01*
X6387049Y14362970D01*
X6486302Y14429289D01*
X6570711Y14513698D01*
X6637030Y14612951D01*
X6682712Y14723236D01*
X6706000Y14840314D01*
X6706000Y14959686D01*
X6682712Y15076764D01*
X6643827Y15170639D01*
X6750049Y15241614D01*
X6848386Y15339951D01*
X6925649Y15455584D01*
X6978869Y15584067D01*
X7006000Y15720465D01*
X7006000Y15859535D01*
X6978869Y15995933D01*
X6925649Y16124416D01*
X6848386Y16240049D01*
X6750049Y16338386D01*
X6655942Y16401266D01*
X6658775Y16402125D01*
X6811825Y16483932D01*
X6945975Y16594025D01*
X7056068Y16728175D01*
X7137875Y16881225D01*
X7188252Y17047294D01*
X7205262Y17220000D01*
X8764738Y17220000D01*
X8781748Y17047294D01*
X8832125Y16881225D01*
X8913932Y16728175D01*
X9024025Y16594025D01*
X9158175Y16483932D01*
X9311225Y16402125D01*
X9477294Y16351748D01*
X9606727Y16339000D01*
X10293273Y16339000D01*
X10422706Y16351748D01*
X10588775Y16402125D01*
X10741825Y16483932D01*
X10875975Y16594025D01*
X10986068Y16728175D01*
X11067875Y16881225D01*
X11118252Y17047294D01*
X11135262Y17220000D01*
X11118252Y17392706D01*
X11067875Y17558775D01*
X10986068Y17711825D01*
X10875975Y17845975D01*
X10741825Y17956068D01*
X10588775Y18037875D01*
X10422706Y18088252D01*
X10293273Y18101000D01*
X9606727Y18101000D01*
X9477294Y18088252D01*
X9311225Y18037875D01*
X9158175Y17956068D01*
X9024025Y17845975D01*
X8913932Y17711825D01*
X8832125Y17558775D01*
X8781748Y17392706D01*
X8764738Y17220000D01*
X7205262Y17220000D01*
X7188252Y17392706D01*
X7137875Y17558775D01*
X7056068Y17711825D01*
X6945975Y17845975D01*
X6811825Y17956068D01*
X6658775Y18037875D01*
X6492706Y18088252D01*
X6363273Y18101000D01*
X5176727Y18101000D01*
X5047294Y18088252D01*
X4881225Y18037875D01*
X4728175Y17956068D01*
X4594025Y17845975D01*
X4483932Y17711825D01*
X4402125Y17558775D01*
X4351748Y17392706D01*
X4334738Y17220000D01*
X-4254018Y17220000D01*
X-4296506Y17322574D01*
X-4371033Y17434112D01*
X-4465888Y17528967D01*
X-4577426Y17603494D01*
X-4701360Y17654829D01*
X-4832927Y17681000D01*
X-4967073Y17681000D01*
X-5098640Y17654829D01*
X-5222574Y17603494D01*
X-5334112Y17528967D01*
X-5428967Y17434112D01*
X-5503494Y17322574D01*
X-5554829Y17198640D01*
X-5581000Y17067073D01*
X-7419000Y17067073D01*
X-7419000Y17117073D01*
X-7445171Y17248640D01*
X-7496506Y17372574D01*
X-7571033Y17484112D01*
X-7665888Y17578967D01*
X-7777426Y17653494D01*
X-7901360Y17704829D01*
X-8032927Y17731000D01*
X-8167073Y17731000D01*
X-8298640Y17704829D01*
X-8422574Y17653494D01*
X-8534112Y17578967D01*
X-8628967Y17484112D01*
X-8703494Y17372574D01*
X-8754829Y17248640D01*
X-8781000Y17117073D01*
X-12244000Y17117073D01*
X-12244000Y18617073D01*
X-8781000Y18617073D01*
X-8781000Y18482927D01*
X-8754829Y18351360D01*
X-8703494Y18227426D01*
X-8628967Y18115888D01*
X-8534112Y18021033D01*
X-8422574Y17946506D01*
X-8298640Y17895171D01*
X-8167073Y17869000D01*
X-8032927Y17869000D01*
X-7901360Y17895171D01*
X-7777426Y17946506D01*
X-7665888Y18021033D01*
X-7571033Y18115888D01*
X-7496506Y18227426D01*
X-7445171Y18351360D01*
X-7419000Y18482927D01*
X-7419000Y18617073D01*
X-5581000Y18617073D01*
X-5581000Y18482927D01*
X-5554829Y18351360D01*
X-5503494Y18227426D01*
X-5428967Y18115888D01*
X-5334112Y18021033D01*
X-5222574Y17946506D01*
X-5098640Y17895171D01*
X-4967073Y17869000D01*
X-4832927Y17869000D01*
X-4701360Y17895171D01*
X-4577426Y17946506D01*
X-4465888Y18021033D01*
X-4371033Y18115888D01*
X-4301678Y18219686D01*
X894000Y18219686D01*
X894000Y18100314D01*
X917288Y17983236D01*
X962970Y17872951D01*
X1029289Y17773698D01*
X1113698Y17689289D01*
X1212951Y17622970D01*
X1323236Y17577288D01*
X1440314Y17554000D01*
X1559686Y17554000D01*
X1676764Y17577288D01*
X1787049Y17622970D01*
X1886302Y17689289D01*
X1970711Y17773698D01*
X2037030Y17872951D01*
X2082712Y17983236D01*
X2106000Y18100314D01*
X2106000Y18219686D01*
X2082712Y18336764D01*
X2037030Y18447049D01*
X1970711Y18546302D01*
X1886302Y18630711D01*
X1787049Y18697030D01*
X1676764Y18742712D01*
X1559686Y18766000D01*
X1440314Y18766000D01*
X1323236Y18742712D01*
X1212951Y18697030D01*
X1113698Y18630711D01*
X1029289Y18546302D01*
X962970Y18447049D01*
X917288Y18336764D01*
X894000Y18219686D01*
X-4301678Y18219686D01*
X-4296506Y18227426D01*
X-4245171Y18351360D01*
X-4219000Y18482927D01*
X-4219000Y18617073D01*
X-4245171Y18748640D01*
X-4296506Y18872574D01*
X-4371033Y18984112D01*
X-4465888Y19078967D01*
X-4577426Y19153494D01*
X-4701360Y19204829D01*
X-4832927Y19231000D01*
X-4967073Y19231000D01*
X-5098640Y19204829D01*
X-5222574Y19153494D01*
X-5334112Y19078967D01*
X-5428967Y18984112D01*
X-5503494Y18872574D01*
X-5554829Y18748640D01*
X-5581000Y18617073D01*
X-7419000Y18617073D01*
X-7445171Y18748640D01*
X-7496506Y18872574D01*
X-7571033Y18984112D01*
X-7665888Y19078967D01*
X-7777426Y19153494D01*
X-7901360Y19204829D01*
X-8032927Y19231000D01*
X-8167073Y19231000D01*
X-8298640Y19204829D01*
X-8422574Y19153494D01*
X-8534112Y19078967D01*
X-8628967Y18984112D01*
X-8703494Y18872574D01*
X-8754829Y18748640D01*
X-8781000Y18617073D01*
X-12244000Y18617073D01*
X-12244000Y20717073D01*
X-10476000Y20717073D01*
X-10476000Y20582927D01*
X-10449829Y20451360D01*
X-10398494Y20327426D01*
X-10323967Y20215888D01*
X-10229112Y20121033D01*
X-10117574Y20046506D01*
X-9993640Y19995171D01*
X-9862073Y19969000D01*
X-9727927Y19969000D01*
X-9596360Y19995171D01*
X-9472426Y20046506D01*
X-9360888Y20121033D01*
X-9266033Y20215888D01*
X-9191506Y20327426D01*
X-9140171Y20451360D01*
X-9114000Y20582927D01*
X-9114000Y20717073D01*
X-9140171Y20848640D01*
X-9189227Y20967073D01*
X1619000Y20967073D01*
X1619000Y20832927D01*
X1645171Y20701360D01*
X1696506Y20577426D01*
X1771033Y20465888D01*
X1865888Y20371033D01*
X1977426Y20296506D01*
X2101360Y20245171D01*
X2232927Y20219000D01*
X2367073Y20219000D01*
X2498640Y20245171D01*
X2622574Y20296506D01*
X2734112Y20371033D01*
X2828967Y20465888D01*
X2903494Y20577426D01*
X2954829Y20701360D01*
X2981000Y20832927D01*
X2981000Y20967073D01*
X2961109Y21067073D01*
X6019000Y21067073D01*
X6019000Y20932927D01*
X6045171Y20801360D01*
X6096506Y20677426D01*
X6171033Y20565888D01*
X6265888Y20471033D01*
X6377426Y20396506D01*
X6501360Y20345171D01*
X6632927Y20319000D01*
X6767073Y20319000D01*
X6898640Y20345171D01*
X7022574Y20396506D01*
X7134112Y20471033D01*
X7212149Y20549070D01*
X7217288Y20523236D01*
X7262970Y20412951D01*
X7329289Y20313698D01*
X7413698Y20229289D01*
X7512951Y20162970D01*
X7623236Y20117288D01*
X7740314Y20094000D01*
X7859686Y20094000D01*
X7976764Y20117288D01*
X8087049Y20162970D01*
X8186302Y20229289D01*
X8270711Y20313698D01*
X8337030Y20412951D01*
X8382712Y20523236D01*
X8406000Y20640314D01*
X8406000Y20759686D01*
X8382712Y20876764D01*
X8337030Y20987049D01*
X8270711Y21086302D01*
X8186302Y21170711D01*
X8087049Y21237030D01*
X7976764Y21282712D01*
X7859686Y21306000D01*
X7740314Y21306000D01*
X7623236Y21282712D01*
X7512951Y21237030D01*
X7413698Y21170711D01*
X7369230Y21126243D01*
X7354829Y21198640D01*
X7303494Y21322574D01*
X7228967Y21434112D01*
X7134112Y21528967D01*
X7022574Y21603494D01*
X6898640Y21654829D01*
X6767073Y21681000D01*
X6632927Y21681000D01*
X6501360Y21654829D01*
X6377426Y21603494D01*
X6265888Y21528967D01*
X6171033Y21434112D01*
X6096506Y21322574D01*
X6045171Y21198640D01*
X6019000Y21067073D01*
X2961109Y21067073D01*
X2954829Y21098640D01*
X2903494Y21222574D01*
X2828967Y21334112D01*
X2734112Y21428967D01*
X2622574Y21503494D01*
X2498640Y21554829D01*
X2367073Y21581000D01*
X2232927Y21581000D01*
X2101360Y21554829D01*
X1977426Y21503494D01*
X1865888Y21428967D01*
X1771033Y21334112D01*
X1696506Y21222574D01*
X1645171Y21098640D01*
X1619000Y20967073D01*
X-9189227Y20967073D01*
X-9191506Y20972574D01*
X-9266033Y21084112D01*
X-9360888Y21178967D01*
X-9472426Y21253494D01*
X-9596360Y21304829D01*
X-9727927Y21331000D01*
X-9862073Y21331000D01*
X-9993640Y21304829D01*
X-10117574Y21253494D01*
X-10229112Y21178967D01*
X-10323967Y21084112D01*
X-10398494Y20972574D01*
X-10449829Y20848640D01*
X-10476000Y20717073D01*
X-12244000Y20717073D01*
X-12244000Y25167073D01*
X-10581000Y25167073D01*
X-10581000Y25032927D01*
X-10554829Y24901360D01*
X-10503494Y24777426D01*
X-10428967Y24665888D01*
X-10334112Y24571033D01*
X-10222574Y24496506D01*
X-10098640Y24445171D01*
X-9967073Y24419000D01*
X-9832927Y24419000D01*
X-9701360Y24445171D01*
X-9577426Y24496506D01*
X-9465888Y24571033D01*
X-9371033Y24665888D01*
X-9296506Y24777426D01*
X-9245171Y24901360D01*
X-9219000Y25032927D01*
X-9219000Y25167073D01*
X-9245171Y25298640D01*
X-9296506Y25422574D01*
X-9371033Y25534112D01*
X-9465888Y25628967D01*
X-9577426Y25703494D01*
X-9701360Y25754829D01*
X-9832927Y25781000D01*
X-9967073Y25781000D01*
X-10098640Y25754829D01*
X-10222574Y25703494D01*
X-10334112Y25628967D01*
X-10428967Y25534112D01*
X-10503494Y25422574D01*
X-10554829Y25298640D01*
X-10581000Y25167073D01*
X-12244000Y25167073D01*
X-12244000Y26067073D01*
X-9181000Y26067073D01*
X-9181000Y25932927D01*
X-9154829Y25801360D01*
X-9103494Y25677426D01*
X-9028967Y25565888D01*
X-8934112Y25471033D01*
X-8822574Y25396506D01*
X-8698640Y25345171D01*
X-8567073Y25319000D01*
X-8432927Y25319000D01*
X-8301360Y25345171D01*
X-8177426Y25396506D01*
X-8065888Y25471033D01*
X-7971033Y25565888D01*
X-7896506Y25677426D01*
X-7845171Y25801360D01*
X-7819000Y25932927D01*
X-7819000Y26067073D01*
X-7681000Y26067073D01*
X-7681000Y25932927D01*
X-7654829Y25801360D01*
X-7603494Y25677426D01*
X-7528967Y25565888D01*
X-7434112Y25471033D01*
X-7322574Y25396506D01*
X-7198640Y25345171D01*
X-7067073Y25319000D01*
X-6932927Y25319000D01*
X-6801360Y25345171D01*
X-6677426Y25396506D01*
X-6565888Y25471033D01*
X-6471033Y25565888D01*
X-6396506Y25677426D01*
X-6345171Y25801360D01*
X-6319000Y25932927D01*
X-6319000Y26067073D01*
X-6181000Y26067073D01*
X-6181000Y25932927D01*
X-6154829Y25801360D01*
X-6103494Y25677426D01*
X-6028967Y25565888D01*
X-5934112Y25471033D01*
X-5822574Y25396506D01*
X-5698640Y25345171D01*
X-5567073Y25319000D01*
X-5432927Y25319000D01*
X-5301360Y25345171D01*
X-5177426Y25396506D01*
X-5065888Y25471033D01*
X-4971033Y25565888D01*
X-4896506Y25677426D01*
X-4845171Y25801360D01*
X-4819000Y25932927D01*
X-4819000Y26067073D01*
X-4681000Y26067073D01*
X-4681000Y25932927D01*
X-4654829Y25801360D01*
X-4603494Y25677426D01*
X-4528967Y25565888D01*
X-4434112Y25471033D01*
X-4322574Y25396506D01*
X-4198640Y25345171D01*
X-4067073Y25319000D01*
X-3932927Y25319000D01*
X-3801360Y25345171D01*
X-3677426Y25396506D01*
X-3565888Y25471033D01*
X-3471033Y25565888D01*
X-3396506Y25677426D01*
X-3345171Y25801360D01*
X-3319000Y25932927D01*
X-3319000Y26067073D01*
X-3345171Y26198640D01*
X-3396506Y26322574D01*
X-3471033Y26434112D01*
X-3565888Y26528967D01*
X-3677426Y26603494D01*
X-3801360Y26654829D01*
X-3932927Y26681000D01*
X-4067073Y26681000D01*
X-4198640Y26654829D01*
X-4322574Y26603494D01*
X-4434112Y26528967D01*
X-4528967Y26434112D01*
X-4603494Y26322574D01*
X-4654829Y26198640D01*
X-4681000Y26067073D01*
X-4819000Y26067073D01*
X-4845171Y26198640D01*
X-4896506Y26322574D01*
X-4971033Y26434112D01*
X-5065888Y26528967D01*
X-5177426Y26603494D01*
X-5301360Y26654829D01*
X-5432927Y26681000D01*
X-5567073Y26681000D01*
X-5698640Y26654829D01*
X-5822574Y26603494D01*
X-5934112Y26528967D01*
X-6028967Y26434112D01*
X-6103494Y26322574D01*
X-6154829Y26198640D01*
X-6181000Y26067073D01*
X-6319000Y26067073D01*
X-6345171Y26198640D01*
X-6396506Y26322574D01*
X-6471033Y26434112D01*
X-6565888Y26528967D01*
X-6677426Y26603494D01*
X-6801360Y26654829D01*
X-6932927Y26681000D01*
X-7067073Y26681000D01*
X-7198640Y26654829D01*
X-7322574Y26603494D01*
X-7434112Y26528967D01*
X-7528967Y26434112D01*
X-7603494Y26322574D01*
X-7654829Y26198640D01*
X-7681000Y26067073D01*
X-7819000Y26067073D01*
X-7845171Y26198640D01*
X-7896506Y26322574D01*
X-7971033Y26434112D01*
X-8065888Y26528967D01*
X-8177426Y26603494D01*
X-8301360Y26654829D01*
X-8432927Y26681000D01*
X-8567073Y26681000D01*
X-8698640Y26654829D01*
X-8822574Y26603494D01*
X-8934112Y26528967D01*
X-9028967Y26434112D01*
X-9103494Y26322574D01*
X-9154829Y26198640D01*
X-9181000Y26067073D01*
X-12244000Y26067073D01*
X-12244000Y27567073D01*
X-9181000Y27567073D01*
X-9181000Y27432927D01*
X-9154829Y27301360D01*
X-9103494Y27177426D01*
X-9028967Y27065888D01*
X-8934112Y26971033D01*
X-8822574Y26896506D01*
X-8698640Y26845171D01*
X-8567073Y26819000D01*
X-8432927Y26819000D01*
X-8301360Y26845171D01*
X-8177426Y26896506D01*
X-8065888Y26971033D01*
X-7971033Y27065888D01*
X-7896506Y27177426D01*
X-7845171Y27301360D01*
X-7819000Y27432927D01*
X-7819000Y27567073D01*
X-7681000Y27567073D01*
X-7681000Y27432927D01*
X-7654829Y27301360D01*
X-7603494Y27177426D01*
X-7528967Y27065888D01*
X-7434112Y26971033D01*
X-7322574Y26896506D01*
X-7198640Y26845171D01*
X-7067073Y26819000D01*
X-6932927Y26819000D01*
X-6801360Y26845171D01*
X-6677426Y26896506D01*
X-6565888Y26971033D01*
X-6471033Y27065888D01*
X-6396506Y27177426D01*
X-6345171Y27301360D01*
X-6319000Y27432927D01*
X-6319000Y27567073D01*
X-6181000Y27567073D01*
X-6181000Y27432927D01*
X-6154829Y27301360D01*
X-6103494Y27177426D01*
X-6028967Y27065888D01*
X-5934112Y26971033D01*
X-5822574Y26896506D01*
X-5698640Y26845171D01*
X-5567073Y26819000D01*
X-5432927Y26819000D01*
X-5301360Y26845171D01*
X-5177426Y26896506D01*
X-5065888Y26971033D01*
X-4971033Y27065888D01*
X-4896506Y27177426D01*
X-4845171Y27301360D01*
X-4819000Y27432927D01*
X-4819000Y27567073D01*
X-4681000Y27567073D01*
X-4681000Y27432927D01*
X-4654829Y27301360D01*
X-4603494Y27177426D01*
X-4528967Y27065888D01*
X-4434112Y26971033D01*
X-4322574Y26896506D01*
X-4198640Y26845171D01*
X-4067073Y26819000D01*
X-3932927Y26819000D01*
X-3801360Y26845171D01*
X-3677426Y26896506D01*
X-3565888Y26971033D01*
X-3471033Y27065888D01*
X-3396506Y27177426D01*
X-3345171Y27301360D01*
X-3319000Y27432927D01*
X-3319000Y27567073D01*
X-3345171Y27698640D01*
X-3396506Y27822574D01*
X-3471033Y27934112D01*
X-3565888Y28028967D01*
X-3677426Y28103494D01*
X-3801360Y28154829D01*
X-3932927Y28181000D01*
X-4067073Y28181000D01*
X-4198640Y28154829D01*
X-4322574Y28103494D01*
X-4434112Y28028967D01*
X-4528967Y27934112D01*
X-4603494Y27822574D01*
X-4654829Y27698640D01*
X-4681000Y27567073D01*
X-4819000Y27567073D01*
X-4845171Y27698640D01*
X-4896506Y27822574D01*
X-4971033Y27934112D01*
X-5065888Y28028967D01*
X-5177426Y28103494D01*
X-5301360Y28154829D01*
X-5432927Y28181000D01*
X-5567073Y28181000D01*
X-5698640Y28154829D01*
X-5822574Y28103494D01*
X-5934112Y28028967D01*
X-6028967Y27934112D01*
X-6103494Y27822574D01*
X-6154829Y27698640D01*
X-6181000Y27567073D01*
X-6319000Y27567073D01*
X-6345171Y27698640D01*
X-6396506Y27822574D01*
X-6471033Y27934112D01*
X-6565888Y28028967D01*
X-6677426Y28103494D01*
X-6801360Y28154829D01*
X-6932927Y28181000D01*
X-7067073Y28181000D01*
X-7198640Y28154829D01*
X-7322574Y28103494D01*
X-7434112Y28028967D01*
X-7528967Y27934112D01*
X-7603494Y27822574D01*
X-7654829Y27698640D01*
X-7681000Y27567073D01*
X-7819000Y27567073D01*
X-7845171Y27698640D01*
X-7896506Y27822574D01*
X-7971033Y27934112D01*
X-8065888Y28028967D01*
X-8177426Y28103494D01*
X-8301360Y28154829D01*
X-8432927Y28181000D01*
X-8567073Y28181000D01*
X-8698640Y28154829D01*
X-8822574Y28103494D01*
X-8934112Y28028967D01*
X-9028967Y27934112D01*
X-9103494Y27822574D01*
X-9154829Y27698640D01*
X-9181000Y27567073D01*
X-12244000Y27567073D01*
X-12244000Y29067073D01*
X-9181000Y29067073D01*
X-9181000Y28932927D01*
X-9154829Y28801360D01*
X-9103494Y28677426D01*
X-9028967Y28565888D01*
X-8934112Y28471033D01*
X-8822574Y28396506D01*
X-8698640Y28345171D01*
X-8567073Y28319000D01*
X-8432927Y28319000D01*
X-8301360Y28345171D01*
X-8177426Y28396506D01*
X-8065888Y28471033D01*
X-7971033Y28565888D01*
X-7896506Y28677426D01*
X-7845171Y28801360D01*
X-7819000Y28932927D01*
X-7819000Y29067073D01*
X-7681000Y29067073D01*
X-7681000Y28932927D01*
X-7654829Y28801360D01*
X-7603494Y28677426D01*
X-7528967Y28565888D01*
X-7434112Y28471033D01*
X-7322574Y28396506D01*
X-7198640Y28345171D01*
X-7067073Y28319000D01*
X-6932927Y28319000D01*
X-6801360Y28345171D01*
X-6677426Y28396506D01*
X-6565888Y28471033D01*
X-6471033Y28565888D01*
X-6396506Y28677426D01*
X-6345171Y28801360D01*
X-6319000Y28932927D01*
X-6319000Y29067073D01*
X-6345171Y29198640D01*
X-6396506Y29322574D01*
X-6471033Y29434112D01*
X-6565888Y29528967D01*
X-6677426Y29603494D01*
X-6801360Y29654829D01*
X-6932927Y29681000D01*
X-7067073Y29681000D01*
X-7198640Y29654829D01*
X-7322574Y29603494D01*
X-7434112Y29528967D01*
X-7528967Y29434112D01*
X-7603494Y29322574D01*
X-7654829Y29198640D01*
X-7681000Y29067073D01*
X-7819000Y29067073D01*
X-7845171Y29198640D01*
X-7896506Y29322574D01*
X-7971033Y29434112D01*
X-8065888Y29528967D01*
X-8177426Y29603494D01*
X-8301360Y29654829D01*
X-8432927Y29681000D01*
X-8567073Y29681000D01*
X-8698640Y29654829D01*
X-8822574Y29603494D01*
X-8934112Y29528967D01*
X-9028967Y29434112D01*
X-9103494Y29322574D01*
X-9154829Y29198640D01*
X-9181000Y29067073D01*
X-12244000Y29067073D01*
X-12244000Y31941966D01*
X-11641273Y32544000D01*
X-8455999Y32544000D01*
X-8456000Y31355085D01*
G04 #@! TA.AperFunction,Conductor*
D17*
G36*
X-8456000Y31355085D02*
G01*
X-8485017Y31300799D01*
X-8514889Y31202322D01*
X-8524976Y31099910D01*
X-8514889Y30997498D01*
X-8485017Y30899021D01*
X-8436506Y30808265D01*
X-8371222Y30728716D01*
X-8291673Y30663432D01*
X-8200917Y30614921D01*
X-8102440Y30585049D01*
X-8025684Y30577489D01*
X-6172204Y30577489D01*
X-6172205Y29125691D01*
X-6174732Y29100034D01*
X-6164645Y28997622D01*
X-6134773Y28899145D01*
X-6086262Y28808389D01*
X-6020978Y28728840D01*
X-5941429Y28663556D01*
X-5850673Y28615045D01*
X-5752196Y28585173D01*
X-5649784Y28575086D01*
X-5624128Y28577613D01*
X-2772412Y28577613D01*
X-2772413Y26125354D01*
X-2774940Y26099698D01*
X-2764853Y25997286D01*
X-2734981Y25898809D01*
X-2686470Y25808053D01*
X-2621186Y25728504D01*
X-2541637Y25663220D01*
X-2450881Y25614709D01*
X-2352404Y25584837D01*
X-2249992Y25574750D01*
X-2224336Y25577277D01*
X2224336Y25577277D01*
X2249992Y25574750D01*
X2275648Y25577277D01*
X2352404Y25584837D01*
X2450881Y25614709D01*
X2541637Y25663220D01*
X2621186Y25728504D01*
X2686470Y25808053D01*
X2734981Y25898809D01*
X2764853Y25997286D01*
X2774940Y26099698D01*
X2772413Y26125354D01*
X2772413Y28577613D01*
X5623611Y28577613D01*
X5649267Y28575086D01*
X5674923Y28577613D01*
X5751679Y28585173D01*
X5850156Y28615045D01*
X5940912Y28663556D01*
X6020461Y28728840D01*
X6085745Y28808389D01*
X6134256Y28899145D01*
X6164128Y28997622D01*
X6174215Y29100034D01*
X6171688Y29125690D01*
X6171688Y30577489D01*
X8025168Y30577489D01*
X8101924Y30585049D01*
X8200401Y30614921D01*
X8291157Y30663432D01*
X8370706Y30728716D01*
X8435990Y30808265D01*
X8484501Y30899021D01*
X8514373Y30997498D01*
X8524460Y31099910D01*
X8514373Y31202322D01*
X8484501Y31300799D01*
X8456000Y31354120D01*
X8456000Y32544000D01*
X11641273Y32544000D01*
X12244001Y31941964D01*
X12244000Y-192118D01*
X11622119Y-814000D01*
X4736897Y-814000D01*
X4766180Y-784717D01*
X4900898Y-583097D01*
X4993693Y-359069D01*
X5041000Y-121243D01*
X5041000Y121243D01*
X4993693Y359069D01*
X4900898Y583097D01*
X4766180Y784717D01*
X4594717Y956180D01*
X4393097Y1090898D01*
X4169069Y1183693D01*
X3931243Y1231000D01*
X3688757Y1231000D01*
X3450931Y1183693D01*
X3226903Y1090898D01*
X3025283Y956180D01*
X2853820Y784717D01*
X2719102Y583097D01*
X2626307Y359069D01*
X2579000Y121243D01*
X2579000Y-121243D01*
X2626307Y-359069D01*
X2719102Y-583097D01*
X2853820Y-784717D01*
X2883103Y-814000D01*
X2196897Y-814000D01*
X2226180Y-784717D01*
X2360898Y-583097D01*
X2453693Y-359069D01*
X2501000Y-121243D01*
X2501000Y121243D01*
X2453693Y359069D01*
X2360898Y583097D01*
X2226180Y784717D01*
X2054717Y956180D01*
X1853097Y1090898D01*
X1629069Y1183693D01*
X1391243Y1231000D01*
X1148757Y1231000D01*
X910931Y1183693D01*
X686903Y1090898D01*
X485283Y956180D01*
X313820Y784717D01*
X179102Y583097D01*
X86307Y359069D01*
X39000Y121243D01*
X39000Y-121243D01*
X86307Y-359069D01*
X179102Y-583097D01*
X313820Y-784717D01*
X343103Y-814000D01*
X-343103Y-814000D01*
X-313820Y-784717D01*
X-179102Y-583097D01*
X-86307Y-359069D01*
X-39000Y-121243D01*
X-39000Y121243D01*
X-86307Y359069D01*
X-179102Y583097D01*
X-313820Y784717D01*
X-485283Y956180D01*
X-686903Y1090898D01*
X-910931Y1183693D01*
X-1148757Y1231000D01*
X-1391243Y1231000D01*
X-1629069Y1183693D01*
X-1853097Y1090898D01*
X-2054717Y956180D01*
X-2226180Y784717D01*
X-2360898Y583097D01*
X-2453693Y359069D01*
X-2501000Y121243D01*
X-2501000Y-121243D01*
X-2453693Y-359069D01*
X-2360898Y-583097D01*
X-2226180Y-784717D01*
X-2196897Y-814000D01*
X-2883103Y-814000D01*
X-2853820Y-784717D01*
X-2719102Y-583097D01*
X-2626307Y-359069D01*
X-2579000Y-121243D01*
X-2579000Y121243D01*
X-2626307Y359069D01*
X-2719102Y583097D01*
X-2853820Y784717D01*
X-3025283Y956180D01*
X-3226903Y1090898D01*
X-3450931Y1183693D01*
X-3688757Y1231000D01*
X-3931243Y1231000D01*
X-4169069Y1183693D01*
X-4393097Y1090898D01*
X-4594717Y956180D01*
X-4766180Y784717D01*
X-4900898Y583097D01*
X-4993693Y359069D01*
X-5041000Y121243D01*
X-5041000Y-121243D01*
X-4993693Y-359069D01*
X-4900898Y-583097D01*
X-4766180Y-784717D01*
X-4736897Y-814000D01*
X-5423103Y-814000D01*
X-5393820Y-784717D01*
X-5259102Y-583097D01*
X-5166307Y-359069D01*
X-5119000Y-121243D01*
X-5119000Y121243D01*
X-5166307Y359069D01*
X-5259102Y583097D01*
X-5393820Y784717D01*
X-5565283Y956180D01*
X-5766903Y1090898D01*
X-5990931Y1183693D01*
X-6228757Y1231000D01*
X-6471243Y1231000D01*
X-6709069Y1183693D01*
X-6933097Y1090898D01*
X-7134717Y956180D01*
X-7306180Y784717D01*
X-7440898Y583097D01*
X-7533693Y359069D01*
X-7581000Y121243D01*
X-7581000Y-121243D01*
X-7533693Y-359069D01*
X-7440898Y-583097D01*
X-7306180Y-784717D01*
X-7276897Y-814000D01*
X-7963103Y-814000D01*
X-7933820Y-784717D01*
X-7799102Y-583097D01*
X-7706307Y-359069D01*
X-7659000Y-121243D01*
X-7659000Y121243D01*
X-7706307Y359069D01*
X-7799102Y583097D01*
X-7933820Y784717D01*
X-8105283Y956180D01*
X-8306903Y1090898D01*
X-8530931Y1183693D01*
X-8768757Y1231000D01*
X-9011243Y1231000D01*
X-9249069Y1183693D01*
X-9473097Y1090898D01*
X-9674717Y956180D01*
X-9846180Y784717D01*
X-9980898Y583097D01*
X-10073693Y359069D01*
X-10121000Y121243D01*
X-10121000Y-121243D01*
X-10073693Y-359069D01*
X-9980898Y-583097D01*
X-9846180Y-784717D01*
X-9816897Y-814000D01*
X-10503103Y-814000D01*
X-10473820Y-784717D01*
X-10339102Y-583097D01*
X-10246307Y-359069D01*
X-10199000Y-121243D01*
X-10199000Y121243D01*
X-10246307Y359069D01*
X-10339102Y583097D01*
X-10473820Y784717D01*
X-10645283Y956180D01*
X-10846903Y1090898D01*
X-11070931Y1183693D01*
X-11308757Y1231000D01*
X-11551243Y1231000D01*
X-11789069Y1183693D01*
X-12013097Y1090898D01*
X-12214717Y956180D01*
X-12244000Y926897D01*
X-12244000Y1613103D01*
X-12214717Y1583820D01*
X-12013097Y1449102D01*
X-11789069Y1356307D01*
X-11551243Y1309000D01*
X-11308757Y1309000D01*
X-11070931Y1356307D01*
X-10846903Y1449102D01*
X-10645283Y1583820D01*
X-10473820Y1755283D01*
X-10339102Y1956903D01*
X-10246307Y2180931D01*
X-10199000Y2418757D01*
X-10199000Y2661243D01*
X-5041000Y2661243D01*
X-5041000Y2418757D01*
X-4993693Y2180931D01*
X-4900898Y1956903D01*
X-4766180Y1755283D01*
X-4594717Y1583820D01*
X-4393097Y1449102D01*
X-4169069Y1356307D01*
X-3931243Y1309000D01*
X-3688757Y1309000D01*
X-3450931Y1356307D01*
X-3226903Y1449102D01*
X-3025283Y1583820D01*
X-2853820Y1755283D01*
X-2719102Y1956903D01*
X-2626307Y2180931D01*
X-2579000Y2418757D01*
X-2579000Y2661243D01*
X-2626307Y2899069D01*
X-2719102Y3123097D01*
X-2853820Y3324717D01*
X-3025283Y3496180D01*
X-3226903Y3630898D01*
X-3450931Y3723693D01*
X-3688757Y3771000D01*
X-3931243Y3771000D01*
X-4169069Y3723693D01*
X-4393097Y3630898D01*
X-4594717Y3496180D01*
X-4766180Y3324717D01*
X-4900898Y3123097D01*
X-4993693Y2899069D01*
X-5041000Y2661243D01*
X-10199000Y2661243D01*
X-10246307Y2899069D01*
X-10339102Y3123097D01*
X-10473820Y3324717D01*
X-10645283Y3496180D01*
X-10846903Y3630898D01*
X-11054948Y3717073D01*
X-10331000Y3717073D01*
X-10331000Y3582927D01*
X-10304829Y3451360D01*
X-10253494Y3327426D01*
X-10178967Y3215888D01*
X-10084112Y3121033D01*
X-9972574Y3046506D01*
X-9848640Y2995171D01*
X-9717073Y2969000D01*
X-9582927Y2969000D01*
X-9451360Y2995171D01*
X-9327426Y3046506D01*
X-9215888Y3121033D01*
X-9121033Y3215888D01*
X-9046506Y3327426D01*
X-8995171Y3451360D01*
X-8969000Y3582927D01*
X-8969000Y3717073D01*
X-8995171Y3848640D01*
X-8999746Y3859686D01*
X-2906000Y3859686D01*
X-2906000Y3740314D01*
X-2882712Y3623236D01*
X-2837030Y3512951D01*
X-2770711Y3413698D01*
X-2686302Y3329289D01*
X-2587049Y3262970D01*
X-2476764Y3217288D01*
X-2359686Y3194000D01*
X-2313522Y3194000D01*
X-2360898Y3123097D01*
X-2453693Y2899069D01*
X-2501000Y2661243D01*
X-2501000Y2418757D01*
X-2453693Y2180931D01*
X-2360898Y1956903D01*
X-2226180Y1755283D01*
X-2054717Y1583820D01*
X-1853097Y1449102D01*
X-1629069Y1356307D01*
X-1391243Y1309000D01*
X-1148757Y1309000D01*
X-910931Y1356307D01*
X-686903Y1449102D01*
X-485283Y1583820D01*
X-313820Y1755283D01*
X-179102Y1956903D01*
X-86307Y2180931D01*
X-39000Y2418757D01*
X-39000Y2661243D01*
X39000Y2661243D01*
X39000Y2418757D01*
X86307Y2180931D01*
X179102Y1956903D01*
X313820Y1755283D01*
X485283Y1583820D01*
X686903Y1449102D01*
X910931Y1356307D01*
X1148757Y1309000D01*
X1391243Y1309000D01*
X1629069Y1356307D01*
X1853097Y1449102D01*
X2054717Y1583820D01*
X2226180Y1755283D01*
X2360898Y1956903D01*
X2453693Y2180931D01*
X2501000Y2418757D01*
X2501000Y2661243D01*
X2579000Y2661243D01*
X2579000Y2418757D01*
X2626307Y2180931D01*
X2719102Y1956903D01*
X2853820Y1755283D01*
X3025283Y1583820D01*
X3226903Y1449102D01*
X3450931Y1356307D01*
X3688757Y1309000D01*
X3931243Y1309000D01*
X4169069Y1356307D01*
X4393097Y1449102D01*
X4594717Y1583820D01*
X4766180Y1755283D01*
X4900898Y1956903D01*
X4993693Y2180931D01*
X5041000Y2418757D01*
X5041000Y2661243D01*
X4993693Y2899069D01*
X4900898Y3123097D01*
X4766180Y3324717D01*
X4594717Y3496180D01*
X4393097Y3630898D01*
X4169069Y3723693D01*
X3931243Y3771000D01*
X3688757Y3771000D01*
X3450931Y3723693D01*
X3226903Y3630898D01*
X3025283Y3496180D01*
X2853820Y3324717D01*
X2719102Y3123097D01*
X2626307Y2899069D01*
X2579000Y2661243D01*
X2501000Y2661243D01*
X2453693Y2899069D01*
X2360898Y3123097D01*
X2226180Y3324717D01*
X2054717Y3496180D01*
X1853097Y3630898D01*
X1629069Y3723693D01*
X1391243Y3771000D01*
X1148757Y3771000D01*
X910931Y3723693D01*
X686903Y3630898D01*
X485283Y3496180D01*
X313820Y3324717D01*
X179102Y3123097D01*
X86307Y2899069D01*
X39000Y2661243D01*
X-39000Y2661243D01*
X-86307Y2899069D01*
X-179102Y3123097D01*
X-313820Y3324717D01*
X-485283Y3496180D01*
X-686903Y3630898D01*
X-910931Y3723693D01*
X-1148757Y3771000D01*
X-1391243Y3771000D01*
X-1629069Y3723693D01*
X-1703433Y3692891D01*
X-1694000Y3740314D01*
X-1694000Y3859686D01*
X-1717288Y3976764D01*
X-1762970Y4087049D01*
X-1829289Y4186302D01*
X-1913698Y4270711D01*
X-2012951Y4337030D01*
X-2123236Y4382712D01*
X-2240314Y4406000D01*
X-2359686Y4406000D01*
X-2476764Y4382712D01*
X-2587049Y4337030D01*
X-2686302Y4270711D01*
X-2770711Y4186302D01*
X-2837030Y4087049D01*
X-2882712Y3976764D01*
X-2906000Y3859686D01*
X-8999746Y3859686D01*
X-9046506Y3972574D01*
X-9121033Y4084112D01*
X-9215888Y4178967D01*
X-9327426Y4253494D01*
X-9451360Y4304829D01*
X-9582927Y4331000D01*
X-9717073Y4331000D01*
X-9848640Y4304829D01*
X-9972574Y4253494D01*
X-10084112Y4178967D01*
X-10178967Y4084112D01*
X-10253494Y3972574D01*
X-10304829Y3848640D01*
X-10331000Y3717073D01*
X-11054948Y3717073D01*
X-11070931Y3723693D01*
X-11308757Y3771000D01*
X-11551243Y3771000D01*
X-11789069Y3723693D01*
X-12013097Y3630898D01*
X-12214717Y3496180D01*
X-12244000Y3466897D01*
X-12244000Y7367073D01*
X-11971000Y7367073D01*
X-11971000Y7232927D01*
X-11944829Y7101360D01*
X-11893494Y6977426D01*
X-11818967Y6865888D01*
X-11724112Y6771033D01*
X-11612574Y6696506D01*
X-11488640Y6645171D01*
X-11357073Y6619000D01*
X-11222927Y6619000D01*
X-11091360Y6645171D01*
X-10967426Y6696506D01*
X-10855888Y6771033D01*
X-10761033Y6865888D01*
X-10686506Y6977426D01*
X-10645000Y7077631D01*
X-10603494Y6977426D01*
X-10528967Y6865888D01*
X-10434112Y6771033D01*
X-10322574Y6696506D01*
X-10198640Y6645171D01*
X-10067073Y6619000D01*
X-9932927Y6619000D01*
X-9801360Y6645171D01*
X-9677426Y6696506D01*
X-9565888Y6771033D01*
X-9471033Y6865888D01*
X-9396506Y6977426D01*
X-9345171Y7101360D01*
X-9319000Y7232927D01*
X-9319000Y7367073D01*
X-9345171Y7498640D01*
X-9396506Y7622574D01*
X-9471033Y7734112D01*
X-9565888Y7828967D01*
X-9677426Y7903494D01*
X-9801360Y7954829D01*
X-9932927Y7981000D01*
X-10067073Y7981000D01*
X-10198640Y7954829D01*
X-10322574Y7903494D01*
X-10434112Y7828967D01*
X-10528967Y7734112D01*
X-10603494Y7622574D01*
X-10645000Y7522369D01*
X-10686506Y7622574D01*
X-10761033Y7734112D01*
X-10855888Y7828967D01*
X-10967426Y7903494D01*
X-11091360Y7954829D01*
X-11222927Y7981000D01*
X-11357073Y7981000D01*
X-11488640Y7954829D01*
X-11612574Y7903494D01*
X-11724112Y7828967D01*
X-11818967Y7734112D01*
X-11893494Y7622574D01*
X-11944829Y7498640D01*
X-11971000Y7367073D01*
X-12244000Y7367073D01*
X-12244000Y8559686D01*
X-8006000Y8559686D01*
X-8006000Y8440314D01*
X-7982712Y8323236D01*
X-7937030Y8212951D01*
X-7870711Y8113698D01*
X-7786302Y8029289D01*
X-7687049Y7962970D01*
X-7576764Y7917288D01*
X-7459686Y7894000D01*
X-7340314Y7894000D01*
X-7223236Y7917288D01*
X-7112951Y7962970D01*
X-7013698Y8029289D01*
X-6929289Y8113698D01*
X-6862970Y8212951D01*
X-6843612Y8259686D01*
X-3906000Y8259686D01*
X-3906000Y8140314D01*
X-3882712Y8023236D01*
X-3837030Y7912951D01*
X-3794967Y7850000D01*
X-3837030Y7787049D01*
X-3882712Y7676764D01*
X-3906000Y7559686D01*
X-3906000Y7440314D01*
X-3882712Y7323236D01*
X-3837030Y7212951D01*
X-3770711Y7113698D01*
X-3686302Y7029289D01*
X-3587049Y6962970D01*
X-3476764Y6917288D01*
X-3359686Y6894000D01*
X-3240314Y6894000D01*
X-3123236Y6917288D01*
X-3012951Y6962970D01*
X-2913698Y7029289D01*
X-2829289Y7113698D01*
X-2762970Y7212951D01*
X-2717288Y7323236D01*
X-2700093Y7409686D01*
X-2306000Y7409686D01*
X-2306000Y7290314D01*
X-2282712Y7173236D01*
X-2237030Y7062951D01*
X-2170711Y6963698D01*
X-2086302Y6879289D01*
X-1987049Y6812970D01*
X-1876764Y6767288D01*
X-1759686Y6744000D01*
X-1640314Y6744000D01*
X-1523236Y6767288D01*
X-1412951Y6812970D01*
X-1313698Y6879289D01*
X-1229289Y6963698D01*
X-1162970Y7062951D01*
X-1117288Y7173236D01*
X-1094000Y7290314D01*
X-1094000Y7409686D01*
X-1117288Y7526764D01*
X-1162970Y7637049D01*
X-1180181Y7662806D01*
X-1179289Y7663698D01*
X-1112970Y7762951D01*
X-1067288Y7873236D01*
X-1044000Y7990314D01*
X-1044000Y8109686D01*
X-1059766Y8188951D01*
X606203Y8188951D01*
X606203Y8069579D01*
X629491Y7952501D01*
X675173Y7842216D01*
X741492Y7742963D01*
X825901Y7658554D01*
X925154Y7592235D01*
X1035439Y7546553D01*
X1152517Y7523265D01*
X1271889Y7523265D01*
X1325562Y7533941D01*
X1371033Y7465888D01*
X1465888Y7371033D01*
X1577426Y7296506D01*
X1701360Y7245171D01*
X1832927Y7219000D01*
X1967073Y7219000D01*
X2098640Y7245171D01*
X2222574Y7296506D01*
X2334112Y7371033D01*
X2428967Y7465888D01*
X2503494Y7577426D01*
X2554829Y7701360D01*
X2554993Y7702186D01*
X3336500Y7702186D01*
X3336500Y7582814D01*
X3359788Y7465736D01*
X3405470Y7355451D01*
X3471789Y7256198D01*
X3556198Y7171789D01*
X3655451Y7105470D01*
X3765736Y7059788D01*
X3882814Y7036500D01*
X4002186Y7036500D01*
X4119264Y7059788D01*
X4229549Y7105470D01*
X4328802Y7171789D01*
X4413211Y7256198D01*
X4479530Y7355451D01*
X4525212Y7465736D01*
X4548500Y7582814D01*
X4548500Y7702186D01*
X4525212Y7819264D01*
X4479530Y7929549D01*
X4413211Y8028802D01*
X4328802Y8113211D01*
X4229549Y8179530D01*
X4119264Y8225212D01*
X4002186Y8248500D01*
X3882814Y8248500D01*
X3765736Y8225212D01*
X3655451Y8179530D01*
X3556198Y8113211D01*
X3471789Y8028802D01*
X3405470Y7929549D01*
X3359788Y7819264D01*
X3336500Y7702186D01*
X2554993Y7702186D01*
X2581000Y7832927D01*
X2581000Y7967073D01*
X2554829Y8098640D01*
X2503494Y8222574D01*
X2428967Y8334112D01*
X2334112Y8428967D01*
X2222574Y8503494D01*
X2098640Y8554829D01*
X1972101Y8580000D01*
X4334738Y8580000D01*
X4351748Y8407294D01*
X4402125Y8241225D01*
X4483932Y8088175D01*
X4594025Y7954025D01*
X4728175Y7843932D01*
X4881225Y7762125D01*
X5047294Y7711748D01*
X5176727Y7699000D01*
X6363273Y7699000D01*
X6492706Y7711748D01*
X6658775Y7762125D01*
X6811825Y7843932D01*
X6945975Y7954025D01*
X7056068Y8088175D01*
X7137875Y8241225D01*
X7188252Y8407294D01*
X7205262Y8580000D01*
X8764738Y8580000D01*
X8781748Y8407294D01*
X8832125Y8241225D01*
X8913932Y8088175D01*
X9024025Y7954025D01*
X9158175Y7843932D01*
X9311225Y7762125D01*
X9477294Y7711748D01*
X9606727Y7699000D01*
X10293273Y7699000D01*
X10422706Y7711748D01*
X10588775Y7762125D01*
X10741825Y7843932D01*
X10875975Y7954025D01*
X10986068Y8088175D01*
X11067875Y8241225D01*
X11118252Y8407294D01*
X11135262Y8580000D01*
X11118252Y8752706D01*
X11067875Y8918775D01*
X10986068Y9071825D01*
X10875975Y9205975D01*
X10741825Y9316068D01*
X10588775Y9397875D01*
X10422706Y9448252D01*
X10293273Y9461000D01*
X9606727Y9461000D01*
X9477294Y9448252D01*
X9311225Y9397875D01*
X9158175Y9316068D01*
X9024025Y9205975D01*
X8913932Y9071825D01*
X8832125Y8918775D01*
X8781748Y8752706D01*
X8764738Y8580000D01*
X7205262Y8580000D01*
X7188252Y8752706D01*
X7137875Y8918775D01*
X7056068Y9071825D01*
X6945975Y9205975D01*
X6811825Y9316068D01*
X6658775Y9397875D01*
X6655942Y9398734D01*
X6750049Y9461614D01*
X6848386Y9559951D01*
X6925649Y9675584D01*
X6978869Y9804067D01*
X7006000Y9940465D01*
X7006000Y10079535D01*
X6978869Y10215933D01*
X6925649Y10344416D01*
X6848386Y10460049D01*
X6750049Y10558386D01*
X6643827Y10629361D01*
X6682712Y10723236D01*
X6706000Y10840314D01*
X6706000Y10959686D01*
X6682712Y11076764D01*
X6637030Y11187049D01*
X6570711Y11286302D01*
X6486302Y11370711D01*
X6387049Y11437030D01*
X6276764Y11482712D01*
X6159686Y11506000D01*
X6040314Y11506000D01*
X5923236Y11482712D01*
X5812951Y11437030D01*
X5713698Y11370711D01*
X5629289Y11286302D01*
X5562970Y11187049D01*
X5517288Y11076764D01*
X5494000Y10959686D01*
X5494000Y10840314D01*
X5517288Y10723236D01*
X5562970Y10612951D01*
X5629289Y10513698D01*
X5713698Y10429289D01*
X5725702Y10421268D01*
X5674351Y10344416D01*
X5621131Y10215933D01*
X5594000Y10079535D01*
X5594000Y9940465D01*
X5621131Y9804067D01*
X5674351Y9675584D01*
X5751614Y9559951D01*
X5849951Y9461614D01*
X5850870Y9461000D01*
X5176727Y9461000D01*
X5047294Y9448252D01*
X4881225Y9397875D01*
X4728175Y9316068D01*
X4594025Y9205975D01*
X4483932Y9071825D01*
X4402125Y8918775D01*
X4351748Y8752706D01*
X4334738Y8580000D01*
X1972101Y8580000D01*
X1967073Y8581000D01*
X1832927Y8581000D01*
X1701360Y8554829D01*
X1660554Y8537927D01*
X1598505Y8599976D01*
X1499252Y8666295D01*
X1388967Y8711977D01*
X1271889Y8735265D01*
X1152517Y8735265D01*
X1035439Y8711977D01*
X925154Y8666295D01*
X825901Y8599976D01*
X741492Y8515567D01*
X675173Y8416314D01*
X629491Y8306029D01*
X606203Y8188951D01*
X-1059766Y8188951D01*
X-1067288Y8226764D01*
X-1112970Y8337049D01*
X-1179289Y8436302D01*
X-1263698Y8520711D01*
X-1362951Y8587030D01*
X-1473236Y8632712D01*
X-1590314Y8656000D01*
X-1709686Y8656000D01*
X-1826764Y8632712D01*
X-1937049Y8587030D01*
X-2036302Y8520711D01*
X-2120711Y8436302D01*
X-2187030Y8337049D01*
X-2232712Y8226764D01*
X-2256000Y8109686D01*
X-2256000Y7990314D01*
X-2232712Y7873236D01*
X-2187030Y7762951D01*
X-2169819Y7737194D01*
X-2170711Y7736302D01*
X-2237030Y7637049D01*
X-2282712Y7526764D01*
X-2306000Y7409686D01*
X-2700093Y7409686D01*
X-2694000Y7440314D01*
X-2694000Y7559686D01*
X-2717288Y7676764D01*
X-2762970Y7787049D01*
X-2805033Y7850000D01*
X-2762970Y7912951D01*
X-2717288Y8023236D01*
X-2694000Y8140314D01*
X-2694000Y8259686D01*
X-2717288Y8376764D01*
X-2762970Y8487049D01*
X-2829289Y8586302D01*
X-2913698Y8670711D01*
X-3012951Y8737030D01*
X-3123236Y8782712D01*
X-3240314Y8806000D01*
X-3359686Y8806000D01*
X-3476764Y8782712D01*
X-3587049Y8737030D01*
X-3686302Y8670711D01*
X-3770711Y8586302D01*
X-3837030Y8487049D01*
X-3882712Y8376764D01*
X-3906000Y8259686D01*
X-6843612Y8259686D01*
X-6817288Y8323236D01*
X-6794000Y8440314D01*
X-6794000Y8559686D01*
X-6817288Y8676764D01*
X-6862970Y8787049D01*
X-6929289Y8886302D01*
X-7013698Y8970711D01*
X-7112951Y9037030D01*
X-7223236Y9082712D01*
X-7340314Y9106000D01*
X-7459686Y9106000D01*
X-7576764Y9082712D01*
X-7687049Y9037030D01*
X-7786302Y8970711D01*
X-7870711Y8886302D01*
X-7937030Y8787049D01*
X-7982712Y8676764D01*
X-8006000Y8559686D01*
X-12244000Y8559686D01*
X-12244000Y11367073D01*
X-12131000Y11367073D01*
X-12131000Y11232927D01*
X-12104829Y11101360D01*
X-12053494Y10977426D01*
X-11978967Y10865888D01*
X-11884112Y10771033D01*
X-11772574Y10696506D01*
X-11648640Y10645171D01*
X-11517073Y10619000D01*
X-11382927Y10619000D01*
X-11251360Y10645171D01*
X-11127426Y10696506D01*
X-11015888Y10771033D01*
X-10921033Y10865888D01*
X-10846506Y10977426D01*
X-10795171Y11101360D01*
X-10769000Y11232927D01*
X-10769000Y11367073D01*
X-10778945Y11417073D01*
X-10581000Y11417073D01*
X-10581000Y11282927D01*
X-10554829Y11151360D01*
X-10503494Y11027426D01*
X-10428967Y10915888D01*
X-10334112Y10821033D01*
X-10222574Y10746506D01*
X-10098640Y10695171D01*
X-9967073Y10669000D01*
X-9832927Y10669000D01*
X-9701360Y10695171D01*
X-9577426Y10746506D01*
X-9465888Y10821033D01*
X-9377235Y10909686D01*
X-7756000Y10909686D01*
X-7756000Y10790314D01*
X-7732712Y10673236D01*
X-7687030Y10562951D01*
X-7620711Y10463698D01*
X-7536302Y10379289D01*
X-7437049Y10312970D01*
X-7326764Y10267288D01*
X-7209686Y10244000D01*
X-7090314Y10244000D01*
X-6973236Y10267288D01*
X-6862951Y10312970D01*
X-6763698Y10379289D01*
X-6679289Y10463698D01*
X-6612970Y10562951D01*
X-6567288Y10673236D01*
X-6544000Y10790314D01*
X-6544000Y10809686D01*
X-6456000Y10809686D01*
X-6456000Y10690314D01*
X-6432712Y10573236D01*
X-6387030Y10462951D01*
X-6320711Y10363698D01*
X-6236302Y10279289D01*
X-6137049Y10212970D01*
X-6026764Y10167288D01*
X-5909686Y10144000D01*
X-5790314Y10144000D01*
X-5673236Y10167288D01*
X-5562951Y10212970D01*
X-5463698Y10279289D01*
X-5433301Y10309686D01*
X-960990Y10309686D01*
X-960990Y10190314D01*
X-937702Y10073236D01*
X-892020Y9962951D01*
X-825701Y9863698D01*
X-741292Y9779289D01*
X-642039Y9712970D01*
X-531754Y9667288D01*
X-414676Y9644000D01*
X-295304Y9644000D01*
X-178226Y9667288D01*
X-67941Y9712970D01*
X31312Y9779289D01*
X115721Y9863698D01*
X182040Y9962951D01*
X227722Y10073236D01*
X251010Y10190314D01*
X251010Y10309686D01*
X227722Y10426764D01*
X182040Y10537049D01*
X115721Y10636302D01*
X31312Y10720711D01*
X-67941Y10787030D01*
X-178226Y10832712D01*
X-295304Y10856000D01*
X-414676Y10856000D01*
X-531754Y10832712D01*
X-642039Y10787030D01*
X-741292Y10720711D01*
X-825701Y10636302D01*
X-892020Y10537049D01*
X-937702Y10426764D01*
X-960990Y10309686D01*
X-5433301Y10309686D01*
X-5379289Y10363698D01*
X-5312970Y10462951D01*
X-5267288Y10573236D01*
X-5244000Y10690314D01*
X-5244000Y10809686D01*
X-5267288Y10926764D01*
X-5312970Y11037049D01*
X-5379289Y11136302D01*
X-5463698Y11220711D01*
X-5562951Y11287030D01*
X-5673236Y11332712D01*
X-5790314Y11356000D01*
X-5909686Y11356000D01*
X-6026764Y11332712D01*
X-6137049Y11287030D01*
X-6236302Y11220711D01*
X-6320711Y11136302D01*
X-6387030Y11037049D01*
X-6432712Y10926764D01*
X-6456000Y10809686D01*
X-6544000Y10809686D01*
X-6544000Y10909686D01*
X-6567288Y11026764D01*
X-6612970Y11137049D01*
X-6679289Y11236302D01*
X-6763698Y11320711D01*
X-6862951Y11387030D01*
X-6973236Y11432712D01*
X-7090314Y11456000D01*
X-7209686Y11456000D01*
X-7326764Y11432712D01*
X-7437049Y11387030D01*
X-7536302Y11320711D01*
X-7620711Y11236302D01*
X-7687030Y11137049D01*
X-7732712Y11026764D01*
X-7756000Y10909686D01*
X-9377235Y10909686D01*
X-9371033Y10915888D01*
X-9296506Y11027426D01*
X-9245171Y11151360D01*
X-9219000Y11282927D01*
X-9219000Y11417073D01*
X-9245171Y11548640D01*
X-9296506Y11672574D01*
X-9371033Y11784112D01*
X-9465888Y11878967D01*
X-9577426Y11953494D01*
X-9610208Y11967073D01*
X-2981000Y11967073D01*
X-2981000Y11832927D01*
X-2954829Y11701360D01*
X-2903494Y11577426D01*
X-2828967Y11465888D01*
X-2734112Y11371033D01*
X-2622574Y11296506D01*
X-2498640Y11245171D01*
X-2367073Y11219000D01*
X-2232927Y11219000D01*
X-2101360Y11245171D01*
X-1977426Y11296506D01*
X-1865888Y11371033D01*
X-1771033Y11465888D01*
X-1696506Y11577426D01*
X-1645171Y11701360D01*
X-1619000Y11832927D01*
X-1619000Y11967073D01*
X-1645171Y12098640D01*
X-1696506Y12222574D01*
X-1771033Y12334112D01*
X-1865888Y12428967D01*
X-1977426Y12503494D01*
X-2101360Y12554829D01*
X-2232927Y12581000D01*
X-2367073Y12581000D01*
X-2498640Y12554829D01*
X-2622574Y12503494D01*
X-2734112Y12428967D01*
X-2828967Y12334112D01*
X-2903494Y12222574D01*
X-2954829Y12098640D01*
X-2981000Y11967073D01*
X-9610208Y11967073D01*
X-9701360Y12004829D01*
X-9832927Y12031000D01*
X-9967073Y12031000D01*
X-10098640Y12004829D01*
X-10222574Y11953494D01*
X-10334112Y11878967D01*
X-10428967Y11784112D01*
X-10503494Y11672574D01*
X-10554829Y11548640D01*
X-10581000Y11417073D01*
X-10778945Y11417073D01*
X-10795171Y11498640D01*
X-10846506Y11622574D01*
X-10921033Y11734112D01*
X-11015888Y11828967D01*
X-11127426Y11903494D01*
X-11251360Y11954829D01*
X-11382927Y11981000D01*
X-11517073Y11981000D01*
X-11648640Y11954829D01*
X-11772574Y11903494D01*
X-11884112Y11828967D01*
X-11978967Y11734112D01*
X-12053494Y11622574D01*
X-12104829Y11498640D01*
X-12131000Y11367073D01*
X-12244000Y11367073D01*
X-12244000Y12310822D01*
X-12222574Y12296506D01*
X-12098640Y12245171D01*
X-11967073Y12219000D01*
X-11832927Y12219000D01*
X-11701360Y12245171D01*
X-11577426Y12296506D01*
X-11465888Y12371033D01*
X-11371033Y12465888D01*
X-11296506Y12577426D01*
X-11245171Y12701360D01*
X-11219000Y12832927D01*
X-11219000Y12967073D01*
X-11081000Y12967073D01*
X-11081000Y12832927D01*
X-11054829Y12701360D01*
X-11003494Y12577426D01*
X-10928967Y12465888D01*
X-10834112Y12371033D01*
X-10722574Y12296506D01*
X-10598640Y12245171D01*
X-10467073Y12219000D01*
X-10332927Y12219000D01*
X-10201360Y12245171D01*
X-10077426Y12296506D01*
X-9965888Y12371033D01*
X-9871033Y12465888D01*
X-9796506Y12577426D01*
X-9745171Y12701360D01*
X-9719000Y12832927D01*
X-9719000Y12967073D01*
X-9745171Y13098640D01*
X-9796506Y13222574D01*
X-9871033Y13334112D01*
X-9965888Y13428967D01*
X-10077426Y13503494D01*
X-10201360Y13554829D01*
X-10332927Y13581000D01*
X-10467073Y13581000D01*
X-10598640Y13554829D01*
X-10722574Y13503494D01*
X-10834112Y13428967D01*
X-10928967Y13334112D01*
X-11003494Y13222574D01*
X-11054829Y13098640D01*
X-11081000Y12967073D01*
X-11219000Y12967073D01*
X-11245171Y13098640D01*
X-11296506Y13222574D01*
X-11371033Y13334112D01*
X-11465888Y13428967D01*
X-11577426Y13503494D01*
X-11701360Y13554829D01*
X-11832927Y13581000D01*
X-11967073Y13581000D01*
X-12098640Y13554829D01*
X-12222574Y13503494D01*
X-12244000Y13489178D01*
X-12244000Y14667073D01*
X-10681000Y14667073D01*
X-10681000Y14532927D01*
X-10654829Y14401360D01*
X-10603494Y14277426D01*
X-10528967Y14165888D01*
X-10434112Y14071033D01*
X-10322574Y13996506D01*
X-10198640Y13945171D01*
X-10067073Y13919000D01*
X-9932927Y13919000D01*
X-9801360Y13945171D01*
X-9677426Y13996506D01*
X-9565888Y14071033D01*
X-9471033Y14165888D01*
X-9403424Y14267073D01*
X-6981000Y14267073D01*
X-6981000Y14132927D01*
X-6954829Y14001360D01*
X-6903494Y13877426D01*
X-6828967Y13765888D01*
X-6734112Y13671033D01*
X-6622574Y13596506D01*
X-6498640Y13545171D01*
X-6367073Y13519000D01*
X-6232927Y13519000D01*
X-6101360Y13545171D01*
X-5977426Y13596506D01*
X-5865888Y13671033D01*
X-5771033Y13765888D01*
X-5696506Y13877426D01*
X-5645171Y14001360D01*
X-5619000Y14132927D01*
X-5619000Y14267073D01*
X-3381000Y14267073D01*
X-3381000Y14132927D01*
X-3354829Y14001360D01*
X-3303494Y13877426D01*
X-3228967Y13765888D01*
X-3134112Y13671033D01*
X-3022574Y13596506D01*
X-2898640Y13545171D01*
X-2767073Y13519000D01*
X-2632927Y13519000D01*
X-2501360Y13545171D01*
X-2377426Y13596506D01*
X-2265888Y13671033D01*
X-2171033Y13765888D01*
X-2096506Y13877426D01*
X-2045171Y14001360D01*
X-2019000Y14132927D01*
X-2019000Y14267073D01*
X-2045171Y14398640D01*
X-2096506Y14522574D01*
X-2171033Y14634112D01*
X-2265888Y14728967D01*
X-2377426Y14803494D01*
X-2501360Y14854829D01*
X-2525777Y14859686D01*
X-1876010Y14859686D01*
X-1876010Y14740314D01*
X-1852722Y14623236D01*
X-1807040Y14512951D01*
X-1740721Y14413698D01*
X-1656312Y14329289D01*
X-1557059Y14262970D01*
X-1446774Y14217288D01*
X-1329696Y14194000D01*
X-1210324Y14194000D01*
X-1093246Y14217288D01*
X-982961Y14262970D01*
X-883708Y14329289D01*
X-799299Y14413698D01*
X-732980Y14512951D01*
X-687298Y14623236D01*
X-664010Y14740314D01*
X-664010Y14859686D01*
X-687298Y14976764D01*
X-732980Y15087049D01*
X-799299Y15186302D01*
X-883708Y15270711D01*
X-982961Y15337030D01*
X-1093246Y15382712D01*
X-1210324Y15406000D01*
X-1329696Y15406000D01*
X-1446774Y15382712D01*
X-1557059Y15337030D01*
X-1656312Y15270711D01*
X-1740721Y15186302D01*
X-1807040Y15087049D01*
X-1852722Y14976764D01*
X-1876010Y14859686D01*
X-2525777Y14859686D01*
X-2632927Y14881000D01*
X-2767073Y14881000D01*
X-2898640Y14854829D01*
X-3022574Y14803494D01*
X-3134112Y14728967D01*
X-3228967Y14634112D01*
X-3303494Y14522574D01*
X-3354829Y14398640D01*
X-3381000Y14267073D01*
X-5619000Y14267073D01*
X-5645171Y14398640D01*
X-5696506Y14522574D01*
X-5771033Y14634112D01*
X-5865888Y14728967D01*
X-5977426Y14803494D01*
X-6101360Y14854829D01*
X-6232927Y14881000D01*
X-6367073Y14881000D01*
X-6498640Y14854829D01*
X-6622574Y14803494D01*
X-6734112Y14728967D01*
X-6828967Y14634112D01*
X-6903494Y14522574D01*
X-6954829Y14398640D01*
X-6981000Y14267073D01*
X-9403424Y14267073D01*
X-9396506Y14277426D01*
X-9345171Y14401360D01*
X-9319000Y14532927D01*
X-9319000Y14667073D01*
X-9345171Y14798640D01*
X-9396506Y14922574D01*
X-9471033Y15034112D01*
X-9565888Y15128967D01*
X-9677426Y15203494D01*
X-9801360Y15254829D01*
X-9932927Y15281000D01*
X-10067073Y15281000D01*
X-10198640Y15254829D01*
X-10322574Y15203494D01*
X-10434112Y15128967D01*
X-10528967Y15034112D01*
X-10603494Y14922574D01*
X-10654829Y14798640D01*
X-10681000Y14667073D01*
X-12244000Y14667073D01*
X-12244000Y15575216D01*
X-12203494Y15477426D01*
X-12128967Y15365888D01*
X-12034112Y15271033D01*
X-11922574Y15196506D01*
X-11798640Y15145171D01*
X-11667073Y15119000D01*
X-11532927Y15119000D01*
X-11401360Y15145171D01*
X-11277426Y15196506D01*
X-11165888Y15271033D01*
X-11071033Y15365888D01*
X-10996506Y15477426D01*
X-10945171Y15601360D01*
X-10919000Y15732927D01*
X-10919000Y15829686D01*
X1404000Y15829686D01*
X1404000Y15710314D01*
X1427288Y15593236D01*
X1472970Y15482951D01*
X1539289Y15383698D01*
X1623698Y15299289D01*
X1722951Y15232970D01*
X1833236Y15187288D01*
X1950314Y15164000D01*
X2069686Y15164000D01*
X2186764Y15187288D01*
X2297049Y15232970D01*
X2396302Y15299289D01*
X2480711Y15383698D01*
X2547030Y15482951D01*
X2592712Y15593236D01*
X2616000Y15710314D01*
X2616000Y15829686D01*
X2592712Y15946764D01*
X2547030Y16057049D01*
X2480711Y16156302D01*
X2396302Y16240711D01*
X2297049Y16307030D01*
X2186764Y16352712D01*
X2069686Y16376000D01*
X1950314Y16376000D01*
X1833236Y16352712D01*
X1722951Y16307030D01*
X1623698Y16240711D01*
X1539289Y16156302D01*
X1472970Y16057049D01*
X1427288Y15946764D01*
X1404000Y15829686D01*
X-10919000Y15829686D01*
X-10919000Y15867073D01*
X-10945171Y15998640D01*
X-10996506Y16122574D01*
X-11071033Y16234112D01*
X-11165888Y16328967D01*
X-11277426Y16403494D01*
X-11401360Y16454829D01*
X-11532927Y16481000D01*
X-11667073Y16481000D01*
X-11798640Y16454829D01*
X-11922574Y16403494D01*
X-12034112Y16328967D01*
X-12128967Y16234112D01*
X-12203494Y16122574D01*
X-12244000Y16024784D01*
X-12244000Y17117073D01*
X-8781000Y17117073D01*
X-8781000Y16982927D01*
X-8754829Y16851360D01*
X-8703494Y16727426D01*
X-8628967Y16615888D01*
X-8534112Y16521033D01*
X-8422574Y16446506D01*
X-8298640Y16395171D01*
X-8167073Y16369000D01*
X-8032927Y16369000D01*
X-7901360Y16395171D01*
X-7777426Y16446506D01*
X-7665888Y16521033D01*
X-7571033Y16615888D01*
X-7496506Y16727426D01*
X-7445171Y16851360D01*
X-7419000Y16982927D01*
X-7419000Y17067073D01*
X-5581000Y17067073D01*
X-5581000Y16932927D01*
X-5554829Y16801360D01*
X-5503494Y16677426D01*
X-5428967Y16565888D01*
X-5334112Y16471033D01*
X-5222574Y16396506D01*
X-5098640Y16345171D01*
X-4967073Y16319000D01*
X-4832927Y16319000D01*
X-4701360Y16345171D01*
X-4577426Y16396506D01*
X-4465888Y16471033D01*
X-4371033Y16565888D01*
X-4296506Y16677426D01*
X-4245171Y16801360D01*
X-4219000Y16932927D01*
X-4219000Y17067073D01*
X-4245171Y17198640D01*
X-4254018Y17220000D01*
X4334738Y17220000D01*
X4351748Y17047294D01*
X4402125Y16881225D01*
X4483932Y16728175D01*
X4594025Y16594025D01*
X4728175Y16483932D01*
X4881225Y16402125D01*
X5047294Y16351748D01*
X5176727Y16339000D01*
X5850870Y16339000D01*
X5849951Y16338386D01*
X5751614Y16240049D01*
X5674351Y16124416D01*
X5621131Y15995933D01*
X5594000Y15859535D01*
X5594000Y15720465D01*
X5621131Y15584067D01*
X5674351Y15455584D01*
X5725702Y15378732D01*
X5713698Y15370711D01*
X5629289Y15286302D01*
X5562970Y15187049D01*
X5517288Y15076764D01*
X5494000Y14959686D01*
X5494000Y14840314D01*
X5517288Y14723236D01*
X5562970Y14612951D01*
X5629289Y14513698D01*
X5713698Y14429289D01*
X5812951Y14362970D01*
X5923236Y14317288D01*
X6040314Y14294000D01*
X6159686Y14294000D01*
X6276764Y14317288D01*
X6387049Y14362970D01*
X6486302Y14429289D01*
X6570711Y14513698D01*
X6637030Y14612951D01*
X6682712Y14723236D01*
X6706000Y14840314D01*
X6706000Y14959686D01*
X6682712Y15076764D01*
X6643827Y15170639D01*
X6750049Y15241614D01*
X6848386Y15339951D01*
X6925649Y15455584D01*
X6978869Y15584067D01*
X7006000Y15720465D01*
X7006000Y15859535D01*
X6978869Y15995933D01*
X6925649Y16124416D01*
X6848386Y16240049D01*
X6750049Y16338386D01*
X6655942Y16401266D01*
X6658775Y16402125D01*
X6811825Y16483932D01*
X6945975Y16594025D01*
X7056068Y16728175D01*
X7137875Y16881225D01*
X7188252Y17047294D01*
X7205262Y17220000D01*
X8764738Y17220000D01*
X8781748Y17047294D01*
X8832125Y16881225D01*
X8913932Y16728175D01*
X9024025Y16594025D01*
X9158175Y16483932D01*
X9311225Y16402125D01*
X9477294Y16351748D01*
X9606727Y16339000D01*
X10293273Y16339000D01*
X10422706Y16351748D01*
X10588775Y16402125D01*
X10741825Y16483932D01*
X10875975Y16594025D01*
X10986068Y16728175D01*
X11067875Y16881225D01*
X11118252Y17047294D01*
X11135262Y17220000D01*
X11118252Y17392706D01*
X11067875Y17558775D01*
X10986068Y17711825D01*
X10875975Y17845975D01*
X10741825Y17956068D01*
X10588775Y18037875D01*
X10422706Y18088252D01*
X10293273Y18101000D01*
X9606727Y18101000D01*
X9477294Y18088252D01*
X9311225Y18037875D01*
X9158175Y17956068D01*
X9024025Y17845975D01*
X8913932Y17711825D01*
X8832125Y17558775D01*
X8781748Y17392706D01*
X8764738Y17220000D01*
X7205262Y17220000D01*
X7188252Y17392706D01*
X7137875Y17558775D01*
X7056068Y17711825D01*
X6945975Y17845975D01*
X6811825Y17956068D01*
X6658775Y18037875D01*
X6492706Y18088252D01*
X6363273Y18101000D01*
X5176727Y18101000D01*
X5047294Y18088252D01*
X4881225Y18037875D01*
X4728175Y17956068D01*
X4594025Y17845975D01*
X4483932Y17711825D01*
X4402125Y17558775D01*
X4351748Y17392706D01*
X4334738Y17220000D01*
X-4254018Y17220000D01*
X-4296506Y17322574D01*
X-4371033Y17434112D01*
X-4465888Y17528967D01*
X-4577426Y17603494D01*
X-4701360Y17654829D01*
X-4832927Y17681000D01*
X-4967073Y17681000D01*
X-5098640Y17654829D01*
X-5222574Y17603494D01*
X-5334112Y17528967D01*
X-5428967Y17434112D01*
X-5503494Y17322574D01*
X-5554829Y17198640D01*
X-5581000Y17067073D01*
X-7419000Y17067073D01*
X-7419000Y17117073D01*
X-7445171Y17248640D01*
X-7496506Y17372574D01*
X-7571033Y17484112D01*
X-7665888Y17578967D01*
X-7777426Y17653494D01*
X-7901360Y17704829D01*
X-8032927Y17731000D01*
X-8167073Y17731000D01*
X-8298640Y17704829D01*
X-8422574Y17653494D01*
X-8534112Y17578967D01*
X-8628967Y17484112D01*
X-8703494Y17372574D01*
X-8754829Y17248640D01*
X-8781000Y17117073D01*
X-12244000Y17117073D01*
X-12244000Y18617073D01*
X-8781000Y18617073D01*
X-8781000Y18482927D01*
X-8754829Y18351360D01*
X-8703494Y18227426D01*
X-8628967Y18115888D01*
X-8534112Y18021033D01*
X-8422574Y17946506D01*
X-8298640Y17895171D01*
X-8167073Y17869000D01*
X-8032927Y17869000D01*
X-7901360Y17895171D01*
X-7777426Y17946506D01*
X-7665888Y18021033D01*
X-7571033Y18115888D01*
X-7496506Y18227426D01*
X-7445171Y18351360D01*
X-7419000Y18482927D01*
X-7419000Y18617073D01*
X-5581000Y18617073D01*
X-5581000Y18482927D01*
X-5554829Y18351360D01*
X-5503494Y18227426D01*
X-5428967Y18115888D01*
X-5334112Y18021033D01*
X-5222574Y17946506D01*
X-5098640Y17895171D01*
X-4967073Y17869000D01*
X-4832927Y17869000D01*
X-4701360Y17895171D01*
X-4577426Y17946506D01*
X-4465888Y18021033D01*
X-4371033Y18115888D01*
X-4301678Y18219686D01*
X894000Y18219686D01*
X894000Y18100314D01*
X917288Y17983236D01*
X962970Y17872951D01*
X1029289Y17773698D01*
X1113698Y17689289D01*
X1212951Y17622970D01*
X1323236Y17577288D01*
X1440314Y17554000D01*
X1559686Y17554000D01*
X1676764Y17577288D01*
X1787049Y17622970D01*
X1886302Y17689289D01*
X1970711Y17773698D01*
X2037030Y17872951D01*
X2082712Y17983236D01*
X2106000Y18100314D01*
X2106000Y18219686D01*
X2082712Y18336764D01*
X2037030Y18447049D01*
X1970711Y18546302D01*
X1886302Y18630711D01*
X1787049Y18697030D01*
X1676764Y18742712D01*
X1559686Y18766000D01*
X1440314Y18766000D01*
X1323236Y18742712D01*
X1212951Y18697030D01*
X1113698Y18630711D01*
X1029289Y18546302D01*
X962970Y18447049D01*
X917288Y18336764D01*
X894000Y18219686D01*
X-4301678Y18219686D01*
X-4296506Y18227426D01*
X-4245171Y18351360D01*
X-4219000Y18482927D01*
X-4219000Y18617073D01*
X-4245171Y18748640D01*
X-4296506Y18872574D01*
X-4371033Y18984112D01*
X-4465888Y19078967D01*
X-4577426Y19153494D01*
X-4701360Y19204829D01*
X-4832927Y19231000D01*
X-4967073Y19231000D01*
X-5098640Y19204829D01*
X-5222574Y19153494D01*
X-5334112Y19078967D01*
X-5428967Y18984112D01*
X-5503494Y18872574D01*
X-5554829Y18748640D01*
X-5581000Y18617073D01*
X-7419000Y18617073D01*
X-7445171Y18748640D01*
X-7496506Y18872574D01*
X-7571033Y18984112D01*
X-7665888Y19078967D01*
X-7777426Y19153494D01*
X-7901360Y19204829D01*
X-8032927Y19231000D01*
X-8167073Y19231000D01*
X-8298640Y19204829D01*
X-8422574Y19153494D01*
X-8534112Y19078967D01*
X-8628967Y18984112D01*
X-8703494Y18872574D01*
X-8754829Y18748640D01*
X-8781000Y18617073D01*
X-12244000Y18617073D01*
X-12244000Y20717073D01*
X-10476000Y20717073D01*
X-10476000Y20582927D01*
X-10449829Y20451360D01*
X-10398494Y20327426D01*
X-10323967Y20215888D01*
X-10229112Y20121033D01*
X-10117574Y20046506D01*
X-9993640Y19995171D01*
X-9862073Y19969000D01*
X-9727927Y19969000D01*
X-9596360Y19995171D01*
X-9472426Y20046506D01*
X-9360888Y20121033D01*
X-9266033Y20215888D01*
X-9191506Y20327426D01*
X-9140171Y20451360D01*
X-9114000Y20582927D01*
X-9114000Y20717073D01*
X-9140171Y20848640D01*
X-9189227Y20967073D01*
X1619000Y20967073D01*
X1619000Y20832927D01*
X1645171Y20701360D01*
X1696506Y20577426D01*
X1771033Y20465888D01*
X1865888Y20371033D01*
X1977426Y20296506D01*
X2101360Y20245171D01*
X2232927Y20219000D01*
X2367073Y20219000D01*
X2498640Y20245171D01*
X2622574Y20296506D01*
X2734112Y20371033D01*
X2828967Y20465888D01*
X2903494Y20577426D01*
X2954829Y20701360D01*
X2981000Y20832927D01*
X2981000Y20967073D01*
X2961109Y21067073D01*
X6019000Y21067073D01*
X6019000Y20932927D01*
X6045171Y20801360D01*
X6096506Y20677426D01*
X6171033Y20565888D01*
X6265888Y20471033D01*
X6377426Y20396506D01*
X6501360Y20345171D01*
X6632927Y20319000D01*
X6767073Y20319000D01*
X6898640Y20345171D01*
X7022574Y20396506D01*
X7134112Y20471033D01*
X7212149Y20549070D01*
X7217288Y20523236D01*
X7262970Y20412951D01*
X7329289Y20313698D01*
X7413698Y20229289D01*
X7512951Y20162970D01*
X7623236Y20117288D01*
X7740314Y20094000D01*
X7859686Y20094000D01*
X7976764Y20117288D01*
X8087049Y20162970D01*
X8186302Y20229289D01*
X8270711Y20313698D01*
X8337030Y20412951D01*
X8382712Y20523236D01*
X8406000Y20640314D01*
X8406000Y20759686D01*
X8382712Y20876764D01*
X8337030Y20987049D01*
X8270711Y21086302D01*
X8186302Y21170711D01*
X8087049Y21237030D01*
X7976764Y21282712D01*
X7859686Y21306000D01*
X7740314Y21306000D01*
X7623236Y21282712D01*
X7512951Y21237030D01*
X7413698Y21170711D01*
X7369230Y21126243D01*
X7354829Y21198640D01*
X7303494Y21322574D01*
X7228967Y21434112D01*
X7134112Y21528967D01*
X7022574Y21603494D01*
X6898640Y21654829D01*
X6767073Y21681000D01*
X6632927Y21681000D01*
X6501360Y21654829D01*
X6377426Y21603494D01*
X6265888Y21528967D01*
X6171033Y21434112D01*
X6096506Y21322574D01*
X6045171Y21198640D01*
X6019000Y21067073D01*
X2961109Y21067073D01*
X2954829Y21098640D01*
X2903494Y21222574D01*
X2828967Y21334112D01*
X2734112Y21428967D01*
X2622574Y21503494D01*
X2498640Y21554829D01*
X2367073Y21581000D01*
X2232927Y21581000D01*
X2101360Y21554829D01*
X1977426Y21503494D01*
X1865888Y21428967D01*
X1771033Y21334112D01*
X1696506Y21222574D01*
X1645171Y21098640D01*
X1619000Y20967073D01*
X-9189227Y20967073D01*
X-9191506Y20972574D01*
X-9266033Y21084112D01*
X-9360888Y21178967D01*
X-9472426Y21253494D01*
X-9596360Y21304829D01*
X-9727927Y21331000D01*
X-9862073Y21331000D01*
X-9993640Y21304829D01*
X-10117574Y21253494D01*
X-10229112Y21178967D01*
X-10323967Y21084112D01*
X-10398494Y20972574D01*
X-10449829Y20848640D01*
X-10476000Y20717073D01*
X-12244000Y20717073D01*
X-12244000Y25167073D01*
X-10581000Y25167073D01*
X-10581000Y25032927D01*
X-10554829Y24901360D01*
X-10503494Y24777426D01*
X-10428967Y24665888D01*
X-10334112Y24571033D01*
X-10222574Y24496506D01*
X-10098640Y24445171D01*
X-9967073Y24419000D01*
X-9832927Y24419000D01*
X-9701360Y24445171D01*
X-9577426Y24496506D01*
X-9465888Y24571033D01*
X-9371033Y24665888D01*
X-9296506Y24777426D01*
X-9245171Y24901360D01*
X-9219000Y25032927D01*
X-9219000Y25167073D01*
X-9245171Y25298640D01*
X-9296506Y25422574D01*
X-9371033Y25534112D01*
X-9465888Y25628967D01*
X-9577426Y25703494D01*
X-9701360Y25754829D01*
X-9832927Y25781000D01*
X-9967073Y25781000D01*
X-10098640Y25754829D01*
X-10222574Y25703494D01*
X-10334112Y25628967D01*
X-10428967Y25534112D01*
X-10503494Y25422574D01*
X-10554829Y25298640D01*
X-10581000Y25167073D01*
X-12244000Y25167073D01*
X-12244000Y26067073D01*
X-9181000Y26067073D01*
X-9181000Y25932927D01*
X-9154829Y25801360D01*
X-9103494Y25677426D01*
X-9028967Y25565888D01*
X-8934112Y25471033D01*
X-8822574Y25396506D01*
X-8698640Y25345171D01*
X-8567073Y25319000D01*
X-8432927Y25319000D01*
X-8301360Y25345171D01*
X-8177426Y25396506D01*
X-8065888Y25471033D01*
X-7971033Y25565888D01*
X-7896506Y25677426D01*
X-7845171Y25801360D01*
X-7819000Y25932927D01*
X-7819000Y26067073D01*
X-7681000Y26067073D01*
X-7681000Y25932927D01*
X-7654829Y25801360D01*
X-7603494Y25677426D01*
X-7528967Y25565888D01*
X-7434112Y25471033D01*
X-7322574Y25396506D01*
X-7198640Y25345171D01*
X-7067073Y25319000D01*
X-6932927Y25319000D01*
X-6801360Y25345171D01*
X-6677426Y25396506D01*
X-6565888Y25471033D01*
X-6471033Y25565888D01*
X-6396506Y25677426D01*
X-6345171Y25801360D01*
X-6319000Y25932927D01*
X-6319000Y26067073D01*
X-6181000Y26067073D01*
X-6181000Y25932927D01*
X-6154829Y25801360D01*
X-6103494Y25677426D01*
X-6028967Y25565888D01*
X-5934112Y25471033D01*
X-5822574Y25396506D01*
X-5698640Y25345171D01*
X-5567073Y25319000D01*
X-5432927Y25319000D01*
X-5301360Y25345171D01*
X-5177426Y25396506D01*
X-5065888Y25471033D01*
X-4971033Y25565888D01*
X-4896506Y25677426D01*
X-4845171Y25801360D01*
X-4819000Y25932927D01*
X-4819000Y26067073D01*
X-4681000Y26067073D01*
X-4681000Y25932927D01*
X-4654829Y25801360D01*
X-4603494Y25677426D01*
X-4528967Y25565888D01*
X-4434112Y25471033D01*
X-4322574Y25396506D01*
X-4198640Y25345171D01*
X-4067073Y25319000D01*
X-3932927Y25319000D01*
X-3801360Y25345171D01*
X-3677426Y25396506D01*
X-3565888Y25471033D01*
X-3471033Y25565888D01*
X-3396506Y25677426D01*
X-3345171Y25801360D01*
X-3319000Y25932927D01*
X-3319000Y26067073D01*
X-3345171Y26198640D01*
X-3396506Y26322574D01*
X-3471033Y26434112D01*
X-3565888Y26528967D01*
X-3677426Y26603494D01*
X-3801360Y26654829D01*
X-3932927Y26681000D01*
X-4067073Y26681000D01*
X-4198640Y26654829D01*
X-4322574Y26603494D01*
X-4434112Y26528967D01*
X-4528967Y26434112D01*
X-4603494Y26322574D01*
X-4654829Y26198640D01*
X-4681000Y26067073D01*
X-4819000Y26067073D01*
X-4845171Y26198640D01*
X-4896506Y26322574D01*
X-4971033Y26434112D01*
X-5065888Y26528967D01*
X-5177426Y26603494D01*
X-5301360Y26654829D01*
X-5432927Y26681000D01*
X-5567073Y26681000D01*
X-5698640Y26654829D01*
X-5822574Y26603494D01*
X-5934112Y26528967D01*
X-6028967Y26434112D01*
X-6103494Y26322574D01*
X-6154829Y26198640D01*
X-6181000Y26067073D01*
X-6319000Y26067073D01*
X-6345171Y26198640D01*
X-6396506Y26322574D01*
X-6471033Y26434112D01*
X-6565888Y26528967D01*
X-6677426Y26603494D01*
X-6801360Y26654829D01*
X-6932927Y26681000D01*
X-7067073Y26681000D01*
X-7198640Y26654829D01*
X-7322574Y26603494D01*
X-7434112Y26528967D01*
X-7528967Y26434112D01*
X-7603494Y26322574D01*
X-7654829Y26198640D01*
X-7681000Y26067073D01*
X-7819000Y26067073D01*
X-7845171Y26198640D01*
X-7896506Y26322574D01*
X-7971033Y26434112D01*
X-8065888Y26528967D01*
X-8177426Y26603494D01*
X-8301360Y26654829D01*
X-8432927Y26681000D01*
X-8567073Y26681000D01*
X-8698640Y26654829D01*
X-8822574Y26603494D01*
X-8934112Y26528967D01*
X-9028967Y26434112D01*
X-9103494Y26322574D01*
X-9154829Y26198640D01*
X-9181000Y26067073D01*
X-12244000Y26067073D01*
X-12244000Y27567073D01*
X-9181000Y27567073D01*
X-9181000Y27432927D01*
X-9154829Y27301360D01*
X-9103494Y27177426D01*
X-9028967Y27065888D01*
X-8934112Y26971033D01*
X-8822574Y26896506D01*
X-8698640Y26845171D01*
X-8567073Y26819000D01*
X-8432927Y26819000D01*
X-8301360Y26845171D01*
X-8177426Y26896506D01*
X-8065888Y26971033D01*
X-7971033Y27065888D01*
X-7896506Y27177426D01*
X-7845171Y27301360D01*
X-7819000Y27432927D01*
X-7819000Y27567073D01*
X-7681000Y27567073D01*
X-7681000Y27432927D01*
X-7654829Y27301360D01*
X-7603494Y27177426D01*
X-7528967Y27065888D01*
X-7434112Y26971033D01*
X-7322574Y26896506D01*
X-7198640Y26845171D01*
X-7067073Y26819000D01*
X-6932927Y26819000D01*
X-6801360Y26845171D01*
X-6677426Y26896506D01*
X-6565888Y26971033D01*
X-6471033Y27065888D01*
X-6396506Y27177426D01*
X-6345171Y27301360D01*
X-6319000Y27432927D01*
X-6319000Y27567073D01*
X-6181000Y27567073D01*
X-6181000Y27432927D01*
X-6154829Y27301360D01*
X-6103494Y27177426D01*
X-6028967Y27065888D01*
X-5934112Y26971033D01*
X-5822574Y26896506D01*
X-5698640Y26845171D01*
X-5567073Y26819000D01*
X-5432927Y26819000D01*
X-5301360Y26845171D01*
X-5177426Y26896506D01*
X-5065888Y26971033D01*
X-4971033Y27065888D01*
X-4896506Y27177426D01*
X-4845171Y27301360D01*
X-4819000Y27432927D01*
X-4819000Y27567073D01*
X-4681000Y27567073D01*
X-4681000Y27432927D01*
X-4654829Y27301360D01*
X-4603494Y27177426D01*
X-4528967Y27065888D01*
X-4434112Y26971033D01*
X-4322574Y26896506D01*
X-4198640Y26845171D01*
X-4067073Y26819000D01*
X-3932927Y26819000D01*
X-3801360Y26845171D01*
X-3677426Y26896506D01*
X-3565888Y26971033D01*
X-3471033Y27065888D01*
X-3396506Y27177426D01*
X-3345171Y27301360D01*
X-3319000Y27432927D01*
X-3319000Y27567073D01*
X-3345171Y27698640D01*
X-3396506Y27822574D01*
X-3471033Y27934112D01*
X-3565888Y28028967D01*
X-3677426Y28103494D01*
X-3801360Y28154829D01*
X-3932927Y28181000D01*
X-4067073Y28181000D01*
X-4198640Y28154829D01*
X-4322574Y28103494D01*
X-4434112Y28028967D01*
X-4528967Y27934112D01*
X-4603494Y27822574D01*
X-4654829Y27698640D01*
X-4681000Y27567073D01*
X-4819000Y27567073D01*
X-4845171Y27698640D01*
X-4896506Y27822574D01*
X-4971033Y27934112D01*
X-5065888Y28028967D01*
X-5177426Y28103494D01*
X-5301360Y28154829D01*
X-5432927Y28181000D01*
X-5567073Y28181000D01*
X-5698640Y28154829D01*
X-5822574Y28103494D01*
X-5934112Y28028967D01*
X-6028967Y27934112D01*
X-6103494Y27822574D01*
X-6154829Y27698640D01*
X-6181000Y27567073D01*
X-6319000Y27567073D01*
X-6345171Y27698640D01*
X-6396506Y27822574D01*
X-6471033Y27934112D01*
X-6565888Y28028967D01*
X-6677426Y28103494D01*
X-6801360Y28154829D01*
X-6932927Y28181000D01*
X-7067073Y28181000D01*
X-7198640Y28154829D01*
X-7322574Y28103494D01*
X-7434112Y28028967D01*
X-7528967Y27934112D01*
X-7603494Y27822574D01*
X-7654829Y27698640D01*
X-7681000Y27567073D01*
X-7819000Y27567073D01*
X-7845171Y27698640D01*
X-7896506Y27822574D01*
X-7971033Y27934112D01*
X-8065888Y28028967D01*
X-8177426Y28103494D01*
X-8301360Y28154829D01*
X-8432927Y28181000D01*
X-8567073Y28181000D01*
X-8698640Y28154829D01*
X-8822574Y28103494D01*
X-8934112Y28028967D01*
X-9028967Y27934112D01*
X-9103494Y27822574D01*
X-9154829Y27698640D01*
X-9181000Y27567073D01*
X-12244000Y27567073D01*
X-12244000Y29067073D01*
X-9181000Y29067073D01*
X-9181000Y28932927D01*
X-9154829Y28801360D01*
X-9103494Y28677426D01*
X-9028967Y28565888D01*
X-8934112Y28471033D01*
X-8822574Y28396506D01*
X-8698640Y28345171D01*
X-8567073Y28319000D01*
X-8432927Y28319000D01*
X-8301360Y28345171D01*
X-8177426Y28396506D01*
X-8065888Y28471033D01*
X-7971033Y28565888D01*
X-7896506Y28677426D01*
X-7845171Y28801360D01*
X-7819000Y28932927D01*
X-7819000Y29067073D01*
X-7681000Y29067073D01*
X-7681000Y28932927D01*
X-7654829Y28801360D01*
X-7603494Y28677426D01*
X-7528967Y28565888D01*
X-7434112Y28471033D01*
X-7322574Y28396506D01*
X-7198640Y28345171D01*
X-7067073Y28319000D01*
X-6932927Y28319000D01*
X-6801360Y28345171D01*
X-6677426Y28396506D01*
X-6565888Y28471033D01*
X-6471033Y28565888D01*
X-6396506Y28677426D01*
X-6345171Y28801360D01*
X-6319000Y28932927D01*
X-6319000Y29067073D01*
X-6345171Y29198640D01*
X-6396506Y29322574D01*
X-6471033Y29434112D01*
X-6565888Y29528967D01*
X-6677426Y29603494D01*
X-6801360Y29654829D01*
X-6932927Y29681000D01*
X-7067073Y29681000D01*
X-7198640Y29654829D01*
X-7322574Y29603494D01*
X-7434112Y29528967D01*
X-7528967Y29434112D01*
X-7603494Y29322574D01*
X-7654829Y29198640D01*
X-7681000Y29067073D01*
X-7819000Y29067073D01*
X-7845171Y29198640D01*
X-7896506Y29322574D01*
X-7971033Y29434112D01*
X-8065888Y29528967D01*
X-8177426Y29603494D01*
X-8301360Y29654829D01*
X-8432927Y29681000D01*
X-8567073Y29681000D01*
X-8698640Y29654829D01*
X-8822574Y29603494D01*
X-8934112Y29528967D01*
X-9028967Y29434112D01*
X-9103494Y29322574D01*
X-9154829Y29198640D01*
X-9181000Y29067073D01*
X-12244000Y29067073D01*
X-12244000Y31941966D01*
X-11641273Y32544000D01*
X-8455999Y32544000D01*
X-8456000Y31355085D01*
G37*
G04 #@! TD.AperFunction*
M02*
