G04 #@! TF.GenerationSoftware,KiCad,Pcbnew,5.0.2+dfsg1-1*
G04 #@! TF.CreationDate,2020-07-05T13:54:42+02:00*
G04 #@! TF.ProjectId,edgedriver,65646765-6472-4697-9665-722e6b696361,rev?*
G04 #@! TF.SameCoordinates,Original*
G04 #@! TF.FileFunction,Profile,NP*
%FSLAX46Y46*%
G04 Gerber Fmt 4.6, Leading zero omitted, Abs format (unit mm)*
G04 Created by KiCad (PCBNEW 5.0.2+dfsg1-1) date Sun Jul  5 13:54:42 2020*
%MOMM*%
%LPD*%
G01*
G04 APERTURE LIST*
%ADD10C,0.282843*%
G04 APERTURE END LIST*
D10*
X-8000028Y37100340D02*
X-10591601Y37100340D01*
X-8000028Y31099910D02*
X-8000028Y37100340D01*
X-5649784Y31099910D02*
X-8000028Y31099910D01*
X-5649784Y29100034D02*
X-5649784Y31099910D01*
X-2249992Y29100034D02*
X-5649784Y29100034D01*
X-2249992Y26099698D02*
X-2249992Y29100034D01*
X2249992Y26099698D02*
X-2249992Y26099698D01*
X2249992Y29100034D02*
X2249992Y26099698D01*
X5649267Y29100034D02*
X2249992Y29100034D01*
X5649267Y31099910D02*
X5649267Y29100034D01*
X7999512Y31099910D02*
X5649267Y31099910D01*
X7999512Y37100340D02*
X7999512Y31099910D01*
X10591085Y37100340D02*
X7999512Y37100340D01*
X10640655Y37099678D02*
X10591085Y37100340D01*
X10690078Y37097794D02*
X10640655Y37099678D01*
X10739333Y37094699D02*
X10690078Y37097794D01*
X10788399Y37090400D02*
X10739333Y37094699D01*
X10837257Y37084905D02*
X10788399Y37090400D01*
X10885884Y37078224D02*
X10837257Y37084905D01*
X10934262Y37070364D02*
X10885884Y37078224D01*
X10982370Y37061334D02*
X10934262Y37070364D01*
X11030187Y37051142D02*
X10982370Y37061334D01*
X11077694Y37039796D02*
X11030187Y37051142D01*
X11124869Y37027306D02*
X11077694Y37039796D01*
X11171692Y37013679D02*
X11124869Y37027306D01*
X11218143Y36998924D02*
X11171692Y37013679D01*
X11264201Y36983048D02*
X11218143Y36998924D01*
X11309847Y36966062D02*
X11264201Y36983048D01*
X11355059Y36947972D02*
X11309847Y36966062D01*
X11399818Y36928788D02*
X11355059Y36947972D01*
X11444102Y36908517D02*
X11399818Y36928788D01*
X11487892Y36887168D02*
X11444102Y36908517D01*
X11531168Y36864750D02*
X11487892Y36887168D01*
X11573907Y36841271D02*
X11531168Y36864750D01*
X11616092Y36816739D02*
X11573907Y36841271D01*
X11657700Y36791162D02*
X11616092Y36816739D01*
X11698711Y36764550D02*
X11657700Y36791162D01*
X11739106Y36736910D02*
X11698711Y36764550D01*
X11778864Y36708251D02*
X11739106Y36736910D01*
X11817963Y36678581D02*
X11778864Y36708251D01*
X11856385Y36647908D02*
X11817963Y36678581D01*
X11894109Y36616242D02*
X11856385Y36647908D01*
X11931113Y36583590D02*
X11894109Y36616242D01*
X11967379Y36549960D02*
X11931113Y36583590D01*
X12002885Y36515362D02*
X11967379Y36549960D01*
X12005478Y36514304D02*
X12002885Y36515362D01*
X15913766Y32606017D02*
X12005478Y36514304D01*
X15914798Y32603371D02*
X15913766Y32606017D01*
X15949396Y32567864D02*
X15914798Y32603371D01*
X15983025Y32531598D02*
X15949396Y32567864D01*
X16015678Y32494593D02*
X15983025Y32531598D01*
X16047346Y32456869D02*
X16015678Y32494593D01*
X16078020Y32418447D02*
X16047346Y32456869D01*
X16107692Y32379347D02*
X16078020Y32418447D01*
X16136354Y32339589D02*
X16107692Y32379347D01*
X16163996Y32299194D02*
X16136354Y32339589D01*
X16190612Y32258183D02*
X16163996Y32299194D01*
X16216191Y32216575D02*
X16190612Y32258183D01*
X16240727Y32174391D02*
X16216191Y32216575D01*
X16264209Y32131652D02*
X16240727Y32174391D01*
X16286631Y32088377D02*
X16264209Y32131652D01*
X16307983Y32044588D02*
X16286631Y32088377D01*
X16328256Y32000304D02*
X16307983Y32044588D01*
X16347444Y31955545D02*
X16328256Y32000304D01*
X16365536Y31910334D02*
X16347444Y31955545D01*
X16382525Y31864689D02*
X16365536Y31910334D01*
X16398402Y31818631D02*
X16382525Y31864689D01*
X16413158Y31772180D02*
X16398402Y31818631D01*
X16426786Y31725357D02*
X16413158Y31772180D01*
X16439277Y31678183D02*
X16426786Y31725357D01*
X16450621Y31630677D02*
X16439277Y31678183D01*
X16460812Y31582860D02*
X16450621Y31630677D01*
X16469840Y31534752D02*
X16460812Y31582860D01*
X16477697Y31486374D02*
X16469840Y31534752D01*
X16484375Y31437746D02*
X16477697Y31486374D01*
X16489865Y31388889D02*
X16484375Y31437746D01*
X16494158Y31339823D02*
X16489865Y31388889D01*
X16497246Y31290568D02*
X16494158Y31339823D01*
X16499122Y31241144D02*
X16497246Y31290568D01*
X16499775Y31191573D02*
X16499122Y31241144D01*
X16499775Y4638392D02*
X16499775Y31191573D01*
X16499122Y4588820D02*
X16499775Y4638392D01*
X16497247Y4539397D02*
X16499122Y4588820D01*
X16494158Y4490142D02*
X16497247Y4539397D01*
X16489865Y4441075D02*
X16494158Y4490142D01*
X16484375Y4392218D02*
X16489865Y4441075D01*
X16477698Y4343590D02*
X16484375Y4392218D01*
X16469840Y4295212D02*
X16477698Y4343590D01*
X16460812Y4247105D02*
X16469840Y4295212D01*
X16450622Y4199287D02*
X16460812Y4247105D01*
X16439277Y4151781D02*
X16450622Y4199287D01*
X16426786Y4104607D02*
X16439277Y4151781D01*
X16413158Y4057784D02*
X16426786Y4104607D01*
X16398402Y4011333D02*
X16413158Y4057784D01*
X16382525Y3965275D02*
X16398402Y4011333D01*
X16365536Y3919630D02*
X16382525Y3965275D01*
X16347444Y3874418D02*
X16365536Y3919630D01*
X16328257Y3829660D02*
X16347444Y3874418D01*
X16307983Y3785376D02*
X16328257Y3829660D01*
X16286631Y3741586D02*
X16307983Y3785376D01*
X16264209Y3698312D02*
X16286631Y3741586D01*
X16240727Y3655572D02*
X16264209Y3698312D01*
X16216192Y3613388D02*
X16240727Y3655572D01*
X16190612Y3571780D02*
X16216192Y3613388D01*
X16163997Y3530769D02*
X16190612Y3571780D01*
X16136354Y3490374D02*
X16163997Y3530769D01*
X16107692Y3450616D02*
X16136354Y3490374D01*
X16078020Y3411516D02*
X16107692Y3450616D01*
X16047346Y3373094D02*
X16078020Y3411516D01*
X16015678Y3335370D02*
X16047346Y3373094D01*
X15983025Y3298365D02*
X16015678Y3335370D01*
X15949396Y3262098D02*
X15983025Y3298365D01*
X15914798Y3226592D02*
X15949396Y3262098D01*
X15913766Y3223999D02*
X15914798Y3226592D01*
X12005478Y-684290D02*
X15913766Y3223999D01*
X12002885Y-685324D02*
X12005478Y-684290D01*
X11967379Y-719923D02*
X12002885Y-685324D01*
X11931113Y-753552D02*
X11967379Y-719923D01*
X11894109Y-786204D02*
X11931113Y-753552D01*
X11856385Y-817870D02*
X11894109Y-786204D01*
X11817963Y-848543D02*
X11856385Y-817870D01*
X11778864Y-878212D02*
X11817963Y-848543D01*
X11739106Y-906872D02*
X11778864Y-878212D01*
X11698711Y-934512D02*
X11739106Y-906872D01*
X11657700Y-961124D02*
X11698711Y-934512D01*
X11616092Y-986700D02*
X11657700Y-961124D01*
X11573907Y-1011232D02*
X11616092Y-986700D01*
X11531168Y-1034712D02*
X11573907Y-1011232D01*
X11487892Y-1057130D02*
X11531168Y-1034712D01*
X11444102Y-1078478D02*
X11487892Y-1057130D01*
X11399818Y-1098749D02*
X11444102Y-1078478D01*
X11355059Y-1117934D02*
X11399818Y-1098749D01*
X11309847Y-1136023D02*
X11355059Y-1117934D01*
X11264201Y-1153010D02*
X11309847Y-1136023D01*
X11218143Y-1168885D02*
X11264201Y-1153010D01*
X11171692Y-1183640D02*
X11218143Y-1168885D01*
X11124869Y-1197267D02*
X11171692Y-1183640D01*
X11077694Y-1209758D02*
X11124869Y-1197267D01*
X11030187Y-1221103D02*
X11077694Y-1209758D01*
X10982370Y-1231295D02*
X11030187Y-1221103D01*
X10934262Y-1240325D02*
X10982370Y-1231295D01*
X10885884Y-1248185D02*
X10934262Y-1240325D01*
X10837257Y-1254867D02*
X10885884Y-1248185D01*
X10788399Y-1260361D02*
X10837257Y-1254867D01*
X10739333Y-1264660D02*
X10788399Y-1260361D01*
X10690078Y-1267756D02*
X10739333Y-1264660D01*
X10640655Y-1269639D02*
X10690078Y-1267756D01*
X10591085Y-1270302D02*
X10640655Y-1269639D01*
X-10591601Y-1270302D02*
X10591085Y-1270302D01*
X-10641172Y-1269648D02*
X-10591601Y-1270302D01*
X-10690595Y-1267773D02*
X-10641172Y-1269648D01*
X-10739850Y-1264684D02*
X-10690595Y-1267773D01*
X-10788916Y-1260391D02*
X-10739850Y-1264684D01*
X-10837773Y-1254901D02*
X-10788916Y-1260391D01*
X-10886401Y-1248224D02*
X-10837773Y-1254901D01*
X-10934779Y-1240367D02*
X-10886401Y-1248224D01*
X-10982886Y-1231339D02*
X-10934779Y-1240367D01*
X-11030704Y-1221148D02*
X-10982886Y-1231339D01*
X-11078210Y-1209804D02*
X-11030704Y-1221148D01*
X-11125385Y-1197313D02*
X-11078210Y-1209804D01*
X-11172208Y-1183686D02*
X-11125385Y-1197313D01*
X-11218659Y-1168929D02*
X-11172208Y-1183686D01*
X-11264718Y-1153053D02*
X-11218659Y-1168929D01*
X-11310363Y-1136064D02*
X-11264718Y-1153053D01*
X-11355575Y-1117972D02*
X-11310363Y-1136064D01*
X-11400334Y-1098785D02*
X-11355575Y-1117972D01*
X-11444619Y-1078512D02*
X-11400334Y-1098785D01*
X-11488409Y-1057160D02*
X-11444619Y-1078512D01*
X-11531684Y-1034739D02*
X-11488409Y-1057160D01*
X-11574424Y-1011256D02*
X-11531684Y-1034739D01*
X-11616608Y-986721D02*
X-11574424Y-1011256D01*
X-11658216Y-961141D02*
X-11616608Y-986721D01*
X-11699228Y-934526D02*
X-11658216Y-961141D01*
X-11739622Y-906883D02*
X-11699228Y-934526D01*
X-11779380Y-878221D02*
X-11739622Y-906883D01*
X-11818480Y-848549D02*
X-11779380Y-878221D01*
X-11856902Y-817874D02*
X-11818480Y-848549D01*
X-11894626Y-786206D02*
X-11856902Y-817874D01*
X-11931630Y-753553D02*
X-11894626Y-786206D01*
X-11967896Y-719923D02*
X-11931630Y-753553D01*
X-12003402Y-685324D02*
X-11967896Y-719923D01*
X-12005995Y-684290D02*
X-12003402Y-685324D01*
X-15914283Y3223999D02*
X-12005995Y-684290D01*
X-15915315Y3226592D02*
X-15914283Y3223999D01*
X-15949913Y3262098D02*
X-15915315Y3226592D01*
X-15983542Y3298365D02*
X-15949913Y3262098D01*
X-16016195Y3335370D02*
X-15983542Y3298365D01*
X-16047863Y3373094D02*
X-16016195Y3335370D01*
X-16078537Y3411516D02*
X-16047863Y3373094D01*
X-16108209Y3450616D02*
X-16078537Y3411516D01*
X-16136871Y3490374D02*
X-16108209Y3450616D01*
X-16164514Y3530769D02*
X-16136871Y3490374D01*
X-16191129Y3571780D02*
X-16164514Y3530769D01*
X-16216709Y3613388D02*
X-16191129Y3571780D01*
X-16241244Y3655572D02*
X-16216709Y3613388D01*
X-16264727Y3698312D02*
X-16241244Y3655572D01*
X-16287148Y3741586D02*
X-16264727Y3698312D01*
X-16308500Y3785376D02*
X-16287148Y3741586D01*
X-16328774Y3829660D02*
X-16308500Y3785376D01*
X-16347961Y3874418D02*
X-16328774Y3829660D01*
X-16366053Y3919630D02*
X-16347961Y3874418D01*
X-16383042Y3965275D02*
X-16366053Y3919630D01*
X-16398919Y4011333D02*
X-16383042Y3965275D01*
X-16413675Y4057784D02*
X-16398919Y4011333D01*
X-16427303Y4104607D02*
X-16413675Y4057784D01*
X-16439794Y4151781D02*
X-16427303Y4104607D01*
X-16451139Y4199287D02*
X-16439794Y4151781D01*
X-16461329Y4247105D02*
X-16451139Y4199287D01*
X-16470358Y4295212D02*
X-16461329Y4247105D01*
X-16478215Y4343590D02*
X-16470358Y4295212D01*
X-16484892Y4392218D02*
X-16478215Y4343590D01*
X-16490382Y4441075D02*
X-16484892Y4392218D01*
X-16494675Y4490142D02*
X-16490382Y4441075D01*
X-16497764Y4539397D02*
X-16494675Y4490142D01*
X-16499639Y4588820D02*
X-16497764Y4539397D01*
X-16500292Y4638392D02*
X-16499639Y4588820D01*
X-16500292Y31191573D02*
X-16500292Y4638392D01*
X-16499639Y31241144D02*
X-16500292Y31191573D01*
X-16497764Y31290568D02*
X-16499639Y31241144D01*
X-16494675Y31339823D02*
X-16497764Y31290568D01*
X-16490382Y31388889D02*
X-16494675Y31339823D01*
X-16484892Y31437746D02*
X-16490382Y31388889D01*
X-16478215Y31486374D02*
X-16484892Y31437746D01*
X-16470357Y31534752D02*
X-16478215Y31486374D01*
X-16461329Y31582860D02*
X-16470357Y31534752D01*
X-16451138Y31630677D02*
X-16461329Y31582860D01*
X-16439794Y31678183D02*
X-16451138Y31630677D01*
X-16427303Y31725357D02*
X-16439794Y31678183D01*
X-16413675Y31772180D02*
X-16427303Y31725357D01*
X-16398919Y31818631D02*
X-16413675Y31772180D01*
X-16383042Y31864689D02*
X-16398919Y31818631D01*
X-16366053Y31910334D02*
X-16383042Y31864689D01*
X-16347961Y31955545D02*
X-16366053Y31910334D01*
X-16328773Y32000304D02*
X-16347961Y31955545D01*
X-16308500Y32044588D02*
X-16328773Y32000304D01*
X-16287148Y32088377D02*
X-16308500Y32044588D01*
X-16264727Y32131652D02*
X-16287148Y32088377D01*
X-16241244Y32174391D02*
X-16264727Y32131652D01*
X-16216709Y32216575D02*
X-16241244Y32174391D01*
X-16191129Y32258183D02*
X-16216709Y32216575D01*
X-16164514Y32299194D02*
X-16191129Y32258183D01*
X-16136871Y32339589D02*
X-16164514Y32299194D01*
X-16108209Y32379347D02*
X-16136871Y32339589D01*
X-16078537Y32418447D02*
X-16108209Y32379347D01*
X-16047863Y32456869D02*
X-16078537Y32418447D01*
X-16016195Y32494593D02*
X-16047863Y32456869D01*
X-15983542Y32531598D02*
X-16016195Y32494593D01*
X-15949913Y32567864D02*
X-15983542Y32531598D01*
X-15915315Y32603371D02*
X-15949913Y32567864D01*
X-15914283Y32606017D02*
X-15915315Y32603371D01*
X-12005995Y36514304D02*
X-15914283Y32606017D01*
X-12003402Y36515362D02*
X-12005995Y36514304D01*
X-11967896Y36549960D02*
X-12003402Y36515362D01*
X-11931630Y36583590D02*
X-11967896Y36549960D01*
X-11894626Y36616242D02*
X-11931630Y36583590D01*
X-11856902Y36647908D02*
X-11894626Y36616242D01*
X-11818480Y36678581D02*
X-11856902Y36647908D01*
X-11779380Y36708251D02*
X-11818480Y36678581D01*
X-11739622Y36736910D02*
X-11779380Y36708251D01*
X-11699228Y36764550D02*
X-11739622Y36736910D01*
X-11658216Y36791162D02*
X-11699228Y36764550D01*
X-11616608Y36816739D02*
X-11658216Y36791162D01*
X-11574424Y36841271D02*
X-11616608Y36816739D01*
X-11531684Y36864750D02*
X-11574424Y36841271D01*
X-11488409Y36887168D02*
X-11531684Y36864750D01*
X-11444619Y36908517D02*
X-11488409Y36887168D01*
X-11400334Y36928788D02*
X-11444619Y36908517D01*
X-11355575Y36947972D02*
X-11400334Y36928788D01*
X-11310363Y36966062D02*
X-11355575Y36947972D01*
X-11264718Y36983048D02*
X-11310363Y36966062D01*
X-11218659Y36998924D02*
X-11264718Y36983048D01*
X-11172208Y37013679D02*
X-11218659Y36998924D01*
X-11125385Y37027306D02*
X-11172208Y37013679D01*
X-11078210Y37039796D02*
X-11125385Y37027306D01*
X-11030704Y37051142D02*
X-11078210Y37039796D01*
X-10982886Y37061334D02*
X-11030704Y37051142D01*
X-10934779Y37070364D02*
X-10982886Y37061334D01*
X-10886401Y37078224D02*
X-10934779Y37070364D01*
X-10837773Y37084905D02*
X-10886401Y37078224D01*
X-10788916Y37090400D02*
X-10837773Y37084905D01*
X-10739850Y37094699D02*
X-10788916Y37090400D01*
X-10690595Y37097794D02*
X-10739850Y37094699D01*
X-10641172Y37099678D02*
X-10690595Y37097794D01*
X-10591601Y37100340D02*
X-10641172Y37099678D01*
M02*
