<?xml version="1.0" encoding="UTF-8" standalone="no"?>
<svg
   xmlns:dc="http://purl.org/dc/elements/1.1/"
   xmlns:cc="http://creativecommons.org/ns#"
   xmlns:rdf="http://www.w3.org/1999/02/22-rdf-syntax-ns#"
   xmlns:svg="http://www.w3.org/2000/svg"
   xmlns="http://www.w3.org/2000/svg"
   xmlns:sodipodi="http://sodipodi.sourceforge.net/DTD/sodipodi-0.dtd"
   xmlns:inkscape="http://www.inkscape.org/namespaces/inkscape"
   width="600mm"
   height="600mm"
   viewBox="0 0 600 600"
   version="1.1"
   id="svg2271"
   inkscape:version="1.0.2 (e86c870879, 2021-01-15)"
   sodipodi:docname="polyhedrone_case.svg">
  <defs
     id="defs2265" />
  <sodipodi:namedview
     id="base"
     pagecolor="#ffffff"
     bordercolor="#666666"
     borderopacity="1.0"
     inkscape:pageopacity="0.0"
     inkscape:pageshadow="2"
     inkscape:zoom="0.175"
     inkscape:cx="810.35529"
     inkscape:cy="810.13039"
     inkscape:document-units="mm"
     inkscape:current-layer="layer1"
     showgrid="false"
     inkscape:snap-global="false"
     inkscape:snap-smooth-nodes="true"
     inkscape:window-width="1364"
     inkscape:window-height="750"
     inkscape:window-x="1"
     inkscape:window-y="17"
     inkscape:window-maximized="0"
     inkscape:document-rotation="0" />
  <metadata
     id="metadata2268">
    <rdf:RDF>
      <cc:Work
         rdf:about="">
        <dc:format>image/svg+xml</dc:format>
        <dc:type
           rdf:resource="http://purl.org/dc/dcmitype/StillImage" />
        <dc:title></dc:title>
      </cc:Work>
    </rdf:RDF>
  </metadata>
  <g
     inkscape:label="Layer 1"
     inkscape:groupmode="layer"
     id="layer1"
     transform="translate(0,103)">
    <path
       style="opacity:1;fill:none;fill-opacity:1;stroke:#000000;stroke-width:0.5;stroke-linecap:round;stroke-linejoin:miter;stroke-miterlimit:4;stroke-dasharray:none;stroke-opacity:0.952703;paint-order:normal"
       d="m 319.75039,334.42935 c -1.108,0 -2.05984,0.894 -1.99986,2.00041 l 10e-6,1.99959 c 0,0.55401 0.44593,1 0.99994,1 h 4.99967 l -1e-5,8.99978 H 317.75 v 5.00071 c 0,1.6619 1.33834,2.99979 3.00032,2.99979 h 43.99993 c 1.66201,0 2.99982,-1.33789 2.99982,-2.99979 v -5.00071 h -11.99982 v -11.99937 c 0,-1.10799 -0.89185,-2.00041 -1.99985,-2.00041 h -10.99987 c -1.10799,0 -2.06036,0.894 -2.00038,2.00041 l 10e-6,1.99959 c 0,0.55401 0.44645,1 1.00045,1 h 4.99969 l -10e-6,8.99978 h -13.99966 v -11.99937 c 0,-1.10799 -0.89238,-2.00041 -2.00038,-2.00041 z"
       id="path2178"
       inkscape:connector-curvature="0"
       sodipodi:nodetypes="sccccccsssscccssccsccccss" />
    <path
       style="opacity:1;fill:none;fill-opacity:1;stroke:#000000;stroke-width:0.5;stroke-linecap:round;stroke-linejoin:round;stroke-miterlimit:4;stroke-dasharray:none;stroke-opacity:1;paint-order:normal"
       d="m 178.78278,460.23324 h 7.99999 v 4.1298 h 8.00001 v -4.1298 h 8 v 4.1298 h 8 v -4.1298 h 7.99979 l 2e-4,9.55194 h 2.9998 v 4 h -2.9998 l -2e-4,5.42189 h -7.99979 v 4.13005 h -8 v -4.13005 h -8 v 4.13005 h -8.00001 v -4.13005 h -7.99991 l -8e-5,-5.42189 h -7.00001 v -4 h 7.00001 z"
       id="path1351"
       inkscape:connector-curvature="0" />
    <path
       inkscape:connector-curvature="0"
       style="opacity:1;fill:none;fill-opacity:0.391892;stroke:#000000;stroke-width:0.5;stroke-linecap:round;stroke-linejoin:miter;stroke-miterlimit:4;stroke-dasharray:none;stroke-opacity:1;paint-order:normal"
       d="m 75.766282,452.30773 a 18.038631,18.038631 0 0 0 -18.038687,18.03869 18.038631,18.038631 0 0 0 18.038687,18.03869 18.038631,18.038631 0 0 0 18.03869,-18.03869 18.038631,18.038631 0 0 0 -18.03869,-18.03869 z m 0,3.75274 5.1754,3.75997 1.76319,-2.42724 3.2365,2.35128 -1.7632,2.42724 5.17488,3.75998 -1.97663,6.08386 2.85306,0.92708 -1.2361,3.80442 -2.85357,-0.92708 -1.97663,6.08387 h -6.3965 v 2.99982 h -4.00028 v -2.99982 h -6.39702 l -1.97663,-6.08387 -2.853047,0.92708 -1.2361,-3.80442 2.853047,-0.92708 -1.976617,-6.08386 5.174877,-3.75998 -1.7632,-2.42724 3.23598,-2.35128 1.76371,2.42724 z"
       id="path19512" />
    <g
       id="g1737"
       transform="matrix(0.66288471,0.74872148,0.74872148,-0.66288471,542.95829,-73.827724)"
       inkscape:transform-center-x="-52.891823"
       inkscape:transform-center-y="47.080889"
       style="stroke:#000000;stroke-width:0.5;stroke-miterlimit:4;stroke-dasharray:none;stroke-opacity:0.952703">
      <path
         sodipodi:nodetypes="cccccccccccccccccccccccccc"
         inkscape:connector-curvature="0"
         id="path1733"
         d="m 36.320179,-89.678149 15.786091,-0.0097 1.578607,-2.500741 3.15722,-0.0019 3.157217,4.998053 3.157217,-0.0019 3.15722,-5.001946 3.157217,-0.0019 3.15722,4.998056 3.157217,-0.0019 3.157217,-5.001945 3.15722,-0.0019 3.157217,4.998056 3.15722,-0.0019 3.157227,-5.001946 3.157217,-0.0019 3.15722,4.998054 3.157217,-0.0019 3.15722,-5.001945 3.15722,-0.0019 3.15722,4.998056 3.15722,-0.0019 3.15722,-5.001948 3.15722,-0.0019 1.57861,2.498796 15.7861,-0.0097"
         style="fill:none;stroke:#000000;stroke-width:0.5;stroke-linecap:butt;stroke-linejoin:miter;stroke-miterlimit:4;stroke-dasharray:none;stroke-opacity:0.952703" />
      <path
         id="path1735"
         style="fill:none;stroke:#000000;stroke-width:0.5;stroke-miterlimit:4;stroke-dasharray:none;stroke-opacity:0.952703"
         d="m 86.814749,-131.63765 -8.107804,4.84583 3.172617,5.30828 -7.876197,4.7074 -7.211874,-12.06657 -8.133707,4.8613 4.03926,6.7583 -8.004957,4.78435 3.172617,5.30828 -7.876194,4.7074 -7.211877,-12.06657 -8.133704,4.86131 4.039257,6.75829 -8.008444,4.786441 11.292841,16.810917 5.133407,-3.448403 5.519827,8.216999 -11.669061,7.838775 5.687107,8.466027 6.535654,-4.390372 11.206934,16.683026 5.133407,-3.448404 5.519817,8.216999 -11.669054,7.838775 5.687107,8.466027 6.535657,-4.390372 11.227364,16.713447 11.311014,-16.837961 -5.133407,-3.448403 5.519817,-8.216999 11.669067,7.838775 5.68711,-8.466027 -6.53566,-4.390371 11.20694,-16.683026 -5.13341,-3.448404 5.51983,-8.216998 11.66906,7.838775 5.68712,-8.466027 -6.53566,-4.390372 11.20921,-16.686403 -8.13721,-4.863391 -3.17262,5.308277 -7.8762,-4.707397 7.21188,-12.06658 -8.13371,-4.86131 -4.03926,6.7583 -8.00495,-4.78435 -3.17263,5.30828 -7.876197,-4.7074 7.211877,-12.06658 -8.133707,-4.86131 -4.03926,6.7583 z m -24.950195,18.40708 -3.13306,1.87255 0.84649,1.41631 3.13306,-1.87254 z m -1.65677,53.73237 2.03532,3.029847 1.369657,-0.920076 -2.035317,-3.029847 z m 51.178616,3.029847 2.03532,-3.029847 -1.36966,-0.920076 -2.03532,3.029847 z m 3.51161,-54.889667 -3.13306,-1.87255 -0.84649,1.41632 3.13306,1.87254 z m -47.062409,9.56424 v 2.999812 h 15.000111 v -2.999812 z m 23.000135,0 v 2.999812 h 15.000114 v -2.999812 z m -23.000135,21.166662 v 2.999816 h 15.000111 v -2.999816 z m 23.000135,0 v 2.999816 h 15.000114 v -2.999816 z"
         inkscape:connector-curvature="0" />
    </g>
    <path
       d="m 534.05803,103.55122 3.47887,1.1045 -0.4993,1.5727 -3.47886,-1.1045 z m -38.76924,39.0148 0.91933,-3.5323 1.59681,0.4156 -0.91933,3.5323 z m 36.19411,36.3101 -3.61769,0.48448 -0.21905,-1.63539 3.61769,-0.4845 z m 39.13228,-36.8589 0.67484,3.587 -1.62155,0.3051 -0.67485,-3.5871 z m -9.23475,-41.1997 -2.38227,7.5044 8.85948,2.8128 1.74663,9.2828 -6.07766,1.1431 1.69686,9.0177 13.81476,-2.5994 1.75214,9.3124 -7.73745,1.4559 1.72377,9.165 -6.07731,1.1435 1.69651,9.0172 13.81511,-2.5989 1.75214,9.31239 -7.73779,1.4555 1.72496,9.16941 -20.07252,2.68849 -0.82107,-6.12939 -9.81147,1.31389 1.86657,13.9328 -10.10861,1.35411 -1.0451,-7.80362 -19.92008,2.66811 -0.82107,-6.12949 -9.81114,1.31439 1.86619,13.93309 -10.10862,1.35412 -1.04543,-7.804 -5.03069,0.67369 -4.2405,-4.7896 2.99471,-2.65131 -2.65139,-2.99468 -2.99469,2.65128 -4.2405,-4.78949 1.31607,-5.0573 5.98481,1.55779 2.4931,-9.57999 -13.60431,-3.54059 2.56895,-9.8701 7.61951,1.9829 5.06206,-19.45 5.98481,1.5577 2.49345,-9.5796 -13.60432,-3.5406 2.56824,-9.8701 7.61984,1.9833 5.06303,-19.453604 9.0355,2.8681 -1.8718,5.894404 8.74601,2.7766 4.25368,-13.398404 9.03152,2.8675 -2.38263,7.5041 8.88857,2.822304 -1.87141,5.894 8.74565,2.7762 4.25404,-13.398004 z"
       style="fill:none;stroke:#000000;stroke-width:0.5;stroke-miterlimit:4;stroke-dasharray:none;stroke-opacity:0.952703"
       id="path2119"
       inkscape:connector-curvature="0"
       inkscape:transform-center-x="-34.803782"
       inkscape:transform-center-y="30.561273" />
    <path
       inkscape:transform-center-y="-30.561287"
       inkscape:transform-center-x="34.803776"
       inkscape:connector-curvature="0"
       id="path2121"
       style="fill:none;stroke:#000000;stroke-width:0.5;stroke-miterlimit:4;stroke-dasharray:none;stroke-opacity:0.952703"
       d="m 530.37337,271.5676 -3.47889,-1.10448 0.4993,-1.57271 3.47888,1.10451 z m 38.76922,-39.0148 -0.91932,3.53232 -1.59681,-0.4156 0.91932,-3.5323 z m -36.1941,-36.31009 3.6177,-0.4845 0.21905,1.63541 -3.61769,0.48448 z m -39.13228,36.85889 -0.67485,-3.58698 1.62155,-0.30512 0.67485,3.58712 z m 9.23473,41.1997 2.38229,-7.50437 -8.85948,-2.81282 -1.74664,-9.2828 6.07766,-1.1431 -1.69686,-9.01769 -13.81476,2.5994 -1.75214,-9.31241 7.73745,-1.4559 -1.72377,-9.165 6.07732,-1.14351 -1.69652,-9.01718 -13.81511,2.5989 -1.75214,-9.31241 7.73779,-1.4555 -1.72496,-9.1694 20.07251,-2.68849 0.82109,6.12939 9.81148,-1.31389 -1.86657,-13.9328 10.10861,-1.35411 1.04509,7.80359 19.92008,-2.66808 0.82108,6.1295 9.81113,-1.3144 -1.86618,-13.93312 10.10861,-1.35408 1.04543,7.80399 5.03068,-0.67371 4.2405,4.78962 -2.9947,2.65128 2.65138,2.99472 2.99469,-2.65131 4.2405,4.78951 -1.31607,5.0573 -5.98481,-1.55782 -2.4931,9.58001 13.60431,3.5406 -2.56895,9.8701 -7.61951,-1.98289 -5.06205,19.44999 -5.98483,-1.55771 -2.49344,9.57962 13.60432,3.5406 -2.56823,9.87009 -7.61986,-1.98329 -5.06301,19.4536 -9.03549,-2.86811 1.8718,-5.89439 -8.74601,-2.77662 -4.25368,13.39842 -9.03153,-2.8675 2.38264,-7.50411 -8.88858,-2.82231 1.87142,-5.89399 -8.74567,-2.77619 -4.25402,13.39799 z" />
    <g
       inkscape:transform-center-y="47.080889"
       inkscape:transform-center-x="-52.891827"
       transform="matrix(0.66288471,0.74872148,0.74872148,-0.66288471,452.73536,-165.10899)"
       id="g2127"
       style="stroke:#000000;stroke-width:0.5;stroke-miterlimit:4;stroke-dasharray:none;stroke-opacity:0.952703">
      <path
         style="fill:none;stroke:#000000;stroke-width:0.5;stroke-linecap:butt;stroke-linejoin:miter;stroke-miterlimit:4;stroke-dasharray:none;stroke-opacity:0.952703"
         d="m 36.320179,-89.678149 15.786091,-0.0097 1.578607,-2.500741 3.15722,-0.0019 3.157217,4.998053 3.157217,-0.0019 3.15722,-5.001946 3.157217,-0.0019 3.15722,4.998056 3.157217,-0.0019 3.157217,-5.001945 3.15722,-0.0019 3.157217,4.998056 3.15722,-0.0019 3.157227,-5.001946 3.157217,-0.0019 3.15722,4.998054 3.157217,-0.0019 3.15722,-5.001945 3.15722,-0.0019 3.15722,4.998056 3.15722,-0.0019 3.15722,-5.001948 3.15722,-0.0019 1.57861,2.498796 15.7861,-0.0097"
         id="path2123"
         inkscape:connector-curvature="0"
         sodipodi:nodetypes="cccccccccccccccccccccccccc" />
      <path
         inkscape:connector-curvature="0"
         d="m 86.814749,-131.63765 -8.107804,4.84583 3.172617,5.30828 -7.876197,4.7074 -7.211874,-12.06657 -8.133707,4.8613 4.03926,6.7583 -8.004957,4.78435 3.172617,5.30828 -7.876194,4.7074 -7.211877,-12.06657 -8.133704,4.86131 4.039257,6.75829 -8.008444,4.786441 11.292841,16.810917 5.133407,-3.448403 5.519827,8.216999 -11.669061,7.838775 5.687107,8.466027 6.535654,-4.390372 11.206934,16.683026 5.133407,-3.448404 5.519817,8.216999 -11.669054,7.838775 5.687107,8.466027 6.535657,-4.390372 11.227364,16.713447 11.311014,-16.837961 -5.133407,-3.448403 5.519817,-8.216999 11.669067,7.838775 5.68711,-8.466027 -6.53566,-4.390371 11.20694,-16.683026 -5.13341,-3.448404 5.51983,-8.216998 11.66906,7.838775 5.68712,-8.466027 -6.53566,-4.390372 11.20921,-16.686403 -8.13721,-4.863391 -3.17262,5.308277 -7.8762,-4.707397 7.21188,-12.06658 -8.13371,-4.86131 -4.03926,6.7583 -8.00495,-4.78435 -3.17263,5.30828 -7.876197,-4.7074 7.211877,-12.06658 -8.133707,-4.86131 -4.03926,6.7583 z m -24.950195,18.40708 -3.13306,1.87255 0.84649,1.41631 3.13306,-1.87254 z m -1.65677,53.73237 2.03532,3.029847 1.369657,-0.920076 -2.035317,-3.029847 z m 51.178616,3.029847 2.03532,-3.029847 -1.36966,-0.920076 -2.03532,3.029847 z m 3.51161,-54.889667 -3.13306,-1.87255 -0.84649,1.41632 3.13306,1.87254 z m -47.062409,9.56424 v 2.999812 h 15.000111 v -2.999812 z m 23.000135,0 v 2.999812 h 15.000114 v -2.999812 z m -23.000135,21.166662 v 2.999816 h 15.000111 v -2.999816 z m 23.000135,0 v 2.999816 h 15.000114 v -2.999816 z"
         style="fill:none;stroke:#000000;stroke-width:0.5;stroke-miterlimit:4;stroke-dasharray:none;stroke-opacity:0.952703"
         id="path2125" />
    </g>
    <g
       id="g2133"
       transform="matrix(-0.66288471,-0.74872148,-0.74872148,0.66288471,532.21906,77.844672)"
       inkscape:transform-center-x="52.891817"
       inkscape:transform-center-y="-47.080926"
       style="stroke:#000000;stroke-width:0.5;stroke-miterlimit:4;stroke-dasharray:none;stroke-opacity:0.952703">
      <path
         sodipodi:nodetypes="cccccccccccccccccccccccccc"
         inkscape:connector-curvature="0"
         id="path2129"
         d="m 36.320179,-89.678149 15.786091,-0.0097 1.578607,-2.500741 3.15722,-0.0019 3.157217,4.998053 3.157217,-0.0019 3.15722,-5.001946 3.157217,-0.0019 3.15722,4.998056 3.157217,-0.0019 3.157217,-5.001945 3.15722,-0.0019 3.157217,4.998056 3.15722,-0.0019 3.157227,-5.001946 3.157217,-0.0019 3.15722,4.998054 3.157217,-0.0019 3.15722,-5.001945 3.15722,-0.0019 3.15722,4.998056 3.15722,-0.0019 3.15722,-5.001948 3.15722,-0.0019 1.57861,2.498796 15.7861,-0.0097"
         style="fill:none;stroke:#000000;stroke-width:0.5;stroke-linecap:butt;stroke-linejoin:miter;stroke-miterlimit:4;stroke-dasharray:none;stroke-opacity:0.952703" />
      <path
         id="path2131"
         style="fill:none;stroke:#000000;stroke-width:0.5;stroke-miterlimit:4;stroke-dasharray:none;stroke-opacity:0.952703"
         d="m 86.814749,-131.63765 -8.107804,4.84583 3.172617,5.30828 -7.876197,4.7074 -7.211874,-12.06657 -8.133707,4.8613 4.03926,6.7583 -8.004957,4.78435 3.172617,5.30828 -7.876194,4.7074 -7.211877,-12.06657 -8.133704,4.86131 4.039257,6.75829 -8.008444,4.786441 11.292841,16.810917 5.133407,-3.448403 5.519827,8.216999 -11.669061,7.838775 5.687107,8.466027 6.535654,-4.390372 11.206934,16.683026 5.133407,-3.448404 5.519817,8.216999 -11.669054,7.838775 5.687107,8.466027 6.535657,-4.390372 11.227364,16.713447 11.311014,-16.837961 -5.133407,-3.448403 5.519817,-8.216999 11.669067,7.838775 5.68711,-8.466027 -6.53566,-4.390371 11.20694,-16.683026 -5.13341,-3.448404 5.51983,-8.216998 11.66906,7.838775 5.68712,-8.466027 -6.53566,-4.390372 11.20921,-16.686403 -8.13721,-4.863391 -3.17262,5.308277 -7.8762,-4.707397 7.21188,-12.06658 -8.13371,-4.86131 -4.03926,6.7583 -8.00495,-4.78435 -3.17263,5.30828 -7.876197,-4.7074 7.211877,-12.06658 -8.133707,-4.86131 -4.03926,6.7583 z m -24.950195,18.40708 -3.13306,1.87255 0.84649,1.41631 3.13306,-1.87254 z m -1.65677,53.73237 2.03532,3.029847 1.369657,-0.920076 -2.035317,-3.029847 z m 51.178616,3.029847 2.03532,-3.029847 -1.36966,-0.920076 -2.03532,3.029847 z m 3.51161,-54.889667 -3.13306,-1.87255 -0.84649,1.41632 3.13306,1.87254 z m -47.062409,9.56424 v 2.999812 h 15.000111 v -2.999812 z m 23.000135,0 v 2.999812 h 15.000114 v -2.999812 z m -23.000135,21.166662 v 2.999816 h 15.000111 v -2.999816 z m 23.000135,0 v 2.999816 h 15.000114 v -2.999816 z"
         inkscape:connector-curvature="0" />
    </g>
    <g
       inkscape:transform-center-y="-47.080926"
       inkscape:transform-center-x="52.891817"
       transform="matrix(-0.66288471,-0.74872148,-0.74872148,0.66288471,436.692,173.07312)"
       id="g2139"
       style="stroke:#000000;stroke-width:0.5;stroke-miterlimit:4;stroke-dasharray:none;stroke-opacity:0.952703">
      <path
         style="fill:none;stroke:#000000;stroke-width:0.5;stroke-linecap:butt;stroke-linejoin:miter;stroke-miterlimit:4;stroke-dasharray:none;stroke-opacity:0.952703"
         d="m 36.320179,-89.678149 15.786091,-0.0097 1.578607,-2.500741 3.15722,-0.0019 3.157217,4.998053 3.157217,-0.0019 3.15722,-5.001946 3.157217,-0.0019 3.15722,4.998056 3.157217,-0.0019 3.157217,-5.001945 3.15722,-0.0019 3.157217,4.998056 3.15722,-0.0019 3.157227,-5.001946 3.157217,-0.0019 3.15722,4.998054 3.157217,-0.0019 3.15722,-5.001945 3.15722,-0.0019 3.15722,4.998056 3.15722,-0.0019 3.15722,-5.001948 3.15722,-0.0019 1.57861,2.498796 15.7861,-0.0097"
         id="path2135"
         inkscape:connector-curvature="0"
         sodipodi:nodetypes="cccccccccccccccccccccccccc" />
      <path
         inkscape:connector-curvature="0"
         d="m 86.814749,-131.63765 -8.107804,4.84583 3.172617,5.30828 -7.876197,4.7074 -7.211874,-12.06657 -8.133707,4.8613 4.03926,6.7583 -8.004957,4.78435 3.172617,5.30828 -7.876194,4.7074 -7.211877,-12.06657 -8.133704,4.86131 4.039257,6.75829 -8.008444,4.786441 11.292841,16.810917 5.133407,-3.448403 5.519827,8.216999 -11.669061,7.838775 5.687107,8.466027 6.535654,-4.390372 11.206934,16.683026 5.133407,-3.448404 5.519817,8.216999 -11.669054,7.838775 5.687107,8.466027 6.535657,-4.390372 11.227364,16.713447 11.311014,-16.837961 -5.133407,-3.448403 5.519817,-8.216999 11.669067,7.838775 5.68711,-8.466027 -6.53566,-4.390371 11.20694,-16.683026 -5.13341,-3.448404 5.51983,-8.216998 11.66906,7.838775 5.68712,-8.466027 -6.53566,-4.390372 11.20921,-16.686403 -8.13721,-4.863391 -3.17262,5.308277 -7.8762,-4.707397 7.21188,-12.06658 -8.13371,-4.86131 -4.03926,6.7583 -8.00495,-4.78435 -3.17263,5.30828 -7.876197,-4.7074 7.211877,-12.06658 -8.133707,-4.86131 -4.03926,6.7583 z m -24.950195,18.40708 -3.13306,1.87255 0.84649,1.41631 3.13306,-1.87254 z m -1.65677,53.73237 2.03532,3.029847 1.369657,-0.920076 -2.035317,-3.029847 z m 51.178616,3.029847 2.03532,-3.029847 -1.36966,-0.920076 -2.03532,3.029847 z m 3.51161,-54.889667 -3.13306,-1.87255 -0.84649,1.41632 3.13306,1.87254 z m -47.062409,9.56424 v 2.999812 h 15.000111 v -2.999812 z m 23.000135,0 v 2.999812 h 15.000114 v -2.999812 z m -23.000135,21.166662 v 2.999816 h 15.000111 v -2.999816 z m 23.000135,0 v 2.999816 h 15.000114 v -2.999816 z"
         style="fill:none;stroke:#000000;stroke-width:0.5;stroke-miterlimit:4;stroke-dasharray:none;stroke-opacity:0.952703"
         id="path2137" />
    </g>
    <g
       transform="matrix(-1,0,0,1,502.64326,1361.1812)"
       id="g2117"
       style="stroke:#000000;stroke-width:0.5;stroke-miterlimit:4;stroke-dasharray:none;stroke-opacity:0.952703">
      <g
         transform="translate(-32.808334,-134.40833)"
         id="g2035"
         style="stroke:#000000;stroke-width:0.5;stroke-miterlimit:4;stroke-dasharray:none;stroke-opacity:0.952703">
        <path
           inkscape:connector-curvature="0"
           id="path1616"
           style="fill:none;stroke:#000000;stroke-width:0.5;stroke-miterlimit:4;stroke-dasharray:none;stroke-opacity:0.952703"
           d="m 409.29468,-958.55565 1.74636,-9.28271 -6.0775,-1.14337 1.69648,-9.01754 13.81514,2.59906 1.75196,-9.31237 -7.73765,-1.45569 1.72422,-9.16496 -6.07751,-1.14337 1.69648,-9.0175 13.81515,2.599 1.75195,-9.3124 -7.73765,-1.4556 1.72497,-9.169 -20.07255,-2.6885 -0.82096,6.1294 -9.81126,-1.3141 1.86619,-13.9331 -10.10859,-1.3539 -1.04523,7.8037 -19.91985,-2.6681 -0.82096,6.1294 -9.81125,-1.3141 1.86618,-13.9331 -10.10859,-1.3539 -1.04522,7.8037 -19.95617,-2.673 5.10904,19.6305 5.98475,-1.5576 2.49324,9.5797 -13.60431,3.5407 2.5688,9.87004 7.61956,-1.98307 5.06202,19.44979 5.98476,-1.55759 2.49323,9.57973 -13.6043,3.54067 2.56879,9.87007 7.61955,-1.98307 5.06306,19.45373 9.03535,-2.86864 -1.87134,-5.89418 8.74555,-2.77662 4.25386,13.39844 9.03148,-2.86739 -2.38252,-7.50426 8.8885,-2.822 -1.87133,-5.8942 8.74554,-2.77661 4.25386,13.39844 9.03148,-2.8674 -2.38252,-7.50425 z m 2.75733,-30.88252 0.67484,-3.58707 -1.62155,-0.30507 -0.67484,3.58707 z m -39.13233,-36.85883 -3.6177,-0.4845 -0.21904,1.6354 3.6177,0.4845 z m -36.19405,36.31011 0.91933,3.53233 1.59681,-0.41559 -0.91933,-3.53233 z m 38.76928,39.01474 3.47888,-1.1045 -0.49931,-1.57265 -3.47887,1.10451 z" />
        <path
           d="m 338.01038,-1111.4046 -1.74637,9.2828 6.07751,1.1433 -1.69648,9.0176 -13.81515,-2.5991 -1.75195,9.3124 7.73765,1.4557 -1.72422,9.1649 6.0775,1.1434 -1.69648,9.0176 -13.81515,-2.5991 -1.75194,9.3124 7.73764,1.4557 -1.72497,9.1689 20.07256,2.6885 0.82096,-6.1293 9.81125,1.3141 -1.86618,13.9331 10.10859,1.3539 1.04522,-7.8037 19.91985,2.668 0.82097,-6.1293 9.81125,1.3141 -1.86619,13.933 10.1086,1.354 1.04522,-7.8037 19.95617,2.6729 -5.10904,-19.6304 -5.98475,1.5576 -2.49324,-9.5798 13.6043,-3.5406 -2.56879,-9.8701 -7.61955,1.983 -5.06204,-19.4498 -5.98475,1.5576 -2.49323,-9.5797 13.6043,-3.5407 -2.56879,-9.87 -7.61956,1.983 -5.06305,-19.4537 -9.03536,2.8686 1.87134,5.8942 -8.74554,2.7766 -4.25386,-13.3984 -9.03148,2.8674 2.38252,7.5043 -8.88851,2.822 1.87134,5.8942 -8.74555,2.7766 -4.25386,-13.3985 -9.03148,2.8674 2.38252,7.5043 z m -2.75734,30.8826 -0.67484,3.587 1.62155,0.3051 0.67485,-3.5871 z m 39.13233,36.8588 3.6177,0.4846 0.21904,-1.6354 -3.61769,-0.4846 z m 36.19406,-36.3101 -0.91934,-3.5323 -1.59681,0.4156 0.91934,3.5323 z m -38.76929,-39.0147 -3.47887,1.1045 0.4993,1.5726 3.47887,-1.1045 z"
           style="fill:none;stroke:#000000;stroke-width:0.5;stroke-miterlimit:4;stroke-dasharray:none;stroke-opacity:0.952703"
           id="path1618"
           inkscape:connector-curvature="0" />
      </g>
      <g
         transform="translate(-32.808334,-134.40833)"
         id="g2029"
         style="stroke:#000000;stroke-width:0.5;stroke-miterlimit:4;stroke-dasharray:none;stroke-opacity:0.952703">
        <path
           d="m 224.08635,-960.67232 1.74636,-9.28271 -6.0775,-1.14337 1.69648,-9.01754 13.81514,2.59906 1.75196,-9.31237 -7.73765,-1.45569 1.72422,-9.16496 -6.07751,-1.14337 1.69648,-9.01753 13.81515,2.599 1.75195,-9.3124 -7.73765,-1.4556 1.72497,-9.169 -20.07255,-2.6885 -0.82096,6.1294 -9.81126,-1.3141 1.86619,-13.9331 -10.10859,-1.3539 -1.04523,7.8037 -19.91985,-2.6681 -0.82096,6.1294 -9.81125,-1.3141 1.86618,-13.9331 -10.10859,-1.3539 -1.04522,7.8037 -19.95617,-2.673 5.10904,19.6305 5.98475,-1.5576 2.49324,9.5797 -13.60431,3.5407 2.5688,9.87007 7.61956,-1.98307 5.06202,19.44979 5.98476,-1.55759 2.49323,9.57973 -13.6043,3.54067 2.56879,9.87007 7.61955,-1.98307 5.06306,19.45373 9.03535,-2.86864 -1.87134,-5.89418 8.74555,-2.77662 4.25386,13.39844 9.03148,-2.86739 -2.38252,-7.50426 8.8885,-2.822 -1.87133,-5.8942 8.74554,-2.77661 4.25386,13.39844 9.03148,-2.8674 -2.38252,-7.50425 z m 2.75733,-30.88252 0.67484,-3.58707 -1.62155,-0.30507 -0.67484,3.58707 z m -39.13233,-36.85886 -3.6177,-0.4845 -0.21904,1.6354 3.6177,0.4845 z m -36.19405,36.31014 0.91933,3.53233 1.59681,-0.41559 -0.91933,-3.53233 z m 38.76928,39.01474 3.47888,-1.1045 -0.49931,-1.57265 -3.47887,1.10451 z"
           style="fill:none;stroke:#000000;stroke-width:0.5;stroke-miterlimit:4;stroke-dasharray:none;stroke-opacity:0.952703"
           id="path2017"
           inkscape:connector-curvature="0" />
        <path
           inkscape:connector-curvature="0"
           id="path2019"
           style="fill:none;stroke:#000000;stroke-width:0.5;stroke-miterlimit:4;stroke-dasharray:none;stroke-opacity:0.952703"
           d="m 152.80205,-1113.5213 -1.74637,9.2828 6.07751,1.1433 -1.69648,9.0176 -13.81515,-2.5991 -1.75195,9.3124 7.73765,1.4557 -1.72422,9.1649 6.0775,1.1434 -1.69648,9.0176 -13.81515,-2.5991 -1.75194,9.3124 7.73764,1.4557 -1.72497,9.1689 20.07256,2.6885 0.82096,-6.1293 9.81125,1.3141 -1.86618,13.9331 10.10859,1.3539 1.04522,-7.8037 19.91985,2.668 0.82097,-6.1293 9.81125,1.3141 -1.86619,13.933 10.1086,1.354 1.04522,-7.8037 19.95617,2.6729 -5.10904,-19.6304 -5.98475,1.5576 -2.49324,-9.5798 13.6043,-3.5406 -2.56879,-9.8701 -7.61955,1.983 -5.06204,-19.4498 -5.98475,1.5576 -2.49323,-9.5797 13.6043,-3.5407 -2.56879,-9.87 -7.61956,1.983 -5.06305,-19.4537 -9.03536,2.8686 1.87134,5.8942 -8.74554,2.7766 -4.25386,-13.3984 -9.03148,2.8674 2.38252,7.5043 -8.88851,2.822 1.87134,5.8942 -8.74555,2.7766 -4.25386,-13.3985 -9.03148,2.8674 2.38252,7.5043 z m -2.75734,30.8826 -0.67484,3.587 1.62155,0.3051 0.67485,-3.5871 z m 39.13233,36.8588 3.6177,0.4846 0.21904,-1.6354 -3.61769,-0.4846 z m 36.19406,-36.3101 -0.91934,-3.5323 -1.59681,0.4156 0.91934,3.5323 z m -38.76929,-39.0147 -3.47887,1.1045 0.4993,1.5726 3.47887,-1.1045 z" />
        <path
           d="m 248.32913,-1018.2928 -1.74637,9.2828 6.07751,1.1433 -1.69648,9.01759 -13.81515,-2.59909 -1.75195,9.3124 7.73765,1.45569 -1.72422,9.16496 6.0775,1.14337 -1.69648,9.01754 -13.81515,-2.59905 -1.75194,9.31237 7.73764,1.45568 -1.72497,9.16896 20.07256,2.6885 0.82096,-6.12938 9.81125,1.3141 -1.86618,13.93309 10.10859,1.35394 1.04522,-7.8037 19.91985,2.66805 0.82097,-6.12939 9.81125,1.31412 -1.86619,13.93307 10.1086,1.35394 1.04522,-7.80369 19.95617,2.67291 -5.10904,-19.63043 -5.98475,1.5576 -2.49324,-9.57973 13.6043,-3.54068 -2.56879,-9.87006 -7.61955,1.98308 -5.06204,-19.4498 -5.98475,1.5576 -2.49323,-9.57976 13.6043,-3.5407 -2.56879,-9.87 -7.61956,1.983 -5.06305,-19.4537 -9.03536,2.8686 1.87134,5.8942 -8.74554,2.7766 -4.25386,-13.3984 -9.03148,2.8674 2.38252,7.5042 -8.88851,2.822 1.87134,5.8942 -8.74555,2.7767 -4.25386,-13.3985 -9.03148,2.8674 2.38252,7.5043 z m -2.75734,30.88259 -0.67484,3.58707 1.62155,0.30507 0.67485,-3.58707 z m 39.13233,36.85883 3.6177,0.48455 0.21904,-1.6354 -3.61769,-0.48455 z m 36.19406,-36.31011 -0.91933,-3.53233 -1.59681,0.41559 0.91933,3.53233 z m -38.76928,-39.01481 -3.47888,1.1045 0.4993,1.5727 3.47887,-1.1045 z"
           style="fill:none;stroke:#000000;stroke-width:0.5;stroke-miterlimit:4;stroke-dasharray:none;stroke-opacity:0.952703"
           id="path2021"
           inkscape:connector-curvature="0" />
        <path
           inkscape:connector-curvature="0"
           id="path2023"
           style="fill:none;stroke:#000000;stroke-width:0.5;stroke-miterlimit:4;stroke-dasharray:none;stroke-opacity:0.952703"
           d="m 314.30927,-1051.9536 1.74636,-9.2827 -6.0775,-1.1434 1.69648,-9.0176 13.81514,2.5992 1.75196,-9.3125 -7.73765,-1.4557 1.72422,-9.1649 -6.07751,-1.1434 1.69648,-9.0175 13.81515,2.599 1.75195,-9.3124 -7.73765,-1.4556 1.72497,-9.169 -20.07255,-2.6885 -0.82096,6.1294 -9.81126,-1.3141 1.86619,-13.9331 -10.10859,-1.3539 -1.04523,7.8037 -19.91985,-2.6681 -0.82096,6.1294 -9.81125,-1.3141 1.86618,-13.9331 -10.10859,-1.3539 -1.04522,7.8037 -19.95617,-2.673 5.10904,19.6305 5.98475,-1.5576 2.49324,9.5797 -13.60431,3.5407 2.5688,9.87 7.61956,-1.983 5.06202,19.4498 5.98476,-1.5576 2.49323,9.5798 -13.6043,3.5406 2.56879,9.8701 7.61955,-1.9831 5.06306,19.4538 9.03535,-2.8687 -1.87134,-5.8942 8.74555,-2.7766 4.25386,13.3985 9.03148,-2.8674 -2.38252,-7.5043 8.8885,-2.822 -1.87133,-5.8942 8.74554,-2.7766 4.25386,13.3984 9.03148,-2.8674 -2.38252,-7.5042 z m 2.75733,-30.8826 0.67484,-3.587 -1.62155,-0.3051 -0.67484,3.5871 z m -39.13233,-36.8588 -3.6177,-0.4845 -0.21904,1.6354 3.6177,0.4845 z m -36.19405,36.3101 0.91933,3.5323 1.59681,-0.4155 -0.91933,-3.5324 z m 38.76928,39.0148 3.47888,-1.1045 -0.49931,-1.5726 -3.47887,1.1045 z" />
      </g>
      <g
         id="g2055"
         transform="translate(-218.01666,-136.525)"
         style="stroke:#000000;stroke-width:0.5;stroke-miterlimit:4;stroke-dasharray:none;stroke-opacity:0.952703">
        <path
           inkscape:connector-curvature="0"
           id="path2051"
           style="fill:none;stroke:#000000;stroke-width:0.5;stroke-miterlimit:4;stroke-dasharray:none;stroke-opacity:0.952703"
           d="m 248.32913,-1018.2928 -1.74637,9.2828 6.07751,1.1433 -1.69648,9.01759 -13.81515,-2.59909 -1.75195,9.3124 7.73765,1.45569 -1.72422,9.16496 6.0775,1.14337 -1.69648,9.01754 -13.81515,-2.59905 -1.75194,9.31237 7.73764,1.45568 -1.72497,9.16896 20.07256,2.6885 0.82096,-6.12938 9.81125,1.3141 -1.86618,13.93309 10.10859,1.35394 1.04522,-7.8037 19.91985,2.66805 0.82097,-6.12939 9.81125,1.31412 -1.86619,13.93307 10.1086,1.35394 1.04522,-7.80369 19.95617,2.67291 -5.10904,-19.63043 -5.98475,1.5576 -2.49324,-9.57973 13.6043,-3.54068 -2.56879,-9.87006 -7.61955,1.98308 -5.06204,-19.4498 -5.98475,1.5576 -2.49323,-9.57976 13.6043,-3.5407 -2.56879,-9.87 -7.61956,1.983 -5.06305,-19.4537 -9.03536,2.8686 1.87134,5.8942 -8.74554,2.7766 -4.25386,-13.3984 -9.03148,2.8674 2.38252,7.5042 -8.88851,2.822 1.87134,5.8942 -8.74555,2.7767 -4.25386,-13.3985 -9.03148,2.8674 2.38252,7.5043 z m -2.75734,30.88259 -0.67484,3.58707 1.62155,0.30507 0.67485,-3.58707 z m 39.13233,36.85883 3.6177,0.48455 0.21904,-1.6354 -3.61769,-0.48455 z m 36.19406,-36.31011 -0.91933,-3.53233 -1.59681,0.41559 0.91933,3.53233 z m -38.76928,-39.01481 -3.47888,1.1045 0.4993,1.5727 3.47887,-1.1045 z" />
        <path
           d="m 314.30927,-1051.9536 1.74636,-9.2827 -6.0775,-1.1434 1.69648,-9.0176 13.81514,2.5992 1.75196,-9.3125 -7.73765,-1.4557 1.72422,-9.1649 -6.07751,-1.1434 1.69648,-9.0175 13.81515,2.599 1.75195,-9.3124 -7.73765,-1.4556 1.72497,-9.169 -20.07255,-2.6885 -0.82096,6.1294 -9.81126,-1.3141 1.86619,-13.9331 -10.10859,-1.3539 -1.04523,7.8037 -19.91985,-2.6681 -0.82096,6.1294 -9.81125,-1.3141 1.86618,-13.9331 -10.10859,-1.3539 -1.04522,7.8037 -19.95617,-2.673 5.10904,19.6305 5.98475,-1.5576 2.49324,9.5797 -13.60431,3.5407 2.5688,9.87 7.61956,-1.983 5.06202,19.4498 5.98476,-1.5576 2.49323,9.5798 -13.6043,3.5406 2.56879,9.8701 7.61955,-1.9831 5.06306,19.4538 9.03535,-2.8687 -1.87134,-5.8942 8.74555,-2.7766 4.25386,13.3985 9.03148,-2.8674 -2.38252,-7.5043 8.8885,-2.822 -1.87133,-5.8942 8.74554,-2.7766 4.25386,13.3984 9.03148,-2.8674 -2.38252,-7.5042 z m 2.75733,-30.8826 0.67484,-3.587 -1.62155,-0.3051 -0.67484,3.5871 z m -39.13233,-36.8588 -3.6177,-0.4845 -0.21904,1.6354 3.6177,0.4845 z m -36.19405,36.3101 0.91933,3.5323 1.59681,-0.4155 -0.91933,-3.5324 z m 38.76928,39.0148 3.47888,-1.1045 -0.49931,-1.5726 -3.47887,1.1045 z"
           style="fill:none;stroke:#000000;stroke-width:0.5;stroke-miterlimit:4;stroke-dasharray:none;stroke-opacity:0.952703"
           id="path2053"
           inkscape:connector-curvature="0" />
      </g>
      <g
         id="g2065"
         transform="translate(-38.181271,-319.95923)"
         style="stroke:#000000;stroke-width:0.5;stroke-miterlimit:4;stroke-dasharray:none;stroke-opacity:0.952703">
        <path
           d="m 409.29468,-958.55565 1.74636,-9.28271 -6.0775,-1.14337 1.69648,-9.01754 13.81514,2.59906 1.75196,-9.31237 -7.73765,-1.45569 1.72422,-9.16496 -6.07751,-1.14337 1.69648,-9.0175 13.81515,2.599 1.75195,-9.3124 -7.73765,-1.4556 1.72497,-9.169 -20.07255,-2.6885 -0.82096,6.1294 -9.81126,-1.3141 1.86619,-13.9331 -10.10859,-1.3539 -1.04523,7.8037 -19.91985,-2.6681 -0.82096,6.1294 -9.81125,-1.3141 1.86618,-13.9331 -10.10859,-1.3539 -1.04522,7.8037 -19.95617,-2.673 5.10904,19.6305 5.98475,-1.5576 2.49324,9.5797 -13.60431,3.5407 2.5688,9.87004 7.61956,-1.98307 5.06202,19.44979 5.98476,-1.55759 2.49323,9.57973 -13.6043,3.54067 2.56879,9.87007 7.61955,-1.98307 5.06306,19.45373 9.03535,-2.86864 -1.87134,-5.89418 8.74555,-2.77662 4.25386,13.39844 9.03148,-2.86739 -2.38252,-7.50426 8.8885,-2.822 -1.87133,-5.8942 8.74554,-2.77661 4.25386,13.39844 9.03148,-2.8674 -2.38252,-7.50425 z m 2.75733,-30.88252 0.67484,-3.58707 -1.62155,-0.30507 -0.67484,3.58707 z m -39.13233,-36.85883 -3.6177,-0.4845 -0.21904,1.6354 3.6177,0.4845 z m -36.19405,36.31011 0.91933,3.53233 1.59681,-0.41559 -0.91933,-3.53233 z m 38.76928,39.01474 3.47888,-1.1045 -0.49931,-1.57265 -3.47887,1.10451 z"
           style="fill:none;stroke:#000000;stroke-width:0.5;stroke-miterlimit:4;stroke-dasharray:none;stroke-opacity:0.952703"
           id="path2057"
           inkscape:connector-curvature="0" />
        <path
           inkscape:connector-curvature="0"
           id="path2059"
           style="fill:none;stroke:#000000;stroke-width:0.5;stroke-miterlimit:4;stroke-dasharray:none;stroke-opacity:0.952703"
           d="m 338.01038,-1111.4046 -1.74637,9.2828 6.07751,1.1433 -1.69648,9.0176 -13.81515,-2.5991 -1.75195,9.3124 7.73765,1.4557 -1.72422,9.1649 6.0775,1.1434 -1.69648,9.0176 -13.81515,-2.5991 -1.75194,9.3124 7.73764,1.4557 -1.72497,9.1689 20.07256,2.6885 0.82096,-6.1293 9.81125,1.3141 -1.86618,13.9331 10.10859,1.3539 1.04522,-7.8037 19.91985,2.668 0.82097,-6.1293 9.81125,1.3141 -1.86619,13.933 10.1086,1.354 1.04522,-7.8037 19.95617,2.6729 -5.10904,-19.6304 -5.98475,1.5576 -2.49324,-9.5798 13.6043,-3.5406 -2.56879,-9.8701 -7.61955,1.983 -5.06204,-19.4498 -5.98475,1.5576 -2.49323,-9.5797 13.6043,-3.5407 -2.56879,-9.87 -7.61956,1.983 -5.06305,-19.4537 -9.03536,2.8686 1.87134,5.8942 -8.74554,2.7766 -4.25386,-13.3984 -9.03148,2.8674 2.38252,7.5043 -8.88851,2.822 1.87134,5.8942 -8.74555,2.7766 -4.25386,-13.3985 -9.03148,2.8674 2.38252,7.5043 z m -2.75734,30.8826 -0.67484,3.587 1.62155,0.3051 0.67485,-3.5871 z m 39.13233,36.8588 3.6177,0.4846 0.21904,-1.6354 -3.61769,-0.4846 z m 36.19406,-36.3101 -0.91934,-3.5323 -1.59681,0.4156 0.91934,3.5323 z m -38.76929,-39.0147 -3.47887,1.1045 0.4993,1.5726 3.47887,-1.1045 z" />
        <path
           d="m 433.53746,-1016.1761 -1.74637,9.2828 6.07751,1.1433 -1.69648,9.01756 -13.81515,-2.59906 -1.75195,9.31237 7.73765,1.45569 -1.72422,9.16496 6.0775,1.14337 -1.69648,9.01754 -13.81515,-2.59905 -1.75194,9.31237 7.73764,1.45568 -1.72497,9.16896 20.07256,2.6885 0.82096,-6.12938 9.81125,1.3141 -1.86618,13.93309 10.10859,1.35394 1.04522,-7.8037 19.91985,2.66805 0.82097,-6.12939 9.81125,1.31412 -1.86619,13.93307 10.1086,1.35394 1.04522,-7.80369 19.95617,2.67291 -5.10904,-19.63043 -5.98475,1.5576 -2.49324,-9.57973 13.6043,-3.54068 -2.56879,-9.87006 -7.61955,1.98308 -5.06204,-19.4498 -5.98475,1.5576 -2.49323,-9.57973 13.6043,-3.5407 -2.56879,-9.87 -7.61956,1.983 -5.06305,-19.4537 -9.03536,2.8686 1.87134,5.8942 -8.74554,2.7766 -4.25386,-13.3984 -9.03148,2.8674 2.38252,7.5042 -8.88851,2.822 1.87134,5.8942 -8.74555,2.7767 -4.25386,-13.3985 -9.03148,2.8674 2.38252,7.5043 z m -2.75734,30.88256 -0.67484,3.58707 1.62155,0.30507 0.67485,-3.58707 z m 39.13233,36.85883 3.6177,0.48455 0.21904,-1.6354 -3.61769,-0.48455 z m 36.19406,-36.31011 -0.91933,-3.53233 -1.59681,0.41559 0.91933,3.53233 z m -38.76928,-39.01478 -3.47888,1.1045 0.4993,1.5727 3.47887,-1.1045 z"
           style="fill:none;stroke:#000000;stroke-width:0.5;stroke-miterlimit:4;stroke-dasharray:none;stroke-opacity:0.952703"
           id="path2061"
           inkscape:connector-curvature="0" />
        <path
           inkscape:connector-curvature="0"
           id="path2063"
           style="fill:none;stroke:#000000;stroke-width:0.5;stroke-miterlimit:4;stroke-dasharray:none;stroke-opacity:0.952703"
           d="m 499.5176,-1049.8369 1.74636,-9.2827 -6.0775,-1.1434 1.69648,-9.0176 13.81514,2.5992 1.75196,-9.3125 -7.73765,-1.4557 1.72422,-9.1649 -6.07751,-1.1434 1.69648,-9.0175 13.81515,2.599 1.75195,-9.3124 -7.73765,-1.4556 1.72497,-9.169 -20.07255,-2.6885 -0.82096,6.1294 -9.81126,-1.3141 1.86619,-13.9331 -10.10859,-1.3539 -1.04523,7.8037 -19.91985,-2.6681 -0.82096,6.1294 -9.81125,-1.3141 1.86618,-13.9331 -10.10859,-1.3539 -1.04522,7.8037 -19.95617,-2.673 5.10904,19.6305 5.98475,-1.5576 2.49324,9.5797 -13.60431,3.5407 2.5688,9.87 7.61956,-1.983 5.06202,19.4498 5.98476,-1.5576 2.49323,9.5798 -13.6043,3.5406 2.56879,9.8701 7.61955,-1.9831 5.06306,19.4538 9.03535,-2.8687 -1.87134,-5.8942 8.74555,-2.7766 4.25386,13.3985 9.03148,-2.8674 -2.38252,-7.5043 8.8885,-2.822 -1.87133,-5.8942 8.74554,-2.7766 4.25386,13.3984 9.03148,-2.8674 -2.38252,-7.5042 z m 2.75733,-30.8826 0.67484,-3.587 -1.62155,-0.3051 -0.67484,3.5871 z m -39.13233,-36.8588 -3.6177,-0.4845 -0.21904,1.6354 3.6177,0.4845 z m -36.19405,36.3101 0.91933,3.5323 1.59681,-0.4155 -0.91933,-3.5324 z m 38.76928,39.0148 3.47888,-1.1045 -0.49931,-1.5726 -3.47887,1.1045 z" />
      </g>
      <g
         id="g2075"
         transform="translate(-38.181271,-319.95923)"
         style="stroke:#000000;stroke-width:0.5;stroke-miterlimit:4;stroke-dasharray:none;stroke-opacity:0.952703">
        <path
           inkscape:connector-curvature="0"
           id="path2067"
           style="fill:none;stroke:#000000;stroke-width:0.5;stroke-miterlimit:4;stroke-dasharray:none;stroke-opacity:0.952703"
           d="m 224.08635,-960.67232 1.74636,-9.28271 -6.0775,-1.14337 1.69648,-9.01754 13.81514,2.59906 1.75196,-9.31237 -7.73765,-1.45569 1.72422,-9.16496 -6.07751,-1.14337 1.69648,-9.01753 13.81515,2.599 1.75195,-9.3124 -7.73765,-1.4556 1.72497,-9.169 -20.07255,-2.6885 -0.82096,6.1294 -9.81126,-1.3141 1.86619,-13.9331 -10.10859,-1.3539 -1.04523,7.8037 -19.91985,-2.6681 -0.82096,6.1294 -9.81125,-1.3141 1.86618,-13.9331 -10.10859,-1.3539 -1.04522,7.8037 -19.95617,-2.673 5.10904,19.6305 5.98475,-1.5576 2.49324,9.5797 -13.60431,3.5407 2.5688,9.87007 7.61956,-1.98307 5.06202,19.44979 5.98476,-1.55759 2.49323,9.57973 -13.6043,3.54067 2.56879,9.87007 7.61955,-1.98307 5.06306,19.45373 9.03535,-2.86864 -1.87134,-5.89418 8.74555,-2.77662 4.25386,13.39844 9.03148,-2.86739 -2.38252,-7.50426 8.8885,-2.822 -1.87133,-5.8942 8.74554,-2.77661 4.25386,13.39844 9.03148,-2.8674 -2.38252,-7.50425 z m 2.75733,-30.88252 0.67484,-3.58707 -1.62155,-0.30507 -0.67484,3.58707 z m -39.13233,-36.85886 -3.6177,-0.4845 -0.21904,1.6354 3.6177,0.4845 z m -36.19405,36.31014 0.91933,3.53233 1.59681,-0.41559 -0.91933,-3.53233 z m 38.76928,39.01474 3.47888,-1.1045 -0.49931,-1.57265 -3.47887,1.10451 z" />
        <path
           d="m 152.80205,-1113.5213 -1.74637,9.2828 6.07751,1.1433 -1.69648,9.0176 -13.81515,-2.5991 -1.75195,9.3124 7.73765,1.4557 -1.72422,9.1649 6.0775,1.1434 -1.69648,9.0176 -13.81515,-2.5991 -1.75194,9.3124 7.73764,1.4557 -1.72497,9.1689 20.07256,2.6885 0.82096,-6.1293 9.81125,1.3141 -1.86618,13.9331 10.10859,1.3539 1.04522,-7.8037 19.91985,2.668 0.82097,-6.1293 9.81125,1.3141 -1.86619,13.933 10.1086,1.354 1.04522,-7.8037 19.95617,2.6729 -5.10904,-19.6304 -5.98475,1.5576 -2.49324,-9.5798 13.6043,-3.5406 -2.56879,-9.8701 -7.61955,1.983 -5.06204,-19.4498 -5.98475,1.5576 -2.49323,-9.5797 13.6043,-3.5407 -2.56879,-9.87 -7.61956,1.983 -5.06305,-19.4537 -9.03536,2.8686 1.87134,5.8942 -8.74554,2.7766 -4.25386,-13.3984 -9.03148,2.8674 2.38252,7.5043 -8.88851,2.822 1.87134,5.8942 -8.74555,2.7766 -4.25386,-13.3985 -9.03148,2.8674 2.38252,7.5043 z m -2.75734,30.8826 -0.67484,3.587 1.62155,0.3051 0.67485,-3.5871 z m 39.13233,36.8588 3.6177,0.4846 0.21904,-1.6354 -3.61769,-0.4846 z m 36.19406,-36.3101 -0.91934,-3.5323 -1.59681,0.4156 0.91934,3.5323 z m -38.76929,-39.0147 -3.47887,1.1045 0.4993,1.5726 3.47887,-1.1045 z"
           style="fill:none;stroke:#000000;stroke-width:0.5;stroke-miterlimit:4;stroke-dasharray:none;stroke-opacity:0.952703"
           id="path2069"
           inkscape:connector-curvature="0" />
        <path
           inkscape:connector-curvature="0"
           id="path2071"
           style="fill:none;stroke:#000000;stroke-width:0.5;stroke-miterlimit:4;stroke-dasharray:none;stroke-opacity:0.952703"
           d="m 248.32913,-1018.2928 -1.74637,9.2828 6.07751,1.1433 -1.69648,9.01759 -13.81515,-2.59909 -1.75195,9.3124 7.73765,1.45569 -1.72422,9.16496 6.0775,1.14337 -1.69648,9.01754 -13.81515,-2.59905 -1.75194,9.31237 7.73764,1.45568 -1.72497,9.16896 20.07256,2.6885 0.82096,-6.12938 9.81125,1.3141 -1.86618,13.93309 10.10859,1.35394 1.04522,-7.8037 19.91985,2.66805 0.82097,-6.12939 9.81125,1.31412 -1.86619,13.93307 10.1086,1.35394 1.04522,-7.80369 19.95617,2.67291 -5.10904,-19.63043 -5.98475,1.5576 -2.49324,-9.57973 13.6043,-3.54068 -2.56879,-9.87006 -7.61955,1.98308 -5.06204,-19.4498 -5.98475,1.5576 -2.49323,-9.57976 13.6043,-3.5407 -2.56879,-9.87 -7.61956,1.983 -5.06305,-19.4537 -9.03536,2.8686 1.87134,5.8942 -8.74554,2.7766 -4.25386,-13.3984 -9.03148,2.8674 2.38252,7.5042 -8.88851,2.822 1.87134,5.8942 -8.74555,2.7767 -4.25386,-13.3985 -9.03148,2.8674 2.38252,7.5043 z m -2.75734,30.88259 -0.67484,3.58707 1.62155,0.30507 0.67485,-3.58707 z m 39.13233,36.85883 3.6177,0.48455 0.21904,-1.6354 -3.61769,-0.48455 z m 36.19406,-36.31011 -0.91933,-3.53233 -1.59681,0.41559 0.91933,3.53233 z m -38.76928,-39.01481 -3.47888,1.1045 0.4993,1.5727 3.47887,-1.1045 z" />
        <path
           d="m 314.30927,-1051.9536 1.74636,-9.2827 -6.0775,-1.1434 1.69648,-9.0176 13.81514,2.5992 1.75196,-9.3125 -7.73765,-1.4557 1.72422,-9.1649 -6.07751,-1.1434 1.69648,-9.0175 13.81515,2.599 1.75195,-9.3124 -7.73765,-1.4556 1.72497,-9.169 -20.07255,-2.6885 -0.82096,6.1294 -9.81126,-1.3141 1.86619,-13.9331 -10.10859,-1.3539 -1.04523,7.8037 -19.91985,-2.6681 -0.82096,6.1294 -9.81125,-1.3141 1.86618,-13.9331 -10.10859,-1.3539 -1.04522,7.8037 -19.95617,-2.673 5.10904,19.6305 5.98475,-1.5576 2.49324,9.5797 -13.60431,3.5407 2.5688,9.87 7.61956,-1.983 5.06202,19.4498 5.98476,-1.5576 2.49323,9.5798 -13.6043,3.5406 2.56879,9.8701 7.61955,-1.9831 5.06306,19.4538 9.03535,-2.8687 -1.87134,-5.8942 8.74555,-2.7766 4.25386,13.3985 9.03148,-2.8674 -2.38252,-7.5043 8.8885,-2.822 -1.87133,-5.8942 8.74554,-2.7766 4.25386,13.3984 9.03148,-2.8674 -2.38252,-7.5042 z m 2.75733,-30.8826 0.67484,-3.587 -1.62155,-0.3051 -0.67484,3.5871 z m -39.13233,-36.8588 -3.6177,-0.4845 -0.21904,1.6354 3.6177,0.4845 z m -36.19405,36.3101 0.91933,3.5323 1.59681,-0.4155 -0.91933,-3.5324 z m 38.76928,39.0148 3.47888,-1.1045 -0.49931,-1.5726 -3.47887,1.1045 z"
           style="fill:none;stroke:#000000;stroke-width:0.5;stroke-miterlimit:4;stroke-dasharray:none;stroke-opacity:0.952703"
           id="path2073"
           inkscape:connector-curvature="0" />
      </g>
      <g
         transform="translate(-223.3896,-322.0759)"
         id="g2085"
         style="stroke:#000000;stroke-width:0.5;stroke-miterlimit:4;stroke-dasharray:none;stroke-opacity:0.952703" />
    </g>
    <g
       id="g2147"
       transform="matrix(0,1,1,0,1357.9864,-283.23011)"
       style="stroke:#000000;stroke-width:0.5;stroke-miterlimit:4;stroke-dasharray:none;stroke-opacity:0.952703">
      <path
         id="path2141"
         style="opacity:1;fill:none;fill-opacity:1;stroke:#000000;stroke-width:0.5;stroke-linecap:round;stroke-linejoin:miter;stroke-miterlimit:4;stroke-dasharray:none;stroke-opacity:0.952703;paint-order:normal"
         d="m 441.55384,-1309.0523 h -15 v -3 h 15 z m -37.9999,0 h 15 v -3 h -15 z m 37.9999,-24.1666 h -15 v 3 h 15 z m -37.9999,0 h 15 v 3 h -15 z m 5.5947,-7.9167 h 26.8106 c 8.31,0 15,6.69 15,15 v 10 c 0,8.31 -6.69,15 -15,15 h -26.8106 c -8.31,0 -15,-6.69 -15,-15 v -10 c 0,-8.31 6.69,-15 15,-15 z"
         inkscape:connector-curvature="0" />
      <path
         inkscape:connector-curvature="0"
         d="m 441.55384,-1265.1525 h -15 v -3 h 15 z m -37.9999,0 h 15 v -3 h -15 z m 37.9999,-24.1666 h -15 v 3 h 15 z m -37.9999,0 h 15 v 3 h -15 z m 5.5947,-7.9167 h 26.8106 c 8.31,0 15,6.69 15,15 v 10 c 0,8.31 -6.69,15 -15,15 h -26.8106 c -8.31,0 -15,-6.69 -15,-15 v -10 c 0,-8.31 6.69,-15 15,-15 z"
         style="opacity:1;fill:none;fill-opacity:1;stroke:#000000;stroke-width:0.5;stroke-linecap:round;stroke-linejoin:miter;stroke-miterlimit:4;stroke-dasharray:none;stroke-opacity:0.952703;paint-order:normal"
         id="path2143" />
    </g>
    <g
       transform="matrix(0,1,1,0,1357.9867,-222.90545)"
       id="g2174"
       style="stroke:#000000;stroke-width:0.5;stroke-miterlimit:4;stroke-dasharray:none;stroke-opacity:0.952703">
      <path
         inkscape:connector-curvature="0"
         d="m 441.55384,-1309.0523 h -15 v -3 h 15 z m -37.9999,0 h 15 v -3 h -15 z m 37.9999,-24.1666 h -15 v 3 h 15 z m -37.9999,0 h 15 v 3 h -15 z m 5.5947,-7.9167 h 26.8106 c 8.31,0 15,6.69 15,15 v 10 c 0,8.31 -6.69,15 -15,15 h -26.8106 c -8.31,0 -15,-6.69 -15,-15 v -10 c 0,-8.31 6.69,-15 15,-15 z"
         style="opacity:1;fill:none;fill-opacity:1;stroke:#000000;stroke-width:0.5;stroke-linecap:round;stroke-linejoin:miter;stroke-miterlimit:4;stroke-dasharray:none;stroke-opacity:0.952703;paint-order:normal"
         id="path2170" />
      <path
         id="path2172"
         style="opacity:1;fill:none;fill-opacity:1;stroke:#000000;stroke-width:0.5;stroke-linecap:round;stroke-linejoin:miter;stroke-miterlimit:4;stroke-dasharray:none;stroke-opacity:0.952703;paint-order:normal"
         d="m 441.55384,-1265.1525 h -15 v -3 h 15 z m -37.9999,0 h 15 v -3 h -15 z m 37.9999,-24.1666 h -15 v 3 h 15 z m -37.9999,0 h 15 v 3 h -15 z m 5.5947,-7.9167 h 26.8106 c 8.31,0 15,6.69 15,15 v 10 c 0,8.31 -6.69,15 -15,15 h -26.8106 c -8.31,0 -15,-6.69 -15,-15 v -10 c 0,-8.31 6.69,-15 15,-15 z"
         inkscape:connector-curvature="0" />
    </g>
    <g
       style="stroke:#000000;stroke-width:0.5;stroke-miterlimit:4;stroke-dasharray:none;stroke-opacity:0.952703"
       id="g2966"
       transform="matrix(0,1,1,0,1357.9867,-162.58055)">
      <path
         id="path2962"
         style="opacity:1;fill:none;fill-opacity:1;stroke:#000000;stroke-width:0.5;stroke-linecap:round;stroke-linejoin:miter;stroke-miterlimit:4;stroke-dasharray:none;stroke-opacity:0.952703;paint-order:normal"
         d="m 441.55384,-1309.0523 h -15 v -3 h 15 z m -37.9999,0 h 15 v -3 h -15 z m 37.9999,-24.1666 h -15 v 3 h 15 z m -37.9999,0 h 15 v 3 h -15 z m 5.5947,-7.9167 h 26.8106 c 8.31,0 15,6.69 15,15 v 10 c 0,8.31 -6.69,15 -15,15 h -26.8106 c -8.31,0 -15,-6.69 -15,-15 v -10 c 0,-8.31 6.69,-15 15,-15 z"
         inkscape:connector-curvature="0" />
      <path
         inkscape:connector-curvature="0"
         d="m 441.55384,-1265.1525 h -15 v -3 h 15 z m -37.9999,0 h 15 v -3 h -15 z m 37.9999,-24.1666 h -15 v 3 h 15 z m -37.9999,0 h 15 v 3 h -15 z m 5.5947,-7.9167 h 26.8106 c 8.31,0 15,6.69 15,15 v 10 c 0,8.31 -6.69,15 -15,15 h -26.8106 c -8.31,0 -15,-6.69 -15,-15 v -10 c 0,-8.31 6.69,-15 15,-15 z"
         style="opacity:1;fill:none;fill-opacity:1;stroke:#000000;stroke-width:0.5;stroke-linecap:round;stroke-linejoin:miter;stroke-miterlimit:4;stroke-dasharray:none;stroke-opacity:0.952703;paint-order:normal"
         id="path2964" />
    </g>
    <path
       sodipodi:nodetypes="sccccccsssscccssccsccccss"
       inkscape:connector-curvature="0"
       id="path3033"
       d="m 406.9679,356.5208 c 1.108,0 2.05984,-0.894 1.99986,-2.00041 l -10e-6,-1.99959 c 0,-0.55401 -0.44593,-1 -0.99994,-1 h -4.99967 l 10e-6,-8.99978 h 6.00014 v -5.00071 c 0,-1.6619 -1.33834,-2.99979 -3.00032,-2.99979 h -43.99993 c -1.66201,0 -2.99982,1.33789 -2.99982,2.99979 v 5.00071 h 11.99982 v 11.99937 c 0,1.10799 0.89185,2.00041 1.99985,2.00041 h 10.99987 c 1.10799,0 2.06036,-0.894 2.00038,-2.00041 l -1e-5,-1.99959 c 0,-0.55401 -0.44645,-1 -1.00045,-1 h -4.99969 l 1e-5,-8.99978 h 13.99966 v 11.99937 c 0,1.10799 0.89238,2.00041 2.00038,2.00041 z"
       style="opacity:1;fill:none;fill-opacity:1;stroke:#000000;stroke-width:0.5;stroke-linecap:round;stroke-linejoin:miter;stroke-miterlimit:4;stroke-dasharray:none;stroke-opacity:0.952703;paint-order:normal" />
    <path
       sodipodi:nodetypes="sccccccsssscccssccsccccss"
       inkscape:connector-curvature="0"
       id="path3092"
       d="m 319.75039,309.02934 c -1.108,0 -2.05984,0.894 -1.99986,2.00041 l 10e-6,1.99959 c 0,0.55401 0.44593,1 0.99994,1 h 4.99967 l -1e-5,8.99978 H 317.75 v 5.00071 c 0,1.6619 1.33834,2.99979 3.00032,2.99979 h 43.99993 c 1.66201,0 2.99982,-1.33789 2.99982,-2.99979 v -5.00071 h -11.99982 v -11.99937 c 0,-1.10799 -0.89185,-2.00041 -1.99985,-2.00041 h -10.99987 c -1.10799,0 -2.06036,0.894 -2.00038,2.00041 l 10e-6,1.99959 c 0,0.55401 0.44645,1 1.00045,1 h 4.99969 l -10e-6,8.99978 h -13.99966 v -11.99937 c 0,-1.10799 -0.89238,-2.00041 -2.00038,-2.00041 z"
       style="opacity:1;fill:none;fill-opacity:1;stroke:#000000;stroke-width:0.5;stroke-linecap:round;stroke-linejoin:miter;stroke-miterlimit:4;stroke-dasharray:none;stroke-opacity:0.952703;paint-order:normal" />
    <path
       style="opacity:1;fill:none;fill-opacity:1;stroke:#000000;stroke-width:0.5;stroke-linecap:round;stroke-linejoin:miter;stroke-miterlimit:4;stroke-dasharray:none;stroke-opacity:0.952703;paint-order:normal"
       d="m 406.9679,331.12079 c 1.108,0 2.05984,-0.894 1.99986,-2.00041 l -10e-6,-1.99959 c 0,-0.55401 -0.44593,-1 -0.99994,-1 h -4.99967 l 10e-6,-8.99978 h 6.00014 v -5.00071 c 0,-1.6619 -1.33834,-2.99979 -3.00032,-2.99979 h -43.99993 c -1.66201,0 -2.99982,1.33789 -2.99982,2.99979 v 5.00071 h 11.99982 v 11.99937 c 0,1.10799 0.89185,2.00041 1.99985,2.00041 h 10.99987 c 1.10799,0 2.06036,-0.894 2.00038,-2.00041 l -1e-5,-1.99959 c 0,-0.55401 -0.44645,-1 -1.00045,-1 h -4.99969 l 1e-5,-8.99978 h 13.99966 v 11.99937 c 0,1.10799 0.89238,2.00041 2.00038,2.00041 z"
       id="path3094"
       inkscape:connector-curvature="0"
       sodipodi:nodetypes="sccccccsssscccssccsccccss" />
    <path
       style="opacity:1;fill:none;fill-opacity:1;stroke:#000000;stroke-width:0.5;stroke-linecap:round;stroke-linejoin:miter;stroke-miterlimit:4;stroke-dasharray:none;stroke-opacity:0.952703;paint-order:normal"
       d="m 319.75039,360.35856 c -1.108,0 -2.05984,0.894 -1.99986,2.00041 l 10e-6,1.99959 c 0,0.55401 0.44593,1 0.99994,1 h 4.99967 l -1e-5,8.99978 H 317.75 v 5.00071 c 0,1.6619 1.33834,2.99979 3.00032,2.99979 h 43.99993 c 1.66201,0 2.99982,-1.33789 2.99982,-2.99979 v -5.00071 h -11.99982 v -11.99937 c 0,-1.10799 -0.89185,-2.00041 -1.99985,-2.00041 h -10.99987 c -1.10799,0 -2.06036,0.894 -2.00038,2.00041 l 10e-6,1.99959 c 0,0.55401 0.44645,1 1.00045,1 h 4.99969 l -10e-6,8.99978 h -13.99966 v -11.99937 c 0,-1.10799 -0.89238,-2.00041 -2.00038,-2.00041 z"
       id="path3096"
       inkscape:connector-curvature="0"
       sodipodi:nodetypes="sccccccsssscccssccsccccss" />
    <path
       sodipodi:nodetypes="sccccccsssscccssccsccccss"
       inkscape:connector-curvature="0"
       id="path3098"
       d="m 406.9679,382.45001 c 1.108,0 2.05984,-0.894 1.99986,-2.00041 l -10e-6,-1.99959 c 0,-0.55401 -0.44593,-1 -0.99994,-1 h -4.99967 l 10e-6,-8.99978 h 6.00014 v -5.00071 c 0,-1.6619 -1.33834,-2.99979 -3.00032,-2.99979 h -43.99993 c -1.66201,0 -2.99982,1.33789 -2.99982,2.99979 v 5.00071 h 11.99982 v 11.99937 c 0,1.10799 0.89185,2.00041 1.99985,2.00041 h 10.99987 c 1.10799,0 2.06036,-0.894 2.00038,-2.00041 l -1e-5,-1.99959 c 0,-0.55401 -0.44645,-1 -1.00045,-1 h -4.99969 l 1e-5,-8.99978 h 13.99966 v 11.99937 c 0,1.10799 0.89238,2.00041 2.00038,2.00041 z"
       style="opacity:1;fill:none;fill-opacity:1;stroke:#000000;stroke-width:0.5;stroke-linecap:round;stroke-linejoin:miter;stroke-miterlimit:4;stroke-dasharray:none;stroke-opacity:0.952703;paint-order:normal" />
    <path
       sodipodi:nodetypes="sccccccsssscccssccsccccss"
       inkscape:connector-curvature="0"
       id="path3100"
       d="m 224.50033,334.42935 c -1.108,0 -2.05984,0.894 -1.99986,2.00041 l 1e-5,1.99959 c 0,0.55401 0.44593,1 0.99994,1 h 4.99967 l -1e-5,8.99978 h -6.00014 v 5.00071 c 0,1.6619 1.33834,2.99979 3.00032,2.99979 h 43.99993 c 1.66201,0 2.99982,-1.33789 2.99982,-2.99979 v -5.00071 h -11.99982 v -11.99937 c 0,-1.10799 -0.89185,-2.00041 -1.99985,-2.00041 h -10.99987 c -1.10799,0 -2.06036,0.894 -2.00038,2.00041 l 1e-5,1.99959 c 0,0.55401 0.44645,1 1.00045,1 h 4.99969 l -1e-5,8.99978 h -13.99966 v -11.99937 c 0,-1.10799 -0.89238,-2.00041 -2.00038,-2.00041 z"
       style="opacity:1;fill:none;fill-opacity:1;stroke:#000000;stroke-width:0.5;stroke-linecap:round;stroke-linejoin:miter;stroke-miterlimit:4;stroke-dasharray:none;stroke-opacity:0.952703;paint-order:normal" />
    <path
       style="opacity:1;fill:none;fill-opacity:1;stroke:#000000;stroke-width:0.5;stroke-linecap:round;stroke-linejoin:miter;stroke-miterlimit:4;stroke-dasharray:none;stroke-opacity:0.952703;paint-order:normal"
       d="m 311.71784,356.5208 c 1.108,0 2.05984,-0.894 1.99986,-2.00041 l -10e-6,-1.99959 c 0,-0.55401 -0.44593,-1 -0.99994,-1 h -4.99967 l 1e-5,-8.99978 h 6.00014 v -5.00071 c 0,-1.6619 -1.33834,-2.99979 -3.00032,-2.99979 h -43.99993 c -1.66201,0 -2.99982,1.33789 -2.99982,2.99979 v 5.00071 h 11.99982 v 11.99937 c 0,1.10799 0.89185,2.00041 1.99985,2.00041 h 10.99987 c 1.10799,0 2.06036,-0.894 2.00038,-2.00041 l -10e-6,-1.99959 c 0,-0.55401 -0.44645,-1 -1.00045,-1 h -4.99969 l 10e-6,-8.99978 h 13.99966 v 11.99937 c 0,1.10799 0.89238,2.00041 2.00038,2.00041 z"
       id="path3102"
       inkscape:connector-curvature="0"
       sodipodi:nodetypes="sccccccsssscccssccsccccss" />
    <path
       style="opacity:1;fill:none;fill-opacity:1;stroke:#000000;stroke-width:0.5;stroke-linecap:round;stroke-linejoin:miter;stroke-miterlimit:4;stroke-dasharray:none;stroke-opacity:0.952703;paint-order:normal"
       d="m 224.50033,309.02934 c -1.108,0 -2.05984,0.894 -1.99986,2.00041 l 1e-5,1.99959 c 0,0.55401 0.44593,1 0.99994,1 h 4.99967 l -1e-5,8.99978 h -6.00014 v 5.00071 c 0,1.6619 1.33834,2.99979 3.00032,2.99979 h 43.99993 c 1.66201,0 2.99982,-1.33789 2.99982,-2.99979 v -5.00071 h -11.99982 v -11.99937 c 0,-1.10799 -0.89185,-2.00041 -1.99985,-2.00041 h -10.99987 c -1.10799,0 -2.06036,0.894 -2.00038,2.00041 l 1e-5,1.99959 c 0,0.55401 0.44645,1 1.00045,1 h 4.99969 l -1e-5,8.99978 h -13.99966 v -11.99937 c 0,-1.10799 -0.89238,-2.00041 -2.00038,-2.00041 z"
       id="path3104"
       inkscape:connector-curvature="0"
       sodipodi:nodetypes="sccccccsssscccssccsccccss" />
    <path
       sodipodi:nodetypes="sccccccsssscccssccsccccss"
       inkscape:connector-curvature="0"
       id="path3106"
       d="m 311.71784,331.12079 c 1.108,0 2.05984,-0.894 1.99986,-2.00041 l -10e-6,-1.99959 c 0,-0.55401 -0.44593,-1 -0.99994,-1 h -4.99967 l 1e-5,-8.99978 h 6.00014 v -5.00071 c 0,-1.6619 -1.33834,-2.99979 -3.00032,-2.99979 h -43.99993 c -1.66201,0 -2.99982,1.33789 -2.99982,2.99979 v 5.00071 h 11.99982 v 11.99937 c 0,1.10799 0.89185,2.00041 1.99985,2.00041 h 10.99987 c 1.10799,0 2.06036,-0.894 2.00038,-2.00041 l -10e-6,-1.99959 c 0,-0.55401 -0.44645,-1 -1.00045,-1 h -4.99969 l 10e-6,-8.99978 h 13.99966 v 11.99937 c 0,1.10799 0.89238,2.00041 2.00038,2.00041 z"
       style="opacity:1;fill:none;fill-opacity:1;stroke:#000000;stroke-width:0.5;stroke-linecap:round;stroke-linejoin:miter;stroke-miterlimit:4;stroke-dasharray:none;stroke-opacity:0.952703;paint-order:normal" />
    <path
       sodipodi:nodetypes="sccccccsssscccssccsccccss"
       inkscape:connector-curvature="0"
       id="path3108"
       d="m 224.50033,360.35856 c -1.108,0 -2.05984,0.894 -1.99986,2.00041 l 1e-5,1.99959 c 0,0.55401 0.44593,1 0.99994,1 h 4.99967 l -1e-5,8.99978 h -6.00014 v 5.00071 c 0,1.6619 1.33834,2.99979 3.00032,2.99979 h 43.99993 c 1.66201,0 2.99982,-1.33789 2.99982,-2.99979 v -5.00071 h -11.99982 v -11.99937 c 0,-1.10799 -0.89185,-2.00041 -1.99985,-2.00041 h -10.99987 c -1.10799,0 -2.06036,0.894 -2.00038,2.00041 l 1e-5,1.99959 c 0,0.55401 0.44645,1 1.00045,1 h 4.99969 l -1e-5,8.99978 h -13.99966 v -11.99937 c 0,-1.10799 -0.89238,-2.00041 -2.00038,-2.00041 z"
       style="opacity:1;fill:none;fill-opacity:1;stroke:#000000;stroke-width:0.5;stroke-linecap:round;stroke-linejoin:miter;stroke-miterlimit:4;stroke-dasharray:none;stroke-opacity:0.952703;paint-order:normal" />
    <path
       style="opacity:1;fill:none;fill-opacity:1;stroke:#000000;stroke-width:0.5;stroke-linecap:round;stroke-linejoin:miter;stroke-miterlimit:4;stroke-dasharray:none;stroke-opacity:0.952703;paint-order:normal"
       d="m 311.71784,382.45001 c 1.108,0 2.05984,-0.894 1.99986,-2.00041 l -10e-6,-1.99959 c 0,-0.55401 -0.44593,-1 -0.99994,-1 h -4.99967 l 1e-5,-8.99978 h 6.00014 v -5.00071 c 0,-1.6619 -1.33834,-2.99979 -3.00032,-2.99979 h -43.99993 c -1.66201,0 -2.99982,1.33789 -2.99982,2.99979 v 5.00071 h 11.99982 v 11.99937 c 0,1.10799 0.89185,2.00041 1.99985,2.00041 h 10.99987 c 1.10799,0 2.06036,-0.894 2.00038,-2.00041 l -10e-6,-1.99959 c 0,-0.55401 -0.44645,-1 -1.00045,-1 h -4.99969 l 10e-6,-8.99978 h 13.99966 v 11.99937 c 0,1.10799 0.89238,2.00041 2.00038,2.00041 z"
       id="path3110"
       inkscape:connector-curvature="0"
       sodipodi:nodetypes="sccccccsssscccssccsccccss" />
    <path
       style="opacity:1;fill:none;fill-opacity:1;stroke:#000000;stroke-width:0.5;stroke-linecap:round;stroke-linejoin:miter;stroke-miterlimit:4;stroke-dasharray:none;stroke-opacity:0.952703;paint-order:normal"
       d="m 117.85799,372.35393 -2.96347,-65.33681 -100.194948,9.8645 47.0174,89.02643 56.141018,83.57342 56.14104,-83.57344 47.01738,-89.02641 -100.19494,-9.86451 z"
       id="path2528"
       inkscape:connector-curvature="0" />
    <path
       id="path3246"
       d="M 35.325861,451.54162 A 18.038631,18.038631 0 0 0 17.28717,469.58031 18.038631,18.038631 0 0 0 35.325861,487.619 18.038631,18.038631 0 0 0 53.364551,469.58031 18.038631,18.038631 0 0 0 35.325861,451.54162 Z m 0,3.75274 5.1754,3.75997 1.76319,-2.42724 3.2365,2.35128 -1.7632,2.42724 5.17488,3.75998 -1.97663,6.08386 2.85306,0.92708 -1.2361,3.80442 -2.85357,-0.92708 -1.97663,6.08387 h -6.3965 v 2.99982 h -4.00028 v -2.99982 h -6.39702 l -1.97663,-6.08387 -2.85305,0.92708 -1.2361,-3.80442 2.85305,-0.92708 -1.97662,-6.08386 5.17488,-3.75998 -1.7632,-2.42724 3.23598,-2.35128 1.76371,2.42724 z"
       style="opacity:1;fill:none;fill-opacity:0.391892;stroke:#000000;stroke-width:0.5;stroke-linecap:round;stroke-linejoin:miter;stroke-miterlimit:4;stroke-dasharray:none;stroke-opacity:1;paint-order:normal"
       inkscape:connector-curvature="0" />
    <g
       transform="matrix(0,1,1,0,1569.6642,35.1989)"
       id="g3252"
       style="stroke:#000000;stroke-width:0.5;stroke-miterlimit:4;stroke-dasharray:none;stroke-opacity:0.952703">
      <path
         inkscape:connector-curvature="0"
         d="m 441.55384,-1309.0523 h -15 v -3 h 15 z m -37.9999,0 h 15 v -3 h -15 z m 37.9999,-24.1666 h -15 v 3 h 15 z m -37.9999,0 h 15 v 3 h -15 z m 5.5947,-7.9167 h 26.8106 c 8.31,0 15,6.69 15,15 v 10 c 0,8.31 -6.69,15 -15,15 h -26.8106 c -8.31,0 -15,-6.69 -15,-15 v -10 c 0,-8.31 6.69,-15 15,-15 z"
         style="opacity:1;fill:none;fill-opacity:1;stroke:#000000;stroke-width:0.5;stroke-linecap:round;stroke-linejoin:miter;stroke-miterlimit:4;stroke-dasharray:none;stroke-opacity:0.952703;paint-order:normal"
         id="path3248" />
      <path
         id="path3250"
         style="opacity:1;fill:none;fill-opacity:1;stroke:#000000;stroke-width:0.5;stroke-linecap:round;stroke-linejoin:miter;stroke-miterlimit:4;stroke-dasharray:none;stroke-opacity:0.952703;paint-order:normal"
         d="m 441.55384,-1265.1525 h -15 v -3 h 15 z m -37.9999,0 h 15 v -3 h -15 z m 37.9999,-24.1666 h -15 v 3 h 15 z m -37.9999,0 h 15 v 3 h -15 z m 5.5947,-7.9167 h 26.8106 c 8.31,0 15,6.69 15,15 v 10 c 0,8.31 -6.69,15 -15,15 h -26.8106 c -8.31,0 -15,-6.69 -15,-15 v -10 c 0,-8.31 6.69,-15 15,-15 z"
         inkscape:connector-curvature="0" />
    </g>
    <g
       style="stroke:#000000;stroke-width:0.5;stroke-miterlimit:4;stroke-dasharray:none;stroke-opacity:0.952703"
       id="g3258"
       transform="matrix(0,1,1,0,1659.6231,35.1989)">
      <path
         id="path3254"
         style="opacity:1;fill:none;fill-opacity:1;stroke:#000000;stroke-width:0.5;stroke-linecap:round;stroke-linejoin:miter;stroke-miterlimit:4;stroke-dasharray:none;stroke-opacity:0.952703;paint-order:normal"
         d="m 441.55384,-1309.0523 h -15 v -3 h 15 z m -37.9999,0 h 15 v -3 h -15 z m 37.9999,-24.1666 h -15 v 3 h 15 z m -37.9999,0 h 15 v 3 h -15 z m 5.5947,-7.9167 h 26.8106 c 8.31,0 15,6.69 15,15 v 10 c 0,8.31 -6.69,15 -15,15 h -26.8106 c -8.31,0 -15,-6.69 -15,-15 v -10 c 0,-8.31 6.69,-15 15,-15 z"
         inkscape:connector-curvature="0" />
      <path
         inkscape:connector-curvature="0"
         d="m 441.55384,-1265.1525 h -15 v -3 h 15 z m -37.9999,0 h 15 v -3 h -15 z m 37.9999,-24.1666 h -15 v 3 h 15 z m -37.9999,0 h 15 v 3 h -15 z m 5.5947,-7.9167 h 26.8106 c 8.31,0 15,6.69 15,15 v 10 c 0,8.31 -6.69,15 -15,15 h -26.8106 c -8.31,0 -15,-6.69 -15,-15 v -10 c 0,-8.31 6.69,-15 15,-15 z"
         style="opacity:1;fill:none;fill-opacity:1;stroke:#000000;stroke-width:0.5;stroke-linecap:round;stroke-linejoin:miter;stroke-miterlimit:4;stroke-dasharray:none;stroke-opacity:0.952703;paint-order:normal"
         id="path3256" />
    </g>
    <path
       inkscape:connector-curvature="0"
       id="path3260"
       d="m 178.78278,434.8332 h 7.99999 v 4.1298 h 8.00001 v -4.1298 h 8 v 4.1298 h 8 v -4.1298 h 7.99979 l 2e-4,9.55194 h 2.9998 v 4 h -2.9998 l -2e-4,5.42189 h -7.99979 v 4.13005 h -8 v -4.13005 h -8 v 4.13005 h -8.00001 v -4.13005 h -7.99991 l -8e-5,-5.42189 h -7.00001 v -4 h 7.00001 z"
       style="opacity:1;fill:none;fill-opacity:1;stroke:#000000;stroke-width:0.5;stroke-linecap:round;stroke-linejoin:round;stroke-miterlimit:4;stroke-dasharray:none;stroke-opacity:1;paint-order:normal" />
    <path
       style="opacity:1;fill:none;fill-opacity:1;stroke:#000000;stroke-width:0.5;stroke-linecap:round;stroke-linejoin:round;stroke-miterlimit:4;stroke-dasharray:none;stroke-opacity:1;paint-order:normal"
       d="m 178.78278,409.43316 h 7.99999 v 4.1298 h 8.00001 v -4.1298 h 8 v 4.1298 h 8 v -4.1298 h 7.99979 l 2e-4,9.55194 h 2.9998 v 4 h -2.9998 l -2e-4,5.42189 h -7.99979 v 4.13005 h -8 v -4.13005 h -8 v 4.13005 h -8.00001 v -4.13005 h -7.99991 l -8e-5,-5.42189 h -7.00001 v -4 h 7.00001 z"
       id="path3264"
       inkscape:connector-curvature="0" />
    <path
       inkscape:connector-curvature="0"
       id="path3266"
       d="m 169.13694,447.67506 v 7.99999 h -4.1298 v 8.00001 h 4.1298 v 8 h -4.1298 v 8 h 4.1298 v 7.99979 l -9.55194,2e-4 v 2.9998 h -4 v -2.9998 l -5.42189,-2e-4 v -7.99979 h -4.13005 v -8 h 4.13005 v -8 h -4.13005 v -8.00001 h 4.13005 v -7.99991 l 5.42189,-8e-5 v -7.00001 h 4 v 7.00001 z"
       style="opacity:1;fill:none;fill-opacity:1;stroke:#000000;stroke-width:0.5;stroke-linecap:round;stroke-linejoin:round;stroke-miterlimit:4;stroke-dasharray:none;stroke-opacity:1;paint-order:normal" />
    <path
       style="opacity:1;fill:none;fill-opacity:1;stroke:#000000;stroke-width:0.5;stroke-linecap:round;stroke-linejoin:round;stroke-miterlimit:4;stroke-dasharray:none;stroke-opacity:1;paint-order:normal"
       d="m 218.65182,363.38637 v 7.99999 h -4.1298 v 8.00001 h 4.1298 v 8 h -4.1298 v 8 h 4.1298 v 7.99979 l -9.55194,2e-4 v 2.9998 h -4 v -2.9998 l -5.42189,-2e-4 v -7.99979 h -4.13005 v -8 h 4.13005 v -8 h -4.13005 v -8.00001 h 4.13005 v -7.99991 l 5.42189,-8e-5 v -7.00001 h 4 v 7.00001 z"
       id="path3268"
       inkscape:connector-curvature="0" />
    <path
       style="opacity:1;fill:none;fill-opacity:1;stroke:#000000;stroke-width:0.5;stroke-linecap:round;stroke-linejoin:round;stroke-miterlimit:4;stroke-dasharray:none;stroke-opacity:1;paint-order:normal"
       d="m 59.055376,447.2927 h -7.99999 v -4.1298 h -8.00001 v 4.1298 h -8 v -4.1298 h -8 v 4.1298 h -7.99979 l -2e-4,-9.55194 h -2.9998 v -4 h 2.9998 l 2e-4,-5.42189 h 7.99979 v -4.13005 h 8 v 4.13005 h 8 v -4.13005 h 8.00001 v 4.13005 h 7.99991 l 8e-5,5.42189 h 7.00001 v 4 h -7.00001 z"
       id="path3270"
       inkscape:connector-curvature="0" />
    <path
       inkscape:connector-curvature="0"
       style="opacity:1;fill:none;fill-opacity:0.391892;stroke:#000000;stroke-width:0.5;stroke-linecap:round;stroke-linejoin:miter;stroke-miterlimit:4;stroke-dasharray:none;stroke-opacity:1;paint-order:normal"
       d="m 33.722244,381.25203 a 18.038631,18.038631 0 0 0 -18.038691,18.03869 18.038631,18.038631 0 0 0 18.038691,18.03869 18.038631,18.038631 0 0 0 18.03869,-18.03869 18.038631,18.038631 0 0 0 -18.03869,-18.03869 z m 0,3.75274 5.1754,3.75997 1.76319,-2.42724 3.2365,2.35128 -1.7632,2.42724 5.17488,3.75998 -1.97663,6.08386 2.85306,0.92708 -1.2361,3.80442 -2.85357,-0.92708 -1.97663,6.08387 h -6.3965 v 2.99982 h -4.00028 v -2.99982 h -6.39702 l -1.97663,-6.08387 -2.85305,0.92708 -1.2361,-3.80442 2.85305,-0.92708 -1.97662,-6.08386 5.17488,-3.75998 -1.7632,-2.42724 3.23598,-2.35128 1.76371,2.42724 z"
       id="path3272" />
    <g
       id="g3382"
       transform="translate(9.0947991,-125.46014)">
      <path
         style="opacity:1;fill:none;fill-opacity:1;stroke:#000000;stroke-width:0.5;stroke-linecap:round;stroke-linejoin:miter;stroke-miterlimit:4;stroke-dasharray:none;stroke-opacity:0.952703;paint-order:normal"
         d="m 274.8858,514.5224 c -1.10799,0 -2.0004,0.89238 -2.0004,2.00038 v 6.99959 h 15.00012 v -6.99959 c 0,-1.108 -0.89188,-2.00038 -1.99988,-2.00038 z"
         id="path3193"
         inkscape:connector-curvature="0"
         sodipodi:nodetypes="sccccss" />
      <path
         sodipodi:nodetypes="sccccss"
         inkscape:connector-curvature="0"
         id="path3274"
         d="m 293.40666,514.5224 c -1.10799,0 -2.0004,0.89238 -2.0004,2.00038 v 6.99959 h 15.00012 v -6.99959 c 0,-1.108 -0.89188,-2.00038 -1.99988,-2.00038 z"
         style="opacity:1;fill:none;fill-opacity:1;stroke:#000000;stroke-width:0.5;stroke-linecap:round;stroke-linejoin:miter;stroke-miterlimit:4;stroke-dasharray:none;stroke-opacity:0.952703;paint-order:normal" />
      <path
         style="opacity:1;fill:none;fill-opacity:1;stroke:#000000;stroke-width:0.5;stroke-linecap:round;stroke-linejoin:miter;stroke-miterlimit:4;stroke-dasharray:none;stroke-opacity:0.952703;paint-order:normal"
         d="m 311.92752,514.5224 c -1.10799,0 -2.0004,0.89238 -2.0004,2.00038 v 6.99959 h 15.00012 v -6.99959 c 0,-1.108 -0.89188,-2.00038 -1.99988,-2.00038 z"
         id="path3280"
         inkscape:connector-curvature="0"
         sodipodi:nodetypes="sccccss" />
      <path
         sodipodi:nodetypes="sccccss"
         inkscape:connector-curvature="0"
         id="path3284"
         d="m 330.44838,514.5224 c -1.10799,0 -2.0004,0.89238 -2.0004,2.00038 v 6.99959 h 15.00012 v -6.99959 c 0,-1.108 -0.89188,-2.00038 -1.99988,-2.00038 z"
         style="opacity:1;fill:none;fill-opacity:1;stroke:#000000;stroke-width:0.5;stroke-linecap:round;stroke-linejoin:miter;stroke-miterlimit:4;stroke-dasharray:none;stroke-opacity:0.952703;paint-order:normal" />
      <path
         sodipodi:nodetypes="sccccss"
         inkscape:connector-curvature="0"
         id="path3286"
         d="m 219.32322,514.5224 c -1.10799,0 -2.0004,0.89238 -2.0004,2.00038 v 6.99959 h 15.00012 v -6.99959 c 0,-1.108 -0.89188,-2.00038 -1.99988,-2.00038 z"
         style="opacity:1;fill:none;fill-opacity:1;stroke:#000000;stroke-width:0.5;stroke-linecap:round;stroke-linejoin:miter;stroke-miterlimit:4;stroke-dasharray:none;stroke-opacity:0.952703;paint-order:normal" />
      <path
         style="opacity:1;fill:none;fill-opacity:1;stroke:#000000;stroke-width:0.5;stroke-linecap:round;stroke-linejoin:miter;stroke-miterlimit:4;stroke-dasharray:none;stroke-opacity:0.952703;paint-order:normal"
         d="m 237.84408,514.5224 c -1.10799,0 -2.0004,0.89238 -2.0004,2.00038 v 6.99959 h 15.00012 v -6.99959 c 0,-1.108 -0.89188,-2.00038 -1.99988,-2.00038 z"
         id="path3288"
         inkscape:connector-curvature="0"
         sodipodi:nodetypes="sccccss" />
      <path
         sodipodi:nodetypes="sccccss"
         inkscape:connector-curvature="0"
         id="path3290"
         d="m 256.36494,514.5224 c -1.10799,0 -2.0004,0.89238 -2.0004,2.00038 v 6.99959 h 15.00012 v -6.99959 c 0,-1.108 -0.89188,-2.00038 -1.99988,-2.00038 z"
         style="opacity:1;fill:none;fill-opacity:1;stroke:#000000;stroke-width:0.5;stroke-linecap:round;stroke-linejoin:miter;stroke-miterlimit:4;stroke-dasharray:none;stroke-opacity:0.952703;paint-order:normal" />
      <path
         sodipodi:nodetypes="sccccss"
         inkscape:connector-curvature="0"
         id="path3300"
         d="m 274.8858,527.22239 c -1.10799,0 -2.0004,0.89238 -2.0004,2.00038 v 6.99959 h 15.00012 v -6.99959 c 0,-1.108 -0.89188,-2.00038 -1.99988,-2.00038 z"
         style="opacity:1;fill:none;fill-opacity:1;stroke:#000000;stroke-width:0.5;stroke-linecap:round;stroke-linejoin:miter;stroke-miterlimit:4;stroke-dasharray:none;stroke-opacity:0.952703;paint-order:normal" />
      <path
         style="opacity:1;fill:none;fill-opacity:1;stroke:#000000;stroke-width:0.5;stroke-linecap:round;stroke-linejoin:miter;stroke-miterlimit:4;stroke-dasharray:none;stroke-opacity:0.952703;paint-order:normal"
         d="m 293.40666,527.22239 c -1.10799,0 -2.0004,0.89238 -2.0004,2.00038 v 6.99959 h 15.00012 v -6.99959 c 0,-1.108 -0.89188,-2.00038 -1.99988,-2.00038 z"
         id="path3302"
         inkscape:connector-curvature="0"
         sodipodi:nodetypes="sccccss" />
      <path
         sodipodi:nodetypes="sccccss"
         inkscape:connector-curvature="0"
         id="path3304"
         d="m 311.92752,527.22239 c -1.10799,0 -2.0004,0.89238 -2.0004,2.00038 v 6.99959 h 15.00012 v -6.99959 c 0,-1.108 -0.89188,-2.00038 -1.99988,-2.00038 z"
         style="opacity:1;fill:none;fill-opacity:1;stroke:#000000;stroke-width:0.5;stroke-linecap:round;stroke-linejoin:miter;stroke-miterlimit:4;stroke-dasharray:none;stroke-opacity:0.952703;paint-order:normal" />
      <path
         style="opacity:1;fill:none;fill-opacity:1;stroke:#000000;stroke-width:0.5;stroke-linecap:round;stroke-linejoin:miter;stroke-miterlimit:4;stroke-dasharray:none;stroke-opacity:0.952703;paint-order:normal"
         d="m 330.44838,527.22239 c -1.10799,0 -2.0004,0.89238 -2.0004,2.00038 v 6.99959 h 15.00012 v -6.99959 c 0,-1.108 -0.89188,-2.00038 -1.99988,-2.00038 z"
         id="path3306"
         inkscape:connector-curvature="0"
         sodipodi:nodetypes="sccccss" />
      <path
         style="opacity:1;fill:none;fill-opacity:1;stroke:#000000;stroke-width:0.5;stroke-linecap:round;stroke-linejoin:miter;stroke-miterlimit:4;stroke-dasharray:none;stroke-opacity:0.952703;paint-order:normal"
         d="m 219.32322,527.22239 c -1.10799,0 -2.0004,0.89238 -2.0004,2.00038 v 6.99959 h 15.00012 v -6.99959 c 0,-1.108 -0.89188,-2.00038 -1.99988,-2.00038 z"
         id="path3308"
         inkscape:connector-curvature="0"
         sodipodi:nodetypes="sccccss" />
      <path
         sodipodi:nodetypes="sccccss"
         inkscape:connector-curvature="0"
         id="path3310"
         d="m 237.84408,527.22239 c -1.10799,0 -2.0004,0.89238 -2.0004,2.00038 v 6.99959 h 15.00012 v -6.99959 c 0,-1.108 -0.89188,-2.00038 -1.99988,-2.00038 z"
         style="opacity:1;fill:none;fill-opacity:1;stroke:#000000;stroke-width:0.5;stroke-linecap:round;stroke-linejoin:miter;stroke-miterlimit:4;stroke-dasharray:none;stroke-opacity:0.952703;paint-order:normal" />
      <path
         style="opacity:1;fill:none;fill-opacity:1;stroke:#000000;stroke-width:0.5;stroke-linecap:round;stroke-linejoin:miter;stroke-miterlimit:4;stroke-dasharray:none;stroke-opacity:0.952703;paint-order:normal"
         d="m 256.36494,527.22239 c -1.10799,0 -2.0004,0.89238 -2.0004,2.00038 v 6.99959 h 15.00012 v -6.99959 c 0,-1.108 -0.89188,-2.00038 -1.99988,-2.00038 z"
         id="path3312"
         inkscape:connector-curvature="0"
         sodipodi:nodetypes="sccccss" />
      <path
         style="opacity:1;fill:none;fill-opacity:1;stroke:#000000;stroke-width:0.5;stroke-linecap:round;stroke-linejoin:miter;stroke-miterlimit:4;stroke-dasharray:none;stroke-opacity:0.952703;paint-order:normal"
         d="m 274.8858,539.39324 c -1.10799,0 -2.0004,0.89238 -2.0004,2.00038 v 6.99959 h 15.00012 v -6.99959 c 0,-1.108 -0.89188,-2.00038 -1.99988,-2.00038 z"
         id="path3314"
         inkscape:connector-curvature="0"
         sodipodi:nodetypes="sccccss" />
      <path
         sodipodi:nodetypes="sccccss"
         inkscape:connector-curvature="0"
         id="path3316"
         d="m 293.40666,539.39324 c -1.10799,0 -2.0004,0.89238 -2.0004,2.00038 v 6.99959 h 15.00012 v -6.99959 c 0,-1.108 -0.89188,-2.00038 -1.99988,-2.00038 z"
         style="opacity:1;fill:none;fill-opacity:1;stroke:#000000;stroke-width:0.5;stroke-linecap:round;stroke-linejoin:miter;stroke-miterlimit:4;stroke-dasharray:none;stroke-opacity:0.952703;paint-order:normal" />
      <path
         style="opacity:1;fill:none;fill-opacity:1;stroke:#000000;stroke-width:0.5;stroke-linecap:round;stroke-linejoin:miter;stroke-miterlimit:4;stroke-dasharray:none;stroke-opacity:0.952703;paint-order:normal"
         d="m 311.92752,539.39324 c -1.10799,0 -2.0004,0.89238 -2.0004,2.00038 v 6.99959 h 15.00012 v -6.99959 c 0,-1.108 -0.89188,-2.00038 -1.99988,-2.00038 z"
         id="path3318"
         inkscape:connector-curvature="0"
         sodipodi:nodetypes="sccccss" />
      <path
         sodipodi:nodetypes="sccccss"
         inkscape:connector-curvature="0"
         id="path3320"
         d="m 330.44838,539.39324 c -1.10799,0 -2.0004,0.89238 -2.0004,2.00038 v 6.99959 h 15.00012 v -6.99959 c 0,-1.108 -0.89188,-2.00038 -1.99988,-2.00038 z"
         style="opacity:1;fill:none;fill-opacity:1;stroke:#000000;stroke-width:0.5;stroke-linecap:round;stroke-linejoin:miter;stroke-miterlimit:4;stroke-dasharray:none;stroke-opacity:0.952703;paint-order:normal" />
      <path
         sodipodi:nodetypes="sccccss"
         inkscape:connector-curvature="0"
         id="path3322"
         d="m 219.32322,539.39324 c -1.10799,0 -2.0004,0.89238 -2.0004,2.00038 v 6.99959 h 15.00012 v -6.99959 c 0,-1.108 -0.89188,-2.00038 -1.99988,-2.00038 z"
         style="opacity:1;fill:none;fill-opacity:1;stroke:#000000;stroke-width:0.5;stroke-linecap:round;stroke-linejoin:miter;stroke-miterlimit:4;stroke-dasharray:none;stroke-opacity:0.952703;paint-order:normal" />
      <path
         style="opacity:1;fill:none;fill-opacity:1;stroke:#000000;stroke-width:0.5;stroke-linecap:round;stroke-linejoin:miter;stroke-miterlimit:4;stroke-dasharray:none;stroke-opacity:0.952703;paint-order:normal"
         d="m 237.84408,539.39324 c -1.10799,0 -2.0004,0.89238 -2.0004,2.00038 v 6.99959 h 15.00012 v -6.99959 c 0,-1.108 -0.89188,-2.00038 -1.99988,-2.00038 z"
         id="path3324"
         inkscape:connector-curvature="0"
         sodipodi:nodetypes="sccccss" />
      <path
         sodipodi:nodetypes="sccccss"
         inkscape:connector-curvature="0"
         id="path3326"
         d="m 256.36494,539.39324 c -1.10799,0 -2.0004,0.89238 -2.0004,2.00038 v 6.99959 h 15.00012 v -6.99959 c 0,-1.108 -0.89188,-2.00038 -1.99988,-2.00038 z"
         style="opacity:1;fill:none;fill-opacity:1;stroke:#000000;stroke-width:0.5;stroke-linecap:round;stroke-linejoin:miter;stroke-miterlimit:4;stroke-dasharray:none;stroke-opacity:0.952703;paint-order:normal" />
      <path
         style="opacity:1;fill:none;fill-opacity:1;stroke:#000000;stroke-width:0.5;stroke-linecap:round;stroke-linejoin:miter;stroke-miterlimit:4;stroke-dasharray:none;stroke-opacity:0.952703;paint-order:normal"
         d="m 348.96924,514.5224 c -1.10799,0 -2.0004,0.89238 -2.0004,2.00038 v 6.99959 h 15.00012 v -6.99959 c 0,-1.108 -0.89188,-2.00038 -1.99988,-2.00038 z"
         id="path3330"
         inkscape:connector-curvature="0"
         sodipodi:nodetypes="sccccss" />
      <path
         sodipodi:nodetypes="sccccss"
         inkscape:connector-curvature="0"
         id="path3332"
         d="m 367.4901,514.5224 c -1.10799,0 -2.0004,0.89238 -2.0004,2.00038 v 6.99959 h 15.00012 v -6.99959 c 0,-1.108 -0.89188,-2.00038 -1.99988,-2.00038 z"
         style="opacity:1;fill:none;fill-opacity:1;stroke:#000000;stroke-width:0.5;stroke-linecap:round;stroke-linejoin:miter;stroke-miterlimit:4;stroke-dasharray:none;stroke-opacity:0.952703;paint-order:normal" />
      <path
         style="opacity:1;fill:none;fill-opacity:1;stroke:#000000;stroke-width:0.5;stroke-linecap:round;stroke-linejoin:miter;stroke-miterlimit:4;stroke-dasharray:none;stroke-opacity:0.952703;paint-order:normal"
         d="m 386.01096,514.5224 c -1.10799,0 -2.0004,0.89238 -2.0004,2.00038 v 6.99959 h 15.00012 v -6.99959 c 0,-1.108 -0.89188,-2.00038 -1.99988,-2.00038 z"
         id="path3334"
         inkscape:connector-curvature="0"
         sodipodi:nodetypes="sccccss" />
      <path
         sodipodi:nodetypes="sccccss"
         inkscape:connector-curvature="0"
         id="path3338"
         d="m 348.96924,527.22239 c -1.10799,0 -2.0004,0.89238 -2.0004,2.00038 v 6.99959 h 15.00012 v -6.99959 c 0,-1.108 -0.89188,-2.00038 -1.99988,-2.00038 z"
         style="opacity:1;fill:none;fill-opacity:1;stroke:#000000;stroke-width:0.5;stroke-linecap:round;stroke-linejoin:miter;stroke-miterlimit:4;stroke-dasharray:none;stroke-opacity:0.952703;paint-order:normal" />
      <path
         style="opacity:1;fill:none;fill-opacity:1;stroke:#000000;stroke-width:0.5;stroke-linecap:round;stroke-linejoin:miter;stroke-miterlimit:4;stroke-dasharray:none;stroke-opacity:0.952703;paint-order:normal"
         d="m 367.4901,527.22239 c -1.10799,0 -2.0004,0.89238 -2.0004,2.00038 v 6.99959 h 15.00012 v -6.99959 c 0,-1.108 -0.89188,-2.00038 -1.99988,-2.00038 z"
         id="path3340"
         inkscape:connector-curvature="0"
         sodipodi:nodetypes="sccccss" />
      <path
         sodipodi:nodetypes="sccccss"
         inkscape:connector-curvature="0"
         id="path3342"
         d="m 386.01096,527.22239 c -1.10799,0 -2.0004,0.89238 -2.0004,2.00038 v 6.99959 h 15.00012 v -6.99959 c 0,-1.108 -0.89188,-2.00038 -1.99988,-2.00038 z"
         style="opacity:1;fill:none;fill-opacity:1;stroke:#000000;stroke-width:0.5;stroke-linecap:round;stroke-linejoin:miter;stroke-miterlimit:4;stroke-dasharray:none;stroke-opacity:0.952703;paint-order:normal" />
      <path
         style="opacity:1;fill:none;fill-opacity:1;stroke:#000000;stroke-width:0.5;stroke-linecap:round;stroke-linejoin:miter;stroke-miterlimit:4;stroke-dasharray:none;stroke-opacity:0.952703;paint-order:normal"
         d="m 348.96924,539.39324 c -1.10799,0 -2.0004,0.89238 -2.0004,2.00038 v 6.99959 h 15.00012 v -6.99959 c 0,-1.108 -0.89188,-2.00038 -1.99988,-2.00038 z"
         id="path3346"
         inkscape:connector-curvature="0"
         sodipodi:nodetypes="sccccss" />
      <path
         sodipodi:nodetypes="sccccss"
         inkscape:connector-curvature="0"
         id="path3348"
         d="m 367.4901,539.39324 c -1.10799,0 -2.0004,0.89238 -2.0004,2.00038 v 6.99959 h 15.00012 v -6.99959 c 0,-1.108 -0.89188,-2.00038 -1.99988,-2.00038 z"
         style="opacity:1;fill:none;fill-opacity:1;stroke:#000000;stroke-width:0.5;stroke-linecap:round;stroke-linejoin:miter;stroke-miterlimit:4;stroke-dasharray:none;stroke-opacity:0.952703;paint-order:normal" />
      <path
         style="opacity:1;fill:none;fill-opacity:1;stroke:#000000;stroke-width:0.5;stroke-linecap:round;stroke-linejoin:miter;stroke-miterlimit:4;stroke-dasharray:none;stroke-opacity:0.952703;paint-order:normal"
         d="m 386.01096,539.39324 c -1.10799,0 -2.0004,0.89238 -2.0004,2.00038 v 6.99959 h 15.00012 v -6.99959 c 0,-1.108 -0.89188,-2.00038 -1.99988,-2.00038 z"
         id="path3350"
         inkscape:connector-curvature="0"
         sodipodi:nodetypes="sccccss" />
    </g>
  </g>
</svg>
