M48
METRIC,TZ
T1C0.300
T2C0.600
T3C1.000
T4C0.650
T5C1.152
%
G90
G05
T1
X-11.8Y24.2
X-10.4Y20.8
X-10.4Y8.6
X-10.3Y16.7
X-9.475Y17.3
X-9.425Y10.375
X-8.8Y12.9
X-8.5Y29.
X-8.5Y27.5
X-8.5Y26.
X-7.805Y9.89
X-7.425Y10.595
X-7.26Y17.8
X-7.Y29.
X-7.Y27.5
X-7.Y26.
X-6.1Y9.7
X-5.5Y27.5
X-5.5Y26.
X-5.36Y19.28
X-4.8Y3.8
X-4.2Y19.
X-4.05Y7.3
X-4.Y27.5
X-4.Y26.
X-2.8Y18.3
X-2.6Y19.7
X-2.4Y3.8
X0.Y9.8
X2.Y9.
X2.204Y14.299
X3.25Y8.35
X4.Y27.5
X4.Y26.
X5.3Y17.6
X5.5Y27.5
X5.5Y26.
X6.1Y13.4
X6.223Y18.415
X7.Y29.
X7.Y27.5
X7.Y26.
X8.128Y20.32
X8.21Y19.061
X8.4Y12.1
X8.5Y29.
X8.5Y27.5
X8.5Y26.
X9.Y20.5
X11.811Y18.415
T3
X-11.43Y2.54
X-11.43Y0.
X-3.81Y2.54
X-1.27Y2.54
X1.27Y2.54
X3.81Y2.54
X-8.89Y0.
X-6.35Y0.
X-3.81Y0.
X-1.27Y0.
X1.27Y0.
X3.81Y0.
X6.35Y0.
X8.89Y0.
T4
X6.3Y14.49
X6.3Y8.71
T5
X-11.43Y31.75
X11.43Y0.
T2
X5.22Y15.92G85X6.32Y15.92
G05
X5.22Y7.28G85X6.32Y7.28
G05
X9.65Y15.92G85X10.25Y15.92
G05
X9.65Y7.28G85X10.25Y7.28
G05
T0
M30
