G04 #@! TF.GenerationSoftware,KiCad,Pcbnew,5.0.2+dfsg1-1*
G04 #@! TF.CreationDate,2020-10-18T15:33:24+02:00*
G04 #@! TF.ProjectId,edgedriver,65646765-6472-4697-9665-722e6b696361,rev?*
G04 #@! TF.SameCoordinates,Original*
G04 #@! TF.FileFunction,Legend,Bot*
G04 #@! TF.FilePolarity,Positive*
%FSLAX46Y46*%
G04 Gerber Fmt 4.6, Leading zero omitted, Abs format (unit mm)*
G04 Created by KiCad (PCBNEW 5.0.2+dfsg1-1) date Sun 18 Oct 2020 03:33:24 PM CEST*
%MOMM*%
%LPD*%
G01*
G04 APERTURE LIST*
%ADD10C,0.300000*%
%ADD11C,0.200000*%
G04 APERTURE END LIST*
D10*
X8198571Y11521428D02*
X8198571Y10450000D01*
X8269999Y10235714D01*
X8412857Y10092857D01*
X8627142Y10021428D01*
X8770000Y10021428D01*
X6769999Y10021428D02*
X7484285Y10021428D01*
X7484285Y11521428D01*
X5412857Y10164285D02*
X5484285Y10092857D01*
X5698571Y10021428D01*
X5841428Y10021428D01*
X6055714Y10092857D01*
X6198571Y10235714D01*
X6269999Y10378571D01*
X6341428Y10664285D01*
X6341428Y10878571D01*
X6269999Y11164285D01*
X6198571Y11307142D01*
X6055714Y11450000D01*
X5841428Y11521428D01*
X5698571Y11521428D01*
X5484285Y11450000D01*
X5412857Y11378571D01*
X4341428Y11521428D02*
X4341428Y10450000D01*
X4412857Y10235714D01*
X4555714Y10092857D01*
X4769999Y10021428D01*
X4912857Y10021428D01*
X2912857Y10021428D02*
X3627142Y10021428D01*
X3627142Y11521428D01*
X1555714Y10164285D02*
X1627142Y10092857D01*
X1841428Y10021428D01*
X1984285Y10021428D01*
X2198571Y10092857D01*
X2341428Y10235714D01*
X2412857Y10378571D01*
X2484285Y10664285D01*
X2484285Y10878571D01*
X2412857Y11164285D01*
X2341428Y11307142D01*
X2198571Y11450000D01*
X1984285Y11521428D01*
X1841428Y11521428D01*
X1627142Y11450000D01*
X1555714Y11378571D01*
X484285Y11521428D02*
X484285Y10450000D01*
X555714Y10235714D01*
X698571Y10092857D01*
X912857Y10021428D01*
X1055714Y10021428D01*
X-944285Y10021428D02*
X-230000Y10021428D01*
X-230000Y11521428D01*
X-2301428Y10164285D02*
X-2230000Y10092857D01*
X-2015714Y10021428D01*
X-1872857Y10021428D01*
X-1658571Y10092857D01*
X-1515714Y10235714D01*
X-1444285Y10378571D01*
X-1372857Y10664285D01*
X-1372857Y10878571D01*
X-1444285Y11164285D01*
X-1515714Y11307142D01*
X-1658571Y11450000D01*
X-1872857Y11521428D01*
X-2015714Y11521428D01*
X-2230000Y11450000D01*
X-2301428Y11378571D01*
X-3372857Y11521428D02*
X-3372857Y10450000D01*
X-3301428Y10235714D01*
X-3158571Y10092857D01*
X-2944285Y10021428D01*
X-2801428Y10021428D01*
X-4801428Y10021428D02*
X-4087142Y10021428D01*
X-4087142Y11521428D01*
X-6158571Y10164285D02*
X-6087142Y10092857D01*
X-5872857Y10021428D01*
X-5730000Y10021428D01*
X-5515714Y10092857D01*
X-5372857Y10235714D01*
X-5301428Y10378571D01*
X-5230000Y10664285D01*
X-5230000Y10878571D01*
X-5301428Y11164285D01*
X-5372857Y11307142D01*
X-5515714Y11450000D01*
X-5730000Y11521428D01*
X-5872857Y11521428D01*
X-6087142Y11450000D01*
X-6158571Y11378571D01*
D11*
G04 #@! TO.C,U1*
X-11700000Y24400000D02*
G75*
G03X-11700000Y24400000I-100000J0D01*
G01*
G04 #@! TD*
M02*
