M48
METRIC
T1C0.300
T2C0.600
T3C0.750
T4C1.000
T5C0.650
%
G90
G05
T1
X-16.4Y10.0
X-13.5Y11.5
X-10.0Y6.0
X-9.4Y-31.6
X-9.0Y11.5
X-8.9Y7.0
X-8.2Y5.0
X-7.8Y1.7
X-7.5Y-7.6
X-7.0Y-17.1
X-6.8Y7.0
X-6.8Y0.5
X-6.5Y5.0
X-6.2Y-9.3
X-5.2Y-7.5
X-4.8Y-31.1
X-4.5Y11.5
X-4.0Y-9.2
X-3.85Y-24.75
X-2.8Y-18.2
X-2.35Y-40.1
X-1.65Y-24.85
X-1.5Y-36.4
X-1.3Y-31.9
X-0.6Y-30.5
X0.0Y11.5
X0.4Y-15.5
X0.4Y-16.55
X0.6Y-35.2
X1.9Y-39.3
X2.0Y-15.9
X2.5Y-4.5
X2.5Y-6.0
X2.75Y-20.5
X2.8Y-17.4
X3.15Y-16.55
X3.25Y-14.9
X3.4Y-6.6
X4.4Y-4.6
X4.4Y-10.7
X4.5Y11.5
X4.5Y-6.0
X5.3Y0.2
X6.4Y1.2
X6.7Y-12.2
X6.75Y-5.25
X7.5Y-3.3
X7.5Y-6.0
X8.15Y-16.25
X9.0Y11.5
X13.5Y11.5
T3
X-4.98Y1.581
X-4.923Y-1.542
X-3.611Y3.733
X-3.554Y-3.694
X3.554Y-3.694
X3.611Y3.733
X4.923Y-1.542
X4.98Y1.581
T4
X-10.16Y-8.89
X-10.16Y-11.43
X-10.16Y-13.97
X-10.16Y-16.51
X-10.16Y-34.29
X-10.16Y-36.83
X-10.16Y-39.37
X-10.16Y-41.91
X10.16Y-8.89
X10.16Y-11.43
X10.16Y-13.97
X10.16Y-16.51
X10.16Y-21.59
X10.16Y-24.13
X10.16Y-26.67
X10.16Y-34.29
X10.16Y-36.83
X10.16Y-39.37
X10.16Y-41.91
T5
X-2.89Y-39.4
X2.89Y-39.4
T2
G00X-4.32Y-39.42
M15
G01X-4.32Y-38.32
M16
G05
G00X-4.32Y-43.35
M15
G01X-4.32Y-42.75
M16
G05
G00X4.32Y-39.42
M15
G01X4.32Y-38.32
M16
G05
G00X4.32Y-43.35
M15
G01X4.32Y-42.75
M16
G05
T0
M30
