G04 #@! TF.GenerationSoftware,KiCad,Pcbnew,5.1.9+dfsg1-1*
G04 #@! TF.CreationDate,2022-03-10T00:01:25+01:00*
G04 #@! TF.ProjectId,edgedriver,65646765-6472-4697-9665-722e6b696361,rev?*
G04 #@! TF.SameCoordinates,Original*
G04 #@! TF.FileFunction,Legend,Bot*
G04 #@! TF.FilePolarity,Positive*
%FSLAX46Y46*%
G04 Gerber Fmt 4.6, Leading zero omitted, Abs format (unit mm)*
G04 Created by KiCad (PCBNEW 5.1.9+dfsg1-1) date 2022-03-10 00:01:25*
%MOMM*%
%LPD*%
G01*
G04 APERTURE LIST*
%ADD10C,0.120000*%
%ADD11C,0.150000*%
G04 APERTURE END LIST*
D10*
X5060000Y-31000000D02*
X5060000Y-32950000D01*
X5060000Y-31000000D02*
X5060000Y-29050000D01*
X-5060000Y-31000000D02*
X-5060000Y-32950000D01*
X-5060000Y-31000000D02*
X-5060000Y-27550000D01*
X-7160000Y-31096267D02*
X-7160000Y-30803733D01*
X-6140000Y-31096267D02*
X-6140000Y-30803733D01*
X-7160000Y-34503733D02*
X-7160000Y-34796267D01*
X-6140000Y-34503733D02*
X-6140000Y-34796267D01*
X-7160000Y-27103733D02*
X-7160000Y-27396267D01*
X-6140000Y-27103733D02*
X-6140000Y-27396267D01*
X2503733Y-25540000D02*
X2796267Y-25540000D01*
X2503733Y-26560000D02*
X2796267Y-26560000D01*
X4390000Y-22703733D02*
X4390000Y-22996267D01*
X5410000Y-22703733D02*
X5410000Y-22996267D01*
X7460000Y-16396267D02*
X7460000Y-16103733D01*
X6440000Y-16396267D02*
X6440000Y-16103733D01*
X-4403733Y-21810000D02*
X-4696267Y-21810000D01*
X-4403733Y-20790000D02*
X-4696267Y-20790000D01*
X-4403733Y-14690000D02*
X-4696267Y-14690000D01*
X-4403733Y-15710000D02*
X-4696267Y-15710000D01*
X4700000Y-44000000D02*
X4700000Y-45900000D01*
X4700000Y-40100000D02*
X4700000Y-42100000D01*
X-4700000Y-44000000D02*
X-4700000Y-45900000D01*
X-4700000Y-40100000D02*
X-4700000Y-42100000D01*
X4700000Y-45900000D02*
X-4700000Y-45900000D01*
X6977500Y-40745276D02*
X6977500Y-41254724D01*
X8022500Y-40745276D02*
X8022500Y-41254724D01*
X-6977500Y-40745276D02*
X-6977500Y-41254724D01*
X-8022500Y-40745276D02*
X-8022500Y-41254724D01*
X-2045276Y-23277500D02*
X-2554724Y-23277500D01*
X-2045276Y-24322500D02*
X-2554724Y-24322500D01*
X1695276Y-12172500D02*
X2204724Y-12172500D01*
X1695276Y-11127500D02*
X2204724Y-11127500D01*
X1695276Y-9527500D02*
X2204724Y-9527500D01*
X1695276Y-10572500D02*
X2204724Y-10572500D01*
X1800000Y-12815000D02*
X4000000Y-12815000D01*
X1800000Y-12815000D02*
X-400000Y-12815000D01*
X1800000Y-19585000D02*
X4000000Y-19585000D01*
X1800000Y-19585000D02*
X-1800000Y-19585000D01*
X3410000Y-22000000D02*
X3410000Y-24450000D01*
X190000Y-23800000D02*
X190000Y-22000000D01*
X-8830000Y-17840000D02*
X-11490000Y-17840000D01*
X-8830000Y-10160000D02*
X-8830000Y-17840000D01*
X-11490000Y-10160000D02*
X-11490000Y-17840000D01*
X-8830000Y-10160000D02*
X-11490000Y-10160000D01*
X-8830000Y-8890000D02*
X-8830000Y-7560000D01*
X-8830000Y-7560000D02*
X-10160000Y-7560000D01*
X11490000Y-17840000D02*
X8830000Y-17840000D01*
X11490000Y-10160000D02*
X11490000Y-17840000D01*
X8830000Y-10160000D02*
X8830000Y-17840000D01*
X11490000Y-10160000D02*
X8830000Y-10160000D01*
X11490000Y-8890000D02*
X11490000Y-7560000D01*
X11490000Y-7560000D02*
X10160000Y-7560000D01*
X8830000Y-43240000D02*
X10160000Y-43240000D01*
X8830000Y-41910000D02*
X8830000Y-43240000D01*
X8830000Y-40640000D02*
X11490000Y-40640000D01*
X11490000Y-40640000D02*
X11490000Y-32960000D01*
X8830000Y-40640000D02*
X8830000Y-32960000D01*
X8830000Y-32960000D02*
X11490000Y-32960000D01*
X-11490000Y-43240000D02*
X-10160000Y-43240000D01*
X-11490000Y-41910000D02*
X-11490000Y-43240000D01*
X-11490000Y-40640000D02*
X-8830000Y-40640000D01*
X-8830000Y-40640000D02*
X-8830000Y-32960000D01*
X-11490000Y-40640000D02*
X-11490000Y-32960000D01*
X-11490000Y-32960000D02*
X-8830000Y-32960000D01*
D11*
X-4347619Y-30338095D02*
X-3538095Y-30338095D01*
X-3442857Y-30385714D01*
X-3395238Y-30433333D01*
X-3347619Y-30528571D01*
X-3347619Y-30719047D01*
X-3395238Y-30814285D01*
X-3442857Y-30861904D01*
X-3538095Y-30909523D01*
X-4347619Y-30909523D01*
X-3347619Y-31909523D02*
X-3347619Y-31338095D01*
X-3347619Y-31623809D02*
X-4347619Y-31623809D01*
X-4204761Y-31528571D01*
X-4109523Y-31433333D01*
X-4061904Y-31338095D01*
X-7742857Y-30783333D02*
X-7695238Y-30735714D01*
X-7647619Y-30592857D01*
X-7647619Y-30497619D01*
X-7695238Y-30354761D01*
X-7790476Y-30259523D01*
X-7885714Y-30211904D01*
X-8076190Y-30164285D01*
X-8219047Y-30164285D01*
X-8409523Y-30211904D01*
X-8504761Y-30259523D01*
X-8600000Y-30354761D01*
X-8647619Y-30497619D01*
X-8647619Y-30592857D01*
X-8600000Y-30735714D01*
X-8552380Y-30783333D01*
X-7647619Y-31735714D02*
X-7647619Y-31164285D01*
X-7647619Y-31450000D02*
X-8647619Y-31450000D01*
X-8504761Y-31354761D01*
X-8409523Y-31259523D01*
X-8361904Y-31164285D01*
X-7722857Y-34483333D02*
X-7675238Y-34435714D01*
X-7627619Y-34292857D01*
X-7627619Y-34197619D01*
X-7675238Y-34054761D01*
X-7770476Y-33959523D01*
X-7865714Y-33911904D01*
X-8056190Y-33864285D01*
X-8199047Y-33864285D01*
X-8389523Y-33911904D01*
X-8484761Y-33959523D01*
X-8580000Y-34054761D01*
X-8627619Y-34197619D01*
X-8627619Y-34292857D01*
X-8580000Y-34435714D01*
X-8532380Y-34483333D01*
X-8627619Y-34816666D02*
X-8627619Y-35435714D01*
X-8246666Y-35102380D01*
X-8246666Y-35245238D01*
X-8199047Y-35340476D01*
X-8151428Y-35388095D01*
X-8056190Y-35435714D01*
X-7818095Y-35435714D01*
X-7722857Y-35388095D01*
X-7675238Y-35340476D01*
X-7627619Y-35245238D01*
X-7627619Y-34959523D01*
X-7675238Y-34864285D01*
X-7722857Y-34816666D01*
X-7722857Y-27083333D02*
X-7675238Y-27035714D01*
X-7627619Y-26892857D01*
X-7627619Y-26797619D01*
X-7675238Y-26654761D01*
X-7770476Y-26559523D01*
X-7865714Y-26511904D01*
X-8056190Y-26464285D01*
X-8199047Y-26464285D01*
X-8389523Y-26511904D01*
X-8484761Y-26559523D01*
X-8580000Y-26654761D01*
X-8627619Y-26797619D01*
X-8627619Y-26892857D01*
X-8580000Y-27035714D01*
X-8532380Y-27083333D01*
X-8294285Y-27940476D02*
X-7627619Y-27940476D01*
X-8675238Y-27702380D02*
X-7960952Y-27464285D01*
X-7960952Y-28083333D01*
X5466666Y-26457142D02*
X5514285Y-26504761D01*
X5657142Y-26552380D01*
X5752380Y-26552380D01*
X5895238Y-26504761D01*
X5990476Y-26409523D01*
X6038095Y-26314285D01*
X6085714Y-26123809D01*
X6085714Y-25980952D01*
X6038095Y-25790476D01*
X5990476Y-25695238D01*
X5895238Y-25600000D01*
X5752380Y-25552380D01*
X5657142Y-25552380D01*
X5514285Y-25600000D01*
X5466666Y-25647619D01*
X4895238Y-25980952D02*
X4990476Y-25933333D01*
X5038095Y-25885714D01*
X5085714Y-25790476D01*
X5085714Y-25742857D01*
X5038095Y-25647619D01*
X4990476Y-25600000D01*
X4895238Y-25552380D01*
X4704761Y-25552380D01*
X4609523Y-25600000D01*
X4561904Y-25647619D01*
X4514285Y-25742857D01*
X4514285Y-25790476D01*
X4561904Y-25885714D01*
X4609523Y-25933333D01*
X4704761Y-25980952D01*
X4895238Y-25980952D01*
X4990476Y-26028571D01*
X5038095Y-26076190D01*
X5085714Y-26171428D01*
X5085714Y-26361904D01*
X5038095Y-26457142D01*
X4990476Y-26504761D01*
X4895238Y-26552380D01*
X4704761Y-26552380D01*
X4609523Y-26504761D01*
X4561904Y-26457142D01*
X4514285Y-26361904D01*
X4514285Y-26171428D01*
X4561904Y-26076190D01*
X4609523Y-26028571D01*
X4704761Y-25980952D01*
X6757142Y-22683333D02*
X6804761Y-22635714D01*
X6852380Y-22492857D01*
X6852380Y-22397619D01*
X6804761Y-22254761D01*
X6709523Y-22159523D01*
X6614285Y-22111904D01*
X6423809Y-22064285D01*
X6280952Y-22064285D01*
X6090476Y-22111904D01*
X5995238Y-22159523D01*
X5900000Y-22254761D01*
X5852380Y-22397619D01*
X5852380Y-22492857D01*
X5900000Y-22635714D01*
X5947619Y-22683333D01*
X6852380Y-23159523D02*
X6852380Y-23350000D01*
X6804761Y-23445238D01*
X6757142Y-23492857D01*
X6614285Y-23588095D01*
X6423809Y-23635714D01*
X6042857Y-23635714D01*
X5947619Y-23588095D01*
X5900000Y-23540476D01*
X5852380Y-23445238D01*
X5852380Y-23254761D01*
X5900000Y-23159523D01*
X5947619Y-23111904D01*
X6042857Y-23064285D01*
X6280952Y-23064285D01*
X6376190Y-23111904D01*
X6423809Y-23159523D01*
X6471428Y-23254761D01*
X6471428Y-23445238D01*
X6423809Y-23540476D01*
X6376190Y-23588095D01*
X6280952Y-23635714D01*
X8737142Y-15607142D02*
X8784761Y-15559523D01*
X8832380Y-15416666D01*
X8832380Y-15321428D01*
X8784761Y-15178571D01*
X8689523Y-15083333D01*
X8594285Y-15035714D01*
X8403809Y-14988095D01*
X8260952Y-14988095D01*
X8070476Y-15035714D01*
X7975238Y-15083333D01*
X7880000Y-15178571D01*
X7832380Y-15321428D01*
X7832380Y-15416666D01*
X7880000Y-15559523D01*
X7927619Y-15607142D01*
X8832380Y-16559523D02*
X8832380Y-15988095D01*
X8832380Y-16273809D02*
X7832380Y-16273809D01*
X7975238Y-16178571D01*
X8070476Y-16083333D01*
X8118095Y-15988095D01*
X7832380Y-17178571D02*
X7832380Y-17273809D01*
X7880000Y-17369047D01*
X7927619Y-17416666D01*
X8022857Y-17464285D01*
X8213333Y-17511904D01*
X8451428Y-17511904D01*
X8641904Y-17464285D01*
X8737142Y-17416666D01*
X8784761Y-17369047D01*
X8832380Y-17273809D01*
X8832380Y-17178571D01*
X8784761Y-17083333D01*
X8737142Y-17035714D01*
X8641904Y-16988095D01*
X8451428Y-16940476D01*
X8213333Y-16940476D01*
X8022857Y-16988095D01*
X7927619Y-17035714D01*
X7880000Y-17083333D01*
X7832380Y-17178571D01*
X-7157142Y-21657142D02*
X-7109523Y-21704761D01*
X-6966666Y-21752380D01*
X-6871428Y-21752380D01*
X-6728571Y-21704761D01*
X-6633333Y-21609523D01*
X-6585714Y-21514285D01*
X-6538095Y-21323809D01*
X-6538095Y-21180952D01*
X-6585714Y-20990476D01*
X-6633333Y-20895238D01*
X-6728571Y-20800000D01*
X-6871428Y-20752380D01*
X-6966666Y-20752380D01*
X-7109523Y-20800000D01*
X-7157142Y-20847619D01*
X-8109523Y-21752380D02*
X-7538095Y-21752380D01*
X-7823809Y-21752380D02*
X-7823809Y-20752380D01*
X-7728571Y-20895238D01*
X-7633333Y-20990476D01*
X-7538095Y-21038095D01*
X-9061904Y-21752380D02*
X-8490476Y-21752380D01*
X-8776190Y-21752380D02*
X-8776190Y-20752380D01*
X-8680952Y-20895238D01*
X-8585714Y-20990476D01*
X-8490476Y-21038095D01*
X-3907142Y-14127142D02*
X-3859523Y-14174761D01*
X-3716666Y-14222380D01*
X-3621428Y-14222380D01*
X-3478571Y-14174761D01*
X-3383333Y-14079523D01*
X-3335714Y-13984285D01*
X-3288095Y-13793809D01*
X-3288095Y-13650952D01*
X-3335714Y-13460476D01*
X-3383333Y-13365238D01*
X-3478571Y-13270000D01*
X-3621428Y-13222380D01*
X-3716666Y-13222380D01*
X-3859523Y-13270000D01*
X-3907142Y-13317619D01*
X-4859523Y-14222380D02*
X-4288095Y-14222380D01*
X-4573809Y-14222380D02*
X-4573809Y-13222380D01*
X-4478571Y-13365238D01*
X-4383333Y-13460476D01*
X-4288095Y-13508095D01*
X-5240476Y-13317619D02*
X-5288095Y-13270000D01*
X-5383333Y-13222380D01*
X-5621428Y-13222380D01*
X-5716666Y-13270000D01*
X-5764285Y-13317619D01*
X-5811904Y-13412857D01*
X-5811904Y-13508095D01*
X-5764285Y-13650952D01*
X-5192857Y-14222380D01*
X-5811904Y-14222380D01*
X333333Y-35807380D02*
X333333Y-36521666D01*
X380952Y-36664523D01*
X476190Y-36759761D01*
X619047Y-36807380D01*
X714285Y-36807380D01*
X-666666Y-36807380D02*
X-95238Y-36807380D01*
X-380952Y-36807380D02*
X-380952Y-35807380D01*
X-285714Y-35950238D01*
X-190476Y-36045476D01*
X-95238Y-36093095D01*
X6522380Y-40833333D02*
X6046190Y-40500000D01*
X6522380Y-40261904D02*
X5522380Y-40261904D01*
X5522380Y-40642857D01*
X5570000Y-40738095D01*
X5617619Y-40785714D01*
X5712857Y-40833333D01*
X5855714Y-40833333D01*
X5950952Y-40785714D01*
X5998571Y-40738095D01*
X6046190Y-40642857D01*
X6046190Y-40261904D01*
X5617619Y-41214285D02*
X5570000Y-41261904D01*
X5522380Y-41357142D01*
X5522380Y-41595238D01*
X5570000Y-41690476D01*
X5617619Y-41738095D01*
X5712857Y-41785714D01*
X5808095Y-41785714D01*
X5950952Y-41738095D01*
X6522380Y-41166666D01*
X6522380Y-41785714D01*
X-8477619Y-40833333D02*
X-8953809Y-40500000D01*
X-8477619Y-40261904D02*
X-9477619Y-40261904D01*
X-9477619Y-40642857D01*
X-9430000Y-40738095D01*
X-9382380Y-40785714D01*
X-9287142Y-40833333D01*
X-9144285Y-40833333D01*
X-9049047Y-40785714D01*
X-9001428Y-40738095D01*
X-8953809Y-40642857D01*
X-8953809Y-40261904D01*
X-9477619Y-41166666D02*
X-9477619Y-41785714D01*
X-9096666Y-41452380D01*
X-9096666Y-41595238D01*
X-9049047Y-41690476D01*
X-9001428Y-41738095D01*
X-8906190Y-41785714D01*
X-8668095Y-41785714D01*
X-8572857Y-41738095D01*
X-8525238Y-41690476D01*
X-8477619Y-41595238D01*
X-8477619Y-41309523D01*
X-8525238Y-41214285D01*
X-8572857Y-41166666D01*
X-2133333Y-22822380D02*
X-1800000Y-22346190D01*
X-1561904Y-22822380D02*
X-1561904Y-21822380D01*
X-1942857Y-21822380D01*
X-2038095Y-21870000D01*
X-2085714Y-21917619D01*
X-2133333Y-22012857D01*
X-2133333Y-22155714D01*
X-2085714Y-22250952D01*
X-2038095Y-22298571D01*
X-1942857Y-22346190D01*
X-1561904Y-22346190D01*
X-3038095Y-21822380D02*
X-2561904Y-21822380D01*
X-2514285Y-22298571D01*
X-2561904Y-22250952D01*
X-2657142Y-22203333D01*
X-2895238Y-22203333D01*
X-2990476Y-22250952D01*
X-3038095Y-22298571D01*
X-3085714Y-22393809D01*
X-3085714Y-22631904D01*
X-3038095Y-22727142D01*
X-2990476Y-22774761D01*
X-2895238Y-22822380D01*
X-2657142Y-22822380D01*
X-2561904Y-22774761D01*
X-2514285Y-22727142D01*
X-833333Y-12152380D02*
X-500000Y-11676190D01*
X-261904Y-12152380D02*
X-261904Y-11152380D01*
X-642857Y-11152380D01*
X-738095Y-11200000D01*
X-785714Y-11247619D01*
X-833333Y-11342857D01*
X-833333Y-11485714D01*
X-785714Y-11580952D01*
X-738095Y-11628571D01*
X-642857Y-11676190D01*
X-261904Y-11676190D01*
X-1166666Y-11152380D02*
X-1833333Y-11152380D01*
X-1404761Y-12152380D01*
X-833333Y-10552380D02*
X-500000Y-10076190D01*
X-261904Y-10552380D02*
X-261904Y-9552380D01*
X-642857Y-9552380D01*
X-738095Y-9600000D01*
X-785714Y-9647619D01*
X-833333Y-9742857D01*
X-833333Y-9885714D01*
X-785714Y-9980952D01*
X-738095Y-10028571D01*
X-642857Y-10076190D01*
X-261904Y-10076190D01*
X-1404761Y-9980952D02*
X-1309523Y-9933333D01*
X-1261904Y-9885714D01*
X-1214285Y-9790476D01*
X-1214285Y-9742857D01*
X-1261904Y-9647619D01*
X-1309523Y-9600000D01*
X-1404761Y-9552380D01*
X-1595238Y-9552380D01*
X-1690476Y-9600000D01*
X-1738095Y-9647619D01*
X-1785714Y-9742857D01*
X-1785714Y-9790476D01*
X-1738095Y-9885714D01*
X-1690476Y-9933333D01*
X-1595238Y-9980952D01*
X-1404761Y-9980952D01*
X-1309523Y-10028571D01*
X-1261904Y-10076190D01*
X-1214285Y-10171428D01*
X-1214285Y-10361904D01*
X-1261904Y-10457142D01*
X-1309523Y-10504761D01*
X-1404761Y-10552380D01*
X-1595238Y-10552380D01*
X-1690476Y-10504761D01*
X-1738095Y-10457142D01*
X-1785714Y-10361904D01*
X-1785714Y-10171428D01*
X-1738095Y-10076190D01*
X-1690476Y-10028571D01*
X-1595238Y-9980952D01*
X2461904Y-18152380D02*
X2461904Y-18961904D01*
X2414285Y-19057142D01*
X2366666Y-19104761D01*
X2271428Y-19152380D01*
X2080952Y-19152380D01*
X1985714Y-19104761D01*
X1938095Y-19057142D01*
X1890476Y-18961904D01*
X1890476Y-18152380D01*
X1509523Y-18152380D02*
X890476Y-18152380D01*
X1223809Y-18533333D01*
X1080952Y-18533333D01*
X985714Y-18580952D01*
X938095Y-18628571D01*
X890476Y-18723809D01*
X890476Y-18961904D01*
X938095Y-19057142D01*
X985714Y-19104761D01*
X1080952Y-19152380D01*
X1366666Y-19152380D01*
X1461904Y-19104761D01*
X1509523Y-19057142D01*
X-763809Y-17723809D02*
X-287619Y-17723809D01*
X-1287619Y-17390476D02*
X-763809Y-17723809D01*
X-1287619Y-18057142D01*
X-287619Y-18914285D02*
X-287619Y-18342857D01*
X-287619Y-18628571D02*
X-1287619Y-18628571D01*
X-1144761Y-18533333D01*
X-1049523Y-18438095D01*
X-1001904Y-18342857D01*
X2461904Y-19752380D02*
X2461904Y-20561904D01*
X2414285Y-20657142D01*
X2366666Y-20704761D01*
X2271428Y-20752380D01*
X2080952Y-20752380D01*
X1985714Y-20704761D01*
X1938095Y-20657142D01*
X1890476Y-20561904D01*
X1890476Y-19752380D01*
X1461904Y-19847619D02*
X1414285Y-19800000D01*
X1319047Y-19752380D01*
X1080952Y-19752380D01*
X985714Y-19800000D01*
X938095Y-19847619D01*
X890476Y-19942857D01*
X890476Y-20038095D01*
X938095Y-20180952D01*
X1509523Y-20752380D01*
X890476Y-20752380D01*
X-9826666Y-6012380D02*
X-9826666Y-6726666D01*
X-9779047Y-6869523D01*
X-9683809Y-6964761D01*
X-9540952Y-7012380D01*
X-9445714Y-7012380D01*
X-10731428Y-6345714D02*
X-10731428Y-7012380D01*
X-10493333Y-5964761D02*
X-10255238Y-6679047D01*
X-10874285Y-6679047D01*
X10493333Y-6012380D02*
X10493333Y-6726666D01*
X10540952Y-6869523D01*
X10636190Y-6964761D01*
X10779047Y-7012380D01*
X10874285Y-7012380D01*
X9540952Y-6012380D02*
X10017142Y-6012380D01*
X10064761Y-6488571D01*
X10017142Y-6440952D01*
X9921904Y-6393333D01*
X9683809Y-6393333D01*
X9588571Y-6440952D01*
X9540952Y-6488571D01*
X9493333Y-6583809D01*
X9493333Y-6821904D01*
X9540952Y-6917142D01*
X9588571Y-6964761D01*
X9683809Y-7012380D01*
X9921904Y-7012380D01*
X10017142Y-6964761D01*
X10064761Y-6917142D01*
X10493333Y-43692380D02*
X10493333Y-44406666D01*
X10540952Y-44549523D01*
X10636190Y-44644761D01*
X10779047Y-44692380D01*
X10874285Y-44692380D01*
X9588571Y-43692380D02*
X9779047Y-43692380D01*
X9874285Y-43740000D01*
X9921904Y-43787619D01*
X10017142Y-43930476D01*
X10064761Y-44120952D01*
X10064761Y-44501904D01*
X10017142Y-44597142D01*
X9969523Y-44644761D01*
X9874285Y-44692380D01*
X9683809Y-44692380D01*
X9588571Y-44644761D01*
X9540952Y-44597142D01*
X9493333Y-44501904D01*
X9493333Y-44263809D01*
X9540952Y-44168571D01*
X9588571Y-44120952D01*
X9683809Y-44073333D01*
X9874285Y-44073333D01*
X9969523Y-44120952D01*
X10017142Y-44168571D01*
X10064761Y-44263809D01*
X-9826666Y-43692380D02*
X-9826666Y-44406666D01*
X-9779047Y-44549523D01*
X-9683809Y-44644761D01*
X-9540952Y-44692380D01*
X-9445714Y-44692380D01*
X-10207619Y-43692380D02*
X-10874285Y-43692380D01*
X-10445714Y-44692380D01*
M02*
