G04 #@! TF.GenerationSoftware,KiCad,Pcbnew,5.1.9+dfsg1-1*
G04 #@! TF.CreationDate,2022-03-10T00:01:25+01:00*
G04 #@! TF.ProjectId,edgedriver,65646765-6472-4697-9665-722e6b696361,rev?*
G04 #@! TF.SameCoordinates,Original*
G04 #@! TF.FileFunction,Legend,Top*
G04 #@! TF.FilePolarity,Positive*
%FSLAX46Y46*%
G04 Gerber Fmt 4.6, Leading zero omitted, Abs format (unit mm)*
G04 Created by KiCad (PCBNEW 5.1.9+dfsg1-1) date 2022-03-10 00:01:25*
%MOMM*%
%LPD*%
G01*
G04 APERTURE LIST*
%ADD10C,0.150000*%
%ADD11C,0.120000*%
G04 APERTURE END LIST*
D10*
X5721071Y-26348571D02*
X5721071Y-27562857D01*
X5649642Y-27705714D01*
X5578214Y-27777142D01*
X5435357Y-27848571D01*
X5221071Y-27848571D01*
X5078214Y-27777142D01*
X5721071Y-27277142D02*
X5578214Y-27348571D01*
X5292500Y-27348571D01*
X5149642Y-27277142D01*
X5078214Y-27205714D01*
X5006785Y-27062857D01*
X5006785Y-26634285D01*
X5078214Y-26491428D01*
X5149642Y-26420000D01*
X5292500Y-26348571D01*
X5578214Y-26348571D01*
X5721071Y-26420000D01*
X6435357Y-26348571D02*
X6435357Y-27348571D01*
X6435357Y-26491428D02*
X6506785Y-26420000D01*
X6649642Y-26348571D01*
X6863928Y-26348571D01*
X7006785Y-26420000D01*
X7078214Y-26562857D01*
X7078214Y-27348571D01*
X8435357Y-27348571D02*
X8435357Y-25848571D01*
X8435357Y-27277142D02*
X8292500Y-27348571D01*
X8006785Y-27348571D01*
X7863928Y-27277142D01*
X7792500Y-27205714D01*
X7721071Y-27062857D01*
X7721071Y-26634285D01*
X7792500Y-26491428D01*
X7863928Y-26420000D01*
X8006785Y-26348571D01*
X8292500Y-26348571D01*
X8435357Y-26420000D01*
X1649642Y-24737142D02*
X1792500Y-24808571D01*
X2078214Y-24808571D01*
X2221071Y-24737142D01*
X2292500Y-24594285D01*
X2292500Y-24522857D01*
X2221071Y-24380000D01*
X2078214Y-24308571D01*
X1863928Y-24308571D01*
X1721071Y-24237142D01*
X1649642Y-24094285D01*
X1649642Y-24022857D01*
X1721071Y-23880000D01*
X1863928Y-23808571D01*
X2078214Y-23808571D01*
X2221071Y-23880000D01*
X2792500Y-23808571D02*
X3078214Y-24808571D01*
X3363928Y-24094285D01*
X3649642Y-24808571D01*
X3935357Y-23808571D01*
X5149642Y-24808571D02*
X5149642Y-23308571D01*
X5149642Y-24737142D02*
X5006785Y-24808571D01*
X4721071Y-24808571D01*
X4578214Y-24737142D01*
X4506785Y-24665714D01*
X4435357Y-24522857D01*
X4435357Y-24094285D01*
X4506785Y-23951428D01*
X4578214Y-23880000D01*
X4721071Y-23808571D01*
X5006785Y-23808571D01*
X5149642Y-23880000D01*
X6506785Y-24737142D02*
X6363928Y-24808571D01*
X6078214Y-24808571D01*
X5935357Y-24737142D01*
X5863928Y-24665714D01*
X5792500Y-24522857D01*
X5792500Y-24094285D01*
X5863928Y-23951428D01*
X5935357Y-23880000D01*
X6078214Y-23808571D01*
X6363928Y-23808571D01*
X6506785Y-23880000D01*
X7363928Y-24808571D02*
X7221071Y-24737142D01*
X7149642Y-24594285D01*
X7149642Y-23308571D01*
X7935357Y-24808571D02*
X7935357Y-23308571D01*
X8078214Y-24237142D02*
X8506785Y-24808571D01*
X8506785Y-23808571D02*
X7935357Y-24380000D01*
X2863928Y-22147142D02*
X3006785Y-22218571D01*
X3292500Y-22218571D01*
X3435357Y-22147142D01*
X3506785Y-22004285D01*
X3506785Y-21932857D01*
X3435357Y-21790000D01*
X3292500Y-21718571D01*
X3078214Y-21718571D01*
X2935357Y-21647142D01*
X2863928Y-21504285D01*
X2863928Y-21432857D01*
X2935357Y-21290000D01*
X3078214Y-21218571D01*
X3292500Y-21218571D01*
X3435357Y-21290000D01*
X4006785Y-21218571D02*
X4292500Y-22218571D01*
X4578214Y-21504285D01*
X4863928Y-22218571D01*
X5149642Y-21218571D01*
X6363928Y-22218571D02*
X6363928Y-20718571D01*
X6363928Y-22147142D02*
X6221071Y-22218571D01*
X5935357Y-22218571D01*
X5792500Y-22147142D01*
X5721071Y-22075714D01*
X5649642Y-21932857D01*
X5649642Y-21504285D01*
X5721071Y-21361428D01*
X5792500Y-21290000D01*
X5935357Y-21218571D01*
X6221071Y-21218571D01*
X6363928Y-21290000D01*
X7078214Y-22218571D02*
X7078214Y-21218571D01*
X7078214Y-20718571D02*
X7006785Y-20790000D01*
X7078214Y-20861428D01*
X7149642Y-20790000D01*
X7078214Y-20718571D01*
X7078214Y-20861428D01*
X8006785Y-22218571D02*
X7863928Y-22147142D01*
X7792500Y-22075714D01*
X7721071Y-21932857D01*
X7721071Y-21504285D01*
X7792500Y-21361428D01*
X7863928Y-21290000D01*
X8006785Y-21218571D01*
X8221071Y-21218571D01*
X8363928Y-21290000D01*
X8435357Y-21361428D01*
X8506785Y-21504285D01*
X8506785Y-21932857D01*
X8435357Y-22075714D01*
X8363928Y-22147142D01*
X8221071Y-22218571D01*
X8006785Y-22218571D01*
D11*
X11490000Y-28000000D02*
X10160000Y-28000000D01*
X11490000Y-26670000D02*
X11490000Y-28000000D01*
X11490000Y-25400000D02*
X8830000Y-25400000D01*
X8830000Y-25400000D02*
X8830000Y-20260000D01*
X11490000Y-25400000D02*
X11490000Y-20260000D01*
X11490000Y-20260000D02*
X8830000Y-20260000D01*
X-2245276Y12022500D02*
X-2754724Y12022500D01*
X-2245276Y10977500D02*
X-2754724Y10977500D01*
X-850000Y12750000D02*
X-850000Y13900000D01*
X-8150000Y12750000D02*
X-850000Y12750000D01*
X-8150000Y18250000D02*
X-850000Y18250000D01*
X-15353733Y10990000D02*
X-15646267Y10990000D01*
X-15353733Y12010000D02*
X-15646267Y12010000D01*
X11646267Y12010000D02*
X11353733Y12010000D01*
X11646267Y10990000D02*
X11353733Y10990000D01*
X-6353733Y10990000D02*
X-6646267Y10990000D01*
X-6353733Y12010000D02*
X-6646267Y12010000D01*
X2646267Y12010000D02*
X2353733Y12010000D01*
X2646267Y10990000D02*
X2353733Y10990000D01*
X-17150000Y18250000D02*
X-9850000Y18250000D01*
X-17150000Y12750000D02*
X-9850000Y12750000D01*
X-9850000Y12750000D02*
X-9850000Y13900000D01*
X850000Y18250000D02*
X8150000Y18250000D01*
X850000Y12750000D02*
X8150000Y12750000D01*
X8150000Y12750000D02*
X8150000Y13900000D01*
X17150000Y12750000D02*
X17150000Y13900000D01*
X9850000Y12750000D02*
X17150000Y12750000D01*
X9850000Y18250000D02*
X17150000Y18250000D01*
X-11245276Y10977500D02*
X-11754724Y10977500D01*
X-11245276Y12022500D02*
X-11754724Y12022500D01*
X6754724Y10977500D02*
X6245276Y10977500D01*
X6754724Y12022500D02*
X6245276Y12022500D01*
X15754724Y12022500D02*
X15245276Y12022500D01*
X15754724Y10977500D02*
X15245276Y10977500D01*
D10*
X9826666Y-28452380D02*
X9826666Y-29166666D01*
X9779047Y-29309523D01*
X9683809Y-29404761D01*
X9540952Y-29452380D01*
X9445714Y-29452380D01*
X10255238Y-28547619D02*
X10302857Y-28500000D01*
X10398095Y-28452380D01*
X10636190Y-28452380D01*
X10731428Y-28500000D01*
X10779047Y-28547619D01*
X10826666Y-28642857D01*
X10826666Y-28738095D01*
X10779047Y-28880952D01*
X10207619Y-29452380D01*
X10826666Y-29452380D01*
X-2666666Y9617619D02*
X-3000000Y10093809D01*
X-3238095Y9617619D02*
X-3238095Y10617619D01*
X-2857142Y10617619D01*
X-2761904Y10570000D01*
X-2714285Y10522380D01*
X-2666666Y10427142D01*
X-2666666Y10284285D01*
X-2714285Y10189047D01*
X-2761904Y10141428D01*
X-2857142Y10093809D01*
X-3238095Y10093809D01*
X-1809523Y10284285D02*
X-1809523Y9617619D01*
X-2047619Y10665238D02*
X-2285714Y9950952D01*
X-1666666Y9950952D01*
X-5238095Y16247619D02*
X-5238095Y17247619D01*
X-5000000Y17247619D01*
X-4857142Y17200000D01*
X-4761904Y17104761D01*
X-4714285Y17009523D01*
X-4666666Y16819047D01*
X-4666666Y16676190D01*
X-4714285Y16485714D01*
X-4761904Y16390476D01*
X-4857142Y16295238D01*
X-5000000Y16247619D01*
X-5238095Y16247619D01*
X-4285714Y17152380D02*
X-4238095Y17200000D01*
X-4142857Y17247619D01*
X-3904761Y17247619D01*
X-3809523Y17200000D01*
X-3761904Y17152380D01*
X-3714285Y17057142D01*
X-3714285Y16961904D01*
X-3761904Y16819047D01*
X-4333333Y16247619D01*
X-3714285Y16247619D01*
X-8364285Y16647619D02*
X-8935714Y16647619D01*
X-8650000Y16647619D02*
X-8650000Y17647619D01*
X-8745238Y17504761D01*
X-8840476Y17409523D01*
X-8935714Y17361904D01*
X-15666666Y9712857D02*
X-15714285Y9665238D01*
X-15857142Y9617619D01*
X-15952380Y9617619D01*
X-16095238Y9665238D01*
X-16190476Y9760476D01*
X-16238095Y9855714D01*
X-16285714Y10046190D01*
X-16285714Y10189047D01*
X-16238095Y10379523D01*
X-16190476Y10474761D01*
X-16095238Y10570000D01*
X-15952380Y10617619D01*
X-15857142Y10617619D01*
X-15714285Y10570000D01*
X-15666666Y10522380D01*
X-14761904Y10617619D02*
X-15238095Y10617619D01*
X-15285714Y10141428D01*
X-15238095Y10189047D01*
X-15142857Y10236666D01*
X-14904761Y10236666D01*
X-14809523Y10189047D01*
X-14761904Y10141428D01*
X-14714285Y10046190D01*
X-14714285Y9808095D01*
X-14761904Y9712857D01*
X-14809523Y9665238D01*
X-14904761Y9617619D01*
X-15142857Y9617619D01*
X-15238095Y9665238D01*
X-15285714Y9712857D01*
X11333333Y9712857D02*
X11285714Y9665238D01*
X11142857Y9617619D01*
X11047619Y9617619D01*
X10904761Y9665238D01*
X10809523Y9760476D01*
X10761904Y9855714D01*
X10714285Y10046190D01*
X10714285Y10189047D01*
X10761904Y10379523D01*
X10809523Y10474761D01*
X10904761Y10570000D01*
X11047619Y10617619D01*
X11142857Y10617619D01*
X11285714Y10570000D01*
X11333333Y10522380D01*
X11714285Y10522380D02*
X11761904Y10570000D01*
X11857142Y10617619D01*
X12095238Y10617619D01*
X12190476Y10570000D01*
X12238095Y10522380D01*
X12285714Y10427142D01*
X12285714Y10331904D01*
X12238095Y10189047D01*
X11666666Y9617619D01*
X12285714Y9617619D01*
X-6666666Y9712857D02*
X-6714285Y9665238D01*
X-6857142Y9617619D01*
X-6952380Y9617619D01*
X-7095238Y9665238D01*
X-7190476Y9760476D01*
X-7238095Y9855714D01*
X-7285714Y10046190D01*
X-7285714Y10189047D01*
X-7238095Y10379523D01*
X-7190476Y10474761D01*
X-7095238Y10570000D01*
X-6952380Y10617619D01*
X-6857142Y10617619D01*
X-6714285Y10570000D01*
X-6666666Y10522380D01*
X-5809523Y10617619D02*
X-6000000Y10617619D01*
X-6095238Y10570000D01*
X-6142857Y10522380D01*
X-6238095Y10379523D01*
X-6285714Y10189047D01*
X-6285714Y9808095D01*
X-6238095Y9712857D01*
X-6190476Y9665238D01*
X-6095238Y9617619D01*
X-5904761Y9617619D01*
X-5809523Y9665238D01*
X-5761904Y9712857D01*
X-5714285Y9808095D01*
X-5714285Y10046190D01*
X-5761904Y10141428D01*
X-5809523Y10189047D01*
X-5904761Y10236666D01*
X-6095238Y10236666D01*
X-6190476Y10189047D01*
X-6238095Y10141428D01*
X-6285714Y10046190D01*
X2333333Y9712857D02*
X2285714Y9665238D01*
X2142857Y9617619D01*
X2047619Y9617619D01*
X1904761Y9665238D01*
X1809523Y9760476D01*
X1761904Y9855714D01*
X1714285Y10046190D01*
X1714285Y10189047D01*
X1761904Y10379523D01*
X1809523Y10474761D01*
X1904761Y10570000D01*
X2047619Y10617619D01*
X2142857Y10617619D01*
X2285714Y10570000D01*
X2333333Y10522380D01*
X2666666Y10617619D02*
X3333333Y10617619D01*
X2904761Y9617619D01*
X-14238095Y16247619D02*
X-14238095Y17247619D01*
X-14000000Y17247619D01*
X-13857142Y17200000D01*
X-13761904Y17104761D01*
X-13714285Y17009523D01*
X-13666666Y16819047D01*
X-13666666Y16676190D01*
X-13714285Y16485714D01*
X-13761904Y16390476D01*
X-13857142Y16295238D01*
X-14000000Y16247619D01*
X-14238095Y16247619D01*
X-12714285Y16247619D02*
X-13285714Y16247619D01*
X-13000000Y16247619D02*
X-13000000Y17247619D01*
X-13095238Y17104761D01*
X-13190476Y17009523D01*
X-13285714Y16961904D01*
X-17364285Y16647619D02*
X-17935714Y16647619D01*
X-17650000Y16647619D02*
X-17650000Y17647619D01*
X-17745238Y17504761D01*
X-17840476Y17409523D01*
X-17935714Y17361904D01*
X3761904Y16247619D02*
X3761904Y17247619D01*
X4000000Y17247619D01*
X4142857Y17200000D01*
X4238095Y17104761D01*
X4285714Y17009523D01*
X4333333Y16819047D01*
X4333333Y16676190D01*
X4285714Y16485714D01*
X4238095Y16390476D01*
X4142857Y16295238D01*
X4000000Y16247619D01*
X3761904Y16247619D01*
X4666666Y17247619D02*
X5285714Y17247619D01*
X4952380Y16866666D01*
X5095238Y16866666D01*
X5190476Y16819047D01*
X5238095Y16771428D01*
X5285714Y16676190D01*
X5285714Y16438095D01*
X5238095Y16342857D01*
X5190476Y16295238D01*
X5095238Y16247619D01*
X4809523Y16247619D01*
X4714285Y16295238D01*
X4666666Y16342857D01*
X635714Y16647619D02*
X64285Y16647619D01*
X349999Y16647619D02*
X349999Y17647619D01*
X254761Y17504761D01*
X159523Y17409523D01*
X64285Y17361904D01*
X12761904Y16247619D02*
X12761904Y17247619D01*
X13000000Y17247619D01*
X13142857Y17200000D01*
X13238095Y17104761D01*
X13285714Y17009523D01*
X13333333Y16819047D01*
X13333333Y16676190D01*
X13285714Y16485714D01*
X13238095Y16390476D01*
X13142857Y16295238D01*
X13000000Y16247619D01*
X12761904Y16247619D01*
X14190476Y16914285D02*
X14190476Y16247619D01*
X13952380Y17295238D02*
X13714285Y16580952D01*
X14333333Y16580952D01*
X9635714Y16647619D02*
X9064285Y16647619D01*
X9350000Y16647619D02*
X9350000Y17647619D01*
X9254761Y17504761D01*
X9159523Y17409523D01*
X9064285Y17361904D01*
X-11666666Y9617619D02*
X-12000000Y10093809D01*
X-12238095Y9617619D02*
X-12238095Y10617619D01*
X-11857142Y10617619D01*
X-11761904Y10570000D01*
X-11714285Y10522380D01*
X-11666666Y10427142D01*
X-11666666Y10284285D01*
X-11714285Y10189047D01*
X-11761904Y10141428D01*
X-11857142Y10093809D01*
X-12238095Y10093809D01*
X-10714285Y9617619D02*
X-11285714Y9617619D01*
X-11000000Y9617619D02*
X-11000000Y10617619D01*
X-11095238Y10474761D01*
X-11190476Y10379523D01*
X-11285714Y10331904D01*
X6333333Y9617619D02*
X6000000Y10093809D01*
X5761904Y9617619D02*
X5761904Y10617619D01*
X6142857Y10617619D01*
X6238095Y10570000D01*
X6285714Y10522380D01*
X6333333Y10427142D01*
X6333333Y10284285D01*
X6285714Y10189047D01*
X6238095Y10141428D01*
X6142857Y10093809D01*
X5761904Y10093809D01*
X7190476Y10617619D02*
X7000000Y10617619D01*
X6904761Y10570000D01*
X6857142Y10522380D01*
X6761904Y10379523D01*
X6714285Y10189047D01*
X6714285Y9808095D01*
X6761904Y9712857D01*
X6809523Y9665238D01*
X6904761Y9617619D01*
X7095238Y9617619D01*
X7190476Y9665238D01*
X7238095Y9712857D01*
X7285714Y9808095D01*
X7285714Y10046190D01*
X7238095Y10141428D01*
X7190476Y10189047D01*
X7095238Y10236666D01*
X6904761Y10236666D01*
X6809523Y10189047D01*
X6761904Y10141428D01*
X6714285Y10046190D01*
X15333333Y9617619D02*
X15000000Y10093809D01*
X14761904Y9617619D02*
X14761904Y10617619D01*
X15142857Y10617619D01*
X15238095Y10570000D01*
X15285714Y10522380D01*
X15333333Y10427142D01*
X15333333Y10284285D01*
X15285714Y10189047D01*
X15238095Y10141428D01*
X15142857Y10093809D01*
X14761904Y10093809D01*
X15809523Y9617619D02*
X16000000Y9617619D01*
X16095238Y9665238D01*
X16142857Y9712857D01*
X16238095Y9855714D01*
X16285714Y10046190D01*
X16285714Y10427142D01*
X16238095Y10522380D01*
X16190476Y10570000D01*
X16095238Y10617619D01*
X15904761Y10617619D01*
X15809523Y10570000D01*
X15761904Y10522380D01*
X15714285Y10427142D01*
X15714285Y10189047D01*
X15761904Y10093809D01*
X15809523Y10046190D01*
X15904761Y9998571D01*
X16095238Y9998571D01*
X16190476Y10046190D01*
X16238095Y10093809D01*
X16285714Y10189047D01*
M02*
