G04 #@! TF.GenerationSoftware,KiCad,Pcbnew,5.1.9+dfsg1-1*
G04 #@! TF.CreationDate,2022-03-10T00:01:25+01:00*
G04 #@! TF.ProjectId,edgedriver,65646765-6472-4697-9665-722e6b696361,rev?*
G04 #@! TF.SameCoordinates,Original*
G04 #@! TF.FileFunction,Soldermask,Top*
G04 #@! TF.FilePolarity,Negative*
%FSLAX46Y46*%
G04 Gerber Fmt 4.6, Leading zero omitted, Abs format (unit mm)*
G04 Created by KiCad (PCBNEW 5.1.9+dfsg1-1) date 2022-03-10 00:01:25*
%MOMM*%
%LPD*%
G01*
G04 APERTURE LIST*
%ADD10R,1.700000X1.700000*%
%ADD11O,1.700000X1.700000*%
%ADD12R,1.500000X1.000000*%
%ADD13O,1.000000X1.600000*%
%ADD14C,0.650000*%
%ADD15O,1.000000X2.100000*%
%ADD16C,1.200000*%
%ADD17C,1.700000*%
G04 APERTURE END LIST*
D10*
X10160000Y-26670000D03*
D11*
X10160000Y-24130000D03*
X10160000Y-21590000D03*
G36*
G01*
X-2925000Y11737500D02*
X-2925000Y11262500D01*
G75*
G02*
X-3162500Y11025000I-237500J0D01*
G01*
X-3662500Y11025000D01*
G75*
G02*
X-3900000Y11262500I0J237500D01*
G01*
X-3900000Y11737500D01*
G75*
G02*
X-3662500Y11975000I237500J0D01*
G01*
X-3162500Y11975000D01*
G75*
G02*
X-2925000Y11737500I0J-237500D01*
G01*
G37*
G36*
G01*
X-1100000Y11737500D02*
X-1100000Y11262500D01*
G75*
G02*
X-1337500Y11025000I-237500J0D01*
G01*
X-1837500Y11025000D01*
G75*
G02*
X-2075000Y11262500I0J237500D01*
G01*
X-2075000Y11737500D01*
G75*
G02*
X-1837500Y11975000I237500J0D01*
G01*
X-1337500Y11975000D01*
G75*
G02*
X-1100000Y11737500I0J-237500D01*
G01*
G37*
D12*
X-6950000Y17100000D03*
X-6950000Y13900000D03*
X-2050000Y17100000D03*
X-2050000Y13900000D03*
G36*
G01*
X-14100000Y11737500D02*
X-14100000Y11262500D01*
G75*
G02*
X-14337500Y11025000I-237500J0D01*
G01*
X-14937500Y11025000D01*
G75*
G02*
X-15175000Y11262500I0J237500D01*
G01*
X-15175000Y11737500D01*
G75*
G02*
X-14937500Y11975000I237500J0D01*
G01*
X-14337500Y11975000D01*
G75*
G02*
X-14100000Y11737500I0J-237500D01*
G01*
G37*
G36*
G01*
X-15825000Y11737500D02*
X-15825000Y11262500D01*
G75*
G02*
X-16062500Y11025000I-237500J0D01*
G01*
X-16662500Y11025000D01*
G75*
G02*
X-16900000Y11262500I0J237500D01*
G01*
X-16900000Y11737500D01*
G75*
G02*
X-16662500Y11975000I237500J0D01*
G01*
X-16062500Y11975000D01*
G75*
G02*
X-15825000Y11737500I0J-237500D01*
G01*
G37*
G36*
G01*
X11175000Y11737500D02*
X11175000Y11262500D01*
G75*
G02*
X10937500Y11025000I-237500J0D01*
G01*
X10337500Y11025000D01*
G75*
G02*
X10100000Y11262500I0J237500D01*
G01*
X10100000Y11737500D01*
G75*
G02*
X10337500Y11975000I237500J0D01*
G01*
X10937500Y11975000D01*
G75*
G02*
X11175000Y11737500I0J-237500D01*
G01*
G37*
G36*
G01*
X12900000Y11737500D02*
X12900000Y11262500D01*
G75*
G02*
X12662500Y11025000I-237500J0D01*
G01*
X12062500Y11025000D01*
G75*
G02*
X11825000Y11262500I0J237500D01*
G01*
X11825000Y11737500D01*
G75*
G02*
X12062500Y11975000I237500J0D01*
G01*
X12662500Y11975000D01*
G75*
G02*
X12900000Y11737500I0J-237500D01*
G01*
G37*
G36*
G01*
X-5100000Y11737500D02*
X-5100000Y11262500D01*
G75*
G02*
X-5337500Y11025000I-237500J0D01*
G01*
X-5937500Y11025000D01*
G75*
G02*
X-6175000Y11262500I0J237500D01*
G01*
X-6175000Y11737500D01*
G75*
G02*
X-5937500Y11975000I237500J0D01*
G01*
X-5337500Y11975000D01*
G75*
G02*
X-5100000Y11737500I0J-237500D01*
G01*
G37*
G36*
G01*
X-6825000Y11737500D02*
X-6825000Y11262500D01*
G75*
G02*
X-7062500Y11025000I-237500J0D01*
G01*
X-7662500Y11025000D01*
G75*
G02*
X-7900000Y11262500I0J237500D01*
G01*
X-7900000Y11737500D01*
G75*
G02*
X-7662500Y11975000I237500J0D01*
G01*
X-7062500Y11975000D01*
G75*
G02*
X-6825000Y11737500I0J-237500D01*
G01*
G37*
G36*
G01*
X2175000Y11737500D02*
X2175000Y11262500D01*
G75*
G02*
X1937500Y11025000I-237500J0D01*
G01*
X1337500Y11025000D01*
G75*
G02*
X1100000Y11262500I0J237500D01*
G01*
X1100000Y11737500D01*
G75*
G02*
X1337500Y11975000I237500J0D01*
G01*
X1937500Y11975000D01*
G75*
G02*
X2175000Y11737500I0J-237500D01*
G01*
G37*
G36*
G01*
X3900000Y11737500D02*
X3900000Y11262500D01*
G75*
G02*
X3662500Y11025000I-237500J0D01*
G01*
X3062500Y11025000D01*
G75*
G02*
X2825000Y11262500I0J237500D01*
G01*
X2825000Y11737500D01*
G75*
G02*
X3062500Y11975000I237500J0D01*
G01*
X3662500Y11975000D01*
G75*
G02*
X3900000Y11737500I0J-237500D01*
G01*
G37*
X-11050000Y13900000D03*
X-11050000Y17100000D03*
X-15950000Y13900000D03*
X-15950000Y17100000D03*
X6950000Y13900000D03*
X6950000Y17100000D03*
X2050000Y13900000D03*
X2050000Y17100000D03*
X11050000Y17100000D03*
X11050000Y13900000D03*
X15950000Y17100000D03*
X15950000Y13900000D03*
D13*
X-4320000Y-43050000D03*
D14*
X-2890000Y-39400000D03*
D13*
X4320000Y-43050000D03*
D14*
X2890000Y-39400000D03*
D15*
X4320000Y-38870000D03*
X-4320000Y-38870000D03*
G36*
G01*
X-10100000Y11737500D02*
X-10100000Y11262500D01*
G75*
G02*
X-10337500Y11025000I-237500J0D01*
G01*
X-10837500Y11025000D01*
G75*
G02*
X-11075000Y11262500I0J237500D01*
G01*
X-11075000Y11737500D01*
G75*
G02*
X-10837500Y11975000I237500J0D01*
G01*
X-10337500Y11975000D01*
G75*
G02*
X-10100000Y11737500I0J-237500D01*
G01*
G37*
G36*
G01*
X-11925000Y11737500D02*
X-11925000Y11262500D01*
G75*
G02*
X-12162500Y11025000I-237500J0D01*
G01*
X-12662500Y11025000D01*
G75*
G02*
X-12900000Y11262500I0J237500D01*
G01*
X-12900000Y11737500D01*
G75*
G02*
X-12662500Y11975000I237500J0D01*
G01*
X-12162500Y11975000D01*
G75*
G02*
X-11925000Y11737500I0J-237500D01*
G01*
G37*
G36*
G01*
X7900000Y11737500D02*
X7900000Y11262500D01*
G75*
G02*
X7662500Y11025000I-237500J0D01*
G01*
X7162500Y11025000D01*
G75*
G02*
X6925000Y11262500I0J237500D01*
G01*
X6925000Y11737500D01*
G75*
G02*
X7162500Y11975000I237500J0D01*
G01*
X7662500Y11975000D01*
G75*
G02*
X7900000Y11737500I0J-237500D01*
G01*
G37*
G36*
G01*
X6075000Y11737500D02*
X6075000Y11262500D01*
G75*
G02*
X5837500Y11025000I-237500J0D01*
G01*
X5337500Y11025000D01*
G75*
G02*
X5100000Y11262500I0J237500D01*
G01*
X5100000Y11737500D01*
G75*
G02*
X5337500Y11975000I237500J0D01*
G01*
X5837500Y11975000D01*
G75*
G02*
X6075000Y11737500I0J-237500D01*
G01*
G37*
G36*
G01*
X15075000Y11737500D02*
X15075000Y11262500D01*
G75*
G02*
X14837500Y11025000I-237500J0D01*
G01*
X14337500Y11025000D01*
G75*
G02*
X14100000Y11262500I0J237500D01*
G01*
X14100000Y11737500D01*
G75*
G02*
X14337500Y11975000I237500J0D01*
G01*
X14837500Y11975000D01*
G75*
G02*
X15075000Y11737500I0J-237500D01*
G01*
G37*
G36*
G01*
X16900000Y11737500D02*
X16900000Y11262500D01*
G75*
G02*
X16662500Y11025000I-237500J0D01*
G01*
X16162500Y11025000D01*
G75*
G02*
X15925000Y11262500I0J237500D01*
G01*
X15925000Y11737500D01*
G75*
G02*
X16162500Y11975000I237500J0D01*
G01*
X16662500Y11975000D01*
G75*
G02*
X16900000Y11737500I0J-237500D01*
G01*
G37*
D16*
X3554216Y-3693650D03*
X4923383Y-1541825D03*
X-4980141Y1580688D03*
X-3610975Y3732513D03*
X4980232Y1580673D03*
X3611065Y3732513D03*
X-3554131Y-3693802D03*
X-4923297Y-1541977D03*
D11*
X-10160000Y-16510000D03*
X-10160000Y-13970000D03*
X-10160000Y-11430000D03*
D17*
X-10160000Y-8890000D03*
D11*
X10160000Y-16510000D03*
X10160000Y-13970000D03*
X10160000Y-11430000D03*
D17*
X10160000Y-8890000D03*
X10160000Y-41910000D03*
D11*
X10160000Y-39370000D03*
X10160000Y-36830000D03*
X10160000Y-34290000D03*
D17*
X-10160000Y-41910000D03*
D11*
X-10160000Y-39370000D03*
X-10160000Y-36830000D03*
X-10160000Y-34290000D03*
M02*
