G04 #@! TF.GenerationSoftware,KiCad,Pcbnew,5.1.9+dfsg1-1*
G04 #@! TF.CreationDate,2022-03-10T00:01:25+01:00*
G04 #@! TF.ProjectId,edgedriver,65646765-6472-4697-9665-722e6b696361,rev?*
G04 #@! TF.SameCoordinates,Original*
G04 #@! TF.FileFunction,Profile,NP*
%FSLAX46Y46*%
G04 Gerber Fmt 4.6, Leading zero omitted, Abs format (unit mm)*
G04 Created by KiCad (PCBNEW 5.1.9+dfsg1-1) date 2022-03-10 00:01:25*
%MOMM*%
%LPD*%
G01*
G04 APERTURE LIST*
G04 #@! TA.AperFunction,Profile*
%ADD10C,0.141421*%
G04 #@! TD*
G04 APERTURE END LIST*
D10*
X-16399440Y19500102D02*
X-16502663Y19497508D01*
X-16502663Y19497508D02*
X-16604498Y19489809D01*
X-16604498Y19489809D02*
X-16704822Y19477129D01*
X-16704822Y19477129D02*
X-16803510Y19459592D01*
X-16803510Y19459592D02*
X-16900439Y19437322D01*
X-16900439Y19437322D02*
X-16995485Y19410443D01*
X-16995485Y19410443D02*
X-17088524Y19379078D01*
X-17088524Y19379078D02*
X-17179432Y19343352D01*
X-17179432Y19343352D02*
X-17268085Y19303389D01*
X-17268085Y19303389D02*
X-17354360Y19259312D01*
X-17354360Y19259312D02*
X-17438132Y19211245D01*
X-17438132Y19211245D02*
X-17519277Y19159313D01*
X-17519277Y19159313D02*
X-17597672Y19103638D01*
X-17597672Y19103638D02*
X-17673193Y19044346D01*
X-17673193Y19044346D02*
X-17745716Y18981560D01*
X-17745716Y18981560D02*
X-17815117Y18915404D01*
X-17815117Y18915404D02*
X-17881272Y18846002D01*
X-17881272Y18846002D02*
X-17944057Y18773478D01*
X-17944057Y18773478D02*
X-18003348Y18697955D01*
X-18003348Y18697955D02*
X-18059022Y18619558D01*
X-18059022Y18619558D02*
X-18110954Y18538411D01*
X-18110954Y18538411D02*
X-18159021Y18454637D01*
X-18159021Y18454637D02*
X-18203098Y18368361D01*
X-18203098Y18368361D02*
X-18243062Y18279706D01*
X-18243062Y18279706D02*
X-18278790Y18188796D01*
X-18278790Y18188796D02*
X-18310156Y18095756D01*
X-18310156Y18095756D02*
X-18337037Y18000709D01*
X-18337037Y18000709D02*
X-18359310Y17903778D01*
X-18359310Y17903778D02*
X-18376850Y17805089D01*
X-18376850Y17805089D02*
X-18389533Y17704765D01*
X-18389533Y17704765D02*
X-18397236Y17602930D01*
X-18397236Y17602930D02*
X-18399835Y17499707D01*
X-18399835Y17499707D02*
X-18400206Y10140983D01*
X-18400206Y10140983D02*
X-18397617Y10037760D01*
X-18397617Y10037760D02*
X-18389922Y9935925D01*
X-18389922Y9935925D02*
X-18377246Y9835600D01*
X-18377246Y9835600D02*
X-18359712Y9736911D01*
X-18359712Y9736911D02*
X-18337445Y9639981D01*
X-18337445Y9639981D02*
X-18310568Y9544934D01*
X-18310568Y9544934D02*
X-18279205Y9451893D01*
X-18279205Y9451893D02*
X-18243480Y9360984D01*
X-18243480Y9360984D02*
X-18203517Y9272329D01*
X-18203517Y9272329D02*
X-18159441Y9186052D01*
X-18159441Y9186052D02*
X-18111374Y9102279D01*
X-18111374Y9102279D02*
X-18059441Y9021131D01*
X-18059441Y9021131D02*
X-18003766Y8942735D01*
X-18003766Y8942735D02*
X-17944474Y8867212D01*
X-17944474Y8867212D02*
X-17881686Y8794688D01*
X-17881686Y8794688D02*
X-17815529Y8725286D01*
X-17815529Y8725286D02*
X-17746126Y8659130D01*
X-17746126Y8659130D02*
X-17673600Y8596343D01*
X-17673600Y8596343D02*
X-17598076Y8537051D01*
X-17598076Y8537051D02*
X-17519677Y8481377D01*
X-17519677Y8481377D02*
X-17438528Y8429445D01*
X-17438528Y8429445D02*
X-17354753Y8381378D01*
X-17354753Y8381378D02*
X-17268475Y8337301D01*
X-17268475Y8337301D02*
X-17179818Y8297337D01*
X-17179818Y8297337D02*
X-17088907Y8261611D01*
X-17088907Y8261611D02*
X-16995865Y8230247D01*
X-16995865Y8230247D02*
X-16900816Y8203367D01*
X-16900816Y8203367D02*
X-16803885Y8181097D01*
X-16803885Y8181097D02*
X-16705195Y8163561D01*
X-16705195Y8163561D02*
X-16604870Y8150881D01*
X-16604870Y8150881D02*
X-16503034Y8143182D01*
X-16503034Y8143182D02*
X-16399811Y8140588D01*
X-16399811Y8140588D02*
X-14699140Y8140588D01*
X-14699140Y8140588D02*
X-13637852Y8140588D01*
X-13637852Y8140588D02*
X-13583573Y8139794D01*
X-13583573Y8139794D02*
X-13530535Y8137444D01*
X-13530535Y8137444D02*
X-13478751Y8133569D01*
X-13478751Y8133569D02*
X-13428233Y8128200D01*
X-13428233Y8128200D02*
X-13378993Y8121371D01*
X-13378993Y8121371D02*
X-13331043Y8113111D01*
X-13331043Y8113111D02*
X-13284396Y8103453D01*
X-13284396Y8103453D02*
X-13239064Y8092428D01*
X-13239064Y8092428D02*
X-13195059Y8080067D01*
X-13195059Y8080067D02*
X-13152394Y8066403D01*
X-13152394Y8066403D02*
X-13111080Y8051467D01*
X-13111080Y8051467D02*
X-13071130Y8035290D01*
X-13071130Y8035290D02*
X-13032557Y8017904D01*
X-13032557Y8017904D02*
X-12995372Y7999340D01*
X-12995372Y7999340D02*
X-12959588Y7979630D01*
X-12959588Y7979630D02*
X-12925216Y7958806D01*
X-12925216Y7958806D02*
X-12892270Y7936899D01*
X-12892270Y7936899D02*
X-12860762Y7913941D01*
X-12860762Y7913941D02*
X-12830703Y7889962D01*
X-12830703Y7889962D02*
X-12802107Y7864996D01*
X-12802107Y7864996D02*
X-12774984Y7839073D01*
X-12774984Y7839073D02*
X-12749349Y7812224D01*
X-12749349Y7812224D02*
X-12725212Y7784482D01*
X-12725212Y7784482D02*
X-12702586Y7755879D01*
X-12702586Y7755879D02*
X-12681484Y7726444D01*
X-12681484Y7726444D02*
X-12661917Y7696211D01*
X-12661917Y7696211D02*
X-12643898Y7665210D01*
X-12643898Y7665210D02*
X-12627440Y7633474D01*
X-12627440Y7633474D02*
X-12612553Y7601033D01*
X-12612553Y7601033D02*
X-12599252Y7567919D01*
X-12599252Y7567919D02*
X-12587547Y7534165D01*
X-12587547Y7534165D02*
X-12577452Y7499800D01*
X-12577452Y7499800D02*
X-12504782Y7298777D01*
X-12504782Y7298777D02*
X-12434222Y7094805D01*
X-12434222Y7094805D02*
X-12365785Y6887964D01*
X-12365785Y6887964D02*
X-12299483Y6678333D01*
X-12299483Y6678333D02*
X-12235330Y6465993D01*
X-12235330Y6465993D02*
X-12173338Y6251023D01*
X-12173338Y6251023D02*
X-12113521Y6033503D01*
X-12113521Y6033503D02*
X-12055891Y5813512D01*
X-12055891Y5813512D02*
X-12000461Y5591131D01*
X-12000461Y5591131D02*
X-11947244Y5366440D01*
X-11947244Y5366440D02*
X-11896253Y5139517D01*
X-11896253Y5139517D02*
X-11847502Y4910443D01*
X-11847502Y4910443D02*
X-11801002Y4679297D01*
X-11801002Y4679297D02*
X-11756766Y4446159D01*
X-11756766Y4446159D02*
X-11714809Y4211110D01*
X-11714809Y4211110D02*
X-11675142Y3974228D01*
X-11675142Y3974228D02*
X-11637779Y3735593D01*
X-11637779Y3735593D02*
X-11602732Y3495286D01*
X-11602732Y3495286D02*
X-11570014Y3253386D01*
X-11570014Y3253386D02*
X-11539639Y3009972D01*
X-11539639Y3009972D02*
X-11511619Y2765125D01*
X-11511619Y2765125D02*
X-11485967Y2518924D01*
X-11485967Y2518924D02*
X-11462697Y2271449D01*
X-11462697Y2271449D02*
X-11441820Y2022780D01*
X-11441820Y2022780D02*
X-11423350Y1772996D01*
X-11423350Y1772996D02*
X-11407300Y1522177D01*
X-11407300Y1522177D02*
X-11393682Y1270403D01*
X-11393682Y1270403D02*
X-11382511Y1017754D01*
X-11382511Y1017754D02*
X-11373798Y764310D01*
X-11373798Y764310D02*
X-11367556Y510149D01*
X-11367556Y510149D02*
X-11363799Y255353D01*
X-11363799Y255353D02*
X-11362539Y0D01*
X-11362539Y0D02*
X-11363826Y-257803D01*
X-11363826Y-257803D02*
X-11367659Y-515034D01*
X-11367659Y-515034D02*
X-11374023Y-771610D01*
X-11374023Y-771610D02*
X-11382906Y-1027449D01*
X-11382906Y-1027449D02*
X-11394294Y-1282470D01*
X-11394294Y-1282470D02*
X-11408173Y-1536590D01*
X-11408173Y-1536590D02*
X-11424531Y-1789728D01*
X-11424531Y-1789728D02*
X-11443354Y-2041802D01*
X-11443354Y-2041802D02*
X-11464628Y-2292729D01*
X-11464628Y-2292729D02*
X-11488340Y-2542428D01*
X-11488340Y-2542428D02*
X-11514476Y-2790817D01*
X-11514476Y-2790817D02*
X-11543024Y-3037814D01*
X-11543024Y-3037814D02*
X-11573969Y-3283337D01*
X-11573969Y-3283337D02*
X-11607299Y-3527304D01*
X-11607299Y-3527304D02*
X-11643000Y-3769633D01*
X-11643000Y-3769633D02*
X-11681058Y-4010242D01*
X-11681058Y-4010242D02*
X-11721460Y-4249049D01*
X-11721460Y-4249049D02*
X-11764193Y-4485973D01*
X-11764193Y-4485973D02*
X-11809244Y-4720930D01*
X-11809244Y-4720930D02*
X-11856598Y-4953841D01*
X-11856598Y-4953841D02*
X-11906243Y-5184622D01*
X-11906243Y-5184622D02*
X-11958165Y-5413191D01*
X-11958165Y-5413191D02*
X-12012350Y-5639467D01*
X-12012350Y-5639467D02*
X-12068786Y-5863368D01*
X-12068786Y-5863368D02*
X-12127459Y-6084811D01*
X-12127459Y-6084811D02*
X-12188355Y-6303715D01*
X-12188355Y-6303715D02*
X-12251461Y-6519998D01*
X-12251461Y-6519998D02*
X-12316764Y-6733578D01*
X-12316764Y-6733578D02*
X-12384250Y-6944373D01*
X-12384250Y-6944373D02*
X-12453905Y-7152301D01*
X-12453905Y-7152301D02*
X-12525717Y-7357280D01*
X-12525717Y-7357280D02*
X-12599672Y-7559228D01*
X-12599672Y-7559228D02*
X-12599672Y-42999958D01*
X-12599672Y-42999958D02*
X-12597080Y-43103180D01*
X-12597080Y-43103180D02*
X-12589386Y-43205011D01*
X-12589386Y-43205011D02*
X-12576713Y-43305328D01*
X-12576713Y-43305328D02*
X-12559186Y-43404008D01*
X-12559186Y-43404008D02*
X-12536927Y-43500927D01*
X-12536927Y-43500927D02*
X-12510062Y-43595961D01*
X-12510062Y-43595961D02*
X-12478713Y-43688985D01*
X-12478713Y-43688985D02*
X-12443004Y-43779878D01*
X-12443004Y-43779878D02*
X-12403059Y-43868514D01*
X-12403059Y-43868514D02*
X-12359003Y-43954770D01*
X-12359003Y-43954770D02*
X-12310957Y-44038523D01*
X-12310957Y-44038523D02*
X-12259047Y-44119648D01*
X-12259047Y-44119648D02*
X-12203396Y-44198022D01*
X-12203396Y-44198022D02*
X-12144127Y-44273521D01*
X-12144127Y-44273521D02*
X-12081365Y-44346021D01*
X-12081365Y-44346021D02*
X-12015234Y-44415399D01*
X-12015234Y-44415399D02*
X-11945856Y-44481531D01*
X-11945856Y-44481531D02*
X-11873355Y-44544293D01*
X-11873355Y-44544293D02*
X-11797856Y-44603562D01*
X-11797856Y-44603562D02*
X-11719483Y-44659213D01*
X-11719483Y-44659213D02*
X-11638358Y-44711123D01*
X-11638358Y-44711123D02*
X-11554605Y-44759168D01*
X-11554605Y-44759168D02*
X-11468349Y-44803225D01*
X-11468349Y-44803225D02*
X-11379713Y-44843169D01*
X-11379713Y-44843169D02*
X-11288821Y-44878878D01*
X-11288821Y-44878878D02*
X-11195796Y-44910227D01*
X-11195796Y-44910227D02*
X-11100762Y-44937092D01*
X-11100762Y-44937092D02*
X-11003844Y-44959350D01*
X-11003844Y-44959350D02*
X-10905164Y-44976877D01*
X-10905164Y-44976877D02*
X-10804847Y-44989550D01*
X-10804847Y-44989550D02*
X-10703016Y-44997244D01*
X-10703016Y-44997244D02*
X-10599795Y-44999835D01*
X-10599795Y-44999835D02*
X10599980Y-44999835D01*
X10599980Y-44999835D02*
X10703201Y-44997244D01*
X10703201Y-44997244D02*
X10805032Y-44989550D01*
X10805032Y-44989550D02*
X10905349Y-44976877D01*
X10905349Y-44976877D02*
X11004029Y-44959350D01*
X11004029Y-44959350D02*
X11100948Y-44937092D01*
X11100948Y-44937092D02*
X11195981Y-44910227D01*
X11195981Y-44910227D02*
X11289006Y-44878878D01*
X11289006Y-44878878D02*
X11379898Y-44843169D01*
X11379898Y-44843169D02*
X11468534Y-44803225D01*
X11468534Y-44803225D02*
X11554790Y-44759168D01*
X11554790Y-44759168D02*
X11638543Y-44711123D01*
X11638543Y-44711123D02*
X11719668Y-44659213D01*
X11719668Y-44659213D02*
X11798042Y-44603562D01*
X11798042Y-44603562D02*
X11873540Y-44544293D01*
X11873540Y-44544293D02*
X11946041Y-44481531D01*
X11946041Y-44481531D02*
X12015419Y-44415399D01*
X12015419Y-44415399D02*
X12081551Y-44346021D01*
X12081551Y-44346021D02*
X12144313Y-44273521D01*
X12144313Y-44273521D02*
X12203581Y-44198022D01*
X12203581Y-44198022D02*
X12259232Y-44119648D01*
X12259232Y-44119648D02*
X12311142Y-44038523D01*
X12311142Y-44038523D02*
X12359188Y-43954770D01*
X12359188Y-43954770D02*
X12403245Y-43868514D01*
X12403245Y-43868514D02*
X12443189Y-43779878D01*
X12443189Y-43779878D02*
X12478898Y-43688985D01*
X12478898Y-43688985D02*
X12510247Y-43595961D01*
X12510247Y-43595961D02*
X12537112Y-43500927D01*
X12537112Y-43500927D02*
X12559371Y-43404008D01*
X12559371Y-43404008D02*
X12576898Y-43305328D01*
X12576898Y-43305328D02*
X12589571Y-43205011D01*
X12589571Y-43205011D02*
X12597265Y-43103180D01*
X12597265Y-43103180D02*
X12599858Y-42999958D01*
X12599858Y-42999958D02*
X12599858Y-7560262D01*
X12599858Y-7560262D02*
X12525893Y-7358288D01*
X12525893Y-7358288D02*
X12454072Y-7153281D01*
X12454072Y-7153281D02*
X12384408Y-6945326D01*
X12384408Y-6945326D02*
X12316915Y-6734503D01*
X12316915Y-6734503D02*
X12251605Y-6520894D01*
X12251605Y-6520894D02*
X12188492Y-6304581D01*
X12188492Y-6304581D02*
X12127590Y-6085647D01*
X12127590Y-6085647D02*
X12068912Y-5864173D01*
X12068912Y-5864173D02*
X12012472Y-5640242D01*
X12012472Y-5640242D02*
X11958282Y-5413934D01*
X11958282Y-5413934D02*
X11906357Y-5185333D01*
X11906357Y-5185333D02*
X11856709Y-4954520D01*
X11856709Y-4954520D02*
X11809353Y-4721577D01*
X11809353Y-4721577D02*
X11764300Y-4486586D01*
X11764300Y-4486586D02*
X11721566Y-4249629D01*
X11721566Y-4249629D02*
X11681163Y-4010788D01*
X11681163Y-4010788D02*
X11643105Y-3770145D01*
X11643105Y-3770145D02*
X11607405Y-3527782D01*
X11607405Y-3527782D02*
X11574077Y-3283781D01*
X11574077Y-3283781D02*
X11543133Y-3038224D01*
X11543133Y-3038224D02*
X11514588Y-2791193D01*
X11514588Y-2791193D02*
X11488455Y-2542770D01*
X11488455Y-2542770D02*
X11464747Y-2293036D01*
X11464747Y-2293036D02*
X11443478Y-2042074D01*
X11443478Y-2042074D02*
X11424661Y-1789966D01*
X11424661Y-1789966D02*
X11408309Y-1536794D01*
X11408309Y-1536794D02*
X11394436Y-1282639D01*
X11394436Y-1282639D02*
X11383055Y-1027584D01*
X11383055Y-1027584D02*
X11374180Y-771711D01*
X11374180Y-771711D02*
X11367825Y-515101D01*
X11367825Y-515101D02*
X11364001Y-257837D01*
X11364001Y-257837D02*
X11362724Y0D01*
X11362724Y0D02*
X11363984Y255353D01*
X11363984Y255353D02*
X11367741Y510149D01*
X11367741Y510149D02*
X11373983Y764310D01*
X11373983Y764310D02*
X11382696Y1017754D01*
X11382696Y1017754D02*
X11393868Y1270403D01*
X11393868Y1270403D02*
X11407485Y1522177D01*
X11407485Y1522177D02*
X11423535Y1772996D01*
X11423535Y1772996D02*
X11442005Y2022780D01*
X11442005Y2022780D02*
X11462882Y2271449D01*
X11462882Y2271449D02*
X11486153Y2518924D01*
X11486153Y2518924D02*
X11511804Y2765125D01*
X11511804Y2765125D02*
X11539824Y3009972D01*
X11539824Y3009972D02*
X11570200Y3253386D01*
X11570200Y3253386D02*
X11602917Y3495286D01*
X11602917Y3495286D02*
X11637964Y3735593D01*
X11637964Y3735593D02*
X11675327Y3974228D01*
X11675327Y3974228D02*
X11714994Y4211110D01*
X11714994Y4211110D02*
X11756952Y4446159D01*
X11756952Y4446159D02*
X11801187Y4679297D01*
X11801187Y4679297D02*
X11847687Y4910443D01*
X11847687Y4910443D02*
X11896439Y5139517D01*
X11896439Y5139517D02*
X11947429Y5366440D01*
X11947429Y5366440D02*
X12000646Y5591131D01*
X12000646Y5591131D02*
X12056076Y5813512D01*
X12056076Y5813512D02*
X12113706Y6033503D01*
X12113706Y6033503D02*
X12173524Y6251023D01*
X12173524Y6251023D02*
X12235515Y6465993D01*
X12235515Y6465993D02*
X12299668Y6678333D01*
X12299668Y6678333D02*
X12365970Y6887964D01*
X12365970Y6887964D02*
X12434407Y7094805D01*
X12434407Y7094805D02*
X12504967Y7298777D01*
X12504967Y7298777D02*
X12577637Y7499800D01*
X12577637Y7499800D02*
X12586908Y7531087D01*
X12586908Y7531087D02*
X12597892Y7562154D01*
X12597892Y7562154D02*
X12610573Y7592952D01*
X12610573Y7592952D02*
X12624933Y7623429D01*
X12624933Y7623429D02*
X12640955Y7653536D01*
X12640955Y7653536D02*
X12658621Y7683220D01*
X12658621Y7683220D02*
X12677914Y7712431D01*
X12677914Y7712431D02*
X12698817Y7741120D01*
X12698817Y7741120D02*
X12721311Y7769233D01*
X12721311Y7769233D02*
X12745380Y7796722D01*
X12745380Y7796722D02*
X12771006Y7823535D01*
X12771006Y7823535D02*
X12798172Y7849622D01*
X12798172Y7849622D02*
X12826861Y7874931D01*
X12826861Y7874931D02*
X12857054Y7899412D01*
X12857054Y7899412D02*
X12888735Y7923014D01*
X12888735Y7923014D02*
X12921886Y7945687D01*
X12921886Y7945687D02*
X12956490Y7967379D01*
X12956490Y7967379D02*
X12992529Y7988040D01*
X12992529Y7988040D02*
X13029986Y8007619D01*
X13029986Y8007619D02*
X13068844Y8026065D01*
X13068844Y8026065D02*
X13109085Y8043328D01*
X13109085Y8043328D02*
X13150691Y8059357D01*
X13150691Y8059357D02*
X13193646Y8074100D01*
X13193646Y8074100D02*
X13237931Y8087508D01*
X13237931Y8087508D02*
X13283530Y8099529D01*
X13283530Y8099529D02*
X13330425Y8110113D01*
X13330425Y8110113D02*
X13378599Y8119209D01*
X13378599Y8119209D02*
X13428034Y8126765D01*
X13428034Y8126765D02*
X13478712Y8132733D01*
X13478712Y8132733D02*
X13530618Y8137059D01*
X13530618Y8137059D02*
X13583732Y8139695D01*
X13583732Y8139695D02*
X13638037Y8140588D01*
X13638037Y8140588D02*
X14698954Y8140588D01*
X14698954Y8140588D02*
X16399626Y8140588D01*
X16399626Y8140588D02*
X16502848Y8141344D01*
X16502848Y8141344D02*
X16604684Y8143684D01*
X16604684Y8143684D02*
X16705008Y8147721D01*
X16705008Y8147721D02*
X16803697Y8153564D01*
X16803697Y8153564D02*
X16900628Y8161324D01*
X16900628Y8161324D02*
X16995675Y8171112D01*
X16995675Y8171112D02*
X17088715Y8183038D01*
X17088715Y8183038D02*
X17179625Y8197214D01*
X17179625Y8197214D02*
X17268280Y8213751D01*
X17268280Y8213751D02*
X17354556Y8232758D01*
X17354556Y8232758D02*
X17438330Y8254347D01*
X17438330Y8254347D02*
X17519477Y8278628D01*
X17519477Y8278628D02*
X17597874Y8305712D01*
X17597874Y8305712D02*
X17673397Y8335711D01*
X17673397Y8335711D02*
X17745921Y8368733D01*
X17745921Y8368733D02*
X17815323Y8404892D01*
X17815323Y8404892D02*
X17881479Y8444296D01*
X17881479Y8444296D02*
X17944265Y8487057D01*
X17944265Y8487057D02*
X18003557Y8533286D01*
X18003557Y8533286D02*
X18059231Y8583093D01*
X18059231Y8583093D02*
X18111164Y8636589D01*
X18111164Y8636589D02*
X18159231Y8693885D01*
X18159231Y8693885D02*
X18203308Y8755091D01*
X18203308Y8755091D02*
X18243271Y8820319D01*
X18243271Y8820319D02*
X18278997Y8889679D01*
X18278997Y8889679D02*
X18310362Y8963281D01*
X18310362Y8963281D02*
X18337241Y9041237D01*
X18337241Y9041237D02*
X18359511Y9123657D01*
X18359511Y9123657D02*
X18377048Y9210653D01*
X18377048Y9210653D02*
X18389728Y9302333D01*
X18389728Y9302333D02*
X18397427Y9398811D01*
X18397427Y9398811D02*
X18400020Y9500195D01*
X18400020Y9500195D02*
X18400020Y17499707D01*
X18400020Y17499707D02*
X18397427Y17602930D01*
X18397427Y17602930D02*
X18389728Y17704765D01*
X18389728Y17704765D02*
X18377048Y17805089D01*
X18377048Y17805089D02*
X18359511Y17903778D01*
X18359511Y17903778D02*
X18337241Y18000709D01*
X18337241Y18000709D02*
X18310362Y18095756D01*
X18310362Y18095756D02*
X18278997Y18188796D01*
X18278997Y18188796D02*
X18243271Y18279706D01*
X18243271Y18279706D02*
X18203308Y18368361D01*
X18203308Y18368361D02*
X18159231Y18454637D01*
X18159231Y18454637D02*
X18111164Y18538411D01*
X18111164Y18538411D02*
X18059231Y18619558D01*
X18059231Y18619558D02*
X18003557Y18697955D01*
X18003557Y18697955D02*
X17944265Y18773478D01*
X17944265Y18773478D02*
X17881479Y18846002D01*
X17881479Y18846002D02*
X17815323Y18915404D01*
X17815323Y18915404D02*
X17745921Y18981560D01*
X17745921Y18981560D02*
X17673397Y19044346D01*
X17673397Y19044346D02*
X17597874Y19103638D01*
X17597874Y19103638D02*
X17519477Y19159313D01*
X17519477Y19159313D02*
X17438330Y19211245D01*
X17438330Y19211245D02*
X17354556Y19259312D01*
X17354556Y19259312D02*
X17268280Y19303389D01*
X17268280Y19303389D02*
X17179625Y19343352D01*
X17179625Y19343352D02*
X17088715Y19379078D01*
X17088715Y19379078D02*
X16995675Y19410443D01*
X16995675Y19410443D02*
X16900628Y19437322D01*
X16900628Y19437322D02*
X16803697Y19459592D01*
X16803697Y19459592D02*
X16705008Y19477129D01*
X16705008Y19477129D02*
X16604684Y19489809D01*
X16604684Y19489809D02*
X16502848Y19497508D01*
X16502848Y19497508D02*
X16399626Y19500102D01*
X16399626Y19500102D02*
X-16399440Y19500102D01*
X-4958308Y3984888D02*
X-5002424Y3983941D01*
X-5002424Y3983941D02*
X-5044657Y3979217D01*
X-5044657Y3979217D02*
X-5084475Y3970888D01*
X-5084475Y3970888D02*
X-5121349Y3959125D01*
X-5121349Y3959125D02*
X-5154746Y3944101D01*
X-5154746Y3944101D02*
X-5184134Y3925988D01*
X-5184134Y3925988D02*
X-5227035Y3894106D01*
X-5227035Y3894106D02*
X-5263070Y3865227D01*
X-5263070Y3865227D02*
X-5293169Y3838698D01*
X-5293169Y3838698D02*
X-5318258Y3813868D01*
X-5318258Y3813868D02*
X-5339267Y3790086D01*
X-5339267Y3790086D02*
X-5357123Y3766700D01*
X-5357123Y3766700D02*
X-5372754Y3743058D01*
X-5372754Y3743058D02*
X-5749475Y3133788D01*
X-5749475Y3133788D02*
X-5763560Y3109276D01*
X-5763560Y3109276D02*
X-5776408Y3082905D01*
X-5776408Y3082905D02*
X-5788190Y3053546D01*
X-5788190Y3053546D02*
X-5799073Y3020072D01*
X-5799073Y3020072D02*
X-5809227Y2981354D01*
X-5809227Y2981354D02*
X-5818820Y2936265D01*
X-5818820Y2936265D02*
X-5828023Y2883678D01*
X-5828023Y2883678D02*
X-5830926Y2852025D01*
X-5830926Y2852025D02*
X-5829933Y2818440D01*
X-5829933Y2818440D02*
X-5825131Y2783356D01*
X-5825131Y2783356D02*
X-5816606Y2747209D01*
X-5816606Y2747209D02*
X-5804445Y2710436D01*
X-5804445Y2710436D02*
X-5788736Y2673473D01*
X-5788736Y2673473D02*
X-5769564Y2636753D01*
X-5769564Y2636753D02*
X-5747017Y2600715D01*
X-5747017Y2600715D02*
X-5721182Y2565792D01*
X-5721182Y2565792D02*
X-5692145Y2532421D01*
X-5692145Y2532421D02*
X-5659994Y2501038D01*
X-5659994Y2501038D02*
X-5624814Y2472078D01*
X-5624814Y2472078D02*
X-5586694Y2445978D01*
X-5586694Y2445978D02*
X-5551111Y2425971D01*
X-5551111Y2425971D02*
X-5514277Y2409046D01*
X-5514277Y2409046D02*
X-5476385Y2395222D01*
X-5476385Y2395222D02*
X-5437625Y2384522D01*
X-5437625Y2384522D02*
X-5398189Y2376965D01*
X-5398189Y2376965D02*
X-5358269Y2372574D01*
X-5358269Y2372574D02*
X-5318055Y2371368D01*
X-5318055Y2371368D02*
X-5277740Y2373370D01*
X-5277740Y2373370D02*
X-5237515Y2378599D01*
X-5237515Y2378599D02*
X-5197570Y2387078D01*
X-5197570Y2387078D02*
X-5157668Y2395546D01*
X-5157668Y2395546D02*
X-5117560Y2400751D01*
X-5117560Y2400751D02*
X-5077427Y2402725D01*
X-5077427Y2402725D02*
X-5037451Y2401498D01*
X-5037451Y2401498D02*
X-4997812Y2397103D01*
X-4997812Y2397103D02*
X-4958693Y2389569D01*
X-4958693Y2389569D02*
X-4920274Y2378928D01*
X-4920274Y2378928D02*
X-4882736Y2365212D01*
X-4882736Y2365212D02*
X-4846262Y2348451D01*
X-4846262Y2348451D02*
X-4811031Y2328678D01*
X-4811031Y2328678D02*
X-1736800Y429048D01*
X-1736800Y429048D02*
X-1738350Y426048D01*
X-1738350Y426048D02*
X-1705196Y403870D01*
X-1705196Y403870D02*
X-1674183Y379350D01*
X-1674183Y379350D02*
X-1645398Y352645D01*
X-1645398Y352645D02*
X-1618930Y323914D01*
X-1618930Y323914D02*
X-1594867Y293316D01*
X-1594867Y293316D02*
X-1573299Y261007D01*
X-1573299Y261007D02*
X-1554314Y227145D01*
X-1554314Y227145D02*
X-1538000Y191890D01*
X-1538000Y191890D02*
X-1524446Y155399D01*
X-1524446Y155399D02*
X-1513741Y117830D01*
X-1513741Y117830D02*
X-1505974Y79342D01*
X-1505974Y79342D02*
X-1501232Y40092D01*
X-1501232Y40092D02*
X-1499605Y238D01*
X-1499605Y238D02*
X-1501231Y-39618D01*
X-1501231Y-39618D02*
X-1505973Y-78871D01*
X-1505973Y-78871D02*
X-1513740Y-117361D01*
X-1513740Y-117361D02*
X-1524445Y-154931D01*
X-1524445Y-154931D02*
X-1537998Y-191423D01*
X-1537998Y-191423D02*
X-1554312Y-226679D01*
X-1554312Y-226679D02*
X-1573297Y-260540D01*
X-1573297Y-260540D02*
X-1594866Y-292850D01*
X-1594866Y-292850D02*
X-1618928Y-323449D01*
X-1618928Y-323449D02*
X-1645396Y-352180D01*
X-1645396Y-352180D02*
X-1674182Y-378884D01*
X-1674182Y-378884D02*
X-1705196Y-403405D01*
X-1705196Y-403405D02*
X-1738350Y-425582D01*
X-1738350Y-425582D02*
X-1736800Y-428582D01*
X-1736800Y-428582D02*
X-4811031Y-2328722D01*
X-4811031Y-2328722D02*
X-4846262Y-2348496D01*
X-4846262Y-2348496D02*
X-4882736Y-2365257D01*
X-4882736Y-2365257D02*
X-4920274Y-2378973D01*
X-4920274Y-2378973D02*
X-4958693Y-2389614D01*
X-4958693Y-2389614D02*
X-4997812Y-2397147D01*
X-4997812Y-2397147D02*
X-5037451Y-2401543D01*
X-5037451Y-2401543D02*
X-5077427Y-2402770D01*
X-5077427Y-2402770D02*
X-5117560Y-2400796D01*
X-5117560Y-2400796D02*
X-5157668Y-2395591D01*
X-5157668Y-2395591D02*
X-5197570Y-2387122D01*
X-5197570Y-2387122D02*
X-5237515Y-2378644D01*
X-5237515Y-2378644D02*
X-5277740Y-2373414D01*
X-5277740Y-2373414D02*
X-5318055Y-2371413D01*
X-5318055Y-2371413D02*
X-5358269Y-2372618D01*
X-5358269Y-2372618D02*
X-5398189Y-2377010D01*
X-5398189Y-2377010D02*
X-5437625Y-2384566D01*
X-5437625Y-2384566D02*
X-5476385Y-2395267D01*
X-5476385Y-2395267D02*
X-5514277Y-2409090D01*
X-5514277Y-2409090D02*
X-5551111Y-2426016D01*
X-5551111Y-2426016D02*
X-5586694Y-2446022D01*
X-5586694Y-2446022D02*
X-5624814Y-2472123D01*
X-5624814Y-2472123D02*
X-5659994Y-2501084D01*
X-5659994Y-2501084D02*
X-5692146Y-2532467D01*
X-5692146Y-2532467D02*
X-5721182Y-2565839D01*
X-5721182Y-2565839D02*
X-5747018Y-2600762D01*
X-5747018Y-2600762D02*
X-5769565Y-2636802D01*
X-5769565Y-2636802D02*
X-5788736Y-2673521D01*
X-5788736Y-2673521D02*
X-5804446Y-2710486D01*
X-5804446Y-2710486D02*
X-5816606Y-2747259D01*
X-5816606Y-2747259D02*
X-5825131Y-2783405D01*
X-5825131Y-2783405D02*
X-5829933Y-2818488D01*
X-5829933Y-2818488D02*
X-5830926Y-2852072D01*
X-5830926Y-2852072D02*
X-5828023Y-2883722D01*
X-5828023Y-2883722D02*
X-5818820Y-2936315D01*
X-5818820Y-2936315D02*
X-5809227Y-2981408D01*
X-5809227Y-2981408D02*
X-5799073Y-3020130D01*
X-5799073Y-3020130D02*
X-5788190Y-3053607D01*
X-5788190Y-3053607D02*
X-5776408Y-3082965D01*
X-5776408Y-3082965D02*
X-5763560Y-3109331D01*
X-5763560Y-3109331D02*
X-5749475Y-3133832D01*
X-5749475Y-3133832D02*
X-5372754Y-3743102D01*
X-5372754Y-3743102D02*
X-5357123Y-3766756D01*
X-5357123Y-3766756D02*
X-5339267Y-3790151D01*
X-5339267Y-3790151D02*
X-5318258Y-3813938D01*
X-5318258Y-3813938D02*
X-5293169Y-3838769D01*
X-5293169Y-3838769D02*
X-5263070Y-3865294D01*
X-5263070Y-3865294D02*
X-5227035Y-3894165D01*
X-5227035Y-3894165D02*
X-5184134Y-3926032D01*
X-5184134Y-3926032D02*
X-5154746Y-3944118D01*
X-5154746Y-3944118D02*
X-5121349Y-3959081D01*
X-5121349Y-3959081D02*
X-5084476Y-3970782D01*
X-5084476Y-3970782D02*
X-5044657Y-3979084D01*
X-5044657Y-3979084D02*
X-5002424Y-3983847D01*
X-5002424Y-3983847D02*
X-4958308Y-3984932D01*
X-4958308Y-3984932D02*
X-4924284Y-3983123D01*
X-4924284Y-3983123D02*
X-4889568Y-3979065D01*
X-4889568Y-3979065D02*
X-4854218Y-3972563D01*
X-4854218Y-3972563D02*
X-4818291Y-3963420D01*
X-4818291Y-3963420D02*
X-4781844Y-3951441D01*
X-4781844Y-3951441D02*
X-4744935Y-3936431D01*
X-4744935Y-3936431D02*
X-4707619Y-3918193D01*
X-4707619Y-3918193D02*
X-4669954Y-3896532D01*
X-4669954Y-3896532D02*
X-4640301Y-3876254D01*
X-4640301Y-3876254D02*
X-4611990Y-3852950D01*
X-4611990Y-3852950D02*
X-4585229Y-3826848D01*
X-4585229Y-3826848D02*
X-4560223Y-3798176D01*
X-4560223Y-3798176D02*
X-4537179Y-3767161D01*
X-4537179Y-3767161D02*
X-4516302Y-3734032D01*
X-4516302Y-3734032D02*
X-4497800Y-3699016D01*
X-4497800Y-3699016D02*
X-4481877Y-3662340D01*
X-4481877Y-3662340D02*
X-4468741Y-3624233D01*
X-4468741Y-3624233D02*
X-4458597Y-3584922D01*
X-4458597Y-3584922D02*
X-4447253Y-3541426D01*
X-4447253Y-3541426D02*
X-4432686Y-3499789D01*
X-4432686Y-3499789D02*
X-4415499Y-3460497D01*
X-4415499Y-3460497D02*
X-4396296Y-3424036D01*
X-4396296Y-3424036D02*
X-4375680Y-3390892D01*
X-4375680Y-3390892D02*
X-4354256Y-3361551D01*
X-4354256Y-3361551D02*
X-4332626Y-3336500D01*
X-4332626Y-3336500D02*
X-4311395Y-3316225D01*
X-4311395Y-3316225D02*
X-4291166Y-3301212D01*
X-4291166Y-3301212D02*
X-281075Y-822302D01*
X-281075Y-822302D02*
X-258337Y-808302D01*
X-258337Y-808302D02*
X-224012Y-788957D01*
X-224012Y-788957D02*
X-188411Y-772439D01*
X-188411Y-772439D02*
X-151708Y-758795D01*
X-151708Y-758795D02*
X-114078Y-748072D01*
X-114078Y-748072D02*
X-75696Y-740317D01*
X-75696Y-740317D02*
X-36735Y-735578D01*
X-36735Y-735578D02*
X2629Y-733902D01*
X2629Y-733902D02*
X40103Y-735338D01*
X40103Y-735338D02*
X77209Y-739553D01*
X77209Y-739553D02*
X113797Y-746504D01*
X113797Y-746504D02*
X149718Y-756145D01*
X149718Y-756145D02*
X184822Y-768430D01*
X184822Y-768430D02*
X218962Y-783315D01*
X218962Y-783315D02*
X251987Y-800754D01*
X251987Y-800754D02*
X283749Y-820702D01*
X283749Y-820702D02*
X4235445Y-3263452D01*
X4235445Y-3263452D02*
X4268754Y-3286255D01*
X4268754Y-3286255D02*
X4299928Y-3311483D01*
X4299928Y-3311483D02*
X4328858Y-3338989D01*
X4328858Y-3338989D02*
X4355433Y-3368624D01*
X4355433Y-3368624D02*
X4379541Y-3400239D01*
X4379541Y-3400239D02*
X4401072Y-3433685D01*
X4401072Y-3433685D02*
X4419915Y-3468814D01*
X4419915Y-3468814D02*
X4435958Y-3505477D01*
X4435958Y-3505477D02*
X4449092Y-3543526D01*
X4449092Y-3543526D02*
X4459204Y-3582812D01*
X4459204Y-3582812D02*
X4469346Y-3622118D01*
X4469346Y-3622118D02*
X4482548Y-3660245D01*
X4482548Y-3660245D02*
X4498699Y-3697030D01*
X4498699Y-3697030D02*
X4517688Y-3732310D01*
X4517688Y-3732310D02*
X4539405Y-3765920D01*
X4539405Y-3765920D02*
X4563740Y-3797697D01*
X4563740Y-3797697D02*
X4590580Y-3827478D01*
X4590580Y-3827478D02*
X4619816Y-3855098D01*
X4619816Y-3855098D02*
X4651336Y-3880394D01*
X4651336Y-3880394D02*
X4685030Y-3903202D01*
X4685030Y-3903202D02*
X4725433Y-3925688D01*
X4725433Y-3925688D02*
X4767071Y-3944255D01*
X4767071Y-3944255D02*
X4809514Y-3959020D01*
X4809514Y-3959020D02*
X4852336Y-3970100D01*
X4852336Y-3970100D02*
X4895109Y-3977613D01*
X4895109Y-3977613D02*
X4937406Y-3981677D01*
X4937406Y-3981677D02*
X4978799Y-3982409D01*
X4978799Y-3982409D02*
X5018860Y-3979926D01*
X5018860Y-3979926D02*
X5057162Y-3974346D01*
X5057162Y-3974346D02*
X5093277Y-3965786D01*
X5093277Y-3965786D02*
X5126777Y-3954364D01*
X5126777Y-3954364D02*
X5157236Y-3940197D01*
X5157236Y-3940197D02*
X5184225Y-3923402D01*
X5184225Y-3923402D02*
X5227121Y-3891554D01*
X5227121Y-3891554D02*
X5263155Y-3862690D01*
X5263155Y-3862690D02*
X5293253Y-3836164D01*
X5293253Y-3836164D02*
X5318344Y-3811327D01*
X5318344Y-3811327D02*
X5339354Y-3787531D01*
X5339354Y-3787531D02*
X5357212Y-3764129D01*
X5357212Y-3764129D02*
X5372844Y-3740472D01*
X5372844Y-3740472D02*
X5749565Y-3131202D01*
X5749565Y-3131202D02*
X5763543Y-3106800D01*
X5763543Y-3106800D02*
X5776324Y-3080500D01*
X5776324Y-3080500D02*
X5788075Y-3051175D01*
X5788075Y-3051175D02*
X5798963Y-3017698D01*
X5798963Y-3017698D02*
X5809154Y-2978944D01*
X5809154Y-2978944D02*
X5818815Y-2933784D01*
X5818815Y-2933784D02*
X5828113Y-2881092D01*
X5828113Y-2881092D02*
X5831158Y-2846658D01*
X5831158Y-2846658D02*
X5829728Y-2810072D01*
X5829728Y-2810072D02*
X5824029Y-2771946D01*
X5824029Y-2771946D02*
X5814267Y-2732893D01*
X5814267Y-2732893D02*
X5800649Y-2693523D01*
X5800649Y-2693523D02*
X5783382Y-2654447D01*
X5783382Y-2654447D02*
X5762671Y-2616279D01*
X5762671Y-2616279D02*
X5738724Y-2579629D01*
X5738724Y-2579629D02*
X5711745Y-2545108D01*
X5711745Y-2545108D02*
X5681942Y-2513329D01*
X5681942Y-2513329D02*
X5649522Y-2484904D01*
X5649522Y-2484904D02*
X5614689Y-2460442D01*
X5614689Y-2460442D02*
X5575533Y-2437819D01*
X5575533Y-2437819D02*
X5536558Y-2418508D01*
X5536558Y-2418508D02*
X5497786Y-2402451D01*
X5497786Y-2402451D02*
X5459241Y-2389588D01*
X5459241Y-2389588D02*
X5420944Y-2379858D01*
X5420944Y-2379858D02*
X5382919Y-2373203D01*
X5382919Y-2373203D02*
X5345188Y-2369561D01*
X5345188Y-2369561D02*
X5307774Y-2368874D01*
X5307774Y-2368874D02*
X5270700Y-2371082D01*
X5270700Y-2371082D02*
X5233988Y-2376125D01*
X5233988Y-2376125D02*
X5197660Y-2383942D01*
X5197660Y-2383942D02*
X5157758Y-2392411D01*
X5157758Y-2392411D02*
X5117650Y-2397616D01*
X5117650Y-2397616D02*
X5077517Y-2399590D01*
X5077517Y-2399590D02*
X5037541Y-2398363D01*
X5037541Y-2398363D02*
X4997902Y-2393967D01*
X4997902Y-2393967D02*
X4958783Y-2386434D01*
X4958783Y-2386434D02*
X4920364Y-2375793D01*
X4920364Y-2375793D02*
X4882827Y-2362077D01*
X4882827Y-2362077D02*
X4846352Y-2345316D01*
X4846352Y-2345316D02*
X4811121Y-2325542D01*
X4811121Y-2325542D02*
X1743091Y-429012D01*
X1743091Y-429012D02*
X1745671Y-425012D01*
X1745671Y-425012D02*
X1712518Y-402835D01*
X1712518Y-402835D02*
X1681504Y-378315D01*
X1681504Y-378315D02*
X1652719Y-351610D01*
X1652719Y-351610D02*
X1626251Y-322879D01*
X1626251Y-322879D02*
X1602189Y-292280D01*
X1602189Y-292280D02*
X1580621Y-259971D01*
X1580621Y-259971D02*
X1561636Y-226110D01*
X1561636Y-226110D02*
X1545322Y-190855D01*
X1545322Y-190855D02*
X1531768Y-154364D01*
X1531768Y-154364D02*
X1521063Y-116795D01*
X1521063Y-116795D02*
X1513295Y-78307D01*
X1513295Y-78307D02*
X1508553Y-39056D01*
X1508553Y-39056D02*
X1506926Y798D01*
X1506926Y798D02*
X1508526Y40630D01*
X1508526Y40630D02*
X1513237Y79862D01*
X1513237Y79862D02*
X1520971Y118335D01*
X1520971Y118335D02*
X1531640Y155892D01*
X1531640Y155892D02*
X1545156Y192374D01*
X1545156Y192374D02*
X1561430Y227625D01*
X1561430Y227625D02*
X1580373Y261485D01*
X1580373Y261485D02*
X1601898Y293798D01*
X1601898Y293798D02*
X1625916Y324405D01*
X1625916Y324405D02*
X1652339Y353148D01*
X1652339Y353148D02*
X1681079Y379870D01*
X1681079Y379870D02*
X1712047Y404412D01*
X1712047Y404412D02*
X1745154Y426618D01*
X1745154Y426618D02*
X1743604Y429618D01*
X1743604Y429618D02*
X4811117Y2325618D01*
X4811117Y2325618D02*
X4846348Y2345391D01*
X4846348Y2345391D02*
X4882823Y2362152D01*
X4882823Y2362152D02*
X4920361Y2375868D01*
X4920361Y2375868D02*
X4958780Y2386509D01*
X4958780Y2386509D02*
X4997899Y2394043D01*
X4997899Y2394043D02*
X5037537Y2398438D01*
X5037537Y2398438D02*
X5077513Y2399665D01*
X5077513Y2399665D02*
X5117646Y2397691D01*
X5117646Y2397691D02*
X5157755Y2392486D01*
X5157755Y2392486D02*
X5197657Y2384018D01*
X5197657Y2384018D02*
X5233984Y2376195D01*
X5233984Y2376195D02*
X5270696Y2371150D01*
X5270696Y2371150D02*
X5307771Y2368941D01*
X5307771Y2368941D02*
X5345185Y2369628D01*
X5345185Y2369628D02*
X5382915Y2373270D01*
X5382915Y2373270D02*
X5420941Y2379927D01*
X5420941Y2379927D02*
X5459237Y2389658D01*
X5459237Y2389658D02*
X5497783Y2402523D01*
X5497783Y2402523D02*
X5536555Y2418582D01*
X5536555Y2418582D02*
X5575530Y2437894D01*
X5575530Y2437894D02*
X5614686Y2460518D01*
X5614686Y2460518D02*
X5649518Y2484979D01*
X5649518Y2484979D02*
X5681939Y2513405D01*
X5681939Y2513405D02*
X5711742Y2545184D01*
X5711742Y2545184D02*
X5738720Y2579704D01*
X5738720Y2579704D02*
X5762668Y2616354D01*
X5762668Y2616354D02*
X5783379Y2654523D01*
X5783379Y2654523D02*
X5800646Y2693598D01*
X5800646Y2693598D02*
X5814264Y2732968D01*
X5814264Y2732968D02*
X5824025Y2772022D01*
X5824025Y2772022D02*
X5829724Y2810147D01*
X5829724Y2810147D02*
X5831154Y2846733D01*
X5831154Y2846733D02*
X5828110Y2881168D01*
X5828110Y2881168D02*
X5818812Y2933856D01*
X5818812Y2933856D02*
X5809151Y2979010D01*
X5809151Y2979010D02*
X5798960Y3017758D01*
X5798960Y3017758D02*
X5788072Y3051229D01*
X5788072Y3051229D02*
X5776321Y3080553D01*
X5776321Y3080553D02*
X5763539Y3106860D01*
X5763539Y3106860D02*
X5749562Y3131278D01*
X5749562Y3131278D02*
X5372845Y3740938D01*
X5372845Y3740938D02*
X5357213Y3764592D01*
X5357213Y3764592D02*
X5339355Y3787988D01*
X5339355Y3787988D02*
X5318345Y3811777D01*
X5318345Y3811777D02*
X5293254Y3836608D01*
X5293254Y3836608D02*
X5263156Y3863134D01*
X5263156Y3863134D02*
X5227122Y3892003D01*
X5227122Y3892003D02*
X5184226Y3923868D01*
X5184226Y3923868D02*
X5157237Y3940654D01*
X5157237Y3940654D02*
X5126778Y3954798D01*
X5126778Y3954798D02*
X5093278Y3966184D01*
X5093278Y3966184D02*
X5057163Y3974699D01*
X5057163Y3974699D02*
X5018861Y3980226D01*
X5018861Y3980226D02*
X4978800Y3982653D01*
X4978800Y3982653D02*
X4937407Y3981864D01*
X4937407Y3981864D02*
X4895110Y3977744D01*
X4895110Y3977744D02*
X4852337Y3970178D01*
X4852337Y3970178D02*
X4809515Y3959052D01*
X4809515Y3959052D02*
X4767072Y3944252D01*
X4767072Y3944252D02*
X4725435Y3925662D01*
X4725435Y3925662D02*
X4685031Y3903168D01*
X4685031Y3903168D02*
X4651337Y3880359D01*
X4651337Y3880359D02*
X4619817Y3855063D01*
X4619817Y3855063D02*
X4590581Y3827443D01*
X4590581Y3827443D02*
X4563741Y3797662D01*
X4563741Y3797662D02*
X4539406Y3765885D01*
X4539406Y3765885D02*
X4517689Y3732275D01*
X4517689Y3732275D02*
X4498700Y3696995D01*
X4498700Y3696995D02*
X4482549Y3660210D01*
X4482549Y3660210D02*
X4469347Y3622083D01*
X4469347Y3622083D02*
X4459205Y3582778D01*
X4459205Y3582778D02*
X4449093Y3543491D01*
X4449093Y3543491D02*
X4435960Y3505442D01*
X4435960Y3505442D02*
X4419916Y3468777D01*
X4419916Y3468777D02*
X4401073Y3433647D01*
X4401073Y3433647D02*
X4379542Y3400200D01*
X4379542Y3400200D02*
X4355434Y3368585D01*
X4355434Y3368585D02*
X4328859Y3338950D01*
X4328859Y3338950D02*
X4299929Y3311445D01*
X4299929Y3311445D02*
X4268755Y3286218D01*
X4268755Y3286218D02*
X4235446Y3263418D01*
X4235446Y3263418D02*
X262562Y807748D01*
X262562Y807748D02*
X261529Y809748D01*
X261529Y809748D02*
X227137Y790366D01*
X227137Y790366D02*
X191464Y773823D01*
X191464Y773823D02*
X154687Y760166D01*
X154687Y760166D02*
X116981Y749443D01*
X116981Y749443D02*
X78522Y741701D01*
X78522Y741701D02*
X39484Y736987D01*
X39484Y736987D02*
X45Y735348D01*
X45Y735348D02*
X-37430Y736786D01*
X-37430Y736786D02*
X-74536Y741003D01*
X-74536Y741003D02*
X-111124Y747954D01*
X-111124Y747954D02*
X-147045Y757594D01*
X-147045Y757594D02*
X-182150Y769878D01*
X-182150Y769878D02*
X-216289Y784762D01*
X-216289Y784762D02*
X-249314Y802200D01*
X-249314Y802200D02*
X-281075Y822148D01*
X-281075Y822148D02*
X-4291166Y3301058D01*
X-4291166Y3301058D02*
X-4311395Y3316099D01*
X-4311395Y3316099D02*
X-4332626Y3336426D01*
X-4332626Y3336426D02*
X-4354256Y3361547D01*
X-4354256Y3361547D02*
X-4375680Y3390967D01*
X-4375680Y3390967D02*
X-4396296Y3424193D01*
X-4396296Y3424193D02*
X-4415499Y3460732D01*
X-4415499Y3460732D02*
X-4432686Y3500089D01*
X-4432686Y3500089D02*
X-4447253Y3541772D01*
X-4447253Y3541772D02*
X-4458597Y3585288D01*
X-4458597Y3585288D02*
X-4468741Y3624580D01*
X-4468741Y3624580D02*
X-4481877Y3662643D01*
X-4481877Y3662643D02*
X-4497800Y3699255D01*
X-4497800Y3699255D02*
X-4516302Y3734195D01*
X-4516302Y3734195D02*
X-4537179Y3767244D01*
X-4537179Y3767244D02*
X-4560223Y3798179D01*
X-4560223Y3798179D02*
X-4585229Y3826781D01*
X-4585229Y3826781D02*
X-4611990Y3852829D01*
X-4611990Y3852829D02*
X-4640301Y3876101D01*
X-4640301Y3876101D02*
X-4669954Y3896378D01*
X-4669954Y3896378D02*
X-4707619Y3917997D01*
X-4707619Y3917997D02*
X-4744935Y3936248D01*
X-4744935Y3936248D02*
X-4781844Y3951304D01*
X-4781844Y3951304D02*
X-4818291Y3963340D01*
X-4818291Y3963340D02*
X-4854218Y3972531D01*
X-4854218Y3972531D02*
X-4889568Y3979051D01*
X-4889568Y3979051D02*
X-4924284Y3983075D01*
X-4924284Y3983075D02*
X-4958308Y3984778D01*
X-4958308Y3984778D02*
X-4958308Y3984888D01*
M02*
