G04 #@! TF.GenerationSoftware,KiCad,Pcbnew,5.0.2+dfsg1-1*
G04 #@! TF.CreationDate,2021-09-10T13:16:56+02:00*
G04 #@! TF.ProjectId,edgedriver,65646765-6472-4697-9665-722e6b696361,rev?*
G04 #@! TF.SameCoordinates,Original*
G04 #@! TF.FileFunction,Legend,Bot*
G04 #@! TF.FilePolarity,Positive*
%FSLAX46Y46*%
G04 Gerber Fmt 4.6, Leading zero omitted, Abs format (unit mm)*
G04 Created by KiCad (PCBNEW 5.0.2+dfsg1-1) date Fri 10 Sep 2021 01:16:56 PM CEST*
%MOMM*%
%LPD*%
G01*
G04 APERTURE LIST*
%ADD10C,0.300000*%
%ADD11C,0.150000*%
G04 APERTURE END LIST*
D10*
X-20071428Y15221428D02*
X-20071428Y14150000D01*
X-20000000Y13935714D01*
X-19857142Y13792857D01*
X-19642857Y13721428D01*
X-19500000Y13721428D01*
X-21500000Y13721428D02*
X-20785714Y13721428D01*
X-20785714Y15221428D01*
X-22857142Y13864285D02*
X-22785714Y13792857D01*
X-22571428Y13721428D01*
X-22428571Y13721428D01*
X-22214285Y13792857D01*
X-22071428Y13935714D01*
X-22000000Y14078571D01*
X-21928571Y14364285D01*
X-21928571Y14578571D01*
X-22000000Y14864285D01*
X-22071428Y15007142D01*
X-22214285Y15150000D01*
X-22428571Y15221428D01*
X-22571428Y15221428D01*
X-22785714Y15150000D01*
X-22857142Y15078571D01*
X-23928571Y15221428D02*
X-23928571Y14150000D01*
X-23857142Y13935714D01*
X-23714285Y13792857D01*
X-23500000Y13721428D01*
X-23357142Y13721428D01*
X-25357142Y13721428D02*
X-24642857Y13721428D01*
X-24642857Y15221428D01*
X-26714285Y13864285D02*
X-26642857Y13792857D01*
X-26428571Y13721428D01*
X-26285714Y13721428D01*
X-26071428Y13792857D01*
X-25928571Y13935714D01*
X-25857142Y14078571D01*
X-25785714Y14364285D01*
X-25785714Y14578571D01*
X-25857142Y14864285D01*
X-25928571Y15007142D01*
X-26071428Y15150000D01*
X-26285714Y15221428D01*
X-26428571Y15221428D01*
X-26642857Y15150000D01*
X-26714285Y15078571D01*
X-27785714Y15221428D02*
X-27785714Y14150000D01*
X-27714285Y13935714D01*
X-27571428Y13792857D01*
X-27357142Y13721428D01*
X-27214285Y13721428D01*
X-29214285Y13721428D02*
X-28500000Y13721428D01*
X-28500000Y15221428D01*
X-30571428Y13864285D02*
X-30500000Y13792857D01*
X-30285714Y13721428D01*
X-30142857Y13721428D01*
X-29928571Y13792857D01*
X-29785714Y13935714D01*
X-29714285Y14078571D01*
X-29642857Y14364285D01*
X-29642857Y14578571D01*
X-29714285Y14864285D01*
X-29785714Y15007142D01*
X-29928571Y15150000D01*
X-30142857Y15221428D01*
X-30285714Y15221428D01*
X-30500000Y15150000D01*
X-30571428Y15078571D01*
X-31642857Y15221428D02*
X-31642857Y14150000D01*
X-31571428Y13935714D01*
X-31428571Y13792857D01*
X-31214285Y13721428D01*
X-31071428Y13721428D01*
X-33071428Y13721428D02*
X-32357142Y13721428D01*
X-32357142Y15221428D01*
X-34428571Y13864285D02*
X-34357142Y13792857D01*
X-34142857Y13721428D01*
X-34000000Y13721428D01*
X-33785714Y13792857D01*
X-33642857Y13935714D01*
X-33571428Y14078571D01*
X-33500000Y14364285D01*
X-33500000Y14578571D01*
X-33571428Y14864285D01*
X-33642857Y15007142D01*
X-33785714Y15150000D01*
X-34000000Y15221428D01*
X-34142857Y15221428D01*
X-34357142Y15150000D01*
X-34428571Y15078571D01*
G04 #@! TO.C,*
D11*
G04 #@! TD*
M02*
