G04 #@! TF.GenerationSoftware,KiCad,Pcbnew,5.0.2+dfsg1-1*
G04 #@! TF.CreationDate,2021-09-10T13:16:56+02:00*
G04 #@! TF.ProjectId,edgedriver,65646765-6472-4697-9665-722e6b696361,rev?*
G04 #@! TF.SameCoordinates,Original*
G04 #@! TF.FileFunction,Soldermask,Top*
G04 #@! TF.FilePolarity,Negative*
%FSLAX46Y46*%
G04 Gerber Fmt 4.6, Leading zero omitted, Abs format (unit mm)*
G04 Created by KiCad (PCBNEW 5.0.2+dfsg1-1) date Fri 10 Sep 2021 01:16:56 PM CEST*
%MOMM*%
%LPD*%
G01*
G04 APERTURE LIST*
%ADD10C,0.010000*%
%ADD11C,0.100000*%
G04 APERTURE END LIST*
D10*
G04 #@! TO.C,U1*
G36*
X2478281Y-15287868D02*
X3418733Y-16228320D01*
X2478281Y-17168772D01*
X1537829Y-16228320D01*
X2478281Y-15287868D01*
G37*
X2478281Y-15287868D02*
X3418733Y-16228320D01*
X2478281Y-17168772D01*
X1537829Y-16228320D01*
X2478281Y-15287868D01*
G36*
X1180740Y-13990327D02*
X2121192Y-14930779D01*
X1180740Y-15871231D01*
X240288Y-14930779D01*
X1180740Y-13990327D01*
G37*
X1180740Y-13990327D02*
X2121192Y-14930779D01*
X1180740Y-15871231D01*
X240288Y-14930779D01*
X1180740Y-13990327D01*
G36*
X3775822Y-16585409D02*
X4716274Y-17525861D01*
X3775822Y-18466313D01*
X2835370Y-17525861D01*
X3775822Y-16585409D01*
G37*
X3775822Y-16585409D02*
X4716274Y-17525861D01*
X3775822Y-18466313D01*
X2835370Y-17525861D01*
X3775822Y-16585409D01*
G36*
X5073363Y-15287868D02*
X6013815Y-16228320D01*
X5073363Y-17168772D01*
X4132911Y-16228320D01*
X5073363Y-15287868D01*
G37*
X5073363Y-15287868D02*
X6013815Y-16228320D01*
X5073363Y-17168772D01*
X4132911Y-16228320D01*
X5073363Y-15287868D01*
G36*
X3775822Y-13990327D02*
X4716274Y-14930779D01*
X3775822Y-15871231D01*
X2835370Y-14930779D01*
X3775822Y-13990327D01*
G37*
X3775822Y-13990327D02*
X4716274Y-14930779D01*
X3775822Y-15871231D01*
X2835370Y-14930779D01*
X3775822Y-13990327D01*
G36*
X2478281Y-12692786D02*
X3418733Y-13633238D01*
X2478281Y-14573690D01*
X1537829Y-13633238D01*
X2478281Y-12692786D01*
G37*
X2478281Y-12692786D02*
X3418733Y-13633238D01*
X2478281Y-14573690D01*
X1537829Y-13633238D01*
X2478281Y-12692786D01*
G36*
X-116801Y-15287868D02*
X823652Y-16228320D01*
X-116801Y-17168772D01*
X-1057253Y-16228320D01*
X-116801Y-15287868D01*
G37*
X-116801Y-15287868D02*
X823652Y-16228320D01*
X-116801Y-17168772D01*
X-1057253Y-16228320D01*
X-116801Y-15287868D01*
G36*
X1180740Y-16585409D02*
X2121192Y-17525861D01*
X1180740Y-18466313D01*
X240288Y-17525861D01*
X1180740Y-16585409D01*
G37*
X1180740Y-16585409D02*
X2121192Y-17525861D01*
X1180740Y-18466313D01*
X240288Y-17525861D01*
X1180740Y-16585409D01*
G36*
X2478281Y-17882950D02*
X3418733Y-18823402D01*
X2478281Y-19763854D01*
X1537829Y-18823402D01*
X2478281Y-17882950D01*
G37*
X2478281Y-17882950D02*
X3418733Y-18823402D01*
X2478281Y-19763854D01*
X1537829Y-18823402D01*
X2478281Y-17882950D01*
D11*
G36*
X-567935Y-34195904D02*
X-1276456Y-34904425D01*
X-2762795Y-33418086D01*
X-2054274Y-32709565D01*
X-567935Y-34195904D01*
X-567935Y-34195904D01*
G37*
G36*
X-12168467Y-30203227D02*
X-12105609Y-30223803D01*
X-12047973Y-30256246D01*
X-11997768Y-30299315D01*
X-11956937Y-30351341D01*
X-11927038Y-30410338D01*
X-11907561Y-30479981D01*
X-11478747Y-32911912D01*
X-11406805Y-33319913D01*
X-11314777Y-33841834D01*
X-11309260Y-33913939D01*
X-11317177Y-33979603D01*
X-11337753Y-34042461D01*
X-11370196Y-34100097D01*
X-11413265Y-34150302D01*
X-11465291Y-34191133D01*
X-11524288Y-34221032D01*
X-11593931Y-34240509D01*
X-11935208Y-34300685D01*
X-12438263Y-34389387D01*
X-12438266Y-34389387D01*
X-12493764Y-34399173D01*
X-12565869Y-34404690D01*
X-12631533Y-34396773D01*
X-12694391Y-34376197D01*
X-12752027Y-34343754D01*
X-12802232Y-34300685D01*
X-12843063Y-34248659D01*
X-12872962Y-34189662D01*
X-12892439Y-34120019D01*
X-13424653Y-31101678D01*
X-13475437Y-30813667D01*
X-13475437Y-30813664D01*
X-13485223Y-30758166D01*
X-13490740Y-30686061D01*
X-13482823Y-30620397D01*
X-13462247Y-30557539D01*
X-13429804Y-30499903D01*
X-13386735Y-30449698D01*
X-13334709Y-30408867D01*
X-13275712Y-30378968D01*
X-13206069Y-30359491D01*
X-12693598Y-30269129D01*
X-12361737Y-30210613D01*
X-12361734Y-30210613D01*
X-12306236Y-30200827D01*
X-12234131Y-30195310D01*
X-12168467Y-30203227D01*
X-12168467Y-30203227D01*
G37*
G36*
X330091Y-33297877D02*
X-378430Y-34006398D01*
X-1864769Y-32520059D01*
X-1156248Y-31811538D01*
X330091Y-33297877D01*
X330091Y-33297877D01*
G37*
G36*
X-15216850Y-29454766D02*
X-15152126Y-29468376D01*
X-15091300Y-29494352D01*
X-15031622Y-29535176D01*
X-14988448Y-29571403D01*
X-14988444Y-29571406D01*
X-14374842Y-30086279D01*
X-14374833Y-30086288D01*
X-14331662Y-30122513D01*
X-14281096Y-30174194D01*
X-14244954Y-30229584D01*
X-14220310Y-30290965D01*
X-14208115Y-30355969D01*
X-14208837Y-30422110D01*
X-14222447Y-30486834D01*
X-14248422Y-30547659D01*
X-14289252Y-30607346D01*
X-16483547Y-33222404D01*
X-16535232Y-33272973D01*
X-16590625Y-33309118D01*
X-16652004Y-33333761D01*
X-16717009Y-33345956D01*
X-16783150Y-33345234D01*
X-16847874Y-33331624D01*
X-16908700Y-33305648D01*
X-16968378Y-33264824D01*
X-17011552Y-33228597D01*
X-17011556Y-33228594D01*
X-17625158Y-32713721D01*
X-17625167Y-32713712D01*
X-17668338Y-32677487D01*
X-17718904Y-32625806D01*
X-17755046Y-32570416D01*
X-17779690Y-32509035D01*
X-17791885Y-32444031D01*
X-17791163Y-32377890D01*
X-17777553Y-32313166D01*
X-17751578Y-32252341D01*
X-17710748Y-32192654D01*
X-15516453Y-29577596D01*
X-15464768Y-29527027D01*
X-15409375Y-29490882D01*
X-15347996Y-29466239D01*
X-15282991Y-29454044D01*
X-15216850Y-29454766D01*
X-15216850Y-29454766D01*
G37*
G36*
X1228118Y-32399852D02*
X519597Y-33108373D01*
X-966742Y-31622034D01*
X-258221Y-30913513D01*
X1228118Y-32399852D01*
X1228118Y-32399852D01*
G37*
G36*
X-10226334Y-30167235D02*
X-10186486Y-30179323D01*
X-10149766Y-30198950D01*
X-10112805Y-30229283D01*
X-8229283Y-32112805D01*
X-8198950Y-32149766D01*
X-8179323Y-32186486D01*
X-8167235Y-32226334D01*
X-8163154Y-32267767D01*
X-8167235Y-32309200D01*
X-8179323Y-32349048D01*
X-8198950Y-32385768D01*
X-8229283Y-32422729D01*
X-8698591Y-32892037D01*
X-8735552Y-32922370D01*
X-8772272Y-32941997D01*
X-8812120Y-32954085D01*
X-8853553Y-32958166D01*
X-8894986Y-32954085D01*
X-8934834Y-32941997D01*
X-8971554Y-32922370D01*
X-9008515Y-32892037D01*
X-10892037Y-31008515D01*
X-10922370Y-30971554D01*
X-10941997Y-30934834D01*
X-10954085Y-30894986D01*
X-10958166Y-30853553D01*
X-10954085Y-30812120D01*
X-10941997Y-30772272D01*
X-10922370Y-30735552D01*
X-10892037Y-30698591D01*
X-10422729Y-30229283D01*
X-10385768Y-30198950D01*
X-10349048Y-30179323D01*
X-10309200Y-30167235D01*
X-10267767Y-30163154D01*
X-10226334Y-30167235D01*
X-10226334Y-30167235D01*
G37*
G36*
X2126142Y-31501827D02*
X1417621Y-32210348D01*
X-68718Y-30724009D01*
X639803Y-30015488D01*
X2126142Y-31501827D01*
X2126142Y-31501827D01*
G37*
G36*
X-9165674Y-29106575D02*
X-9125826Y-29118663D01*
X-9089106Y-29138290D01*
X-9052145Y-29168623D01*
X-7168623Y-31052145D01*
X-7138290Y-31089106D01*
X-7118663Y-31125826D01*
X-7106575Y-31165674D01*
X-7102494Y-31207107D01*
X-7106575Y-31248540D01*
X-7118663Y-31288388D01*
X-7138290Y-31325108D01*
X-7168623Y-31362069D01*
X-7637931Y-31831377D01*
X-7674892Y-31861710D01*
X-7711612Y-31881337D01*
X-7751460Y-31893425D01*
X-7792893Y-31897506D01*
X-7834326Y-31893425D01*
X-7874174Y-31881337D01*
X-7910894Y-31861710D01*
X-7947855Y-31831377D01*
X-9831377Y-29947855D01*
X-9861710Y-29910894D01*
X-9881337Y-29874174D01*
X-9893425Y-29834326D01*
X-9897506Y-29792893D01*
X-9893425Y-29751460D01*
X-9881337Y-29711612D01*
X-9861710Y-29674892D01*
X-9831377Y-29637931D01*
X-9362069Y-29168623D01*
X-9325108Y-29138290D01*
X-9288388Y-29118663D01*
X-9248540Y-29106575D01*
X-9207107Y-29102494D01*
X-9165674Y-29106575D01*
X-9165674Y-29106575D01*
G37*
G36*
X3024168Y-30603801D02*
X2315647Y-31312322D01*
X829308Y-29825983D01*
X1537829Y-29117462D01*
X3024168Y-30603801D01*
X3024168Y-30603801D01*
G37*
G36*
X3922194Y-29705776D02*
X3213673Y-30414297D01*
X1727334Y-28927958D01*
X2435855Y-28219437D01*
X3922194Y-29705776D01*
X3922194Y-29705776D01*
G37*
G36*
X-20028062Y-29231716D02*
X-20007444Y-29237970D01*
X-19988444Y-29248126D01*
X-19971792Y-29261792D01*
X-19958126Y-29278444D01*
X-19947970Y-29297444D01*
X-19941716Y-29318062D01*
X-19939000Y-29345640D01*
X-19939000Y-29854360D01*
X-19941716Y-29881938D01*
X-19947970Y-29902556D01*
X-19958126Y-29921556D01*
X-19971792Y-29938208D01*
X-19988444Y-29951874D01*
X-20007444Y-29962030D01*
X-20028062Y-29968284D01*
X-20055640Y-29971000D01*
X-20514360Y-29971000D01*
X-20541938Y-29968284D01*
X-20562556Y-29962030D01*
X-20581556Y-29951874D01*
X-20598208Y-29938208D01*
X-20611874Y-29921556D01*
X-20622030Y-29902556D01*
X-20628284Y-29881938D01*
X-20631000Y-29854360D01*
X-20631000Y-29345640D01*
X-20628284Y-29318062D01*
X-20622030Y-29297444D01*
X-20611874Y-29278444D01*
X-20598208Y-29261792D01*
X-20581556Y-29248126D01*
X-20562556Y-29237970D01*
X-20541938Y-29231716D01*
X-20514360Y-29229000D01*
X-20055640Y-29229000D01*
X-20028062Y-29231716D01*
X-20028062Y-29231716D01*
G37*
G36*
X-19058062Y-29231716D02*
X-19037444Y-29237970D01*
X-19018444Y-29248126D01*
X-19001792Y-29261792D01*
X-18988126Y-29278444D01*
X-18977970Y-29297444D01*
X-18971716Y-29318062D01*
X-18969000Y-29345640D01*
X-18969000Y-29854360D01*
X-18971716Y-29881938D01*
X-18977970Y-29902556D01*
X-18988126Y-29921556D01*
X-19001792Y-29938208D01*
X-19018444Y-29951874D01*
X-19037444Y-29962030D01*
X-19058062Y-29968284D01*
X-19085640Y-29971000D01*
X-19544360Y-29971000D01*
X-19571938Y-29968284D01*
X-19592556Y-29962030D01*
X-19611556Y-29951874D01*
X-19628208Y-29938208D01*
X-19641874Y-29921556D01*
X-19652030Y-29902556D01*
X-19658284Y-29881938D01*
X-19661000Y-29854360D01*
X-19661000Y-29345640D01*
X-19658284Y-29318062D01*
X-19652030Y-29297444D01*
X-19641874Y-29278444D01*
X-19628208Y-29261792D01*
X-19611556Y-29248126D01*
X-19592556Y-29237970D01*
X-19571938Y-29231716D01*
X-19544360Y-29229000D01*
X-19085640Y-29229000D01*
X-19058062Y-29231716D01*
X-19058062Y-29231716D01*
G37*
G36*
X4820219Y-28807750D02*
X4111698Y-29516271D01*
X2625359Y-28029932D01*
X3333880Y-27321411D01*
X4820219Y-28807750D01*
X4820219Y-28807750D01*
G37*
G36*
X-24618062Y-28019716D02*
X-24597444Y-28025970D01*
X-24578444Y-28036126D01*
X-24561792Y-28049792D01*
X-24548126Y-28066444D01*
X-24537970Y-28085444D01*
X-24531716Y-28106062D01*
X-24529000Y-28133640D01*
X-24529000Y-28592360D01*
X-24531716Y-28619938D01*
X-24537970Y-28640556D01*
X-24548126Y-28659556D01*
X-24561792Y-28676208D01*
X-24578444Y-28689874D01*
X-24597444Y-28700030D01*
X-24618062Y-28706284D01*
X-24645640Y-28709000D01*
X-25154360Y-28709000D01*
X-25181938Y-28706284D01*
X-25202556Y-28700030D01*
X-25221556Y-28689874D01*
X-25238208Y-28676208D01*
X-25251874Y-28659556D01*
X-25262030Y-28640556D01*
X-25268284Y-28619938D01*
X-25271000Y-28592360D01*
X-25271000Y-28133640D01*
X-25268284Y-28106062D01*
X-25262030Y-28085444D01*
X-25251874Y-28066444D01*
X-25238208Y-28049792D01*
X-25221556Y-28036126D01*
X-25202556Y-28025970D01*
X-25181938Y-28019716D01*
X-25154360Y-28017000D01*
X-24645640Y-28017000D01*
X-24618062Y-28019716D01*
X-24618062Y-28019716D01*
G37*
G36*
X5718245Y-27909724D02*
X5009724Y-28618245D01*
X3523385Y-27131906D01*
X4231906Y-26423385D01*
X5718245Y-27909724D01*
X5718245Y-27909724D01*
G37*
G36*
X-17381000Y-28556000D02*
X-23783000Y-28556000D01*
X-23783000Y-27004000D01*
X-17381000Y-27004000D01*
X-17381000Y-28556000D01*
X-17381000Y-28556000D01*
G37*
G36*
X-24618062Y-27049716D02*
X-24597444Y-27055970D01*
X-24578444Y-27066126D01*
X-24561792Y-27079792D01*
X-24548126Y-27096444D01*
X-24537970Y-27115444D01*
X-24531716Y-27136062D01*
X-24529000Y-27163640D01*
X-24529000Y-27622360D01*
X-24531716Y-27649938D01*
X-24537970Y-27670556D01*
X-24548126Y-27689556D01*
X-24561792Y-27706208D01*
X-24578444Y-27719874D01*
X-24597444Y-27730030D01*
X-24618062Y-27736284D01*
X-24645640Y-27739000D01*
X-25154360Y-27739000D01*
X-25181938Y-27736284D01*
X-25202556Y-27730030D01*
X-25221556Y-27719874D01*
X-25238208Y-27706208D01*
X-25251874Y-27689556D01*
X-25262030Y-27670556D01*
X-25268284Y-27649938D01*
X-25271000Y-27622360D01*
X-25271000Y-27163640D01*
X-25268284Y-27136062D01*
X-25262030Y-27115444D01*
X-25251874Y-27096444D01*
X-25238208Y-27079792D01*
X-25221556Y-27066126D01*
X-25202556Y-27055970D01*
X-25181938Y-27049716D01*
X-25154360Y-27047000D01*
X-24645640Y-27047000D01*
X-24618062Y-27049716D01*
X-24618062Y-27049716D01*
G37*
G36*
X6616271Y-27011699D02*
X5907750Y-27720220D01*
X4421411Y-26233881D01*
X5129932Y-25525360D01*
X6616271Y-27011699D01*
X6616271Y-27011699D01*
G37*
G36*
X7514296Y-26113673D02*
X6805775Y-26822194D01*
X5319436Y-25335855D01*
X6027957Y-24627334D01*
X7514296Y-26113673D01*
X7514296Y-26113673D01*
G37*
G36*
X-24618062Y-25733716D02*
X-24597444Y-25739970D01*
X-24578444Y-25750126D01*
X-24561792Y-25763792D01*
X-24548126Y-25780444D01*
X-24537970Y-25799444D01*
X-24531716Y-25820062D01*
X-24529000Y-25847640D01*
X-24529000Y-26306360D01*
X-24531716Y-26333938D01*
X-24537970Y-26354556D01*
X-24548126Y-26373556D01*
X-24561792Y-26390208D01*
X-24578444Y-26403874D01*
X-24597444Y-26414030D01*
X-24618062Y-26420284D01*
X-24645640Y-26423000D01*
X-25154360Y-26423000D01*
X-25181938Y-26420284D01*
X-25202556Y-26414030D01*
X-25221556Y-26403874D01*
X-25238208Y-26390208D01*
X-25251874Y-26373556D01*
X-25262030Y-26354556D01*
X-25268284Y-26333938D01*
X-25271000Y-26306360D01*
X-25271000Y-25847640D01*
X-25268284Y-25820062D01*
X-25262030Y-25799444D01*
X-25251874Y-25780444D01*
X-25238208Y-25763792D01*
X-25221556Y-25750126D01*
X-25202556Y-25739970D01*
X-25181938Y-25733716D01*
X-25154360Y-25731000D01*
X-24645640Y-25731000D01*
X-24618062Y-25733716D01*
X-24618062Y-25733716D01*
G37*
G36*
X8412322Y-25215648D02*
X7703801Y-25924169D01*
X6217462Y-24437830D01*
X6925983Y-23729309D01*
X8412322Y-25215648D01*
X8412322Y-25215648D01*
G37*
G36*
X-24618062Y-24763716D02*
X-24597444Y-24769970D01*
X-24578444Y-24780126D01*
X-24561792Y-24793792D01*
X-24548126Y-24810444D01*
X-24537970Y-24829444D01*
X-24531716Y-24850062D01*
X-24529000Y-24877640D01*
X-24529000Y-25336360D01*
X-24531716Y-25363938D01*
X-24537970Y-25384556D01*
X-24548126Y-25403556D01*
X-24561792Y-25420208D01*
X-24578444Y-25433874D01*
X-24597444Y-25444030D01*
X-24618062Y-25450284D01*
X-24645640Y-25453000D01*
X-25154360Y-25453000D01*
X-25181938Y-25450284D01*
X-25202556Y-25444030D01*
X-25221556Y-25433874D01*
X-25238208Y-25420208D01*
X-25251874Y-25403556D01*
X-25262030Y-25384556D01*
X-25268284Y-25363938D01*
X-25271000Y-25336360D01*
X-25271000Y-24877640D01*
X-25268284Y-24850062D01*
X-25262030Y-24829444D01*
X-25251874Y-24810444D01*
X-25238208Y-24793792D01*
X-25221556Y-24780126D01*
X-25202556Y-24769970D01*
X-25181938Y-24763716D01*
X-25154360Y-24761000D01*
X-24645640Y-24761000D01*
X-24618062Y-24763716D01*
X-24618062Y-24763716D01*
G37*
G36*
X9310347Y-24317622D02*
X8601826Y-25026143D01*
X7115487Y-23539804D01*
X7824008Y-22831283D01*
X9310347Y-24317622D01*
X9310347Y-24317622D01*
G37*
G36*
X10208373Y-23419596D02*
X9499852Y-24128117D01*
X8013513Y-22641778D01*
X8722034Y-21933257D01*
X10208373Y-23419596D01*
X10208373Y-23419596D01*
G37*
G36*
X11106399Y-22521571D02*
X10397878Y-23230092D01*
X8911539Y-21743753D01*
X9620060Y-21035232D01*
X11106399Y-22521571D01*
X11106399Y-22521571D01*
G37*
G36*
X-12588750Y-22175088D02*
X-13297271Y-22883609D01*
X-14783610Y-21397270D01*
X-14075089Y-20688749D01*
X-12588750Y-22175088D01*
X-12588750Y-22175088D01*
G37*
G36*
X-17381000Y-22656000D02*
X-23783000Y-22656000D01*
X-23783000Y-21104000D01*
X-17381000Y-21104000D01*
X-17381000Y-22656000D01*
X-17381000Y-22656000D01*
G37*
G36*
X-27811178Y-20656087D02*
X-27747886Y-20675287D01*
X-27689552Y-20706467D01*
X-27638426Y-20748426D01*
X-27596467Y-20799552D01*
X-27565287Y-20857886D01*
X-27546087Y-20921178D01*
X-27539000Y-20993139D01*
X-27539000Y-22206861D01*
X-27546087Y-22278822D01*
X-27565287Y-22342114D01*
X-27596467Y-22400448D01*
X-27638426Y-22451574D01*
X-27689552Y-22493533D01*
X-27747886Y-22524713D01*
X-27811178Y-22543913D01*
X-27883139Y-22551000D01*
X-28796861Y-22551000D01*
X-28868822Y-22543913D01*
X-28932114Y-22524713D01*
X-28990448Y-22493533D01*
X-29041574Y-22451574D01*
X-29083533Y-22400448D01*
X-29114713Y-22342114D01*
X-29133913Y-22278822D01*
X-29141000Y-22206861D01*
X-29141000Y-20993139D01*
X-29133913Y-20921178D01*
X-29114713Y-20857886D01*
X-29083533Y-20799552D01*
X-29041574Y-20748426D01*
X-28990448Y-20706467D01*
X-28932114Y-20675287D01*
X-28868822Y-20656087D01*
X-28796861Y-20649000D01*
X-27883139Y-20649000D01*
X-27811178Y-20656087D01*
X-27811178Y-20656087D01*
G37*
G36*
X-30351178Y-20656087D02*
X-30287886Y-20675287D01*
X-30229552Y-20706467D01*
X-30178426Y-20748426D01*
X-30136467Y-20799552D01*
X-30105287Y-20857886D01*
X-30086087Y-20921178D01*
X-30079000Y-20993139D01*
X-30079000Y-22206861D01*
X-30086087Y-22278822D01*
X-30105287Y-22342114D01*
X-30136467Y-22400448D01*
X-30178426Y-22451574D01*
X-30229552Y-22493533D01*
X-30287886Y-22524713D01*
X-30351178Y-22543913D01*
X-30423139Y-22551000D01*
X-31336861Y-22551000D01*
X-31408822Y-22543913D01*
X-31472114Y-22524713D01*
X-31530448Y-22493533D01*
X-31581574Y-22451574D01*
X-31623533Y-22400448D01*
X-31654713Y-22342114D01*
X-31673913Y-22278822D01*
X-31681000Y-22206861D01*
X-31681000Y-20993139D01*
X-31673913Y-20921178D01*
X-31654713Y-20857886D01*
X-31623533Y-20799552D01*
X-31581574Y-20748426D01*
X-31530448Y-20706467D01*
X-31472114Y-20675287D01*
X-31408822Y-20656087D01*
X-31336861Y-20649000D01*
X-30423139Y-20649000D01*
X-30351178Y-20656087D01*
X-30351178Y-20656087D01*
G37*
G36*
X-25271178Y-20706087D02*
X-25207886Y-20725287D01*
X-25149552Y-20756467D01*
X-25098426Y-20798426D01*
X-25056467Y-20849552D01*
X-25025287Y-20907886D01*
X-25006087Y-20971178D01*
X-24999000Y-21043139D01*
X-24999000Y-22156861D01*
X-25006087Y-22228822D01*
X-25025287Y-22292114D01*
X-25056467Y-22350448D01*
X-25098426Y-22401574D01*
X-25149552Y-22443533D01*
X-25207886Y-22474713D01*
X-25271178Y-22493913D01*
X-25343139Y-22501000D01*
X-26256861Y-22501000D01*
X-26328822Y-22493913D01*
X-26392114Y-22474713D01*
X-26450448Y-22443533D01*
X-26501574Y-22401574D01*
X-26543533Y-22350448D01*
X-26574713Y-22292114D01*
X-26593913Y-22228822D01*
X-26601000Y-22156861D01*
X-26601000Y-21043139D01*
X-26593913Y-20971178D01*
X-26574713Y-20907886D01*
X-26543533Y-20849552D01*
X-26501574Y-20798426D01*
X-26450448Y-20756467D01*
X-26392114Y-20725287D01*
X-26328822Y-20706087D01*
X-26256861Y-20699000D01*
X-25343139Y-20699000D01*
X-25271178Y-20706087D01*
X-25271178Y-20706087D01*
G37*
G36*
X12004424Y-21623545D02*
X11295903Y-22332066D01*
X9809564Y-20845727D01*
X10518085Y-20137206D01*
X12004424Y-21623545D01*
X12004424Y-21623545D01*
G37*
G36*
X-11690724Y-21277063D02*
X-12399245Y-21985584D01*
X-13885584Y-20499245D01*
X-13177063Y-19790724D01*
X-11690724Y-21277063D01*
X-11690724Y-21277063D01*
G37*
G36*
X12902450Y-20725519D02*
X12193929Y-21434040D01*
X10707590Y-19947701D01*
X11416111Y-19239180D01*
X12902450Y-20725519D01*
X12902450Y-20725519D01*
G37*
G36*
X-10792698Y-20379037D02*
X-11501219Y-21087558D01*
X-12987558Y-19601219D01*
X-12279037Y-18892698D01*
X-10792698Y-20379037D01*
X-10792698Y-20379037D01*
G37*
G36*
X13800475Y-19827494D02*
X13091954Y-20536015D01*
X11605615Y-19049676D01*
X12314136Y-18341155D01*
X13800475Y-19827494D01*
X13800475Y-19827494D01*
G37*
G36*
X-9894673Y-19481012D02*
X-10603194Y-20189533D01*
X-12089533Y-18703194D01*
X-11381012Y-17994673D01*
X-9894673Y-19481012D01*
X-9894673Y-19481012D01*
G37*
G36*
X6085940Y-16228320D02*
X2478281Y-19835979D01*
X-1129378Y-16228320D01*
X2478281Y-12620661D01*
X6085940Y-16228320D01*
X6085940Y-16228320D01*
G37*
G36*
X14698501Y-18929468D02*
X13989980Y-19637989D01*
X12503641Y-18151650D01*
X13212162Y-17443129D01*
X14698501Y-18929468D01*
X14698501Y-18929468D01*
G37*
G36*
X-8996647Y-18582986D02*
X-9705168Y-19291507D01*
X-11191507Y-17805168D01*
X-10482986Y-17096647D01*
X-8996647Y-18582986D01*
X-8996647Y-18582986D01*
G37*
G36*
X15596527Y-18031443D02*
X14888006Y-18739964D01*
X13401667Y-17253625D01*
X14110188Y-16545104D01*
X15596527Y-18031443D01*
X15596527Y-18031443D01*
G37*
G36*
X-8098622Y-17684960D02*
X-8807143Y-18393481D01*
X-10293482Y-16907142D01*
X-9584961Y-16198621D01*
X-8098622Y-17684960D01*
X-8098622Y-17684960D01*
G37*
G36*
X-7200596Y-16786935D02*
X-7909117Y-17495456D01*
X-9395456Y-16009117D01*
X-8686935Y-15300596D01*
X-7200596Y-16786935D01*
X-7200596Y-16786935D01*
G37*
G36*
X-6302570Y-15888909D02*
X-7011091Y-16597430D01*
X-8497430Y-15111091D01*
X-7788909Y-14402570D01*
X-6302570Y-15888909D01*
X-6302570Y-15888909D01*
G37*
G36*
X24101000Y-16401000D02*
X23099000Y-16401000D01*
X23099000Y-15499000D01*
X24101000Y-15499000D01*
X24101000Y-16401000D01*
X24101000Y-16401000D01*
G37*
G36*
X26541938Y-15031716D02*
X26562556Y-15037970D01*
X26581556Y-15048126D01*
X26598208Y-15061792D01*
X26611874Y-15078444D01*
X26622030Y-15097444D01*
X26628284Y-15118062D01*
X26631000Y-15145640D01*
X26631000Y-15654360D01*
X26628284Y-15681938D01*
X26622030Y-15702556D01*
X26611874Y-15721556D01*
X26598208Y-15738208D01*
X26581556Y-15751874D01*
X26562556Y-15762030D01*
X26541938Y-15768284D01*
X26514360Y-15771000D01*
X26055640Y-15771000D01*
X26028062Y-15768284D01*
X26007444Y-15762030D01*
X25988444Y-15751874D01*
X25971792Y-15738208D01*
X25958126Y-15721556D01*
X25947970Y-15702556D01*
X25941716Y-15681938D01*
X25939000Y-15654360D01*
X25939000Y-15145640D01*
X25941716Y-15118062D01*
X25947970Y-15097444D01*
X25958126Y-15078444D01*
X25971792Y-15061792D01*
X25988444Y-15048126D01*
X26007444Y-15037970D01*
X26028062Y-15031716D01*
X26055640Y-15029000D01*
X26514360Y-15029000D01*
X26541938Y-15031716D01*
X26541938Y-15031716D01*
G37*
G36*
X25571938Y-15031716D02*
X25592556Y-15037970D01*
X25611556Y-15048126D01*
X25628208Y-15061792D01*
X25641874Y-15078444D01*
X25652030Y-15097444D01*
X25658284Y-15118062D01*
X25661000Y-15145640D01*
X25661000Y-15654360D01*
X25658284Y-15681938D01*
X25652030Y-15702556D01*
X25641874Y-15721556D01*
X25628208Y-15738208D01*
X25611556Y-15751874D01*
X25592556Y-15762030D01*
X25571938Y-15768284D01*
X25544360Y-15771000D01*
X25085640Y-15771000D01*
X25058062Y-15768284D01*
X25037444Y-15762030D01*
X25018444Y-15751874D01*
X25001792Y-15738208D01*
X24988126Y-15721556D01*
X24977970Y-15702556D01*
X24971716Y-15681938D01*
X24969000Y-15654360D01*
X24969000Y-15145640D01*
X24971716Y-15118062D01*
X24977970Y-15097444D01*
X24988126Y-15078444D01*
X25001792Y-15061792D01*
X25018444Y-15048126D01*
X25037444Y-15037970D01*
X25058062Y-15031716D01*
X25085640Y-15029000D01*
X25544360Y-15029000D01*
X25571938Y-15031716D01*
X25571938Y-15031716D01*
G37*
G36*
X-5404545Y-14990883D02*
X-6113066Y-15699404D01*
X-7599405Y-14213065D01*
X-6890884Y-13504544D01*
X-5404545Y-14990883D01*
X-5404545Y-14990883D01*
G37*
G36*
X22101000Y-15451000D02*
X21099000Y-15451000D01*
X21099000Y-14549000D01*
X22101000Y-14549000D01*
X22101000Y-15451000D01*
X22101000Y-15451000D01*
G37*
G36*
X28301000Y-15001000D02*
X27299000Y-15001000D01*
X27299000Y-14099000D01*
X28301000Y-14099000D01*
X28301000Y-15001000D01*
X28301000Y-15001000D01*
G37*
G36*
X-4506519Y-14092858D02*
X-5215040Y-14801379D01*
X-6701379Y-13315040D01*
X-5992858Y-12606519D01*
X-4506519Y-14092858D01*
X-4506519Y-14092858D01*
G37*
G36*
X24101000Y-14501000D02*
X23099000Y-14501000D01*
X23099000Y-13599000D01*
X24101000Y-13599000D01*
X24101000Y-14501000D01*
X24101000Y-14501000D01*
G37*
G36*
X35147738Y-12966653D02*
X35189598Y-12974979D01*
X35224245Y-12989330D01*
X35307890Y-13023977D01*
X35414354Y-13095114D01*
X35504886Y-13185646D01*
X35576023Y-13292110D01*
X35625021Y-13410403D01*
X35650000Y-13535979D01*
X35650000Y-13664021D01*
X35625021Y-13789597D01*
X35576023Y-13907890D01*
X35504886Y-14014354D01*
X35414354Y-14104886D01*
X35307890Y-14176023D01*
X35224245Y-14210670D01*
X35189598Y-14225021D01*
X35147738Y-14233347D01*
X35064021Y-14250000D01*
X34935979Y-14250000D01*
X34852262Y-14233347D01*
X34810402Y-14225021D01*
X34775755Y-14210670D01*
X34692110Y-14176023D01*
X34585646Y-14104886D01*
X34495114Y-14014354D01*
X34423977Y-13907890D01*
X34374979Y-13789597D01*
X34350000Y-13664021D01*
X34350000Y-13535979D01*
X34374979Y-13410403D01*
X34423977Y-13292110D01*
X34495114Y-13185646D01*
X34585646Y-13095114D01*
X34692110Y-13023977D01*
X34775755Y-12989330D01*
X34810402Y-12974979D01*
X34852262Y-12966653D01*
X34935979Y-12950000D01*
X35064021Y-12950000D01*
X35147738Y-12966653D01*
X35147738Y-12966653D01*
G37*
G36*
X30301000Y-14051000D02*
X29299000Y-14051000D01*
X29299000Y-13149000D01*
X30301000Y-13149000D01*
X30301000Y-14051000D01*
X30301000Y-14051000D01*
G37*
G36*
X-3608494Y-13194832D02*
X-4317015Y-13903353D01*
X-5803354Y-12417014D01*
X-5094833Y-11708493D01*
X-3608494Y-13194832D01*
X-3608494Y-13194832D01*
G37*
G36*
X25571938Y-12431716D02*
X25592556Y-12437970D01*
X25611556Y-12448126D01*
X25628208Y-12461792D01*
X25641874Y-12478444D01*
X25652030Y-12497444D01*
X25658284Y-12518062D01*
X25661000Y-12545640D01*
X25661000Y-13054360D01*
X25658284Y-13081938D01*
X25652030Y-13102556D01*
X25641874Y-13121556D01*
X25628208Y-13138208D01*
X25611556Y-13151874D01*
X25592556Y-13162030D01*
X25571938Y-13168284D01*
X25544360Y-13171000D01*
X25085640Y-13171000D01*
X25058062Y-13168284D01*
X25037444Y-13162030D01*
X25018444Y-13151874D01*
X25001792Y-13138208D01*
X24988126Y-13121556D01*
X24977970Y-13102556D01*
X24971716Y-13081938D01*
X24969000Y-13054360D01*
X24969000Y-12545640D01*
X24971716Y-12518062D01*
X24977970Y-12497444D01*
X24988126Y-12478444D01*
X25001792Y-12461792D01*
X25018444Y-12448126D01*
X25037444Y-12437970D01*
X25058062Y-12431716D01*
X25085640Y-12429000D01*
X25544360Y-12429000D01*
X25571938Y-12431716D01*
X25571938Y-12431716D01*
G37*
G36*
X26541938Y-12431716D02*
X26562556Y-12437970D01*
X26581556Y-12448126D01*
X26598208Y-12461792D01*
X26611874Y-12478444D01*
X26622030Y-12497444D01*
X26628284Y-12518062D01*
X26631000Y-12545640D01*
X26631000Y-13054360D01*
X26628284Y-13081938D01*
X26622030Y-13102556D01*
X26611874Y-13121556D01*
X26598208Y-13138208D01*
X26581556Y-13151874D01*
X26562556Y-13162030D01*
X26541938Y-13168284D01*
X26514360Y-13171000D01*
X26055640Y-13171000D01*
X26028062Y-13168284D01*
X26007444Y-13162030D01*
X25988444Y-13151874D01*
X25971792Y-13138208D01*
X25958126Y-13121556D01*
X25947970Y-13102556D01*
X25941716Y-13081938D01*
X25939000Y-13054360D01*
X25939000Y-12545640D01*
X25941716Y-12518062D01*
X25947970Y-12497444D01*
X25958126Y-12478444D01*
X25971792Y-12461792D01*
X25988444Y-12448126D01*
X26007444Y-12437970D01*
X26028062Y-12431716D01*
X26055640Y-12429000D01*
X26514360Y-12429000D01*
X26541938Y-12431716D01*
X26541938Y-12431716D01*
G37*
G36*
X28301000Y-13101000D02*
X27299000Y-13101000D01*
X27299000Y-12199000D01*
X28301000Y-12199000D01*
X28301000Y-13101000D01*
X28301000Y-13101000D01*
G37*
G36*
X-2710468Y-12296807D02*
X-3418989Y-13005328D01*
X-4905328Y-11518989D01*
X-4196807Y-10810468D01*
X-2710468Y-12296807D01*
X-2710468Y-12296807D01*
G37*
G36*
X-1812442Y-11398781D02*
X-2520963Y-12107302D01*
X-4007302Y-10620963D01*
X-3298781Y-9912442D01*
X-1812442Y-11398781D01*
X-1812442Y-11398781D01*
G37*
G36*
X-35059642Y-8508914D02*
X-35020799Y-8523922D01*
X-34985639Y-8546214D01*
X-34955498Y-8574941D01*
X-34931541Y-8608997D01*
X-34914687Y-8647074D01*
X-34904239Y-8693720D01*
X-34579613Y-11337583D01*
X-34578465Y-11385379D01*
X-34585606Y-11426396D01*
X-34600614Y-11465241D01*
X-34622909Y-11500405D01*
X-34651629Y-11530539D01*
X-34685689Y-11554498D01*
X-34723766Y-11571351D01*
X-34770414Y-11581800D01*
X-35429182Y-11662687D01*
X-35476977Y-11663835D01*
X-35517996Y-11656694D01*
X-35556839Y-11641686D01*
X-35591999Y-11619394D01*
X-35622140Y-11590667D01*
X-35646097Y-11556611D01*
X-35662951Y-11518534D01*
X-35673399Y-11471888D01*
X-35998025Y-8828025D01*
X-35999173Y-8780229D01*
X-35992032Y-8739212D01*
X-35977024Y-8700367D01*
X-35954729Y-8665203D01*
X-35926009Y-8635069D01*
X-35891949Y-8611110D01*
X-35853872Y-8594257D01*
X-35807224Y-8583808D01*
X-35148456Y-8502921D01*
X-35100661Y-8501773D01*
X-35059642Y-8508914D01*
X-35059642Y-8508914D01*
G37*
G36*
X-33570823Y-8326110D02*
X-33531980Y-8341118D01*
X-33496820Y-8363410D01*
X-33466679Y-8392137D01*
X-33442722Y-8426193D01*
X-33425868Y-8464270D01*
X-33415420Y-8510916D01*
X-33090794Y-11154779D01*
X-33089646Y-11202575D01*
X-33096787Y-11243592D01*
X-33111795Y-11282437D01*
X-33134090Y-11317601D01*
X-33162810Y-11347735D01*
X-33196870Y-11371694D01*
X-33234947Y-11388547D01*
X-33281595Y-11398996D01*
X-33940363Y-11479883D01*
X-33988158Y-11481031D01*
X-34029177Y-11473890D01*
X-34068020Y-11458882D01*
X-34103180Y-11436590D01*
X-34133321Y-11407863D01*
X-34157278Y-11373807D01*
X-34174132Y-11335730D01*
X-34184580Y-11289084D01*
X-34509206Y-8645221D01*
X-34510354Y-8597425D01*
X-34503213Y-8556408D01*
X-34488205Y-8517563D01*
X-34465910Y-8482399D01*
X-34437190Y-8452265D01*
X-34403130Y-8428306D01*
X-34365053Y-8411453D01*
X-34318405Y-8401004D01*
X-33659637Y-8320117D01*
X-33611842Y-8318969D01*
X-33570823Y-8326110D01*
X-33570823Y-8326110D01*
G37*
G36*
X-914417Y-10500755D02*
X-1622938Y-11209276D01*
X-3109277Y-9722937D01*
X-2400756Y-9014416D01*
X-914417Y-10500755D01*
X-914417Y-10500755D01*
G37*
G36*
X-16391Y-9602730D02*
X-724912Y-10311251D01*
X-2211251Y-8824912D01*
X-1502730Y-8116391D01*
X-16391Y-9602730D01*
X-16391Y-9602730D01*
G37*
G36*
X881635Y-8704704D02*
X173114Y-9413225D01*
X-1313225Y-7926886D01*
X-604704Y-7218365D01*
X881635Y-8704704D01*
X881635Y-8704704D01*
G37*
G36*
X-4358062Y-8631716D02*
X-4337444Y-8637970D01*
X-4318444Y-8648126D01*
X-4301792Y-8661792D01*
X-4288126Y-8678444D01*
X-4277970Y-8697444D01*
X-4271716Y-8718062D01*
X-4269000Y-8745640D01*
X-4269000Y-9254360D01*
X-4271716Y-9281938D01*
X-4277970Y-9302556D01*
X-4288126Y-9321556D01*
X-4301792Y-9338208D01*
X-4318444Y-9351874D01*
X-4337444Y-9362030D01*
X-4358062Y-9368284D01*
X-4385640Y-9371000D01*
X-4844360Y-9371000D01*
X-4871938Y-9368284D01*
X-4892556Y-9362030D01*
X-4911556Y-9351874D01*
X-4928208Y-9338208D01*
X-4941874Y-9321556D01*
X-4952030Y-9302556D01*
X-4958284Y-9281938D01*
X-4961000Y-9254360D01*
X-4961000Y-8745640D01*
X-4958284Y-8718062D01*
X-4952030Y-8697444D01*
X-4941874Y-8678444D01*
X-4928208Y-8661792D01*
X-4911556Y-8648126D01*
X-4892556Y-8637970D01*
X-4871938Y-8631716D01*
X-4844360Y-8629000D01*
X-4385640Y-8629000D01*
X-4358062Y-8631716D01*
X-4358062Y-8631716D01*
G37*
G36*
X-5328062Y-8631716D02*
X-5307444Y-8637970D01*
X-5288444Y-8648126D01*
X-5271792Y-8661792D01*
X-5258126Y-8678444D01*
X-5247970Y-8697444D01*
X-5241716Y-8718062D01*
X-5239000Y-8745640D01*
X-5239000Y-9254360D01*
X-5241716Y-9281938D01*
X-5247970Y-9302556D01*
X-5258126Y-9321556D01*
X-5271792Y-9338208D01*
X-5288444Y-9351874D01*
X-5307444Y-9362030D01*
X-5328062Y-9368284D01*
X-5355640Y-9371000D01*
X-5814360Y-9371000D01*
X-5841938Y-9368284D01*
X-5862556Y-9362030D01*
X-5881556Y-9351874D01*
X-5898208Y-9338208D01*
X-5911874Y-9321556D01*
X-5922030Y-9302556D01*
X-5928284Y-9281938D01*
X-5931000Y-9254360D01*
X-5931000Y-8745640D01*
X-5928284Y-8718062D01*
X-5922030Y-8697444D01*
X-5911874Y-8678444D01*
X-5898208Y-8661792D01*
X-5881556Y-8648126D01*
X-5862556Y-8637970D01*
X-5841938Y-8631716D01*
X-5814360Y-8629000D01*
X-5355640Y-8629000D01*
X-5328062Y-8631716D01*
X-5328062Y-8631716D01*
G37*
G36*
X1779660Y-7806679D02*
X1071139Y-8515200D01*
X-415200Y-7028861D01*
X293321Y-6320340D01*
X1779660Y-7806679D01*
X1779660Y-7806679D01*
G37*
G36*
X2677686Y-6908653D02*
X1969165Y-7617174D01*
X482826Y-6130835D01*
X1191347Y-5422314D01*
X2677686Y-6908653D01*
X2677686Y-6908653D01*
G37*
G36*
X3575711Y-6010627D02*
X2867190Y-6719148D01*
X1380851Y-5232809D01*
X2089372Y-4524288D01*
X3575711Y-6010627D01*
X3575711Y-6010627D01*
G37*
G36*
X-1567255Y405845D02*
X-1567253Y405844D01*
X-1567252Y405844D01*
X-1012006Y175854D01*
X-1012005Y175853D01*
X-512294Y-158043D01*
X-87332Y-583005D01*
X-87330Y-583008D01*
X246565Y-1082717D01*
X476555Y-1637963D01*
X593804Y-2227410D01*
X593804Y-2828404D01*
X476555Y-3417851D01*
X246565Y-3973097D01*
X246564Y-3973098D01*
X-87332Y-4472809D01*
X-512294Y-4897771D01*
X-512297Y-4897773D01*
X-1012006Y-5231668D01*
X-1567252Y-5461658D01*
X-1567253Y-5461658D01*
X-1567255Y-5461659D01*
X-2156697Y-5578907D01*
X-2757695Y-5578907D01*
X-3347137Y-5461659D01*
X-3347139Y-5461658D01*
X-3347140Y-5461658D01*
X-3902386Y-5231668D01*
X-4402095Y-4897773D01*
X-4402098Y-4897771D01*
X-4827060Y-4472809D01*
X-5160956Y-3973098D01*
X-5160957Y-3973097D01*
X-5390947Y-3417851D01*
X-5508196Y-2828404D01*
X-5508196Y-2227410D01*
X-5390947Y-1637963D01*
X-5160957Y-1082717D01*
X-4827062Y-583008D01*
X-4827060Y-583005D01*
X-4402098Y-158043D01*
X-3902387Y175853D01*
X-3902386Y175854D01*
X-3347140Y405844D01*
X-3347139Y405844D01*
X-3347137Y405845D01*
X-2757695Y523093D01*
X-2156697Y523093D01*
X-1567255Y405845D01*
X-1567255Y405845D01*
G37*
G36*
X3417848Y5390948D02*
X3417850Y5390947D01*
X3417851Y5390947D01*
X3973097Y5160957D01*
X4297257Y4944360D01*
X4472809Y4827060D01*
X4897771Y4402098D01*
X4897773Y4402095D01*
X5231668Y3902386D01*
X5443001Y3392181D01*
X5461659Y3347137D01*
X5578907Y2757695D01*
X5578907Y2156697D01*
X5474010Y1629345D01*
X5461658Y1567252D01*
X5231668Y1012006D01*
X5062031Y758126D01*
X4897771Y512294D01*
X4472809Y87332D01*
X4472806Y87330D01*
X3973097Y-246565D01*
X3417851Y-476555D01*
X3417850Y-476555D01*
X3417848Y-476556D01*
X2828406Y-593804D01*
X2227408Y-593804D01*
X1637966Y-476556D01*
X1637964Y-476555D01*
X1637963Y-476555D01*
X1082717Y-246565D01*
X583008Y87330D01*
X583005Y87332D01*
X158043Y512294D01*
X-6217Y758126D01*
X-175854Y1012006D01*
X-405844Y1567252D01*
X-418195Y1629345D01*
X-523093Y2156697D01*
X-523093Y2757695D01*
X-405845Y3347137D01*
X-387187Y3392181D01*
X-175854Y3902386D01*
X158041Y4402095D01*
X158043Y4402098D01*
X583005Y4827060D01*
X758557Y4944360D01*
X1082717Y5160957D01*
X1637963Y5390947D01*
X1637964Y5390947D01*
X1637966Y5390948D01*
X2227408Y5508196D01*
X2828406Y5508196D01*
X3417848Y5390948D01*
X3417848Y5390948D01*
G37*
G36*
X8681938Y458284D02*
X8702556Y452030D01*
X8721556Y441874D01*
X8738208Y428208D01*
X8751874Y411556D01*
X8762030Y392556D01*
X8768284Y371938D01*
X8771000Y344360D01*
X8771000Y-114360D01*
X8768284Y-141938D01*
X8762030Y-162556D01*
X8751874Y-181556D01*
X8738208Y-198208D01*
X8721556Y-211874D01*
X8702556Y-222030D01*
X8681938Y-228284D01*
X8654360Y-231000D01*
X8145640Y-231000D01*
X8118062Y-228284D01*
X8097444Y-222030D01*
X8078444Y-211874D01*
X8061792Y-198208D01*
X8048126Y-181556D01*
X8037970Y-162556D01*
X8031716Y-141938D01*
X8029000Y-114360D01*
X8029000Y344360D01*
X8031716Y371938D01*
X8037970Y392556D01*
X8048126Y411556D01*
X8061792Y428208D01*
X8078444Y441874D01*
X8097444Y452030D01*
X8118062Y458284D01*
X8145640Y461000D01*
X8654360Y461000D01*
X8681938Y458284D01*
X8681938Y458284D01*
G37*
G36*
X-7328722Y2357552D02*
X-7292181Y2346467D01*
X-7258506Y2328468D01*
X-7224209Y2300320D01*
X-6199680Y1275791D01*
X-6171532Y1241494D01*
X-6153533Y1207819D01*
X-6142448Y1171278D01*
X-6138706Y1133274D01*
X-6142448Y1095270D01*
X-6153533Y1058729D01*
X-6171532Y1025054D01*
X-6199680Y990757D01*
X-6870655Y319782D01*
X-6904952Y291634D01*
X-6938627Y273635D01*
X-6975168Y262550D01*
X-7013172Y258808D01*
X-7051176Y262550D01*
X-7087717Y273635D01*
X-7121392Y291634D01*
X-7155689Y319782D01*
X-8180218Y1344311D01*
X-8208366Y1378608D01*
X-8226365Y1412283D01*
X-8237450Y1448824D01*
X-8241192Y1486828D01*
X-8237450Y1524832D01*
X-8226365Y1561373D01*
X-8208366Y1595048D01*
X-8180218Y1629345D01*
X-7509243Y2300320D01*
X-7474946Y2328468D01*
X-7441271Y2346467D01*
X-7404730Y2357552D01*
X-7366726Y2361294D01*
X-7328722Y2357552D01*
X-7328722Y2357552D01*
G37*
G36*
X8681938Y1428284D02*
X8702556Y1422030D01*
X8721556Y1411874D01*
X8738208Y1398208D01*
X8751874Y1381556D01*
X8762030Y1362556D01*
X8768284Y1341938D01*
X8771000Y1314360D01*
X8771000Y855640D01*
X8768284Y828062D01*
X8762030Y807444D01*
X8751874Y788444D01*
X8738208Y771792D01*
X8721556Y758126D01*
X8702556Y747970D01*
X8681938Y741716D01*
X8654360Y739000D01*
X8145640Y739000D01*
X8118062Y741716D01*
X8097444Y747970D01*
X8078444Y758126D01*
X8061792Y771792D01*
X8048126Y788444D01*
X8037970Y807444D01*
X8031716Y828062D01*
X8029000Y855640D01*
X8029000Y1314360D01*
X8031716Y1341938D01*
X8037970Y1362556D01*
X8048126Y1381556D01*
X8061792Y1398208D01*
X8078444Y1411874D01*
X8097444Y1422030D01*
X8118062Y1428284D01*
X8145640Y1431000D01*
X8654360Y1431000D01*
X8681938Y1428284D01*
X8681938Y1428284D01*
G37*
G36*
X-5348824Y4337450D02*
X-5312283Y4326365D01*
X-5278608Y4308366D01*
X-5244311Y4280218D01*
X-4219782Y3255689D01*
X-4191634Y3221392D01*
X-4173635Y3187717D01*
X-4162550Y3151176D01*
X-4158808Y3113172D01*
X-4162550Y3075168D01*
X-4173635Y3038627D01*
X-4191634Y3004952D01*
X-4219782Y2970655D01*
X-4890757Y2299680D01*
X-4925054Y2271532D01*
X-4958729Y2253533D01*
X-4995270Y2242448D01*
X-5033274Y2238706D01*
X-5071278Y2242448D01*
X-5107819Y2253533D01*
X-5141494Y2271532D01*
X-5175791Y2299680D01*
X-6200320Y3324209D01*
X-6228468Y3358506D01*
X-6246467Y3392181D01*
X-6257552Y3428722D01*
X-6261294Y3466726D01*
X-6257552Y3504730D01*
X-6246467Y3541271D01*
X-6228468Y3574946D01*
X-6200320Y3609243D01*
X-5529345Y4280218D01*
X-5495048Y4308366D01*
X-5461373Y4326365D01*
X-5424832Y4337450D01*
X-5386828Y4341192D01*
X-5348824Y4337450D01*
X-5348824Y4337450D01*
G37*
G36*
X9481938Y4458284D02*
X9502556Y4452030D01*
X9521556Y4441874D01*
X9538208Y4428208D01*
X9551874Y4411556D01*
X9562030Y4392556D01*
X9568284Y4371938D01*
X9571000Y4344360D01*
X9571000Y3885640D01*
X9568284Y3858062D01*
X9562030Y3837444D01*
X9551874Y3818444D01*
X9538208Y3801792D01*
X9521556Y3788126D01*
X9502556Y3777970D01*
X9481938Y3771716D01*
X9454360Y3769000D01*
X8945640Y3769000D01*
X8918062Y3771716D01*
X8897444Y3777970D01*
X8878444Y3788126D01*
X8861792Y3801792D01*
X8848126Y3818444D01*
X8837970Y3837444D01*
X8831716Y3858062D01*
X8829000Y3885640D01*
X8829000Y4344360D01*
X8831716Y4371938D01*
X8837970Y4392556D01*
X8848126Y4411556D01*
X8861792Y4428208D01*
X8878444Y4441874D01*
X8897444Y4452030D01*
X8918062Y4458284D01*
X8945640Y4461000D01*
X9454360Y4461000D01*
X9481938Y4458284D01*
X9481938Y4458284D01*
G37*
G36*
X8281938Y5058284D02*
X8302556Y5052030D01*
X8321556Y5041874D01*
X8338208Y5028208D01*
X8351874Y5011556D01*
X8362030Y4992556D01*
X8368284Y4971938D01*
X8371000Y4944360D01*
X8371000Y4485640D01*
X8368284Y4458062D01*
X8362030Y4437444D01*
X8351874Y4418444D01*
X8338208Y4401792D01*
X8321556Y4388126D01*
X8302556Y4377970D01*
X8281938Y4371716D01*
X8254360Y4369000D01*
X7745640Y4369000D01*
X7718062Y4371716D01*
X7697444Y4377970D01*
X7678444Y4388126D01*
X7661792Y4401792D01*
X7648126Y4418444D01*
X7637970Y4437444D01*
X7631716Y4458062D01*
X7629000Y4485640D01*
X7629000Y4944360D01*
X7631716Y4971938D01*
X7637970Y4992556D01*
X7648126Y5011556D01*
X7661792Y5028208D01*
X7678444Y5041874D01*
X7697444Y5052030D01*
X7718062Y5058284D01*
X7745640Y5061000D01*
X8254360Y5061000D01*
X8281938Y5058284D01*
X8281938Y5058284D01*
G37*
G36*
X-8366511Y7533992D02*
X-8312077Y7519407D01*
X-8312068Y7519405D01*
X-4785473Y6574457D01*
X-4785468Y6574455D01*
X-4731028Y6559868D01*
X-4649598Y6529220D01*
X-4580943Y6486528D01*
X-4521940Y6431265D01*
X-4474848Y6365549D01*
X-4441486Y6291916D01*
X-4423127Y6213180D01*
X-4420482Y6132379D01*
X-4434655Y6046534D01*
X-4449243Y5992091D01*
X-4695380Y5073495D01*
X-4695383Y5073488D01*
X-4709968Y5019055D01*
X-4740619Y4937616D01*
X-4783307Y4868968D01*
X-4838572Y4809963D01*
X-4904288Y4762871D01*
X-4977922Y4729508D01*
X-5056657Y4711150D01*
X-5137458Y4708505D01*
X-5223303Y4722678D01*
X-5277737Y4737263D01*
X-5277746Y4737265D01*
X-8804341Y5682213D01*
X-8804346Y5682215D01*
X-8858786Y5696802D01*
X-8940216Y5727450D01*
X-9008871Y5770142D01*
X-9067874Y5825405D01*
X-9114966Y5891121D01*
X-9148328Y5964754D01*
X-9166687Y6043490D01*
X-9169332Y6124291D01*
X-9155159Y6210136D01*
X-9096601Y6428678D01*
X-8894434Y7183175D01*
X-8894431Y7183182D01*
X-8879846Y7237615D01*
X-8849195Y7319054D01*
X-8806507Y7387702D01*
X-8751242Y7446707D01*
X-8685526Y7493799D01*
X-8611892Y7527162D01*
X-8533157Y7545520D01*
X-8452356Y7548165D01*
X-8366511Y7533992D01*
X-8366511Y7533992D01*
G37*
G36*
X9481938Y5428284D02*
X9502556Y5422030D01*
X9521556Y5411874D01*
X9538208Y5398208D01*
X9551874Y5381556D01*
X9562030Y5362556D01*
X9568284Y5341938D01*
X9571000Y5314360D01*
X9571000Y4855640D01*
X9568284Y4828062D01*
X9562030Y4807444D01*
X9551874Y4788444D01*
X9538208Y4771792D01*
X9521556Y4758126D01*
X9502556Y4747970D01*
X9481938Y4741716D01*
X9454360Y4739000D01*
X8945640Y4739000D01*
X8918062Y4741716D01*
X8897444Y4747970D01*
X8878444Y4758126D01*
X8861792Y4771792D01*
X8848126Y4788444D01*
X8837970Y4807444D01*
X8831716Y4828062D01*
X8829000Y4855640D01*
X8829000Y5314360D01*
X8831716Y5341938D01*
X8837970Y5362556D01*
X8848126Y5381556D01*
X8861792Y5398208D01*
X8878444Y5411874D01*
X8897444Y5422030D01*
X8918062Y5428284D01*
X8945640Y5431000D01*
X9454360Y5431000D01*
X9481938Y5428284D01*
X9481938Y5428284D01*
G37*
G36*
X8281938Y6028284D02*
X8302556Y6022030D01*
X8321556Y6011874D01*
X8338208Y5998208D01*
X8351874Y5981556D01*
X8362030Y5962556D01*
X8368284Y5941938D01*
X8371000Y5914360D01*
X8371000Y5455640D01*
X8368284Y5428062D01*
X8362030Y5407444D01*
X8351874Y5388444D01*
X8338208Y5371792D01*
X8321556Y5358126D01*
X8302556Y5347970D01*
X8281938Y5341716D01*
X8254360Y5339000D01*
X7745640Y5339000D01*
X7718062Y5341716D01*
X7697444Y5347970D01*
X7678444Y5358126D01*
X7661792Y5371792D01*
X7648126Y5388444D01*
X7637970Y5407444D01*
X7631716Y5428062D01*
X7629000Y5455640D01*
X7629000Y5914360D01*
X7631716Y5941938D01*
X7637970Y5962556D01*
X7648126Y5981556D01*
X7661792Y5998208D01*
X7678444Y6011874D01*
X7697444Y6022030D01*
X7718062Y6028284D01*
X7745640Y6031000D01*
X8254360Y6031000D01*
X8281938Y6028284D01*
X8281938Y6028284D01*
G37*
G36*
X6219683Y10647275D02*
X6250144Y10638034D01*
X6278223Y10623025D01*
X6302831Y10602831D01*
X6323025Y10578223D01*
X6338034Y10550144D01*
X6347275Y10519683D01*
X6351000Y10481860D01*
X6351000Y9118140D01*
X6347275Y9080317D01*
X6338034Y9049856D01*
X6323025Y9021777D01*
X6302831Y8997169D01*
X6278223Y8976975D01*
X6250144Y8961966D01*
X6219683Y8952725D01*
X6181860Y8949000D01*
X5618140Y8949000D01*
X5580317Y8952725D01*
X5549856Y8961966D01*
X5521777Y8976975D01*
X5497169Y8997169D01*
X5476975Y9021777D01*
X5461966Y9049856D01*
X5452725Y9080317D01*
X5449000Y9118140D01*
X5449000Y10481860D01*
X5452725Y10519683D01*
X5461966Y10550144D01*
X5476975Y10578223D01*
X5497169Y10602831D01*
X5521777Y10623025D01*
X5549856Y10638034D01*
X5580317Y10647275D01*
X5618140Y10651000D01*
X6181860Y10651000D01*
X6219683Y10647275D01*
X6219683Y10647275D01*
G37*
G36*
X11219683Y10647275D02*
X11250144Y10638034D01*
X11278223Y10623025D01*
X11302831Y10602831D01*
X11323025Y10578223D01*
X11338034Y10550144D01*
X11347275Y10519683D01*
X11351000Y10481860D01*
X11351000Y9118140D01*
X11347275Y9080317D01*
X11338034Y9049856D01*
X11323025Y9021777D01*
X11302831Y8997169D01*
X11278223Y8976975D01*
X11250144Y8961966D01*
X11219683Y8952725D01*
X11181860Y8949000D01*
X10618140Y8949000D01*
X10580317Y8952725D01*
X10549856Y8961966D01*
X10521777Y8976975D01*
X10497169Y8997169D01*
X10476975Y9021777D01*
X10461966Y9049856D01*
X10452725Y9080317D01*
X10449000Y9118140D01*
X10449000Y10481860D01*
X10452725Y10519683D01*
X10461966Y10550144D01*
X10476975Y10578223D01*
X10497169Y10602831D01*
X10521777Y10623025D01*
X10549856Y10638034D01*
X10580317Y10647275D01*
X10618140Y10651000D01*
X11181860Y10651000D01*
X11219683Y10647275D01*
X11219683Y10647275D01*
G37*
G36*
X9969683Y10647275D02*
X10000144Y10638034D01*
X10028223Y10623025D01*
X10052831Y10602831D01*
X10073025Y10578223D01*
X10088034Y10550144D01*
X10097275Y10519683D01*
X10101000Y10481860D01*
X10101000Y9118140D01*
X10097275Y9080317D01*
X10088034Y9049856D01*
X10073025Y9021777D01*
X10052831Y8997169D01*
X10028223Y8976975D01*
X10000144Y8961966D01*
X9969683Y8952725D01*
X9931860Y8949000D01*
X9368140Y8949000D01*
X9330317Y8952725D01*
X9299856Y8961966D01*
X9271777Y8976975D01*
X9247169Y8997169D01*
X9226975Y9021777D01*
X9211966Y9049856D01*
X9202725Y9080317D01*
X9199000Y9118140D01*
X9199000Y10481860D01*
X9202725Y10519683D01*
X9211966Y10550144D01*
X9226975Y10578223D01*
X9247169Y10602831D01*
X9271777Y10623025D01*
X9299856Y10638034D01*
X9330317Y10647275D01*
X9368140Y10651000D01*
X9931860Y10651000D01*
X9969683Y10647275D01*
X9969683Y10647275D01*
G37*
G36*
X8719683Y10647275D02*
X8750144Y10638034D01*
X8778223Y10623025D01*
X8802831Y10602831D01*
X8823025Y10578223D01*
X8838034Y10550144D01*
X8847275Y10519683D01*
X8851000Y10481860D01*
X8851000Y9118140D01*
X8847275Y9080317D01*
X8838034Y9049856D01*
X8823025Y9021777D01*
X8802831Y8997169D01*
X8778223Y8976975D01*
X8750144Y8961966D01*
X8719683Y8952725D01*
X8681860Y8949000D01*
X8118140Y8949000D01*
X8080317Y8952725D01*
X8049856Y8961966D01*
X8021777Y8976975D01*
X7997169Y8997169D01*
X7976975Y9021777D01*
X7961966Y9049856D01*
X7952725Y9080317D01*
X7949000Y9118140D01*
X7949000Y10481860D01*
X7952725Y10519683D01*
X7961966Y10550144D01*
X7976975Y10578223D01*
X7997169Y10602831D01*
X8021777Y10623025D01*
X8049856Y10638034D01*
X8080317Y10647275D01*
X8118140Y10651000D01*
X8681860Y10651000D01*
X8719683Y10647275D01*
X8719683Y10647275D01*
G37*
G36*
X7469683Y10647275D02*
X7500144Y10638034D01*
X7528223Y10623025D01*
X7552831Y10602831D01*
X7573025Y10578223D01*
X7588034Y10550144D01*
X7597275Y10519683D01*
X7601000Y10481860D01*
X7601000Y9118140D01*
X7597275Y9080317D01*
X7588034Y9049856D01*
X7573025Y9021777D01*
X7552831Y8997169D01*
X7528223Y8976975D01*
X7500144Y8961966D01*
X7469683Y8952725D01*
X7431860Y8949000D01*
X6868140Y8949000D01*
X6830317Y8952725D01*
X6799856Y8961966D01*
X6771777Y8976975D01*
X6747169Y8997169D01*
X6726975Y9021777D01*
X6711966Y9049856D01*
X6702725Y9080317D01*
X6699000Y9118140D01*
X6699000Y10481860D01*
X6702725Y10519683D01*
X6711966Y10550144D01*
X6726975Y10578223D01*
X6747169Y10602831D01*
X6771777Y10623025D01*
X6799856Y10638034D01*
X6830317Y10647275D01*
X6868140Y10651000D01*
X7431860Y10651000D01*
X7469683Y10647275D01*
X7469683Y10647275D01*
G37*
G36*
X-24787250Y11933916D02*
X-24732816Y11919331D01*
X-24732807Y11919329D01*
X-21206212Y10974381D01*
X-21206207Y10974379D01*
X-21151767Y10959792D01*
X-21070337Y10929144D01*
X-21001682Y10886452D01*
X-20942679Y10831189D01*
X-20895587Y10765473D01*
X-20862225Y10691840D01*
X-20843866Y10613104D01*
X-20841221Y10532303D01*
X-20855394Y10446458D01*
X-20869982Y10392015D01*
X-21116119Y9473419D01*
X-21116122Y9473412D01*
X-21130707Y9418979D01*
X-21161358Y9337540D01*
X-21204046Y9268892D01*
X-21259311Y9209887D01*
X-21325027Y9162795D01*
X-21398661Y9129432D01*
X-21477396Y9111074D01*
X-21558197Y9108429D01*
X-21644042Y9122602D01*
X-21698476Y9137187D01*
X-21698485Y9137189D01*
X-25225080Y10082137D01*
X-25225085Y10082139D01*
X-25279525Y10096726D01*
X-25360955Y10127374D01*
X-25429610Y10170066D01*
X-25488613Y10225329D01*
X-25535705Y10291045D01*
X-25569067Y10364678D01*
X-25587426Y10443414D01*
X-25590071Y10524215D01*
X-25575898Y10610060D01*
X-25517340Y10828602D01*
X-25315173Y11583099D01*
X-25315170Y11583106D01*
X-25300585Y11637539D01*
X-25269934Y11718978D01*
X-25227246Y11787626D01*
X-25171981Y11846631D01*
X-25106265Y11893723D01*
X-25032631Y11927086D01*
X-24953896Y11945444D01*
X-24873095Y11948089D01*
X-24787250Y11933916D01*
X-24787250Y11933916D01*
G37*
G36*
X4316535Y14247200D02*
X4347740Y14237734D01*
X4376487Y14222369D01*
X4401687Y14201687D01*
X4422369Y14176487D01*
X4437734Y14147740D01*
X4447200Y14116535D01*
X4451000Y14077955D01*
X4451000Y11322045D01*
X4447200Y11283465D01*
X4437734Y11252260D01*
X4422369Y11223513D01*
X4401687Y11198313D01*
X4376487Y11177631D01*
X4347740Y11162266D01*
X4316535Y11152800D01*
X4277955Y11149000D01*
X2422045Y11149000D01*
X2383465Y11152800D01*
X2352260Y11162266D01*
X2323513Y11177631D01*
X2298313Y11198313D01*
X2277631Y11223513D01*
X2262266Y11252260D01*
X2252800Y11283465D01*
X2249000Y11322045D01*
X2249000Y14077955D01*
X2252800Y14116535D01*
X2262266Y14147740D01*
X2277631Y14176487D01*
X2298313Y14201687D01*
X2323513Y14222369D01*
X2352260Y14237734D01*
X2383465Y14247200D01*
X2422045Y14251000D01*
X4277955Y14251000D01*
X4316535Y14247200D01*
X4316535Y14247200D01*
G37*
G36*
X14416535Y14247200D02*
X14447740Y14237734D01*
X14476487Y14222369D01*
X14501687Y14201687D01*
X14522369Y14176487D01*
X14537734Y14147740D01*
X14547200Y14116535D01*
X14551000Y14077955D01*
X14551000Y11322045D01*
X14547200Y11283465D01*
X14537734Y11252260D01*
X14522369Y11223513D01*
X14501687Y11198313D01*
X14476487Y11177631D01*
X14447740Y11162266D01*
X14416535Y11152800D01*
X14377955Y11149000D01*
X12522045Y11149000D01*
X12483465Y11152800D01*
X12452260Y11162266D01*
X12423513Y11177631D01*
X12398313Y11198313D01*
X12377631Y11223513D01*
X12362266Y11252260D01*
X12352800Y11283465D01*
X12349000Y11322045D01*
X12349000Y14077955D01*
X12352800Y14116535D01*
X12362266Y14147740D01*
X12377631Y14176487D01*
X12398313Y14201687D01*
X12423513Y14222369D01*
X12452260Y14237734D01*
X12483465Y14247200D01*
X12522045Y14251000D01*
X14377955Y14251000D01*
X14416535Y14247200D01*
X14416535Y14247200D01*
G37*
G36*
X-6295958Y15261398D02*
X-6241524Y15246813D01*
X-6241515Y15246811D01*
X-2714920Y14301863D01*
X-2714915Y14301861D01*
X-2660475Y14287274D01*
X-2579045Y14256626D01*
X-2510390Y14213934D01*
X-2451387Y14158671D01*
X-2404295Y14092955D01*
X-2370933Y14019322D01*
X-2352574Y13940586D01*
X-2349929Y13859785D01*
X-2364102Y13773940D01*
X-2378690Y13719497D01*
X-2624827Y12800901D01*
X-2624830Y12800894D01*
X-2639415Y12746461D01*
X-2670066Y12665022D01*
X-2712754Y12596374D01*
X-2768019Y12537369D01*
X-2833735Y12490277D01*
X-2907369Y12456914D01*
X-2986104Y12438556D01*
X-3066905Y12435911D01*
X-3152750Y12450084D01*
X-3207184Y12464669D01*
X-3207193Y12464671D01*
X-6733788Y13409619D01*
X-6733793Y13409621D01*
X-6788233Y13424208D01*
X-6869663Y13454856D01*
X-6938318Y13497548D01*
X-6997321Y13552811D01*
X-7044413Y13618527D01*
X-7077775Y13692160D01*
X-7096134Y13770896D01*
X-7098779Y13851697D01*
X-7084606Y13937542D01*
X-7031832Y14134496D01*
X-6823881Y14910581D01*
X-6823878Y14910588D01*
X-6809293Y14965021D01*
X-6778642Y15046460D01*
X-6735954Y15115108D01*
X-6680689Y15174113D01*
X-6614973Y15221205D01*
X-6541339Y15254568D01*
X-6462604Y15272926D01*
X-6381803Y15275571D01*
X-6295958Y15261398D01*
X-6295958Y15261398D01*
G37*
G36*
X33083150Y18645234D02*
X33147874Y18631624D01*
X33208700Y18605648D01*
X33268378Y18564824D01*
X33311552Y18528597D01*
X33311556Y18528594D01*
X33925158Y18013721D01*
X33925167Y18013712D01*
X33968338Y17977487D01*
X34018904Y17925806D01*
X34055046Y17870416D01*
X34079690Y17809035D01*
X34091885Y17744031D01*
X34091163Y17677890D01*
X34077553Y17613166D01*
X34051578Y17552341D01*
X34010748Y17492654D01*
X31816453Y14877596D01*
X31764768Y14827027D01*
X31709375Y14790882D01*
X31647996Y14766239D01*
X31582991Y14754044D01*
X31516850Y14754766D01*
X31452126Y14768376D01*
X31391300Y14794352D01*
X31331622Y14835176D01*
X31288448Y14871403D01*
X31288444Y14871406D01*
X30674842Y15386279D01*
X30674833Y15386288D01*
X30631662Y15422513D01*
X30581096Y15474194D01*
X30544954Y15529584D01*
X30520310Y15590965D01*
X30508115Y15655969D01*
X30508837Y15722110D01*
X30522447Y15786834D01*
X30548422Y15847659D01*
X30589252Y15907346D01*
X32783547Y18522404D01*
X32835232Y18572973D01*
X32890625Y18609118D01*
X32952004Y18633761D01*
X33017009Y18645956D01*
X33083150Y18645234D01*
X33083150Y18645234D01*
G37*
G36*
X28831533Y19596773D02*
X28894391Y19576197D01*
X28952027Y19543754D01*
X29002232Y19500685D01*
X29043063Y19448659D01*
X29072962Y19389662D01*
X29092439Y19320019D01*
X29685223Y15958166D01*
X29690740Y15886061D01*
X29682823Y15820397D01*
X29662247Y15757539D01*
X29629804Y15699903D01*
X29586735Y15649698D01*
X29534709Y15608867D01*
X29475712Y15578968D01*
X29406069Y15559491D01*
X29114898Y15508150D01*
X28561737Y15410613D01*
X28561734Y15410613D01*
X28506236Y15400827D01*
X28434131Y15395310D01*
X28368467Y15403227D01*
X28305609Y15423803D01*
X28247973Y15456246D01*
X28197768Y15499315D01*
X28156937Y15551341D01*
X28127038Y15610338D01*
X28107561Y15679981D01*
X27599985Y18558595D01*
X27524563Y18986333D01*
X27524563Y18986336D01*
X27514777Y19041834D01*
X27509260Y19113939D01*
X27517177Y19179603D01*
X27537753Y19242461D01*
X27570196Y19300097D01*
X27613265Y19350302D01*
X27665291Y19391133D01*
X27724288Y19421032D01*
X27793931Y19440509D01*
X28270055Y19524462D01*
X28638263Y19589387D01*
X28638266Y19589387D01*
X28693764Y19599173D01*
X28765869Y19604690D01*
X28831533Y19596773D01*
X28831533Y19596773D01*
G37*
G36*
X-22716697Y19661322D02*
X-22662263Y19646737D01*
X-22662254Y19646735D01*
X-19135659Y18701787D01*
X-19135654Y18701785D01*
X-19081214Y18687198D01*
X-18999784Y18656550D01*
X-18931129Y18613858D01*
X-18872126Y18558595D01*
X-18825034Y18492879D01*
X-18791672Y18419246D01*
X-18773313Y18340510D01*
X-18770668Y18259709D01*
X-18784841Y18173864D01*
X-18799429Y18119421D01*
X-19045566Y17200825D01*
X-19045569Y17200818D01*
X-19060154Y17146385D01*
X-19090805Y17064946D01*
X-19133493Y16996298D01*
X-19188758Y16937293D01*
X-19254474Y16890201D01*
X-19328108Y16856838D01*
X-19406843Y16838480D01*
X-19487644Y16835835D01*
X-19573489Y16850008D01*
X-19627923Y16864593D01*
X-19627932Y16864595D01*
X-23154527Y17809543D01*
X-23154532Y17809545D01*
X-23208972Y17824132D01*
X-23290402Y17854780D01*
X-23359057Y17897472D01*
X-23418060Y17952735D01*
X-23465152Y18018451D01*
X-23498514Y18092084D01*
X-23516873Y18170820D01*
X-23519518Y18251621D01*
X-23505345Y18337466D01*
X-23446787Y18556008D01*
X-23244620Y19310505D01*
X-23244617Y19310512D01*
X-23230032Y19364945D01*
X-23199381Y19446384D01*
X-23156693Y19515032D01*
X-23101428Y19574037D01*
X-23035712Y19621129D01*
X-22962078Y19654492D01*
X-22883343Y19672850D01*
X-22802542Y19675495D01*
X-22716697Y19661322D01*
X-22716697Y19661322D01*
G37*
G36*
X-27981396Y19721653D02*
X-27944855Y19710568D01*
X-27911180Y19692569D01*
X-27881659Y19668341D01*
X-27857431Y19638820D01*
X-27839432Y19605145D01*
X-27828347Y19568604D01*
X-27824000Y19524462D01*
X-27824000Y18075538D01*
X-27828347Y18031396D01*
X-27839432Y17994855D01*
X-27857431Y17961180D01*
X-27881659Y17931659D01*
X-27911180Y17907431D01*
X-27944855Y17889432D01*
X-27981396Y17878347D01*
X-28025538Y17874000D01*
X-28974462Y17874000D01*
X-29018604Y17878347D01*
X-29055145Y17889432D01*
X-29088820Y17907431D01*
X-29118341Y17931659D01*
X-29142569Y17961180D01*
X-29160568Y17994855D01*
X-29171653Y18031396D01*
X-29176000Y18075538D01*
X-29176000Y19524462D01*
X-29171653Y19568604D01*
X-29160568Y19605145D01*
X-29142569Y19638820D01*
X-29118341Y19668341D01*
X-29088820Y19692569D01*
X-29055145Y19710568D01*
X-29018604Y19721653D01*
X-28974462Y19726000D01*
X-28025538Y19726000D01*
X-27981396Y19721653D01*
X-27981396Y19721653D01*
G37*
G36*
X-25181396Y19721653D02*
X-25144855Y19710568D01*
X-25111180Y19692569D01*
X-25081659Y19668341D01*
X-25057431Y19638820D01*
X-25039432Y19605145D01*
X-25028347Y19568604D01*
X-25024000Y19524462D01*
X-25024000Y18075538D01*
X-25028347Y18031396D01*
X-25039432Y17994855D01*
X-25057431Y17961180D01*
X-25081659Y17931659D01*
X-25111180Y17907431D01*
X-25144855Y17889432D01*
X-25181396Y17878347D01*
X-25225538Y17874000D01*
X-26174462Y17874000D01*
X-26218604Y17878347D01*
X-26255145Y17889432D01*
X-26288820Y17907431D01*
X-26318341Y17931659D01*
X-26342569Y17961180D01*
X-26360568Y17994855D01*
X-26371653Y18031396D01*
X-26376000Y18075538D01*
X-26376000Y19524462D01*
X-26371653Y19568604D01*
X-26360568Y19605145D01*
X-26342569Y19638820D01*
X-26318341Y19668341D01*
X-26288820Y19692569D01*
X-26255145Y19710568D01*
X-26218604Y19721653D01*
X-26174462Y19726000D01*
X-25225538Y19726000D01*
X-25181396Y19721653D01*
X-25181396Y19721653D01*
G37*
G36*
X21948262Y21660876D02*
X21985447Y21652205D01*
X22020234Y21636444D01*
X22051272Y21614202D01*
X22077376Y21586331D01*
X22097542Y21553902D01*
X22113166Y21512390D01*
X22488173Y20112844D01*
X22495399Y20069074D01*
X22494150Y20030909D01*
X22485479Y19993723D01*
X22469719Y19958941D01*
X22447474Y19927898D01*
X22419605Y19901795D01*
X22387176Y19881629D01*
X22345664Y19866005D01*
X21429081Y19620407D01*
X21385311Y19613181D01*
X21347146Y19614430D01*
X21309961Y19623101D01*
X21275174Y19638862D01*
X21244136Y19661104D01*
X21218032Y19688975D01*
X21197866Y19721404D01*
X21182242Y19762916D01*
X20807235Y21162462D01*
X20800009Y21206232D01*
X20801258Y21244397D01*
X20809929Y21281583D01*
X20825689Y21316365D01*
X20847934Y21347408D01*
X20875803Y21373511D01*
X20908232Y21393677D01*
X20949744Y21409301D01*
X21866327Y21654899D01*
X21910097Y21662125D01*
X21948262Y21660876D01*
X21948262Y21660876D01*
G37*
G36*
X24652854Y22385570D02*
X24690039Y22376899D01*
X24724826Y22361138D01*
X24755864Y22338896D01*
X24781968Y22311025D01*
X24802134Y22278596D01*
X24817758Y22237084D01*
X25192765Y20837538D01*
X25199991Y20793768D01*
X25198742Y20755603D01*
X25190071Y20718417D01*
X25174311Y20683635D01*
X25152066Y20652592D01*
X25124197Y20626489D01*
X25091768Y20606323D01*
X25050256Y20590699D01*
X24133673Y20345101D01*
X24089903Y20337875D01*
X24051738Y20339124D01*
X24014553Y20347795D01*
X23979766Y20363556D01*
X23948728Y20385798D01*
X23922624Y20413669D01*
X23902458Y20446098D01*
X23886834Y20487610D01*
X23511827Y21887156D01*
X23504601Y21930926D01*
X23505850Y21969091D01*
X23514521Y22006277D01*
X23530281Y22041059D01*
X23552526Y22072102D01*
X23580395Y22098205D01*
X23612824Y22118371D01*
X23654336Y22133995D01*
X24570919Y22379593D01*
X24614689Y22386819D01*
X24652854Y22385570D01*
X24652854Y22385570D01*
G37*
G36*
X-34271047Y22237084D02*
X-34210402Y22225021D01*
X-34175755Y22210670D01*
X-34092110Y22176023D01*
X-33985646Y22104886D01*
X-33895114Y22014354D01*
X-33823977Y21907890D01*
X-33774979Y21789597D01*
X-33750000Y21664021D01*
X-33750000Y21535979D01*
X-33758055Y21495486D01*
X-33774979Y21410402D01*
X-33781907Y21393677D01*
X-33823977Y21292110D01*
X-33895114Y21185646D01*
X-33985646Y21095114D01*
X-34092110Y21023977D01*
X-34175755Y20989330D01*
X-34210402Y20974979D01*
X-34252262Y20966653D01*
X-34335979Y20950000D01*
X-34464021Y20950000D01*
X-34547738Y20966653D01*
X-34589598Y20974979D01*
X-34624245Y20989330D01*
X-34707890Y21023977D01*
X-34814354Y21095114D01*
X-34904886Y21185646D01*
X-34976023Y21292110D01*
X-35018093Y21393677D01*
X-35025021Y21410402D01*
X-35041945Y21495486D01*
X-35050000Y21535979D01*
X-35050000Y21664021D01*
X-35025021Y21789597D01*
X-34976023Y21907890D01*
X-34904886Y22014354D01*
X-34814354Y22104886D01*
X-34707890Y22176023D01*
X-34624245Y22210670D01*
X-34589598Y22225021D01*
X-34528953Y22237084D01*
X-34464021Y22250000D01*
X-34335979Y22250000D01*
X-34271047Y22237084D01*
X-34271047Y22237084D01*
G37*
M02*
