G04 #@! TF.GenerationSoftware,KiCad,Pcbnew,5.0.2+dfsg1-1*
G04 #@! TF.CreationDate,2021-09-10T13:16:56+02:00*
G04 #@! TF.ProjectId,edgedriver,65646765-6472-4697-9665-722e6b696361,rev?*
G04 #@! TF.SameCoordinates,Original*
G04 #@! TF.FileFunction,Paste,Top*
G04 #@! TF.FilePolarity,Positive*
%FSLAX46Y46*%
G04 Gerber Fmt 4.6, Leading zero omitted, Abs format (unit mm)*
G04 Created by KiCad (PCBNEW 5.0.2+dfsg1-1) date Fri 10 Sep 2021 01:16:56 PM CEST*
%MOMM*%
%LPD*%
G01*
G04 APERTURE LIST*
%ADD10C,0.010000*%
%ADD11C,1.152000*%
%ADD12C,0.100000*%
%ADD13C,0.590000*%
%ADD14R,0.900000X0.800000*%
%ADD15R,0.450000X1.450000*%
%ADD16C,0.900000*%
%ADD17C,1.800000*%
%ADD18C,0.800000*%
%ADD19C,2.100000*%
%ADD20C,1.250000*%
G04 APERTURE END LIST*
D10*
G04 #@! TO.C,U1*
G36*
X2478281Y-15287868D02*
X3418733Y-16228320D01*
X2478281Y-17168772D01*
X1537829Y-16228320D01*
X2478281Y-15287868D01*
G37*
X2478281Y-15287868D02*
X3418733Y-16228320D01*
X2478281Y-17168772D01*
X1537829Y-16228320D01*
X2478281Y-15287868D01*
G36*
X1180740Y-13990327D02*
X2121192Y-14930779D01*
X1180740Y-15871231D01*
X240288Y-14930779D01*
X1180740Y-13990327D01*
G37*
X1180740Y-13990327D02*
X2121192Y-14930779D01*
X1180740Y-15871231D01*
X240288Y-14930779D01*
X1180740Y-13990327D01*
G36*
X3775822Y-16585409D02*
X4716274Y-17525861D01*
X3775822Y-18466313D01*
X2835370Y-17525861D01*
X3775822Y-16585409D01*
G37*
X3775822Y-16585409D02*
X4716274Y-17525861D01*
X3775822Y-18466313D01*
X2835370Y-17525861D01*
X3775822Y-16585409D01*
G36*
X5073363Y-15287868D02*
X6013815Y-16228320D01*
X5073363Y-17168772D01*
X4132911Y-16228320D01*
X5073363Y-15287868D01*
G37*
X5073363Y-15287868D02*
X6013815Y-16228320D01*
X5073363Y-17168772D01*
X4132911Y-16228320D01*
X5073363Y-15287868D01*
G36*
X3775822Y-13990327D02*
X4716274Y-14930779D01*
X3775822Y-15871231D01*
X2835370Y-14930779D01*
X3775822Y-13990327D01*
G37*
X3775822Y-13990327D02*
X4716274Y-14930779D01*
X3775822Y-15871231D01*
X2835370Y-14930779D01*
X3775822Y-13990327D01*
G36*
X2478281Y-12692786D02*
X3418733Y-13633238D01*
X2478281Y-14573690D01*
X1537829Y-13633238D01*
X2478281Y-12692786D01*
G37*
X2478281Y-12692786D02*
X3418733Y-13633238D01*
X2478281Y-14573690D01*
X1537829Y-13633238D01*
X2478281Y-12692786D01*
G36*
X-116801Y-15287868D02*
X823652Y-16228320D01*
X-116801Y-17168772D01*
X-1057253Y-16228320D01*
X-116801Y-15287868D01*
G37*
X-116801Y-15287868D02*
X823652Y-16228320D01*
X-116801Y-17168772D01*
X-1057253Y-16228320D01*
X-116801Y-15287868D01*
G36*
X1180740Y-16585409D02*
X2121192Y-17525861D01*
X1180740Y-18466313D01*
X240288Y-17525861D01*
X1180740Y-16585409D01*
G37*
X1180740Y-16585409D02*
X2121192Y-17525861D01*
X1180740Y-18466313D01*
X240288Y-17525861D01*
X1180740Y-16585409D01*
G36*
X2478281Y-17882950D02*
X3418733Y-18823402D01*
X2478281Y-19763854D01*
X1537829Y-18823402D01*
X2478281Y-17882950D01*
G37*
X2478281Y-17882950D02*
X3418733Y-18823402D01*
X2478281Y-19763854D01*
X1537829Y-18823402D01*
X2478281Y-17882950D01*
G04 #@! TD*
D11*
G04 #@! TO.C,REF\002A\002A*
X-34400000Y21600000D03*
G04 #@! TD*
D12*
G04 #@! TO.C,R3*
G36*
X25476958Y-12480710D02*
X25491276Y-12482834D01*
X25505317Y-12486351D01*
X25518946Y-12491228D01*
X25532031Y-12497417D01*
X25544447Y-12504858D01*
X25556073Y-12513481D01*
X25566798Y-12523202D01*
X25576519Y-12533927D01*
X25585142Y-12545553D01*
X25592583Y-12557969D01*
X25598772Y-12571054D01*
X25603649Y-12584683D01*
X25607166Y-12598724D01*
X25609290Y-12613042D01*
X25610000Y-12627500D01*
X25610000Y-12972500D01*
X25609290Y-12986958D01*
X25607166Y-13001276D01*
X25603649Y-13015317D01*
X25598772Y-13028946D01*
X25592583Y-13042031D01*
X25585142Y-13054447D01*
X25576519Y-13066073D01*
X25566798Y-13076798D01*
X25556073Y-13086519D01*
X25544447Y-13095142D01*
X25532031Y-13102583D01*
X25518946Y-13108772D01*
X25505317Y-13113649D01*
X25491276Y-13117166D01*
X25476958Y-13119290D01*
X25462500Y-13120000D01*
X25167500Y-13120000D01*
X25153042Y-13119290D01*
X25138724Y-13117166D01*
X25124683Y-13113649D01*
X25111054Y-13108772D01*
X25097969Y-13102583D01*
X25085553Y-13095142D01*
X25073927Y-13086519D01*
X25063202Y-13076798D01*
X25053481Y-13066073D01*
X25044858Y-13054447D01*
X25037417Y-13042031D01*
X25031228Y-13028946D01*
X25026351Y-13015317D01*
X25022834Y-13001276D01*
X25020710Y-12986958D01*
X25020000Y-12972500D01*
X25020000Y-12627500D01*
X25020710Y-12613042D01*
X25022834Y-12598724D01*
X25026351Y-12584683D01*
X25031228Y-12571054D01*
X25037417Y-12557969D01*
X25044858Y-12545553D01*
X25053481Y-12533927D01*
X25063202Y-12523202D01*
X25073927Y-12513481D01*
X25085553Y-12504858D01*
X25097969Y-12497417D01*
X25111054Y-12491228D01*
X25124683Y-12486351D01*
X25138724Y-12482834D01*
X25153042Y-12480710D01*
X25167500Y-12480000D01*
X25462500Y-12480000D01*
X25476958Y-12480710D01*
X25476958Y-12480710D01*
G37*
D13*
X25315000Y-12800000D03*
D12*
G36*
X26446958Y-12480710D02*
X26461276Y-12482834D01*
X26475317Y-12486351D01*
X26488946Y-12491228D01*
X26502031Y-12497417D01*
X26514447Y-12504858D01*
X26526073Y-12513481D01*
X26536798Y-12523202D01*
X26546519Y-12533927D01*
X26555142Y-12545553D01*
X26562583Y-12557969D01*
X26568772Y-12571054D01*
X26573649Y-12584683D01*
X26577166Y-12598724D01*
X26579290Y-12613042D01*
X26580000Y-12627500D01*
X26580000Y-12972500D01*
X26579290Y-12986958D01*
X26577166Y-13001276D01*
X26573649Y-13015317D01*
X26568772Y-13028946D01*
X26562583Y-13042031D01*
X26555142Y-13054447D01*
X26546519Y-13066073D01*
X26536798Y-13076798D01*
X26526073Y-13086519D01*
X26514447Y-13095142D01*
X26502031Y-13102583D01*
X26488946Y-13108772D01*
X26475317Y-13113649D01*
X26461276Y-13117166D01*
X26446958Y-13119290D01*
X26432500Y-13120000D01*
X26137500Y-13120000D01*
X26123042Y-13119290D01*
X26108724Y-13117166D01*
X26094683Y-13113649D01*
X26081054Y-13108772D01*
X26067969Y-13102583D01*
X26055553Y-13095142D01*
X26043927Y-13086519D01*
X26033202Y-13076798D01*
X26023481Y-13066073D01*
X26014858Y-13054447D01*
X26007417Y-13042031D01*
X26001228Y-13028946D01*
X25996351Y-13015317D01*
X25992834Y-13001276D01*
X25990710Y-12986958D01*
X25990000Y-12972500D01*
X25990000Y-12627500D01*
X25990710Y-12613042D01*
X25992834Y-12598724D01*
X25996351Y-12584683D01*
X26001228Y-12571054D01*
X26007417Y-12557969D01*
X26014858Y-12545553D01*
X26023481Y-12533927D01*
X26033202Y-12523202D01*
X26043927Y-12513481D01*
X26055553Y-12504858D01*
X26067969Y-12497417D01*
X26081054Y-12491228D01*
X26094683Y-12486351D01*
X26108724Y-12482834D01*
X26123042Y-12480710D01*
X26137500Y-12480000D01*
X26432500Y-12480000D01*
X26446958Y-12480710D01*
X26446958Y-12480710D01*
G37*
D13*
X26285000Y-12800000D03*
G04 #@! TD*
D14*
G04 #@! TO.C,Q1*
X29800000Y-13600000D03*
X27800000Y-14550000D03*
X27800000Y-12650000D03*
G04 #@! TD*
D15*
G04 #@! TO.C,U3*
X-23507000Y-27780000D03*
X-22857000Y-27780000D03*
X-22207000Y-27780000D03*
X-21557000Y-27780000D03*
X-20907000Y-27780000D03*
X-20257000Y-27780000D03*
X-19607000Y-27780000D03*
X-18957000Y-27780000D03*
X-18307000Y-27780000D03*
X-17657000Y-27780000D03*
X-17657000Y-21880000D03*
X-18307000Y-21880000D03*
X-18957000Y-21880000D03*
X-19607000Y-21880000D03*
X-20257000Y-21880000D03*
X-20907000Y-21880000D03*
X-21557000Y-21880000D03*
X-22207000Y-21880000D03*
X-22857000Y-21880000D03*
X-23507000Y-21880000D03*
G04 #@! TD*
D12*
G04 #@! TO.C,R6*
G36*
X-19153042Y-29280710D02*
X-19138724Y-29282834D01*
X-19124683Y-29286351D01*
X-19111054Y-29291228D01*
X-19097969Y-29297417D01*
X-19085553Y-29304858D01*
X-19073927Y-29313481D01*
X-19063202Y-29323202D01*
X-19053481Y-29333927D01*
X-19044858Y-29345553D01*
X-19037417Y-29357969D01*
X-19031228Y-29371054D01*
X-19026351Y-29384683D01*
X-19022834Y-29398724D01*
X-19020710Y-29413042D01*
X-19020000Y-29427500D01*
X-19020000Y-29772500D01*
X-19020710Y-29786958D01*
X-19022834Y-29801276D01*
X-19026351Y-29815317D01*
X-19031228Y-29828946D01*
X-19037417Y-29842031D01*
X-19044858Y-29854447D01*
X-19053481Y-29866073D01*
X-19063202Y-29876798D01*
X-19073927Y-29886519D01*
X-19085553Y-29895142D01*
X-19097969Y-29902583D01*
X-19111054Y-29908772D01*
X-19124683Y-29913649D01*
X-19138724Y-29917166D01*
X-19153042Y-29919290D01*
X-19167500Y-29920000D01*
X-19462500Y-29920000D01*
X-19476958Y-29919290D01*
X-19491276Y-29917166D01*
X-19505317Y-29913649D01*
X-19518946Y-29908772D01*
X-19532031Y-29902583D01*
X-19544447Y-29895142D01*
X-19556073Y-29886519D01*
X-19566798Y-29876798D01*
X-19576519Y-29866073D01*
X-19585142Y-29854447D01*
X-19592583Y-29842031D01*
X-19598772Y-29828946D01*
X-19603649Y-29815317D01*
X-19607166Y-29801276D01*
X-19609290Y-29786958D01*
X-19610000Y-29772500D01*
X-19610000Y-29427500D01*
X-19609290Y-29413042D01*
X-19607166Y-29398724D01*
X-19603649Y-29384683D01*
X-19598772Y-29371054D01*
X-19592583Y-29357969D01*
X-19585142Y-29345553D01*
X-19576519Y-29333927D01*
X-19566798Y-29323202D01*
X-19556073Y-29313481D01*
X-19544447Y-29304858D01*
X-19532031Y-29297417D01*
X-19518946Y-29291228D01*
X-19505317Y-29286351D01*
X-19491276Y-29282834D01*
X-19476958Y-29280710D01*
X-19462500Y-29280000D01*
X-19167500Y-29280000D01*
X-19153042Y-29280710D01*
X-19153042Y-29280710D01*
G37*
D13*
X-19315000Y-29600000D03*
D12*
G36*
X-20123042Y-29280710D02*
X-20108724Y-29282834D01*
X-20094683Y-29286351D01*
X-20081054Y-29291228D01*
X-20067969Y-29297417D01*
X-20055553Y-29304858D01*
X-20043927Y-29313481D01*
X-20033202Y-29323202D01*
X-20023481Y-29333927D01*
X-20014858Y-29345553D01*
X-20007417Y-29357969D01*
X-20001228Y-29371054D01*
X-19996351Y-29384683D01*
X-19992834Y-29398724D01*
X-19990710Y-29413042D01*
X-19990000Y-29427500D01*
X-19990000Y-29772500D01*
X-19990710Y-29786958D01*
X-19992834Y-29801276D01*
X-19996351Y-29815317D01*
X-20001228Y-29828946D01*
X-20007417Y-29842031D01*
X-20014858Y-29854447D01*
X-20023481Y-29866073D01*
X-20033202Y-29876798D01*
X-20043927Y-29886519D01*
X-20055553Y-29895142D01*
X-20067969Y-29902583D01*
X-20081054Y-29908772D01*
X-20094683Y-29913649D01*
X-20108724Y-29917166D01*
X-20123042Y-29919290D01*
X-20137500Y-29920000D01*
X-20432500Y-29920000D01*
X-20446958Y-29919290D01*
X-20461276Y-29917166D01*
X-20475317Y-29913649D01*
X-20488946Y-29908772D01*
X-20502031Y-29902583D01*
X-20514447Y-29895142D01*
X-20526073Y-29886519D01*
X-20536798Y-29876798D01*
X-20546519Y-29866073D01*
X-20555142Y-29854447D01*
X-20562583Y-29842031D01*
X-20568772Y-29828946D01*
X-20573649Y-29815317D01*
X-20577166Y-29801276D01*
X-20579290Y-29786958D01*
X-20580000Y-29772500D01*
X-20580000Y-29427500D01*
X-20579290Y-29413042D01*
X-20577166Y-29398724D01*
X-20573649Y-29384683D01*
X-20568772Y-29371054D01*
X-20562583Y-29357969D01*
X-20555142Y-29345553D01*
X-20546519Y-29333927D01*
X-20536798Y-29323202D01*
X-20526073Y-29313481D01*
X-20514447Y-29304858D01*
X-20502031Y-29297417D01*
X-20488946Y-29291228D01*
X-20475317Y-29286351D01*
X-20461276Y-29282834D01*
X-20446958Y-29280710D01*
X-20432500Y-29280000D01*
X-20137500Y-29280000D01*
X-20123042Y-29280710D01*
X-20123042Y-29280710D01*
G37*
D13*
X-20285000Y-29600000D03*
G04 #@! TD*
D12*
G04 #@! TO.C,C8*
G36*
X-24713042Y-24812710D02*
X-24698724Y-24814834D01*
X-24684683Y-24818351D01*
X-24671054Y-24823228D01*
X-24657969Y-24829417D01*
X-24645553Y-24836858D01*
X-24633927Y-24845481D01*
X-24623202Y-24855202D01*
X-24613481Y-24865927D01*
X-24604858Y-24877553D01*
X-24597417Y-24889969D01*
X-24591228Y-24903054D01*
X-24586351Y-24916683D01*
X-24582834Y-24930724D01*
X-24580710Y-24945042D01*
X-24580000Y-24959500D01*
X-24580000Y-25254500D01*
X-24580710Y-25268958D01*
X-24582834Y-25283276D01*
X-24586351Y-25297317D01*
X-24591228Y-25310946D01*
X-24597417Y-25324031D01*
X-24604858Y-25336447D01*
X-24613481Y-25348073D01*
X-24623202Y-25358798D01*
X-24633927Y-25368519D01*
X-24645553Y-25377142D01*
X-24657969Y-25384583D01*
X-24671054Y-25390772D01*
X-24684683Y-25395649D01*
X-24698724Y-25399166D01*
X-24713042Y-25401290D01*
X-24727500Y-25402000D01*
X-25072500Y-25402000D01*
X-25086958Y-25401290D01*
X-25101276Y-25399166D01*
X-25115317Y-25395649D01*
X-25128946Y-25390772D01*
X-25142031Y-25384583D01*
X-25154447Y-25377142D01*
X-25166073Y-25368519D01*
X-25176798Y-25358798D01*
X-25186519Y-25348073D01*
X-25195142Y-25336447D01*
X-25202583Y-25324031D01*
X-25208772Y-25310946D01*
X-25213649Y-25297317D01*
X-25217166Y-25283276D01*
X-25219290Y-25268958D01*
X-25220000Y-25254500D01*
X-25220000Y-24959500D01*
X-25219290Y-24945042D01*
X-25217166Y-24930724D01*
X-25213649Y-24916683D01*
X-25208772Y-24903054D01*
X-25202583Y-24889969D01*
X-25195142Y-24877553D01*
X-25186519Y-24865927D01*
X-25176798Y-24855202D01*
X-25166073Y-24845481D01*
X-25154447Y-24836858D01*
X-25142031Y-24829417D01*
X-25128946Y-24823228D01*
X-25115317Y-24818351D01*
X-25101276Y-24814834D01*
X-25086958Y-24812710D01*
X-25072500Y-24812000D01*
X-24727500Y-24812000D01*
X-24713042Y-24812710D01*
X-24713042Y-24812710D01*
G37*
D13*
X-24900000Y-25107000D03*
D12*
G36*
X-24713042Y-25782710D02*
X-24698724Y-25784834D01*
X-24684683Y-25788351D01*
X-24671054Y-25793228D01*
X-24657969Y-25799417D01*
X-24645553Y-25806858D01*
X-24633927Y-25815481D01*
X-24623202Y-25825202D01*
X-24613481Y-25835927D01*
X-24604858Y-25847553D01*
X-24597417Y-25859969D01*
X-24591228Y-25873054D01*
X-24586351Y-25886683D01*
X-24582834Y-25900724D01*
X-24580710Y-25915042D01*
X-24580000Y-25929500D01*
X-24580000Y-26224500D01*
X-24580710Y-26238958D01*
X-24582834Y-26253276D01*
X-24586351Y-26267317D01*
X-24591228Y-26280946D01*
X-24597417Y-26294031D01*
X-24604858Y-26306447D01*
X-24613481Y-26318073D01*
X-24623202Y-26328798D01*
X-24633927Y-26338519D01*
X-24645553Y-26347142D01*
X-24657969Y-26354583D01*
X-24671054Y-26360772D01*
X-24684683Y-26365649D01*
X-24698724Y-26369166D01*
X-24713042Y-26371290D01*
X-24727500Y-26372000D01*
X-25072500Y-26372000D01*
X-25086958Y-26371290D01*
X-25101276Y-26369166D01*
X-25115317Y-26365649D01*
X-25128946Y-26360772D01*
X-25142031Y-26354583D01*
X-25154447Y-26347142D01*
X-25166073Y-26338519D01*
X-25176798Y-26328798D01*
X-25186519Y-26318073D01*
X-25195142Y-26306447D01*
X-25202583Y-26294031D01*
X-25208772Y-26280946D01*
X-25213649Y-26267317D01*
X-25217166Y-26253276D01*
X-25219290Y-26238958D01*
X-25220000Y-26224500D01*
X-25220000Y-25929500D01*
X-25219290Y-25915042D01*
X-25217166Y-25900724D01*
X-25213649Y-25886683D01*
X-25208772Y-25873054D01*
X-25202583Y-25859969D01*
X-25195142Y-25847553D01*
X-25186519Y-25835927D01*
X-25176798Y-25825202D01*
X-25166073Y-25815481D01*
X-25154447Y-25806858D01*
X-25142031Y-25799417D01*
X-25128946Y-25793228D01*
X-25115317Y-25788351D01*
X-25101276Y-25784834D01*
X-25086958Y-25782710D01*
X-25072500Y-25782000D01*
X-24727500Y-25782000D01*
X-24713042Y-25782710D01*
X-24713042Y-25782710D01*
G37*
D13*
X-24900000Y-26077000D03*
G04 #@! TD*
D12*
G04 #@! TO.C,R7*
G36*
X-24713042Y-27098710D02*
X-24698724Y-27100834D01*
X-24684683Y-27104351D01*
X-24671054Y-27109228D01*
X-24657969Y-27115417D01*
X-24645553Y-27122858D01*
X-24633927Y-27131481D01*
X-24623202Y-27141202D01*
X-24613481Y-27151927D01*
X-24604858Y-27163553D01*
X-24597417Y-27175969D01*
X-24591228Y-27189054D01*
X-24586351Y-27202683D01*
X-24582834Y-27216724D01*
X-24580710Y-27231042D01*
X-24580000Y-27245500D01*
X-24580000Y-27540500D01*
X-24580710Y-27554958D01*
X-24582834Y-27569276D01*
X-24586351Y-27583317D01*
X-24591228Y-27596946D01*
X-24597417Y-27610031D01*
X-24604858Y-27622447D01*
X-24613481Y-27634073D01*
X-24623202Y-27644798D01*
X-24633927Y-27654519D01*
X-24645553Y-27663142D01*
X-24657969Y-27670583D01*
X-24671054Y-27676772D01*
X-24684683Y-27681649D01*
X-24698724Y-27685166D01*
X-24713042Y-27687290D01*
X-24727500Y-27688000D01*
X-25072500Y-27688000D01*
X-25086958Y-27687290D01*
X-25101276Y-27685166D01*
X-25115317Y-27681649D01*
X-25128946Y-27676772D01*
X-25142031Y-27670583D01*
X-25154447Y-27663142D01*
X-25166073Y-27654519D01*
X-25176798Y-27644798D01*
X-25186519Y-27634073D01*
X-25195142Y-27622447D01*
X-25202583Y-27610031D01*
X-25208772Y-27596946D01*
X-25213649Y-27583317D01*
X-25217166Y-27569276D01*
X-25219290Y-27554958D01*
X-25220000Y-27540500D01*
X-25220000Y-27245500D01*
X-25219290Y-27231042D01*
X-25217166Y-27216724D01*
X-25213649Y-27202683D01*
X-25208772Y-27189054D01*
X-25202583Y-27175969D01*
X-25195142Y-27163553D01*
X-25186519Y-27151927D01*
X-25176798Y-27141202D01*
X-25166073Y-27131481D01*
X-25154447Y-27122858D01*
X-25142031Y-27115417D01*
X-25128946Y-27109228D01*
X-25115317Y-27104351D01*
X-25101276Y-27100834D01*
X-25086958Y-27098710D01*
X-25072500Y-27098000D01*
X-24727500Y-27098000D01*
X-24713042Y-27098710D01*
X-24713042Y-27098710D01*
G37*
D13*
X-24900000Y-27393000D03*
D12*
G36*
X-24713042Y-28068710D02*
X-24698724Y-28070834D01*
X-24684683Y-28074351D01*
X-24671054Y-28079228D01*
X-24657969Y-28085417D01*
X-24645553Y-28092858D01*
X-24633927Y-28101481D01*
X-24623202Y-28111202D01*
X-24613481Y-28121927D01*
X-24604858Y-28133553D01*
X-24597417Y-28145969D01*
X-24591228Y-28159054D01*
X-24586351Y-28172683D01*
X-24582834Y-28186724D01*
X-24580710Y-28201042D01*
X-24580000Y-28215500D01*
X-24580000Y-28510500D01*
X-24580710Y-28524958D01*
X-24582834Y-28539276D01*
X-24586351Y-28553317D01*
X-24591228Y-28566946D01*
X-24597417Y-28580031D01*
X-24604858Y-28592447D01*
X-24613481Y-28604073D01*
X-24623202Y-28614798D01*
X-24633927Y-28624519D01*
X-24645553Y-28633142D01*
X-24657969Y-28640583D01*
X-24671054Y-28646772D01*
X-24684683Y-28651649D01*
X-24698724Y-28655166D01*
X-24713042Y-28657290D01*
X-24727500Y-28658000D01*
X-25072500Y-28658000D01*
X-25086958Y-28657290D01*
X-25101276Y-28655166D01*
X-25115317Y-28651649D01*
X-25128946Y-28646772D01*
X-25142031Y-28640583D01*
X-25154447Y-28633142D01*
X-25166073Y-28624519D01*
X-25176798Y-28614798D01*
X-25186519Y-28604073D01*
X-25195142Y-28592447D01*
X-25202583Y-28580031D01*
X-25208772Y-28566946D01*
X-25213649Y-28553317D01*
X-25217166Y-28539276D01*
X-25219290Y-28524958D01*
X-25220000Y-28510500D01*
X-25220000Y-28215500D01*
X-25219290Y-28201042D01*
X-25217166Y-28186724D01*
X-25213649Y-28172683D01*
X-25208772Y-28159054D01*
X-25202583Y-28145969D01*
X-25195142Y-28133553D01*
X-25186519Y-28121927D01*
X-25176798Y-28111202D01*
X-25166073Y-28101481D01*
X-25154447Y-28092858D01*
X-25142031Y-28085417D01*
X-25128946Y-28079228D01*
X-25115317Y-28074351D01*
X-25101276Y-28070834D01*
X-25086958Y-28068710D01*
X-25072500Y-28068000D01*
X-24727500Y-28068000D01*
X-24713042Y-28068710D01*
X-24713042Y-28068710D01*
G37*
D13*
X-24900000Y-28363000D03*
G04 #@! TD*
D16*
G04 #@! TO.C,U1*
X2478281Y-5621718D03*
D12*
G36*
X1452976Y-5232809D02*
X2089372Y-4596413D01*
X3503586Y-6010627D01*
X2867190Y-6647023D01*
X1452976Y-5232809D01*
X1452976Y-5232809D01*
G37*
D16*
X1580256Y-6519744D03*
D12*
G36*
X554951Y-6130835D02*
X1191347Y-5494439D01*
X2605561Y-6908653D01*
X1969165Y-7545049D01*
X554951Y-6130835D01*
X554951Y-6130835D01*
G37*
D16*
X682230Y-7417770D03*
D12*
G36*
X-343075Y-7028861D02*
X293321Y-6392465D01*
X1707535Y-7806679D01*
X1071139Y-8443075D01*
X-343075Y-7028861D01*
X-343075Y-7028861D01*
G37*
D16*
X-215795Y-8315795D03*
D12*
G36*
X-1241100Y-7926886D02*
X-604704Y-7290490D01*
X809510Y-8704704D01*
X173114Y-9341100D01*
X-1241100Y-7926886D01*
X-1241100Y-7926886D01*
G37*
D16*
X-1113821Y-9213821D03*
D12*
G36*
X-2139126Y-8824912D02*
X-1502730Y-8188516D01*
X-88516Y-9602730D01*
X-724912Y-10239126D01*
X-2139126Y-8824912D01*
X-2139126Y-8824912D01*
G37*
D16*
X-2011847Y-10111846D03*
D12*
G36*
X-3037152Y-9722937D02*
X-2400756Y-9086541D01*
X-986542Y-10500755D01*
X-1622938Y-11137151D01*
X-3037152Y-9722937D01*
X-3037152Y-9722937D01*
G37*
D16*
X-2909872Y-11009872D03*
D12*
G36*
X-3935177Y-10620963D02*
X-3298781Y-9984567D01*
X-1884567Y-11398781D01*
X-2520963Y-12035177D01*
X-3935177Y-10620963D01*
X-3935177Y-10620963D01*
G37*
D16*
X-3807898Y-11907898D03*
D12*
G36*
X-4833203Y-11518989D02*
X-4196807Y-10882593D01*
X-2782593Y-12296807D01*
X-3418989Y-12933203D01*
X-4833203Y-11518989D01*
X-4833203Y-11518989D01*
G37*
D16*
X-4705924Y-12805923D03*
D12*
G36*
X-5731229Y-12417014D02*
X-5094833Y-11780618D01*
X-3680619Y-13194832D01*
X-4317015Y-13831228D01*
X-5731229Y-12417014D01*
X-5731229Y-12417014D01*
G37*
D16*
X-5603949Y-13703949D03*
D12*
G36*
X-6629254Y-13315040D02*
X-5992858Y-12678644D01*
X-4578644Y-14092858D01*
X-5215040Y-14729254D01*
X-6629254Y-13315040D01*
X-6629254Y-13315040D01*
G37*
D16*
X-6501975Y-14601974D03*
D12*
G36*
X-7527280Y-14213065D02*
X-6890884Y-13576669D01*
X-5476670Y-14990883D01*
X-6113066Y-15627279D01*
X-7527280Y-14213065D01*
X-7527280Y-14213065D01*
G37*
D16*
X-7400000Y-15500000D03*
D12*
G36*
X-8425305Y-15111091D02*
X-7788909Y-14474695D01*
X-6374695Y-15888909D01*
X-7011091Y-16525305D01*
X-8425305Y-15111091D01*
X-8425305Y-15111091D01*
G37*
D16*
X-8298026Y-16398026D03*
D12*
G36*
X-9323331Y-16009117D02*
X-8686935Y-15372721D01*
X-7272721Y-16786935D01*
X-7909117Y-17423331D01*
X-9323331Y-16009117D01*
X-9323331Y-16009117D01*
G37*
D16*
X-9196052Y-17296051D03*
D12*
G36*
X-10221357Y-16907142D02*
X-9584961Y-16270746D01*
X-8170747Y-17684960D01*
X-8807143Y-18321356D01*
X-10221357Y-16907142D01*
X-10221357Y-16907142D01*
G37*
D16*
X-10094077Y-18194077D03*
D12*
G36*
X-11119382Y-17805168D02*
X-10482986Y-17168772D01*
X-9068772Y-18582986D01*
X-9705168Y-19219382D01*
X-11119382Y-17805168D01*
X-11119382Y-17805168D01*
G37*
D16*
X-10992103Y-19092103D03*
D12*
G36*
X-12017408Y-18703194D02*
X-11381012Y-18066798D01*
X-9966798Y-19481012D01*
X-10603194Y-20117408D01*
X-12017408Y-18703194D01*
X-12017408Y-18703194D01*
G37*
D16*
X-11890128Y-19990128D03*
D12*
G36*
X-12915433Y-19601219D02*
X-12279037Y-18964823D01*
X-10864823Y-20379037D01*
X-11501219Y-21015433D01*
X-12915433Y-19601219D01*
X-12915433Y-19601219D01*
G37*
D16*
X-12788154Y-20888154D03*
D12*
G36*
X-13813459Y-20499245D02*
X-13177063Y-19862849D01*
X-11762849Y-21277063D01*
X-12399245Y-21913459D01*
X-13813459Y-20499245D01*
X-13813459Y-20499245D01*
G37*
D16*
X-13686180Y-21786179D03*
D12*
G36*
X-14711485Y-21397270D02*
X-14075089Y-20760874D01*
X-12660875Y-22175088D01*
X-13297271Y-22811484D01*
X-14711485Y-21397270D01*
X-14711485Y-21397270D01*
G37*
D16*
X-1665365Y-33806995D03*
D12*
G36*
X-2690670Y-33418086D02*
X-2054274Y-32781690D01*
X-640060Y-34195904D01*
X-1276456Y-34832300D01*
X-2690670Y-33418086D01*
X-2690670Y-33418086D01*
G37*
D16*
X-767339Y-32908968D03*
D12*
G36*
X-1792644Y-32520059D02*
X-1156248Y-31883663D01*
X257966Y-33297877D01*
X-378430Y-33934273D01*
X-1792644Y-32520059D01*
X-1792644Y-32520059D01*
G37*
D16*
X130688Y-32010943D03*
D12*
G36*
X-894617Y-31622034D02*
X-258221Y-30985638D01*
X1155993Y-32399852D01*
X519597Y-33036248D01*
X-894617Y-31622034D01*
X-894617Y-31622034D01*
G37*
D16*
X1028712Y-31112918D03*
D12*
G36*
X3407Y-30724009D02*
X639803Y-30087613D01*
X2054017Y-31501827D01*
X1417621Y-32138223D01*
X3407Y-30724009D01*
X3407Y-30724009D01*
G37*
D16*
X1926738Y-30214892D03*
D12*
G36*
X901433Y-29825983D02*
X1537829Y-29189587D01*
X2952043Y-30603801D01*
X2315647Y-31240197D01*
X901433Y-29825983D01*
X901433Y-29825983D01*
G37*
D16*
X2824764Y-29316867D03*
D12*
G36*
X1799459Y-28927958D02*
X2435855Y-28291562D01*
X3850069Y-29705776D01*
X3213673Y-30342172D01*
X1799459Y-28927958D01*
X1799459Y-28927958D01*
G37*
D16*
X3722789Y-28418841D03*
D12*
G36*
X2697484Y-28029932D02*
X3333880Y-27393536D01*
X4748094Y-28807750D01*
X4111698Y-29444146D01*
X2697484Y-28029932D01*
X2697484Y-28029932D01*
G37*
D16*
X4620815Y-27520815D03*
D12*
G36*
X3595510Y-27131906D02*
X4231906Y-26495510D01*
X5646120Y-27909724D01*
X5009724Y-28546120D01*
X3595510Y-27131906D01*
X3595510Y-27131906D01*
G37*
D16*
X5518841Y-26622790D03*
D12*
G36*
X4493536Y-26233881D02*
X5129932Y-25597485D01*
X6544146Y-27011699D01*
X5907750Y-27648095D01*
X4493536Y-26233881D01*
X4493536Y-26233881D01*
G37*
D16*
X6416866Y-25724764D03*
D12*
G36*
X5391561Y-25335855D02*
X6027957Y-24699459D01*
X7442171Y-26113673D01*
X6805775Y-26750069D01*
X5391561Y-25335855D01*
X5391561Y-25335855D01*
G37*
D16*
X7314892Y-24826739D03*
D12*
G36*
X6289587Y-24437830D02*
X6925983Y-23801434D01*
X8340197Y-25215648D01*
X7703801Y-25852044D01*
X6289587Y-24437830D01*
X6289587Y-24437830D01*
G37*
D16*
X8212917Y-23928713D03*
D12*
G36*
X7187612Y-23539804D02*
X7824008Y-22903408D01*
X9238222Y-24317622D01*
X8601826Y-24954018D01*
X7187612Y-23539804D01*
X7187612Y-23539804D01*
G37*
D16*
X9110943Y-23030687D03*
D12*
G36*
X8085638Y-22641778D02*
X8722034Y-22005382D01*
X10136248Y-23419596D01*
X9499852Y-24055992D01*
X8085638Y-22641778D01*
X8085638Y-22641778D01*
G37*
D16*
X10008969Y-22132662D03*
D12*
G36*
X8983664Y-21743753D02*
X9620060Y-21107357D01*
X11034274Y-22521571D01*
X10397878Y-23157967D01*
X8983664Y-21743753D01*
X8983664Y-21743753D01*
G37*
D16*
X10906994Y-21234636D03*
D12*
G36*
X9881689Y-20845727D02*
X10518085Y-20209331D01*
X11932299Y-21623545D01*
X11295903Y-22259941D01*
X9881689Y-20845727D01*
X9881689Y-20845727D01*
G37*
D16*
X11805020Y-20336610D03*
D12*
G36*
X10779715Y-19947701D02*
X11416111Y-19311305D01*
X12830325Y-20725519D01*
X12193929Y-21361915D01*
X10779715Y-19947701D01*
X10779715Y-19947701D01*
G37*
D16*
X12703045Y-19438585D03*
D12*
G36*
X11677740Y-19049676D02*
X12314136Y-18413280D01*
X13728350Y-19827494D01*
X13091954Y-20463890D01*
X11677740Y-19049676D01*
X11677740Y-19049676D01*
G37*
D16*
X13601071Y-18540559D03*
D12*
G36*
X12575766Y-18151650D02*
X13212162Y-17515254D01*
X14626376Y-18929468D01*
X13989980Y-19565864D01*
X12575766Y-18151650D01*
X12575766Y-18151650D01*
G37*
D16*
X14499097Y-17642534D03*
D12*
G36*
X13473792Y-17253625D02*
X14110188Y-16617229D01*
X15524402Y-18031443D01*
X14888006Y-18667839D01*
X13473792Y-17253625D01*
X13473792Y-17253625D01*
G37*
G04 #@! TD*
D14*
G04 #@! TO.C,Q2*
X23600000Y-15950000D03*
X23600000Y-14050000D03*
X21600000Y-15000000D03*
G04 #@! TD*
D11*
G04 #@! TO.C,REF\002A\002A*
X35000000Y-13600000D03*
G04 #@! TD*
D12*
G04 #@! TO.C,C5*
G36*
X-4453042Y-8680710D02*
X-4438724Y-8682834D01*
X-4424683Y-8686351D01*
X-4411054Y-8691228D01*
X-4397969Y-8697417D01*
X-4385553Y-8704858D01*
X-4373927Y-8713481D01*
X-4363202Y-8723202D01*
X-4353481Y-8733927D01*
X-4344858Y-8745553D01*
X-4337417Y-8757969D01*
X-4331228Y-8771054D01*
X-4326351Y-8784683D01*
X-4322834Y-8798724D01*
X-4320710Y-8813042D01*
X-4320000Y-8827500D01*
X-4320000Y-9172500D01*
X-4320710Y-9186958D01*
X-4322834Y-9201276D01*
X-4326351Y-9215317D01*
X-4331228Y-9228946D01*
X-4337417Y-9242031D01*
X-4344858Y-9254447D01*
X-4353481Y-9266073D01*
X-4363202Y-9276798D01*
X-4373927Y-9286519D01*
X-4385553Y-9295142D01*
X-4397969Y-9302583D01*
X-4411054Y-9308772D01*
X-4424683Y-9313649D01*
X-4438724Y-9317166D01*
X-4453042Y-9319290D01*
X-4467500Y-9320000D01*
X-4762500Y-9320000D01*
X-4776958Y-9319290D01*
X-4791276Y-9317166D01*
X-4805317Y-9313649D01*
X-4818946Y-9308772D01*
X-4832031Y-9302583D01*
X-4844447Y-9295142D01*
X-4856073Y-9286519D01*
X-4866798Y-9276798D01*
X-4876519Y-9266073D01*
X-4885142Y-9254447D01*
X-4892583Y-9242031D01*
X-4898772Y-9228946D01*
X-4903649Y-9215317D01*
X-4907166Y-9201276D01*
X-4909290Y-9186958D01*
X-4910000Y-9172500D01*
X-4910000Y-8827500D01*
X-4909290Y-8813042D01*
X-4907166Y-8798724D01*
X-4903649Y-8784683D01*
X-4898772Y-8771054D01*
X-4892583Y-8757969D01*
X-4885142Y-8745553D01*
X-4876519Y-8733927D01*
X-4866798Y-8723202D01*
X-4856073Y-8713481D01*
X-4844447Y-8704858D01*
X-4832031Y-8697417D01*
X-4818946Y-8691228D01*
X-4805317Y-8686351D01*
X-4791276Y-8682834D01*
X-4776958Y-8680710D01*
X-4762500Y-8680000D01*
X-4467500Y-8680000D01*
X-4453042Y-8680710D01*
X-4453042Y-8680710D01*
G37*
D13*
X-4615000Y-9000000D03*
D12*
G36*
X-5423042Y-8680710D02*
X-5408724Y-8682834D01*
X-5394683Y-8686351D01*
X-5381054Y-8691228D01*
X-5367969Y-8697417D01*
X-5355553Y-8704858D01*
X-5343927Y-8713481D01*
X-5333202Y-8723202D01*
X-5323481Y-8733927D01*
X-5314858Y-8745553D01*
X-5307417Y-8757969D01*
X-5301228Y-8771054D01*
X-5296351Y-8784683D01*
X-5292834Y-8798724D01*
X-5290710Y-8813042D01*
X-5290000Y-8827500D01*
X-5290000Y-9172500D01*
X-5290710Y-9186958D01*
X-5292834Y-9201276D01*
X-5296351Y-9215317D01*
X-5301228Y-9228946D01*
X-5307417Y-9242031D01*
X-5314858Y-9254447D01*
X-5323481Y-9266073D01*
X-5333202Y-9276798D01*
X-5343927Y-9286519D01*
X-5355553Y-9295142D01*
X-5367969Y-9302583D01*
X-5381054Y-9308772D01*
X-5394683Y-9313649D01*
X-5408724Y-9317166D01*
X-5423042Y-9319290D01*
X-5437500Y-9320000D01*
X-5732500Y-9320000D01*
X-5746958Y-9319290D01*
X-5761276Y-9317166D01*
X-5775317Y-9313649D01*
X-5788946Y-9308772D01*
X-5802031Y-9302583D01*
X-5814447Y-9295142D01*
X-5826073Y-9286519D01*
X-5836798Y-9276798D01*
X-5846519Y-9266073D01*
X-5855142Y-9254447D01*
X-5862583Y-9242031D01*
X-5868772Y-9228946D01*
X-5873649Y-9215317D01*
X-5877166Y-9201276D01*
X-5879290Y-9186958D01*
X-5880000Y-9172500D01*
X-5880000Y-8827500D01*
X-5879290Y-8813042D01*
X-5877166Y-8798724D01*
X-5873649Y-8784683D01*
X-5868772Y-8771054D01*
X-5862583Y-8757969D01*
X-5855142Y-8745553D01*
X-5846519Y-8733927D01*
X-5836798Y-8723202D01*
X-5826073Y-8713481D01*
X-5814447Y-8704858D01*
X-5802031Y-8697417D01*
X-5788946Y-8691228D01*
X-5775317Y-8686351D01*
X-5761276Y-8682834D01*
X-5746958Y-8680710D01*
X-5732500Y-8680000D01*
X-5437500Y-8680000D01*
X-5423042Y-8680710D01*
X-5423042Y-8680710D01*
G37*
D13*
X-5585000Y-9000000D03*
G04 #@! TD*
D12*
G04 #@! TO.C,C7*
G36*
X8586958Y409290D02*
X8601276Y407166D01*
X8615317Y403649D01*
X8628946Y398772D01*
X8642031Y392583D01*
X8654447Y385142D01*
X8666073Y376519D01*
X8676798Y366798D01*
X8686519Y356073D01*
X8695142Y344447D01*
X8702583Y332031D01*
X8708772Y318946D01*
X8713649Y305317D01*
X8717166Y291276D01*
X8719290Y276958D01*
X8720000Y262500D01*
X8720000Y-32500D01*
X8719290Y-46958D01*
X8717166Y-61276D01*
X8713649Y-75317D01*
X8708772Y-88946D01*
X8702583Y-102031D01*
X8695142Y-114447D01*
X8686519Y-126073D01*
X8676798Y-136798D01*
X8666073Y-146519D01*
X8654447Y-155142D01*
X8642031Y-162583D01*
X8628946Y-168772D01*
X8615317Y-173649D01*
X8601276Y-177166D01*
X8586958Y-179290D01*
X8572500Y-180000D01*
X8227500Y-180000D01*
X8213042Y-179290D01*
X8198724Y-177166D01*
X8184683Y-173649D01*
X8171054Y-168772D01*
X8157969Y-162583D01*
X8145553Y-155142D01*
X8133927Y-146519D01*
X8123202Y-136798D01*
X8113481Y-126073D01*
X8104858Y-114447D01*
X8097417Y-102031D01*
X8091228Y-88946D01*
X8086351Y-75317D01*
X8082834Y-61276D01*
X8080710Y-46958D01*
X8080000Y-32500D01*
X8080000Y262500D01*
X8080710Y276958D01*
X8082834Y291276D01*
X8086351Y305317D01*
X8091228Y318946D01*
X8097417Y332031D01*
X8104858Y344447D01*
X8113481Y356073D01*
X8123202Y366798D01*
X8133927Y376519D01*
X8145553Y385142D01*
X8157969Y392583D01*
X8171054Y398772D01*
X8184683Y403649D01*
X8198724Y407166D01*
X8213042Y409290D01*
X8227500Y410000D01*
X8572500Y410000D01*
X8586958Y409290D01*
X8586958Y409290D01*
G37*
D13*
X8400000Y115000D03*
D12*
G36*
X8586958Y1379290D02*
X8601276Y1377166D01*
X8615317Y1373649D01*
X8628946Y1368772D01*
X8642031Y1362583D01*
X8654447Y1355142D01*
X8666073Y1346519D01*
X8676798Y1336798D01*
X8686519Y1326073D01*
X8695142Y1314447D01*
X8702583Y1302031D01*
X8708772Y1288946D01*
X8713649Y1275317D01*
X8717166Y1261276D01*
X8719290Y1246958D01*
X8720000Y1232500D01*
X8720000Y937500D01*
X8719290Y923042D01*
X8717166Y908724D01*
X8713649Y894683D01*
X8708772Y881054D01*
X8702583Y867969D01*
X8695142Y855553D01*
X8686519Y843927D01*
X8676798Y833202D01*
X8666073Y823481D01*
X8654447Y814858D01*
X8642031Y807417D01*
X8628946Y801228D01*
X8615317Y796351D01*
X8601276Y792834D01*
X8586958Y790710D01*
X8572500Y790000D01*
X8227500Y790000D01*
X8213042Y790710D01*
X8198724Y792834D01*
X8184683Y796351D01*
X8171054Y801228D01*
X8157969Y807417D01*
X8145553Y814858D01*
X8133927Y823481D01*
X8123202Y833202D01*
X8113481Y843927D01*
X8104858Y855553D01*
X8097417Y867969D01*
X8091228Y881054D01*
X8086351Y894683D01*
X8082834Y908724D01*
X8080710Y923042D01*
X8080000Y937500D01*
X8080000Y1232500D01*
X8080710Y1246958D01*
X8082834Y1261276D01*
X8086351Y1275317D01*
X8091228Y1288946D01*
X8097417Y1302031D01*
X8104858Y1314447D01*
X8113481Y1326073D01*
X8123202Y1336798D01*
X8133927Y1346519D01*
X8145553Y1355142D01*
X8157969Y1362583D01*
X8171054Y1368772D01*
X8184683Y1373649D01*
X8198724Y1377166D01*
X8213042Y1379290D01*
X8227500Y1380000D01*
X8572500Y1380000D01*
X8586958Y1379290D01*
X8586958Y1379290D01*
G37*
D13*
X8400000Y1085000D03*
G04 #@! TD*
D12*
G04 #@! TO.C,R4*
G36*
X25476958Y-15080710D02*
X25491276Y-15082834D01*
X25505317Y-15086351D01*
X25518946Y-15091228D01*
X25532031Y-15097417D01*
X25544447Y-15104858D01*
X25556073Y-15113481D01*
X25566798Y-15123202D01*
X25576519Y-15133927D01*
X25585142Y-15145553D01*
X25592583Y-15157969D01*
X25598772Y-15171054D01*
X25603649Y-15184683D01*
X25607166Y-15198724D01*
X25609290Y-15213042D01*
X25610000Y-15227500D01*
X25610000Y-15572500D01*
X25609290Y-15586958D01*
X25607166Y-15601276D01*
X25603649Y-15615317D01*
X25598772Y-15628946D01*
X25592583Y-15642031D01*
X25585142Y-15654447D01*
X25576519Y-15666073D01*
X25566798Y-15676798D01*
X25556073Y-15686519D01*
X25544447Y-15695142D01*
X25532031Y-15702583D01*
X25518946Y-15708772D01*
X25505317Y-15713649D01*
X25491276Y-15717166D01*
X25476958Y-15719290D01*
X25462500Y-15720000D01*
X25167500Y-15720000D01*
X25153042Y-15719290D01*
X25138724Y-15717166D01*
X25124683Y-15713649D01*
X25111054Y-15708772D01*
X25097969Y-15702583D01*
X25085553Y-15695142D01*
X25073927Y-15686519D01*
X25063202Y-15676798D01*
X25053481Y-15666073D01*
X25044858Y-15654447D01*
X25037417Y-15642031D01*
X25031228Y-15628946D01*
X25026351Y-15615317D01*
X25022834Y-15601276D01*
X25020710Y-15586958D01*
X25020000Y-15572500D01*
X25020000Y-15227500D01*
X25020710Y-15213042D01*
X25022834Y-15198724D01*
X25026351Y-15184683D01*
X25031228Y-15171054D01*
X25037417Y-15157969D01*
X25044858Y-15145553D01*
X25053481Y-15133927D01*
X25063202Y-15123202D01*
X25073927Y-15113481D01*
X25085553Y-15104858D01*
X25097969Y-15097417D01*
X25111054Y-15091228D01*
X25124683Y-15086351D01*
X25138724Y-15082834D01*
X25153042Y-15080710D01*
X25167500Y-15080000D01*
X25462500Y-15080000D01*
X25476958Y-15080710D01*
X25476958Y-15080710D01*
G37*
D13*
X25315000Y-15400000D03*
D12*
G36*
X26446958Y-15080710D02*
X26461276Y-15082834D01*
X26475317Y-15086351D01*
X26488946Y-15091228D01*
X26502031Y-15097417D01*
X26514447Y-15104858D01*
X26526073Y-15113481D01*
X26536798Y-15123202D01*
X26546519Y-15133927D01*
X26555142Y-15145553D01*
X26562583Y-15157969D01*
X26568772Y-15171054D01*
X26573649Y-15184683D01*
X26577166Y-15198724D01*
X26579290Y-15213042D01*
X26580000Y-15227500D01*
X26580000Y-15572500D01*
X26579290Y-15586958D01*
X26577166Y-15601276D01*
X26573649Y-15615317D01*
X26568772Y-15628946D01*
X26562583Y-15642031D01*
X26555142Y-15654447D01*
X26546519Y-15666073D01*
X26536798Y-15676798D01*
X26526073Y-15686519D01*
X26514447Y-15695142D01*
X26502031Y-15702583D01*
X26488946Y-15708772D01*
X26475317Y-15713649D01*
X26461276Y-15717166D01*
X26446958Y-15719290D01*
X26432500Y-15720000D01*
X26137500Y-15720000D01*
X26123042Y-15719290D01*
X26108724Y-15717166D01*
X26094683Y-15713649D01*
X26081054Y-15708772D01*
X26067969Y-15702583D01*
X26055553Y-15695142D01*
X26043927Y-15686519D01*
X26033202Y-15676798D01*
X26023481Y-15666073D01*
X26014858Y-15654447D01*
X26007417Y-15642031D01*
X26001228Y-15628946D01*
X25996351Y-15615317D01*
X25992834Y-15601276D01*
X25990710Y-15586958D01*
X25990000Y-15572500D01*
X25990000Y-15227500D01*
X25990710Y-15213042D01*
X25992834Y-15198724D01*
X25996351Y-15184683D01*
X26001228Y-15171054D01*
X26007417Y-15157969D01*
X26014858Y-15145553D01*
X26023481Y-15133927D01*
X26033202Y-15123202D01*
X26043927Y-15113481D01*
X26055553Y-15104858D01*
X26067969Y-15097417D01*
X26081054Y-15091228D01*
X26094683Y-15086351D01*
X26108724Y-15082834D01*
X26123042Y-15080710D01*
X26137500Y-15080000D01*
X26432500Y-15080000D01*
X26446958Y-15080710D01*
X26446958Y-15080710D01*
G37*
D13*
X26285000Y-15400000D03*
G04 #@! TD*
D12*
G04 #@! TO.C,R5*
G36*
X8186958Y5009290D02*
X8201276Y5007166D01*
X8215317Y5003649D01*
X8228946Y4998772D01*
X8242031Y4992583D01*
X8254447Y4985142D01*
X8266073Y4976519D01*
X8276798Y4966798D01*
X8286519Y4956073D01*
X8295142Y4944447D01*
X8302583Y4932031D01*
X8308772Y4918946D01*
X8313649Y4905317D01*
X8317166Y4891276D01*
X8319290Y4876958D01*
X8320000Y4862500D01*
X8320000Y4567500D01*
X8319290Y4553042D01*
X8317166Y4538724D01*
X8313649Y4524683D01*
X8308772Y4511054D01*
X8302583Y4497969D01*
X8295142Y4485553D01*
X8286519Y4473927D01*
X8276798Y4463202D01*
X8266073Y4453481D01*
X8254447Y4444858D01*
X8242031Y4437417D01*
X8228946Y4431228D01*
X8215317Y4426351D01*
X8201276Y4422834D01*
X8186958Y4420710D01*
X8172500Y4420000D01*
X7827500Y4420000D01*
X7813042Y4420710D01*
X7798724Y4422834D01*
X7784683Y4426351D01*
X7771054Y4431228D01*
X7757969Y4437417D01*
X7745553Y4444858D01*
X7733927Y4453481D01*
X7723202Y4463202D01*
X7713481Y4473927D01*
X7704858Y4485553D01*
X7697417Y4497969D01*
X7691228Y4511054D01*
X7686351Y4524683D01*
X7682834Y4538724D01*
X7680710Y4553042D01*
X7680000Y4567500D01*
X7680000Y4862500D01*
X7680710Y4876958D01*
X7682834Y4891276D01*
X7686351Y4905317D01*
X7691228Y4918946D01*
X7697417Y4932031D01*
X7704858Y4944447D01*
X7713481Y4956073D01*
X7723202Y4966798D01*
X7733927Y4976519D01*
X7745553Y4985142D01*
X7757969Y4992583D01*
X7771054Y4998772D01*
X7784683Y5003649D01*
X7798724Y5007166D01*
X7813042Y5009290D01*
X7827500Y5010000D01*
X8172500Y5010000D01*
X8186958Y5009290D01*
X8186958Y5009290D01*
G37*
D13*
X8000000Y4715000D03*
D12*
G36*
X8186958Y5979290D02*
X8201276Y5977166D01*
X8215317Y5973649D01*
X8228946Y5968772D01*
X8242031Y5962583D01*
X8254447Y5955142D01*
X8266073Y5946519D01*
X8276798Y5936798D01*
X8286519Y5926073D01*
X8295142Y5914447D01*
X8302583Y5902031D01*
X8308772Y5888946D01*
X8313649Y5875317D01*
X8317166Y5861276D01*
X8319290Y5846958D01*
X8320000Y5832500D01*
X8320000Y5537500D01*
X8319290Y5523042D01*
X8317166Y5508724D01*
X8313649Y5494683D01*
X8308772Y5481054D01*
X8302583Y5467969D01*
X8295142Y5455553D01*
X8286519Y5443927D01*
X8276798Y5433202D01*
X8266073Y5423481D01*
X8254447Y5414858D01*
X8242031Y5407417D01*
X8228946Y5401228D01*
X8215317Y5396351D01*
X8201276Y5392834D01*
X8186958Y5390710D01*
X8172500Y5390000D01*
X7827500Y5390000D01*
X7813042Y5390710D01*
X7798724Y5392834D01*
X7784683Y5396351D01*
X7771054Y5401228D01*
X7757969Y5407417D01*
X7745553Y5414858D01*
X7733927Y5423481D01*
X7723202Y5433202D01*
X7713481Y5443927D01*
X7704858Y5455553D01*
X7697417Y5467969D01*
X7691228Y5481054D01*
X7686351Y5494683D01*
X7682834Y5508724D01*
X7680710Y5523042D01*
X7680000Y5537500D01*
X7680000Y5832500D01*
X7680710Y5846958D01*
X7682834Y5861276D01*
X7686351Y5875317D01*
X7691228Y5888946D01*
X7697417Y5902031D01*
X7704858Y5914447D01*
X7713481Y5926073D01*
X7723202Y5936798D01*
X7733927Y5946519D01*
X7745553Y5955142D01*
X7757969Y5962583D01*
X7771054Y5968772D01*
X7784683Y5973649D01*
X7798724Y5977166D01*
X7813042Y5979290D01*
X7827500Y5980000D01*
X8172500Y5980000D01*
X8186958Y5979290D01*
X8186958Y5979290D01*
G37*
D13*
X8000000Y5685000D03*
G04 #@! TD*
D12*
G04 #@! TO.C,R11*
G36*
X9386958Y5379290D02*
X9401276Y5377166D01*
X9415317Y5373649D01*
X9428946Y5368772D01*
X9442031Y5362583D01*
X9454447Y5355142D01*
X9466073Y5346519D01*
X9476798Y5336798D01*
X9486519Y5326073D01*
X9495142Y5314447D01*
X9502583Y5302031D01*
X9508772Y5288946D01*
X9513649Y5275317D01*
X9517166Y5261276D01*
X9519290Y5246958D01*
X9520000Y5232500D01*
X9520000Y4937500D01*
X9519290Y4923042D01*
X9517166Y4908724D01*
X9513649Y4894683D01*
X9508772Y4881054D01*
X9502583Y4867969D01*
X9495142Y4855553D01*
X9486519Y4843927D01*
X9476798Y4833202D01*
X9466073Y4823481D01*
X9454447Y4814858D01*
X9442031Y4807417D01*
X9428946Y4801228D01*
X9415317Y4796351D01*
X9401276Y4792834D01*
X9386958Y4790710D01*
X9372500Y4790000D01*
X9027500Y4790000D01*
X9013042Y4790710D01*
X8998724Y4792834D01*
X8984683Y4796351D01*
X8971054Y4801228D01*
X8957969Y4807417D01*
X8945553Y4814858D01*
X8933927Y4823481D01*
X8923202Y4833202D01*
X8913481Y4843927D01*
X8904858Y4855553D01*
X8897417Y4867969D01*
X8891228Y4881054D01*
X8886351Y4894683D01*
X8882834Y4908724D01*
X8880710Y4923042D01*
X8880000Y4937500D01*
X8880000Y5232500D01*
X8880710Y5246958D01*
X8882834Y5261276D01*
X8886351Y5275317D01*
X8891228Y5288946D01*
X8897417Y5302031D01*
X8904858Y5314447D01*
X8913481Y5326073D01*
X8923202Y5336798D01*
X8933927Y5346519D01*
X8945553Y5355142D01*
X8957969Y5362583D01*
X8971054Y5368772D01*
X8984683Y5373649D01*
X8998724Y5377166D01*
X9013042Y5379290D01*
X9027500Y5380000D01*
X9372500Y5380000D01*
X9386958Y5379290D01*
X9386958Y5379290D01*
G37*
D13*
X9200000Y5085000D03*
D12*
G36*
X9386958Y4409290D02*
X9401276Y4407166D01*
X9415317Y4403649D01*
X9428946Y4398772D01*
X9442031Y4392583D01*
X9454447Y4385142D01*
X9466073Y4376519D01*
X9476798Y4366798D01*
X9486519Y4356073D01*
X9495142Y4344447D01*
X9502583Y4332031D01*
X9508772Y4318946D01*
X9513649Y4305317D01*
X9517166Y4291276D01*
X9519290Y4276958D01*
X9520000Y4262500D01*
X9520000Y3967500D01*
X9519290Y3953042D01*
X9517166Y3938724D01*
X9513649Y3924683D01*
X9508772Y3911054D01*
X9502583Y3897969D01*
X9495142Y3885553D01*
X9486519Y3873927D01*
X9476798Y3863202D01*
X9466073Y3853481D01*
X9454447Y3844858D01*
X9442031Y3837417D01*
X9428946Y3831228D01*
X9415317Y3826351D01*
X9401276Y3822834D01*
X9386958Y3820710D01*
X9372500Y3820000D01*
X9027500Y3820000D01*
X9013042Y3820710D01*
X8998724Y3822834D01*
X8984683Y3826351D01*
X8971054Y3831228D01*
X8957969Y3837417D01*
X8945553Y3844858D01*
X8933927Y3853481D01*
X8923202Y3863202D01*
X8913481Y3873927D01*
X8904858Y3885553D01*
X8897417Y3897969D01*
X8891228Y3911054D01*
X8886351Y3924683D01*
X8882834Y3938724D01*
X8880710Y3953042D01*
X8880000Y3967500D01*
X8880000Y4262500D01*
X8880710Y4276958D01*
X8882834Y4291276D01*
X8886351Y4305317D01*
X8891228Y4318946D01*
X8897417Y4332031D01*
X8904858Y4344447D01*
X8913481Y4356073D01*
X8923202Y4366798D01*
X8933927Y4376519D01*
X8945553Y4385142D01*
X8957969Y4392583D01*
X8971054Y4398772D01*
X8984683Y4403649D01*
X8998724Y4407166D01*
X9013042Y4409290D01*
X9027500Y4410000D01*
X9372500Y4410000D01*
X9386958Y4409290D01*
X9386958Y4409290D01*
G37*
D13*
X9200000Y4115000D03*
G04 #@! TD*
D12*
G04 #@! TO.C,U2*
G36*
X-6317121Y15205319D02*
X-6273249Y15200272D01*
X-6230083Y15190949D01*
X-2752750Y14259200D01*
X-2710706Y14245691D01*
X-2670189Y14228126D01*
X-2631588Y14206674D01*
X-2595276Y14181542D01*
X-2561602Y14152972D01*
X-2530891Y14121239D01*
X-2503438Y14086648D01*
X-2479508Y14049533D01*
X-2459330Y14010251D01*
X-2443100Y13969181D01*
X-2430974Y13926717D01*
X-2423069Y13883270D01*
X-2419460Y13839257D01*
X-2420182Y13795102D01*
X-2425230Y13751230D01*
X-2434552Y13708064D01*
X-2667489Y12838731D01*
X-2680998Y12796688D01*
X-2698563Y12756170D01*
X-2720015Y12717569D01*
X-2745147Y12681257D01*
X-2773717Y12647583D01*
X-2805450Y12616872D01*
X-2840041Y12589419D01*
X-2877156Y12565489D01*
X-2916438Y12545311D01*
X-2957508Y12529081D01*
X-2999972Y12516955D01*
X-3043419Y12509050D01*
X-3087432Y12505441D01*
X-3131587Y12506163D01*
X-3175459Y12511210D01*
X-3218625Y12520533D01*
X-6695958Y13452282D01*
X-6738002Y13465791D01*
X-6778519Y13483356D01*
X-6817120Y13504808D01*
X-6853432Y13529940D01*
X-6887106Y13558510D01*
X-6917817Y13590243D01*
X-6945270Y13624834D01*
X-6969200Y13661949D01*
X-6989378Y13701231D01*
X-7005608Y13742301D01*
X-7017734Y13784765D01*
X-7025639Y13828212D01*
X-7029248Y13872225D01*
X-7028526Y13916380D01*
X-7023478Y13960252D01*
X-7014156Y14003418D01*
X-6781219Y14872751D01*
X-6767710Y14914794D01*
X-6750145Y14955312D01*
X-6728693Y14993913D01*
X-6703561Y15030225D01*
X-6674991Y15063899D01*
X-6643258Y15094610D01*
X-6608667Y15122063D01*
X-6571552Y15145993D01*
X-6532270Y15166171D01*
X-6491200Y15182401D01*
X-6448736Y15194527D01*
X-6405289Y15202432D01*
X-6361276Y15206041D01*
X-6317121Y15205319D01*
X-6317121Y15205319D01*
G37*
D17*
X-4724354Y13855741D03*
D12*
G36*
X-8387674Y7477913D02*
X-8343802Y7472866D01*
X-8300636Y7463543D01*
X-4823303Y6531794D01*
X-4781259Y6518285D01*
X-4740742Y6500720D01*
X-4702141Y6479268D01*
X-4665829Y6454136D01*
X-4632155Y6425566D01*
X-4601444Y6393833D01*
X-4573991Y6359242D01*
X-4550061Y6322127D01*
X-4529883Y6282845D01*
X-4513653Y6241775D01*
X-4501527Y6199311D01*
X-4493622Y6155864D01*
X-4490013Y6111851D01*
X-4490735Y6067696D01*
X-4495783Y6023824D01*
X-4505105Y5980658D01*
X-4738042Y5111325D01*
X-4751551Y5069282D01*
X-4769116Y5028764D01*
X-4790568Y4990163D01*
X-4815700Y4953851D01*
X-4844270Y4920177D01*
X-4876003Y4889466D01*
X-4910594Y4862013D01*
X-4947709Y4838083D01*
X-4986991Y4817905D01*
X-5028061Y4801675D01*
X-5070525Y4789549D01*
X-5113972Y4781644D01*
X-5157985Y4778035D01*
X-5202140Y4778757D01*
X-5246012Y4783804D01*
X-5289178Y4793127D01*
X-8766511Y5724876D01*
X-8808555Y5738385D01*
X-8849072Y5755950D01*
X-8887673Y5777402D01*
X-8923985Y5802534D01*
X-8957659Y5831104D01*
X-8988370Y5862837D01*
X-9015823Y5897428D01*
X-9039753Y5934543D01*
X-9059931Y5973825D01*
X-9076161Y6014895D01*
X-9088287Y6057359D01*
X-9096192Y6100806D01*
X-9099801Y6144819D01*
X-9099079Y6188974D01*
X-9094031Y6232846D01*
X-9084709Y6276012D01*
X-8851772Y7145345D01*
X-8838263Y7187388D01*
X-8820698Y7227906D01*
X-8799246Y7266507D01*
X-8774114Y7302819D01*
X-8745544Y7336493D01*
X-8713811Y7367204D01*
X-8679220Y7394657D01*
X-8642105Y7418587D01*
X-8602823Y7438765D01*
X-8561753Y7454995D01*
X-8519289Y7467121D01*
X-8475842Y7475026D01*
X-8431829Y7478635D01*
X-8387674Y7477913D01*
X-8387674Y7477913D01*
G37*
D17*
X-6794907Y6128335D03*
D12*
G36*
X-22737860Y19605243D02*
X-22693988Y19600196D01*
X-22650822Y19590873D01*
X-19173489Y18659124D01*
X-19131445Y18645615D01*
X-19090928Y18628050D01*
X-19052327Y18606598D01*
X-19016015Y18581466D01*
X-18982341Y18552896D01*
X-18951630Y18521163D01*
X-18924177Y18486572D01*
X-18900247Y18449457D01*
X-18880069Y18410175D01*
X-18863839Y18369105D01*
X-18851713Y18326641D01*
X-18843808Y18283194D01*
X-18840199Y18239181D01*
X-18840921Y18195026D01*
X-18845969Y18151154D01*
X-18855291Y18107988D01*
X-19088228Y17238655D01*
X-19101737Y17196612D01*
X-19119302Y17156094D01*
X-19140754Y17117493D01*
X-19165886Y17081181D01*
X-19194456Y17047507D01*
X-19226189Y17016796D01*
X-19260780Y16989343D01*
X-19297895Y16965413D01*
X-19337177Y16945235D01*
X-19378247Y16929005D01*
X-19420711Y16916879D01*
X-19464158Y16908974D01*
X-19508171Y16905365D01*
X-19552326Y16906087D01*
X-19596198Y16911134D01*
X-19639364Y16920457D01*
X-23116697Y17852206D01*
X-23158741Y17865715D01*
X-23199258Y17883280D01*
X-23237859Y17904732D01*
X-23274171Y17929864D01*
X-23307845Y17958434D01*
X-23338556Y17990167D01*
X-23366009Y18024758D01*
X-23389939Y18061873D01*
X-23410117Y18101155D01*
X-23426347Y18142225D01*
X-23438473Y18184689D01*
X-23446378Y18228136D01*
X-23449987Y18272149D01*
X-23449265Y18316304D01*
X-23444217Y18360176D01*
X-23434895Y18403342D01*
X-23201958Y19272675D01*
X-23188449Y19314718D01*
X-23170884Y19355236D01*
X-23149432Y19393837D01*
X-23124300Y19430149D01*
X-23095730Y19463823D01*
X-23063997Y19494534D01*
X-23029406Y19521987D01*
X-22992291Y19545917D01*
X-22953009Y19566095D01*
X-22911939Y19582325D01*
X-22869475Y19594451D01*
X-22826028Y19602356D01*
X-22782015Y19605965D01*
X-22737860Y19605243D01*
X-22737860Y19605243D01*
G37*
D17*
X-21145093Y18255665D03*
D12*
G36*
X-24808413Y11877837D02*
X-24764541Y11872790D01*
X-24721375Y11863467D01*
X-21244042Y10931718D01*
X-21201998Y10918209D01*
X-21161481Y10900644D01*
X-21122880Y10879192D01*
X-21086568Y10854060D01*
X-21052894Y10825490D01*
X-21022183Y10793757D01*
X-20994730Y10759166D01*
X-20970800Y10722051D01*
X-20950622Y10682769D01*
X-20934392Y10641699D01*
X-20922266Y10599235D01*
X-20914361Y10555788D01*
X-20910752Y10511775D01*
X-20911474Y10467620D01*
X-20916522Y10423748D01*
X-20925844Y10380582D01*
X-21158781Y9511249D01*
X-21172290Y9469206D01*
X-21189855Y9428688D01*
X-21211307Y9390087D01*
X-21236439Y9353775D01*
X-21265009Y9320101D01*
X-21296742Y9289390D01*
X-21331333Y9261937D01*
X-21368448Y9238007D01*
X-21407730Y9217829D01*
X-21448800Y9201599D01*
X-21491264Y9189473D01*
X-21534711Y9181568D01*
X-21578724Y9177959D01*
X-21622879Y9178681D01*
X-21666751Y9183728D01*
X-21709917Y9193051D01*
X-25187250Y10124800D01*
X-25229294Y10138309D01*
X-25269811Y10155874D01*
X-25308412Y10177326D01*
X-25344724Y10202458D01*
X-25378398Y10231028D01*
X-25409109Y10262761D01*
X-25436562Y10297352D01*
X-25460492Y10334467D01*
X-25480670Y10373749D01*
X-25496900Y10414819D01*
X-25509026Y10457283D01*
X-25516931Y10500730D01*
X-25520540Y10544743D01*
X-25519818Y10588898D01*
X-25514770Y10632770D01*
X-25505448Y10675936D01*
X-25272511Y11545269D01*
X-25259002Y11587312D01*
X-25241437Y11627830D01*
X-25219985Y11666431D01*
X-25194853Y11702743D01*
X-25166283Y11736417D01*
X-25134550Y11767128D01*
X-25099959Y11794581D01*
X-25062844Y11818511D01*
X-25023562Y11838689D01*
X-24982492Y11854919D01*
X-24940028Y11867045D01*
X-24896581Y11874950D01*
X-24852568Y11878559D01*
X-24808413Y11877837D01*
X-24808413Y11877837D01*
G37*
D17*
X-23215646Y10528259D03*
G04 #@! TD*
D12*
G04 #@! TO.C,J2*
G36*
X11119603Y10599037D02*
X11139018Y10596157D01*
X11158057Y10591388D01*
X11176537Y10584776D01*
X11194279Y10576384D01*
X11211114Y10566294D01*
X11226879Y10554602D01*
X11241421Y10541421D01*
X11254602Y10526879D01*
X11266294Y10511114D01*
X11276384Y10494279D01*
X11284776Y10476537D01*
X11291388Y10458057D01*
X11296157Y10439018D01*
X11299037Y10419603D01*
X11300000Y10400000D01*
X11300000Y9200000D01*
X11299037Y9180397D01*
X11296157Y9160982D01*
X11291388Y9141943D01*
X11284776Y9123463D01*
X11276384Y9105721D01*
X11266294Y9088886D01*
X11254602Y9073121D01*
X11241421Y9058579D01*
X11226879Y9045398D01*
X11211114Y9033706D01*
X11194279Y9023616D01*
X11176537Y9015224D01*
X11158057Y9008612D01*
X11139018Y9003843D01*
X11119603Y9000963D01*
X11100000Y9000000D01*
X10700000Y9000000D01*
X10680397Y9000963D01*
X10660982Y9003843D01*
X10641943Y9008612D01*
X10623463Y9015224D01*
X10605721Y9023616D01*
X10588886Y9033706D01*
X10573121Y9045398D01*
X10558579Y9058579D01*
X10545398Y9073121D01*
X10533706Y9088886D01*
X10523616Y9105721D01*
X10515224Y9123463D01*
X10508612Y9141943D01*
X10503843Y9160982D01*
X10500963Y9180397D01*
X10500000Y9200000D01*
X10500000Y10400000D01*
X10500963Y10419603D01*
X10503843Y10439018D01*
X10508612Y10458057D01*
X10515224Y10476537D01*
X10523616Y10494279D01*
X10533706Y10511114D01*
X10545398Y10526879D01*
X10558579Y10541421D01*
X10573121Y10554602D01*
X10588886Y10566294D01*
X10605721Y10576384D01*
X10623463Y10584776D01*
X10641943Y10591388D01*
X10660982Y10596157D01*
X10680397Y10599037D01*
X10700000Y10600000D01*
X11100000Y10600000D01*
X11119603Y10599037D01*
X11119603Y10599037D01*
G37*
D18*
X10900000Y9800000D03*
D12*
G36*
X9869603Y10599037D02*
X9889018Y10596157D01*
X9908057Y10591388D01*
X9926537Y10584776D01*
X9944279Y10576384D01*
X9961114Y10566294D01*
X9976879Y10554602D01*
X9991421Y10541421D01*
X10004602Y10526879D01*
X10016294Y10511114D01*
X10026384Y10494279D01*
X10034776Y10476537D01*
X10041388Y10458057D01*
X10046157Y10439018D01*
X10049037Y10419603D01*
X10050000Y10400000D01*
X10050000Y9200000D01*
X10049037Y9180397D01*
X10046157Y9160982D01*
X10041388Y9141943D01*
X10034776Y9123463D01*
X10026384Y9105721D01*
X10016294Y9088886D01*
X10004602Y9073121D01*
X9991421Y9058579D01*
X9976879Y9045398D01*
X9961114Y9033706D01*
X9944279Y9023616D01*
X9926537Y9015224D01*
X9908057Y9008612D01*
X9889018Y9003843D01*
X9869603Y9000963D01*
X9850000Y9000000D01*
X9450000Y9000000D01*
X9430397Y9000963D01*
X9410982Y9003843D01*
X9391943Y9008612D01*
X9373463Y9015224D01*
X9355721Y9023616D01*
X9338886Y9033706D01*
X9323121Y9045398D01*
X9308579Y9058579D01*
X9295398Y9073121D01*
X9283706Y9088886D01*
X9273616Y9105721D01*
X9265224Y9123463D01*
X9258612Y9141943D01*
X9253843Y9160982D01*
X9250963Y9180397D01*
X9250000Y9200000D01*
X9250000Y10400000D01*
X9250963Y10419603D01*
X9253843Y10439018D01*
X9258612Y10458057D01*
X9265224Y10476537D01*
X9273616Y10494279D01*
X9283706Y10511114D01*
X9295398Y10526879D01*
X9308579Y10541421D01*
X9323121Y10554602D01*
X9338886Y10566294D01*
X9355721Y10576384D01*
X9373463Y10584776D01*
X9391943Y10591388D01*
X9410982Y10596157D01*
X9430397Y10599037D01*
X9450000Y10600000D01*
X9850000Y10600000D01*
X9869603Y10599037D01*
X9869603Y10599037D01*
G37*
D18*
X9650000Y9800000D03*
D12*
G36*
X8619603Y10599037D02*
X8639018Y10596157D01*
X8658057Y10591388D01*
X8676537Y10584776D01*
X8694279Y10576384D01*
X8711114Y10566294D01*
X8726879Y10554602D01*
X8741421Y10541421D01*
X8754602Y10526879D01*
X8766294Y10511114D01*
X8776384Y10494279D01*
X8784776Y10476537D01*
X8791388Y10458057D01*
X8796157Y10439018D01*
X8799037Y10419603D01*
X8800000Y10400000D01*
X8800000Y9200000D01*
X8799037Y9180397D01*
X8796157Y9160982D01*
X8791388Y9141943D01*
X8784776Y9123463D01*
X8776384Y9105721D01*
X8766294Y9088886D01*
X8754602Y9073121D01*
X8741421Y9058579D01*
X8726879Y9045398D01*
X8711114Y9033706D01*
X8694279Y9023616D01*
X8676537Y9015224D01*
X8658057Y9008612D01*
X8639018Y9003843D01*
X8619603Y9000963D01*
X8600000Y9000000D01*
X8200000Y9000000D01*
X8180397Y9000963D01*
X8160982Y9003843D01*
X8141943Y9008612D01*
X8123463Y9015224D01*
X8105721Y9023616D01*
X8088886Y9033706D01*
X8073121Y9045398D01*
X8058579Y9058579D01*
X8045398Y9073121D01*
X8033706Y9088886D01*
X8023616Y9105721D01*
X8015224Y9123463D01*
X8008612Y9141943D01*
X8003843Y9160982D01*
X8000963Y9180397D01*
X8000000Y9200000D01*
X8000000Y10400000D01*
X8000963Y10419603D01*
X8003843Y10439018D01*
X8008612Y10458057D01*
X8015224Y10476537D01*
X8023616Y10494279D01*
X8033706Y10511114D01*
X8045398Y10526879D01*
X8058579Y10541421D01*
X8073121Y10554602D01*
X8088886Y10566294D01*
X8105721Y10576384D01*
X8123463Y10584776D01*
X8141943Y10591388D01*
X8160982Y10596157D01*
X8180397Y10599037D01*
X8200000Y10600000D01*
X8600000Y10600000D01*
X8619603Y10599037D01*
X8619603Y10599037D01*
G37*
D18*
X8400000Y9800000D03*
D12*
G36*
X7369603Y10599037D02*
X7389018Y10596157D01*
X7408057Y10591388D01*
X7426537Y10584776D01*
X7444279Y10576384D01*
X7461114Y10566294D01*
X7476879Y10554602D01*
X7491421Y10541421D01*
X7504602Y10526879D01*
X7516294Y10511114D01*
X7526384Y10494279D01*
X7534776Y10476537D01*
X7541388Y10458057D01*
X7546157Y10439018D01*
X7549037Y10419603D01*
X7550000Y10400000D01*
X7550000Y9200000D01*
X7549037Y9180397D01*
X7546157Y9160982D01*
X7541388Y9141943D01*
X7534776Y9123463D01*
X7526384Y9105721D01*
X7516294Y9088886D01*
X7504602Y9073121D01*
X7491421Y9058579D01*
X7476879Y9045398D01*
X7461114Y9033706D01*
X7444279Y9023616D01*
X7426537Y9015224D01*
X7408057Y9008612D01*
X7389018Y9003843D01*
X7369603Y9000963D01*
X7350000Y9000000D01*
X6950000Y9000000D01*
X6930397Y9000963D01*
X6910982Y9003843D01*
X6891943Y9008612D01*
X6873463Y9015224D01*
X6855721Y9023616D01*
X6838886Y9033706D01*
X6823121Y9045398D01*
X6808579Y9058579D01*
X6795398Y9073121D01*
X6783706Y9088886D01*
X6773616Y9105721D01*
X6765224Y9123463D01*
X6758612Y9141943D01*
X6753843Y9160982D01*
X6750963Y9180397D01*
X6750000Y9200000D01*
X6750000Y10400000D01*
X6750963Y10419603D01*
X6753843Y10439018D01*
X6758612Y10458057D01*
X6765224Y10476537D01*
X6773616Y10494279D01*
X6783706Y10511114D01*
X6795398Y10526879D01*
X6808579Y10541421D01*
X6823121Y10554602D01*
X6838886Y10566294D01*
X6855721Y10576384D01*
X6873463Y10584776D01*
X6891943Y10591388D01*
X6910982Y10596157D01*
X6930397Y10599037D01*
X6950000Y10600000D01*
X7350000Y10600000D01*
X7369603Y10599037D01*
X7369603Y10599037D01*
G37*
D18*
X7150000Y9800000D03*
D12*
G36*
X6119603Y10599037D02*
X6139018Y10596157D01*
X6158057Y10591388D01*
X6176537Y10584776D01*
X6194279Y10576384D01*
X6211114Y10566294D01*
X6226879Y10554602D01*
X6241421Y10541421D01*
X6254602Y10526879D01*
X6266294Y10511114D01*
X6276384Y10494279D01*
X6284776Y10476537D01*
X6291388Y10458057D01*
X6296157Y10439018D01*
X6299037Y10419603D01*
X6300000Y10400000D01*
X6300000Y9200000D01*
X6299037Y9180397D01*
X6296157Y9160982D01*
X6291388Y9141943D01*
X6284776Y9123463D01*
X6276384Y9105721D01*
X6266294Y9088886D01*
X6254602Y9073121D01*
X6241421Y9058579D01*
X6226879Y9045398D01*
X6211114Y9033706D01*
X6194279Y9023616D01*
X6176537Y9015224D01*
X6158057Y9008612D01*
X6139018Y9003843D01*
X6119603Y9000963D01*
X6100000Y9000000D01*
X5700000Y9000000D01*
X5680397Y9000963D01*
X5660982Y9003843D01*
X5641943Y9008612D01*
X5623463Y9015224D01*
X5605721Y9023616D01*
X5588886Y9033706D01*
X5573121Y9045398D01*
X5558579Y9058579D01*
X5545398Y9073121D01*
X5533706Y9088886D01*
X5523616Y9105721D01*
X5515224Y9123463D01*
X5508612Y9141943D01*
X5503843Y9160982D01*
X5500963Y9180397D01*
X5500000Y9200000D01*
X5500000Y10400000D01*
X5500963Y10419603D01*
X5503843Y10439018D01*
X5508612Y10458057D01*
X5515224Y10476537D01*
X5523616Y10494279D01*
X5533706Y10511114D01*
X5545398Y10526879D01*
X5558579Y10541421D01*
X5573121Y10554602D01*
X5588886Y10566294D01*
X5605721Y10576384D01*
X5623463Y10584776D01*
X5641943Y10591388D01*
X5660982Y10596157D01*
X5680397Y10599037D01*
X5700000Y10600000D01*
X6100000Y10600000D01*
X6119603Y10599037D01*
X6119603Y10599037D01*
G37*
D18*
X5900000Y9800000D03*
D12*
G36*
X14274504Y14198796D02*
X14298773Y14195196D01*
X14322571Y14189235D01*
X14345671Y14180970D01*
X14367849Y14170480D01*
X14388893Y14157867D01*
X14408598Y14143253D01*
X14426777Y14126777D01*
X14443253Y14108598D01*
X14457867Y14088893D01*
X14470480Y14067849D01*
X14480970Y14045671D01*
X14489235Y14022571D01*
X14495196Y13998773D01*
X14498796Y13974504D01*
X14500000Y13950000D01*
X14500000Y11450000D01*
X14498796Y11425496D01*
X14495196Y11401227D01*
X14489235Y11377429D01*
X14480970Y11354329D01*
X14470480Y11332151D01*
X14457867Y11311107D01*
X14443253Y11291402D01*
X14426777Y11273223D01*
X14408598Y11256747D01*
X14388893Y11242133D01*
X14367849Y11229520D01*
X14345671Y11219030D01*
X14322571Y11210765D01*
X14298773Y11204804D01*
X14274504Y11201204D01*
X14250000Y11200000D01*
X12650000Y11200000D01*
X12625496Y11201204D01*
X12601227Y11204804D01*
X12577429Y11210765D01*
X12554329Y11219030D01*
X12532151Y11229520D01*
X12511107Y11242133D01*
X12491402Y11256747D01*
X12473223Y11273223D01*
X12456747Y11291402D01*
X12442133Y11311107D01*
X12429520Y11332151D01*
X12419030Y11354329D01*
X12410765Y11377429D01*
X12404804Y11401227D01*
X12401204Y11425496D01*
X12400000Y11450000D01*
X12400000Y13950000D01*
X12401204Y13974504D01*
X12404804Y13998773D01*
X12410765Y14022571D01*
X12419030Y14045671D01*
X12429520Y14067849D01*
X12442133Y14088893D01*
X12456747Y14108598D01*
X12473223Y14126777D01*
X12491402Y14143253D01*
X12511107Y14157867D01*
X12532151Y14170480D01*
X12554329Y14180970D01*
X12577429Y14189235D01*
X12601227Y14195196D01*
X12625496Y14198796D01*
X12650000Y14200000D01*
X14250000Y14200000D01*
X14274504Y14198796D01*
X14274504Y14198796D01*
G37*
D19*
X13450000Y12700000D03*
D12*
G36*
X4174504Y14198796D02*
X4198773Y14195196D01*
X4222571Y14189235D01*
X4245671Y14180970D01*
X4267849Y14170480D01*
X4288893Y14157867D01*
X4308598Y14143253D01*
X4326777Y14126777D01*
X4343253Y14108598D01*
X4357867Y14088893D01*
X4370480Y14067849D01*
X4380970Y14045671D01*
X4389235Y14022571D01*
X4395196Y13998773D01*
X4398796Y13974504D01*
X4400000Y13950000D01*
X4400000Y11450000D01*
X4398796Y11425496D01*
X4395196Y11401227D01*
X4389235Y11377429D01*
X4380970Y11354329D01*
X4370480Y11332151D01*
X4357867Y11311107D01*
X4343253Y11291402D01*
X4326777Y11273223D01*
X4308598Y11256747D01*
X4288893Y11242133D01*
X4267849Y11229520D01*
X4245671Y11219030D01*
X4222571Y11210765D01*
X4198773Y11204804D01*
X4174504Y11201204D01*
X4150000Y11200000D01*
X2550000Y11200000D01*
X2525496Y11201204D01*
X2501227Y11204804D01*
X2477429Y11210765D01*
X2454329Y11219030D01*
X2432151Y11229520D01*
X2411107Y11242133D01*
X2391402Y11256747D01*
X2373223Y11273223D01*
X2356747Y11291402D01*
X2342133Y11311107D01*
X2329520Y11332151D01*
X2319030Y11354329D01*
X2310765Y11377429D01*
X2304804Y11401227D01*
X2301204Y11425496D01*
X2300000Y11450000D01*
X2300000Y13950000D01*
X2301204Y13974504D01*
X2304804Y13998773D01*
X2310765Y14022571D01*
X2319030Y14045671D01*
X2329520Y14067849D01*
X2342133Y14088893D01*
X2356747Y14108598D01*
X2373223Y14126777D01*
X2391402Y14143253D01*
X2411107Y14157867D01*
X2432151Y14170480D01*
X2454329Y14180970D01*
X2477429Y14189235D01*
X2501227Y14195196D01*
X2525496Y14198796D01*
X2550000Y14200000D01*
X4150000Y14200000D01*
X4174504Y14198796D01*
X4174504Y14198796D01*
G37*
D19*
X3350000Y12700000D03*
G04 #@! TD*
D12*
G04 #@! TO.C,C1*
G36*
X24585387Y22310969D02*
X24609525Y22306577D01*
X24633116Y22299841D01*
X24655933Y22290824D01*
X24677756Y22279614D01*
X24698375Y22266320D01*
X24717592Y22251068D01*
X24735222Y22234006D01*
X24751094Y22215299D01*
X24765056Y22195125D01*
X24776974Y22173680D01*
X24786732Y22151171D01*
X24794237Y22127813D01*
X25117761Y20920406D01*
X25122941Y20896425D01*
X25125745Y20872052D01*
X25126146Y20847521D01*
X25124141Y20823070D01*
X25119749Y20798932D01*
X25113013Y20775341D01*
X25103996Y20752524D01*
X25092786Y20730701D01*
X25079492Y20710082D01*
X25064240Y20690865D01*
X25047178Y20673235D01*
X25028470Y20657363D01*
X25008297Y20643400D01*
X24986852Y20631483D01*
X24964343Y20621725D01*
X24940985Y20614220D01*
X24216541Y20420105D01*
X24192560Y20414925D01*
X24168187Y20412121D01*
X24143656Y20411720D01*
X24119205Y20413725D01*
X24095067Y20418117D01*
X24071476Y20424853D01*
X24048659Y20433870D01*
X24026836Y20445080D01*
X24006217Y20458374D01*
X23987000Y20473626D01*
X23969370Y20490688D01*
X23953498Y20509395D01*
X23939536Y20529569D01*
X23927618Y20551014D01*
X23917860Y20573523D01*
X23910355Y20596881D01*
X23586831Y21804288D01*
X23581651Y21828269D01*
X23578847Y21852642D01*
X23578446Y21877173D01*
X23580451Y21901624D01*
X23584843Y21925762D01*
X23591579Y21949353D01*
X23600596Y21972170D01*
X23611806Y21993993D01*
X23625100Y22014612D01*
X23640352Y22033829D01*
X23657414Y22051459D01*
X23676122Y22067331D01*
X23696295Y22081294D01*
X23717740Y22093211D01*
X23740249Y22102969D01*
X23763607Y22110474D01*
X24488051Y22304589D01*
X24512032Y22309769D01*
X24536405Y22312573D01*
X24560936Y22312974D01*
X24585387Y22310969D01*
X24585387Y22310969D01*
G37*
D20*
X24352296Y21362347D03*
D12*
G36*
X21880795Y21586275D02*
X21904933Y21581883D01*
X21928524Y21575147D01*
X21951341Y21566130D01*
X21973164Y21554920D01*
X21993783Y21541626D01*
X22013000Y21526374D01*
X22030630Y21509312D01*
X22046502Y21490605D01*
X22060464Y21470431D01*
X22072382Y21448986D01*
X22082140Y21426477D01*
X22089645Y21403119D01*
X22413169Y20195712D01*
X22418349Y20171731D01*
X22421153Y20147358D01*
X22421554Y20122827D01*
X22419549Y20098376D01*
X22415157Y20074238D01*
X22408421Y20050647D01*
X22399404Y20027830D01*
X22388194Y20006007D01*
X22374900Y19985388D01*
X22359648Y19966171D01*
X22342586Y19948541D01*
X22323878Y19932669D01*
X22303705Y19918706D01*
X22282260Y19906789D01*
X22259751Y19897031D01*
X22236393Y19889526D01*
X21511949Y19695411D01*
X21487968Y19690231D01*
X21463595Y19687427D01*
X21439064Y19687026D01*
X21414613Y19689031D01*
X21390475Y19693423D01*
X21366884Y19700159D01*
X21344067Y19709176D01*
X21322244Y19720386D01*
X21301625Y19733680D01*
X21282408Y19748932D01*
X21264778Y19765994D01*
X21248906Y19784701D01*
X21234944Y19804875D01*
X21223026Y19826320D01*
X21213268Y19848829D01*
X21205763Y19872187D01*
X20882239Y21079594D01*
X20877059Y21103575D01*
X20874255Y21127948D01*
X20873854Y21152479D01*
X20875859Y21176930D01*
X20880251Y21201068D01*
X20886987Y21224659D01*
X20896004Y21247476D01*
X20907214Y21269299D01*
X20920508Y21289918D01*
X20935760Y21309135D01*
X20952822Y21326765D01*
X20971530Y21342637D01*
X20991703Y21356600D01*
X21013148Y21368517D01*
X21035657Y21378275D01*
X21059015Y21385780D01*
X21783459Y21579895D01*
X21807440Y21585075D01*
X21831813Y21587879D01*
X21856344Y21588280D01*
X21880795Y21586275D01*
X21880795Y21586275D01*
G37*
D20*
X21647704Y20637653D03*
G04 #@! TD*
D12*
G04 #@! TO.C,C9*
G36*
X-7342222Y2265954D02*
X-7317953Y2262354D01*
X-7294155Y2256393D01*
X-7271055Y2248128D01*
X-7248877Y2237638D01*
X-7227833Y2225025D01*
X-7208128Y2210411D01*
X-7189949Y2193935D01*
X-6306065Y1310051D01*
X-6289589Y1291872D01*
X-6274975Y1272167D01*
X-6262362Y1251123D01*
X-6251872Y1228945D01*
X-6243607Y1205845D01*
X-6237646Y1182047D01*
X-6234046Y1157778D01*
X-6232842Y1133274D01*
X-6234046Y1108770D01*
X-6237646Y1084501D01*
X-6243607Y1060703D01*
X-6251872Y1037603D01*
X-6262362Y1015425D01*
X-6274975Y994381D01*
X-6289589Y974676D01*
X-6306065Y956497D01*
X-6836395Y426167D01*
X-6854574Y409691D01*
X-6874279Y395077D01*
X-6895323Y382464D01*
X-6917501Y371974D01*
X-6940601Y363709D01*
X-6964399Y357748D01*
X-6988668Y354148D01*
X-7013172Y352944D01*
X-7037676Y354148D01*
X-7061945Y357748D01*
X-7085743Y363709D01*
X-7108843Y371974D01*
X-7131021Y382464D01*
X-7152065Y395077D01*
X-7171770Y409691D01*
X-7189949Y426167D01*
X-8073833Y1310051D01*
X-8090309Y1328230D01*
X-8104923Y1347935D01*
X-8117536Y1368979D01*
X-8128026Y1391157D01*
X-8136291Y1414257D01*
X-8142252Y1438055D01*
X-8145852Y1462324D01*
X-8147056Y1486828D01*
X-8145852Y1511332D01*
X-8142252Y1535601D01*
X-8136291Y1559399D01*
X-8128026Y1582499D01*
X-8117536Y1604677D01*
X-8104923Y1625721D01*
X-8090309Y1645426D01*
X-8073833Y1663605D01*
X-7543503Y2193935D01*
X-7525324Y2210411D01*
X-7505619Y2225025D01*
X-7484575Y2237638D01*
X-7462397Y2248128D01*
X-7439297Y2256393D01*
X-7415499Y2262354D01*
X-7391230Y2265954D01*
X-7366726Y2267158D01*
X-7342222Y2265954D01*
X-7342222Y2265954D01*
G37*
D20*
X-7189949Y1310051D03*
D12*
G36*
X-5362324Y4245852D02*
X-5338055Y4242252D01*
X-5314257Y4236291D01*
X-5291157Y4228026D01*
X-5268979Y4217536D01*
X-5247935Y4204923D01*
X-5228230Y4190309D01*
X-5210051Y4173833D01*
X-4326167Y3289949D01*
X-4309691Y3271770D01*
X-4295077Y3252065D01*
X-4282464Y3231021D01*
X-4271974Y3208843D01*
X-4263709Y3185743D01*
X-4257748Y3161945D01*
X-4254148Y3137676D01*
X-4252944Y3113172D01*
X-4254148Y3088668D01*
X-4257748Y3064399D01*
X-4263709Y3040601D01*
X-4271974Y3017501D01*
X-4282464Y2995323D01*
X-4295077Y2974279D01*
X-4309691Y2954574D01*
X-4326167Y2936395D01*
X-4856497Y2406065D01*
X-4874676Y2389589D01*
X-4894381Y2374975D01*
X-4915425Y2362362D01*
X-4937603Y2351872D01*
X-4960703Y2343607D01*
X-4984501Y2337646D01*
X-5008770Y2334046D01*
X-5033274Y2332842D01*
X-5057778Y2334046D01*
X-5082047Y2337646D01*
X-5105845Y2343607D01*
X-5128945Y2351872D01*
X-5151123Y2362362D01*
X-5172167Y2374975D01*
X-5191872Y2389589D01*
X-5210051Y2406065D01*
X-6093935Y3289949D01*
X-6110411Y3308128D01*
X-6125025Y3327833D01*
X-6137638Y3348877D01*
X-6148128Y3371055D01*
X-6156393Y3394155D01*
X-6162354Y3417953D01*
X-6165954Y3442222D01*
X-6167158Y3466726D01*
X-6165954Y3491230D01*
X-6162354Y3515499D01*
X-6156393Y3539297D01*
X-6148128Y3562397D01*
X-6137638Y3584575D01*
X-6125025Y3605619D01*
X-6110411Y3625324D01*
X-6093935Y3643503D01*
X-5563605Y4173833D01*
X-5545426Y4190309D01*
X-5525721Y4204923D01*
X-5504677Y4217536D01*
X-5482499Y4228026D01*
X-5459399Y4236291D01*
X-5435601Y4242252D01*
X-5411332Y4245852D01*
X-5386828Y4247056D01*
X-5362324Y4245852D01*
X-5362324Y4245852D01*
G37*
D20*
X-5210051Y3289949D03*
G04 #@! TD*
D12*
G04 #@! TO.C,C10*
G36*
X-28100496Y19673796D02*
X-28076227Y19670196D01*
X-28052429Y19664235D01*
X-28029329Y19655970D01*
X-28007151Y19645480D01*
X-27986107Y19632867D01*
X-27966402Y19618253D01*
X-27948223Y19601777D01*
X-27931747Y19583598D01*
X-27917133Y19563893D01*
X-27904520Y19542849D01*
X-27894030Y19520671D01*
X-27885765Y19497571D01*
X-27879804Y19473773D01*
X-27876204Y19449504D01*
X-27875000Y19425000D01*
X-27875000Y18175000D01*
X-27876204Y18150496D01*
X-27879804Y18126227D01*
X-27885765Y18102429D01*
X-27894030Y18079329D01*
X-27904520Y18057151D01*
X-27917133Y18036107D01*
X-27931747Y18016402D01*
X-27948223Y17998223D01*
X-27966402Y17981747D01*
X-27986107Y17967133D01*
X-28007151Y17954520D01*
X-28029329Y17944030D01*
X-28052429Y17935765D01*
X-28076227Y17929804D01*
X-28100496Y17926204D01*
X-28125000Y17925000D01*
X-28875000Y17925000D01*
X-28899504Y17926204D01*
X-28923773Y17929804D01*
X-28947571Y17935765D01*
X-28970671Y17944030D01*
X-28992849Y17954520D01*
X-29013893Y17967133D01*
X-29033598Y17981747D01*
X-29051777Y17998223D01*
X-29068253Y18016402D01*
X-29082867Y18036107D01*
X-29095480Y18057151D01*
X-29105970Y18079329D01*
X-29114235Y18102429D01*
X-29120196Y18126227D01*
X-29123796Y18150496D01*
X-29125000Y18175000D01*
X-29125000Y19425000D01*
X-29123796Y19449504D01*
X-29120196Y19473773D01*
X-29114235Y19497571D01*
X-29105970Y19520671D01*
X-29095480Y19542849D01*
X-29082867Y19563893D01*
X-29068253Y19583598D01*
X-29051777Y19601777D01*
X-29033598Y19618253D01*
X-29013893Y19632867D01*
X-28992849Y19645480D01*
X-28970671Y19655970D01*
X-28947571Y19664235D01*
X-28923773Y19670196D01*
X-28899504Y19673796D01*
X-28875000Y19675000D01*
X-28125000Y19675000D01*
X-28100496Y19673796D01*
X-28100496Y19673796D01*
G37*
D20*
X-28500000Y18800000D03*
D12*
G36*
X-25300496Y19673796D02*
X-25276227Y19670196D01*
X-25252429Y19664235D01*
X-25229329Y19655970D01*
X-25207151Y19645480D01*
X-25186107Y19632867D01*
X-25166402Y19618253D01*
X-25148223Y19601777D01*
X-25131747Y19583598D01*
X-25117133Y19563893D01*
X-25104520Y19542849D01*
X-25094030Y19520671D01*
X-25085765Y19497571D01*
X-25079804Y19473773D01*
X-25076204Y19449504D01*
X-25075000Y19425000D01*
X-25075000Y18175000D01*
X-25076204Y18150496D01*
X-25079804Y18126227D01*
X-25085765Y18102429D01*
X-25094030Y18079329D01*
X-25104520Y18057151D01*
X-25117133Y18036107D01*
X-25131747Y18016402D01*
X-25148223Y17998223D01*
X-25166402Y17981747D01*
X-25186107Y17967133D01*
X-25207151Y17954520D01*
X-25229329Y17944030D01*
X-25252429Y17935765D01*
X-25276227Y17929804D01*
X-25300496Y17926204D01*
X-25325000Y17925000D01*
X-26075000Y17925000D01*
X-26099504Y17926204D01*
X-26123773Y17929804D01*
X-26147571Y17935765D01*
X-26170671Y17944030D01*
X-26192849Y17954520D01*
X-26213893Y17967133D01*
X-26233598Y17981747D01*
X-26251777Y17998223D01*
X-26268253Y18016402D01*
X-26282867Y18036107D01*
X-26295480Y18057151D01*
X-26305970Y18079329D01*
X-26314235Y18102429D01*
X-26320196Y18126227D01*
X-26323796Y18150496D01*
X-26325000Y18175000D01*
X-26325000Y19425000D01*
X-26323796Y19449504D01*
X-26320196Y19473773D01*
X-26314235Y19497571D01*
X-26305970Y19520671D01*
X-26295480Y19542849D01*
X-26282867Y19563893D01*
X-26268253Y19583598D01*
X-26251777Y19601777D01*
X-26233598Y19618253D01*
X-26213893Y19632867D01*
X-26192849Y19645480D01*
X-26170671Y19655970D01*
X-26147571Y19664235D01*
X-26123773Y19670196D01*
X-26099504Y19673796D01*
X-26075000Y19675000D01*
X-25325000Y19675000D01*
X-25300496Y19673796D01*
X-25300496Y19673796D01*
G37*
D20*
X-25700000Y18800000D03*
G04 #@! TD*
M02*
