G04 #@! TF.GenerationSoftware,KiCad,Pcbnew,5.0.2+dfsg1-1*
G04 #@! TF.CreationDate,2021-09-10T13:16:56+02:00*
G04 #@! TF.ProjectId,edgedriver,65646765-6472-4697-9665-722e6b696361,rev?*
G04 #@! TF.SameCoordinates,Original*
G04 #@! TF.FileFunction,Profile,NP*
%FSLAX46Y46*%
G04 Gerber Fmt 4.6, Leading zero omitted, Abs format (unit mm)*
G04 Created by KiCad (PCBNEW 5.0.2+dfsg1-1) date Fri 10 Sep 2021 01:16:56 PM CEST*
%MOMM*%
%LPD*%
G01*
G04 APERTURE LIST*
%ADD10C,0.141421*%
G04 APERTURE END LIST*
D10*
X22700422Y-9907406D02*
X22700422Y-9907406D01*
X22134375Y-9893086D02*
X22700422Y-9907406D01*
X21575759Y-9850601D02*
X22134375Y-9893086D01*
X21025264Y-9780643D02*
X21575759Y-9850601D01*
X20483583Y-9683903D02*
X21025264Y-9780643D01*
X19951407Y-9561072D02*
X20483583Y-9683903D01*
X19429425Y-9412840D02*
X19951407Y-9561072D01*
X18918330Y-9239901D02*
X19429425Y-9412840D01*
X18418813Y-9042943D02*
X18918330Y-9239901D01*
X17931564Y-8822659D02*
X18418813Y-9042943D01*
X17457276Y-8579740D02*
X17931564Y-8822659D01*
X16996638Y-8314876D02*
X17457276Y-8579740D01*
X16550342Y-8028759D02*
X16996638Y-8314876D01*
X16119080Y-7722080D02*
X16550342Y-8028759D01*
X15703542Y-7395530D02*
X16119080Y-7722080D01*
X15304419Y-7049800D02*
X15703542Y-7395530D01*
X14922402Y-6685582D02*
X15304419Y-7049800D01*
X14558184Y-6303566D02*
X14922402Y-6685582D01*
X14212454Y-5904443D02*
X14558184Y-6303566D01*
X13885904Y-5488905D02*
X14212454Y-5904443D01*
X13579225Y-5057642D02*
X13885904Y-5488905D01*
X13293108Y-4611347D02*
X13579225Y-5057642D01*
X13028244Y-4150709D02*
X13293108Y-4611347D01*
X12785324Y-3676420D02*
X13028244Y-4150709D01*
X12565040Y-3189172D02*
X12785324Y-3676420D01*
X12368083Y-2689655D02*
X12565040Y-3189172D01*
X12195143Y-2178560D02*
X12368083Y-2689655D01*
X12046912Y-1656579D02*
X12195143Y-2178560D01*
X11924080Y-1124402D02*
X12046912Y-1656579D01*
X11827340Y-582721D02*
X11924080Y-1124402D01*
X11757382Y-32227D02*
X11827340Y-582721D01*
X11714897Y526390D02*
X11757382Y-32227D01*
X11700576Y1092437D02*
X11714897Y526390D01*
X11714897Y1658484D02*
X11700576Y1092437D01*
X11757381Y2217100D02*
X11714897Y1658484D01*
X11827339Y2767595D02*
X11757381Y2217100D01*
X11924080Y3309276D02*
X11827339Y2767595D01*
X12046911Y3841453D02*
X11924080Y3309276D01*
X12195142Y4363434D02*
X12046911Y3841453D01*
X12368082Y4874529D02*
X12195142Y4363434D01*
X12565039Y5374047D02*
X12368082Y4874529D01*
X12785323Y5861295D02*
X12565039Y5374047D01*
X13028243Y6335584D02*
X12785323Y5861295D01*
X13293107Y6796222D02*
X13028243Y6335584D01*
X13579224Y7242517D02*
X13293107Y6796222D01*
X13885903Y7673780D02*
X13579224Y7242517D01*
X14212453Y8089318D02*
X13885903Y7673780D01*
X14558183Y8488441D02*
X14212453Y8089318D01*
X14922401Y8870458D02*
X14558183Y8488441D01*
X15304418Y9234676D02*
X14922401Y8870458D01*
X15703541Y9580406D02*
X15304418Y9234676D01*
X16119079Y9906956D02*
X15703541Y9580406D01*
X16550341Y10213635D02*
X16119079Y9906956D01*
X16996637Y10499752D02*
X16550341Y10213635D01*
X17457275Y10764616D02*
X16996637Y10499752D01*
X17931564Y11007536D02*
X17457275Y10764616D01*
X18418812Y11227820D02*
X17931564Y11007536D01*
X18918330Y11424777D02*
X18418812Y11227820D01*
X19429425Y11597717D02*
X18918330Y11424777D01*
X19951406Y11745948D02*
X19429425Y11597717D01*
X20483583Y11868779D02*
X19951406Y11745948D01*
X21025264Y11965520D02*
X20483583Y11868779D01*
X21575758Y12035478D02*
X21025264Y11965520D01*
X22134375Y12077962D02*
X21575758Y12035478D01*
X22700422Y12092283D02*
X22134375Y12077962D01*
X23266469Y12077962D02*
X22700422Y12092283D01*
X23825086Y12035478D02*
X23266469Y12077962D01*
X24375580Y11965520D02*
X23825086Y12035478D01*
X24917261Y11868779D02*
X24375580Y11965520D01*
X25449438Y11745948D02*
X24917261Y11868779D01*
X25971419Y11597717D02*
X25449438Y11745948D01*
X26482514Y11424777D02*
X25971419Y11597717D01*
X26982032Y11227820D02*
X26482514Y11424777D01*
X27469280Y11007536D02*
X26982032Y11227820D01*
X27943569Y10764616D02*
X27469280Y11007536D01*
X28404207Y10499752D02*
X27943569Y10764616D01*
X28850503Y10213635D02*
X28404207Y10499752D01*
X29281765Y9906956D02*
X28850503Y10213635D01*
X29697303Y9580406D02*
X29281765Y9906956D01*
X30096426Y9234676D02*
X29697303Y9580406D01*
X30478443Y8870458D02*
X30096426Y9234676D01*
X30842661Y8488441D02*
X30478443Y8870458D01*
X31188391Y8089318D02*
X30842661Y8488441D01*
X31514941Y7673780D02*
X31188391Y8089318D01*
X31821620Y7242517D02*
X31514941Y7673780D01*
X32107737Y6796222D02*
X31821620Y7242517D01*
X32372601Y6335584D02*
X32107737Y6796222D01*
X32615521Y5861295D02*
X32372601Y6335584D01*
X32835805Y5374047D02*
X32615521Y5861295D01*
X33032762Y4874529D02*
X32835805Y5374047D01*
X33205702Y4363434D02*
X33032762Y4874529D01*
X33353933Y3841453D02*
X33205702Y4363434D01*
X33476764Y3309276D02*
X33353933Y3841453D01*
X33573505Y2767595D02*
X33476764Y3309276D01*
X33643463Y2217100D02*
X33573505Y2767595D01*
X33685947Y1658484D02*
X33643463Y2217100D01*
X33700268Y1092437D02*
X33685947Y1658484D01*
X33685947Y526390D02*
X33700268Y1092437D01*
X33643462Y-32227D02*
X33685947Y526390D01*
X33573504Y-582721D02*
X33643462Y-32227D01*
X33476764Y-1124402D02*
X33573504Y-582721D01*
X33353932Y-1656579D02*
X33476764Y-1124402D01*
X33205701Y-2178560D02*
X33353932Y-1656579D01*
X33032761Y-2689655D02*
X33205701Y-2178560D01*
X32835804Y-3189172D02*
X33032761Y-2689655D01*
X32615520Y-3676420D02*
X32835804Y-3189172D01*
X32372600Y-4150709D02*
X32615520Y-3676420D01*
X32107736Y-4611347D02*
X32372600Y-4150709D01*
X31821619Y-5057642D02*
X32107736Y-4611347D01*
X31514940Y-5488905D02*
X31821619Y-5057642D01*
X31188390Y-5904443D02*
X31514940Y-5488905D01*
X30842660Y-6303566D02*
X31188390Y-5904443D01*
X30478441Y-6685582D02*
X30842660Y-6303566D01*
X30096425Y-7049800D02*
X30478441Y-6685582D01*
X29697302Y-7395530D02*
X30096425Y-7049800D01*
X29281764Y-7722080D02*
X29697302Y-7395530D01*
X28850502Y-8028759D02*
X29281764Y-7722080D01*
X28404206Y-8314876D02*
X28850502Y-8028759D01*
X27943568Y-8579740D02*
X28404206Y-8314876D01*
X27469280Y-8822659D02*
X27943568Y-8579740D01*
X26982031Y-9042943D02*
X27469280Y-8822659D01*
X26482514Y-9239901D02*
X26982031Y-9042943D01*
X25971419Y-9412840D02*
X26482514Y-9239901D01*
X25449437Y-9561072D02*
X25971419Y-9412840D01*
X24917261Y-9683903D02*
X25449437Y-9561072D01*
X24375580Y-9780643D02*
X24917261Y-9683903D01*
X23825085Y-9850601D02*
X24375580Y-9780643D01*
X23266469Y-9893086D02*
X23825085Y-9850601D01*
X22700422Y-9907406D02*
X23266469Y-9893086D01*
X-20706514Y-19521931D02*
X-20037537Y-19538861D01*
X-21366708Y-19471715D02*
X-20706514Y-19521931D01*
X-22017302Y-19389030D02*
X-21366708Y-19471715D01*
X-22657480Y-19274692D02*
X-22017302Y-19389030D01*
X-23286425Y-19129519D02*
X-22657480Y-19274692D01*
X-23903320Y-18954326D02*
X-23286425Y-19129519D01*
X-24507348Y-18749932D02*
X-23903320Y-18954326D01*
X-25097693Y-18517152D02*
X-24507348Y-18749932D01*
X-25673538Y-18256804D02*
X-25097693Y-18517152D01*
X-26234065Y-17969705D02*
X-25673538Y-18256804D01*
X-26778459Y-17656670D02*
X-26234065Y-17969705D01*
X-27305902Y-17318518D02*
X-26778459Y-17656670D01*
X-27815578Y-16956065D02*
X-27305902Y-17318518D01*
X-28306669Y-16570127D02*
X-27815578Y-16956065D01*
X-28778359Y-16161522D02*
X-28306669Y-16570127D01*
X-29229831Y-15731066D02*
X-28778359Y-16161522D01*
X-29660269Y-15279577D02*
X-29229831Y-15731066D01*
X-30068855Y-14807870D02*
X-29660269Y-15279577D01*
X-30454774Y-14316763D02*
X-30068855Y-14807870D01*
X-30817207Y-13807074D02*
X-30454774Y-14316763D01*
X-31155338Y-13279617D02*
X-30817207Y-13807074D01*
X-31468351Y-12735211D02*
X-31155338Y-13279617D01*
X-31755428Y-12174672D02*
X-31468351Y-12735211D01*
X-32015753Y-11598817D02*
X-31755428Y-12174672D01*
X-32248509Y-11008463D02*
X-32015753Y-11598817D01*
X-32452880Y-10404426D02*
X-32248509Y-11008463D01*
X-32628047Y-9787524D02*
X-32452880Y-10404426D01*
X-32773196Y-9158574D02*
X-32628047Y-9787524D01*
X-32887508Y-8518391D02*
X-32773196Y-9158574D01*
X-32970167Y-7867793D02*
X-32887508Y-8518391D01*
X-33020357Y-7207598D02*
X-32970167Y-7867793D01*
X-33037260Y-6538620D02*
X-33020357Y-7207598D01*
X-33020331Y-5869662D02*
X-33037260Y-6538620D01*
X-32970118Y-5209486D02*
X-33020331Y-5869662D01*
X-32887437Y-4558909D02*
X-32970118Y-5209486D01*
X-32773105Y-3918747D02*
X-32887437Y-4558909D01*
X-32627939Y-3289817D02*
X-32773105Y-3918747D01*
X-32452756Y-2672937D02*
X-32627939Y-3289817D01*
X-32248372Y-2068922D02*
X-32452756Y-2672937D01*
X-32015604Y-1478590D02*
X-32248372Y-2068922D01*
X-31755269Y-902756D02*
X-32015604Y-1478590D01*
X-31468183Y-342239D02*
X-31755269Y-902756D01*
X-31155164Y202145D02*
X-31468183Y-342239D01*
X-30817027Y729580D02*
X-31155164Y202145D01*
X-30454591Y1239249D02*
X-30817027Y729580D01*
X-30068671Y1730335D02*
X-30454591Y1239249D01*
X-29660085Y2202021D02*
X-30068671Y1730335D01*
X-29229648Y2653491D02*
X-29660085Y2202021D01*
X-28778178Y3083927D02*
X-29229648Y2653491D01*
X-28306492Y3492514D02*
X-28778178Y3083927D01*
X-27815406Y3878434D02*
X-28306492Y3492514D01*
X-27305737Y4240870D02*
X-27815406Y3878434D01*
X-26778302Y4579007D02*
X-27305737Y4240870D01*
X-26233918Y4892026D02*
X-26778302Y4579007D01*
X-25673401Y5179111D02*
X-26233918Y4892026D01*
X-25097567Y5439447D02*
X-25673401Y5179111D01*
X-24507235Y5672215D02*
X-25097567Y5439447D01*
X-23903220Y5876599D02*
X-24507235Y5672215D01*
X-23286340Y6051782D02*
X-23903220Y5876599D01*
X-22657410Y6196948D02*
X-23286340Y6051782D01*
X-22017248Y6311280D02*
X-22657410Y6196948D01*
X-21366671Y6393961D02*
X-22017248Y6311280D01*
X-20706495Y6444174D02*
X-21366671Y6393961D01*
X-20037537Y6461103D02*
X-20706495Y6444174D01*
X-19368560Y6444200D02*
X-20037537Y6461103D01*
X-18708364Y6394010D02*
X-19368560Y6444200D01*
X-18057766Y6311351D02*
X-18708364Y6394010D01*
X-17417584Y6197038D02*
X-18057766Y6311351D01*
X-16788633Y6051890D02*
X-17417584Y6197038D01*
X-16171731Y5876722D02*
X-16788633Y6051890D01*
X-15567695Y5672351D02*
X-16171731Y5876722D01*
X-14977341Y5439595D02*
X-15567695Y5672351D01*
X-14401486Y5179270D02*
X-14977341Y5439595D01*
X-13840947Y4892193D02*
X-14401486Y5179270D01*
X-13296541Y4579180D02*
X-13840947Y4892193D01*
X-12769085Y4241049D02*
X-13296541Y4579180D01*
X-12259395Y3878616D02*
X-12769085Y4241049D01*
X-11768288Y3492697D02*
X-12259395Y3878616D01*
X-11296582Y3084111D02*
X-11768288Y3492697D01*
X-10845092Y2653673D02*
X-11296582Y3084111D01*
X-10414637Y2202201D02*
X-10845092Y2653673D01*
X-10006032Y1730511D02*
X-10414637Y2202201D01*
X-9620094Y1239420D02*
X-10006032Y1730511D01*
X-9257641Y729744D02*
X-9620094Y1239420D01*
X-8919488Y202301D02*
X-9257641Y729744D01*
X-8606454Y-342092D02*
X-8919488Y202301D01*
X-8319354Y-902620D02*
X-8606454Y-342092D01*
X-8059006Y-1478465D02*
X-8319354Y-902620D01*
X-7826227Y-2068809D02*
X-8059006Y-1478465D01*
X-7621832Y-2672838D02*
X-7826227Y-2068809D01*
X-7446640Y-3289733D02*
X-7621832Y-2672838D01*
X-7301467Y-3918678D02*
X-7446640Y-3289733D01*
X-7187129Y-4558856D02*
X-7301467Y-3918678D01*
X-7104444Y-5209450D02*
X-7187129Y-4558856D01*
X-7054228Y-5869644D02*
X-7104444Y-5209450D01*
X-7037298Y-6538620D02*
X-7054228Y-5869644D01*
X-7054202Y-7207616D02*
X-7037298Y-6538620D01*
X-7104394Y-7867830D02*
X-7054202Y-7207616D01*
X-7187058Y-8518444D02*
X-7104394Y-7867830D01*
X-7301376Y-9158643D02*
X-7187058Y-8518444D01*
X-7446532Y-9787609D02*
X-7301376Y-9158643D01*
X-7621709Y-10404526D02*
X-7446532Y-9787609D01*
X-7826090Y-11008575D02*
X-7621709Y-10404526D01*
X-8058857Y-11598942D02*
X-7826090Y-11008575D01*
X-8319195Y-12174808D02*
X-8058857Y-11598942D01*
X-8606287Y-12735357D02*
X-8319195Y-12174808D01*
X-8919314Y-13279773D02*
X-8606287Y-12735357D01*
X-9257462Y-13807237D02*
X-8919314Y-13279773D01*
X-9619912Y-14316934D02*
X-9257462Y-13807237D01*
X-10005848Y-14808046D02*
X-9619912Y-14316934D01*
X-10414452Y-15279756D02*
X-10005848Y-14808046D01*
X-10844909Y-15731248D02*
X-10414452Y-15279756D01*
X-11296401Y-16161705D02*
X-10844909Y-15731248D01*
X-11768112Y-16570310D02*
X-11296401Y-16161705D01*
X-12259224Y-16956246D02*
X-11768112Y-16570310D01*
X-12768920Y-17318696D02*
X-12259224Y-16956246D01*
X-13296385Y-17656844D02*
X-12768920Y-17318696D01*
X-13840800Y-17969872D02*
X-13296385Y-17656844D01*
X-14401349Y-18256963D02*
X-13840800Y-17969872D01*
X-14977215Y-18517301D02*
X-14401349Y-18256963D01*
X-15567582Y-18750069D02*
X-14977215Y-18517301D01*
X-16171632Y-18954450D02*
X-15567582Y-18750069D01*
X-16788548Y-19129626D02*
X-16171632Y-18954450D01*
X-17417514Y-19274782D02*
X-16788548Y-19129626D01*
X-18057713Y-19389101D02*
X-17417514Y-19274782D01*
X-18708328Y-19471765D02*
X-18057713Y-19389101D01*
X-19368541Y-19521957D02*
X-18708328Y-19471765D01*
X-20037537Y-19538861D02*
X-19368541Y-19521957D01*
X-246606Y-39298643D02*
X-733806Y-40656435D01*
X290768Y-37969728D02*
X-246606Y-39298643D01*
X877025Y-36670620D02*
X290768Y-37969728D01*
X1510874Y-35402248D02*
X877025Y-36670620D01*
X2191024Y-34165542D02*
X1510874Y-35402248D01*
X2916184Y-32961429D02*
X2191024Y-34165542D01*
X3685062Y-31790839D02*
X2916184Y-32961429D01*
X4496368Y-30654701D02*
X3685062Y-31790839D01*
X5348810Y-29553944D02*
X4496368Y-30654701D01*
X6241098Y-28489498D02*
X5348810Y-29553944D01*
X7171939Y-27462291D02*
X6241098Y-28489498D01*
X8140044Y-26473252D02*
X7171939Y-27462291D01*
X9144120Y-25523310D02*
X8140044Y-26473252D01*
X10182877Y-24613395D02*
X9144120Y-25523310D01*
X11255024Y-23744435D02*
X10182877Y-24613395D01*
X12359269Y-22917360D02*
X11255024Y-23744435D01*
X13494322Y-22133098D02*
X12359269Y-22917360D01*
X14658892Y-21392579D02*
X13494322Y-22133098D01*
X15851686Y-20696731D02*
X14658892Y-21392579D01*
X17071414Y-20046485D02*
X15851686Y-20696731D01*
X18316786Y-19442768D02*
X17071414Y-20046485D01*
X19586509Y-18886509D02*
X18316786Y-19442768D01*
X20879293Y-18378639D02*
X19586509Y-18886509D01*
X22193847Y-17920085D02*
X20879293Y-18378639D01*
X23528879Y-17511778D02*
X22193847Y-17920085D01*
X24883099Y-17154645D02*
X23528879Y-17511778D01*
X26255215Y-16849617D02*
X24883099Y-17154645D01*
X27643936Y-16597621D02*
X26255215Y-16849617D01*
X29047971Y-16399588D02*
X27643936Y-16597621D01*
X30466029Y-16256446D02*
X29047971Y-16399588D01*
X31896819Y-16169124D02*
X30466029Y-16256446D01*
X33339050Y-16138552D02*
X31896819Y-16169124D01*
X33460448Y-16140066D02*
X33339050Y-16138552D01*
X33581836Y-16141990D02*
X33460448Y-16140066D01*
X33703211Y-16144323D02*
X33581836Y-16141990D01*
X33824574Y-16147065D02*
X33703211Y-16144323D01*
X33945922Y-16150217D02*
X33824574Y-16147065D01*
X34067255Y-16153777D02*
X33945922Y-16150217D01*
X34188573Y-16157746D02*
X34067255Y-16153777D01*
X34309873Y-16162124D02*
X34188573Y-16157746D01*
X34431154Y-16166911D02*
X34309873Y-16162124D01*
X34552417Y-16172107D02*
X34431154Y-16166911D01*
X34673659Y-16177712D02*
X34552417Y-16172107D01*
X34794880Y-16183725D02*
X34673659Y-16177712D01*
X34916078Y-16190147D02*
X34794880Y-16183725D01*
X35037254Y-16196977D02*
X34916078Y-16190147D01*
X35158404Y-16204215D02*
X35037254Y-16196977D01*
X35279530Y-16211863D02*
X35158404Y-16204215D01*
X35400628Y-16219918D02*
X35279530Y-16211863D01*
X35521700Y-16228381D02*
X35400628Y-16219918D01*
X35642743Y-16237253D02*
X35521700Y-16228381D01*
X35763756Y-16246533D02*
X35642743Y-16237253D01*
X35884739Y-16256221D02*
X35763756Y-16246533D01*
X36005690Y-16266317D02*
X35884739Y-16256221D01*
X36126608Y-16276820D02*
X36005690Y-16266317D01*
X36247493Y-16287732D02*
X36126608Y-16276820D01*
X36368343Y-16299051D02*
X36247493Y-16287732D01*
X36489157Y-16310779D02*
X36368343Y-16299051D01*
X36609934Y-16322913D02*
X36489157Y-16310779D01*
X36730674Y-16335455D02*
X36609934Y-16322913D01*
X36851374Y-16348405D02*
X36730674Y-16335455D01*
X36972035Y-16361763D02*
X36851374Y-16348405D01*
X37092655Y-16375527D02*
X36972035Y-16361763D01*
X37213233Y-16389699D02*
X37092655Y-16375527D01*
X41400058Y14249259D02*
X37213233Y-16389699D01*
X41167844Y14327033D02*
X41400058Y14249259D01*
X40940469Y14413570D02*
X41167844Y14327033D01*
X40718096Y14508644D02*
X40940469Y14413570D01*
X40500894Y14612032D02*
X40718096Y14508644D01*
X40289025Y14723508D02*
X40500894Y14612032D01*
X40082657Y14842846D02*
X40289025Y14723508D01*
X39881955Y14969824D02*
X40082657Y14842846D01*
X39687084Y15104214D02*
X39881955Y14969824D01*
X39498210Y15245793D02*
X39687084Y15104214D01*
X39315498Y15394336D02*
X39498210Y15245793D01*
X39139114Y15549617D02*
X39315498Y15394336D01*
X38969224Y15711411D02*
X39139114Y15549617D01*
X38805993Y15879495D02*
X38969224Y15711411D01*
X38649586Y16053642D02*
X38805993Y15879495D01*
X38500169Y16233628D02*
X38649586Y16053642D01*
X38357908Y16419228D02*
X38500169Y16233628D01*
X38222968Y16610218D02*
X38357908Y16419228D01*
X38095515Y16806371D02*
X38222968Y16610218D01*
X37975714Y17007464D02*
X38095515Y16806371D01*
X37863731Y17213271D02*
X37975714Y17007464D01*
X37759731Y17423567D02*
X37863731Y17213271D01*
X37663880Y17638128D02*
X37759731Y17423567D01*
X37576344Y17856729D02*
X37663880Y17638128D01*
X37497287Y18079144D02*
X37576344Y17856729D01*
X37426876Y18305149D02*
X37497287Y18079144D01*
X37365276Y18534519D02*
X37426876Y18305149D01*
X37312653Y18767029D02*
X37365276Y18534519D01*
X37269172Y19002453D02*
X37312653Y18767029D01*
X37234998Y19240568D02*
X37269172Y19002453D01*
X37210298Y19481148D02*
X37234998Y19240568D01*
X37195236Y19723968D02*
X37210298Y19481148D01*
X37189979Y19968804D02*
X37195236Y19723968D01*
X37190671Y20044210D02*
X37189979Y19968804D01*
X37192310Y20119556D02*
X37190671Y20044210D01*
X37194893Y20194834D02*
X37192310Y20119556D01*
X37198418Y20270035D02*
X37194893Y20194834D01*
X37202885Y20345150D02*
X37198418Y20270035D01*
X37208291Y20420171D02*
X37202885Y20345150D01*
X37214634Y20495089D02*
X37208291Y20420171D01*
X37221913Y20569896D02*
X37214634Y20495089D01*
X37230126Y20644582D02*
X37221913Y20569896D01*
X37239270Y20719139D02*
X37230126Y20644582D01*
X37249345Y20793559D02*
X37239270Y20719139D01*
X37260349Y20867833D02*
X37249345Y20793559D01*
X37272279Y20941951D02*
X37260349Y20867833D01*
X37285134Y21015906D02*
X37272279Y20941951D01*
X37298912Y21089689D02*
X37285134Y21015906D01*
X37313611Y21163290D02*
X37298912Y21089689D01*
X37329230Y21236702D02*
X37313611Y21163290D01*
X37345766Y21309916D02*
X37329230Y21236702D01*
X37363219Y21382923D02*
X37345766Y21309916D01*
X37381585Y21455714D02*
X37363219Y21382923D01*
X37400864Y21528281D02*
X37381585Y21455714D01*
X37421054Y21600615D02*
X37400864Y21528281D01*
X37442152Y21672707D02*
X37421054Y21600615D01*
X37464157Y21744549D02*
X37442152Y21672707D01*
X37487068Y21816132D02*
X37464157Y21744549D01*
X37510882Y21887447D02*
X37487068Y21816132D01*
X37535597Y21958486D02*
X37510882Y21887447D01*
X37561213Y22029240D02*
X37535597Y21958486D01*
X37587726Y22099700D02*
X37561213Y22029240D01*
X37615136Y22169858D02*
X37587726Y22099700D01*
X37643440Y22239705D02*
X37615136Y22169858D01*
X37672637Y22309232D02*
X37643440Y22239705D01*
X25535909Y30067413D02*
X37672637Y22309232D01*
X24983881Y29287235D02*
X25535909Y30067413D01*
X24410266Y28527187D02*
X24983881Y29287235D01*
X23815637Y27787570D02*
X24410266Y28527187D01*
X23200564Y27068685D02*
X23815637Y27787570D01*
X22565619Y26370835D02*
X23200564Y27068685D01*
X21911373Y25694320D02*
X22565619Y26370835D01*
X21238396Y25039443D02*
X21911373Y25694320D01*
X20547260Y24406506D02*
X21238396Y25039443D01*
X19838537Y23795808D02*
X20547260Y24406506D01*
X19112797Y23207654D02*
X19838537Y23795808D01*
X18370612Y22642343D02*
X19112797Y23207654D01*
X17612552Y22100178D02*
X18370612Y22642343D01*
X16839190Y21581460D02*
X17612552Y22100178D01*
X16051096Y21086491D02*
X16839190Y21581460D01*
X15248841Y20615572D02*
X16051096Y21086491D01*
X14432997Y20169005D02*
X15248841Y20615572D01*
X13604134Y19747092D02*
X14432997Y20169005D01*
X12762825Y19350135D02*
X13604134Y19747092D01*
X11909639Y18978434D02*
X12762825Y19350135D01*
X11045149Y18632291D02*
X11909639Y18978434D01*
X10169926Y18312009D02*
X11045149Y18632291D01*
X9284540Y18017888D02*
X10169926Y18312009D01*
X8389563Y17750231D02*
X9284540Y18017888D01*
X7485566Y17509339D02*
X8389563Y17750231D01*
X6573120Y17295513D02*
X7485566Y17509339D01*
X5652797Y17109055D02*
X6573120Y17295513D01*
X4725167Y16950267D02*
X5652797Y17109055D01*
X3790802Y16819451D02*
X4725167Y16950267D01*
X2850274Y16716907D02*
X3790802Y16819451D01*
X1904152Y16642938D02*
X2850274Y16716907D01*
X953009Y16597846D02*
X1904152Y16642938D01*
X-2585Y16581931D02*
X953009Y16597846D01*
X-958665Y16596707D02*
X-2585Y16581931D01*
X-1910323Y16640695D02*
X-958665Y16596707D01*
X-2856987Y16713593D02*
X-1910323Y16640695D01*
X-3798085Y16815099D02*
X-2856987Y16713593D01*
X-4733044Y16944912D02*
X-3798085Y16815099D01*
X-5661292Y17102730D02*
X-4733044Y16944912D01*
X-6582257Y17288253D02*
X-5661292Y17102730D01*
X-7495366Y17501178D02*
X-6582257Y17288253D01*
X-8400047Y17741204D02*
X-7495366Y17501178D01*
X-9295728Y18008030D02*
X-8400047Y17741204D01*
X-10181837Y18301354D02*
X-9295728Y18008030D01*
X-11057801Y18620874D02*
X-10181837Y18301354D01*
X-11923049Y18966290D02*
X-11057801Y18620874D01*
X-12777006Y19337299D02*
X-11923049Y18966290D01*
X-13619103Y19733601D02*
X-12777006Y19337299D01*
X-14448765Y20154893D02*
X-13619103Y19733601D01*
X-15265421Y20600874D02*
X-14448765Y20154893D01*
X-16068499Y21071244D02*
X-15265421Y20600874D01*
X-16857426Y21565699D02*
X-16068499Y21071244D01*
X-17631630Y22083939D02*
X-16857426Y21565699D01*
X-18390538Y22625662D02*
X-17631630Y22083939D01*
X-19133579Y23190568D02*
X-18390538Y22625662D01*
X-19860180Y23778353D02*
X-19133579Y23190568D01*
X-20569769Y24388718D02*
X-19860180Y23778353D01*
X-21261773Y25021360D02*
X-20569769Y24388718D01*
X-21935621Y25675977D02*
X-21261773Y25021360D01*
X-22590739Y26352269D02*
X-21935621Y25675977D01*
X-23226556Y27049934D02*
X-22590739Y26352269D01*
X-23842500Y27768671D02*
X-23226556Y27049934D01*
X-24437997Y28508177D02*
X-23842500Y27768671D01*
X-25012476Y29268152D02*
X-24437997Y28508177D01*
X-25565365Y30048294D02*
X-25012476Y29268152D01*
X-37667987Y22308713D02*
X-25565365Y30048294D01*
X-37638913Y22239047D02*
X-37667987Y22308713D01*
X-37610735Y22169063D02*
X-37638913Y22239047D01*
X-37583453Y22098769D02*
X-37610735Y22169063D01*
X-37557071Y22028174D02*
X-37583453Y22098769D01*
X-37531589Y21957286D02*
X-37557071Y22028174D01*
X-37507009Y21886116D02*
X-37531589Y21957286D01*
X-37483334Y21814670D02*
X-37507009Y21886116D01*
X-37460564Y21742959D02*
X-37483334Y21814670D01*
X-37438703Y21670990D02*
X-37460564Y21742959D01*
X-37417751Y21598772D02*
X-37438703Y21670990D01*
X-37397710Y21526314D02*
X-37417751Y21598772D01*
X-37378582Y21453625D02*
X-37397710Y21526314D01*
X-37360369Y21380713D02*
X-37378582Y21453625D01*
X-37343073Y21307588D02*
X-37360369Y21380713D01*
X-37326695Y21234257D02*
X-37343073Y21307588D01*
X-37311237Y21160730D02*
X-37326695Y21234257D01*
X-37296701Y21087015D02*
X-37311237Y21160730D01*
X-37283089Y21013121D02*
X-37296701Y21087015D01*
X-37270402Y20939056D02*
X-37283089Y21013121D01*
X-37258642Y20864830D02*
X-37270402Y20939056D01*
X-37247812Y20790451D02*
X-37258642Y20864830D01*
X-37237912Y20715927D02*
X-37247812Y20790451D01*
X-37228945Y20641268D02*
X-37237912Y20715927D01*
X-37220912Y20566482D02*
X-37228945Y20641268D01*
X-37213815Y20491578D02*
X-37220912Y20566482D01*
X-37207656Y20416564D02*
X-37213815Y20491578D01*
X-37202436Y20341450D02*
X-37207656Y20416564D01*
X-37198158Y20266244D02*
X-37202436Y20341450D01*
X-37194824Y20190954D02*
X-37198158Y20266244D01*
X-37192434Y20115589D02*
X-37194824Y20190954D01*
X-37190991Y20040159D02*
X-37192434Y20115589D01*
X-37190496Y19964671D02*
X-37190991Y20040159D01*
X-37195512Y19719662D02*
X-37190496Y19964671D01*
X-37210348Y19476663D02*
X-37195512Y19719662D01*
X-37234838Y19235898D02*
X-37210348Y19476663D01*
X-37268816Y18997595D02*
X-37234838Y19235898D01*
X-37312117Y18761977D02*
X-37268816Y18997595D01*
X-37364575Y18529271D02*
X-37312117Y18761977D01*
X-37426023Y18299702D02*
X-37364575Y18529271D01*
X-37496298Y18073496D02*
X-37426023Y18299702D01*
X-37575231Y17850877D02*
X-37496298Y18073496D01*
X-37662659Y17632071D02*
X-37575231Y17850877D01*
X-37758415Y17417305D02*
X-37662659Y17632071D01*
X-37862333Y17206802D02*
X-37758415Y17417305D01*
X-37974247Y17000790D02*
X-37862333Y17206802D01*
X-38093993Y16799492D02*
X-37974247Y17000790D01*
X-38221404Y16603135D02*
X-38093993Y16799492D01*
X-38356314Y16411944D02*
X-38221404Y16603135D01*
X-38498558Y16226145D02*
X-38356314Y16411944D01*
X-38647969Y16045962D02*
X-38498558Y16226145D01*
X-38804383Y15871622D02*
X-38647969Y16045962D01*
X-38967633Y15703350D02*
X-38804383Y15871622D01*
X-39137554Y15541371D02*
X-38967633Y15703350D01*
X-39313979Y15385911D02*
X-39137554Y15541371D01*
X-39496744Y15237195D02*
X-39313979Y15385911D01*
X-39685682Y15095448D02*
X-39496744Y15237195D01*
X-39880628Y14960897D02*
X-39685682Y15095448D01*
X-40081416Y14833767D02*
X-39880628Y14960897D01*
X-40287880Y14714282D02*
X-40081416Y14833767D01*
X-40499854Y14602669D02*
X-40287880Y14714282D01*
X-40717173Y14499153D02*
X-40499854Y14602669D01*
X-40939671Y14403959D02*
X-40717173Y14499153D01*
X-41167182Y14317313D02*
X-40939671Y14403959D01*
X-41399540Y14239440D02*
X-41167182Y14317313D01*
X-36057231Y-24832078D02*
X-41399540Y14239440D01*
X-35755815Y-24849128D02*
X-36057231Y-24832078D01*
X-35458646Y-24880757D02*
X-35755815Y-24849128D01*
X-35166074Y-24926607D02*
X-35458646Y-24880757D01*
X-34878447Y-24986317D02*
X-35166074Y-24926607D01*
X-34596114Y-25059527D02*
X-34878447Y-24986317D01*
X-34319423Y-25145879D02*
X-34596114Y-25059527D01*
X-34048722Y-25245012D02*
X-34319423Y-25145879D01*
X-33784361Y-25356568D02*
X-34048722Y-25245012D01*
X-33526688Y-25480185D02*
X-33784361Y-25356568D01*
X-33276051Y-25615506D02*
X-33526688Y-25480185D01*
X-33032799Y-25762169D02*
X-33276051Y-25615506D01*
X-32797281Y-25919816D02*
X-33032799Y-25762169D01*
X-32569845Y-26088087D02*
X-32797281Y-25919816D01*
X-32350840Y-26266622D02*
X-32569845Y-26088087D01*
X-32140614Y-26455062D02*
X-32350840Y-26266622D01*
X-31939515Y-26653047D02*
X-32140614Y-26455062D01*
X-31747894Y-26860218D02*
X-31939515Y-26653047D01*
X-31566097Y-27076214D02*
X-31747894Y-26860218D01*
X-31394474Y-27300677D02*
X-31566097Y-27076214D01*
X-31233373Y-27533247D02*
X-31394474Y-27300677D01*
X-31083142Y-27773564D02*
X-31233373Y-27533247D01*
X-30944131Y-28021268D02*
X-31083142Y-27773564D01*
X-30816688Y-28276000D02*
X-30944131Y-28021268D01*
X-30701161Y-28537401D02*
X-30816688Y-28276000D01*
X-30597900Y-28805110D02*
X-30701161Y-28537401D01*
X-30507251Y-29078768D02*
X-30597900Y-28805110D01*
X-30429565Y-29358016D02*
X-30507251Y-29078768D01*
X-30365190Y-29642493D02*
X-30429565Y-29358016D01*
X-30314474Y-29931841D02*
X-30365190Y-29642493D01*
X-30277766Y-30225700D02*
X-30314474Y-29931841D01*
X-30255414Y-30523710D02*
X-30277766Y-30225700D01*
X-30247767Y-30825511D02*
X-30255414Y-30523710D01*
X-30248248Y-30864384D02*
X-30247767Y-30825511D01*
X-30248982Y-30903250D02*
X-30248248Y-30864384D01*
X-30249966Y-30942107D02*
X-30248982Y-30903250D01*
X-30251203Y-30980954D02*
X-30249966Y-30942107D01*
X-30252691Y-31019789D02*
X-30251203Y-30980954D01*
X-30254430Y-31058612D02*
X-30252691Y-31019789D01*
X-30256421Y-31097421D02*
X-30254430Y-31058612D01*
X-30258663Y-31136216D02*
X-30256421Y-31097421D01*
X-30261155Y-31174994D02*
X-30258663Y-31136216D01*
X-30263900Y-31213755D02*
X-30261155Y-31174994D01*
X-30266894Y-31252497D02*
X-30263900Y-31213755D01*
X-30270140Y-31291219D02*
X-30266894Y-31252497D01*
X-30273637Y-31329921D02*
X-30270140Y-31291219D01*
X-30277384Y-31368600D02*
X-30273637Y-31329921D01*
X-30281382Y-31407256D02*
X-30277384Y-31368600D01*
X-30285630Y-31445887D02*
X-30281382Y-31407256D01*
X-30290129Y-31484492D02*
X-30285630Y-31445887D01*
X-30294878Y-31523070D02*
X-30290129Y-31484492D01*
X-30299878Y-31561620D02*
X-30294878Y-31523070D01*
X-30305127Y-31600140D02*
X-30299878Y-31561620D01*
X-733806Y-40656435D02*
X-30305127Y-31600140D01*
M02*
