G04 #@! TF.GenerationSoftware,KiCad,Pcbnew,5.0.2+dfsg1-1*
G04 #@! TF.CreationDate,2021-09-10T13:16:56+02:00*
G04 #@! TF.ProjectId,edgedriver,65646765-6472-4697-9665-722e6b696361,rev?*
G04 #@! TF.SameCoordinates,Original*
G04 #@! TF.FileFunction,Soldermask,Bot*
G04 #@! TF.FilePolarity,Negative*
%FSLAX46Y46*%
G04 Gerber Fmt 4.6, Leading zero omitted, Abs format (unit mm)*
G04 Created by KiCad (PCBNEW 5.0.2+dfsg1-1) date Fri 10 Sep 2021 01:16:56 PM CEST*
%MOMM*%
%LPD*%
G01*
G04 APERTURE LIST*
%ADD10C,0.100000*%
G04 APERTURE END LIST*
D10*
G36*
X35147738Y-12966653D02*
X35189598Y-12974979D01*
X35224245Y-12989330D01*
X35307890Y-13023977D01*
X35414354Y-13095114D01*
X35504886Y-13185646D01*
X35576023Y-13292110D01*
X35625021Y-13410403D01*
X35650000Y-13535979D01*
X35650000Y-13664021D01*
X35625021Y-13789597D01*
X35576023Y-13907890D01*
X35504886Y-14014354D01*
X35414354Y-14104886D01*
X35307890Y-14176023D01*
X35224245Y-14210670D01*
X35189598Y-14225021D01*
X35147738Y-14233347D01*
X35064021Y-14250000D01*
X34935979Y-14250000D01*
X34852262Y-14233347D01*
X34810402Y-14225021D01*
X34775755Y-14210670D01*
X34692110Y-14176023D01*
X34585646Y-14104886D01*
X34495114Y-14014354D01*
X34423977Y-13907890D01*
X34374979Y-13789597D01*
X34350000Y-13664021D01*
X34350000Y-13535979D01*
X34374979Y-13410403D01*
X34423977Y-13292110D01*
X34495114Y-13185646D01*
X34585646Y-13095114D01*
X34692110Y-13023977D01*
X34775755Y-12989330D01*
X34810402Y-12974979D01*
X34852262Y-12966653D01*
X34935979Y-12950000D01*
X35064021Y-12950000D01*
X35147738Y-12966653D01*
X35147738Y-12966653D01*
G37*
G36*
X-1567255Y405845D02*
X-1567253Y405844D01*
X-1567252Y405844D01*
X-1012006Y175854D01*
X-1012005Y175853D01*
X-512294Y-158043D01*
X-87332Y-583005D01*
X-87330Y-583008D01*
X246565Y-1082717D01*
X476555Y-1637963D01*
X593804Y-2227410D01*
X593804Y-2828404D01*
X476555Y-3417851D01*
X246565Y-3973097D01*
X246564Y-3973098D01*
X-87332Y-4472809D01*
X-512294Y-4897771D01*
X-512297Y-4897773D01*
X-1012006Y-5231668D01*
X-1567252Y-5461658D01*
X-1567253Y-5461658D01*
X-1567255Y-5461659D01*
X-2156697Y-5578907D01*
X-2757695Y-5578907D01*
X-3347137Y-5461659D01*
X-3347139Y-5461658D01*
X-3347140Y-5461658D01*
X-3902386Y-5231668D01*
X-4402095Y-4897773D01*
X-4402098Y-4897771D01*
X-4827060Y-4472809D01*
X-5160956Y-3973098D01*
X-5160957Y-3973097D01*
X-5390947Y-3417851D01*
X-5508196Y-2828404D01*
X-5508196Y-2227410D01*
X-5390947Y-1637963D01*
X-5160957Y-1082717D01*
X-4827062Y-583008D01*
X-4827060Y-583005D01*
X-4402098Y-158043D01*
X-3902387Y175853D01*
X-3902386Y175854D01*
X-3347140Y405844D01*
X-3347139Y405844D01*
X-3347137Y405845D01*
X-2757695Y523093D01*
X-2156697Y523093D01*
X-1567255Y405845D01*
X-1567255Y405845D01*
G37*
G36*
X3417848Y5390948D02*
X3417850Y5390947D01*
X3417851Y5390947D01*
X3973097Y5160957D01*
X3973098Y5160956D01*
X4472809Y4827060D01*
X4897771Y4402098D01*
X4897773Y4402095D01*
X5231668Y3902386D01*
X5461658Y3347140D01*
X5578907Y2757693D01*
X5578907Y2156699D01*
X5461658Y1567252D01*
X5231668Y1012006D01*
X5231667Y1012005D01*
X4897771Y512294D01*
X4472809Y87332D01*
X4472806Y87330D01*
X3973097Y-246565D01*
X3417851Y-476555D01*
X3417850Y-476555D01*
X3417848Y-476556D01*
X2828406Y-593804D01*
X2227408Y-593804D01*
X1637966Y-476556D01*
X1637964Y-476555D01*
X1637963Y-476555D01*
X1082717Y-246565D01*
X583008Y87330D01*
X583005Y87332D01*
X158043Y512294D01*
X-175853Y1012005D01*
X-175854Y1012006D01*
X-405844Y1567252D01*
X-523093Y2156699D01*
X-523093Y2757693D01*
X-405844Y3347140D01*
X-175854Y3902386D01*
X158041Y4402095D01*
X158043Y4402098D01*
X583005Y4827060D01*
X1082716Y5160956D01*
X1082717Y5160957D01*
X1637963Y5390947D01*
X1637964Y5390947D01*
X1637966Y5390948D01*
X2227408Y5508196D01*
X2828406Y5508196D01*
X3417848Y5390948D01*
X3417848Y5390948D01*
G37*
G36*
X-34252262Y22233347D02*
X-34210402Y22225021D01*
X-34175755Y22210670D01*
X-34092110Y22176023D01*
X-33985646Y22104886D01*
X-33895114Y22014354D01*
X-33823977Y21907890D01*
X-33774979Y21789597D01*
X-33750000Y21664021D01*
X-33750000Y21535979D01*
X-33774979Y21410403D01*
X-33823977Y21292110D01*
X-33895114Y21185646D01*
X-33985646Y21095114D01*
X-34092110Y21023977D01*
X-34175755Y20989330D01*
X-34210402Y20974979D01*
X-34252262Y20966653D01*
X-34335979Y20950000D01*
X-34464021Y20950000D01*
X-34547738Y20966653D01*
X-34589598Y20974979D01*
X-34624245Y20989330D01*
X-34707890Y21023977D01*
X-34814354Y21095114D01*
X-34904886Y21185646D01*
X-34976023Y21292110D01*
X-35025021Y21410403D01*
X-35050000Y21535979D01*
X-35050000Y21664021D01*
X-35025021Y21789597D01*
X-34976023Y21907890D01*
X-34904886Y22014354D01*
X-34814354Y22104886D01*
X-34707890Y22176023D01*
X-34624245Y22210670D01*
X-34589598Y22225021D01*
X-34547738Y22233347D01*
X-34464021Y22250000D01*
X-34335979Y22250000D01*
X-34252262Y22233347D01*
X-34252262Y22233347D01*
G37*
M02*
