M48
METRIC,TZ
T1C0.300
T2C0.400
T3C4.300
T4C1.152
T5C1.600
T6C2.000
T7C3.000
%
G90
G05
T1
X-31.Y-19.
X-29.8Y-24.
X-28.8Y-19.4
X-24.442Y-23.007
X-23.8Y-24.4
X-23.4Y-23.675
X-22.9Y-25.8
X-21.4Y-24.6
X-21.4Y-25.4
X-20.4Y-24.4
X-20.2Y-23.075
X-18.6Y-32.2
X-18.Y-33.6
X-17.7Y-30.8
X-16.9Y-21.404
X-16.8Y-19.8
X-16.7Y-29.7
X-16.4Y-34.2
X-16.3Y-22.
X-16.Y-19.8
X-15.7Y-28.7
X-15.2Y-33.2
X-14.1Y-32.
X-13.8Y-33.7
X-13.5Y-35.
X-11.7Y-35.2
X-11.4Y-29.7
X-10.5Y-32.7
X-10.3Y-34.4
X-8.9Y-19.3
X-5.6Y0.5
X-5.4Y-5.2
X-4.2Y4.
X-3.9Y1.3
X-3.5Y2.8
X-3.4Y-6.2
X-2.3Y1.4
X0.2Y-18.5
X0.9Y-4.1
X1.5Y-2.8
X2.4Y-8.2
X3.2Y-4.8
X5.8Y8.
X6.4Y-6.
X7.2Y-5.4
X7.4Y-3.1
X7.9Y-4.7
X8.6Y-19.4
X9.2Y-20.2
X11.Y-18.4
X11.2Y-17.2
X11.8Y-6.2
X12.Y-4.2
X12.8Y-5.
X15.2Y-16.8
X26.7Y19.4
X26.9Y18.2
X27.2Y17.
X27.4Y15.6
X27.8Y20.1
X29.1Y20.2
X29.8Y19.1
X30.1Y17.9
X30.3Y16.7
X31.2Y17.7
X32.1Y18.6
X32.2Y14.5
X33.Y15.3
X33.2Y19.2
X33.8Y16.2
X34.3Y18.6
X34.4Y17.2
T2
X-8.Y15.
T3
X-2.457Y-2.528
X2.528Y2.457
T4
X35.Y-13.6
X-34.4Y21.6
T5
X-34.536Y-7.089
X-5.658Y-32.956
T6
X-38.242Y7.393
X-34.856Y-17.377
X-30.375Y24.362
X-22.753Y-31.613
X-6.964Y-36.448
X30.405Y24.344
X36.001Y-9.012
X38.236Y7.349
T7
X-13.293Y-28.26
X29.482Y13.421
T0
M30
