G04 #@! TF.GenerationSoftware,KiCad,Pcbnew,5.0.2+dfsg1-1*
G04 #@! TF.CreationDate,2021-09-10T13:16:56+02:00*
G04 #@! TF.ProjectId,edgedriver,65646765-6472-4697-9665-722e6b696361,rev?*
G04 #@! TF.SameCoordinates,Original*
G04 #@! TF.FileFunction,Legend,Top*
G04 #@! TF.FilePolarity,Positive*
%FSLAX46Y46*%
G04 Gerber Fmt 4.6, Leading zero omitted, Abs format (unit mm)*
G04 Created by KiCad (PCBNEW 5.0.2+dfsg1-1) date Fri 10 Sep 2021 01:16:56 PM CEST*
%MOMM*%
%LPD*%
G01*
G04 APERTURE LIST*
%ADD10C,0.150000*%
%ADD11C,0.200000*%
%ADD12C,0.120000*%
G04 APERTURE END LIST*
D10*
G04 #@! TO.C,J1*
X8485281Y2828427D02*
X7778175Y2121320D01*
X2828427Y8485281D02*
X8485281Y2828427D01*
X-6363961Y-707107D02*
X2828427Y8485281D01*
X-6363961Y-4949747D02*
X-6363961Y-707107D01*
X-4949747Y-6363961D02*
X-6363961Y-4949747D01*
X-707107Y-6363961D02*
X-4949747Y-6363961D01*
X7778175Y2121320D02*
X-707107Y-6363961D01*
G04 #@! TO.C,U3*
X-17132000Y-27055000D02*
X-17132000Y-22605000D01*
X-24032000Y-28580000D02*
X-24032000Y-22605000D01*
D11*
G04 #@! TO.C,U1*
X1263063Y-4249931D02*
G75*
G03X1263063Y-4249931I-100000J0D01*
G01*
D10*
G04 #@! TO.C,U2*
X-8105095Y14761608D02*
X-10036946Y15279246D01*
X-8812201Y15986353D02*
X-9329840Y14054501D01*
X-10882754Y8258946D02*
X-11400392Y6327095D01*
X-18610160Y10329499D02*
X-19127799Y8397647D01*
X-16539608Y18056905D02*
X-17057246Y16125054D01*
X-15832501Y16832160D02*
X-17764353Y17349799D01*
X-10106297Y11156724D02*
X-17833703Y13227276D01*
X-17833703Y13227276D02*
X-17126597Y12002531D01*
X-17833703Y13227276D02*
X-16608958Y13934383D01*
D12*
G04 #@! TO.C,J2*
X12510000Y10940000D02*
X12510000Y10490000D01*
X12510000Y10490000D02*
X11560000Y10490000D01*
X11560000Y10490000D02*
X11560000Y9000000D01*
X4290000Y10940000D02*
X4290000Y10490000D01*
X4290000Y10490000D02*
X5240000Y10490000D01*
X12510000Y14460000D02*
X12510000Y14910000D01*
X12510000Y14910000D02*
X4290000Y14910000D01*
X4290000Y14910000D02*
X4290000Y14460000D01*
G04 #@! TO.C,C1*
X23817074Y20276833D02*
X22653976Y19965182D01*
X23346024Y22034818D02*
X22182926Y21723167D01*
G04 #@! TO.C,C9*
X-7269191Y2517744D02*
X-6417744Y3369191D01*
X-5982256Y1230809D02*
X-5130809Y2082256D01*
G04 #@! TO.C,C10*
X-26497936Y19710000D02*
X-27702064Y19710000D01*
X-26497936Y17890000D02*
X-27702064Y17890000D01*
G04 #@! TO.C,U3*
D10*
X-16547619Y-25591904D02*
X-15738095Y-25591904D01*
X-15642857Y-25544285D01*
X-15595238Y-25496666D01*
X-15547619Y-25401428D01*
X-15547619Y-25210952D01*
X-15595238Y-25115714D01*
X-15642857Y-25068095D01*
X-15738095Y-25020476D01*
X-16547619Y-25020476D01*
X-16547619Y-24639523D02*
X-16547619Y-24020476D01*
X-16166666Y-24353809D01*
X-16166666Y-24210952D01*
X-16119047Y-24115714D01*
X-16071428Y-24068095D01*
X-15976190Y-24020476D01*
X-15738095Y-24020476D01*
X-15642857Y-24068095D01*
X-15595238Y-24115714D01*
X-15547619Y-24210952D01*
X-15547619Y-24496666D01*
X-15595238Y-24591904D01*
X-15642857Y-24639523D01*
G04 #@! TO.C,U2*
X-22326154Y13205790D02*
X-21544214Y12996270D01*
X-21439897Y13017617D01*
X-21381576Y13051289D01*
X-21310930Y13130957D01*
X-21261631Y13314943D01*
X-21282978Y13419261D01*
X-21316650Y13477582D01*
X-21396318Y13548228D01*
X-22178258Y13757748D01*
X-21975342Y14147067D02*
X-22009014Y14205388D01*
X-22030361Y14309705D01*
X-21968738Y14539688D01*
X-21898092Y14619356D01*
X-21839770Y14653028D01*
X-21735453Y14674375D01*
X-21643460Y14649725D01*
X-21517795Y14566755D01*
X-21113734Y13866901D01*
X-20953513Y14464855D01*
G04 #@! TO.C,J2*
X8066666Y8347619D02*
X8066666Y7633333D01*
X8019047Y7490476D01*
X7923809Y7395238D01*
X7780952Y7347619D01*
X7685714Y7347619D01*
X8495238Y8252380D02*
X8542857Y8300000D01*
X8638095Y8347619D01*
X8876190Y8347619D01*
X8971428Y8300000D01*
X9019047Y8252380D01*
X9066666Y8157142D01*
X9066666Y8061904D01*
X9019047Y7919047D01*
X8447619Y7347619D01*
X9066666Y7347619D01*
G04 #@! TO.C,C1*
X23402498Y18853904D02*
X23368826Y18795583D01*
X23243162Y18712613D01*
X23151169Y18687963D01*
X23000855Y18696986D01*
X22884212Y18764329D01*
X22813566Y18843997D01*
X22718271Y19015658D01*
X22681297Y19153648D01*
X22677995Y19349958D01*
X22699342Y19454276D01*
X22766685Y19570918D01*
X22892350Y19653889D01*
X22984343Y19678539D01*
X23134657Y19669516D01*
X23192978Y19635844D01*
X24347077Y19008406D02*
X23795119Y18860509D01*
X24071098Y18934458D02*
X23812279Y19900383D01*
X23757260Y19737745D01*
X23689917Y19621102D01*
X23610249Y19550456D01*
G04 #@! TO.C,C9*
X-7352246Y3216544D02*
X-7352246Y3149201D01*
X-7419590Y3014514D01*
X-7486934Y2947170D01*
X-7621621Y2879827D01*
X-7756308Y2879827D01*
X-7857323Y2913498D01*
X-8025682Y3014514D01*
X-8126697Y3115529D01*
X-8227712Y3283888D01*
X-8261384Y3384903D01*
X-8261384Y3519590D01*
X-8194040Y3654277D01*
X-8126697Y3721621D01*
X-7992010Y3788964D01*
X-7924666Y3788964D01*
X-6948185Y3485918D02*
X-6813498Y3620605D01*
X-6779827Y3721621D01*
X-6779827Y3788964D01*
X-6813498Y3957323D01*
X-6914514Y4125682D01*
X-7183888Y4395056D01*
X-7284903Y4428727D01*
X-7352246Y4428727D01*
X-7453262Y4395056D01*
X-7587949Y4260369D01*
X-7621621Y4159353D01*
X-7621621Y4092010D01*
X-7587949Y3990995D01*
X-7419590Y3822636D01*
X-7318575Y3788964D01*
X-7251231Y3788964D01*
X-7150216Y3822636D01*
X-7015529Y3957323D01*
X-6981857Y4058338D01*
X-6981857Y4125682D01*
X-7015529Y4226697D01*
G04 #@! TO.C,C10*
X-27742857Y16622857D02*
X-27790476Y16575238D01*
X-27933333Y16527619D01*
X-28028571Y16527619D01*
X-28171428Y16575238D01*
X-28266666Y16670476D01*
X-28314285Y16765714D01*
X-28361904Y16956190D01*
X-28361904Y17099047D01*
X-28314285Y17289523D01*
X-28266666Y17384761D01*
X-28171428Y17480000D01*
X-28028571Y17527619D01*
X-27933333Y17527619D01*
X-27790476Y17480000D01*
X-27742857Y17432380D01*
X-26790476Y16527619D02*
X-27361904Y16527619D01*
X-27076190Y16527619D02*
X-27076190Y17527619D01*
X-27171428Y17384761D01*
X-27266666Y17289523D01*
X-27361904Y17241904D01*
X-26171428Y17527619D02*
X-26076190Y17527619D01*
X-25980952Y17480000D01*
X-25933333Y17432380D01*
X-25885714Y17337142D01*
X-25838095Y17146666D01*
X-25838095Y16908571D01*
X-25885714Y16718095D01*
X-25933333Y16622857D01*
X-25980952Y16575238D01*
X-26076190Y16527619D01*
X-26171428Y16527619D01*
X-26266666Y16575238D01*
X-26314285Y16622857D01*
X-26361904Y16718095D01*
X-26409523Y16908571D01*
X-26409523Y17146666D01*
X-26361904Y17337142D01*
X-26314285Y17432380D01*
X-26266666Y17480000D01*
X-26171428Y17527619D01*
G04 #@! TD*
M02*
