G04 #@! TF.GenerationSoftware,KiCad,Pcbnew,5.0.2+dfsg1-1*
G04 #@! TF.CreationDate,2020-07-05T13:54:42+02:00*
G04 #@! TF.ProjectId,edgedriver,65646765-6472-4697-9665-722e6b696361,rev?*
G04 #@! TF.SameCoordinates,Original*
G04 #@! TF.FileFunction,Copper,L3,Inr*
G04 #@! TF.FilePolarity,Positive*
%FSLAX46Y46*%
G04 Gerber Fmt 4.6, Leading zero omitted, Abs format (unit mm)*
G04 Created by KiCad (PCBNEW 5.0.2+dfsg1-1) date Sun Jul  5 13:54:42 2020*
%MOMM*%
%LPD*%
G01*
G04 APERTURE LIST*
G04 #@! TA.AperFunction,ViaPad*
%ADD10C,1.700000*%
G04 #@! TD*
G04 #@! TA.AperFunction,Conductor*
%ADD11C,1.700000*%
G04 #@! TD*
G04 #@! TA.AperFunction,ViaPad*
%ADD12O,1.700000X1.700000*%
G04 #@! TD*
G04 #@! TA.AperFunction,ViaPad*
%ADD13C,0.600000*%
G04 #@! TD*
G04 #@! TA.AperFunction,Conductor*
%ADD14C,0.250000*%
G04 #@! TD*
G04 #@! TA.AperFunction,Conductor*
%ADD15C,0.254000*%
G04 #@! TD*
G04 APERTURE END LIST*
D10*
G04 #@! TO.N,SWDIO*
G04 #@! TO.C,J4*
X-11800000Y800000D03*
G04 #@! TO.N,SWDCLK*
X-13596051Y2596051D03*
D11*
X-13596051Y2596051D02*
X-13596051Y2596051D01*
G04 #@! TD*
D10*
G04 #@! TO.N,Net-(J3-Pad1)*
G04 #@! TO.C,J3*
X-3810000Y2540000D03*
D12*
G04 #@! TO.N,Net-(J3-Pad2)*
X-1270000Y2540000D03*
G04 #@! TO.N,Net-(J3-Pad3)*
X1270000Y2540000D03*
G04 #@! TO.N,Net-(J3-Pad4)*
X3810000Y2540000D03*
G04 #@! TD*
D10*
G04 #@! TO.N,GND*
G04 #@! TO.C,J1*
X-8890000Y0D03*
D12*
X-6350000Y0D03*
G04 #@! TO.N,Net-(J1-Pad3)*
X-3810000Y0D03*
G04 #@! TO.N,Net-(J1-Pad4)*
X-1270000Y0D03*
G04 #@! TO.N,Net-(J1-Pad5)*
X1270000Y0D03*
G04 #@! TO.N,Net-(J1-Pad6)*
X3810000Y0D03*
G04 #@! TO.N,+5V*
X6350000Y0D03*
X8890000Y0D03*
G04 #@! TD*
D13*
G04 #@! TO.N,GND*
X-2600000Y9700000D03*
X15200000Y13100000D03*
X15200000Y3400000D03*
X-4000000Y26000000D03*
X-5500000Y26000000D03*
X-7000000Y26000000D03*
X-7000000Y27500000D03*
X-5500000Y27500000D03*
X-4000000Y27500000D03*
X-7000000Y29000000D03*
X-8500000Y27500000D03*
X-8500000Y26000000D03*
X-8500000Y29000000D03*
X-8300000Y24200000D03*
X-6800000Y16700000D03*
X-6900000Y8600000D03*
X900000Y19700000D03*
X-700000Y19000000D03*
X10600000Y24500000D03*
X8000000Y16900000D03*
X10774990Y16000000D03*
G04 #@! TO.N,Net-(C1-Pad1)*
X10400000Y7800000D03*
X11000000Y10500000D03*
G04 #@! TO.N,+5V*
X8500000Y27500000D03*
X7000000Y27500000D03*
X8500000Y26000000D03*
X7000000Y29000000D03*
X7000000Y26000000D03*
X8500000Y29000000D03*
X-5975000Y17300000D03*
X4000000Y26000000D03*
X5500000Y27500000D03*
X5500000Y26000000D03*
X4000000Y27500000D03*
G04 #@! TO.N,3V3*
X-6900000Y20800000D03*
G04 #@! TO.N,ESPEN*
X700000Y18300000D03*
G04 #@! TO.N,Net-(J3-Pad1)*
X-1800000Y9900000D03*
G04 #@! TO.N,Net-(J3-Pad2)*
X-700000Y9900000D03*
G04 #@! TO.N,Net-(J3-Pad3)*
X-500000Y8900000D03*
G04 #@! TO.N,ESPRST*
X8300000Y7200000D03*
G04 #@! TO.N,ESPRX*
X6700000Y12500000D03*
G04 #@! TO.N,ESPTX*
X6100000Y14400000D03*
G04 #@! TO.N,STMTX*
X-4000000Y10500000D03*
X-3760000Y17800000D03*
X-1860000Y19280000D03*
G04 #@! TO.N,STMRX*
X-4500000Y9300000D03*
G04 #@! TO.N,SWDIO*
X-5200000Y9800000D03*
G04 #@! TO.N,SWDCLK*
X-5900000Y10400000D03*
G04 #@! TO.N,Net-(J2-Pad2)*
X11100000Y9100000D03*
X11100000Y7400000D03*
G04 #@! TD*
D14*
G04 #@! TO.N,Net-(J3-Pad1)*
X-1800000Y3900000D02*
X-1800000Y9900000D01*
X-3160000Y2540000D02*
X-1800000Y3900000D01*
G04 #@! TO.N,Net-(J3-Pad2)*
X-1270000Y2540000D02*
X-1270000Y9330000D01*
X-1270000Y9330000D02*
X-700000Y9900000D01*
G04 #@! TO.N,Net-(J3-Pad3)*
X-700000Y8700000D02*
X-500000Y8900000D01*
X-700000Y4000000D02*
X-700000Y8700000D01*
X760000Y2540000D02*
X-700000Y4000000D01*
G04 #@! TO.N,STMTX*
X-2280000Y19280000D02*
X-3760000Y17800000D01*
X-1860000Y19280000D02*
X-2280000Y19280000D01*
G04 #@! TO.N,SWDIO*
X-5200000Y5700000D02*
X-5200000Y9800000D01*
X-8800000Y2100000D02*
X-5200000Y5700000D01*
X-10500000Y2100000D02*
X-8800000Y2100000D01*
X-11800000Y800000D02*
X-10500000Y2100000D01*
G04 #@! TO.N,SWDCLK*
X-5900000Y5700000D02*
X-5900000Y10400000D01*
X-9003949Y2596051D02*
X-5900000Y5700000D01*
X-13596051Y2596051D02*
X-9003949Y2596051D01*
G04 #@! TD*
D15*
G04 #@! TO.N,+5V*
G36*
X-8522449Y31151360D02*
X-8532683Y31099910D01*
X-8492137Y30896072D01*
X-8400520Y30758957D01*
X-8376672Y30723266D01*
X-8203866Y30607801D01*
X-8000028Y30567255D01*
X-7948579Y30577489D01*
X-6172204Y30577489D01*
X-6172205Y29151484D01*
X-6182439Y29100034D01*
X-6141893Y28896196D01*
X-6026428Y28723390D01*
X-5853622Y28607925D01*
X-5649784Y28567379D01*
X-5598335Y28577613D01*
X-2772412Y28577613D01*
X-2772413Y26151148D01*
X-2782647Y26099698D01*
X-2742101Y25895860D01*
X-2721174Y25864541D01*
X-2626636Y25723054D01*
X-2453830Y25607589D01*
X-2249992Y25567043D01*
X-2198543Y25577277D01*
X2198543Y25577277D01*
X2249992Y25567043D01*
X2453830Y25607589D01*
X2626636Y25723054D01*
X2742101Y25895860D01*
X2772413Y26048248D01*
X2772413Y26048249D01*
X2782647Y26099698D01*
X2772413Y26151148D01*
X2772413Y28577613D01*
X5597818Y28577613D01*
X5649267Y28567379D01*
X5853105Y28607925D01*
X6025911Y28723390D01*
X6141376Y28896196D01*
X6171688Y29048584D01*
X6171688Y29048585D01*
X6181922Y29100034D01*
X6171688Y29151484D01*
X6171688Y30577489D01*
X7948063Y30577489D01*
X7999512Y30567255D01*
X8203350Y30607801D01*
X8376156Y30723266D01*
X8491621Y30896072D01*
X8521933Y31048460D01*
X8521933Y31048461D01*
X8532167Y31099910D01*
X8521933Y31151360D01*
X8521933Y35199509D01*
X8997000Y35199509D01*
X8997000Y34800491D01*
X9149698Y34431846D01*
X9431846Y34149698D01*
X9800491Y33997000D01*
X10199509Y33997000D01*
X10568154Y34149698D01*
X10850302Y34431846D01*
X11003000Y34800491D01*
X11003000Y35199509D01*
X10850302Y35568154D01*
X10568154Y35850302D01*
X10199509Y36003000D01*
X9800491Y36003000D01*
X9431846Y35850302D01*
X9149698Y35568154D01*
X8997000Y35199509D01*
X8521933Y35199509D01*
X8521933Y36577919D01*
X10587627Y36577919D01*
X10627234Y36577390D01*
X10663717Y36575999D01*
X10700169Y36573709D01*
X10736386Y36570536D01*
X10772506Y36566473D01*
X10808437Y36561536D01*
X10844183Y36555728D01*
X10879701Y36549062D01*
X10915051Y36541527D01*
X10950131Y36533149D01*
X10985010Y36523915D01*
X11019582Y36513853D01*
X11053911Y36502949D01*
X11087968Y36491209D01*
X11121694Y36478659D01*
X11155071Y36465304D01*
X11188178Y36451114D01*
X11220880Y36436145D01*
X11253248Y36420365D01*
X11285195Y36403815D01*
X11316780Y36386464D01*
X11347966Y36368328D01*
X11378680Y36349448D01*
X11408972Y36329791D01*
X11438807Y36309376D01*
X11468178Y36288205D01*
X11497056Y36266291D01*
X11525425Y36243643D01*
X11553297Y36220247D01*
X11580622Y36196136D01*
X11600632Y36177581D01*
X11628242Y36136729D01*
X11673698Y36106703D01*
X11675142Y36105296D01*
X11676655Y36104313D01*
X15502273Y32278696D01*
X15530394Y32234652D01*
X15574491Y32203840D01*
X15595567Y32181112D01*
X15619696Y32153767D01*
X15643079Y32125912D01*
X15665746Y32097520D01*
X15687666Y32068635D01*
X15708832Y32039274D01*
X15729252Y32009433D01*
X15748926Y31979118D01*
X15767796Y31948424D01*
X15785932Y31917242D01*
X15803287Y31885654D01*
X15819845Y31853696D01*
X15835625Y31821335D01*
X15850598Y31788629D01*
X15864779Y31755550D01*
X15878148Y31722141D01*
X15890703Y31688409D01*
X15902421Y31654416D01*
X15913334Y31620063D01*
X15923398Y31585485D01*
X15932626Y31550635D01*
X15941001Y31515563D01*
X15948537Y31480202D01*
X15955201Y31444691D01*
X15961005Y31408956D01*
X15965940Y31373020D01*
X15969992Y31336962D01*
X15973164Y31300705D01*
X15975446Y31264298D01*
X15976832Y31227792D01*
X15977355Y31188115D01*
X15977354Y4641823D01*
X15976831Y4602136D01*
X15975448Y4565667D01*
X15973166Y4529276D01*
X15969992Y4493004D01*
X15965940Y4456946D01*
X15961005Y4420998D01*
X15955203Y4385283D01*
X15948536Y4349756D01*
X15941007Y4314423D01*
X15932623Y4279317D01*
X15923398Y4244479D01*
X15913334Y4209901D01*
X15902421Y4175548D01*
X15890703Y4141555D01*
X15878143Y4107809D01*
X15864775Y4074402D01*
X15850615Y4041371D01*
X15835620Y4008618D01*
X15819848Y3976272D01*
X15803291Y3944316D01*
X15785924Y3912707D01*
X15767800Y3881545D01*
X15748910Y3850819D01*
X15734486Y3828594D01*
X15585756Y3977324D01*
X15335459Y4081000D01*
X15064541Y4081000D01*
X14814244Y3977324D01*
X14622676Y3785756D01*
X14519000Y3535459D01*
X14519000Y3264541D01*
X14622676Y3014244D01*
X14793936Y2842984D01*
X11676775Y-274179D01*
X11631268Y-303721D01*
X11602030Y-346247D01*
X11580625Y-366096D01*
X11553297Y-390209D01*
X11525425Y-413605D01*
X11497059Y-436251D01*
X11468164Y-458177D01*
X11438817Y-479332D01*
X11408972Y-499753D01*
X11378675Y-519413D01*
X11347968Y-538288D01*
X11316761Y-556436D01*
X11285214Y-573767D01*
X11253256Y-590322D01*
X11220881Y-606106D01*
X11188156Y-621085D01*
X11155076Y-635264D01*
X11121697Y-648619D01*
X11087937Y-661182D01*
X11053930Y-672904D01*
X11019582Y-683814D01*
X10985015Y-693874D01*
X10950148Y-703106D01*
X10915036Y-711491D01*
X10879701Y-719023D01*
X10844183Y-725689D01*
X10808425Y-731499D01*
X10772496Y-736436D01*
X10736398Y-740496D01*
X10700149Y-743671D01*
X10663755Y-745959D01*
X10627215Y-747351D01*
X10587610Y-747881D01*
X4790792Y-747881D01*
X4969576Y-480312D01*
X5065116Y0D01*
X4969576Y480312D01*
X4697501Y887501D01*
X4290312Y1159576D01*
X3931239Y1231000D01*
X3688761Y1231000D01*
X3329688Y1159576D01*
X2922499Y887501D01*
X2650424Y480312D01*
X2554884Y0D01*
X2650424Y-480312D01*
X2829208Y-747881D01*
X2250792Y-747881D01*
X2429576Y-480312D01*
X2525116Y0D01*
X2429576Y480312D01*
X2157501Y887501D01*
X1750312Y1159576D01*
X1391239Y1231000D01*
X1148761Y1231000D01*
X789688Y1159576D01*
X382499Y887501D01*
X110424Y480312D01*
X14884Y0D01*
X110424Y-480312D01*
X289208Y-747881D01*
X-289208Y-747881D01*
X-110424Y-480312D01*
X-14884Y0D01*
X-110424Y480312D01*
X-382499Y887501D01*
X-789688Y1159576D01*
X-1148761Y1231000D01*
X-1391239Y1231000D01*
X-1750312Y1159576D01*
X-2157501Y887501D01*
X-2429576Y480312D01*
X-2525116Y0D01*
X-2429576Y-480312D01*
X-2250792Y-747881D01*
X-2829208Y-747881D01*
X-2650424Y-480312D01*
X-2554884Y0D01*
X-2650424Y480312D01*
X-2922499Y887501D01*
X-3329688Y1159576D01*
X-3688761Y1231000D01*
X-3931239Y1231000D01*
X-4290312Y1159576D01*
X-4697501Y887501D01*
X-4969576Y480312D01*
X-5065116Y0D01*
X-4969576Y-480312D01*
X-4790792Y-747881D01*
X-5369208Y-747881D01*
X-5190424Y-480312D01*
X-5094884Y0D01*
X-5190424Y480312D01*
X-5462499Y887501D01*
X-5869688Y1159576D01*
X-6228761Y1231000D01*
X-6471239Y1231000D01*
X-6830312Y1159576D01*
X-7237501Y887501D01*
X-7509576Y480312D01*
X-7605116Y0D01*
X-7509576Y-480312D01*
X-7330792Y-747881D01*
X-7896983Y-747881D01*
X-7846408Y-697306D01*
X-7659000Y-244861D01*
X-7659000Y244861D01*
X-7846408Y697306D01*
X-8192694Y1043592D01*
X-8645139Y1231000D01*
X-9134861Y1231000D01*
X-9587306Y1043592D01*
X-9933592Y697306D01*
X-10121000Y244861D01*
X-10121000Y-244861D01*
X-9933592Y-697306D01*
X-9883017Y-747881D01*
X-10588201Y-747881D01*
X-10627841Y-747358D01*
X-10664325Y-745974D01*
X-10700711Y-743692D01*
X-10736989Y-740518D01*
X-10773045Y-736466D01*
X-10808986Y-731531D01*
X-10844724Y-725727D01*
X-10880245Y-719061D01*
X-10915576Y-711531D01*
X-10950667Y-703152D01*
X-10985500Y-693929D01*
X-11020092Y-683861D01*
X-11054436Y-672951D01*
X-11088467Y-661221D01*
X-11122184Y-648671D01*
X-11155578Y-635308D01*
X-11188663Y-621125D01*
X-11221365Y-606155D01*
X-11253732Y-590373D01*
X-11285688Y-573816D01*
X-11317282Y-556457D01*
X-11348451Y-538329D01*
X-11379161Y-519449D01*
X-11409477Y-499775D01*
X-11439296Y-479369D01*
X-11468668Y-458195D01*
X-11497563Y-436267D01*
X-11521574Y-417097D01*
X-11102694Y-243592D01*
X-10756408Y102694D01*
X-10569000Y555139D01*
X-10569000Y1044861D01*
X-10648241Y1236167D01*
X-10290408Y1594000D01*
X-8849834Y1594000D01*
X-8800000Y1584087D01*
X-8750166Y1594000D01*
X-8750165Y1594000D01*
X-8602569Y1623359D01*
X-8435194Y1735194D01*
X-8406961Y1777448D01*
X-7399548Y2784861D01*
X-5041000Y2784861D01*
X-5041000Y2295139D01*
X-4853592Y1842694D01*
X-4507306Y1496408D01*
X-4054861Y1309000D01*
X-3565139Y1309000D01*
X-3112694Y1496408D01*
X-2766408Y1842694D01*
X-2579000Y2295139D01*
X-2579000Y2405409D01*
X-2511726Y2472683D01*
X-2429576Y2059688D01*
X-2157501Y1652499D01*
X-1750312Y1380424D01*
X-1391239Y1309000D01*
X-1148761Y1309000D01*
X-789688Y1380424D01*
X-382499Y1652499D01*
X-110424Y2059688D01*
X-14884Y2540000D01*
X-29606Y2614015D01*
X19782Y2564626D01*
X14884Y2540000D01*
X110424Y2059688D01*
X382499Y1652499D01*
X789688Y1380424D01*
X1148761Y1309000D01*
X1391239Y1309000D01*
X1750312Y1380424D01*
X2157501Y1652499D01*
X2429576Y2059688D01*
X2525116Y2540000D01*
X2554884Y2540000D01*
X2650424Y2059688D01*
X2922499Y1652499D01*
X3329688Y1380424D01*
X3688761Y1309000D01*
X3931239Y1309000D01*
X4290312Y1380424D01*
X4697501Y1652499D01*
X4969576Y2059688D01*
X4997388Y2199509D01*
X10997000Y2199509D01*
X10997000Y1800491D01*
X11149698Y1431846D01*
X11431846Y1149698D01*
X11800491Y997000D01*
X12199509Y997000D01*
X12568154Y1149698D01*
X12850302Y1431846D01*
X13003000Y1800491D01*
X13003000Y2199509D01*
X12850302Y2568154D01*
X12568154Y2850302D01*
X12199509Y3003000D01*
X11800491Y3003000D01*
X11431846Y2850302D01*
X11149698Y2568154D01*
X10997000Y2199509D01*
X4997388Y2199509D01*
X5065116Y2540000D01*
X4969576Y3020312D01*
X4697501Y3427501D01*
X4290312Y3699576D01*
X3931239Y3771000D01*
X3688761Y3771000D01*
X3329688Y3699576D01*
X2922499Y3427501D01*
X2650424Y3020312D01*
X2554884Y2540000D01*
X2525116Y2540000D01*
X2429576Y3020312D01*
X2157501Y3427501D01*
X1750312Y3699576D01*
X1391239Y3771000D01*
X1148761Y3771000D01*
X789688Y3699576D01*
X505742Y3509849D01*
X-194000Y4209591D01*
X-194000Y7335459D01*
X7619000Y7335459D01*
X7619000Y7064541D01*
X7722676Y6814244D01*
X7914244Y6622676D01*
X8164541Y6519000D01*
X8435459Y6519000D01*
X8685756Y6622676D01*
X8877324Y6814244D01*
X8981000Y7064541D01*
X8981000Y7335459D01*
X8877324Y7585756D01*
X8685756Y7777324D01*
X8435459Y7881000D01*
X8164541Y7881000D01*
X7914244Y7777324D01*
X7722676Y7585756D01*
X7619000Y7335459D01*
X-194000Y7335459D01*
X-194000Y7935459D01*
X9719000Y7935459D01*
X9719000Y7664541D01*
X9822676Y7414244D01*
X10014244Y7222676D01*
X10264541Y7119000D01*
X10479285Y7119000D01*
X10522676Y7014244D01*
X10714244Y6822676D01*
X10964541Y6719000D01*
X11235459Y6719000D01*
X11485756Y6822676D01*
X11677324Y7014244D01*
X11781000Y7264541D01*
X11781000Y7535459D01*
X11677324Y7785756D01*
X11485756Y7977324D01*
X11235459Y8081000D01*
X11020715Y8081000D01*
X10977324Y8185756D01*
X10785756Y8377324D01*
X10535459Y8481000D01*
X10264541Y8481000D01*
X10014244Y8377324D01*
X9822676Y8185756D01*
X9719000Y7935459D01*
X-194000Y7935459D01*
X-194000Y8289640D01*
X-114244Y8322676D01*
X77324Y8514244D01*
X181000Y8764541D01*
X181000Y9035459D01*
X98158Y9235459D01*
X10419000Y9235459D01*
X10419000Y8964541D01*
X10522676Y8714244D01*
X10714244Y8522676D01*
X10964541Y8419000D01*
X11235459Y8419000D01*
X11485756Y8522676D01*
X11677324Y8714244D01*
X11781000Y8964541D01*
X11781000Y9235459D01*
X11677324Y9485756D01*
X11485756Y9677324D01*
X11235459Y9781000D01*
X10964541Y9781000D01*
X10714244Y9677324D01*
X10522676Y9485756D01*
X10419000Y9235459D01*
X98158Y9235459D01*
X77324Y9285756D01*
X-114244Y9477324D01*
X-146313Y9490607D01*
X-122676Y9514244D01*
X-19000Y9764541D01*
X-19000Y10035459D01*
X-122676Y10285756D01*
X-314244Y10477324D01*
X-564541Y10581000D01*
X-835459Y10581000D01*
X-1085756Y10477324D01*
X-1250000Y10313080D01*
X-1414244Y10477324D01*
X-1664541Y10581000D01*
X-1935459Y10581000D01*
X-2185756Y10477324D01*
X-2335521Y10327559D01*
X-2464541Y10381000D01*
X-2735459Y10381000D01*
X-2985756Y10277324D01*
X-3177324Y10085756D01*
X-3281000Y9835459D01*
X-3281000Y9564541D01*
X-3177324Y9314244D01*
X-2985756Y9122676D01*
X-2735459Y9019000D01*
X-2464541Y9019000D01*
X-2305999Y9084670D01*
X-2306000Y4109592D01*
X-2972347Y3443245D01*
X-3112694Y3583592D01*
X-3565139Y3771000D01*
X-4054861Y3771000D01*
X-4507306Y3583592D01*
X-4853592Y3237306D01*
X-5041000Y2784861D01*
X-7399548Y2784861D01*
X-4877444Y5306964D01*
X-4835194Y5335194D01*
X-4759967Y5447781D01*
X-4723359Y5502568D01*
X-4684087Y5700000D01*
X-4694000Y5749835D01*
X-4694000Y8643248D01*
X-4635459Y8619000D01*
X-4364541Y8619000D01*
X-4114244Y8722676D01*
X-3922676Y8914244D01*
X-3819000Y9164541D01*
X-3819000Y9435459D01*
X-3922676Y9685756D01*
X-4055920Y9819000D01*
X-3864541Y9819000D01*
X-3614244Y9922676D01*
X-3422676Y10114244D01*
X-3319000Y10364541D01*
X-3319000Y10635459D01*
X10319000Y10635459D01*
X10319000Y10364541D01*
X10422676Y10114244D01*
X10614244Y9922676D01*
X10864541Y9819000D01*
X11135459Y9819000D01*
X11385756Y9922676D01*
X11577324Y10114244D01*
X11681000Y10364541D01*
X11681000Y10635459D01*
X11577324Y10885756D01*
X11385756Y11077324D01*
X11135459Y11181000D01*
X10864541Y11181000D01*
X10614244Y11077324D01*
X10422676Y10885756D01*
X10319000Y10635459D01*
X-3319000Y10635459D01*
X-3422676Y10885756D01*
X-3614244Y11077324D01*
X-3864541Y11181000D01*
X-4135459Y11181000D01*
X-4385756Y11077324D01*
X-4577324Y10885756D01*
X-4681000Y10635459D01*
X-4681000Y10364541D01*
X-4577324Y10114244D01*
X-4444080Y9981000D01*
X-4537864Y9981000D01*
X-4622676Y10185756D01*
X-4814244Y10377324D01*
X-5064541Y10481000D01*
X-5219000Y10481000D01*
X-5219000Y10535459D01*
X-5322676Y10785756D01*
X-5514244Y10977324D01*
X-5764541Y11081000D01*
X-6035459Y11081000D01*
X-6285756Y10977324D01*
X-6477324Y10785756D01*
X-6581000Y10535459D01*
X-6581000Y10264541D01*
X-6477324Y10014244D01*
X-6405999Y9942919D01*
X-6405999Y9069079D01*
X-6514244Y9177324D01*
X-6764541Y9281000D01*
X-7035459Y9281000D01*
X-7285756Y9177324D01*
X-7477324Y8985756D01*
X-7581000Y8735459D01*
X-7581000Y8464541D01*
X-7477324Y8214244D01*
X-7285756Y8022676D01*
X-7035459Y7919000D01*
X-6764541Y7919000D01*
X-6514244Y8022676D01*
X-6405999Y8130921D01*
X-6406000Y5909592D01*
X-8873000Y3442591D01*
X-8873000Y12635459D01*
X6019000Y12635459D01*
X6019000Y12364541D01*
X6122676Y12114244D01*
X6314244Y11922676D01*
X6564541Y11819000D01*
X6835459Y11819000D01*
X7085756Y11922676D01*
X7277324Y12114244D01*
X7381000Y12364541D01*
X7381000Y12635459D01*
X7277324Y12885756D01*
X7085756Y13077324D01*
X6835459Y13181000D01*
X6564541Y13181000D01*
X6314244Y13077324D01*
X6122676Y12885756D01*
X6019000Y12635459D01*
X-8873000Y12635459D01*
X-8873000Y13235459D01*
X14519000Y13235459D01*
X14519000Y12964541D01*
X14622676Y12714244D01*
X14814244Y12522676D01*
X15064541Y12419000D01*
X15335459Y12419000D01*
X15585756Y12522676D01*
X15777324Y12714244D01*
X15881000Y12964541D01*
X15881000Y13235459D01*
X15777324Y13485756D01*
X15585756Y13677324D01*
X15335459Y13781000D01*
X15064541Y13781000D01*
X14814244Y13677324D01*
X14622676Y13485756D01*
X14519000Y13235459D01*
X-8873000Y13235459D01*
X-8873000Y14535459D01*
X5419000Y14535459D01*
X5419000Y14264541D01*
X5522676Y14014244D01*
X5714244Y13822676D01*
X5964541Y13719000D01*
X6235459Y13719000D01*
X6485756Y13822676D01*
X6677324Y14014244D01*
X6781000Y14264541D01*
X6781000Y14535459D01*
X6677324Y14785756D01*
X6485756Y14977324D01*
X6235459Y15081000D01*
X5964541Y15081000D01*
X5714244Y14977324D01*
X5522676Y14785756D01*
X5419000Y14535459D01*
X-8873000Y14535459D01*
X-8873000Y16835459D01*
X-7481000Y16835459D01*
X-7481000Y16564541D01*
X-7377324Y16314244D01*
X-7185756Y16122676D01*
X-6935459Y16019000D01*
X-6664541Y16019000D01*
X-6414244Y16122676D01*
X-6401461Y16135459D01*
X10093990Y16135459D01*
X10093990Y15864541D01*
X10197666Y15614244D01*
X10389234Y15422676D01*
X10639531Y15319000D01*
X10910449Y15319000D01*
X11160746Y15422676D01*
X11352314Y15614244D01*
X11455990Y15864541D01*
X11455990Y16135459D01*
X11352314Y16385756D01*
X11160746Y16577324D01*
X10910449Y16681000D01*
X10639531Y16681000D01*
X10389234Y16577324D01*
X10197666Y16385756D01*
X10093990Y16135459D01*
X-6401461Y16135459D01*
X-6222676Y16314244D01*
X-6119000Y16564541D01*
X-6119000Y16835459D01*
X-6201842Y17035459D01*
X7319000Y17035459D01*
X7319000Y16764541D01*
X7422676Y16514244D01*
X7614244Y16322676D01*
X7864541Y16219000D01*
X8135459Y16219000D01*
X8385756Y16322676D01*
X8577324Y16514244D01*
X8681000Y16764541D01*
X8681000Y17035459D01*
X8577324Y17285756D01*
X8385756Y17477324D01*
X8135459Y17581000D01*
X7864541Y17581000D01*
X7614244Y17477324D01*
X7422676Y17285756D01*
X7319000Y17035459D01*
X-6201842Y17035459D01*
X-6222676Y17085756D01*
X-6414244Y17277324D01*
X-6664541Y17381000D01*
X-6935459Y17381000D01*
X-7185756Y17277324D01*
X-7377324Y17085756D01*
X-7481000Y16835459D01*
X-8873000Y16835459D01*
X-8873000Y17935459D01*
X-4441000Y17935459D01*
X-4441000Y17664541D01*
X-4337324Y17414244D01*
X-4145756Y17222676D01*
X-3895459Y17119000D01*
X-3624541Y17119000D01*
X-3374244Y17222676D01*
X-3182676Y17414244D01*
X-3079000Y17664541D01*
X-3079000Y17765409D01*
X-2172200Y18672208D01*
X-1995459Y18599000D01*
X-1724541Y18599000D01*
X-1474244Y18702676D01*
X-1360901Y18816019D01*
X-1277324Y18614244D01*
X-1085756Y18422676D01*
X-835459Y18319000D01*
X-564541Y18319000D01*
X-314244Y18422676D01*
X-301461Y18435459D01*
X19000Y18435459D01*
X19000Y18164541D01*
X122676Y17914244D01*
X314244Y17722676D01*
X564541Y17619000D01*
X835459Y17619000D01*
X1085756Y17722676D01*
X1277324Y17914244D01*
X1381000Y18164541D01*
X1381000Y18435459D01*
X1277324Y18685756D01*
X1085756Y18877324D01*
X835459Y18981000D01*
X564541Y18981000D01*
X314244Y18877324D01*
X122676Y18685756D01*
X19000Y18435459D01*
X-301461Y18435459D01*
X-122676Y18614244D01*
X-19000Y18864541D01*
X-19000Y19135459D01*
X-122676Y19385756D01*
X-314244Y19577324D01*
X-564541Y19681000D01*
X-835459Y19681000D01*
X-1085756Y19577324D01*
X-1199099Y19463981D01*
X-1282676Y19665756D01*
X-1452379Y19835459D01*
X219000Y19835459D01*
X219000Y19564541D01*
X322676Y19314244D01*
X514244Y19122676D01*
X764541Y19019000D01*
X1035459Y19019000D01*
X1285756Y19122676D01*
X1477324Y19314244D01*
X1581000Y19564541D01*
X1581000Y19835459D01*
X1477324Y20085756D01*
X1285756Y20277324D01*
X1035459Y20381000D01*
X764541Y20381000D01*
X514244Y20277324D01*
X322676Y20085756D01*
X219000Y19835459D01*
X-1452379Y19835459D01*
X-1474244Y19857324D01*
X-1724541Y19961000D01*
X-1995459Y19961000D01*
X-2245756Y19857324D01*
X-2313913Y19789167D01*
X-2329835Y19786000D01*
X-2477431Y19756641D01*
X-2644806Y19644806D01*
X-2673037Y19602555D01*
X-3794591Y18481000D01*
X-3895459Y18481000D01*
X-4145756Y18377324D01*
X-4337324Y18185756D01*
X-4441000Y17935459D01*
X-8873000Y17935459D01*
X-8873000Y20935459D01*
X-7581000Y20935459D01*
X-7581000Y20664541D01*
X-7477324Y20414244D01*
X-7285756Y20222676D01*
X-7035459Y20119000D01*
X-6764541Y20119000D01*
X-6514244Y20222676D01*
X-6322676Y20414244D01*
X-6219000Y20664541D01*
X-6219000Y20935459D01*
X-6322676Y21185756D01*
X-6514244Y21377324D01*
X-6764541Y21481000D01*
X-7035459Y21481000D01*
X-7285756Y21377324D01*
X-7477324Y21185756D01*
X-7581000Y20935459D01*
X-8873000Y20935459D01*
X-8873000Y23809920D01*
X-8685756Y23622676D01*
X-8435459Y23519000D01*
X-8164541Y23519000D01*
X-7914244Y23622676D01*
X-7722676Y23814244D01*
X-7619000Y24064541D01*
X-7619000Y24335459D01*
X-7722676Y24585756D01*
X-7772379Y24635459D01*
X9919000Y24635459D01*
X9919000Y24364541D01*
X10022676Y24114244D01*
X10214244Y23922676D01*
X10464541Y23819000D01*
X10735459Y23819000D01*
X10985756Y23922676D01*
X11177324Y24114244D01*
X11281000Y24364541D01*
X11281000Y24635459D01*
X11177324Y24885756D01*
X10985756Y25077324D01*
X10735459Y25181000D01*
X10464541Y25181000D01*
X10214244Y25077324D01*
X10022676Y24885756D01*
X9919000Y24635459D01*
X-7772379Y24635459D01*
X-7914244Y24777324D01*
X-8164541Y24881000D01*
X-8435459Y24881000D01*
X-8685756Y24777324D01*
X-8877324Y24585756D01*
X-8888869Y24557883D01*
X-8910197Y24589803D01*
X-8951399Y24617333D01*
X-9000000Y24627000D01*
X-15977871Y24627000D01*
X-15977871Y26135459D01*
X-9181000Y26135459D01*
X-9181000Y25864541D01*
X-9077324Y25614244D01*
X-8885756Y25422676D01*
X-8635459Y25319000D01*
X-8364541Y25319000D01*
X-8114244Y25422676D01*
X-7922676Y25614244D01*
X-7819000Y25864541D01*
X-7819000Y26135459D01*
X-7681000Y26135459D01*
X-7681000Y25864541D01*
X-7577324Y25614244D01*
X-7385756Y25422676D01*
X-7135459Y25319000D01*
X-6864541Y25319000D01*
X-6614244Y25422676D01*
X-6422676Y25614244D01*
X-6319000Y25864541D01*
X-6319000Y26135459D01*
X-6181000Y26135459D01*
X-6181000Y25864541D01*
X-6077324Y25614244D01*
X-5885756Y25422676D01*
X-5635459Y25319000D01*
X-5364541Y25319000D01*
X-5114244Y25422676D01*
X-4922676Y25614244D01*
X-4819000Y25864541D01*
X-4819000Y26135459D01*
X-4681000Y26135459D01*
X-4681000Y25864541D01*
X-4577324Y25614244D01*
X-4385756Y25422676D01*
X-4135459Y25319000D01*
X-3864541Y25319000D01*
X-3614244Y25422676D01*
X-3422676Y25614244D01*
X-3319000Y25864541D01*
X-3319000Y26135459D01*
X-3422676Y26385756D01*
X-3614244Y26577324D01*
X-3864541Y26681000D01*
X-4135459Y26681000D01*
X-4385756Y26577324D01*
X-4577324Y26385756D01*
X-4681000Y26135459D01*
X-4819000Y26135459D01*
X-4922676Y26385756D01*
X-5114244Y26577324D01*
X-5364541Y26681000D01*
X-5635459Y26681000D01*
X-5885756Y26577324D01*
X-6077324Y26385756D01*
X-6181000Y26135459D01*
X-6319000Y26135459D01*
X-6422676Y26385756D01*
X-6614244Y26577324D01*
X-6864541Y26681000D01*
X-7135459Y26681000D01*
X-7385756Y26577324D01*
X-7577324Y26385756D01*
X-7681000Y26135459D01*
X-7819000Y26135459D01*
X-7922676Y26385756D01*
X-8114244Y26577324D01*
X-8364541Y26681000D01*
X-8635459Y26681000D01*
X-8885756Y26577324D01*
X-9077324Y26385756D01*
X-9181000Y26135459D01*
X-15977871Y26135459D01*
X-15977871Y27635459D01*
X-9181000Y27635459D01*
X-9181000Y27364541D01*
X-9077324Y27114244D01*
X-8885756Y26922676D01*
X-8635459Y26819000D01*
X-8364541Y26819000D01*
X-8114244Y26922676D01*
X-7922676Y27114244D01*
X-7819000Y27364541D01*
X-7819000Y27635459D01*
X-7681000Y27635459D01*
X-7681000Y27364541D01*
X-7577324Y27114244D01*
X-7385756Y26922676D01*
X-7135459Y26819000D01*
X-6864541Y26819000D01*
X-6614244Y26922676D01*
X-6422676Y27114244D01*
X-6319000Y27364541D01*
X-6319000Y27635459D01*
X-6181000Y27635459D01*
X-6181000Y27364541D01*
X-6077324Y27114244D01*
X-5885756Y26922676D01*
X-5635459Y26819000D01*
X-5364541Y26819000D01*
X-5114244Y26922676D01*
X-4922676Y27114244D01*
X-4819000Y27364541D01*
X-4819000Y27635459D01*
X-4681000Y27635459D01*
X-4681000Y27364541D01*
X-4577324Y27114244D01*
X-4385756Y26922676D01*
X-4135459Y26819000D01*
X-3864541Y26819000D01*
X-3614244Y26922676D01*
X-3422676Y27114244D01*
X-3319000Y27364541D01*
X-3319000Y27635459D01*
X-3422676Y27885756D01*
X-3614244Y28077324D01*
X-3864541Y28181000D01*
X-4135459Y28181000D01*
X-4385756Y28077324D01*
X-4577324Y27885756D01*
X-4681000Y27635459D01*
X-4819000Y27635459D01*
X-4922676Y27885756D01*
X-5114244Y28077324D01*
X-5364541Y28181000D01*
X-5635459Y28181000D01*
X-5885756Y28077324D01*
X-6077324Y27885756D01*
X-6181000Y27635459D01*
X-6319000Y27635459D01*
X-6422676Y27885756D01*
X-6614244Y28077324D01*
X-6864541Y28181000D01*
X-7135459Y28181000D01*
X-7385756Y28077324D01*
X-7577324Y27885756D01*
X-7681000Y27635459D01*
X-7819000Y27635459D01*
X-7922676Y27885756D01*
X-8114244Y28077324D01*
X-8364541Y28181000D01*
X-8635459Y28181000D01*
X-8885756Y28077324D01*
X-9077324Y27885756D01*
X-9181000Y27635459D01*
X-15977871Y27635459D01*
X-15977871Y29135459D01*
X-9181000Y29135459D01*
X-9181000Y28864541D01*
X-9077324Y28614244D01*
X-8885756Y28422676D01*
X-8635459Y28319000D01*
X-8364541Y28319000D01*
X-8114244Y28422676D01*
X-7922676Y28614244D01*
X-7819000Y28864541D01*
X-7819000Y29135459D01*
X-7681000Y29135459D01*
X-7681000Y28864541D01*
X-7577324Y28614244D01*
X-7385756Y28422676D01*
X-7135459Y28319000D01*
X-6864541Y28319000D01*
X-6614244Y28422676D01*
X-6422676Y28614244D01*
X-6319000Y28864541D01*
X-6319000Y29135459D01*
X-6422676Y29385756D01*
X-6614244Y29577324D01*
X-6864541Y29681000D01*
X-7135459Y29681000D01*
X-7385756Y29577324D01*
X-7577324Y29385756D01*
X-7681000Y29135459D01*
X-7819000Y29135459D01*
X-7922676Y29385756D01*
X-8114244Y29577324D01*
X-8364541Y29681000D01*
X-8635459Y29681000D01*
X-8885756Y29577324D01*
X-9077324Y29385756D01*
X-9181000Y29135459D01*
X-15977871Y29135459D01*
X-15977871Y31188190D01*
X-15977349Y31227790D01*
X-15975964Y31264312D01*
X-15973683Y31300680D01*
X-15970509Y31336964D01*
X-15966457Y31373016D01*
X-15961521Y31408970D01*
X-15955721Y31444675D01*
X-15949053Y31480207D01*
X-15941517Y31515568D01*
X-15933144Y31550632D01*
X-15923915Y31585485D01*
X-15913851Y31620063D01*
X-15902943Y31654401D01*
X-15891217Y31688418D01*
X-15878660Y31722155D01*
X-15865300Y31755541D01*
X-15851119Y31788620D01*
X-15836137Y31821348D01*
X-15820366Y31853690D01*
X-15803800Y31885665D01*
X-15786449Y31917242D01*
X-15768317Y31948418D01*
X-15749427Y31979144D01*
X-15729782Y32009415D01*
X-15709336Y32039293D01*
X-15688190Y32068624D01*
X-15666251Y32097536D01*
X-15643604Y32125903D01*
X-15620213Y32153767D01*
X-15596087Y32181108D01*
X-15575009Y32203839D01*
X-15530911Y32234652D01*
X-15502790Y32278696D01*
X-12581977Y35199509D01*
X-11003000Y35199509D01*
X-11003000Y34800491D01*
X-10850302Y34431846D01*
X-10568154Y34149698D01*
X-10199509Y33997000D01*
X-9800491Y33997000D01*
X-9431846Y34149698D01*
X-9149698Y34431846D01*
X-8997000Y34800491D01*
X-8997000Y35199509D01*
X-9149698Y35568154D01*
X-9431846Y35850302D01*
X-9800491Y36003000D01*
X-10199509Y36003000D01*
X-10568154Y35850302D01*
X-10850302Y35568154D01*
X-11003000Y35199509D01*
X-12581977Y35199509D01*
X-11677174Y36104311D01*
X-11675659Y36105295D01*
X-11674212Y36106705D01*
X-11628759Y36136729D01*
X-11601149Y36177581D01*
X-11581139Y36196136D01*
X-11553814Y36220247D01*
X-11525942Y36243643D01*
X-11497570Y36266294D01*
X-11468680Y36288216D01*
X-11439344Y36309362D01*
X-11409480Y36329797D01*
X-11379192Y36349450D01*
X-11348461Y36368341D01*
X-11317318Y36386452D01*
X-11285731Y36403804D01*
X-11253743Y36420375D01*
X-11221414Y36436137D01*
X-11188671Y36451124D01*
X-11155618Y36465292D01*
X-11122217Y36478656D01*
X-11088458Y36491218D01*
X-11054438Y36502945D01*
X-11020109Y36513850D01*
X-10985515Y36523917D01*
X-10950662Y36533145D01*
X-10915548Y36541531D01*
X-10880238Y36549057D01*
X-10844682Y36555732D01*
X-10808963Y36561535D01*
X-10773010Y36566474D01*
X-10736898Y36570536D01*
X-10700685Y36573709D01*
X-10664235Y36575999D01*
X-10627750Y36577390D01*
X-10588144Y36577919D01*
X-8522448Y36577919D01*
X-8522449Y31151360D01*
X-8522449Y31151360D01*
G37*
X-8522449Y31151360D02*
X-8532683Y31099910D01*
X-8492137Y30896072D01*
X-8400520Y30758957D01*
X-8376672Y30723266D01*
X-8203866Y30607801D01*
X-8000028Y30567255D01*
X-7948579Y30577489D01*
X-6172204Y30577489D01*
X-6172205Y29151484D01*
X-6182439Y29100034D01*
X-6141893Y28896196D01*
X-6026428Y28723390D01*
X-5853622Y28607925D01*
X-5649784Y28567379D01*
X-5598335Y28577613D01*
X-2772412Y28577613D01*
X-2772413Y26151148D01*
X-2782647Y26099698D01*
X-2742101Y25895860D01*
X-2721174Y25864541D01*
X-2626636Y25723054D01*
X-2453830Y25607589D01*
X-2249992Y25567043D01*
X-2198543Y25577277D01*
X2198543Y25577277D01*
X2249992Y25567043D01*
X2453830Y25607589D01*
X2626636Y25723054D01*
X2742101Y25895860D01*
X2772413Y26048248D01*
X2772413Y26048249D01*
X2782647Y26099698D01*
X2772413Y26151148D01*
X2772413Y28577613D01*
X5597818Y28577613D01*
X5649267Y28567379D01*
X5853105Y28607925D01*
X6025911Y28723390D01*
X6141376Y28896196D01*
X6171688Y29048584D01*
X6171688Y29048585D01*
X6181922Y29100034D01*
X6171688Y29151484D01*
X6171688Y30577489D01*
X7948063Y30577489D01*
X7999512Y30567255D01*
X8203350Y30607801D01*
X8376156Y30723266D01*
X8491621Y30896072D01*
X8521933Y31048460D01*
X8521933Y31048461D01*
X8532167Y31099910D01*
X8521933Y31151360D01*
X8521933Y35199509D01*
X8997000Y35199509D01*
X8997000Y34800491D01*
X9149698Y34431846D01*
X9431846Y34149698D01*
X9800491Y33997000D01*
X10199509Y33997000D01*
X10568154Y34149698D01*
X10850302Y34431846D01*
X11003000Y34800491D01*
X11003000Y35199509D01*
X10850302Y35568154D01*
X10568154Y35850302D01*
X10199509Y36003000D01*
X9800491Y36003000D01*
X9431846Y35850302D01*
X9149698Y35568154D01*
X8997000Y35199509D01*
X8521933Y35199509D01*
X8521933Y36577919D01*
X10587627Y36577919D01*
X10627234Y36577390D01*
X10663717Y36575999D01*
X10700169Y36573709D01*
X10736386Y36570536D01*
X10772506Y36566473D01*
X10808437Y36561536D01*
X10844183Y36555728D01*
X10879701Y36549062D01*
X10915051Y36541527D01*
X10950131Y36533149D01*
X10985010Y36523915D01*
X11019582Y36513853D01*
X11053911Y36502949D01*
X11087968Y36491209D01*
X11121694Y36478659D01*
X11155071Y36465304D01*
X11188178Y36451114D01*
X11220880Y36436145D01*
X11253248Y36420365D01*
X11285195Y36403815D01*
X11316780Y36386464D01*
X11347966Y36368328D01*
X11378680Y36349448D01*
X11408972Y36329791D01*
X11438807Y36309376D01*
X11468178Y36288205D01*
X11497056Y36266291D01*
X11525425Y36243643D01*
X11553297Y36220247D01*
X11580622Y36196136D01*
X11600632Y36177581D01*
X11628242Y36136729D01*
X11673698Y36106703D01*
X11675142Y36105296D01*
X11676655Y36104313D01*
X15502273Y32278696D01*
X15530394Y32234652D01*
X15574491Y32203840D01*
X15595567Y32181112D01*
X15619696Y32153767D01*
X15643079Y32125912D01*
X15665746Y32097520D01*
X15687666Y32068635D01*
X15708832Y32039274D01*
X15729252Y32009433D01*
X15748926Y31979118D01*
X15767796Y31948424D01*
X15785932Y31917242D01*
X15803287Y31885654D01*
X15819845Y31853696D01*
X15835625Y31821335D01*
X15850598Y31788629D01*
X15864779Y31755550D01*
X15878148Y31722141D01*
X15890703Y31688409D01*
X15902421Y31654416D01*
X15913334Y31620063D01*
X15923398Y31585485D01*
X15932626Y31550635D01*
X15941001Y31515563D01*
X15948537Y31480202D01*
X15955201Y31444691D01*
X15961005Y31408956D01*
X15965940Y31373020D01*
X15969992Y31336962D01*
X15973164Y31300705D01*
X15975446Y31264298D01*
X15976832Y31227792D01*
X15977355Y31188115D01*
X15977354Y4641823D01*
X15976831Y4602136D01*
X15975448Y4565667D01*
X15973166Y4529276D01*
X15969992Y4493004D01*
X15965940Y4456946D01*
X15961005Y4420998D01*
X15955203Y4385283D01*
X15948536Y4349756D01*
X15941007Y4314423D01*
X15932623Y4279317D01*
X15923398Y4244479D01*
X15913334Y4209901D01*
X15902421Y4175548D01*
X15890703Y4141555D01*
X15878143Y4107809D01*
X15864775Y4074402D01*
X15850615Y4041371D01*
X15835620Y4008618D01*
X15819848Y3976272D01*
X15803291Y3944316D01*
X15785924Y3912707D01*
X15767800Y3881545D01*
X15748910Y3850819D01*
X15734486Y3828594D01*
X15585756Y3977324D01*
X15335459Y4081000D01*
X15064541Y4081000D01*
X14814244Y3977324D01*
X14622676Y3785756D01*
X14519000Y3535459D01*
X14519000Y3264541D01*
X14622676Y3014244D01*
X14793936Y2842984D01*
X11676775Y-274179D01*
X11631268Y-303721D01*
X11602030Y-346247D01*
X11580625Y-366096D01*
X11553297Y-390209D01*
X11525425Y-413605D01*
X11497059Y-436251D01*
X11468164Y-458177D01*
X11438817Y-479332D01*
X11408972Y-499753D01*
X11378675Y-519413D01*
X11347968Y-538288D01*
X11316761Y-556436D01*
X11285214Y-573767D01*
X11253256Y-590322D01*
X11220881Y-606106D01*
X11188156Y-621085D01*
X11155076Y-635264D01*
X11121697Y-648619D01*
X11087937Y-661182D01*
X11053930Y-672904D01*
X11019582Y-683814D01*
X10985015Y-693874D01*
X10950148Y-703106D01*
X10915036Y-711491D01*
X10879701Y-719023D01*
X10844183Y-725689D01*
X10808425Y-731499D01*
X10772496Y-736436D01*
X10736398Y-740496D01*
X10700149Y-743671D01*
X10663755Y-745959D01*
X10627215Y-747351D01*
X10587610Y-747881D01*
X4790792Y-747881D01*
X4969576Y-480312D01*
X5065116Y0D01*
X4969576Y480312D01*
X4697501Y887501D01*
X4290312Y1159576D01*
X3931239Y1231000D01*
X3688761Y1231000D01*
X3329688Y1159576D01*
X2922499Y887501D01*
X2650424Y480312D01*
X2554884Y0D01*
X2650424Y-480312D01*
X2829208Y-747881D01*
X2250792Y-747881D01*
X2429576Y-480312D01*
X2525116Y0D01*
X2429576Y480312D01*
X2157501Y887501D01*
X1750312Y1159576D01*
X1391239Y1231000D01*
X1148761Y1231000D01*
X789688Y1159576D01*
X382499Y887501D01*
X110424Y480312D01*
X14884Y0D01*
X110424Y-480312D01*
X289208Y-747881D01*
X-289208Y-747881D01*
X-110424Y-480312D01*
X-14884Y0D01*
X-110424Y480312D01*
X-382499Y887501D01*
X-789688Y1159576D01*
X-1148761Y1231000D01*
X-1391239Y1231000D01*
X-1750312Y1159576D01*
X-2157501Y887501D01*
X-2429576Y480312D01*
X-2525116Y0D01*
X-2429576Y-480312D01*
X-2250792Y-747881D01*
X-2829208Y-747881D01*
X-2650424Y-480312D01*
X-2554884Y0D01*
X-2650424Y480312D01*
X-2922499Y887501D01*
X-3329688Y1159576D01*
X-3688761Y1231000D01*
X-3931239Y1231000D01*
X-4290312Y1159576D01*
X-4697501Y887501D01*
X-4969576Y480312D01*
X-5065116Y0D01*
X-4969576Y-480312D01*
X-4790792Y-747881D01*
X-5369208Y-747881D01*
X-5190424Y-480312D01*
X-5094884Y0D01*
X-5190424Y480312D01*
X-5462499Y887501D01*
X-5869688Y1159576D01*
X-6228761Y1231000D01*
X-6471239Y1231000D01*
X-6830312Y1159576D01*
X-7237501Y887501D01*
X-7509576Y480312D01*
X-7605116Y0D01*
X-7509576Y-480312D01*
X-7330792Y-747881D01*
X-7896983Y-747881D01*
X-7846408Y-697306D01*
X-7659000Y-244861D01*
X-7659000Y244861D01*
X-7846408Y697306D01*
X-8192694Y1043592D01*
X-8645139Y1231000D01*
X-9134861Y1231000D01*
X-9587306Y1043592D01*
X-9933592Y697306D01*
X-10121000Y244861D01*
X-10121000Y-244861D01*
X-9933592Y-697306D01*
X-9883017Y-747881D01*
X-10588201Y-747881D01*
X-10627841Y-747358D01*
X-10664325Y-745974D01*
X-10700711Y-743692D01*
X-10736989Y-740518D01*
X-10773045Y-736466D01*
X-10808986Y-731531D01*
X-10844724Y-725727D01*
X-10880245Y-719061D01*
X-10915576Y-711531D01*
X-10950667Y-703152D01*
X-10985500Y-693929D01*
X-11020092Y-683861D01*
X-11054436Y-672951D01*
X-11088467Y-661221D01*
X-11122184Y-648671D01*
X-11155578Y-635308D01*
X-11188663Y-621125D01*
X-11221365Y-606155D01*
X-11253732Y-590373D01*
X-11285688Y-573816D01*
X-11317282Y-556457D01*
X-11348451Y-538329D01*
X-11379161Y-519449D01*
X-11409477Y-499775D01*
X-11439296Y-479369D01*
X-11468668Y-458195D01*
X-11497563Y-436267D01*
X-11521574Y-417097D01*
X-11102694Y-243592D01*
X-10756408Y102694D01*
X-10569000Y555139D01*
X-10569000Y1044861D01*
X-10648241Y1236167D01*
X-10290408Y1594000D01*
X-8849834Y1594000D01*
X-8800000Y1584087D01*
X-8750166Y1594000D01*
X-8750165Y1594000D01*
X-8602569Y1623359D01*
X-8435194Y1735194D01*
X-8406961Y1777448D01*
X-7399548Y2784861D01*
X-5041000Y2784861D01*
X-5041000Y2295139D01*
X-4853592Y1842694D01*
X-4507306Y1496408D01*
X-4054861Y1309000D01*
X-3565139Y1309000D01*
X-3112694Y1496408D01*
X-2766408Y1842694D01*
X-2579000Y2295139D01*
X-2579000Y2405409D01*
X-2511726Y2472683D01*
X-2429576Y2059688D01*
X-2157501Y1652499D01*
X-1750312Y1380424D01*
X-1391239Y1309000D01*
X-1148761Y1309000D01*
X-789688Y1380424D01*
X-382499Y1652499D01*
X-110424Y2059688D01*
X-14884Y2540000D01*
X-29606Y2614015D01*
X19782Y2564626D01*
X14884Y2540000D01*
X110424Y2059688D01*
X382499Y1652499D01*
X789688Y1380424D01*
X1148761Y1309000D01*
X1391239Y1309000D01*
X1750312Y1380424D01*
X2157501Y1652499D01*
X2429576Y2059688D01*
X2525116Y2540000D01*
X2554884Y2540000D01*
X2650424Y2059688D01*
X2922499Y1652499D01*
X3329688Y1380424D01*
X3688761Y1309000D01*
X3931239Y1309000D01*
X4290312Y1380424D01*
X4697501Y1652499D01*
X4969576Y2059688D01*
X4997388Y2199509D01*
X10997000Y2199509D01*
X10997000Y1800491D01*
X11149698Y1431846D01*
X11431846Y1149698D01*
X11800491Y997000D01*
X12199509Y997000D01*
X12568154Y1149698D01*
X12850302Y1431846D01*
X13003000Y1800491D01*
X13003000Y2199509D01*
X12850302Y2568154D01*
X12568154Y2850302D01*
X12199509Y3003000D01*
X11800491Y3003000D01*
X11431846Y2850302D01*
X11149698Y2568154D01*
X10997000Y2199509D01*
X4997388Y2199509D01*
X5065116Y2540000D01*
X4969576Y3020312D01*
X4697501Y3427501D01*
X4290312Y3699576D01*
X3931239Y3771000D01*
X3688761Y3771000D01*
X3329688Y3699576D01*
X2922499Y3427501D01*
X2650424Y3020312D01*
X2554884Y2540000D01*
X2525116Y2540000D01*
X2429576Y3020312D01*
X2157501Y3427501D01*
X1750312Y3699576D01*
X1391239Y3771000D01*
X1148761Y3771000D01*
X789688Y3699576D01*
X505742Y3509849D01*
X-194000Y4209591D01*
X-194000Y7335459D01*
X7619000Y7335459D01*
X7619000Y7064541D01*
X7722676Y6814244D01*
X7914244Y6622676D01*
X8164541Y6519000D01*
X8435459Y6519000D01*
X8685756Y6622676D01*
X8877324Y6814244D01*
X8981000Y7064541D01*
X8981000Y7335459D01*
X8877324Y7585756D01*
X8685756Y7777324D01*
X8435459Y7881000D01*
X8164541Y7881000D01*
X7914244Y7777324D01*
X7722676Y7585756D01*
X7619000Y7335459D01*
X-194000Y7335459D01*
X-194000Y7935459D01*
X9719000Y7935459D01*
X9719000Y7664541D01*
X9822676Y7414244D01*
X10014244Y7222676D01*
X10264541Y7119000D01*
X10479285Y7119000D01*
X10522676Y7014244D01*
X10714244Y6822676D01*
X10964541Y6719000D01*
X11235459Y6719000D01*
X11485756Y6822676D01*
X11677324Y7014244D01*
X11781000Y7264541D01*
X11781000Y7535459D01*
X11677324Y7785756D01*
X11485756Y7977324D01*
X11235459Y8081000D01*
X11020715Y8081000D01*
X10977324Y8185756D01*
X10785756Y8377324D01*
X10535459Y8481000D01*
X10264541Y8481000D01*
X10014244Y8377324D01*
X9822676Y8185756D01*
X9719000Y7935459D01*
X-194000Y7935459D01*
X-194000Y8289640D01*
X-114244Y8322676D01*
X77324Y8514244D01*
X181000Y8764541D01*
X181000Y9035459D01*
X98158Y9235459D01*
X10419000Y9235459D01*
X10419000Y8964541D01*
X10522676Y8714244D01*
X10714244Y8522676D01*
X10964541Y8419000D01*
X11235459Y8419000D01*
X11485756Y8522676D01*
X11677324Y8714244D01*
X11781000Y8964541D01*
X11781000Y9235459D01*
X11677324Y9485756D01*
X11485756Y9677324D01*
X11235459Y9781000D01*
X10964541Y9781000D01*
X10714244Y9677324D01*
X10522676Y9485756D01*
X10419000Y9235459D01*
X98158Y9235459D01*
X77324Y9285756D01*
X-114244Y9477324D01*
X-146313Y9490607D01*
X-122676Y9514244D01*
X-19000Y9764541D01*
X-19000Y10035459D01*
X-122676Y10285756D01*
X-314244Y10477324D01*
X-564541Y10581000D01*
X-835459Y10581000D01*
X-1085756Y10477324D01*
X-1250000Y10313080D01*
X-1414244Y10477324D01*
X-1664541Y10581000D01*
X-1935459Y10581000D01*
X-2185756Y10477324D01*
X-2335521Y10327559D01*
X-2464541Y10381000D01*
X-2735459Y10381000D01*
X-2985756Y10277324D01*
X-3177324Y10085756D01*
X-3281000Y9835459D01*
X-3281000Y9564541D01*
X-3177324Y9314244D01*
X-2985756Y9122676D01*
X-2735459Y9019000D01*
X-2464541Y9019000D01*
X-2305999Y9084670D01*
X-2306000Y4109592D01*
X-2972347Y3443245D01*
X-3112694Y3583592D01*
X-3565139Y3771000D01*
X-4054861Y3771000D01*
X-4507306Y3583592D01*
X-4853592Y3237306D01*
X-5041000Y2784861D01*
X-7399548Y2784861D01*
X-4877444Y5306964D01*
X-4835194Y5335194D01*
X-4759967Y5447781D01*
X-4723359Y5502568D01*
X-4684087Y5700000D01*
X-4694000Y5749835D01*
X-4694000Y8643248D01*
X-4635459Y8619000D01*
X-4364541Y8619000D01*
X-4114244Y8722676D01*
X-3922676Y8914244D01*
X-3819000Y9164541D01*
X-3819000Y9435459D01*
X-3922676Y9685756D01*
X-4055920Y9819000D01*
X-3864541Y9819000D01*
X-3614244Y9922676D01*
X-3422676Y10114244D01*
X-3319000Y10364541D01*
X-3319000Y10635459D01*
X10319000Y10635459D01*
X10319000Y10364541D01*
X10422676Y10114244D01*
X10614244Y9922676D01*
X10864541Y9819000D01*
X11135459Y9819000D01*
X11385756Y9922676D01*
X11577324Y10114244D01*
X11681000Y10364541D01*
X11681000Y10635459D01*
X11577324Y10885756D01*
X11385756Y11077324D01*
X11135459Y11181000D01*
X10864541Y11181000D01*
X10614244Y11077324D01*
X10422676Y10885756D01*
X10319000Y10635459D01*
X-3319000Y10635459D01*
X-3422676Y10885756D01*
X-3614244Y11077324D01*
X-3864541Y11181000D01*
X-4135459Y11181000D01*
X-4385756Y11077324D01*
X-4577324Y10885756D01*
X-4681000Y10635459D01*
X-4681000Y10364541D01*
X-4577324Y10114244D01*
X-4444080Y9981000D01*
X-4537864Y9981000D01*
X-4622676Y10185756D01*
X-4814244Y10377324D01*
X-5064541Y10481000D01*
X-5219000Y10481000D01*
X-5219000Y10535459D01*
X-5322676Y10785756D01*
X-5514244Y10977324D01*
X-5764541Y11081000D01*
X-6035459Y11081000D01*
X-6285756Y10977324D01*
X-6477324Y10785756D01*
X-6581000Y10535459D01*
X-6581000Y10264541D01*
X-6477324Y10014244D01*
X-6405999Y9942919D01*
X-6405999Y9069079D01*
X-6514244Y9177324D01*
X-6764541Y9281000D01*
X-7035459Y9281000D01*
X-7285756Y9177324D01*
X-7477324Y8985756D01*
X-7581000Y8735459D01*
X-7581000Y8464541D01*
X-7477324Y8214244D01*
X-7285756Y8022676D01*
X-7035459Y7919000D01*
X-6764541Y7919000D01*
X-6514244Y8022676D01*
X-6405999Y8130921D01*
X-6406000Y5909592D01*
X-8873000Y3442591D01*
X-8873000Y12635459D01*
X6019000Y12635459D01*
X6019000Y12364541D01*
X6122676Y12114244D01*
X6314244Y11922676D01*
X6564541Y11819000D01*
X6835459Y11819000D01*
X7085756Y11922676D01*
X7277324Y12114244D01*
X7381000Y12364541D01*
X7381000Y12635459D01*
X7277324Y12885756D01*
X7085756Y13077324D01*
X6835459Y13181000D01*
X6564541Y13181000D01*
X6314244Y13077324D01*
X6122676Y12885756D01*
X6019000Y12635459D01*
X-8873000Y12635459D01*
X-8873000Y13235459D01*
X14519000Y13235459D01*
X14519000Y12964541D01*
X14622676Y12714244D01*
X14814244Y12522676D01*
X15064541Y12419000D01*
X15335459Y12419000D01*
X15585756Y12522676D01*
X15777324Y12714244D01*
X15881000Y12964541D01*
X15881000Y13235459D01*
X15777324Y13485756D01*
X15585756Y13677324D01*
X15335459Y13781000D01*
X15064541Y13781000D01*
X14814244Y13677324D01*
X14622676Y13485756D01*
X14519000Y13235459D01*
X-8873000Y13235459D01*
X-8873000Y14535459D01*
X5419000Y14535459D01*
X5419000Y14264541D01*
X5522676Y14014244D01*
X5714244Y13822676D01*
X5964541Y13719000D01*
X6235459Y13719000D01*
X6485756Y13822676D01*
X6677324Y14014244D01*
X6781000Y14264541D01*
X6781000Y14535459D01*
X6677324Y14785756D01*
X6485756Y14977324D01*
X6235459Y15081000D01*
X5964541Y15081000D01*
X5714244Y14977324D01*
X5522676Y14785756D01*
X5419000Y14535459D01*
X-8873000Y14535459D01*
X-8873000Y16835459D01*
X-7481000Y16835459D01*
X-7481000Y16564541D01*
X-7377324Y16314244D01*
X-7185756Y16122676D01*
X-6935459Y16019000D01*
X-6664541Y16019000D01*
X-6414244Y16122676D01*
X-6401461Y16135459D01*
X10093990Y16135459D01*
X10093990Y15864541D01*
X10197666Y15614244D01*
X10389234Y15422676D01*
X10639531Y15319000D01*
X10910449Y15319000D01*
X11160746Y15422676D01*
X11352314Y15614244D01*
X11455990Y15864541D01*
X11455990Y16135459D01*
X11352314Y16385756D01*
X11160746Y16577324D01*
X10910449Y16681000D01*
X10639531Y16681000D01*
X10389234Y16577324D01*
X10197666Y16385756D01*
X10093990Y16135459D01*
X-6401461Y16135459D01*
X-6222676Y16314244D01*
X-6119000Y16564541D01*
X-6119000Y16835459D01*
X-6201842Y17035459D01*
X7319000Y17035459D01*
X7319000Y16764541D01*
X7422676Y16514244D01*
X7614244Y16322676D01*
X7864541Y16219000D01*
X8135459Y16219000D01*
X8385756Y16322676D01*
X8577324Y16514244D01*
X8681000Y16764541D01*
X8681000Y17035459D01*
X8577324Y17285756D01*
X8385756Y17477324D01*
X8135459Y17581000D01*
X7864541Y17581000D01*
X7614244Y17477324D01*
X7422676Y17285756D01*
X7319000Y17035459D01*
X-6201842Y17035459D01*
X-6222676Y17085756D01*
X-6414244Y17277324D01*
X-6664541Y17381000D01*
X-6935459Y17381000D01*
X-7185756Y17277324D01*
X-7377324Y17085756D01*
X-7481000Y16835459D01*
X-8873000Y16835459D01*
X-8873000Y17935459D01*
X-4441000Y17935459D01*
X-4441000Y17664541D01*
X-4337324Y17414244D01*
X-4145756Y17222676D01*
X-3895459Y17119000D01*
X-3624541Y17119000D01*
X-3374244Y17222676D01*
X-3182676Y17414244D01*
X-3079000Y17664541D01*
X-3079000Y17765409D01*
X-2172200Y18672208D01*
X-1995459Y18599000D01*
X-1724541Y18599000D01*
X-1474244Y18702676D01*
X-1360901Y18816019D01*
X-1277324Y18614244D01*
X-1085756Y18422676D01*
X-835459Y18319000D01*
X-564541Y18319000D01*
X-314244Y18422676D01*
X-301461Y18435459D01*
X19000Y18435459D01*
X19000Y18164541D01*
X122676Y17914244D01*
X314244Y17722676D01*
X564541Y17619000D01*
X835459Y17619000D01*
X1085756Y17722676D01*
X1277324Y17914244D01*
X1381000Y18164541D01*
X1381000Y18435459D01*
X1277324Y18685756D01*
X1085756Y18877324D01*
X835459Y18981000D01*
X564541Y18981000D01*
X314244Y18877324D01*
X122676Y18685756D01*
X19000Y18435459D01*
X-301461Y18435459D01*
X-122676Y18614244D01*
X-19000Y18864541D01*
X-19000Y19135459D01*
X-122676Y19385756D01*
X-314244Y19577324D01*
X-564541Y19681000D01*
X-835459Y19681000D01*
X-1085756Y19577324D01*
X-1199099Y19463981D01*
X-1282676Y19665756D01*
X-1452379Y19835459D01*
X219000Y19835459D01*
X219000Y19564541D01*
X322676Y19314244D01*
X514244Y19122676D01*
X764541Y19019000D01*
X1035459Y19019000D01*
X1285756Y19122676D01*
X1477324Y19314244D01*
X1581000Y19564541D01*
X1581000Y19835459D01*
X1477324Y20085756D01*
X1285756Y20277324D01*
X1035459Y20381000D01*
X764541Y20381000D01*
X514244Y20277324D01*
X322676Y20085756D01*
X219000Y19835459D01*
X-1452379Y19835459D01*
X-1474244Y19857324D01*
X-1724541Y19961000D01*
X-1995459Y19961000D01*
X-2245756Y19857324D01*
X-2313913Y19789167D01*
X-2329835Y19786000D01*
X-2477431Y19756641D01*
X-2644806Y19644806D01*
X-2673037Y19602555D01*
X-3794591Y18481000D01*
X-3895459Y18481000D01*
X-4145756Y18377324D01*
X-4337324Y18185756D01*
X-4441000Y17935459D01*
X-8873000Y17935459D01*
X-8873000Y20935459D01*
X-7581000Y20935459D01*
X-7581000Y20664541D01*
X-7477324Y20414244D01*
X-7285756Y20222676D01*
X-7035459Y20119000D01*
X-6764541Y20119000D01*
X-6514244Y20222676D01*
X-6322676Y20414244D01*
X-6219000Y20664541D01*
X-6219000Y20935459D01*
X-6322676Y21185756D01*
X-6514244Y21377324D01*
X-6764541Y21481000D01*
X-7035459Y21481000D01*
X-7285756Y21377324D01*
X-7477324Y21185756D01*
X-7581000Y20935459D01*
X-8873000Y20935459D01*
X-8873000Y23809920D01*
X-8685756Y23622676D01*
X-8435459Y23519000D01*
X-8164541Y23519000D01*
X-7914244Y23622676D01*
X-7722676Y23814244D01*
X-7619000Y24064541D01*
X-7619000Y24335459D01*
X-7722676Y24585756D01*
X-7772379Y24635459D01*
X9919000Y24635459D01*
X9919000Y24364541D01*
X10022676Y24114244D01*
X10214244Y23922676D01*
X10464541Y23819000D01*
X10735459Y23819000D01*
X10985756Y23922676D01*
X11177324Y24114244D01*
X11281000Y24364541D01*
X11281000Y24635459D01*
X11177324Y24885756D01*
X10985756Y25077324D01*
X10735459Y25181000D01*
X10464541Y25181000D01*
X10214244Y25077324D01*
X10022676Y24885756D01*
X9919000Y24635459D01*
X-7772379Y24635459D01*
X-7914244Y24777324D01*
X-8164541Y24881000D01*
X-8435459Y24881000D01*
X-8685756Y24777324D01*
X-8877324Y24585756D01*
X-8888869Y24557883D01*
X-8910197Y24589803D01*
X-8951399Y24617333D01*
X-9000000Y24627000D01*
X-15977871Y24627000D01*
X-15977871Y26135459D01*
X-9181000Y26135459D01*
X-9181000Y25864541D01*
X-9077324Y25614244D01*
X-8885756Y25422676D01*
X-8635459Y25319000D01*
X-8364541Y25319000D01*
X-8114244Y25422676D01*
X-7922676Y25614244D01*
X-7819000Y25864541D01*
X-7819000Y26135459D01*
X-7681000Y26135459D01*
X-7681000Y25864541D01*
X-7577324Y25614244D01*
X-7385756Y25422676D01*
X-7135459Y25319000D01*
X-6864541Y25319000D01*
X-6614244Y25422676D01*
X-6422676Y25614244D01*
X-6319000Y25864541D01*
X-6319000Y26135459D01*
X-6181000Y26135459D01*
X-6181000Y25864541D01*
X-6077324Y25614244D01*
X-5885756Y25422676D01*
X-5635459Y25319000D01*
X-5364541Y25319000D01*
X-5114244Y25422676D01*
X-4922676Y25614244D01*
X-4819000Y25864541D01*
X-4819000Y26135459D01*
X-4681000Y26135459D01*
X-4681000Y25864541D01*
X-4577324Y25614244D01*
X-4385756Y25422676D01*
X-4135459Y25319000D01*
X-3864541Y25319000D01*
X-3614244Y25422676D01*
X-3422676Y25614244D01*
X-3319000Y25864541D01*
X-3319000Y26135459D01*
X-3422676Y26385756D01*
X-3614244Y26577324D01*
X-3864541Y26681000D01*
X-4135459Y26681000D01*
X-4385756Y26577324D01*
X-4577324Y26385756D01*
X-4681000Y26135459D01*
X-4819000Y26135459D01*
X-4922676Y26385756D01*
X-5114244Y26577324D01*
X-5364541Y26681000D01*
X-5635459Y26681000D01*
X-5885756Y26577324D01*
X-6077324Y26385756D01*
X-6181000Y26135459D01*
X-6319000Y26135459D01*
X-6422676Y26385756D01*
X-6614244Y26577324D01*
X-6864541Y26681000D01*
X-7135459Y26681000D01*
X-7385756Y26577324D01*
X-7577324Y26385756D01*
X-7681000Y26135459D01*
X-7819000Y26135459D01*
X-7922676Y26385756D01*
X-8114244Y26577324D01*
X-8364541Y26681000D01*
X-8635459Y26681000D01*
X-8885756Y26577324D01*
X-9077324Y26385756D01*
X-9181000Y26135459D01*
X-15977871Y26135459D01*
X-15977871Y27635459D01*
X-9181000Y27635459D01*
X-9181000Y27364541D01*
X-9077324Y27114244D01*
X-8885756Y26922676D01*
X-8635459Y26819000D01*
X-8364541Y26819000D01*
X-8114244Y26922676D01*
X-7922676Y27114244D01*
X-7819000Y27364541D01*
X-7819000Y27635459D01*
X-7681000Y27635459D01*
X-7681000Y27364541D01*
X-7577324Y27114244D01*
X-7385756Y26922676D01*
X-7135459Y26819000D01*
X-6864541Y26819000D01*
X-6614244Y26922676D01*
X-6422676Y27114244D01*
X-6319000Y27364541D01*
X-6319000Y27635459D01*
X-6181000Y27635459D01*
X-6181000Y27364541D01*
X-6077324Y27114244D01*
X-5885756Y26922676D01*
X-5635459Y26819000D01*
X-5364541Y26819000D01*
X-5114244Y26922676D01*
X-4922676Y27114244D01*
X-4819000Y27364541D01*
X-4819000Y27635459D01*
X-4681000Y27635459D01*
X-4681000Y27364541D01*
X-4577324Y27114244D01*
X-4385756Y26922676D01*
X-4135459Y26819000D01*
X-3864541Y26819000D01*
X-3614244Y26922676D01*
X-3422676Y27114244D01*
X-3319000Y27364541D01*
X-3319000Y27635459D01*
X-3422676Y27885756D01*
X-3614244Y28077324D01*
X-3864541Y28181000D01*
X-4135459Y28181000D01*
X-4385756Y28077324D01*
X-4577324Y27885756D01*
X-4681000Y27635459D01*
X-4819000Y27635459D01*
X-4922676Y27885756D01*
X-5114244Y28077324D01*
X-5364541Y28181000D01*
X-5635459Y28181000D01*
X-5885756Y28077324D01*
X-6077324Y27885756D01*
X-6181000Y27635459D01*
X-6319000Y27635459D01*
X-6422676Y27885756D01*
X-6614244Y28077324D01*
X-6864541Y28181000D01*
X-7135459Y28181000D01*
X-7385756Y28077324D01*
X-7577324Y27885756D01*
X-7681000Y27635459D01*
X-7819000Y27635459D01*
X-7922676Y27885756D01*
X-8114244Y28077324D01*
X-8364541Y28181000D01*
X-8635459Y28181000D01*
X-8885756Y28077324D01*
X-9077324Y27885756D01*
X-9181000Y27635459D01*
X-15977871Y27635459D01*
X-15977871Y29135459D01*
X-9181000Y29135459D01*
X-9181000Y28864541D01*
X-9077324Y28614244D01*
X-8885756Y28422676D01*
X-8635459Y28319000D01*
X-8364541Y28319000D01*
X-8114244Y28422676D01*
X-7922676Y28614244D01*
X-7819000Y28864541D01*
X-7819000Y29135459D01*
X-7681000Y29135459D01*
X-7681000Y28864541D01*
X-7577324Y28614244D01*
X-7385756Y28422676D01*
X-7135459Y28319000D01*
X-6864541Y28319000D01*
X-6614244Y28422676D01*
X-6422676Y28614244D01*
X-6319000Y28864541D01*
X-6319000Y29135459D01*
X-6422676Y29385756D01*
X-6614244Y29577324D01*
X-6864541Y29681000D01*
X-7135459Y29681000D01*
X-7385756Y29577324D01*
X-7577324Y29385756D01*
X-7681000Y29135459D01*
X-7819000Y29135459D01*
X-7922676Y29385756D01*
X-8114244Y29577324D01*
X-8364541Y29681000D01*
X-8635459Y29681000D01*
X-8885756Y29577324D01*
X-9077324Y29385756D01*
X-9181000Y29135459D01*
X-15977871Y29135459D01*
X-15977871Y31188190D01*
X-15977349Y31227790D01*
X-15975964Y31264312D01*
X-15973683Y31300680D01*
X-15970509Y31336964D01*
X-15966457Y31373016D01*
X-15961521Y31408970D01*
X-15955721Y31444675D01*
X-15949053Y31480207D01*
X-15941517Y31515568D01*
X-15933144Y31550632D01*
X-15923915Y31585485D01*
X-15913851Y31620063D01*
X-15902943Y31654401D01*
X-15891217Y31688418D01*
X-15878660Y31722155D01*
X-15865300Y31755541D01*
X-15851119Y31788620D01*
X-15836137Y31821348D01*
X-15820366Y31853690D01*
X-15803800Y31885665D01*
X-15786449Y31917242D01*
X-15768317Y31948418D01*
X-15749427Y31979144D01*
X-15729782Y32009415D01*
X-15709336Y32039293D01*
X-15688190Y32068624D01*
X-15666251Y32097536D01*
X-15643604Y32125903D01*
X-15620213Y32153767D01*
X-15596087Y32181108D01*
X-15575009Y32203839D01*
X-15530911Y32234652D01*
X-15502790Y32278696D01*
X-12581977Y35199509D01*
X-11003000Y35199509D01*
X-11003000Y34800491D01*
X-10850302Y34431846D01*
X-10568154Y34149698D01*
X-10199509Y33997000D01*
X-9800491Y33997000D01*
X-9431846Y34149698D01*
X-9149698Y34431846D01*
X-8997000Y34800491D01*
X-8997000Y35199509D01*
X-9149698Y35568154D01*
X-9431846Y35850302D01*
X-9800491Y36003000D01*
X-10199509Y36003000D01*
X-10568154Y35850302D01*
X-10850302Y35568154D01*
X-11003000Y35199509D01*
X-12581977Y35199509D01*
X-11677174Y36104311D01*
X-11675659Y36105295D01*
X-11674212Y36106705D01*
X-11628759Y36136729D01*
X-11601149Y36177581D01*
X-11581139Y36196136D01*
X-11553814Y36220247D01*
X-11525942Y36243643D01*
X-11497570Y36266294D01*
X-11468680Y36288216D01*
X-11439344Y36309362D01*
X-11409480Y36329797D01*
X-11379192Y36349450D01*
X-11348461Y36368341D01*
X-11317318Y36386452D01*
X-11285731Y36403804D01*
X-11253743Y36420375D01*
X-11221414Y36436137D01*
X-11188671Y36451124D01*
X-11155618Y36465292D01*
X-11122217Y36478656D01*
X-11088458Y36491218D01*
X-11054438Y36502945D01*
X-11020109Y36513850D01*
X-10985515Y36523917D01*
X-10950662Y36533145D01*
X-10915548Y36541531D01*
X-10880238Y36549057D01*
X-10844682Y36555732D01*
X-10808963Y36561535D01*
X-10773010Y36566474D01*
X-10736898Y36570536D01*
X-10700685Y36573709D01*
X-10664235Y36575999D01*
X-10627750Y36577390D01*
X-10588144Y36577919D01*
X-8522448Y36577919D01*
X-8522449Y31151360D01*
G04 #@! TD*
M02*
