G04 #@! TF.GenerationSoftware,KiCad,Pcbnew,5.0.2+dfsg1-1*
G04 #@! TF.CreationDate,2020-07-05T13:54:42+02:00*
G04 #@! TF.ProjectId,edgedriver,65646765-6472-4697-9665-722e6b696361,rev?*
G04 #@! TF.SameCoordinates,Original*
G04 #@! TF.FileFunction,Legend,Bot*
G04 #@! TF.FilePolarity,Positive*
%FSLAX46Y46*%
G04 Gerber Fmt 4.6, Leading zero omitted, Abs format (unit mm)*
G04 Created by KiCad (PCBNEW 5.0.2+dfsg1-1) date Sun Jul  5 13:54:42 2020*
%MOMM*%
%LPD*%
G01*
G04 APERTURE LIST*
%ADD10C,0.300000*%
%ADD11C,0.200000*%
%ADD12C,0.000001*%
G04 APERTURE END LIST*
D10*
X6928571Y10821428D02*
X6928571Y9750000D01*
X6999999Y9535714D01*
X7142857Y9392857D01*
X7357142Y9321428D01*
X7499999Y9321428D01*
X5499999Y9321428D02*
X6214285Y9321428D01*
X6214285Y10821428D01*
X4142857Y9464285D02*
X4214285Y9392857D01*
X4428571Y9321428D01*
X4571428Y9321428D01*
X4785714Y9392857D01*
X4928571Y9535714D01*
X4999999Y9678571D01*
X5071428Y9964285D01*
X5071428Y10178571D01*
X4999999Y10464285D01*
X4928571Y10607142D01*
X4785714Y10750000D01*
X4571428Y10821428D01*
X4428571Y10821428D01*
X4214285Y10750000D01*
X4142857Y10678571D01*
X3071428Y10821428D02*
X3071428Y9750000D01*
X3142857Y9535714D01*
X3285714Y9392857D01*
X3499999Y9321428D01*
X3642857Y9321428D01*
X1642857Y9321428D02*
X2357142Y9321428D01*
X2357142Y10821428D01*
X285714Y9464285D02*
X357142Y9392857D01*
X571428Y9321428D01*
X714285Y9321428D01*
X928571Y9392857D01*
X1071428Y9535714D01*
X1142857Y9678571D01*
X1214285Y9964285D01*
X1214285Y10178571D01*
X1142857Y10464285D01*
X1071428Y10607142D01*
X928571Y10750000D01*
X714285Y10821428D01*
X571428Y10821428D01*
X357142Y10750000D01*
X285714Y10678571D01*
X-785714Y10821428D02*
X-785714Y9750000D01*
X-714285Y9535714D01*
X-571428Y9392857D01*
X-357142Y9321428D01*
X-214285Y9321428D01*
X-2214285Y9321428D02*
X-1500000Y9321428D01*
X-1500000Y10821428D01*
X-3571428Y9464285D02*
X-3500000Y9392857D01*
X-3285714Y9321428D01*
X-3142857Y9321428D01*
X-2928571Y9392857D01*
X-2785714Y9535714D01*
X-2714285Y9678571D01*
X-2642857Y9964285D01*
X-2642857Y10178571D01*
X-2714285Y10464285D01*
X-2785714Y10607142D01*
X-2928571Y10750000D01*
X-3142857Y10821428D01*
X-3285714Y10821428D01*
X-3500000Y10750000D01*
X-3571428Y10678571D01*
X-4642857Y10821428D02*
X-4642857Y9750000D01*
X-4571428Y9535714D01*
X-4428571Y9392857D01*
X-4214285Y9321428D01*
X-4071428Y9321428D01*
X-6071428Y9321428D02*
X-5357142Y9321428D01*
X-5357142Y10821428D01*
X-7428571Y9464285D02*
X-7357142Y9392857D01*
X-7142857Y9321428D01*
X-7000000Y9321428D01*
X-6785714Y9392857D01*
X-6642857Y9535714D01*
X-6571428Y9678571D01*
X-6500000Y9964285D01*
X-6500000Y10178571D01*
X-6571428Y10464285D01*
X-6642857Y10607142D01*
X-6785714Y10750000D01*
X-7000000Y10821428D01*
X-7142857Y10821428D01*
X-7357142Y10750000D01*
X-7428571Y10678571D01*
D11*
G04 #@! TO.C,U1*
X-8200000Y24400000D02*
G75*
G03X-8200000Y24400000I-100000J0D01*
G01*
D12*
G04 #@! TO.C,*
G36*
X-10591601Y36900590D02*
X-10222981Y35716129D01*
X-10187381Y35726222D01*
X-10151087Y35734583D01*
X-10114145Y35741164D01*
X-10076603Y35745918D01*
X-10038508Y35748797D01*
X-9999906Y35749756D01*
X-9961324Y35748772D01*
X-9923249Y35745868D01*
X-9885727Y35741093D01*
X-9848806Y35734493D01*
X-9812532Y35726114D01*
X-9776954Y35716006D01*
X-9742118Y35704213D01*
X-9708071Y35690784D01*
X-9674860Y35675766D01*
X-9642532Y35659205D01*
X-9611135Y35641148D01*
X-9580715Y35621644D01*
X-9551319Y35600738D01*
X-9522995Y35578479D01*
X-9495790Y35554912D01*
X-9469751Y35530085D01*
X-9444924Y35504046D01*
X-9421357Y35476841D01*
X-9399098Y35448517D01*
X-9378192Y35419122D01*
X-9358688Y35388702D01*
X-9340632Y35357304D01*
X-9324071Y35324976D01*
X-9309052Y35291765D01*
X-9295623Y35257718D01*
X-9283831Y35222882D01*
X-9273722Y35187304D01*
X-9265344Y35151030D01*
X-9258744Y35114109D01*
X-9253969Y35076587D01*
X-9251066Y35038512D01*
X-9250081Y34999930D01*
X-9251066Y34961348D01*
X-9253969Y34923272D01*
X-9258744Y34885751D01*
X-9265345Y34848830D01*
X-9273723Y34812557D01*
X-9283832Y34776978D01*
X-9295624Y34742142D01*
X-9309053Y34708095D01*
X-9324072Y34674884D01*
X-9340632Y34642557D01*
X-9358689Y34611159D01*
X-9378193Y34580740D01*
X-9399099Y34551344D01*
X-9421358Y34523020D01*
X-9444925Y34495815D01*
X-9469752Y34469776D01*
X-9495791Y34444949D01*
X-9522996Y34421383D01*
X-9551320Y34399123D01*
X-9580715Y34378218D01*
X-9611135Y34358713D01*
X-9642533Y34340657D01*
X-9674860Y34324096D01*
X-9708071Y34309078D01*
X-9742118Y34295649D01*
X-9776955Y34283856D01*
X-9812533Y34273747D01*
X-9848806Y34265369D01*
X-9885727Y34258769D01*
X-9923249Y34253994D01*
X-9961324Y34251090D01*
X-9999906Y34250106D01*
X-10038508Y34251064D01*
X-10076603Y34253944D01*
X-10114145Y34258698D01*
X-10151087Y34265279D01*
X-10187381Y34273639D01*
X-10222981Y34283733D01*
X-10257838Y34295511D01*
X-10291907Y34308928D01*
X-10325140Y34323937D01*
X-10357489Y34340489D01*
X-10388908Y34358539D01*
X-10419349Y34378038D01*
X-10448766Y34398941D01*
X-10477110Y34421198D01*
X-10504336Y34444765D01*
X-10530395Y34469592D01*
X-10555241Y34495634D01*
X-10578826Y34522844D01*
X-10601103Y34551173D01*
X-10622026Y34580575D01*
X-10641546Y34611003D01*
X-10659618Y34642409D01*
X-10676193Y34674747D01*
X-10691224Y34707969D01*
X-10704665Y34742029D01*
X-10716467Y34776878D01*
X-10726585Y34812471D01*
X-10734971Y34848759D01*
X-10741577Y34885697D01*
X-10746357Y34923235D01*
X-10749263Y34961329D01*
X-10750248Y34999930D01*
X-10749263Y35038530D01*
X-10746357Y35076624D01*
X-10741577Y35114163D01*
X-10734971Y35151100D01*
X-10726586Y35187388D01*
X-10716468Y35222981D01*
X-10704665Y35257831D01*
X-10691225Y35291890D01*
X-10676193Y35325113D01*
X-10659619Y35357451D01*
X-10641547Y35388857D01*
X-10622027Y35419285D01*
X-10601104Y35448687D01*
X-10578827Y35477017D01*
X-10555242Y35504226D01*
X-10530396Y35530268D01*
X-10504337Y35555096D01*
X-10477111Y35578662D01*
X-10448767Y35600920D01*
X-10419350Y35621823D01*
X-10388909Y35641322D01*
X-10357490Y35659372D01*
X-10325141Y35675924D01*
X-10291908Y35690933D01*
X-10257839Y35704350D01*
X-10222981Y35716129D01*
X-10591601Y36900590D01*
X-10636223Y36899986D01*
X-10680705Y36898278D01*
X-10725030Y36895474D01*
X-10769179Y36891582D01*
X-10813134Y36886609D01*
X-10856878Y36880565D01*
X-10900393Y36873456D01*
X-10943660Y36865290D01*
X-10986662Y36856076D01*
X-11029381Y36845822D01*
X-11071799Y36834534D01*
X-11113898Y36822223D01*
X-11155660Y36808894D01*
X-11197067Y36794556D01*
X-11238102Y36779217D01*
X-11278746Y36762885D01*
X-11318981Y36745568D01*
X-11358790Y36727274D01*
X-11398154Y36708010D01*
X-11437056Y36687785D01*
X-11475478Y36666607D01*
X-11513401Y36644482D01*
X-11550809Y36621421D01*
X-11587682Y36597429D01*
X-11624003Y36572515D01*
X-11659755Y36546688D01*
X-11694918Y36519955D01*
X-11729476Y36492323D01*
X-11763410Y36463801D01*
X-11796703Y36434397D01*
X-11829336Y36404119D01*
X-11861291Y36372974D01*
X-11868425Y36366534D01*
X-11875870Y36360466D01*
X-11883604Y36354771D01*
X-11891605Y36349446D01*
X-11899850Y36344490D01*
X-11908317Y36339901D01*
X-11892815Y36345590D01*
X-15742192Y32494146D01*
X-15730307Y32527218D01*
X-15734267Y32518310D01*
X-15738642Y32509647D01*
X-15743424Y32501235D01*
X-15748607Y32493080D01*
X-15754182Y32485187D01*
X-15760144Y32477562D01*
X-15766485Y32470211D01*
X-15773198Y32463139D01*
X-15804345Y32431175D01*
X-15834625Y32398523D01*
X-15864032Y32365200D01*
X-15892557Y32331226D01*
X-15920192Y32296620D01*
X-15946930Y32261399D01*
X-15972762Y32225583D01*
X-15997680Y32189191D01*
X-16021676Y32152240D01*
X-16044743Y32114750D01*
X-16066871Y32076740D01*
X-16088055Y32038228D01*
X-16108284Y31999233D01*
X-16127552Y31959773D01*
X-16145850Y31919868D01*
X-16163170Y31879535D01*
X-16179505Y31838794D01*
X-16194846Y31797663D01*
X-16209186Y31756162D01*
X-16222516Y31714308D01*
X-16234828Y31672120D01*
X-16246114Y31629617D01*
X-16256368Y31586818D01*
X-16265579Y31543742D01*
X-16273741Y31500407D01*
X-16280845Y31456831D01*
X-16286884Y31413035D01*
X-16291849Y31369035D01*
X-16295733Y31324851D01*
X-16298527Y31280502D01*
X-16300224Y31236006D01*
X-16300815Y31191382D01*
X-16300815Y4638482D01*
X-16300225Y4593860D01*
X-16298529Y4549368D01*
X-16295735Y4505026D01*
X-16291852Y4460852D01*
X-16286887Y4416864D01*
X-16280849Y4373081D01*
X-16273745Y4329521D01*
X-16265583Y4286204D01*
X-16256371Y4243146D01*
X-16246118Y4200368D01*
X-16234832Y4157887D01*
X-16222519Y4115721D01*
X-16209189Y4073890D01*
X-16194849Y4032412D01*
X-16179508Y3991306D01*
X-16163173Y3950589D01*
X-16145852Y3910281D01*
X-16127553Y3870399D01*
X-16108285Y3830963D01*
X-16088055Y3791991D01*
X-16066872Y3753501D01*
X-16044743Y3715512D01*
X-16021676Y3678042D01*
X-15997679Y3641111D01*
X-15972761Y3604735D01*
X-15946929Y3568935D01*
X-15920192Y3533728D01*
X-15892556Y3499133D01*
X-15864031Y3465168D01*
X-15834625Y3431852D01*
X-15804344Y3399204D01*
X-15773198Y3367241D01*
X-15765998Y3359631D01*
X-15759216Y3351666D01*
X-15752863Y3343362D01*
X-15746952Y3334739D01*
X-15741496Y3325811D01*
X-15736508Y3316599D01*
X-15742191Y3335720D01*
X-14611511Y2204523D01*
X-14615886Y2216180D01*
X-14620126Y2227879D01*
X-14624233Y2239621D01*
X-14628204Y2251404D01*
X-14632041Y2263226D01*
X-14635742Y2275087D01*
X-14639308Y2286984D01*
X-14642739Y2298918D01*
X-14646034Y2310887D01*
X-14649193Y2322890D01*
X-14652216Y2334925D01*
X-14655102Y2346992D01*
X-14657852Y2359089D01*
X-14660465Y2371215D01*
X-14662941Y2383369D01*
X-14665279Y2395550D01*
X-14667481Y2407756D01*
X-14669544Y2419987D01*
X-14671470Y2432241D01*
X-14673258Y2444517D01*
X-14674907Y2456814D01*
X-14676418Y2469131D01*
X-14677790Y2481467D01*
X-14679023Y2493820D01*
X-14680116Y2506189D01*
X-14681071Y2518573D01*
X-14681886Y2530971D01*
X-14682561Y2543382D01*
X-14683096Y2555804D01*
X-14683490Y2568237D01*
X-14683745Y2580679D01*
X-14683858Y2593130D01*
X-14682410Y2649730D01*
X-14678147Y2705587D01*
X-14671136Y2760631D01*
X-14661448Y2814793D01*
X-14649151Y2868004D01*
X-14634315Y2920196D01*
X-14617009Y2971297D01*
X-14597301Y3021241D01*
X-14575262Y3069958D01*
X-14550959Y3117378D01*
X-14524463Y3163432D01*
X-14495842Y3208052D01*
X-14465165Y3251168D01*
X-14432502Y3292712D01*
X-14397922Y3332613D01*
X-14361493Y3370804D01*
X-14323285Y3407215D01*
X-14283367Y3441777D01*
X-14241808Y3474421D01*
X-14198677Y3505077D01*
X-14154044Y3533677D01*
X-14107977Y3560152D01*
X-14060546Y3584432D01*
X-14011819Y3606449D01*
X-13961866Y3626133D01*
X-13910756Y3643415D01*
X-13858558Y3658227D01*
X-13805341Y3670498D01*
X-13751174Y3680161D01*
X-13696127Y3687145D01*
X-13640268Y3691383D01*
X-13583667Y3692804D01*
X-13527085Y3691357D01*
X-13471246Y3687096D01*
X-13416219Y3680090D01*
X-13362073Y3670408D01*
X-13308877Y3658119D01*
X-13256700Y3643292D01*
X-13205612Y3625996D01*
X-13155681Y3606300D01*
X-13106976Y3584273D01*
X-13059566Y3559985D01*
X-13013521Y3533503D01*
X-12968909Y3504898D01*
X-12925799Y3474239D01*
X-12884261Y3441593D01*
X-12844363Y3407031D01*
X-12806175Y3370622D01*
X-12769765Y3332433D01*
X-12735203Y3292536D01*
X-12702558Y3250998D01*
X-12671898Y3207888D01*
X-12643293Y3163276D01*
X-12616812Y3117231D01*
X-12592523Y3069821D01*
X-12570497Y3021116D01*
X-12550801Y2971185D01*
X-12533505Y2920096D01*
X-12518678Y2867919D01*
X-12506389Y2814724D01*
X-12496706Y2760578D01*
X-12489700Y2705551D01*
X-12485439Y2649712D01*
X-12483992Y2593130D01*
X-12485414Y2536528D01*
X-12489651Y2480670D01*
X-12496636Y2425622D01*
X-12506299Y2371456D01*
X-12518570Y2318239D01*
X-12533382Y2266041D01*
X-12550664Y2214931D01*
X-12570348Y2164978D01*
X-12592365Y2116251D01*
X-12616645Y2068819D01*
X-12643120Y2022753D01*
X-12671720Y1978119D01*
X-12702376Y1934989D01*
X-12735020Y1893430D01*
X-12769582Y1853512D01*
X-12805992Y1815304D01*
X-12844183Y1778875D01*
X-12884085Y1744294D01*
X-12925628Y1711631D01*
X-12968745Y1680955D01*
X-13013365Y1652333D01*
X-13059419Y1625837D01*
X-13106839Y1601535D01*
X-13155555Y1579495D01*
X-13205499Y1559787D01*
X-13256601Y1542481D01*
X-13308792Y1527645D01*
X-13362003Y1515349D01*
X-13416165Y1505660D01*
X-13471209Y1498650D01*
X-13527066Y1494386D01*
X-13583667Y1492938D01*
X-13596095Y1493026D01*
X-13608515Y1493254D01*
X-13620927Y1493622D01*
X-13633328Y1494129D01*
X-13645718Y1494777D01*
X-13658096Y1495563D01*
X-13670460Y1496489D01*
X-13682810Y1497554D01*
X-13695143Y1498758D01*
X-13707460Y1500100D01*
X-13719758Y1501581D01*
X-13732037Y1503199D01*
X-13744295Y1504956D01*
X-13756532Y1506850D01*
X-13768746Y1508882D01*
X-13780935Y1511051D01*
X-13793100Y1513357D01*
X-13805238Y1515800D01*
X-13817349Y1518380D01*
X-13829431Y1521096D01*
X-13841483Y1523948D01*
X-13853504Y1526937D01*
X-13865494Y1530061D01*
X-13877449Y1533320D01*
X-13889371Y1536715D01*
X-13901256Y1540245D01*
X-13913105Y1543910D01*
X-13924916Y1547710D01*
X-13936688Y1551644D01*
X-13948419Y1555713D01*
X-13960109Y1559915D01*
X-13971757Y1564252D01*
X-12833325Y425303D01*
X-12837387Y436576D01*
X-12841324Y447887D01*
X-12845136Y459236D01*
X-12848823Y470621D01*
X-12852385Y482041D01*
X-12855821Y493496D01*
X-12859132Y504984D01*
X-12862317Y516504D01*
X-12865376Y528056D01*
X-12868308Y539637D01*
X-12871114Y551248D01*
X-12873794Y562887D01*
X-12876347Y574553D01*
X-12878772Y586245D01*
X-12881071Y597962D01*
X-12883242Y609703D01*
X-12885286Y621466D01*
X-12887202Y633252D01*
X-12888990Y645058D01*
X-12890650Y656884D01*
X-12892181Y668729D01*
X-12893584Y680591D01*
X-12894858Y692470D01*
X-12896004Y704365D01*
X-12897020Y716274D01*
X-12897907Y728197D01*
X-12898665Y740132D01*
X-12899293Y752078D01*
X-12899791Y764035D01*
X-12900159Y776001D01*
X-12900397Y787976D01*
X-12900504Y799958D01*
X-12899058Y856540D01*
X-12894797Y912379D01*
X-12887791Y967406D01*
X-12878109Y1021552D01*
X-12865820Y1074747D01*
X-12850993Y1126924D01*
X-12833697Y1178012D01*
X-12814001Y1227944D01*
X-12791974Y1276649D01*
X-12767686Y1324058D01*
X-12741204Y1370104D01*
X-12712599Y1414716D01*
X-12681940Y1457825D01*
X-12649294Y1499364D01*
X-12614732Y1539261D01*
X-12578323Y1577449D01*
X-12540134Y1613859D01*
X-12500237Y1648421D01*
X-12458698Y1681067D01*
X-12415589Y1711726D01*
X-12370977Y1740331D01*
X-12324931Y1766813D01*
X-12277521Y1791101D01*
X-12228816Y1813128D01*
X-12178885Y1832824D01*
X-12127797Y1850120D01*
X-12075620Y1864947D01*
X-12022424Y1877236D01*
X-11968278Y1886918D01*
X-11913251Y1893924D01*
X-11857412Y1898185D01*
X-11800830Y1899632D01*
X-11744229Y1898211D01*
X-11688370Y1893973D01*
X-11633323Y1886989D01*
X-11579156Y1877326D01*
X-11525939Y1865054D01*
X-11473741Y1850243D01*
X-11422631Y1832961D01*
X-11372678Y1813277D01*
X-11323951Y1791260D01*
X-11276520Y1766980D01*
X-11230453Y1740505D01*
X-11185820Y1711905D01*
X-11142689Y1681248D01*
X-11101130Y1648605D01*
X-11061212Y1614043D01*
X-11023004Y1577632D01*
X-10986575Y1539441D01*
X-10951995Y1499540D01*
X-10919331Y1457996D01*
X-10888655Y1414880D01*
X-10860034Y1370260D01*
X-10833537Y1324205D01*
X-10809235Y1276785D01*
X-10787195Y1228069D01*
X-10767487Y1178125D01*
X-10750181Y1127023D01*
X-10735345Y1074832D01*
X-10723049Y1021621D01*
X-10713360Y967459D01*
X-10706350Y912415D01*
X-10702086Y856558D01*
X-10700639Y799958D01*
X-10702061Y743338D01*
X-10706301Y687461D01*
X-10713290Y632397D01*
X-10722958Y578214D01*
X-10735238Y524981D01*
X-10750058Y472769D01*
X-10767351Y421646D01*
X-10787046Y371680D01*
X-10809076Y322942D01*
X-10833370Y275500D01*
X-10859860Y229424D01*
X-10888476Y184783D01*
X-10919149Y141646D01*
X-10951811Y100081D01*
X-10986391Y60159D01*
X-11022821Y21949D01*
X-11061032Y-14481D01*
X-11100954Y-49062D01*
X-11142518Y-81723D01*
X-11185656Y-112396D01*
X-11230297Y-141012D01*
X-11276373Y-167502D01*
X-11323815Y-191796D01*
X-11372553Y-213826D01*
X-11422518Y-233522D01*
X-11473642Y-250814D01*
X-11525854Y-265635D01*
X-11579086Y-277914D01*
X-11633269Y-287582D01*
X-11688333Y-294571D01*
X-11744210Y-298812D01*
X-11800830Y-300234D01*
X-11812792Y-300136D01*
X-11824748Y-299909D01*
X-11836695Y-299551D01*
X-11848633Y-299065D01*
X-11860561Y-298448D01*
X-11872478Y-297703D01*
X-11884383Y-296828D01*
X-11896274Y-295825D01*
X-11908151Y-294693D01*
X-11920012Y-293433D01*
X-11931857Y-292044D01*
X-11943685Y-290527D01*
X-11955494Y-288882D01*
X-11967283Y-287110D01*
X-11979052Y-285209D01*
X-11990799Y-283182D01*
X-12002524Y-281027D01*
X-12014225Y-278746D01*
X-12025901Y-276337D01*
X-12037551Y-273802D01*
X-12049175Y-271141D01*
X-12060770Y-268353D01*
X-12072337Y-265439D01*
X-12083874Y-262399D01*
X-12095380Y-259234D01*
X-12106854Y-255943D01*
X-12118295Y-252526D01*
X-12129702Y-248985D01*
X-12141073Y-245318D01*
X-12152409Y-241527D01*
X-12163707Y-237611D01*
X-12174967Y-233571D01*
X-11892814Y-515731D01*
X-11906250Y-509530D01*
X-11898120Y-514232D01*
X-11890228Y-519305D01*
X-11882586Y-524740D01*
X-11875207Y-530527D01*
X-11868105Y-536656D01*
X-11861291Y-543119D01*
X-11829334Y-574264D01*
X-11796699Y-604541D01*
X-11763405Y-633941D01*
X-11729469Y-662456D01*
X-11694910Y-690080D01*
X-11659744Y-716804D01*
X-11623991Y-742620D01*
X-11587668Y-767520D01*
X-11550793Y-791498D01*
X-11513384Y-814544D01*
X-11475459Y-836651D01*
X-11437036Y-857812D01*
X-11398132Y-878019D01*
X-11358767Y-897263D01*
X-11318957Y-915537D01*
X-11278721Y-932833D01*
X-11238076Y-949143D01*
X-11197041Y-964460D01*
X-11155633Y-978776D01*
X-11113871Y-992083D01*
X-11071773Y-1004373D01*
X-11029355Y-1015638D01*
X-10986637Y-1025871D01*
X-10943636Y-1035063D01*
X-10900370Y-1043208D01*
X-10856858Y-1050296D01*
X-10813116Y-1056321D01*
X-10769163Y-1061275D01*
X-10725018Y-1065149D01*
X-10680697Y-1067937D01*
X-10636219Y-1069629D01*
X-10591601Y-1070219D01*
X-9138977Y-1070219D01*
X-9185221Y-1058425D01*
X-9230575Y-1044758D01*
X-9275004Y-1029265D01*
X-9318467Y-1011995D01*
X-9360929Y-992995D01*
X-9402350Y-972313D01*
X-9442693Y-949995D01*
X-9481920Y-926091D01*
X-9519993Y-900646D01*
X-9556875Y-873710D01*
X-9592527Y-845330D01*
X-9626911Y-815552D01*
X-9659990Y-784426D01*
X-9691726Y-751998D01*
X-9722080Y-718315D01*
X-9751016Y-683427D01*
X-9778494Y-647380D01*
X-9804478Y-610222D01*
X-9828929Y-572000D01*
X-9851810Y-532762D01*
X-9873082Y-492556D01*
X-9892708Y-451429D01*
X-9910650Y-409430D01*
X-9926869Y-366605D01*
X-9941329Y-323002D01*
X-9953991Y-278668D01*
X-9964817Y-233652D01*
X-9973770Y-188001D01*
X-9980811Y-141763D01*
X-9985903Y-94985D01*
X-9989008Y-47715D01*
X-9990088Y0D01*
X-9988666Y56620D01*
X-9984425Y112497D01*
X-9977436Y167561D01*
X-9967768Y221744D01*
X-9955489Y274976D01*
X-9940668Y327189D01*
X-9923376Y378312D01*
X-9903680Y428277D01*
X-9881650Y477015D01*
X-9857356Y524457D01*
X-9830866Y570533D01*
X-9802250Y615174D01*
X-9771577Y658312D01*
X-9738916Y699876D01*
X-9704335Y739798D01*
X-9667905Y778009D01*
X-9629695Y814439D01*
X-9589773Y849019D01*
X-9548208Y881680D01*
X-9505071Y912354D01*
X-9460430Y940970D01*
X-9414354Y967460D01*
X-9366912Y991754D01*
X-9318174Y1013783D01*
X-9268209Y1033479D01*
X-9217085Y1050772D01*
X-9164873Y1065592D01*
X-9111640Y1077871D01*
X-9057457Y1087540D01*
X-9002393Y1094529D01*
X-8946516Y1098769D01*
X-8889896Y1100191D01*
X-8833296Y1098743D01*
X-8777439Y1094480D01*
X-8722395Y1087469D01*
X-8668233Y1077781D01*
X-8615022Y1065485D01*
X-8562831Y1050649D01*
X-8511729Y1033342D01*
X-8461785Y1013635D01*
X-8413069Y991595D01*
X-8365649Y967293D01*
X-8319594Y940796D01*
X-8274974Y912175D01*
X-8231858Y881499D01*
X-8190314Y848835D01*
X-8150413Y814255D01*
X-8112222Y777826D01*
X-8075811Y739618D01*
X-8041249Y699700D01*
X-8008606Y658141D01*
X-7977949Y615011D01*
X-7949349Y570377D01*
X-7922874Y524310D01*
X-7898594Y476879D01*
X-7876577Y428152D01*
X-7856893Y378199D01*
X-7839611Y327089D01*
X-7824800Y274891D01*
X-7812528Y221674D01*
X-7802865Y167507D01*
X-7795881Y112460D01*
X-7791643Y56601D01*
X-7790222Y0D01*
X-7791296Y-47701D01*
X-7794394Y-94957D01*
X-7799478Y-141723D01*
X-7806509Y-187949D01*
X-7815452Y-233588D01*
X-7826266Y-278593D01*
X-7838915Y-322916D01*
X-7853362Y-366510D01*
X-7869567Y-409326D01*
X-7887493Y-451318D01*
X-7907103Y-492438D01*
X-7928359Y-532638D01*
X-7951222Y-571871D01*
X-7975655Y-610088D01*
X-8001621Y-647244D01*
X-8029080Y-683289D01*
X-8057997Y-718176D01*
X-8088332Y-751859D01*
X-8120048Y-784288D01*
X-8153107Y-815417D01*
X-8187471Y-845198D01*
X-8223103Y-873584D01*
X-8259965Y-900527D01*
X-8298018Y-925978D01*
X-8337226Y-949892D01*
X-8377550Y-972220D01*
X-8418952Y-992914D01*
X-8461395Y-1011927D01*
X-8504840Y-1029212D01*
X-8549251Y-1044721D01*
X-8594589Y-1058405D01*
X-8640816Y-1070219D01*
X-6599080Y-1070219D01*
X-6645327Y-1058424D01*
X-6690684Y-1044756D01*
X-6735115Y-1029263D01*
X-6778581Y-1011992D01*
X-6821043Y-992992D01*
X-6862466Y-972309D01*
X-6902810Y-949991D01*
X-6942038Y-926087D01*
X-6980111Y-900642D01*
X-7016993Y-873706D01*
X-7052645Y-845325D01*
X-7087029Y-815548D01*
X-7120108Y-784422D01*
X-7151843Y-751994D01*
X-7182196Y-718312D01*
X-7211131Y-683423D01*
X-7238609Y-647376D01*
X-7264592Y-610218D01*
X-7289042Y-571997D01*
X-7311922Y-532760D01*
X-7333193Y-492554D01*
X-7352818Y-451428D01*
X-7370758Y-409428D01*
X-7386977Y-366603D01*
X-7401436Y-323000D01*
X-7414097Y-278667D01*
X-7424922Y-233652D01*
X-7433874Y-188001D01*
X-7440915Y-141763D01*
X-7446007Y-94985D01*
X-7449111Y-47715D01*
X-7450191Y0D01*
X-7448769Y56620D01*
X-7444529Y112497D01*
X-7437540Y167561D01*
X-7427871Y221744D01*
X-7415592Y274976D01*
X-7400772Y327189D01*
X-7383479Y378312D01*
X-7363783Y428277D01*
X-7341754Y477015D01*
X-7317460Y524457D01*
X-7290970Y570533D01*
X-7262354Y615174D01*
X-7231680Y658312D01*
X-7199019Y699876D01*
X-7164439Y739798D01*
X-7128009Y778009D01*
X-7089798Y814439D01*
X-7049876Y849019D01*
X-7008312Y881680D01*
X-6965174Y912354D01*
X-6920533Y940970D01*
X-6874457Y967460D01*
X-6827015Y991754D01*
X-6778277Y1013783D01*
X-6728312Y1033479D01*
X-6677188Y1050772D01*
X-6624976Y1065592D01*
X-6571744Y1077871D01*
X-6517561Y1087540D01*
X-6462496Y1094529D01*
X-6406620Y1098769D01*
X-6350000Y1100191D01*
X-6293380Y1098769D01*
X-6237503Y1094529D01*
X-6182439Y1087540D01*
X-6128256Y1077871D01*
X-6075024Y1065592D01*
X-6022811Y1050772D01*
X-5971688Y1033479D01*
X-5921722Y1013783D01*
X-5872984Y991754D01*
X-5825543Y967460D01*
X-5779467Y940970D01*
X-5734825Y912354D01*
X-5691688Y881680D01*
X-5650124Y849019D01*
X-5610202Y814439D01*
X-5571991Y778009D01*
X-5535561Y739798D01*
X-5500981Y699876D01*
X-5468319Y658312D01*
X-5437646Y615174D01*
X-5409030Y570533D01*
X-5382540Y524457D01*
X-5358246Y477015D01*
X-5336216Y428277D01*
X-5316521Y378312D01*
X-5299228Y327189D01*
X-5284408Y274976D01*
X-5272129Y221744D01*
X-5262460Y167561D01*
X-5255471Y112497D01*
X-5251231Y56620D01*
X-5249809Y0D01*
X-5250872Y-47673D01*
X-5253956Y-94902D01*
X-5259024Y-141642D01*
X-5266038Y-187844D01*
X-5274961Y-233460D01*
X-5285753Y-278444D01*
X-5298379Y-322747D01*
X-5312800Y-366323D01*
X-5328978Y-409123D01*
X-5346876Y-451100D01*
X-5366456Y-492206D01*
X-5387680Y-532395D01*
X-5410511Y-571618D01*
X-5434910Y-609829D01*
X-5460841Y-646978D01*
X-5488265Y-683020D01*
X-5517144Y-717906D01*
X-5547442Y-751589D01*
X-5579119Y-784022D01*
X-5612140Y-815156D01*
X-5646465Y-844945D01*
X-5682057Y-873340D01*
X-5718878Y-900295D01*
X-5756891Y-925762D01*
X-5796058Y-949693D01*
X-5836342Y-972041D01*
X-5877703Y-992758D01*
X-5920106Y-1011797D01*
X-5963511Y-1029110D01*
X-6007882Y-1044650D01*
X-6053181Y-1058368D01*
X-6099369Y-1070219D01*
X-4058667Y-1070219D01*
X-4104914Y-1058424D01*
X-4150271Y-1044756D01*
X-4194702Y-1029263D01*
X-4238167Y-1011992D01*
X-4280630Y-992992D01*
X-4322053Y-972309D01*
X-4362397Y-949991D01*
X-4401624Y-926087D01*
X-4439698Y-900642D01*
X-4476580Y-873706D01*
X-4512232Y-845325D01*
X-4546616Y-815548D01*
X-4579694Y-784422D01*
X-4611429Y-751994D01*
X-4641783Y-718312D01*
X-4670718Y-683423D01*
X-4698196Y-647376D01*
X-4724179Y-610218D01*
X-4748629Y-571997D01*
X-4771508Y-532760D01*
X-4792779Y-492554D01*
X-4812404Y-451428D01*
X-4830345Y-409428D01*
X-4846564Y-366603D01*
X-4861023Y-323000D01*
X-4873684Y-278667D01*
X-4884509Y-233652D01*
X-4893461Y-188001D01*
X-4900502Y-141763D01*
X-4905594Y-94985D01*
X-4908698Y-47715D01*
X-4909778Y0D01*
X-4908357Y56601D01*
X-4904119Y112460D01*
X-4897135Y167507D01*
X-4887472Y221674D01*
X-4875200Y274891D01*
X-4860389Y327089D01*
X-4843106Y378199D01*
X-4823422Y428152D01*
X-4801406Y476879D01*
X-4777125Y524310D01*
X-4750651Y570377D01*
X-4722051Y615011D01*
X-4691394Y658141D01*
X-4658750Y699700D01*
X-4624189Y739618D01*
X-4587778Y777826D01*
X-4549587Y814255D01*
X-4509685Y848835D01*
X-4468142Y881499D01*
X-4425025Y912175D01*
X-4380406Y940796D01*
X-4334351Y967293D01*
X-4286931Y991595D01*
X-4238215Y1013635D01*
X-4188271Y1033342D01*
X-4137169Y1050649D01*
X-4084978Y1065485D01*
X-4031767Y1077781D01*
X-3977605Y1087469D01*
X-3922561Y1094480D01*
X-3866704Y1098743D01*
X-3810103Y1100191D01*
X-3810103Y1440222D01*
X-3866685Y1441669D01*
X-3922524Y1445930D01*
X-3977551Y1452936D01*
X-4031697Y1462618D01*
X-4084893Y1474907D01*
X-4137070Y1489734D01*
X-4188158Y1507030D01*
X-4238090Y1526726D01*
X-4286795Y1548753D01*
X-4334204Y1573042D01*
X-4380250Y1599523D01*
X-4424862Y1628128D01*
X-4467971Y1658788D01*
X-4509509Y1691433D01*
X-4549407Y1725995D01*
X-4587595Y1762405D01*
X-4624005Y1800593D01*
X-4658567Y1840490D01*
X-4691212Y1882029D01*
X-4721872Y1925138D01*
X-4750477Y1969750D01*
X-4776958Y2015796D01*
X-4801247Y2063205D01*
X-4823274Y2111910D01*
X-4842969Y2161842D01*
X-4860265Y2212930D01*
X-4875093Y2265107D01*
X-4887382Y2318303D01*
X-4897064Y2372449D01*
X-4904070Y2427476D01*
X-4908331Y2483315D01*
X-4909778Y2539897D01*
X-4908357Y2596498D01*
X-4904119Y2652357D01*
X-4897135Y2707404D01*
X-4887472Y2761571D01*
X-4875200Y2814788D01*
X-4860389Y2866986D01*
X-4843106Y2918096D01*
X-4823422Y2968049D01*
X-4801406Y3016776D01*
X-4777125Y3064207D01*
X-4750651Y3110274D01*
X-4722051Y3154908D01*
X-4691394Y3198038D01*
X-4658750Y3239597D01*
X-4624189Y3279515D01*
X-4587778Y3317723D01*
X-4549587Y3354152D01*
X-4509685Y3388733D01*
X-4468142Y3421396D01*
X-4425025Y3452073D01*
X-4380406Y3480694D01*
X-4334351Y3507190D01*
X-4286931Y3531493D01*
X-4238215Y3553532D01*
X-4188271Y3573240D01*
X-4137169Y3590546D01*
X-4084978Y3605382D01*
X-4031767Y3617678D01*
X-3977605Y3627366D01*
X-3922561Y3634377D01*
X-3866704Y3638640D01*
X-3810103Y3640088D01*
X-3753484Y3638666D01*
X-3697607Y3634426D01*
X-3642542Y3627437D01*
X-3588360Y3617768D01*
X-3535127Y3605489D01*
X-3482915Y3590668D01*
X-3431791Y3573376D01*
X-3381826Y3553680D01*
X-3333088Y3531651D01*
X-3285646Y3507356D01*
X-3239570Y3480867D01*
X-3194929Y3452251D01*
X-3151791Y3421577D01*
X-3110227Y3388916D01*
X-3070305Y3354335D01*
X-3032095Y3317905D01*
X-2995665Y3279695D01*
X-2961084Y3239773D01*
X-2928423Y3198209D01*
X-2897750Y3155071D01*
X-2869133Y3110430D01*
X-2842644Y3064354D01*
X-2818349Y3016912D01*
X-2796320Y2968174D01*
X-2776624Y2918209D01*
X-2759332Y2867085D01*
X-2744511Y2814873D01*
X-2732232Y2761640D01*
X-2722563Y2707458D01*
X-2715574Y2652393D01*
X-2711334Y2596516D01*
X-2709912Y2539897D01*
X-2369881Y2539897D01*
X-2368460Y2596498D01*
X-2364222Y2652357D01*
X-2357238Y2707404D01*
X-2347575Y2761571D01*
X-2335304Y2814788D01*
X-2320492Y2866986D01*
X-2303210Y2918096D01*
X-2283526Y2968049D01*
X-2261509Y3016776D01*
X-2237229Y3064207D01*
X-2210754Y3110274D01*
X-2182154Y3154908D01*
X-2151498Y3198038D01*
X-2118854Y3239597D01*
X-2084292Y3279515D01*
X-2047881Y3317723D01*
X-2009691Y3354152D01*
X-1969789Y3388733D01*
X-1928245Y3421396D01*
X-1885129Y3452073D01*
X-1840509Y3480694D01*
X-1794455Y3507190D01*
X-1747035Y3531493D01*
X-1698318Y3553532D01*
X-1648375Y3573240D01*
X-1597273Y3590546D01*
X-1545082Y3605382D01*
X-1491870Y3617678D01*
X-1437708Y3627366D01*
X-1382664Y3634377D01*
X-1326807Y3638640D01*
X-1270207Y3640088D01*
X-1213587Y3638666D01*
X-1157710Y3634426D01*
X-1102646Y3627437D01*
X-1048463Y3617768D01*
X-995231Y3605489D01*
X-943018Y3590668D01*
X-891895Y3573376D01*
X-841929Y3553680D01*
X-793191Y3531651D01*
X-745750Y3507356D01*
X-699674Y3480867D01*
X-655032Y3452251D01*
X-611895Y3421577D01*
X-570331Y3388916D01*
X-530409Y3354335D01*
X-492198Y3317905D01*
X-455768Y3279695D01*
X-421188Y3239773D01*
X-388526Y3198209D01*
X-357853Y3155071D01*
X-329237Y3110430D01*
X-302747Y3064354D01*
X-278453Y3016912D01*
X-256423Y2968174D01*
X-236728Y2918209D01*
X-219435Y2867085D01*
X-204614Y2814873D01*
X-192335Y2761640D01*
X-182667Y2707458D01*
X-175678Y2652393D01*
X-171438Y2596516D01*
X-170015Y2539897D01*
X170015Y2539897D01*
X171438Y2596516D01*
X175678Y2652393D01*
X182667Y2707457D01*
X192335Y2761640D01*
X204614Y2814873D01*
X219435Y2867085D01*
X236728Y2918208D01*
X256423Y2968174D01*
X278453Y3016912D01*
X302747Y3064354D01*
X329237Y3110430D01*
X357853Y3155071D01*
X388526Y3198208D01*
X421188Y3239773D01*
X455768Y3279695D01*
X492198Y3317905D01*
X530409Y3354335D01*
X570331Y3388916D01*
X611895Y3421577D01*
X655032Y3452250D01*
X699674Y3480867D01*
X745750Y3507356D01*
X793191Y3531651D01*
X841929Y3553680D01*
X891895Y3573376D01*
X943018Y3590668D01*
X995231Y3605489D01*
X1048463Y3617768D01*
X1102646Y3627437D01*
X1157710Y3634426D01*
X1213587Y3638666D01*
X1270207Y3640088D01*
X1326807Y3638640D01*
X1382664Y3634377D01*
X1437708Y3627366D01*
X1491870Y3617678D01*
X1545081Y3605382D01*
X1597273Y3590546D01*
X1648375Y3573240D01*
X1698318Y3553532D01*
X1747035Y3531493D01*
X1794455Y3507190D01*
X1840509Y3480694D01*
X1885129Y3452073D01*
X1928245Y3421396D01*
X1969789Y3388733D01*
X2009690Y3354152D01*
X2047881Y3317723D01*
X2084292Y3279515D01*
X2118854Y3239597D01*
X2151498Y3198038D01*
X2182154Y3154908D01*
X2210754Y3110274D01*
X2237229Y3064207D01*
X2261509Y3016776D01*
X2283526Y2968049D01*
X2303210Y2918096D01*
X2320492Y2866986D01*
X2335304Y2814788D01*
X2347575Y2761571D01*
X2357238Y2707404D01*
X2364222Y2652357D01*
X2368460Y2596498D01*
X2369881Y2539897D01*
X2709912Y2539897D01*
X2711334Y2596516D01*
X2715574Y2652393D01*
X2722563Y2707458D01*
X2732232Y2761640D01*
X2744511Y2814873D01*
X2759331Y2867085D01*
X2776624Y2918209D01*
X2796320Y2968174D01*
X2818349Y3016912D01*
X2842643Y3064354D01*
X2869133Y3110430D01*
X2897749Y3155071D01*
X2928423Y3198209D01*
X2961084Y3239773D01*
X2995664Y3279695D01*
X3032095Y3317905D01*
X3070305Y3354335D01*
X3110227Y3388916D01*
X3151791Y3421577D01*
X3194929Y3452251D01*
X3239570Y3480867D01*
X3285646Y3507356D01*
X3333088Y3531651D01*
X3381826Y3553680D01*
X3431791Y3573376D01*
X3482915Y3590668D01*
X3535127Y3605489D01*
X3588360Y3617768D01*
X3642542Y3627437D01*
X3697607Y3634426D01*
X3753484Y3638666D01*
X3810103Y3640088D01*
X3866704Y3638640D01*
X3922561Y3634377D01*
X3977605Y3627366D01*
X4031767Y3617678D01*
X4084978Y3605382D01*
X4137169Y3590546D01*
X4188271Y3573240D01*
X4238215Y3553532D01*
X4286931Y3531493D01*
X4334351Y3507190D01*
X4380406Y3480694D01*
X4425025Y3452073D01*
X4468142Y3421396D01*
X4509685Y3388733D01*
X4549587Y3354152D01*
X4587778Y3317723D01*
X4624189Y3279515D01*
X4658750Y3239597D01*
X4691394Y3198038D01*
X4722051Y3154908D01*
X4750651Y3110274D01*
X4777125Y3064207D01*
X4801406Y3016776D01*
X4823422Y2968049D01*
X4843106Y2918096D01*
X4860389Y2866986D01*
X4875200Y2814788D01*
X4887472Y2761571D01*
X4897135Y2707404D01*
X4904119Y2652357D01*
X4908357Y2596498D01*
X4909778Y2539897D01*
X4908331Y2483315D01*
X4904070Y2427476D01*
X4897064Y2372449D01*
X4887382Y2318303D01*
X4875092Y2265107D01*
X4860265Y2212930D01*
X4842969Y2161842D01*
X4823273Y2111910D01*
X4801247Y2063205D01*
X4776958Y2015796D01*
X4750477Y1969750D01*
X4721872Y1925138D01*
X4691212Y1882029D01*
X4658567Y1840490D01*
X4624005Y1800593D01*
X4587595Y1762405D01*
X4549407Y1725995D01*
X4509509Y1691433D01*
X4467971Y1658788D01*
X4424862Y1628128D01*
X4380250Y1599523D01*
X4334204Y1573042D01*
X4286794Y1548753D01*
X4238089Y1526726D01*
X4188158Y1507030D01*
X4137070Y1489734D01*
X4084893Y1474907D01*
X4031697Y1462618D01*
X3977551Y1452936D01*
X3922524Y1445930D01*
X3866685Y1441669D01*
X3810103Y1440222D01*
X3753502Y1441643D01*
X3697643Y1445881D01*
X3642596Y1452865D01*
X3588429Y1462528D01*
X3535212Y1474800D01*
X3483014Y1489611D01*
X3431904Y1506894D01*
X3381951Y1526578D01*
X3333224Y1548594D01*
X3285793Y1572874D01*
X3239726Y1599349D01*
X3195092Y1627949D01*
X3151961Y1658606D01*
X3110402Y1691249D01*
X3070484Y1725811D01*
X3032276Y1762222D01*
X2995848Y1800413D01*
X2961267Y1840315D01*
X2928604Y1881858D01*
X2897927Y1924974D01*
X2869306Y1969594D01*
X2842810Y2015649D01*
X2818507Y2063069D01*
X2796468Y2111785D01*
X2776760Y2161729D01*
X2759454Y2212831D01*
X2744618Y2265022D01*
X2732322Y2318233D01*
X2722634Y2372395D01*
X2715623Y2427439D01*
X2711360Y2483296D01*
X2709912Y2539897D01*
X2369881Y2539897D01*
X2368434Y2483315D01*
X2364173Y2427476D01*
X2357167Y2372449D01*
X2347485Y2318303D01*
X2335196Y2265107D01*
X2320369Y2212930D01*
X2303073Y2161842D01*
X2283377Y2111910D01*
X2261350Y2063205D01*
X2237062Y2015796D01*
X2210581Y1969750D01*
X2181976Y1925138D01*
X2151316Y1882029D01*
X2118670Y1840490D01*
X2084108Y1800593D01*
X2047699Y1762405D01*
X2009511Y1725995D01*
X1969613Y1691433D01*
X1928075Y1658788D01*
X1884965Y1628128D01*
X1840353Y1599523D01*
X1794308Y1573042D01*
X1746898Y1548753D01*
X1698193Y1526726D01*
X1648262Y1507030D01*
X1597173Y1489734D01*
X1544997Y1474907D01*
X1491801Y1462618D01*
X1437655Y1452936D01*
X1382628Y1445930D01*
X1326789Y1441669D01*
X1270207Y1440222D01*
X1213605Y1441643D01*
X1157747Y1445881D01*
X1102699Y1452865D01*
X1048533Y1462528D01*
X995316Y1474800D01*
X943118Y1489611D01*
X892008Y1506894D01*
X842055Y1526578D01*
X793328Y1548594D01*
X745897Y1572874D01*
X699830Y1599349D01*
X655196Y1627949D01*
X612066Y1658606D01*
X570507Y1691249D01*
X530589Y1725811D01*
X492381Y1762222D01*
X455952Y1800413D01*
X421371Y1840315D01*
X388708Y1881858D01*
X358032Y1924974D01*
X329411Y1969594D01*
X302914Y2015649D01*
X278612Y2063069D01*
X256572Y2111785D01*
X236865Y2161729D01*
X219558Y2212831D01*
X204722Y2265022D01*
X192426Y2318233D01*
X182737Y2372395D01*
X175727Y2427439D01*
X171463Y2483296D01*
X170015Y2539897D01*
X-170015Y2539897D01*
X-171463Y2483296D01*
X-175727Y2427439D01*
X-182737Y2372395D01*
X-192426Y2318233D01*
X-204722Y2265022D01*
X-219558Y2212831D01*
X-236865Y2161729D01*
X-256572Y2111785D01*
X-278612Y2063069D01*
X-302914Y2015649D01*
X-329410Y1969594D01*
X-358032Y1924974D01*
X-388708Y1881858D01*
X-421371Y1840315D01*
X-455952Y1800413D01*
X-492381Y1762222D01*
X-530589Y1725811D01*
X-570507Y1691249D01*
X-612066Y1658606D01*
X-655196Y1627949D01*
X-699830Y1599349D01*
X-745897Y1572874D01*
X-793328Y1548594D01*
X-842055Y1526578D01*
X-892008Y1506894D01*
X-943118Y1489611D01*
X-995316Y1474800D01*
X-1048533Y1462528D01*
X-1102699Y1452865D01*
X-1157747Y1445881D01*
X-1213605Y1441643D01*
X-1270207Y1440222D01*
X-1326789Y1441669D01*
X-1382628Y1445930D01*
X-1437655Y1452936D01*
X-1491801Y1462618D01*
X-1544997Y1474907D01*
X-1597173Y1489734D01*
X-1648262Y1507030D01*
X-1698193Y1526726D01*
X-1746898Y1548753D01*
X-1794308Y1573042D01*
X-1840353Y1599523D01*
X-1884965Y1628128D01*
X-1928075Y1658788D01*
X-1969613Y1691433D01*
X-2009511Y1725995D01*
X-2047699Y1762405D01*
X-2084108Y1800593D01*
X-2118670Y1840490D01*
X-2151316Y1882029D01*
X-2181976Y1925138D01*
X-2210581Y1969750D01*
X-2237062Y2015796D01*
X-2261350Y2063205D01*
X-2283377Y2111910D01*
X-2303073Y2161842D01*
X-2320369Y2212930D01*
X-2335196Y2265107D01*
X-2347485Y2318303D01*
X-2357167Y2372449D01*
X-2364173Y2427476D01*
X-2368434Y2483315D01*
X-2369881Y2539897D01*
X-2709912Y2539897D01*
X-2711360Y2483296D01*
X-2715623Y2427439D01*
X-2722634Y2372395D01*
X-2732322Y2318233D01*
X-2744618Y2265022D01*
X-2759454Y2212831D01*
X-2776760Y2161729D01*
X-2796468Y2111785D01*
X-2818507Y2063069D01*
X-2842810Y2015649D01*
X-2869306Y1969594D01*
X-2897927Y1924974D01*
X-2928604Y1881858D01*
X-2961267Y1840315D01*
X-2995848Y1800413D01*
X-3032276Y1762222D01*
X-3070484Y1725811D01*
X-3110403Y1691249D01*
X-3151961Y1658606D01*
X-3195092Y1627949D01*
X-3239726Y1599349D01*
X-3285793Y1572874D01*
X-3333224Y1548594D01*
X-3381951Y1526578D01*
X-3431904Y1506894D01*
X-3483014Y1489611D01*
X-3535212Y1474800D01*
X-3588429Y1462528D01*
X-3642596Y1452865D01*
X-3697643Y1445881D01*
X-3753502Y1441643D01*
X-3810103Y1440222D01*
X-3810103Y1100191D01*
X-3753484Y1098769D01*
X-3697607Y1094529D01*
X-3642542Y1087540D01*
X-3588360Y1077871D01*
X-3535127Y1065592D01*
X-3482915Y1050772D01*
X-3431791Y1033479D01*
X-3381826Y1013783D01*
X-3333088Y991754D01*
X-3285646Y967460D01*
X-3239570Y940970D01*
X-3194929Y912354D01*
X-3151791Y881680D01*
X-3110227Y849019D01*
X-3070305Y814439D01*
X-3032095Y778009D01*
X-2995665Y739798D01*
X-2961084Y699876D01*
X-2928423Y658312D01*
X-2897750Y615174D01*
X-2869133Y570533D01*
X-2842644Y524457D01*
X-2818349Y477015D01*
X-2796320Y428277D01*
X-2776624Y378312D01*
X-2759332Y327189D01*
X-2744511Y274976D01*
X-2732232Y221744D01*
X-2722563Y167561D01*
X-2715574Y112497D01*
X-2711334Y56620D01*
X-2709912Y0D01*
X-2710975Y-47673D01*
X-2714060Y-94902D01*
X-2719128Y-141642D01*
X-2726142Y-187844D01*
X-2735064Y-233460D01*
X-2745857Y-278444D01*
X-2758483Y-322747D01*
X-2772903Y-366323D01*
X-2789082Y-409123D01*
X-2806980Y-451100D01*
X-2826559Y-492206D01*
X-2847784Y-532395D01*
X-2870614Y-571618D01*
X-2895014Y-609829D01*
X-2920944Y-646978D01*
X-2948368Y-683020D01*
X-2977248Y-717906D01*
X-3007545Y-751589D01*
X-3039223Y-784022D01*
X-3072243Y-815156D01*
X-3106568Y-844945D01*
X-3142160Y-873340D01*
X-3178982Y-900295D01*
X-3216995Y-925762D01*
X-3256162Y-949693D01*
X-3296445Y-972041D01*
X-3337807Y-992758D01*
X-3380209Y-1011797D01*
X-3423615Y-1029110D01*
X-3467986Y-1044650D01*
X-3513284Y-1058368D01*
X-3559473Y-1070219D01*
X-1518770Y-1070219D01*
X-1565017Y-1058424D01*
X-1610374Y-1044756D01*
X-1654805Y-1029263D01*
X-1698271Y-1011992D01*
X-1740734Y-992992D01*
X-1782156Y-972309D01*
X-1822500Y-949991D01*
X-1861728Y-926087D01*
X-1899801Y-900642D01*
X-1936683Y-873706D01*
X-1972335Y-845325D01*
X-2006719Y-815548D01*
X-2039798Y-784421D01*
X-2071533Y-751993D01*
X-2101887Y-718312D01*
X-2130821Y-683423D01*
X-2158299Y-647376D01*
X-2184282Y-610218D01*
X-2208732Y-571997D01*
X-2231612Y-532760D01*
X-2252883Y-492554D01*
X-2272508Y-451428D01*
X-2290448Y-409428D01*
X-2306667Y-366603D01*
X-2321126Y-323000D01*
X-2333787Y-278667D01*
X-2344613Y-233652D01*
X-2353565Y-188001D01*
X-2360605Y-141763D01*
X-2365697Y-94985D01*
X-2368801Y-47715D01*
X-2369881Y0D01*
X-2368460Y56601D01*
X-2364222Y112460D01*
X-2357238Y167507D01*
X-2347575Y221674D01*
X-2335304Y274891D01*
X-2320492Y327089D01*
X-2303210Y378199D01*
X-2283526Y428152D01*
X-2261509Y476879D01*
X-2237229Y524310D01*
X-2210754Y570377D01*
X-2182154Y615011D01*
X-2151498Y658141D01*
X-2118854Y699700D01*
X-2084292Y739618D01*
X-2047881Y777826D01*
X-2009691Y814255D01*
X-1969789Y848835D01*
X-1928245Y881499D01*
X-1885129Y912175D01*
X-1840509Y940796D01*
X-1794455Y967293D01*
X-1747035Y991595D01*
X-1698318Y1013635D01*
X-1648375Y1033342D01*
X-1597273Y1050649D01*
X-1545081Y1065485D01*
X-1491870Y1077781D01*
X-1437708Y1087469D01*
X-1382664Y1094480D01*
X-1326807Y1098743D01*
X-1270207Y1100191D01*
X-1213587Y1098769D01*
X-1157710Y1094529D01*
X-1102646Y1087540D01*
X-1048463Y1077871D01*
X-995231Y1065592D01*
X-943018Y1050772D01*
X-891895Y1033479D01*
X-841929Y1013783D01*
X-793191Y991754D01*
X-745750Y967460D01*
X-699674Y940970D01*
X-655032Y912354D01*
X-611895Y881680D01*
X-570331Y849019D01*
X-530409Y814439D01*
X-492198Y778009D01*
X-455768Y739798D01*
X-421188Y699876D01*
X-388526Y658312D01*
X-357853Y615174D01*
X-329237Y570533D01*
X-302747Y524457D01*
X-278453Y477015D01*
X-256423Y428277D01*
X-236728Y378312D01*
X-219435Y327189D01*
X-204614Y274976D01*
X-192335Y221744D01*
X-182667Y167561D01*
X-175678Y112497D01*
X-171438Y56620D01*
X-170015Y0D01*
X-171078Y-47673D01*
X-174161Y-94902D01*
X-179229Y-141642D01*
X-186242Y-187844D01*
X-195164Y-233460D01*
X-205957Y-278444D01*
X-218582Y-322747D01*
X-233003Y-366323D01*
X-249181Y-409123D01*
X-267079Y-451100D01*
X-286659Y-492206D01*
X-307883Y-532395D01*
X-330714Y-571618D01*
X-355113Y-609829D01*
X-381044Y-646978D01*
X-408468Y-683020D01*
X-437348Y-717906D01*
X-467646Y-751589D01*
X-499324Y-784022D01*
X-532344Y-815156D01*
X-566669Y-844945D01*
X-602262Y-873340D01*
X-639084Y-900295D01*
X-677097Y-925762D01*
X-716264Y-949693D01*
X-756548Y-972041D01*
X-797910Y-992758D01*
X-840312Y-1011797D01*
X-883718Y-1029110D01*
X-928089Y-1044650D01*
X-973388Y-1058368D01*
X-1019576Y-1070219D01*
X1021126Y-1070219D01*
X974880Y-1058424D01*
X929522Y-1044756D01*
X885092Y-1029263D01*
X841626Y-1011992D01*
X799163Y-992992D01*
X757741Y-972309D01*
X717397Y-949991D01*
X678169Y-926087D01*
X640095Y-900642D01*
X603214Y-873706D01*
X567562Y-845325D01*
X533178Y-815548D01*
X500099Y-784422D01*
X468364Y-751994D01*
X438010Y-718312D01*
X409075Y-683423D01*
X381598Y-647376D01*
X355615Y-610218D01*
X331165Y-571997D01*
X308285Y-532760D01*
X287014Y-492554D01*
X267389Y-451428D01*
X249448Y-409428D01*
X233230Y-366603D01*
X218771Y-323000D01*
X206110Y-278667D01*
X195284Y-233652D01*
X186332Y-188001D01*
X179291Y-141763D01*
X174200Y-94985D01*
X171095Y-47715D01*
X170015Y0D01*
X171438Y56620D01*
X175678Y112497D01*
X182667Y167561D01*
X192335Y221744D01*
X204614Y274976D01*
X219435Y327189D01*
X236728Y378312D01*
X256423Y428277D01*
X278453Y477015D01*
X302747Y524457D01*
X329237Y570533D01*
X357853Y615174D01*
X388526Y658312D01*
X421188Y699876D01*
X455768Y739798D01*
X492198Y778009D01*
X530409Y814439D01*
X570331Y849019D01*
X611895Y881680D01*
X655032Y912354D01*
X699674Y940970D01*
X745750Y967460D01*
X793191Y991754D01*
X841929Y1013783D01*
X891895Y1033479D01*
X943018Y1050772D01*
X995231Y1065592D01*
X1048463Y1077871D01*
X1102646Y1087540D01*
X1157710Y1094529D01*
X1213587Y1098769D01*
X1270207Y1100191D01*
X1326807Y1098743D01*
X1382664Y1094480D01*
X1437708Y1087469D01*
X1491870Y1077781D01*
X1545081Y1065485D01*
X1597273Y1050649D01*
X1648375Y1033342D01*
X1698318Y1013635D01*
X1747035Y991595D01*
X1794455Y967293D01*
X1840509Y940796D01*
X1885129Y912175D01*
X1928245Y881499D01*
X1969789Y848835D01*
X2009691Y814255D01*
X2047881Y777826D01*
X2084292Y739618D01*
X2118854Y699700D01*
X2151498Y658141D01*
X2182154Y615011D01*
X2210754Y570377D01*
X2237229Y524310D01*
X2261509Y476879D01*
X2283526Y428152D01*
X2303210Y378199D01*
X2320492Y327089D01*
X2335304Y274891D01*
X2347575Y221674D01*
X2357238Y167507D01*
X2364222Y112460D01*
X2368460Y56601D01*
X2369881Y0D01*
X2368807Y-47701D01*
X2365710Y-94957D01*
X2360626Y-141723D01*
X2353594Y-187949D01*
X2344652Y-233588D01*
X2333838Y-278593D01*
X2321189Y-322916D01*
X2306743Y-366510D01*
X2290537Y-409326D01*
X2272611Y-451318D01*
X2253001Y-492438D01*
X2231746Y-532638D01*
X2208882Y-571871D01*
X2184449Y-610088D01*
X2158484Y-647244D01*
X2131024Y-683289D01*
X2102107Y-718176D01*
X2071772Y-751859D01*
X2040056Y-784288D01*
X2006997Y-815417D01*
X1972632Y-845198D01*
X1937000Y-873584D01*
X1900139Y-900527D01*
X1862085Y-925978D01*
X1822877Y-949892D01*
X1782554Y-972220D01*
X1741151Y-992914D01*
X1698708Y-1011927D01*
X1655263Y-1029212D01*
X1610852Y-1044721D01*
X1565514Y-1058405D01*
X1519287Y-1070219D01*
X3561023Y-1070219D01*
X3514776Y-1058424D01*
X3469419Y-1044756D01*
X3424988Y-1029263D01*
X3381523Y-1011992D01*
X3339060Y-992992D01*
X3297637Y-972309D01*
X3257293Y-949991D01*
X3218065Y-926087D01*
X3179992Y-900642D01*
X3143110Y-873706D01*
X3107458Y-845325D01*
X3073074Y-815548D01*
X3039995Y-784421D01*
X3008260Y-751993D01*
X2977906Y-718312D01*
X2948972Y-683423D01*
X2921494Y-647376D01*
X2895511Y-610218D01*
X2871061Y-571997D01*
X2848181Y-532759D01*
X2826910Y-492554D01*
X2807285Y-451427D01*
X2789345Y-409428D01*
X2773126Y-366603D01*
X2758667Y-323000D01*
X2746006Y-278667D01*
X2735181Y-233652D01*
X2726228Y-188001D01*
X2719188Y-141763D01*
X2714096Y-94985D01*
X2710992Y-47715D01*
X2709912Y0D01*
X2711334Y56620D01*
X2715574Y112497D01*
X2722563Y167561D01*
X2732232Y221744D01*
X2744511Y274976D01*
X2759332Y327189D01*
X2776624Y378312D01*
X2796320Y428277D01*
X2818349Y477015D01*
X2842644Y524457D01*
X2869133Y570533D01*
X2897750Y615174D01*
X2928423Y658312D01*
X2961084Y699876D01*
X2995665Y739798D01*
X3032095Y778009D01*
X3070305Y814439D01*
X3110227Y849019D01*
X3151791Y881680D01*
X3194929Y912354D01*
X3239570Y940970D01*
X3285646Y967460D01*
X3333088Y991754D01*
X3381826Y1013783D01*
X3431791Y1033479D01*
X3482915Y1050772D01*
X3535127Y1065592D01*
X3588360Y1077871D01*
X3642542Y1087540D01*
X3697607Y1094529D01*
X3753484Y1098769D01*
X3810103Y1100191D01*
X3866704Y1098743D01*
X3922561Y1094480D01*
X3977605Y1087469D01*
X4031767Y1077781D01*
X4084978Y1065485D01*
X4137169Y1050649D01*
X4188271Y1033342D01*
X4238215Y1013635D01*
X4286931Y991595D01*
X4334351Y967293D01*
X4380406Y940796D01*
X4425025Y912175D01*
X4468142Y881499D01*
X4509685Y848835D01*
X4549587Y814255D01*
X4587778Y777826D01*
X4624189Y739618D01*
X4658750Y699700D01*
X4691394Y658141D01*
X4722051Y615011D01*
X4750651Y570377D01*
X4777125Y524310D01*
X4801406Y476879D01*
X4823422Y428152D01*
X4843106Y378199D01*
X4860389Y327089D01*
X4875200Y274891D01*
X4887472Y221674D01*
X4897135Y167507D01*
X4904119Y112460D01*
X4908357Y56601D01*
X4909778Y0D01*
X4908704Y-47701D01*
X4905606Y-94957D01*
X4900522Y-141723D01*
X4893490Y-187949D01*
X4884548Y-233588D01*
X4873734Y-278593D01*
X4861084Y-322916D01*
X4846638Y-366510D01*
X4830433Y-409326D01*
X4812507Y-451318D01*
X4792897Y-492438D01*
X4771641Y-532638D01*
X4748778Y-571871D01*
X4724345Y-610088D01*
X4698379Y-647244D01*
X4670919Y-683289D01*
X4642003Y-718176D01*
X4611668Y-751859D01*
X4579952Y-784288D01*
X4546893Y-815417D01*
X4512528Y-845198D01*
X4476897Y-873584D01*
X4440035Y-900527D01*
X4401981Y-925978D01*
X4362774Y-949892D01*
X4322450Y-972220D01*
X4281048Y-992914D01*
X4238605Y-1011927D01*
X4195159Y-1029212D01*
X4150749Y-1044721D01*
X4105411Y-1058405D01*
X4059184Y-1070219D01*
X6100920Y-1070219D01*
X6054673Y-1058424D01*
X6009316Y-1044756D01*
X5964885Y-1029263D01*
X5921419Y-1011992D01*
X5878956Y-992992D01*
X5837534Y-972309D01*
X5797190Y-949991D01*
X5757962Y-926087D01*
X5719888Y-900642D01*
X5683007Y-873706D01*
X5647355Y-845325D01*
X5612971Y-815548D01*
X5579892Y-784422D01*
X5548157Y-751994D01*
X5517803Y-718312D01*
X5488869Y-683423D01*
X5461391Y-647376D01*
X5435408Y-610218D01*
X5410958Y-571997D01*
X5388078Y-532760D01*
X5366807Y-492554D01*
X5347182Y-451428D01*
X5329242Y-409428D01*
X5313023Y-366603D01*
X5298564Y-323000D01*
X5285903Y-278667D01*
X5275077Y-233652D01*
X5266125Y-188001D01*
X5259085Y-141763D01*
X5253993Y-94985D01*
X5250888Y-47715D01*
X5249809Y0D01*
X5251231Y56620D01*
X5255471Y112497D01*
X5262460Y167561D01*
X5272129Y221744D01*
X5284408Y274976D01*
X5299228Y327189D01*
X5316521Y378312D01*
X5336216Y428277D01*
X5358246Y477015D01*
X5382540Y524457D01*
X5409030Y570533D01*
X5437646Y615174D01*
X5468319Y658312D01*
X5500981Y699876D01*
X5535561Y739798D01*
X5571991Y778009D01*
X5610202Y814439D01*
X5650124Y849019D01*
X5691688Y881680D01*
X5734825Y912354D01*
X5779467Y940970D01*
X5825543Y967460D01*
X5872984Y991754D01*
X5921722Y1013783D01*
X5971688Y1033479D01*
X6022811Y1050772D01*
X6075024Y1065592D01*
X6128256Y1077871D01*
X6182439Y1087540D01*
X6237503Y1094529D01*
X6293380Y1098769D01*
X6350000Y1100191D01*
X6406620Y1098769D01*
X6462496Y1094529D01*
X6517561Y1087540D01*
X6571744Y1077871D01*
X6624976Y1065592D01*
X6677188Y1050772D01*
X6728312Y1033479D01*
X6778277Y1013783D01*
X6827015Y991754D01*
X6874457Y967460D01*
X6920533Y940970D01*
X6965174Y912354D01*
X7008312Y881680D01*
X7049876Y849019D01*
X7089798Y814439D01*
X7128009Y778009D01*
X7164439Y739798D01*
X7199019Y699876D01*
X7231680Y658312D01*
X7262354Y615174D01*
X7290970Y570533D01*
X7317460Y524457D01*
X7341754Y477015D01*
X7363783Y428277D01*
X7383479Y378312D01*
X7400772Y327189D01*
X7415592Y274976D01*
X7427871Y221744D01*
X7437540Y167561D01*
X7444529Y112497D01*
X7448769Y56620D01*
X7450191Y0D01*
X7449128Y-47673D01*
X7446044Y-94902D01*
X7440976Y-141642D01*
X7433962Y-187844D01*
X7425039Y-233460D01*
X7414246Y-278444D01*
X7401621Y-322747D01*
X7387200Y-366323D01*
X7371022Y-409123D01*
X7353124Y-451100D01*
X7333544Y-492206D01*
X7312320Y-532395D01*
X7289489Y-571618D01*
X7265090Y-609829D01*
X7239159Y-646978D01*
X7211735Y-683020D01*
X7182856Y-717906D01*
X7152558Y-751589D01*
X7120880Y-784022D01*
X7087860Y-815156D01*
X7053535Y-844945D01*
X7017943Y-873340D01*
X6981122Y-900295D01*
X6943109Y-925762D01*
X6903941Y-949693D01*
X6863658Y-972041D01*
X6822297Y-992758D01*
X6779894Y-1011797D01*
X6736488Y-1029110D01*
X6692118Y-1044650D01*
X6646819Y-1058368D01*
X6600631Y-1070219D01*
X8641333Y-1070219D01*
X8595086Y-1058424D01*
X8549729Y-1044756D01*
X8505298Y-1029263D01*
X8461833Y-1011992D01*
X8419370Y-992992D01*
X8377947Y-972309D01*
X8337603Y-949991D01*
X8298375Y-926087D01*
X8260302Y-900642D01*
X8223420Y-873706D01*
X8187768Y-845325D01*
X8153384Y-815548D01*
X8120306Y-784422D01*
X8088570Y-751994D01*
X8058217Y-718312D01*
X8029282Y-683423D01*
X8001804Y-647376D01*
X7975821Y-610218D01*
X7951371Y-571997D01*
X7928492Y-532760D01*
X7907220Y-492554D01*
X7887596Y-451428D01*
X7869655Y-409428D01*
X7853436Y-366603D01*
X7838977Y-323000D01*
X7826316Y-278667D01*
X7815491Y-233652D01*
X7806539Y-188001D01*
X7799498Y-141763D01*
X7794406Y-94985D01*
X7791302Y-47715D01*
X7790222Y0D01*
X7791643Y56601D01*
X7795881Y112460D01*
X7802865Y167507D01*
X7812528Y221674D01*
X7824800Y274891D01*
X7839611Y327089D01*
X7856893Y378199D01*
X7876577Y428152D01*
X7898594Y476879D01*
X7922874Y524310D01*
X7949349Y570377D01*
X7977949Y615011D01*
X8008606Y658141D01*
X8041249Y699700D01*
X8075811Y739618D01*
X8112222Y777826D01*
X8150413Y814255D01*
X8190314Y848835D01*
X8231858Y881499D01*
X8274974Y912175D01*
X8319594Y940796D01*
X8365649Y967293D01*
X8413069Y991595D01*
X8461785Y1013635D01*
X8511729Y1033342D01*
X8562831Y1050649D01*
X8615022Y1065485D01*
X8668233Y1077781D01*
X8722395Y1087469D01*
X8777439Y1094480D01*
X8833296Y1098743D01*
X8889896Y1100191D01*
X8946516Y1098769D01*
X9002393Y1094529D01*
X9057457Y1087540D01*
X9111640Y1077871D01*
X9164873Y1065592D01*
X9217085Y1050772D01*
X9268209Y1033479D01*
X9318174Y1013783D01*
X9366912Y991754D01*
X9414354Y967460D01*
X9460430Y940970D01*
X9505071Y912354D01*
X9548208Y881680D01*
X9589773Y849019D01*
X9629695Y814439D01*
X9667905Y778009D01*
X9704335Y739798D01*
X9738916Y699876D01*
X9771577Y658312D01*
X9802250Y615174D01*
X9830866Y570533D01*
X9857356Y524457D01*
X9881650Y477015D01*
X9903680Y428277D01*
X9923376Y378312D01*
X9940668Y327189D01*
X9955489Y274976D01*
X9967768Y221744D01*
X9977436Y167561D01*
X9984425Y112497D01*
X9988666Y56620D01*
X9990088Y0D01*
X9989026Y-47673D01*
X9985942Y-94902D01*
X9980875Y-141642D01*
X9973861Y-187844D01*
X9964939Y-233460D01*
X9954147Y-278444D01*
X9941521Y-322747D01*
X9927101Y-366323D01*
X9910923Y-409123D01*
X9893025Y-451100D01*
X9873445Y-492206D01*
X9852221Y-532395D01*
X9829390Y-571618D01*
X9804991Y-609829D01*
X9779060Y-646978D01*
X9751636Y-683020D01*
X9722756Y-717906D01*
X9692458Y-751589D01*
X9660780Y-784022D01*
X9627759Y-815156D01*
X9593434Y-844945D01*
X9557842Y-873340D01*
X9521020Y-900295D01*
X9483006Y-925762D01*
X9443839Y-949693D01*
X9403556Y-972041D01*
X9362194Y-992758D01*
X9319791Y-1011797D01*
X9276385Y-1029110D01*
X9232014Y-1044650D01*
X9186716Y-1058368D01*
X9140527Y-1070219D01*
X10591601Y-1070219D01*
X10636223Y-1069621D01*
X10680705Y-1067921D01*
X10725029Y-1065127D01*
X10769178Y-1061248D01*
X10813132Y-1056289D01*
X10856875Y-1050260D01*
X10900389Y-1043168D01*
X10943655Y-1035021D01*
X10986657Y-1025827D01*
X11029374Y-1015593D01*
X11071791Y-1004327D01*
X11113889Y-992037D01*
X11155650Y-978731D01*
X11197056Y-964416D01*
X11238090Y-949100D01*
X11278733Y-932791D01*
X11318967Y-915497D01*
X11358776Y-897225D01*
X11398139Y-877984D01*
X11437041Y-857780D01*
X11475462Y-836622D01*
X11513386Y-814518D01*
X11550793Y-791474D01*
X11587667Y-767500D01*
X11623989Y-742602D01*
X11659742Y-716789D01*
X11694906Y-690068D01*
X11729466Y-662448D01*
X11763402Y-633934D01*
X11796697Y-604537D01*
X11829333Y-574263D01*
X11861291Y-543119D01*
X11867784Y-536721D01*
X11874554Y-530630D01*
X11881590Y-524857D01*
X11888881Y-519410D01*
X11896415Y-514298D01*
X11904183Y-509530D01*
X11961202Y1251037D01*
X11923127Y1253940D01*
X11885605Y1258716D01*
X11848684Y1265316D01*
X11812411Y1273694D01*
X11776832Y1283803D01*
X11741996Y1295595D01*
X11707949Y1309024D01*
X11674738Y1324043D01*
X11642410Y1340604D01*
X11611013Y1358660D01*
X11580593Y1378164D01*
X11551198Y1399070D01*
X11522874Y1421329D01*
X11495669Y1444896D01*
X11469629Y1469723D01*
X11444802Y1495762D01*
X11421236Y1522967D01*
X11398976Y1551291D01*
X11378070Y1580687D01*
X11358566Y1611107D01*
X11340510Y1642504D01*
X11323949Y1674832D01*
X11308930Y1708043D01*
X11295501Y1742090D01*
X11283709Y1776926D01*
X11273600Y1812504D01*
X11265222Y1848777D01*
X11258622Y1885698D01*
X11253847Y1923220D01*
X11250943Y1961296D01*
X11249959Y1999878D01*
X11250918Y2038479D01*
X11253797Y2076575D01*
X11258551Y2114117D01*
X11265132Y2151059D01*
X11273493Y2187353D01*
X11283586Y2222952D01*
X11295365Y2257810D01*
X11308782Y2291879D01*
X11323790Y2325112D01*
X11340343Y2357461D01*
X11358392Y2388880D01*
X11377892Y2419321D01*
X11398794Y2448738D01*
X11421052Y2477082D01*
X11444619Y2504308D01*
X11469446Y2530367D01*
X11495489Y2555213D01*
X11522698Y2578798D01*
X11551027Y2601075D01*
X11580429Y2621998D01*
X11610857Y2641519D01*
X11642263Y2659590D01*
X11674601Y2676165D01*
X11707824Y2691196D01*
X11741883Y2704637D01*
X11776733Y2716439D01*
X11812326Y2726557D01*
X11848614Y2734943D01*
X11885551Y2741549D01*
X11923090Y2746328D01*
X11961184Y2749234D01*
X11999784Y2750220D01*
X12038404Y2749260D01*
X12076517Y2746378D01*
X12114076Y2741620D01*
X12151034Y2735033D01*
X12187344Y2726665D01*
X12222958Y2716563D01*
X12257829Y2704774D01*
X12291911Y2691345D01*
X12325155Y2676323D01*
X12357514Y2659757D01*
X12388942Y2641692D01*
X12419392Y2622177D01*
X12448815Y2601257D01*
X12477165Y2578982D01*
X12504394Y2555397D01*
X12530456Y2530550D01*
X12555303Y2504488D01*
X12578888Y2477258D01*
X12601164Y2448908D01*
X12622083Y2419485D01*
X12641599Y2389036D01*
X12659663Y2357608D01*
X12676230Y2325248D01*
X12691251Y2292004D01*
X12704680Y2257923D01*
X12716469Y2223052D01*
X12726571Y2187438D01*
X12734939Y2151128D01*
X12741526Y2114170D01*
X12746284Y2076611D01*
X12749166Y2038498D01*
X12750126Y1999878D01*
X12749141Y1961277D01*
X12746235Y1923184D01*
X12741455Y1885645D01*
X12734849Y1848708D01*
X12726463Y1812419D01*
X12716346Y1776827D01*
X12704543Y1741977D01*
X12691102Y1707917D01*
X12676071Y1674695D01*
X12659496Y1642357D01*
X12641425Y1610951D01*
X12621904Y1580523D01*
X12600982Y1551121D01*
X12578704Y1522791D01*
X12555119Y1495582D01*
X12530273Y1469540D01*
X12504214Y1444712D01*
X12476989Y1421146D01*
X12448644Y1398888D01*
X12419228Y1377986D01*
X12388786Y1358486D01*
X12357368Y1340437D01*
X12325018Y1323884D01*
X12291785Y1308875D01*
X12257717Y1295458D01*
X12222859Y1283680D01*
X12187259Y1273586D01*
X12150965Y1265226D01*
X12114023Y1258645D01*
X12076481Y1253891D01*
X12038386Y1251011D01*
X11999784Y1250053D01*
X11961202Y1251037D01*
X11904183Y-509530D01*
X11892814Y-515731D01*
X15744258Y3337781D01*
X15738056Y3320210D01*
X15742919Y3328743D01*
X15748198Y3337018D01*
X15753879Y3345019D01*
X15759948Y3352732D01*
X15766392Y3360142D01*
X15773196Y3367235D01*
X15804342Y3399198D01*
X15834622Y3431846D01*
X15864029Y3465162D01*
X15892554Y3499126D01*
X15920189Y3533721D01*
X15946926Y3568928D01*
X15972758Y3604729D01*
X15997676Y3641104D01*
X16021672Y3678036D01*
X16044738Y3715505D01*
X16066867Y3753494D01*
X16088050Y3791984D01*
X16108280Y3830956D01*
X16127548Y3870392D01*
X16145846Y3910274D01*
X16163166Y3950582D01*
X16179501Y3991299D01*
X16194842Y4032406D01*
X16209182Y4073884D01*
X16222512Y4115715D01*
X16234824Y4157880D01*
X16246111Y4200361D01*
X16256364Y4243140D01*
X16265576Y4286197D01*
X16273738Y4329515D01*
X16280843Y4373074D01*
X16286881Y4416857D01*
X16291847Y4460845D01*
X16295730Y4505020D01*
X16298525Y4549362D01*
X16300221Y4593853D01*
X16300813Y4638475D01*
X15700334Y5098913D01*
X15298808Y5098913D01*
X15298808Y4299996D01*
X-8929171Y4299996D01*
X-8929171Y5098913D01*
X-15699817Y5098913D01*
X-15699817Y22900928D01*
X-8929171Y22900928D01*
X-8929171Y23699845D01*
X15298808Y23699845D01*
X15298808Y22900928D01*
X15700334Y22900928D01*
X15700334Y5098913D01*
X16300813Y4638475D01*
X16300813Y31191377D01*
X16300213Y31236005D01*
X16298509Y31280505D01*
X16295708Y31324858D01*
X16291819Y31369044D01*
X16286849Y31413047D01*
X16280806Y31456845D01*
X16273699Y31500423D01*
X16265534Y31543759D01*
X16256321Y31586836D01*
X16246067Y31629636D01*
X16234779Y31672139D01*
X16222467Y31714326D01*
X16209138Y31756180D01*
X16194799Y31797681D01*
X16179459Y31838811D01*
X16163126Y31879552D01*
X16145808Y31919883D01*
X16127512Y31959787D01*
X16108247Y31999246D01*
X16088020Y32038240D01*
X16066840Y32076750D01*
X16044714Y32114759D01*
X16021650Y32152247D01*
X15997657Y32189196D01*
X15972742Y32225587D01*
X15946913Y32261401D01*
X15920179Y32296620D01*
X15892546Y32331225D01*
X15864024Y32365198D01*
X15834619Y32398519D01*
X15804341Y32431171D01*
X15773196Y32463134D01*
X15766399Y32470175D01*
X15759971Y32477492D01*
X15753917Y32485091D01*
X15748243Y32492978D01*
X15742954Y32501160D01*
X15738056Y32509642D01*
X15744258Y32494138D01*
X11892814Y36345582D01*
X11908316Y36339893D01*
X11899849Y36344482D01*
X11891604Y36349438D01*
X11883603Y36354763D01*
X11875869Y36360458D01*
X11868424Y36366526D01*
X11861290Y36372966D01*
X11829334Y36404111D01*
X11796701Y36434389D01*
X11763408Y36463793D01*
X11729474Y36492316D01*
X11694916Y36519948D01*
X11659752Y36546682D01*
X11624001Y36572511D01*
X11587679Y36597426D01*
X11550806Y36621419D01*
X11513399Y36644482D01*
X11475475Y36666608D01*
X11437054Y36687788D01*
X11398152Y36708015D01*
X11358787Y36727280D01*
X11318979Y36745576D01*
X11278744Y36762894D01*
X11238100Y36779227D01*
X11197065Y36794567D01*
X11155658Y36808906D01*
X11113896Y36822235D01*
X11071798Y36834548D01*
X11029380Y36845835D01*
X10986661Y36856089D01*
X10943659Y36865303D01*
X10900392Y36873467D01*
X10856877Y36880575D01*
X10813133Y36886618D01*
X10769178Y36891588D01*
X10725029Y36895477D01*
X10680704Y36898278D01*
X10636222Y36899983D01*
X10591600Y36900582D01*
X10222981Y35716129D01*
X10257839Y35704350D01*
X10291908Y35690933D01*
X10325141Y35675924D01*
X10357490Y35659372D01*
X10388909Y35641322D01*
X10419350Y35621823D01*
X10448767Y35600920D01*
X10477111Y35578662D01*
X10504337Y35555096D01*
X10530396Y35530268D01*
X10555242Y35504226D01*
X10578827Y35477017D01*
X10601104Y35448687D01*
X10622027Y35419285D01*
X10641547Y35388857D01*
X10659619Y35357451D01*
X10676193Y35325113D01*
X10691225Y35291890D01*
X10704665Y35257831D01*
X10716468Y35222981D01*
X10726586Y35187388D01*
X10734971Y35151100D01*
X10741577Y35114163D01*
X10746357Y35076624D01*
X10749263Y35038530D01*
X10750248Y34999930D01*
X10749263Y34961329D01*
X10746357Y34923235D01*
X10741577Y34885697D01*
X10734971Y34848759D01*
X10726585Y34812471D01*
X10716467Y34776878D01*
X10704665Y34742029D01*
X10691224Y34707969D01*
X10676193Y34674747D01*
X10659618Y34642409D01*
X10641546Y34611003D01*
X10622026Y34580575D01*
X10601103Y34551173D01*
X10578826Y34522844D01*
X10555241Y34495634D01*
X10530395Y34469592D01*
X10504336Y34444765D01*
X10477110Y34421198D01*
X10448766Y34398941D01*
X10419349Y34378038D01*
X10388908Y34358539D01*
X10357489Y34340489D01*
X10325140Y34323937D01*
X10291907Y34308928D01*
X10257838Y34295511D01*
X10222981Y34283733D01*
X10187381Y34273639D01*
X10151087Y34265279D01*
X10114145Y34258698D01*
X10076603Y34253944D01*
X10038508Y34251064D01*
X9999906Y34250106D01*
X9961324Y34251090D01*
X9923249Y34253994D01*
X9885727Y34258769D01*
X9848806Y34265369D01*
X9812533Y34273747D01*
X9776955Y34283856D01*
X9742118Y34295649D01*
X9708071Y34309078D01*
X9674860Y34324096D01*
X9642533Y34340657D01*
X9611135Y34358713D01*
X9580715Y34378218D01*
X9551320Y34399123D01*
X9522996Y34421383D01*
X9495791Y34444949D01*
X9469752Y34469776D01*
X9444925Y34495815D01*
X9421358Y34523020D01*
X9399099Y34551344D01*
X9378193Y34580740D01*
X9358689Y34611159D01*
X9340632Y34642557D01*
X9324072Y34674884D01*
X9309053Y34708095D01*
X9295624Y34742142D01*
X9283832Y34776978D01*
X9273723Y34812557D01*
X9265345Y34848830D01*
X9258744Y34885751D01*
X9253969Y34923272D01*
X9251066Y34961348D01*
X9250081Y34999930D01*
X9251066Y35038512D01*
X9253969Y35076587D01*
X9258744Y35114109D01*
X9265344Y35151030D01*
X9273722Y35187304D01*
X9283831Y35222882D01*
X9295623Y35257718D01*
X9309052Y35291765D01*
X9324071Y35324976D01*
X9340632Y35357304D01*
X9358688Y35388702D01*
X9378192Y35419122D01*
X9399098Y35448517D01*
X9421357Y35476841D01*
X9444924Y35504046D01*
X9469751Y35530085D01*
X9495790Y35554912D01*
X9522995Y35578479D01*
X9551319Y35600738D01*
X9580715Y35621644D01*
X9611135Y35641148D01*
X9642532Y35659205D01*
X9674860Y35675766D01*
X9708071Y35690784D01*
X9742118Y35704213D01*
X9776954Y35716006D01*
X9812532Y35726114D01*
X9848806Y35734493D01*
X9885727Y35741093D01*
X9923249Y35745868D01*
X9961324Y35748772D01*
X9999906Y35749756D01*
X10038508Y35748797D01*
X10076603Y35745918D01*
X10114145Y35741164D01*
X10151087Y35734583D01*
X10187381Y35726222D01*
X10222981Y35716129D01*
X10591600Y36900582D01*
X8198982Y36900582D01*
X8199511Y25099751D01*
X8199144Y25087569D01*
X8198061Y25075580D01*
X8196284Y25063805D01*
X8193832Y25052265D01*
X8190728Y25040981D01*
X8186991Y25029973D01*
X8182643Y25019263D01*
X8177705Y25008872D01*
X8172197Y24998820D01*
X8166141Y24989129D01*
X8159557Y24979818D01*
X8152466Y24970910D01*
X8144890Y24962425D01*
X8136849Y24954384D01*
X8128364Y24946807D01*
X8119455Y24939717D01*
X8110145Y24933133D01*
X8100453Y24927077D01*
X8090401Y24921569D01*
X8080010Y24916631D01*
X8069300Y24912283D01*
X8058293Y24908546D01*
X8047008Y24905441D01*
X8035468Y24902990D01*
X8023694Y24901212D01*
X8011705Y24900130D01*
X7999523Y24899763D01*
X1799890Y24899763D01*
X1799890Y25899185D01*
X-1799890Y25899185D01*
X-1799890Y24899763D01*
X-8000028Y24899763D01*
X-8012210Y24900130D01*
X-8024199Y24901212D01*
X-8035974Y24902990D01*
X-8047514Y24905441D01*
X-8058798Y24908546D01*
X-8069806Y24912283D01*
X-8080516Y24916631D01*
X-8090907Y24921569D01*
X-8100959Y24927077D01*
X-8110651Y24933134D01*
X-8119961Y24939718D01*
X-8128869Y24946808D01*
X-8137354Y24954385D01*
X-8145396Y24962426D01*
X-8152972Y24970912D01*
X-8160062Y24979820D01*
X-8166646Y24989130D01*
X-8172703Y24998822D01*
X-8178210Y25008874D01*
X-8183149Y25019265D01*
X-8187497Y25029975D01*
X-8191233Y25040983D01*
X-8194338Y25052267D01*
X-8196789Y25063806D01*
X-8198567Y25075581D01*
X-8199649Y25087569D01*
X-8200016Y25099751D01*
X-8198984Y36900582D01*
X-10591601Y36900590D01*
X-10591601Y36900590D01*
G37*
X-10591601Y36900590D02*
X-10222981Y35716129D01*
X-10187381Y35726222D01*
X-10151087Y35734583D01*
X-10114145Y35741164D01*
X-10076603Y35745918D01*
X-10038508Y35748797D01*
X-9999906Y35749756D01*
X-9961324Y35748772D01*
X-9923249Y35745868D01*
X-9885727Y35741093D01*
X-9848806Y35734493D01*
X-9812532Y35726114D01*
X-9776954Y35716006D01*
X-9742118Y35704213D01*
X-9708071Y35690784D01*
X-9674860Y35675766D01*
X-9642532Y35659205D01*
X-9611135Y35641148D01*
X-9580715Y35621644D01*
X-9551319Y35600738D01*
X-9522995Y35578479D01*
X-9495790Y35554912D01*
X-9469751Y35530085D01*
X-9444924Y35504046D01*
X-9421357Y35476841D01*
X-9399098Y35448517D01*
X-9378192Y35419122D01*
X-9358688Y35388702D01*
X-9340632Y35357304D01*
X-9324071Y35324976D01*
X-9309052Y35291765D01*
X-9295623Y35257718D01*
X-9283831Y35222882D01*
X-9273722Y35187304D01*
X-9265344Y35151030D01*
X-9258744Y35114109D01*
X-9253969Y35076587D01*
X-9251066Y35038512D01*
X-9250081Y34999930D01*
X-9251066Y34961348D01*
X-9253969Y34923272D01*
X-9258744Y34885751D01*
X-9265345Y34848830D01*
X-9273723Y34812557D01*
X-9283832Y34776978D01*
X-9295624Y34742142D01*
X-9309053Y34708095D01*
X-9324072Y34674884D01*
X-9340632Y34642557D01*
X-9358689Y34611159D01*
X-9378193Y34580740D01*
X-9399099Y34551344D01*
X-9421358Y34523020D01*
X-9444925Y34495815D01*
X-9469752Y34469776D01*
X-9495791Y34444949D01*
X-9522996Y34421383D01*
X-9551320Y34399123D01*
X-9580715Y34378218D01*
X-9611135Y34358713D01*
X-9642533Y34340657D01*
X-9674860Y34324096D01*
X-9708071Y34309078D01*
X-9742118Y34295649D01*
X-9776955Y34283856D01*
X-9812533Y34273747D01*
X-9848806Y34265369D01*
X-9885727Y34258769D01*
X-9923249Y34253994D01*
X-9961324Y34251090D01*
X-9999906Y34250106D01*
X-10038508Y34251064D01*
X-10076603Y34253944D01*
X-10114145Y34258698D01*
X-10151087Y34265279D01*
X-10187381Y34273639D01*
X-10222981Y34283733D01*
X-10257838Y34295511D01*
X-10291907Y34308928D01*
X-10325140Y34323937D01*
X-10357489Y34340489D01*
X-10388908Y34358539D01*
X-10419349Y34378038D01*
X-10448766Y34398941D01*
X-10477110Y34421198D01*
X-10504336Y34444765D01*
X-10530395Y34469592D01*
X-10555241Y34495634D01*
X-10578826Y34522844D01*
X-10601103Y34551173D01*
X-10622026Y34580575D01*
X-10641546Y34611003D01*
X-10659618Y34642409D01*
X-10676193Y34674747D01*
X-10691224Y34707969D01*
X-10704665Y34742029D01*
X-10716467Y34776878D01*
X-10726585Y34812471D01*
X-10734971Y34848759D01*
X-10741577Y34885697D01*
X-10746357Y34923235D01*
X-10749263Y34961329D01*
X-10750248Y34999930D01*
X-10749263Y35038530D01*
X-10746357Y35076624D01*
X-10741577Y35114163D01*
X-10734971Y35151100D01*
X-10726586Y35187388D01*
X-10716468Y35222981D01*
X-10704665Y35257831D01*
X-10691225Y35291890D01*
X-10676193Y35325113D01*
X-10659619Y35357451D01*
X-10641547Y35388857D01*
X-10622027Y35419285D01*
X-10601104Y35448687D01*
X-10578827Y35477017D01*
X-10555242Y35504226D01*
X-10530396Y35530268D01*
X-10504337Y35555096D01*
X-10477111Y35578662D01*
X-10448767Y35600920D01*
X-10419350Y35621823D01*
X-10388909Y35641322D01*
X-10357490Y35659372D01*
X-10325141Y35675924D01*
X-10291908Y35690933D01*
X-10257839Y35704350D01*
X-10222981Y35716129D01*
X-10591601Y36900590D01*
X-10636223Y36899986D01*
X-10680705Y36898278D01*
X-10725030Y36895474D01*
X-10769179Y36891582D01*
X-10813134Y36886609D01*
X-10856878Y36880565D01*
X-10900393Y36873456D01*
X-10943660Y36865290D01*
X-10986662Y36856076D01*
X-11029381Y36845822D01*
X-11071799Y36834534D01*
X-11113898Y36822223D01*
X-11155660Y36808894D01*
X-11197067Y36794556D01*
X-11238102Y36779217D01*
X-11278746Y36762885D01*
X-11318981Y36745568D01*
X-11358790Y36727274D01*
X-11398154Y36708010D01*
X-11437056Y36687785D01*
X-11475478Y36666607D01*
X-11513401Y36644482D01*
X-11550809Y36621421D01*
X-11587682Y36597429D01*
X-11624003Y36572515D01*
X-11659755Y36546688D01*
X-11694918Y36519955D01*
X-11729476Y36492323D01*
X-11763410Y36463801D01*
X-11796703Y36434397D01*
X-11829336Y36404119D01*
X-11861291Y36372974D01*
X-11868425Y36366534D01*
X-11875870Y36360466D01*
X-11883604Y36354771D01*
X-11891605Y36349446D01*
X-11899850Y36344490D01*
X-11908317Y36339901D01*
X-11892815Y36345590D01*
X-15742192Y32494146D01*
X-15730307Y32527218D01*
X-15734267Y32518310D01*
X-15738642Y32509647D01*
X-15743424Y32501235D01*
X-15748607Y32493080D01*
X-15754182Y32485187D01*
X-15760144Y32477562D01*
X-15766485Y32470211D01*
X-15773198Y32463139D01*
X-15804345Y32431175D01*
X-15834625Y32398523D01*
X-15864032Y32365200D01*
X-15892557Y32331226D01*
X-15920192Y32296620D01*
X-15946930Y32261399D01*
X-15972762Y32225583D01*
X-15997680Y32189191D01*
X-16021676Y32152240D01*
X-16044743Y32114750D01*
X-16066871Y32076740D01*
X-16088055Y32038228D01*
X-16108284Y31999233D01*
X-16127552Y31959773D01*
X-16145850Y31919868D01*
X-16163170Y31879535D01*
X-16179505Y31838794D01*
X-16194846Y31797663D01*
X-16209186Y31756162D01*
X-16222516Y31714308D01*
X-16234828Y31672120D01*
X-16246114Y31629617D01*
X-16256368Y31586818D01*
X-16265579Y31543742D01*
X-16273741Y31500407D01*
X-16280845Y31456831D01*
X-16286884Y31413035D01*
X-16291849Y31369035D01*
X-16295733Y31324851D01*
X-16298527Y31280502D01*
X-16300224Y31236006D01*
X-16300815Y31191382D01*
X-16300815Y4638482D01*
X-16300225Y4593860D01*
X-16298529Y4549368D01*
X-16295735Y4505026D01*
X-16291852Y4460852D01*
X-16286887Y4416864D01*
X-16280849Y4373081D01*
X-16273745Y4329521D01*
X-16265583Y4286204D01*
X-16256371Y4243146D01*
X-16246118Y4200368D01*
X-16234832Y4157887D01*
X-16222519Y4115721D01*
X-16209189Y4073890D01*
X-16194849Y4032412D01*
X-16179508Y3991306D01*
X-16163173Y3950589D01*
X-16145852Y3910281D01*
X-16127553Y3870399D01*
X-16108285Y3830963D01*
X-16088055Y3791991D01*
X-16066872Y3753501D01*
X-16044743Y3715512D01*
X-16021676Y3678042D01*
X-15997679Y3641111D01*
X-15972761Y3604735D01*
X-15946929Y3568935D01*
X-15920192Y3533728D01*
X-15892556Y3499133D01*
X-15864031Y3465168D01*
X-15834625Y3431852D01*
X-15804344Y3399204D01*
X-15773198Y3367241D01*
X-15765998Y3359631D01*
X-15759216Y3351666D01*
X-15752863Y3343362D01*
X-15746952Y3334739D01*
X-15741496Y3325811D01*
X-15736508Y3316599D01*
X-15742191Y3335720D01*
X-14611511Y2204523D01*
X-14615886Y2216180D01*
X-14620126Y2227879D01*
X-14624233Y2239621D01*
X-14628204Y2251404D01*
X-14632041Y2263226D01*
X-14635742Y2275087D01*
X-14639308Y2286984D01*
X-14642739Y2298918D01*
X-14646034Y2310887D01*
X-14649193Y2322890D01*
X-14652216Y2334925D01*
X-14655102Y2346992D01*
X-14657852Y2359089D01*
X-14660465Y2371215D01*
X-14662941Y2383369D01*
X-14665279Y2395550D01*
X-14667481Y2407756D01*
X-14669544Y2419987D01*
X-14671470Y2432241D01*
X-14673258Y2444517D01*
X-14674907Y2456814D01*
X-14676418Y2469131D01*
X-14677790Y2481467D01*
X-14679023Y2493820D01*
X-14680116Y2506189D01*
X-14681071Y2518573D01*
X-14681886Y2530971D01*
X-14682561Y2543382D01*
X-14683096Y2555804D01*
X-14683490Y2568237D01*
X-14683745Y2580679D01*
X-14683858Y2593130D01*
X-14682410Y2649730D01*
X-14678147Y2705587D01*
X-14671136Y2760631D01*
X-14661448Y2814793D01*
X-14649151Y2868004D01*
X-14634315Y2920196D01*
X-14617009Y2971297D01*
X-14597301Y3021241D01*
X-14575262Y3069958D01*
X-14550959Y3117378D01*
X-14524463Y3163432D01*
X-14495842Y3208052D01*
X-14465165Y3251168D01*
X-14432502Y3292712D01*
X-14397922Y3332613D01*
X-14361493Y3370804D01*
X-14323285Y3407215D01*
X-14283367Y3441777D01*
X-14241808Y3474421D01*
X-14198677Y3505077D01*
X-14154044Y3533677D01*
X-14107977Y3560152D01*
X-14060546Y3584432D01*
X-14011819Y3606449D01*
X-13961866Y3626133D01*
X-13910756Y3643415D01*
X-13858558Y3658227D01*
X-13805341Y3670498D01*
X-13751174Y3680161D01*
X-13696127Y3687145D01*
X-13640268Y3691383D01*
X-13583667Y3692804D01*
X-13527085Y3691357D01*
X-13471246Y3687096D01*
X-13416219Y3680090D01*
X-13362073Y3670408D01*
X-13308877Y3658119D01*
X-13256700Y3643292D01*
X-13205612Y3625996D01*
X-13155681Y3606300D01*
X-13106976Y3584273D01*
X-13059566Y3559985D01*
X-13013521Y3533503D01*
X-12968909Y3504898D01*
X-12925799Y3474239D01*
X-12884261Y3441593D01*
X-12844363Y3407031D01*
X-12806175Y3370622D01*
X-12769765Y3332433D01*
X-12735203Y3292536D01*
X-12702558Y3250998D01*
X-12671898Y3207888D01*
X-12643293Y3163276D01*
X-12616812Y3117231D01*
X-12592523Y3069821D01*
X-12570497Y3021116D01*
X-12550801Y2971185D01*
X-12533505Y2920096D01*
X-12518678Y2867919D01*
X-12506389Y2814724D01*
X-12496706Y2760578D01*
X-12489700Y2705551D01*
X-12485439Y2649712D01*
X-12483992Y2593130D01*
X-12485414Y2536528D01*
X-12489651Y2480670D01*
X-12496636Y2425622D01*
X-12506299Y2371456D01*
X-12518570Y2318239D01*
X-12533382Y2266041D01*
X-12550664Y2214931D01*
X-12570348Y2164978D01*
X-12592365Y2116251D01*
X-12616645Y2068819D01*
X-12643120Y2022753D01*
X-12671720Y1978119D01*
X-12702376Y1934989D01*
X-12735020Y1893430D01*
X-12769582Y1853512D01*
X-12805992Y1815304D01*
X-12844183Y1778875D01*
X-12884085Y1744294D01*
X-12925628Y1711631D01*
X-12968745Y1680955D01*
X-13013365Y1652333D01*
X-13059419Y1625837D01*
X-13106839Y1601535D01*
X-13155555Y1579495D01*
X-13205499Y1559787D01*
X-13256601Y1542481D01*
X-13308792Y1527645D01*
X-13362003Y1515349D01*
X-13416165Y1505660D01*
X-13471209Y1498650D01*
X-13527066Y1494386D01*
X-13583667Y1492938D01*
X-13596095Y1493026D01*
X-13608515Y1493254D01*
X-13620927Y1493622D01*
X-13633328Y1494129D01*
X-13645718Y1494777D01*
X-13658096Y1495563D01*
X-13670460Y1496489D01*
X-13682810Y1497554D01*
X-13695143Y1498758D01*
X-13707460Y1500100D01*
X-13719758Y1501581D01*
X-13732037Y1503199D01*
X-13744295Y1504956D01*
X-13756532Y1506850D01*
X-13768746Y1508882D01*
X-13780935Y1511051D01*
X-13793100Y1513357D01*
X-13805238Y1515800D01*
X-13817349Y1518380D01*
X-13829431Y1521096D01*
X-13841483Y1523948D01*
X-13853504Y1526937D01*
X-13865494Y1530061D01*
X-13877449Y1533320D01*
X-13889371Y1536715D01*
X-13901256Y1540245D01*
X-13913105Y1543910D01*
X-13924916Y1547710D01*
X-13936688Y1551644D01*
X-13948419Y1555713D01*
X-13960109Y1559915D01*
X-13971757Y1564252D01*
X-12833325Y425303D01*
X-12837387Y436576D01*
X-12841324Y447887D01*
X-12845136Y459236D01*
X-12848823Y470621D01*
X-12852385Y482041D01*
X-12855821Y493496D01*
X-12859132Y504984D01*
X-12862317Y516504D01*
X-12865376Y528056D01*
X-12868308Y539637D01*
X-12871114Y551248D01*
X-12873794Y562887D01*
X-12876347Y574553D01*
X-12878772Y586245D01*
X-12881071Y597962D01*
X-12883242Y609703D01*
X-12885286Y621466D01*
X-12887202Y633252D01*
X-12888990Y645058D01*
X-12890650Y656884D01*
X-12892181Y668729D01*
X-12893584Y680591D01*
X-12894858Y692470D01*
X-12896004Y704365D01*
X-12897020Y716274D01*
X-12897907Y728197D01*
X-12898665Y740132D01*
X-12899293Y752078D01*
X-12899791Y764035D01*
X-12900159Y776001D01*
X-12900397Y787976D01*
X-12900504Y799958D01*
X-12899058Y856540D01*
X-12894797Y912379D01*
X-12887791Y967406D01*
X-12878109Y1021552D01*
X-12865820Y1074747D01*
X-12850993Y1126924D01*
X-12833697Y1178012D01*
X-12814001Y1227944D01*
X-12791974Y1276649D01*
X-12767686Y1324058D01*
X-12741204Y1370104D01*
X-12712599Y1414716D01*
X-12681940Y1457825D01*
X-12649294Y1499364D01*
X-12614732Y1539261D01*
X-12578323Y1577449D01*
X-12540134Y1613859D01*
X-12500237Y1648421D01*
X-12458698Y1681067D01*
X-12415589Y1711726D01*
X-12370977Y1740331D01*
X-12324931Y1766813D01*
X-12277521Y1791101D01*
X-12228816Y1813128D01*
X-12178885Y1832824D01*
X-12127797Y1850120D01*
X-12075620Y1864947D01*
X-12022424Y1877236D01*
X-11968278Y1886918D01*
X-11913251Y1893924D01*
X-11857412Y1898185D01*
X-11800830Y1899632D01*
X-11744229Y1898211D01*
X-11688370Y1893973D01*
X-11633323Y1886989D01*
X-11579156Y1877326D01*
X-11525939Y1865054D01*
X-11473741Y1850243D01*
X-11422631Y1832961D01*
X-11372678Y1813277D01*
X-11323951Y1791260D01*
X-11276520Y1766980D01*
X-11230453Y1740505D01*
X-11185820Y1711905D01*
X-11142689Y1681248D01*
X-11101130Y1648605D01*
X-11061212Y1614043D01*
X-11023004Y1577632D01*
X-10986575Y1539441D01*
X-10951995Y1499540D01*
X-10919331Y1457996D01*
X-10888655Y1414880D01*
X-10860034Y1370260D01*
X-10833537Y1324205D01*
X-10809235Y1276785D01*
X-10787195Y1228069D01*
X-10767487Y1178125D01*
X-10750181Y1127023D01*
X-10735345Y1074832D01*
X-10723049Y1021621D01*
X-10713360Y967459D01*
X-10706350Y912415D01*
X-10702086Y856558D01*
X-10700639Y799958D01*
X-10702061Y743338D01*
X-10706301Y687461D01*
X-10713290Y632397D01*
X-10722958Y578214D01*
X-10735238Y524981D01*
X-10750058Y472769D01*
X-10767351Y421646D01*
X-10787046Y371680D01*
X-10809076Y322942D01*
X-10833370Y275500D01*
X-10859860Y229424D01*
X-10888476Y184783D01*
X-10919149Y141646D01*
X-10951811Y100081D01*
X-10986391Y60159D01*
X-11022821Y21949D01*
X-11061032Y-14481D01*
X-11100954Y-49062D01*
X-11142518Y-81723D01*
X-11185656Y-112396D01*
X-11230297Y-141012D01*
X-11276373Y-167502D01*
X-11323815Y-191796D01*
X-11372553Y-213826D01*
X-11422518Y-233522D01*
X-11473642Y-250814D01*
X-11525854Y-265635D01*
X-11579086Y-277914D01*
X-11633269Y-287582D01*
X-11688333Y-294571D01*
X-11744210Y-298812D01*
X-11800830Y-300234D01*
X-11812792Y-300136D01*
X-11824748Y-299909D01*
X-11836695Y-299551D01*
X-11848633Y-299065D01*
X-11860561Y-298448D01*
X-11872478Y-297703D01*
X-11884383Y-296828D01*
X-11896274Y-295825D01*
X-11908151Y-294693D01*
X-11920012Y-293433D01*
X-11931857Y-292044D01*
X-11943685Y-290527D01*
X-11955494Y-288882D01*
X-11967283Y-287110D01*
X-11979052Y-285209D01*
X-11990799Y-283182D01*
X-12002524Y-281027D01*
X-12014225Y-278746D01*
X-12025901Y-276337D01*
X-12037551Y-273802D01*
X-12049175Y-271141D01*
X-12060770Y-268353D01*
X-12072337Y-265439D01*
X-12083874Y-262399D01*
X-12095380Y-259234D01*
X-12106854Y-255943D01*
X-12118295Y-252526D01*
X-12129702Y-248985D01*
X-12141073Y-245318D01*
X-12152409Y-241527D01*
X-12163707Y-237611D01*
X-12174967Y-233571D01*
X-11892814Y-515731D01*
X-11906250Y-509530D01*
X-11898120Y-514232D01*
X-11890228Y-519305D01*
X-11882586Y-524740D01*
X-11875207Y-530527D01*
X-11868105Y-536656D01*
X-11861291Y-543119D01*
X-11829334Y-574264D01*
X-11796699Y-604541D01*
X-11763405Y-633941D01*
X-11729469Y-662456D01*
X-11694910Y-690080D01*
X-11659744Y-716804D01*
X-11623991Y-742620D01*
X-11587668Y-767520D01*
X-11550793Y-791498D01*
X-11513384Y-814544D01*
X-11475459Y-836651D01*
X-11437036Y-857812D01*
X-11398132Y-878019D01*
X-11358767Y-897263D01*
X-11318957Y-915537D01*
X-11278721Y-932833D01*
X-11238076Y-949143D01*
X-11197041Y-964460D01*
X-11155633Y-978776D01*
X-11113871Y-992083D01*
X-11071773Y-1004373D01*
X-11029355Y-1015638D01*
X-10986637Y-1025871D01*
X-10943636Y-1035063D01*
X-10900370Y-1043208D01*
X-10856858Y-1050296D01*
X-10813116Y-1056321D01*
X-10769163Y-1061275D01*
X-10725018Y-1065149D01*
X-10680697Y-1067937D01*
X-10636219Y-1069629D01*
X-10591601Y-1070219D01*
X-9138977Y-1070219D01*
X-9185221Y-1058425D01*
X-9230575Y-1044758D01*
X-9275004Y-1029265D01*
X-9318467Y-1011995D01*
X-9360929Y-992995D01*
X-9402350Y-972313D01*
X-9442693Y-949995D01*
X-9481920Y-926091D01*
X-9519993Y-900646D01*
X-9556875Y-873710D01*
X-9592527Y-845330D01*
X-9626911Y-815552D01*
X-9659990Y-784426D01*
X-9691726Y-751998D01*
X-9722080Y-718315D01*
X-9751016Y-683427D01*
X-9778494Y-647380D01*
X-9804478Y-610222D01*
X-9828929Y-572000D01*
X-9851810Y-532762D01*
X-9873082Y-492556D01*
X-9892708Y-451429D01*
X-9910650Y-409430D01*
X-9926869Y-366605D01*
X-9941329Y-323002D01*
X-9953991Y-278668D01*
X-9964817Y-233652D01*
X-9973770Y-188001D01*
X-9980811Y-141763D01*
X-9985903Y-94985D01*
X-9989008Y-47715D01*
X-9990088Y0D01*
X-9988666Y56620D01*
X-9984425Y112497D01*
X-9977436Y167561D01*
X-9967768Y221744D01*
X-9955489Y274976D01*
X-9940668Y327189D01*
X-9923376Y378312D01*
X-9903680Y428277D01*
X-9881650Y477015D01*
X-9857356Y524457D01*
X-9830866Y570533D01*
X-9802250Y615174D01*
X-9771577Y658312D01*
X-9738916Y699876D01*
X-9704335Y739798D01*
X-9667905Y778009D01*
X-9629695Y814439D01*
X-9589773Y849019D01*
X-9548208Y881680D01*
X-9505071Y912354D01*
X-9460430Y940970D01*
X-9414354Y967460D01*
X-9366912Y991754D01*
X-9318174Y1013783D01*
X-9268209Y1033479D01*
X-9217085Y1050772D01*
X-9164873Y1065592D01*
X-9111640Y1077871D01*
X-9057457Y1087540D01*
X-9002393Y1094529D01*
X-8946516Y1098769D01*
X-8889896Y1100191D01*
X-8833296Y1098743D01*
X-8777439Y1094480D01*
X-8722395Y1087469D01*
X-8668233Y1077781D01*
X-8615022Y1065485D01*
X-8562831Y1050649D01*
X-8511729Y1033342D01*
X-8461785Y1013635D01*
X-8413069Y991595D01*
X-8365649Y967293D01*
X-8319594Y940796D01*
X-8274974Y912175D01*
X-8231858Y881499D01*
X-8190314Y848835D01*
X-8150413Y814255D01*
X-8112222Y777826D01*
X-8075811Y739618D01*
X-8041249Y699700D01*
X-8008606Y658141D01*
X-7977949Y615011D01*
X-7949349Y570377D01*
X-7922874Y524310D01*
X-7898594Y476879D01*
X-7876577Y428152D01*
X-7856893Y378199D01*
X-7839611Y327089D01*
X-7824800Y274891D01*
X-7812528Y221674D01*
X-7802865Y167507D01*
X-7795881Y112460D01*
X-7791643Y56601D01*
X-7790222Y0D01*
X-7791296Y-47701D01*
X-7794394Y-94957D01*
X-7799478Y-141723D01*
X-7806509Y-187949D01*
X-7815452Y-233588D01*
X-7826266Y-278593D01*
X-7838915Y-322916D01*
X-7853362Y-366510D01*
X-7869567Y-409326D01*
X-7887493Y-451318D01*
X-7907103Y-492438D01*
X-7928359Y-532638D01*
X-7951222Y-571871D01*
X-7975655Y-610088D01*
X-8001621Y-647244D01*
X-8029080Y-683289D01*
X-8057997Y-718176D01*
X-8088332Y-751859D01*
X-8120048Y-784288D01*
X-8153107Y-815417D01*
X-8187471Y-845198D01*
X-8223103Y-873584D01*
X-8259965Y-900527D01*
X-8298018Y-925978D01*
X-8337226Y-949892D01*
X-8377550Y-972220D01*
X-8418952Y-992914D01*
X-8461395Y-1011927D01*
X-8504840Y-1029212D01*
X-8549251Y-1044721D01*
X-8594589Y-1058405D01*
X-8640816Y-1070219D01*
X-6599080Y-1070219D01*
X-6645327Y-1058424D01*
X-6690684Y-1044756D01*
X-6735115Y-1029263D01*
X-6778581Y-1011992D01*
X-6821043Y-992992D01*
X-6862466Y-972309D01*
X-6902810Y-949991D01*
X-6942038Y-926087D01*
X-6980111Y-900642D01*
X-7016993Y-873706D01*
X-7052645Y-845325D01*
X-7087029Y-815548D01*
X-7120108Y-784422D01*
X-7151843Y-751994D01*
X-7182196Y-718312D01*
X-7211131Y-683423D01*
X-7238609Y-647376D01*
X-7264592Y-610218D01*
X-7289042Y-571997D01*
X-7311922Y-532760D01*
X-7333193Y-492554D01*
X-7352818Y-451428D01*
X-7370758Y-409428D01*
X-7386977Y-366603D01*
X-7401436Y-323000D01*
X-7414097Y-278667D01*
X-7424922Y-233652D01*
X-7433874Y-188001D01*
X-7440915Y-141763D01*
X-7446007Y-94985D01*
X-7449111Y-47715D01*
X-7450191Y0D01*
X-7448769Y56620D01*
X-7444529Y112497D01*
X-7437540Y167561D01*
X-7427871Y221744D01*
X-7415592Y274976D01*
X-7400772Y327189D01*
X-7383479Y378312D01*
X-7363783Y428277D01*
X-7341754Y477015D01*
X-7317460Y524457D01*
X-7290970Y570533D01*
X-7262354Y615174D01*
X-7231680Y658312D01*
X-7199019Y699876D01*
X-7164439Y739798D01*
X-7128009Y778009D01*
X-7089798Y814439D01*
X-7049876Y849019D01*
X-7008312Y881680D01*
X-6965174Y912354D01*
X-6920533Y940970D01*
X-6874457Y967460D01*
X-6827015Y991754D01*
X-6778277Y1013783D01*
X-6728312Y1033479D01*
X-6677188Y1050772D01*
X-6624976Y1065592D01*
X-6571744Y1077871D01*
X-6517561Y1087540D01*
X-6462496Y1094529D01*
X-6406620Y1098769D01*
X-6350000Y1100191D01*
X-6293380Y1098769D01*
X-6237503Y1094529D01*
X-6182439Y1087540D01*
X-6128256Y1077871D01*
X-6075024Y1065592D01*
X-6022811Y1050772D01*
X-5971688Y1033479D01*
X-5921722Y1013783D01*
X-5872984Y991754D01*
X-5825543Y967460D01*
X-5779467Y940970D01*
X-5734825Y912354D01*
X-5691688Y881680D01*
X-5650124Y849019D01*
X-5610202Y814439D01*
X-5571991Y778009D01*
X-5535561Y739798D01*
X-5500981Y699876D01*
X-5468319Y658312D01*
X-5437646Y615174D01*
X-5409030Y570533D01*
X-5382540Y524457D01*
X-5358246Y477015D01*
X-5336216Y428277D01*
X-5316521Y378312D01*
X-5299228Y327189D01*
X-5284408Y274976D01*
X-5272129Y221744D01*
X-5262460Y167561D01*
X-5255471Y112497D01*
X-5251231Y56620D01*
X-5249809Y0D01*
X-5250872Y-47673D01*
X-5253956Y-94902D01*
X-5259024Y-141642D01*
X-5266038Y-187844D01*
X-5274961Y-233460D01*
X-5285753Y-278444D01*
X-5298379Y-322747D01*
X-5312800Y-366323D01*
X-5328978Y-409123D01*
X-5346876Y-451100D01*
X-5366456Y-492206D01*
X-5387680Y-532395D01*
X-5410511Y-571618D01*
X-5434910Y-609829D01*
X-5460841Y-646978D01*
X-5488265Y-683020D01*
X-5517144Y-717906D01*
X-5547442Y-751589D01*
X-5579119Y-784022D01*
X-5612140Y-815156D01*
X-5646465Y-844945D01*
X-5682057Y-873340D01*
X-5718878Y-900295D01*
X-5756891Y-925762D01*
X-5796058Y-949693D01*
X-5836342Y-972041D01*
X-5877703Y-992758D01*
X-5920106Y-1011797D01*
X-5963511Y-1029110D01*
X-6007882Y-1044650D01*
X-6053181Y-1058368D01*
X-6099369Y-1070219D01*
X-4058667Y-1070219D01*
X-4104914Y-1058424D01*
X-4150271Y-1044756D01*
X-4194702Y-1029263D01*
X-4238167Y-1011992D01*
X-4280630Y-992992D01*
X-4322053Y-972309D01*
X-4362397Y-949991D01*
X-4401624Y-926087D01*
X-4439698Y-900642D01*
X-4476580Y-873706D01*
X-4512232Y-845325D01*
X-4546616Y-815548D01*
X-4579694Y-784422D01*
X-4611429Y-751994D01*
X-4641783Y-718312D01*
X-4670718Y-683423D01*
X-4698196Y-647376D01*
X-4724179Y-610218D01*
X-4748629Y-571997D01*
X-4771508Y-532760D01*
X-4792779Y-492554D01*
X-4812404Y-451428D01*
X-4830345Y-409428D01*
X-4846564Y-366603D01*
X-4861023Y-323000D01*
X-4873684Y-278667D01*
X-4884509Y-233652D01*
X-4893461Y-188001D01*
X-4900502Y-141763D01*
X-4905594Y-94985D01*
X-4908698Y-47715D01*
X-4909778Y0D01*
X-4908357Y56601D01*
X-4904119Y112460D01*
X-4897135Y167507D01*
X-4887472Y221674D01*
X-4875200Y274891D01*
X-4860389Y327089D01*
X-4843106Y378199D01*
X-4823422Y428152D01*
X-4801406Y476879D01*
X-4777125Y524310D01*
X-4750651Y570377D01*
X-4722051Y615011D01*
X-4691394Y658141D01*
X-4658750Y699700D01*
X-4624189Y739618D01*
X-4587778Y777826D01*
X-4549587Y814255D01*
X-4509685Y848835D01*
X-4468142Y881499D01*
X-4425025Y912175D01*
X-4380406Y940796D01*
X-4334351Y967293D01*
X-4286931Y991595D01*
X-4238215Y1013635D01*
X-4188271Y1033342D01*
X-4137169Y1050649D01*
X-4084978Y1065485D01*
X-4031767Y1077781D01*
X-3977605Y1087469D01*
X-3922561Y1094480D01*
X-3866704Y1098743D01*
X-3810103Y1100191D01*
X-3810103Y1440222D01*
X-3866685Y1441669D01*
X-3922524Y1445930D01*
X-3977551Y1452936D01*
X-4031697Y1462618D01*
X-4084893Y1474907D01*
X-4137070Y1489734D01*
X-4188158Y1507030D01*
X-4238090Y1526726D01*
X-4286795Y1548753D01*
X-4334204Y1573042D01*
X-4380250Y1599523D01*
X-4424862Y1628128D01*
X-4467971Y1658788D01*
X-4509509Y1691433D01*
X-4549407Y1725995D01*
X-4587595Y1762405D01*
X-4624005Y1800593D01*
X-4658567Y1840490D01*
X-4691212Y1882029D01*
X-4721872Y1925138D01*
X-4750477Y1969750D01*
X-4776958Y2015796D01*
X-4801247Y2063205D01*
X-4823274Y2111910D01*
X-4842969Y2161842D01*
X-4860265Y2212930D01*
X-4875093Y2265107D01*
X-4887382Y2318303D01*
X-4897064Y2372449D01*
X-4904070Y2427476D01*
X-4908331Y2483315D01*
X-4909778Y2539897D01*
X-4908357Y2596498D01*
X-4904119Y2652357D01*
X-4897135Y2707404D01*
X-4887472Y2761571D01*
X-4875200Y2814788D01*
X-4860389Y2866986D01*
X-4843106Y2918096D01*
X-4823422Y2968049D01*
X-4801406Y3016776D01*
X-4777125Y3064207D01*
X-4750651Y3110274D01*
X-4722051Y3154908D01*
X-4691394Y3198038D01*
X-4658750Y3239597D01*
X-4624189Y3279515D01*
X-4587778Y3317723D01*
X-4549587Y3354152D01*
X-4509685Y3388733D01*
X-4468142Y3421396D01*
X-4425025Y3452073D01*
X-4380406Y3480694D01*
X-4334351Y3507190D01*
X-4286931Y3531493D01*
X-4238215Y3553532D01*
X-4188271Y3573240D01*
X-4137169Y3590546D01*
X-4084978Y3605382D01*
X-4031767Y3617678D01*
X-3977605Y3627366D01*
X-3922561Y3634377D01*
X-3866704Y3638640D01*
X-3810103Y3640088D01*
X-3753484Y3638666D01*
X-3697607Y3634426D01*
X-3642542Y3627437D01*
X-3588360Y3617768D01*
X-3535127Y3605489D01*
X-3482915Y3590668D01*
X-3431791Y3573376D01*
X-3381826Y3553680D01*
X-3333088Y3531651D01*
X-3285646Y3507356D01*
X-3239570Y3480867D01*
X-3194929Y3452251D01*
X-3151791Y3421577D01*
X-3110227Y3388916D01*
X-3070305Y3354335D01*
X-3032095Y3317905D01*
X-2995665Y3279695D01*
X-2961084Y3239773D01*
X-2928423Y3198209D01*
X-2897750Y3155071D01*
X-2869133Y3110430D01*
X-2842644Y3064354D01*
X-2818349Y3016912D01*
X-2796320Y2968174D01*
X-2776624Y2918209D01*
X-2759332Y2867085D01*
X-2744511Y2814873D01*
X-2732232Y2761640D01*
X-2722563Y2707458D01*
X-2715574Y2652393D01*
X-2711334Y2596516D01*
X-2709912Y2539897D01*
X-2369881Y2539897D01*
X-2368460Y2596498D01*
X-2364222Y2652357D01*
X-2357238Y2707404D01*
X-2347575Y2761571D01*
X-2335304Y2814788D01*
X-2320492Y2866986D01*
X-2303210Y2918096D01*
X-2283526Y2968049D01*
X-2261509Y3016776D01*
X-2237229Y3064207D01*
X-2210754Y3110274D01*
X-2182154Y3154908D01*
X-2151498Y3198038D01*
X-2118854Y3239597D01*
X-2084292Y3279515D01*
X-2047881Y3317723D01*
X-2009691Y3354152D01*
X-1969789Y3388733D01*
X-1928245Y3421396D01*
X-1885129Y3452073D01*
X-1840509Y3480694D01*
X-1794455Y3507190D01*
X-1747035Y3531493D01*
X-1698318Y3553532D01*
X-1648375Y3573240D01*
X-1597273Y3590546D01*
X-1545082Y3605382D01*
X-1491870Y3617678D01*
X-1437708Y3627366D01*
X-1382664Y3634377D01*
X-1326807Y3638640D01*
X-1270207Y3640088D01*
X-1213587Y3638666D01*
X-1157710Y3634426D01*
X-1102646Y3627437D01*
X-1048463Y3617768D01*
X-995231Y3605489D01*
X-943018Y3590668D01*
X-891895Y3573376D01*
X-841929Y3553680D01*
X-793191Y3531651D01*
X-745750Y3507356D01*
X-699674Y3480867D01*
X-655032Y3452251D01*
X-611895Y3421577D01*
X-570331Y3388916D01*
X-530409Y3354335D01*
X-492198Y3317905D01*
X-455768Y3279695D01*
X-421188Y3239773D01*
X-388526Y3198209D01*
X-357853Y3155071D01*
X-329237Y3110430D01*
X-302747Y3064354D01*
X-278453Y3016912D01*
X-256423Y2968174D01*
X-236728Y2918209D01*
X-219435Y2867085D01*
X-204614Y2814873D01*
X-192335Y2761640D01*
X-182667Y2707458D01*
X-175678Y2652393D01*
X-171438Y2596516D01*
X-170015Y2539897D01*
X170015Y2539897D01*
X171438Y2596516D01*
X175678Y2652393D01*
X182667Y2707457D01*
X192335Y2761640D01*
X204614Y2814873D01*
X219435Y2867085D01*
X236728Y2918208D01*
X256423Y2968174D01*
X278453Y3016912D01*
X302747Y3064354D01*
X329237Y3110430D01*
X357853Y3155071D01*
X388526Y3198208D01*
X421188Y3239773D01*
X455768Y3279695D01*
X492198Y3317905D01*
X530409Y3354335D01*
X570331Y3388916D01*
X611895Y3421577D01*
X655032Y3452250D01*
X699674Y3480867D01*
X745750Y3507356D01*
X793191Y3531651D01*
X841929Y3553680D01*
X891895Y3573376D01*
X943018Y3590668D01*
X995231Y3605489D01*
X1048463Y3617768D01*
X1102646Y3627437D01*
X1157710Y3634426D01*
X1213587Y3638666D01*
X1270207Y3640088D01*
X1326807Y3638640D01*
X1382664Y3634377D01*
X1437708Y3627366D01*
X1491870Y3617678D01*
X1545081Y3605382D01*
X1597273Y3590546D01*
X1648375Y3573240D01*
X1698318Y3553532D01*
X1747035Y3531493D01*
X1794455Y3507190D01*
X1840509Y3480694D01*
X1885129Y3452073D01*
X1928245Y3421396D01*
X1969789Y3388733D01*
X2009690Y3354152D01*
X2047881Y3317723D01*
X2084292Y3279515D01*
X2118854Y3239597D01*
X2151498Y3198038D01*
X2182154Y3154908D01*
X2210754Y3110274D01*
X2237229Y3064207D01*
X2261509Y3016776D01*
X2283526Y2968049D01*
X2303210Y2918096D01*
X2320492Y2866986D01*
X2335304Y2814788D01*
X2347575Y2761571D01*
X2357238Y2707404D01*
X2364222Y2652357D01*
X2368460Y2596498D01*
X2369881Y2539897D01*
X2709912Y2539897D01*
X2711334Y2596516D01*
X2715574Y2652393D01*
X2722563Y2707458D01*
X2732232Y2761640D01*
X2744511Y2814873D01*
X2759331Y2867085D01*
X2776624Y2918209D01*
X2796320Y2968174D01*
X2818349Y3016912D01*
X2842643Y3064354D01*
X2869133Y3110430D01*
X2897749Y3155071D01*
X2928423Y3198209D01*
X2961084Y3239773D01*
X2995664Y3279695D01*
X3032095Y3317905D01*
X3070305Y3354335D01*
X3110227Y3388916D01*
X3151791Y3421577D01*
X3194929Y3452251D01*
X3239570Y3480867D01*
X3285646Y3507356D01*
X3333088Y3531651D01*
X3381826Y3553680D01*
X3431791Y3573376D01*
X3482915Y3590668D01*
X3535127Y3605489D01*
X3588360Y3617768D01*
X3642542Y3627437D01*
X3697607Y3634426D01*
X3753484Y3638666D01*
X3810103Y3640088D01*
X3866704Y3638640D01*
X3922561Y3634377D01*
X3977605Y3627366D01*
X4031767Y3617678D01*
X4084978Y3605382D01*
X4137169Y3590546D01*
X4188271Y3573240D01*
X4238215Y3553532D01*
X4286931Y3531493D01*
X4334351Y3507190D01*
X4380406Y3480694D01*
X4425025Y3452073D01*
X4468142Y3421396D01*
X4509685Y3388733D01*
X4549587Y3354152D01*
X4587778Y3317723D01*
X4624189Y3279515D01*
X4658750Y3239597D01*
X4691394Y3198038D01*
X4722051Y3154908D01*
X4750651Y3110274D01*
X4777125Y3064207D01*
X4801406Y3016776D01*
X4823422Y2968049D01*
X4843106Y2918096D01*
X4860389Y2866986D01*
X4875200Y2814788D01*
X4887472Y2761571D01*
X4897135Y2707404D01*
X4904119Y2652357D01*
X4908357Y2596498D01*
X4909778Y2539897D01*
X4908331Y2483315D01*
X4904070Y2427476D01*
X4897064Y2372449D01*
X4887382Y2318303D01*
X4875092Y2265107D01*
X4860265Y2212930D01*
X4842969Y2161842D01*
X4823273Y2111910D01*
X4801247Y2063205D01*
X4776958Y2015796D01*
X4750477Y1969750D01*
X4721872Y1925138D01*
X4691212Y1882029D01*
X4658567Y1840490D01*
X4624005Y1800593D01*
X4587595Y1762405D01*
X4549407Y1725995D01*
X4509509Y1691433D01*
X4467971Y1658788D01*
X4424862Y1628128D01*
X4380250Y1599523D01*
X4334204Y1573042D01*
X4286794Y1548753D01*
X4238089Y1526726D01*
X4188158Y1507030D01*
X4137070Y1489734D01*
X4084893Y1474907D01*
X4031697Y1462618D01*
X3977551Y1452936D01*
X3922524Y1445930D01*
X3866685Y1441669D01*
X3810103Y1440222D01*
X3753502Y1441643D01*
X3697643Y1445881D01*
X3642596Y1452865D01*
X3588429Y1462528D01*
X3535212Y1474800D01*
X3483014Y1489611D01*
X3431904Y1506894D01*
X3381951Y1526578D01*
X3333224Y1548594D01*
X3285793Y1572874D01*
X3239726Y1599349D01*
X3195092Y1627949D01*
X3151961Y1658606D01*
X3110402Y1691249D01*
X3070484Y1725811D01*
X3032276Y1762222D01*
X2995848Y1800413D01*
X2961267Y1840315D01*
X2928604Y1881858D01*
X2897927Y1924974D01*
X2869306Y1969594D01*
X2842810Y2015649D01*
X2818507Y2063069D01*
X2796468Y2111785D01*
X2776760Y2161729D01*
X2759454Y2212831D01*
X2744618Y2265022D01*
X2732322Y2318233D01*
X2722634Y2372395D01*
X2715623Y2427439D01*
X2711360Y2483296D01*
X2709912Y2539897D01*
X2369881Y2539897D01*
X2368434Y2483315D01*
X2364173Y2427476D01*
X2357167Y2372449D01*
X2347485Y2318303D01*
X2335196Y2265107D01*
X2320369Y2212930D01*
X2303073Y2161842D01*
X2283377Y2111910D01*
X2261350Y2063205D01*
X2237062Y2015796D01*
X2210581Y1969750D01*
X2181976Y1925138D01*
X2151316Y1882029D01*
X2118670Y1840490D01*
X2084108Y1800593D01*
X2047699Y1762405D01*
X2009511Y1725995D01*
X1969613Y1691433D01*
X1928075Y1658788D01*
X1884965Y1628128D01*
X1840353Y1599523D01*
X1794308Y1573042D01*
X1746898Y1548753D01*
X1698193Y1526726D01*
X1648262Y1507030D01*
X1597173Y1489734D01*
X1544997Y1474907D01*
X1491801Y1462618D01*
X1437655Y1452936D01*
X1382628Y1445930D01*
X1326789Y1441669D01*
X1270207Y1440222D01*
X1213605Y1441643D01*
X1157747Y1445881D01*
X1102699Y1452865D01*
X1048533Y1462528D01*
X995316Y1474800D01*
X943118Y1489611D01*
X892008Y1506894D01*
X842055Y1526578D01*
X793328Y1548594D01*
X745897Y1572874D01*
X699830Y1599349D01*
X655196Y1627949D01*
X612066Y1658606D01*
X570507Y1691249D01*
X530589Y1725811D01*
X492381Y1762222D01*
X455952Y1800413D01*
X421371Y1840315D01*
X388708Y1881858D01*
X358032Y1924974D01*
X329411Y1969594D01*
X302914Y2015649D01*
X278612Y2063069D01*
X256572Y2111785D01*
X236865Y2161729D01*
X219558Y2212831D01*
X204722Y2265022D01*
X192426Y2318233D01*
X182737Y2372395D01*
X175727Y2427439D01*
X171463Y2483296D01*
X170015Y2539897D01*
X-170015Y2539897D01*
X-171463Y2483296D01*
X-175727Y2427439D01*
X-182737Y2372395D01*
X-192426Y2318233D01*
X-204722Y2265022D01*
X-219558Y2212831D01*
X-236865Y2161729D01*
X-256572Y2111785D01*
X-278612Y2063069D01*
X-302914Y2015649D01*
X-329410Y1969594D01*
X-358032Y1924974D01*
X-388708Y1881858D01*
X-421371Y1840315D01*
X-455952Y1800413D01*
X-492381Y1762222D01*
X-530589Y1725811D01*
X-570507Y1691249D01*
X-612066Y1658606D01*
X-655196Y1627949D01*
X-699830Y1599349D01*
X-745897Y1572874D01*
X-793328Y1548594D01*
X-842055Y1526578D01*
X-892008Y1506894D01*
X-943118Y1489611D01*
X-995316Y1474800D01*
X-1048533Y1462528D01*
X-1102699Y1452865D01*
X-1157747Y1445881D01*
X-1213605Y1441643D01*
X-1270207Y1440222D01*
X-1326789Y1441669D01*
X-1382628Y1445930D01*
X-1437655Y1452936D01*
X-1491801Y1462618D01*
X-1544997Y1474907D01*
X-1597173Y1489734D01*
X-1648262Y1507030D01*
X-1698193Y1526726D01*
X-1746898Y1548753D01*
X-1794308Y1573042D01*
X-1840353Y1599523D01*
X-1884965Y1628128D01*
X-1928075Y1658788D01*
X-1969613Y1691433D01*
X-2009511Y1725995D01*
X-2047699Y1762405D01*
X-2084108Y1800593D01*
X-2118670Y1840490D01*
X-2151316Y1882029D01*
X-2181976Y1925138D01*
X-2210581Y1969750D01*
X-2237062Y2015796D01*
X-2261350Y2063205D01*
X-2283377Y2111910D01*
X-2303073Y2161842D01*
X-2320369Y2212930D01*
X-2335196Y2265107D01*
X-2347485Y2318303D01*
X-2357167Y2372449D01*
X-2364173Y2427476D01*
X-2368434Y2483315D01*
X-2369881Y2539897D01*
X-2709912Y2539897D01*
X-2711360Y2483296D01*
X-2715623Y2427439D01*
X-2722634Y2372395D01*
X-2732322Y2318233D01*
X-2744618Y2265022D01*
X-2759454Y2212831D01*
X-2776760Y2161729D01*
X-2796468Y2111785D01*
X-2818507Y2063069D01*
X-2842810Y2015649D01*
X-2869306Y1969594D01*
X-2897927Y1924974D01*
X-2928604Y1881858D01*
X-2961267Y1840315D01*
X-2995848Y1800413D01*
X-3032276Y1762222D01*
X-3070484Y1725811D01*
X-3110403Y1691249D01*
X-3151961Y1658606D01*
X-3195092Y1627949D01*
X-3239726Y1599349D01*
X-3285793Y1572874D01*
X-3333224Y1548594D01*
X-3381951Y1526578D01*
X-3431904Y1506894D01*
X-3483014Y1489611D01*
X-3535212Y1474800D01*
X-3588429Y1462528D01*
X-3642596Y1452865D01*
X-3697643Y1445881D01*
X-3753502Y1441643D01*
X-3810103Y1440222D01*
X-3810103Y1100191D01*
X-3753484Y1098769D01*
X-3697607Y1094529D01*
X-3642542Y1087540D01*
X-3588360Y1077871D01*
X-3535127Y1065592D01*
X-3482915Y1050772D01*
X-3431791Y1033479D01*
X-3381826Y1013783D01*
X-3333088Y991754D01*
X-3285646Y967460D01*
X-3239570Y940970D01*
X-3194929Y912354D01*
X-3151791Y881680D01*
X-3110227Y849019D01*
X-3070305Y814439D01*
X-3032095Y778009D01*
X-2995665Y739798D01*
X-2961084Y699876D01*
X-2928423Y658312D01*
X-2897750Y615174D01*
X-2869133Y570533D01*
X-2842644Y524457D01*
X-2818349Y477015D01*
X-2796320Y428277D01*
X-2776624Y378312D01*
X-2759332Y327189D01*
X-2744511Y274976D01*
X-2732232Y221744D01*
X-2722563Y167561D01*
X-2715574Y112497D01*
X-2711334Y56620D01*
X-2709912Y0D01*
X-2710975Y-47673D01*
X-2714060Y-94902D01*
X-2719128Y-141642D01*
X-2726142Y-187844D01*
X-2735064Y-233460D01*
X-2745857Y-278444D01*
X-2758483Y-322747D01*
X-2772903Y-366323D01*
X-2789082Y-409123D01*
X-2806980Y-451100D01*
X-2826559Y-492206D01*
X-2847784Y-532395D01*
X-2870614Y-571618D01*
X-2895014Y-609829D01*
X-2920944Y-646978D01*
X-2948368Y-683020D01*
X-2977248Y-717906D01*
X-3007545Y-751589D01*
X-3039223Y-784022D01*
X-3072243Y-815156D01*
X-3106568Y-844945D01*
X-3142160Y-873340D01*
X-3178982Y-900295D01*
X-3216995Y-925762D01*
X-3256162Y-949693D01*
X-3296445Y-972041D01*
X-3337807Y-992758D01*
X-3380209Y-1011797D01*
X-3423615Y-1029110D01*
X-3467986Y-1044650D01*
X-3513284Y-1058368D01*
X-3559473Y-1070219D01*
X-1518770Y-1070219D01*
X-1565017Y-1058424D01*
X-1610374Y-1044756D01*
X-1654805Y-1029263D01*
X-1698271Y-1011992D01*
X-1740734Y-992992D01*
X-1782156Y-972309D01*
X-1822500Y-949991D01*
X-1861728Y-926087D01*
X-1899801Y-900642D01*
X-1936683Y-873706D01*
X-1972335Y-845325D01*
X-2006719Y-815548D01*
X-2039798Y-784421D01*
X-2071533Y-751993D01*
X-2101887Y-718312D01*
X-2130821Y-683423D01*
X-2158299Y-647376D01*
X-2184282Y-610218D01*
X-2208732Y-571997D01*
X-2231612Y-532760D01*
X-2252883Y-492554D01*
X-2272508Y-451428D01*
X-2290448Y-409428D01*
X-2306667Y-366603D01*
X-2321126Y-323000D01*
X-2333787Y-278667D01*
X-2344613Y-233652D01*
X-2353565Y-188001D01*
X-2360605Y-141763D01*
X-2365697Y-94985D01*
X-2368801Y-47715D01*
X-2369881Y0D01*
X-2368460Y56601D01*
X-2364222Y112460D01*
X-2357238Y167507D01*
X-2347575Y221674D01*
X-2335304Y274891D01*
X-2320492Y327089D01*
X-2303210Y378199D01*
X-2283526Y428152D01*
X-2261509Y476879D01*
X-2237229Y524310D01*
X-2210754Y570377D01*
X-2182154Y615011D01*
X-2151498Y658141D01*
X-2118854Y699700D01*
X-2084292Y739618D01*
X-2047881Y777826D01*
X-2009691Y814255D01*
X-1969789Y848835D01*
X-1928245Y881499D01*
X-1885129Y912175D01*
X-1840509Y940796D01*
X-1794455Y967293D01*
X-1747035Y991595D01*
X-1698318Y1013635D01*
X-1648375Y1033342D01*
X-1597273Y1050649D01*
X-1545081Y1065485D01*
X-1491870Y1077781D01*
X-1437708Y1087469D01*
X-1382664Y1094480D01*
X-1326807Y1098743D01*
X-1270207Y1100191D01*
X-1213587Y1098769D01*
X-1157710Y1094529D01*
X-1102646Y1087540D01*
X-1048463Y1077871D01*
X-995231Y1065592D01*
X-943018Y1050772D01*
X-891895Y1033479D01*
X-841929Y1013783D01*
X-793191Y991754D01*
X-745750Y967460D01*
X-699674Y940970D01*
X-655032Y912354D01*
X-611895Y881680D01*
X-570331Y849019D01*
X-530409Y814439D01*
X-492198Y778009D01*
X-455768Y739798D01*
X-421188Y699876D01*
X-388526Y658312D01*
X-357853Y615174D01*
X-329237Y570533D01*
X-302747Y524457D01*
X-278453Y477015D01*
X-256423Y428277D01*
X-236728Y378312D01*
X-219435Y327189D01*
X-204614Y274976D01*
X-192335Y221744D01*
X-182667Y167561D01*
X-175678Y112497D01*
X-171438Y56620D01*
X-170015Y0D01*
X-171078Y-47673D01*
X-174161Y-94902D01*
X-179229Y-141642D01*
X-186242Y-187844D01*
X-195164Y-233460D01*
X-205957Y-278444D01*
X-218582Y-322747D01*
X-233003Y-366323D01*
X-249181Y-409123D01*
X-267079Y-451100D01*
X-286659Y-492206D01*
X-307883Y-532395D01*
X-330714Y-571618D01*
X-355113Y-609829D01*
X-381044Y-646978D01*
X-408468Y-683020D01*
X-437348Y-717906D01*
X-467646Y-751589D01*
X-499324Y-784022D01*
X-532344Y-815156D01*
X-566669Y-844945D01*
X-602262Y-873340D01*
X-639084Y-900295D01*
X-677097Y-925762D01*
X-716264Y-949693D01*
X-756548Y-972041D01*
X-797910Y-992758D01*
X-840312Y-1011797D01*
X-883718Y-1029110D01*
X-928089Y-1044650D01*
X-973388Y-1058368D01*
X-1019576Y-1070219D01*
X1021126Y-1070219D01*
X974880Y-1058424D01*
X929522Y-1044756D01*
X885092Y-1029263D01*
X841626Y-1011992D01*
X799163Y-992992D01*
X757741Y-972309D01*
X717397Y-949991D01*
X678169Y-926087D01*
X640095Y-900642D01*
X603214Y-873706D01*
X567562Y-845325D01*
X533178Y-815548D01*
X500099Y-784422D01*
X468364Y-751994D01*
X438010Y-718312D01*
X409075Y-683423D01*
X381598Y-647376D01*
X355615Y-610218D01*
X331165Y-571997D01*
X308285Y-532760D01*
X287014Y-492554D01*
X267389Y-451428D01*
X249448Y-409428D01*
X233230Y-366603D01*
X218771Y-323000D01*
X206110Y-278667D01*
X195284Y-233652D01*
X186332Y-188001D01*
X179291Y-141763D01*
X174200Y-94985D01*
X171095Y-47715D01*
X170015Y0D01*
X171438Y56620D01*
X175678Y112497D01*
X182667Y167561D01*
X192335Y221744D01*
X204614Y274976D01*
X219435Y327189D01*
X236728Y378312D01*
X256423Y428277D01*
X278453Y477015D01*
X302747Y524457D01*
X329237Y570533D01*
X357853Y615174D01*
X388526Y658312D01*
X421188Y699876D01*
X455768Y739798D01*
X492198Y778009D01*
X530409Y814439D01*
X570331Y849019D01*
X611895Y881680D01*
X655032Y912354D01*
X699674Y940970D01*
X745750Y967460D01*
X793191Y991754D01*
X841929Y1013783D01*
X891895Y1033479D01*
X943018Y1050772D01*
X995231Y1065592D01*
X1048463Y1077871D01*
X1102646Y1087540D01*
X1157710Y1094529D01*
X1213587Y1098769D01*
X1270207Y1100191D01*
X1326807Y1098743D01*
X1382664Y1094480D01*
X1437708Y1087469D01*
X1491870Y1077781D01*
X1545081Y1065485D01*
X1597273Y1050649D01*
X1648375Y1033342D01*
X1698318Y1013635D01*
X1747035Y991595D01*
X1794455Y967293D01*
X1840509Y940796D01*
X1885129Y912175D01*
X1928245Y881499D01*
X1969789Y848835D01*
X2009691Y814255D01*
X2047881Y777826D01*
X2084292Y739618D01*
X2118854Y699700D01*
X2151498Y658141D01*
X2182154Y615011D01*
X2210754Y570377D01*
X2237229Y524310D01*
X2261509Y476879D01*
X2283526Y428152D01*
X2303210Y378199D01*
X2320492Y327089D01*
X2335304Y274891D01*
X2347575Y221674D01*
X2357238Y167507D01*
X2364222Y112460D01*
X2368460Y56601D01*
X2369881Y0D01*
X2368807Y-47701D01*
X2365710Y-94957D01*
X2360626Y-141723D01*
X2353594Y-187949D01*
X2344652Y-233588D01*
X2333838Y-278593D01*
X2321189Y-322916D01*
X2306743Y-366510D01*
X2290537Y-409326D01*
X2272611Y-451318D01*
X2253001Y-492438D01*
X2231746Y-532638D01*
X2208882Y-571871D01*
X2184449Y-610088D01*
X2158484Y-647244D01*
X2131024Y-683289D01*
X2102107Y-718176D01*
X2071772Y-751859D01*
X2040056Y-784288D01*
X2006997Y-815417D01*
X1972632Y-845198D01*
X1937000Y-873584D01*
X1900139Y-900527D01*
X1862085Y-925978D01*
X1822877Y-949892D01*
X1782554Y-972220D01*
X1741151Y-992914D01*
X1698708Y-1011927D01*
X1655263Y-1029212D01*
X1610852Y-1044721D01*
X1565514Y-1058405D01*
X1519287Y-1070219D01*
X3561023Y-1070219D01*
X3514776Y-1058424D01*
X3469419Y-1044756D01*
X3424988Y-1029263D01*
X3381523Y-1011992D01*
X3339060Y-992992D01*
X3297637Y-972309D01*
X3257293Y-949991D01*
X3218065Y-926087D01*
X3179992Y-900642D01*
X3143110Y-873706D01*
X3107458Y-845325D01*
X3073074Y-815548D01*
X3039995Y-784421D01*
X3008260Y-751993D01*
X2977906Y-718312D01*
X2948972Y-683423D01*
X2921494Y-647376D01*
X2895511Y-610218D01*
X2871061Y-571997D01*
X2848181Y-532759D01*
X2826910Y-492554D01*
X2807285Y-451427D01*
X2789345Y-409428D01*
X2773126Y-366603D01*
X2758667Y-323000D01*
X2746006Y-278667D01*
X2735181Y-233652D01*
X2726228Y-188001D01*
X2719188Y-141763D01*
X2714096Y-94985D01*
X2710992Y-47715D01*
X2709912Y0D01*
X2711334Y56620D01*
X2715574Y112497D01*
X2722563Y167561D01*
X2732232Y221744D01*
X2744511Y274976D01*
X2759332Y327189D01*
X2776624Y378312D01*
X2796320Y428277D01*
X2818349Y477015D01*
X2842644Y524457D01*
X2869133Y570533D01*
X2897750Y615174D01*
X2928423Y658312D01*
X2961084Y699876D01*
X2995665Y739798D01*
X3032095Y778009D01*
X3070305Y814439D01*
X3110227Y849019D01*
X3151791Y881680D01*
X3194929Y912354D01*
X3239570Y940970D01*
X3285646Y967460D01*
X3333088Y991754D01*
X3381826Y1013783D01*
X3431791Y1033479D01*
X3482915Y1050772D01*
X3535127Y1065592D01*
X3588360Y1077871D01*
X3642542Y1087540D01*
X3697607Y1094529D01*
X3753484Y1098769D01*
X3810103Y1100191D01*
X3866704Y1098743D01*
X3922561Y1094480D01*
X3977605Y1087469D01*
X4031767Y1077781D01*
X4084978Y1065485D01*
X4137169Y1050649D01*
X4188271Y1033342D01*
X4238215Y1013635D01*
X4286931Y991595D01*
X4334351Y967293D01*
X4380406Y940796D01*
X4425025Y912175D01*
X4468142Y881499D01*
X4509685Y848835D01*
X4549587Y814255D01*
X4587778Y777826D01*
X4624189Y739618D01*
X4658750Y699700D01*
X4691394Y658141D01*
X4722051Y615011D01*
X4750651Y570377D01*
X4777125Y524310D01*
X4801406Y476879D01*
X4823422Y428152D01*
X4843106Y378199D01*
X4860389Y327089D01*
X4875200Y274891D01*
X4887472Y221674D01*
X4897135Y167507D01*
X4904119Y112460D01*
X4908357Y56601D01*
X4909778Y0D01*
X4908704Y-47701D01*
X4905606Y-94957D01*
X4900522Y-141723D01*
X4893490Y-187949D01*
X4884548Y-233588D01*
X4873734Y-278593D01*
X4861084Y-322916D01*
X4846638Y-366510D01*
X4830433Y-409326D01*
X4812507Y-451318D01*
X4792897Y-492438D01*
X4771641Y-532638D01*
X4748778Y-571871D01*
X4724345Y-610088D01*
X4698379Y-647244D01*
X4670919Y-683289D01*
X4642003Y-718176D01*
X4611668Y-751859D01*
X4579952Y-784288D01*
X4546893Y-815417D01*
X4512528Y-845198D01*
X4476897Y-873584D01*
X4440035Y-900527D01*
X4401981Y-925978D01*
X4362774Y-949892D01*
X4322450Y-972220D01*
X4281048Y-992914D01*
X4238605Y-1011927D01*
X4195159Y-1029212D01*
X4150749Y-1044721D01*
X4105411Y-1058405D01*
X4059184Y-1070219D01*
X6100920Y-1070219D01*
X6054673Y-1058424D01*
X6009316Y-1044756D01*
X5964885Y-1029263D01*
X5921419Y-1011992D01*
X5878956Y-992992D01*
X5837534Y-972309D01*
X5797190Y-949991D01*
X5757962Y-926087D01*
X5719888Y-900642D01*
X5683007Y-873706D01*
X5647355Y-845325D01*
X5612971Y-815548D01*
X5579892Y-784422D01*
X5548157Y-751994D01*
X5517803Y-718312D01*
X5488869Y-683423D01*
X5461391Y-647376D01*
X5435408Y-610218D01*
X5410958Y-571997D01*
X5388078Y-532760D01*
X5366807Y-492554D01*
X5347182Y-451428D01*
X5329242Y-409428D01*
X5313023Y-366603D01*
X5298564Y-323000D01*
X5285903Y-278667D01*
X5275077Y-233652D01*
X5266125Y-188001D01*
X5259085Y-141763D01*
X5253993Y-94985D01*
X5250888Y-47715D01*
X5249809Y0D01*
X5251231Y56620D01*
X5255471Y112497D01*
X5262460Y167561D01*
X5272129Y221744D01*
X5284408Y274976D01*
X5299228Y327189D01*
X5316521Y378312D01*
X5336216Y428277D01*
X5358246Y477015D01*
X5382540Y524457D01*
X5409030Y570533D01*
X5437646Y615174D01*
X5468319Y658312D01*
X5500981Y699876D01*
X5535561Y739798D01*
X5571991Y778009D01*
X5610202Y814439D01*
X5650124Y849019D01*
X5691688Y881680D01*
X5734825Y912354D01*
X5779467Y940970D01*
X5825543Y967460D01*
X5872984Y991754D01*
X5921722Y1013783D01*
X5971688Y1033479D01*
X6022811Y1050772D01*
X6075024Y1065592D01*
X6128256Y1077871D01*
X6182439Y1087540D01*
X6237503Y1094529D01*
X6293380Y1098769D01*
X6350000Y1100191D01*
X6406620Y1098769D01*
X6462496Y1094529D01*
X6517561Y1087540D01*
X6571744Y1077871D01*
X6624976Y1065592D01*
X6677188Y1050772D01*
X6728312Y1033479D01*
X6778277Y1013783D01*
X6827015Y991754D01*
X6874457Y967460D01*
X6920533Y940970D01*
X6965174Y912354D01*
X7008312Y881680D01*
X7049876Y849019D01*
X7089798Y814439D01*
X7128009Y778009D01*
X7164439Y739798D01*
X7199019Y699876D01*
X7231680Y658312D01*
X7262354Y615174D01*
X7290970Y570533D01*
X7317460Y524457D01*
X7341754Y477015D01*
X7363783Y428277D01*
X7383479Y378312D01*
X7400772Y327189D01*
X7415592Y274976D01*
X7427871Y221744D01*
X7437540Y167561D01*
X7444529Y112497D01*
X7448769Y56620D01*
X7450191Y0D01*
X7449128Y-47673D01*
X7446044Y-94902D01*
X7440976Y-141642D01*
X7433962Y-187844D01*
X7425039Y-233460D01*
X7414246Y-278444D01*
X7401621Y-322747D01*
X7387200Y-366323D01*
X7371022Y-409123D01*
X7353124Y-451100D01*
X7333544Y-492206D01*
X7312320Y-532395D01*
X7289489Y-571618D01*
X7265090Y-609829D01*
X7239159Y-646978D01*
X7211735Y-683020D01*
X7182856Y-717906D01*
X7152558Y-751589D01*
X7120880Y-784022D01*
X7087860Y-815156D01*
X7053535Y-844945D01*
X7017943Y-873340D01*
X6981122Y-900295D01*
X6943109Y-925762D01*
X6903941Y-949693D01*
X6863658Y-972041D01*
X6822297Y-992758D01*
X6779894Y-1011797D01*
X6736488Y-1029110D01*
X6692118Y-1044650D01*
X6646819Y-1058368D01*
X6600631Y-1070219D01*
X8641333Y-1070219D01*
X8595086Y-1058424D01*
X8549729Y-1044756D01*
X8505298Y-1029263D01*
X8461833Y-1011992D01*
X8419370Y-992992D01*
X8377947Y-972309D01*
X8337603Y-949991D01*
X8298375Y-926087D01*
X8260302Y-900642D01*
X8223420Y-873706D01*
X8187768Y-845325D01*
X8153384Y-815548D01*
X8120306Y-784422D01*
X8088570Y-751994D01*
X8058217Y-718312D01*
X8029282Y-683423D01*
X8001804Y-647376D01*
X7975821Y-610218D01*
X7951371Y-571997D01*
X7928492Y-532760D01*
X7907220Y-492554D01*
X7887596Y-451428D01*
X7869655Y-409428D01*
X7853436Y-366603D01*
X7838977Y-323000D01*
X7826316Y-278667D01*
X7815491Y-233652D01*
X7806539Y-188001D01*
X7799498Y-141763D01*
X7794406Y-94985D01*
X7791302Y-47715D01*
X7790222Y0D01*
X7791643Y56601D01*
X7795881Y112460D01*
X7802865Y167507D01*
X7812528Y221674D01*
X7824800Y274891D01*
X7839611Y327089D01*
X7856893Y378199D01*
X7876577Y428152D01*
X7898594Y476879D01*
X7922874Y524310D01*
X7949349Y570377D01*
X7977949Y615011D01*
X8008606Y658141D01*
X8041249Y699700D01*
X8075811Y739618D01*
X8112222Y777826D01*
X8150413Y814255D01*
X8190314Y848835D01*
X8231858Y881499D01*
X8274974Y912175D01*
X8319594Y940796D01*
X8365649Y967293D01*
X8413069Y991595D01*
X8461785Y1013635D01*
X8511729Y1033342D01*
X8562831Y1050649D01*
X8615022Y1065485D01*
X8668233Y1077781D01*
X8722395Y1087469D01*
X8777439Y1094480D01*
X8833296Y1098743D01*
X8889896Y1100191D01*
X8946516Y1098769D01*
X9002393Y1094529D01*
X9057457Y1087540D01*
X9111640Y1077871D01*
X9164873Y1065592D01*
X9217085Y1050772D01*
X9268209Y1033479D01*
X9318174Y1013783D01*
X9366912Y991754D01*
X9414354Y967460D01*
X9460430Y940970D01*
X9505071Y912354D01*
X9548208Y881680D01*
X9589773Y849019D01*
X9629695Y814439D01*
X9667905Y778009D01*
X9704335Y739798D01*
X9738916Y699876D01*
X9771577Y658312D01*
X9802250Y615174D01*
X9830866Y570533D01*
X9857356Y524457D01*
X9881650Y477015D01*
X9903680Y428277D01*
X9923376Y378312D01*
X9940668Y327189D01*
X9955489Y274976D01*
X9967768Y221744D01*
X9977436Y167561D01*
X9984425Y112497D01*
X9988666Y56620D01*
X9990088Y0D01*
X9989026Y-47673D01*
X9985942Y-94902D01*
X9980875Y-141642D01*
X9973861Y-187844D01*
X9964939Y-233460D01*
X9954147Y-278444D01*
X9941521Y-322747D01*
X9927101Y-366323D01*
X9910923Y-409123D01*
X9893025Y-451100D01*
X9873445Y-492206D01*
X9852221Y-532395D01*
X9829390Y-571618D01*
X9804991Y-609829D01*
X9779060Y-646978D01*
X9751636Y-683020D01*
X9722756Y-717906D01*
X9692458Y-751589D01*
X9660780Y-784022D01*
X9627759Y-815156D01*
X9593434Y-844945D01*
X9557842Y-873340D01*
X9521020Y-900295D01*
X9483006Y-925762D01*
X9443839Y-949693D01*
X9403556Y-972041D01*
X9362194Y-992758D01*
X9319791Y-1011797D01*
X9276385Y-1029110D01*
X9232014Y-1044650D01*
X9186716Y-1058368D01*
X9140527Y-1070219D01*
X10591601Y-1070219D01*
X10636223Y-1069621D01*
X10680705Y-1067921D01*
X10725029Y-1065127D01*
X10769178Y-1061248D01*
X10813132Y-1056289D01*
X10856875Y-1050260D01*
X10900389Y-1043168D01*
X10943655Y-1035021D01*
X10986657Y-1025827D01*
X11029374Y-1015593D01*
X11071791Y-1004327D01*
X11113889Y-992037D01*
X11155650Y-978731D01*
X11197056Y-964416D01*
X11238090Y-949100D01*
X11278733Y-932791D01*
X11318967Y-915497D01*
X11358776Y-897225D01*
X11398139Y-877984D01*
X11437041Y-857780D01*
X11475462Y-836622D01*
X11513386Y-814518D01*
X11550793Y-791474D01*
X11587667Y-767500D01*
X11623989Y-742602D01*
X11659742Y-716789D01*
X11694906Y-690068D01*
X11729466Y-662448D01*
X11763402Y-633934D01*
X11796697Y-604537D01*
X11829333Y-574263D01*
X11861291Y-543119D01*
X11867784Y-536721D01*
X11874554Y-530630D01*
X11881590Y-524857D01*
X11888881Y-519410D01*
X11896415Y-514298D01*
X11904183Y-509530D01*
X11961202Y1251037D01*
X11923127Y1253940D01*
X11885605Y1258716D01*
X11848684Y1265316D01*
X11812411Y1273694D01*
X11776832Y1283803D01*
X11741996Y1295595D01*
X11707949Y1309024D01*
X11674738Y1324043D01*
X11642410Y1340604D01*
X11611013Y1358660D01*
X11580593Y1378164D01*
X11551198Y1399070D01*
X11522874Y1421329D01*
X11495669Y1444896D01*
X11469629Y1469723D01*
X11444802Y1495762D01*
X11421236Y1522967D01*
X11398976Y1551291D01*
X11378070Y1580687D01*
X11358566Y1611107D01*
X11340510Y1642504D01*
X11323949Y1674832D01*
X11308930Y1708043D01*
X11295501Y1742090D01*
X11283709Y1776926D01*
X11273600Y1812504D01*
X11265222Y1848777D01*
X11258622Y1885698D01*
X11253847Y1923220D01*
X11250943Y1961296D01*
X11249959Y1999878D01*
X11250918Y2038479D01*
X11253797Y2076575D01*
X11258551Y2114117D01*
X11265132Y2151059D01*
X11273493Y2187353D01*
X11283586Y2222952D01*
X11295365Y2257810D01*
X11308782Y2291879D01*
X11323790Y2325112D01*
X11340343Y2357461D01*
X11358392Y2388880D01*
X11377892Y2419321D01*
X11398794Y2448738D01*
X11421052Y2477082D01*
X11444619Y2504308D01*
X11469446Y2530367D01*
X11495489Y2555213D01*
X11522698Y2578798D01*
X11551027Y2601075D01*
X11580429Y2621998D01*
X11610857Y2641519D01*
X11642263Y2659590D01*
X11674601Y2676165D01*
X11707824Y2691196D01*
X11741883Y2704637D01*
X11776733Y2716439D01*
X11812326Y2726557D01*
X11848614Y2734943D01*
X11885551Y2741549D01*
X11923090Y2746328D01*
X11961184Y2749234D01*
X11999784Y2750220D01*
X12038404Y2749260D01*
X12076517Y2746378D01*
X12114076Y2741620D01*
X12151034Y2735033D01*
X12187344Y2726665D01*
X12222958Y2716563D01*
X12257829Y2704774D01*
X12291911Y2691345D01*
X12325155Y2676323D01*
X12357514Y2659757D01*
X12388942Y2641692D01*
X12419392Y2622177D01*
X12448815Y2601257D01*
X12477165Y2578982D01*
X12504394Y2555397D01*
X12530456Y2530550D01*
X12555303Y2504488D01*
X12578888Y2477258D01*
X12601164Y2448908D01*
X12622083Y2419485D01*
X12641599Y2389036D01*
X12659663Y2357608D01*
X12676230Y2325248D01*
X12691251Y2292004D01*
X12704680Y2257923D01*
X12716469Y2223052D01*
X12726571Y2187438D01*
X12734939Y2151128D01*
X12741526Y2114170D01*
X12746284Y2076611D01*
X12749166Y2038498D01*
X12750126Y1999878D01*
X12749141Y1961277D01*
X12746235Y1923184D01*
X12741455Y1885645D01*
X12734849Y1848708D01*
X12726463Y1812419D01*
X12716346Y1776827D01*
X12704543Y1741977D01*
X12691102Y1707917D01*
X12676071Y1674695D01*
X12659496Y1642357D01*
X12641425Y1610951D01*
X12621904Y1580523D01*
X12600982Y1551121D01*
X12578704Y1522791D01*
X12555119Y1495582D01*
X12530273Y1469540D01*
X12504214Y1444712D01*
X12476989Y1421146D01*
X12448644Y1398888D01*
X12419228Y1377986D01*
X12388786Y1358486D01*
X12357368Y1340437D01*
X12325018Y1323884D01*
X12291785Y1308875D01*
X12257717Y1295458D01*
X12222859Y1283680D01*
X12187259Y1273586D01*
X12150965Y1265226D01*
X12114023Y1258645D01*
X12076481Y1253891D01*
X12038386Y1251011D01*
X11999784Y1250053D01*
X11961202Y1251037D01*
X11904183Y-509530D01*
X11892814Y-515731D01*
X15744258Y3337781D01*
X15738056Y3320210D01*
X15742919Y3328743D01*
X15748198Y3337018D01*
X15753879Y3345019D01*
X15759948Y3352732D01*
X15766392Y3360142D01*
X15773196Y3367235D01*
X15804342Y3399198D01*
X15834622Y3431846D01*
X15864029Y3465162D01*
X15892554Y3499126D01*
X15920189Y3533721D01*
X15946926Y3568928D01*
X15972758Y3604729D01*
X15997676Y3641104D01*
X16021672Y3678036D01*
X16044738Y3715505D01*
X16066867Y3753494D01*
X16088050Y3791984D01*
X16108280Y3830956D01*
X16127548Y3870392D01*
X16145846Y3910274D01*
X16163166Y3950582D01*
X16179501Y3991299D01*
X16194842Y4032406D01*
X16209182Y4073884D01*
X16222512Y4115715D01*
X16234824Y4157880D01*
X16246111Y4200361D01*
X16256364Y4243140D01*
X16265576Y4286197D01*
X16273738Y4329515D01*
X16280843Y4373074D01*
X16286881Y4416857D01*
X16291847Y4460845D01*
X16295730Y4505020D01*
X16298525Y4549362D01*
X16300221Y4593853D01*
X16300813Y4638475D01*
X15700334Y5098913D01*
X15298808Y5098913D01*
X15298808Y4299996D01*
X-8929171Y4299996D01*
X-8929171Y5098913D01*
X-15699817Y5098913D01*
X-15699817Y22900928D01*
X-8929171Y22900928D01*
X-8929171Y23699845D01*
X15298808Y23699845D01*
X15298808Y22900928D01*
X15700334Y22900928D01*
X15700334Y5098913D01*
X16300813Y4638475D01*
X16300813Y31191377D01*
X16300213Y31236005D01*
X16298509Y31280505D01*
X16295708Y31324858D01*
X16291819Y31369044D01*
X16286849Y31413047D01*
X16280806Y31456845D01*
X16273699Y31500423D01*
X16265534Y31543759D01*
X16256321Y31586836D01*
X16246067Y31629636D01*
X16234779Y31672139D01*
X16222467Y31714326D01*
X16209138Y31756180D01*
X16194799Y31797681D01*
X16179459Y31838811D01*
X16163126Y31879552D01*
X16145808Y31919883D01*
X16127512Y31959787D01*
X16108247Y31999246D01*
X16088020Y32038240D01*
X16066840Y32076750D01*
X16044714Y32114759D01*
X16021650Y32152247D01*
X15997657Y32189196D01*
X15972742Y32225587D01*
X15946913Y32261401D01*
X15920179Y32296620D01*
X15892546Y32331225D01*
X15864024Y32365198D01*
X15834619Y32398519D01*
X15804341Y32431171D01*
X15773196Y32463134D01*
X15766399Y32470175D01*
X15759971Y32477492D01*
X15753917Y32485091D01*
X15748243Y32492978D01*
X15742954Y32501160D01*
X15738056Y32509642D01*
X15744258Y32494138D01*
X11892814Y36345582D01*
X11908316Y36339893D01*
X11899849Y36344482D01*
X11891604Y36349438D01*
X11883603Y36354763D01*
X11875869Y36360458D01*
X11868424Y36366526D01*
X11861290Y36372966D01*
X11829334Y36404111D01*
X11796701Y36434389D01*
X11763408Y36463793D01*
X11729474Y36492316D01*
X11694916Y36519948D01*
X11659752Y36546682D01*
X11624001Y36572511D01*
X11587679Y36597426D01*
X11550806Y36621419D01*
X11513399Y36644482D01*
X11475475Y36666608D01*
X11437054Y36687788D01*
X11398152Y36708015D01*
X11358787Y36727280D01*
X11318979Y36745576D01*
X11278744Y36762894D01*
X11238100Y36779227D01*
X11197065Y36794567D01*
X11155658Y36808906D01*
X11113896Y36822235D01*
X11071798Y36834548D01*
X11029380Y36845835D01*
X10986661Y36856089D01*
X10943659Y36865303D01*
X10900392Y36873467D01*
X10856877Y36880575D01*
X10813133Y36886618D01*
X10769178Y36891588D01*
X10725029Y36895477D01*
X10680704Y36898278D01*
X10636222Y36899983D01*
X10591600Y36900582D01*
X10222981Y35716129D01*
X10257839Y35704350D01*
X10291908Y35690933D01*
X10325141Y35675924D01*
X10357490Y35659372D01*
X10388909Y35641322D01*
X10419350Y35621823D01*
X10448767Y35600920D01*
X10477111Y35578662D01*
X10504337Y35555096D01*
X10530396Y35530268D01*
X10555242Y35504226D01*
X10578827Y35477017D01*
X10601104Y35448687D01*
X10622027Y35419285D01*
X10641547Y35388857D01*
X10659619Y35357451D01*
X10676193Y35325113D01*
X10691225Y35291890D01*
X10704665Y35257831D01*
X10716468Y35222981D01*
X10726586Y35187388D01*
X10734971Y35151100D01*
X10741577Y35114163D01*
X10746357Y35076624D01*
X10749263Y35038530D01*
X10750248Y34999930D01*
X10749263Y34961329D01*
X10746357Y34923235D01*
X10741577Y34885697D01*
X10734971Y34848759D01*
X10726585Y34812471D01*
X10716467Y34776878D01*
X10704665Y34742029D01*
X10691224Y34707969D01*
X10676193Y34674747D01*
X10659618Y34642409D01*
X10641546Y34611003D01*
X10622026Y34580575D01*
X10601103Y34551173D01*
X10578826Y34522844D01*
X10555241Y34495634D01*
X10530395Y34469592D01*
X10504336Y34444765D01*
X10477110Y34421198D01*
X10448766Y34398941D01*
X10419349Y34378038D01*
X10388908Y34358539D01*
X10357489Y34340489D01*
X10325140Y34323937D01*
X10291907Y34308928D01*
X10257838Y34295511D01*
X10222981Y34283733D01*
X10187381Y34273639D01*
X10151087Y34265279D01*
X10114145Y34258698D01*
X10076603Y34253944D01*
X10038508Y34251064D01*
X9999906Y34250106D01*
X9961324Y34251090D01*
X9923249Y34253994D01*
X9885727Y34258769D01*
X9848806Y34265369D01*
X9812533Y34273747D01*
X9776955Y34283856D01*
X9742118Y34295649D01*
X9708071Y34309078D01*
X9674860Y34324096D01*
X9642533Y34340657D01*
X9611135Y34358713D01*
X9580715Y34378218D01*
X9551320Y34399123D01*
X9522996Y34421383D01*
X9495791Y34444949D01*
X9469752Y34469776D01*
X9444925Y34495815D01*
X9421358Y34523020D01*
X9399099Y34551344D01*
X9378193Y34580740D01*
X9358689Y34611159D01*
X9340632Y34642557D01*
X9324072Y34674884D01*
X9309053Y34708095D01*
X9295624Y34742142D01*
X9283832Y34776978D01*
X9273723Y34812557D01*
X9265345Y34848830D01*
X9258744Y34885751D01*
X9253969Y34923272D01*
X9251066Y34961348D01*
X9250081Y34999930D01*
X9251066Y35038512D01*
X9253969Y35076587D01*
X9258744Y35114109D01*
X9265344Y35151030D01*
X9273722Y35187304D01*
X9283831Y35222882D01*
X9295623Y35257718D01*
X9309052Y35291765D01*
X9324071Y35324976D01*
X9340632Y35357304D01*
X9358688Y35388702D01*
X9378192Y35419122D01*
X9399098Y35448517D01*
X9421357Y35476841D01*
X9444924Y35504046D01*
X9469751Y35530085D01*
X9495790Y35554912D01*
X9522995Y35578479D01*
X9551319Y35600738D01*
X9580715Y35621644D01*
X9611135Y35641148D01*
X9642532Y35659205D01*
X9674860Y35675766D01*
X9708071Y35690784D01*
X9742118Y35704213D01*
X9776954Y35716006D01*
X9812532Y35726114D01*
X9848806Y35734493D01*
X9885727Y35741093D01*
X9923249Y35745868D01*
X9961324Y35748772D01*
X9999906Y35749756D01*
X10038508Y35748797D01*
X10076603Y35745918D01*
X10114145Y35741164D01*
X10151087Y35734583D01*
X10187381Y35726222D01*
X10222981Y35716129D01*
X10591600Y36900582D01*
X8198982Y36900582D01*
X8199511Y25099751D01*
X8199144Y25087569D01*
X8198061Y25075580D01*
X8196284Y25063805D01*
X8193832Y25052265D01*
X8190728Y25040981D01*
X8186991Y25029973D01*
X8182643Y25019263D01*
X8177705Y25008872D01*
X8172197Y24998820D01*
X8166141Y24989129D01*
X8159557Y24979818D01*
X8152466Y24970910D01*
X8144890Y24962425D01*
X8136849Y24954384D01*
X8128364Y24946807D01*
X8119455Y24939717D01*
X8110145Y24933133D01*
X8100453Y24927077D01*
X8090401Y24921569D01*
X8080010Y24916631D01*
X8069300Y24912283D01*
X8058293Y24908546D01*
X8047008Y24905441D01*
X8035468Y24902990D01*
X8023694Y24901212D01*
X8011705Y24900130D01*
X7999523Y24899763D01*
X1799890Y24899763D01*
X1799890Y25899185D01*
X-1799890Y25899185D01*
X-1799890Y24899763D01*
X-8000028Y24899763D01*
X-8012210Y24900130D01*
X-8024199Y24901212D01*
X-8035974Y24902990D01*
X-8047514Y24905441D01*
X-8058798Y24908546D01*
X-8069806Y24912283D01*
X-8080516Y24916631D01*
X-8090907Y24921569D01*
X-8100959Y24927077D01*
X-8110651Y24933134D01*
X-8119961Y24939718D01*
X-8128869Y24946808D01*
X-8137354Y24954385D01*
X-8145396Y24962426D01*
X-8152972Y24970912D01*
X-8160062Y24979820D01*
X-8166646Y24989130D01*
X-8172703Y24998822D01*
X-8178210Y25008874D01*
X-8183149Y25019265D01*
X-8187497Y25029975D01*
X-8191233Y25040983D01*
X-8194338Y25052267D01*
X-8196789Y25063806D01*
X-8198567Y25075581D01*
X-8199649Y25087569D01*
X-8200016Y25099751D01*
X-8198984Y36900582D01*
X-10591601Y36900590D01*
G04 #@! TD*
M02*
