G04 #@! TF.GenerationSoftware,KiCad,Pcbnew,5.0.2+dfsg1-1*
G04 #@! TF.CreationDate,2020-07-05T13:54:42+02:00*
G04 #@! TF.ProjectId,edgedriver,65646765-6472-4697-9665-722e6b696361,rev?*
G04 #@! TF.SameCoordinates,Original*
G04 #@! TF.FileFunction,Soldermask,Bot*
G04 #@! TF.FilePolarity,Negative*
%FSLAX46Y46*%
G04 Gerber Fmt 4.6, Leading zero omitted, Abs format (unit mm)*
G04 Created by KiCad (PCBNEW 5.0.2+dfsg1-1) date Sun Jul  5 13:54:42 2020*
%MOMM*%
%LPD*%
G01*
G04 APERTURE LIST*
%ADD10C,0.010000*%
%ADD11C,0.100000*%
G04 APERTURE END LIST*
D10*
G04 #@! TO.C,U1*
G36*
X-1425000Y15665000D02*
X-1425000Y14335000D01*
X-95000Y14335000D01*
X-95000Y15665000D01*
X-1425000Y15665000D01*
G37*
X-1425000Y15665000D02*
X-1425000Y14335000D01*
X-95000Y14335000D01*
X-95000Y15665000D01*
X-1425000Y15665000D01*
G36*
X-1425000Y17500000D02*
X-1425000Y16170000D01*
X-95000Y16170000D01*
X-95000Y17500000D01*
X-1425000Y17500000D01*
G37*
X-1425000Y17500000D02*
X-1425000Y16170000D01*
X-95000Y16170000D01*
X-95000Y17500000D01*
X-1425000Y17500000D01*
G36*
X-1425000Y13830000D02*
X-1425000Y12500000D01*
X-95000Y12500000D01*
X-95000Y13830000D01*
X-1425000Y13830000D01*
G37*
X-1425000Y13830000D02*
X-1425000Y12500000D01*
X-95000Y12500000D01*
X-95000Y13830000D01*
X-1425000Y13830000D01*
G36*
X-3260000Y13830000D02*
X-3260000Y12500000D01*
X-1930000Y12500000D01*
X-1930000Y13830000D01*
X-3260000Y13830000D01*
G37*
X-3260000Y13830000D02*
X-3260000Y12500000D01*
X-1930000Y12500000D01*
X-1930000Y13830000D01*
X-3260000Y13830000D01*
G36*
X-3260000Y15665000D02*
X-3260000Y14335000D01*
X-1930000Y14335000D01*
X-1930000Y15665000D01*
X-3260000Y15665000D01*
G37*
X-3260000Y15665000D02*
X-3260000Y14335000D01*
X-1930000Y14335000D01*
X-1930000Y15665000D01*
X-3260000Y15665000D01*
G36*
X-3260000Y17500000D02*
X-3260000Y16170000D01*
X-1930000Y16170000D01*
X-1930000Y17500000D01*
X-3260000Y17500000D01*
G37*
X-3260000Y17500000D02*
X-3260000Y16170000D01*
X-1930000Y16170000D01*
X-1930000Y17500000D01*
X-3260000Y17500000D01*
G36*
X410000Y17500000D02*
X410000Y16170000D01*
X1740000Y16170000D01*
X1740000Y17500000D01*
X410000Y17500000D01*
G37*
X410000Y17500000D02*
X410000Y16170000D01*
X1740000Y16170000D01*
X1740000Y17500000D01*
X410000Y17500000D01*
G36*
X410000Y15665000D02*
X410000Y14335000D01*
X1740000Y14335000D01*
X1740000Y15665000D01*
X410000Y15665000D01*
G37*
X410000Y15665000D02*
X410000Y14335000D01*
X1740000Y14335000D01*
X1740000Y15665000D01*
X410000Y15665000D01*
G36*
X410000Y13830000D02*
X410000Y12500000D01*
X1740000Y12500000D01*
X1740000Y13830000D01*
X410000Y13830000D01*
G37*
X410000Y13830000D02*
X410000Y12500000D01*
X1740000Y12500000D01*
X1740000Y13830000D01*
X410000Y13830000D01*
D11*
G36*
X-8627188Y866376D02*
X-8463216Y798456D01*
X-8315646Y699853D01*
X-8190147Y574354D01*
X-8091544Y426784D01*
X-8023624Y262812D01*
X-7989000Y88741D01*
X-7989000Y-88741D01*
X-8023624Y-262812D01*
X-8091544Y-426784D01*
X-8190147Y-574354D01*
X-8315646Y-699853D01*
X-8463216Y-798456D01*
X-8627188Y-866376D01*
X-8801259Y-901000D01*
X-8978741Y-901000D01*
X-9152812Y-866376D01*
X-9316784Y-798456D01*
X-9464354Y-699853D01*
X-9589853Y-574354D01*
X-9688456Y-426784D01*
X-9756376Y-262812D01*
X-9791000Y-88741D01*
X-9791000Y88741D01*
X-9756376Y262812D01*
X-9688456Y426784D01*
X-9589853Y574354D01*
X-9464354Y699853D01*
X-9316784Y798456D01*
X-9152812Y866376D01*
X-8978741Y901000D01*
X-8801259Y901000D01*
X-8627188Y866376D01*
X-8627188Y866376D01*
G37*
G36*
X-6239558Y894482D02*
X-6173373Y887963D01*
X-6060147Y853616D01*
X-6003533Y836443D01*
X-5864913Y762348D01*
X-5847009Y752778D01*
X-5811271Y723448D01*
X-5709814Y640186D01*
X-5626552Y538729D01*
X-5597222Y502991D01*
X-5597221Y502989D01*
X-5513557Y346467D01*
X-5513557Y346466D01*
X-5462037Y176627D01*
X-5444641Y0D01*
X-5462037Y-176627D01*
X-5488181Y-262812D01*
X-5513557Y-346467D01*
X-5556487Y-426782D01*
X-5597222Y-502991D01*
X-5626552Y-538729D01*
X-5709814Y-640186D01*
X-5782520Y-699853D01*
X-5847009Y-752778D01*
X-5847011Y-752779D01*
X-6003533Y-836443D01*
X-6060147Y-853616D01*
X-6173373Y-887963D01*
X-6239558Y-894482D01*
X-6305740Y-901000D01*
X-6394260Y-901000D01*
X-6460442Y-894482D01*
X-6526627Y-887963D01*
X-6639853Y-853616D01*
X-6696467Y-836443D01*
X-6852989Y-752779D01*
X-6852991Y-752778D01*
X-6917480Y-699853D01*
X-6990186Y-640186D01*
X-7073448Y-538729D01*
X-7102778Y-502991D01*
X-7143513Y-426782D01*
X-7186443Y-346467D01*
X-7211819Y-262812D01*
X-7237963Y-176627D01*
X-7255359Y0D01*
X-7237963Y176627D01*
X-7186443Y346466D01*
X-7186443Y346467D01*
X-7102779Y502989D01*
X-7102778Y502991D01*
X-7073448Y538729D01*
X-6990186Y640186D01*
X-6888729Y723448D01*
X-6852991Y752778D01*
X-6835087Y762348D01*
X-6696467Y836443D01*
X-6639853Y853616D01*
X-6526627Y887963D01*
X-6460442Y894482D01*
X-6394260Y901000D01*
X-6305740Y901000D01*
X-6239558Y894482D01*
X-6239558Y894482D01*
G37*
G36*
X-3699558Y894482D02*
X-3633373Y887963D01*
X-3520147Y853616D01*
X-3463533Y836443D01*
X-3324913Y762348D01*
X-3307009Y752778D01*
X-3271271Y723448D01*
X-3169814Y640186D01*
X-3086552Y538729D01*
X-3057222Y502991D01*
X-3057221Y502989D01*
X-2973557Y346467D01*
X-2973557Y346466D01*
X-2922037Y176627D01*
X-2904641Y0D01*
X-2922037Y-176627D01*
X-2948181Y-262812D01*
X-2973557Y-346467D01*
X-3016487Y-426782D01*
X-3057222Y-502991D01*
X-3086552Y-538729D01*
X-3169814Y-640186D01*
X-3242520Y-699853D01*
X-3307009Y-752778D01*
X-3307011Y-752779D01*
X-3463533Y-836443D01*
X-3520147Y-853616D01*
X-3633373Y-887963D01*
X-3699558Y-894482D01*
X-3765740Y-901000D01*
X-3854260Y-901000D01*
X-3920442Y-894482D01*
X-3986627Y-887963D01*
X-4099853Y-853616D01*
X-4156467Y-836443D01*
X-4312989Y-752779D01*
X-4312991Y-752778D01*
X-4377480Y-699853D01*
X-4450186Y-640186D01*
X-4533448Y-538729D01*
X-4562778Y-502991D01*
X-4603513Y-426782D01*
X-4646443Y-346467D01*
X-4671819Y-262812D01*
X-4697963Y-176627D01*
X-4715359Y0D01*
X-4697963Y176627D01*
X-4646443Y346466D01*
X-4646443Y346467D01*
X-4562779Y502989D01*
X-4562778Y502991D01*
X-4533448Y538729D01*
X-4450186Y640186D01*
X-4348729Y723448D01*
X-4312991Y752778D01*
X-4295087Y762348D01*
X-4156467Y836443D01*
X-4099853Y853616D01*
X-3986627Y887963D01*
X-3920442Y894482D01*
X-3854260Y901000D01*
X-3765740Y901000D01*
X-3699558Y894482D01*
X-3699558Y894482D01*
G37*
G36*
X-1159558Y894482D02*
X-1093373Y887963D01*
X-980147Y853616D01*
X-923533Y836443D01*
X-784913Y762348D01*
X-767009Y752778D01*
X-731271Y723448D01*
X-629814Y640186D01*
X-546552Y538729D01*
X-517222Y502991D01*
X-517221Y502989D01*
X-433557Y346467D01*
X-433557Y346466D01*
X-382037Y176627D01*
X-364641Y0D01*
X-382037Y-176627D01*
X-408181Y-262812D01*
X-433557Y-346467D01*
X-476487Y-426782D01*
X-517222Y-502991D01*
X-546552Y-538729D01*
X-629814Y-640186D01*
X-702520Y-699853D01*
X-767009Y-752778D01*
X-767011Y-752779D01*
X-923533Y-836443D01*
X-980147Y-853616D01*
X-1093373Y-887963D01*
X-1159558Y-894482D01*
X-1225740Y-901000D01*
X-1314260Y-901000D01*
X-1380442Y-894482D01*
X-1446627Y-887963D01*
X-1559853Y-853616D01*
X-1616467Y-836443D01*
X-1772989Y-752779D01*
X-1772991Y-752778D01*
X-1837480Y-699853D01*
X-1910186Y-640186D01*
X-1993448Y-538729D01*
X-2022778Y-502991D01*
X-2063513Y-426782D01*
X-2106443Y-346467D01*
X-2131819Y-262812D01*
X-2157963Y-176627D01*
X-2175359Y0D01*
X-2157963Y176627D01*
X-2106443Y346466D01*
X-2106443Y346467D01*
X-2022779Y502989D01*
X-2022778Y502991D01*
X-1993448Y538729D01*
X-1910186Y640186D01*
X-1808729Y723448D01*
X-1772991Y752778D01*
X-1755087Y762348D01*
X-1616467Y836443D01*
X-1559853Y853616D01*
X-1446627Y887963D01*
X-1380442Y894482D01*
X-1314260Y901000D01*
X-1225740Y901000D01*
X-1159558Y894482D01*
X-1159558Y894482D01*
G37*
G36*
X1380442Y894482D02*
X1446627Y887963D01*
X1559853Y853616D01*
X1616467Y836443D01*
X1755087Y762348D01*
X1772991Y752778D01*
X1808729Y723448D01*
X1910186Y640186D01*
X1993448Y538729D01*
X2022778Y502991D01*
X2022779Y502989D01*
X2106443Y346467D01*
X2106443Y346466D01*
X2157963Y176627D01*
X2175359Y0D01*
X2157963Y-176627D01*
X2131819Y-262812D01*
X2106443Y-346467D01*
X2063513Y-426782D01*
X2022778Y-502991D01*
X1993448Y-538729D01*
X1910186Y-640186D01*
X1837480Y-699853D01*
X1772991Y-752778D01*
X1772989Y-752779D01*
X1616467Y-836443D01*
X1559853Y-853616D01*
X1446627Y-887963D01*
X1380442Y-894482D01*
X1314260Y-901000D01*
X1225740Y-901000D01*
X1159558Y-894482D01*
X1093373Y-887963D01*
X980147Y-853616D01*
X923533Y-836443D01*
X767011Y-752779D01*
X767009Y-752778D01*
X702520Y-699853D01*
X629814Y-640186D01*
X546552Y-538729D01*
X517222Y-502991D01*
X476487Y-426782D01*
X433557Y-346467D01*
X408181Y-262812D01*
X382037Y-176627D01*
X364641Y0D01*
X382037Y176627D01*
X433557Y346466D01*
X433557Y346467D01*
X517221Y502989D01*
X517222Y502991D01*
X546552Y538729D01*
X629814Y640186D01*
X731271Y723448D01*
X767009Y752778D01*
X784913Y762348D01*
X923533Y836443D01*
X980147Y853616D01*
X1093373Y887963D01*
X1159558Y894482D01*
X1225740Y901000D01*
X1314260Y901000D01*
X1380442Y894482D01*
X1380442Y894482D01*
G37*
G36*
X3920442Y894482D02*
X3986627Y887963D01*
X4099853Y853616D01*
X4156467Y836443D01*
X4295087Y762348D01*
X4312991Y752778D01*
X4348729Y723448D01*
X4450186Y640186D01*
X4533448Y538729D01*
X4562778Y502991D01*
X4562779Y502989D01*
X4646443Y346467D01*
X4646443Y346466D01*
X4697963Y176627D01*
X4715359Y0D01*
X4697963Y-176627D01*
X4671819Y-262812D01*
X4646443Y-346467D01*
X4603513Y-426782D01*
X4562778Y-502991D01*
X4533448Y-538729D01*
X4450186Y-640186D01*
X4377480Y-699853D01*
X4312991Y-752778D01*
X4312989Y-752779D01*
X4156467Y-836443D01*
X4099853Y-853616D01*
X3986627Y-887963D01*
X3920442Y-894482D01*
X3854260Y-901000D01*
X3765740Y-901000D01*
X3699558Y-894482D01*
X3633373Y-887963D01*
X3520147Y-853616D01*
X3463533Y-836443D01*
X3307011Y-752779D01*
X3307009Y-752778D01*
X3242520Y-699853D01*
X3169814Y-640186D01*
X3086552Y-538729D01*
X3057222Y-502991D01*
X3016487Y-426782D01*
X2973557Y-346467D01*
X2948181Y-262812D01*
X2922037Y-176627D01*
X2904641Y0D01*
X2922037Y176627D01*
X2973557Y346466D01*
X2973557Y346467D01*
X3057221Y502989D01*
X3057222Y502991D01*
X3086552Y538729D01*
X3169814Y640186D01*
X3271271Y723448D01*
X3307009Y752778D01*
X3324913Y762348D01*
X3463533Y836443D01*
X3520147Y853616D01*
X3633373Y887963D01*
X3699558Y894482D01*
X3765740Y901000D01*
X3854260Y901000D01*
X3920442Y894482D01*
X3920442Y894482D01*
G37*
G36*
X6460442Y894482D02*
X6526627Y887963D01*
X6639853Y853616D01*
X6696467Y836443D01*
X6835087Y762348D01*
X6852991Y752778D01*
X6888729Y723448D01*
X6990186Y640186D01*
X7073448Y538729D01*
X7102778Y502991D01*
X7102779Y502989D01*
X7186443Y346467D01*
X7186443Y346466D01*
X7237963Y176627D01*
X7255359Y0D01*
X7237963Y-176627D01*
X7211819Y-262812D01*
X7186443Y-346467D01*
X7143513Y-426782D01*
X7102778Y-502991D01*
X7073448Y-538729D01*
X6990186Y-640186D01*
X6917480Y-699853D01*
X6852991Y-752778D01*
X6852989Y-752779D01*
X6696467Y-836443D01*
X6639853Y-853616D01*
X6526627Y-887963D01*
X6460442Y-894482D01*
X6394260Y-901000D01*
X6305740Y-901000D01*
X6239558Y-894482D01*
X6173373Y-887963D01*
X6060147Y-853616D01*
X6003533Y-836443D01*
X5847011Y-752779D01*
X5847009Y-752778D01*
X5782520Y-699853D01*
X5709814Y-640186D01*
X5626552Y-538729D01*
X5597222Y-502991D01*
X5556487Y-426782D01*
X5513557Y-346467D01*
X5488181Y-262812D01*
X5462037Y-176627D01*
X5444641Y0D01*
X5462037Y176627D01*
X5513557Y346466D01*
X5513557Y346467D01*
X5597221Y502989D01*
X5597222Y502991D01*
X5626552Y538729D01*
X5709814Y640186D01*
X5811271Y723448D01*
X5847009Y752778D01*
X5864913Y762348D01*
X6003533Y836443D01*
X6060147Y853616D01*
X6173373Y887963D01*
X6239558Y894482D01*
X6305740Y901000D01*
X6394260Y901000D01*
X6460442Y894482D01*
X6460442Y894482D01*
G37*
G36*
X9000442Y894482D02*
X9066627Y887963D01*
X9179853Y853616D01*
X9236467Y836443D01*
X9375087Y762348D01*
X9392991Y752778D01*
X9428729Y723448D01*
X9530186Y640186D01*
X9613448Y538729D01*
X9642778Y502991D01*
X9642779Y502989D01*
X9726443Y346467D01*
X9726443Y346466D01*
X9777963Y176627D01*
X9795359Y0D01*
X9777963Y-176627D01*
X9751819Y-262812D01*
X9726443Y-346467D01*
X9683513Y-426782D01*
X9642778Y-502991D01*
X9613448Y-538729D01*
X9530186Y-640186D01*
X9457480Y-699853D01*
X9392991Y-752778D01*
X9392989Y-752779D01*
X9236467Y-836443D01*
X9179853Y-853616D01*
X9066627Y-887963D01*
X9000442Y-894482D01*
X8934260Y-901000D01*
X8845740Y-901000D01*
X8779558Y-894482D01*
X8713373Y-887963D01*
X8600147Y-853616D01*
X8543533Y-836443D01*
X8387011Y-752779D01*
X8387009Y-752778D01*
X8322520Y-699853D01*
X8249814Y-640186D01*
X8166552Y-538729D01*
X8137222Y-502991D01*
X8096487Y-426782D01*
X8053557Y-346467D01*
X8028181Y-262812D01*
X8002037Y-176627D01*
X7984641Y0D01*
X8002037Y176627D01*
X8053557Y346466D01*
X8053557Y346467D01*
X8137221Y502989D01*
X8137222Y502991D01*
X8166552Y538729D01*
X8249814Y640186D01*
X8351271Y723448D01*
X8387009Y752778D01*
X8404913Y762348D01*
X8543533Y836443D01*
X8600147Y853616D01*
X8713373Y887963D01*
X8779558Y894482D01*
X8845740Y901000D01*
X8934260Y901000D01*
X9000442Y894482D01*
X9000442Y894482D01*
G37*
G36*
X-11537188Y1666376D02*
X-11373216Y1598456D01*
X-11225646Y1499853D01*
X-11100147Y1374354D01*
X-11001544Y1226784D01*
X-10933624Y1062812D01*
X-10899000Y888741D01*
X-10899000Y711259D01*
X-10933624Y537188D01*
X-11001544Y373216D01*
X-11100147Y225646D01*
X-11225646Y100147D01*
X-11373216Y1544D01*
X-11537188Y-66376D01*
X-11711259Y-101000D01*
X-11888741Y-101000D01*
X-12062812Y-66376D01*
X-12226784Y1544D01*
X-12374354Y100147D01*
X-12499853Y225646D01*
X-12598456Y373216D01*
X-12666376Y537188D01*
X-12701000Y711259D01*
X-12701000Y888741D01*
X-12666376Y1062812D01*
X-12598456Y1226784D01*
X-12499853Y1374354D01*
X-12374354Y1499853D01*
X-12226784Y1598456D01*
X-12062812Y1666376D01*
X-11888741Y1701000D01*
X-11711259Y1701000D01*
X-11537188Y1666376D01*
X-11537188Y1666376D01*
G37*
G36*
X12147738Y2633347D02*
X12189598Y2625021D01*
X12224245Y2610670D01*
X12307890Y2576023D01*
X12414354Y2504886D01*
X12504886Y2414354D01*
X12576023Y2307890D01*
X12600173Y2249585D01*
X12623391Y2193534D01*
X12625021Y2189597D01*
X12650000Y2064021D01*
X12650000Y1935979D01*
X12625021Y1810403D01*
X12576023Y1692110D01*
X12504886Y1585646D01*
X12414354Y1495114D01*
X12307890Y1423977D01*
X12224245Y1389330D01*
X12189598Y1374979D01*
X12147738Y1366653D01*
X12064021Y1350000D01*
X11935979Y1350000D01*
X11852262Y1366653D01*
X11810402Y1374979D01*
X11775755Y1389330D01*
X11692110Y1423977D01*
X11585646Y1495114D01*
X11495114Y1585646D01*
X11423977Y1692110D01*
X11374979Y1810403D01*
X11350000Y1935979D01*
X11350000Y2064021D01*
X11374979Y2189597D01*
X11376610Y2193534D01*
X11399827Y2249585D01*
X11423977Y2307890D01*
X11495114Y2414354D01*
X11585646Y2504886D01*
X11692110Y2576023D01*
X11775755Y2610670D01*
X11810402Y2625021D01*
X11852262Y2633347D01*
X11935979Y2650000D01*
X12064021Y2650000D01*
X12147738Y2633347D01*
X12147738Y2633347D01*
G37*
G36*
X-1159557Y3434481D02*
X-1093373Y3427963D01*
X-980147Y3393616D01*
X-923533Y3376443D01*
X-784913Y3302348D01*
X-767009Y3292778D01*
X-731271Y3263448D01*
X-629814Y3180186D01*
X-546552Y3078729D01*
X-517222Y3042991D01*
X-517221Y3042989D01*
X-433557Y2886467D01*
X-433557Y2886466D01*
X-382037Y2716627D01*
X-364641Y2540000D01*
X-382037Y2363373D01*
X-398868Y2307890D01*
X-433557Y2193533D01*
X-435661Y2189597D01*
X-517222Y2037009D01*
X-546552Y2001271D01*
X-629814Y1899814D01*
X-702520Y1840147D01*
X-767009Y1787222D01*
X-767011Y1787221D01*
X-923533Y1703557D01*
X-980147Y1686384D01*
X-1093373Y1652037D01*
X-1159557Y1645519D01*
X-1225740Y1639000D01*
X-1314260Y1639000D01*
X-1380443Y1645519D01*
X-1446627Y1652037D01*
X-1559853Y1686384D01*
X-1616467Y1703557D01*
X-1772989Y1787221D01*
X-1772991Y1787222D01*
X-1837480Y1840147D01*
X-1910186Y1899814D01*
X-1993448Y2001271D01*
X-2022778Y2037009D01*
X-2104339Y2189597D01*
X-2106443Y2193533D01*
X-2141132Y2307890D01*
X-2157963Y2363373D01*
X-2175359Y2540000D01*
X-2157963Y2716627D01*
X-2106443Y2886466D01*
X-2106443Y2886467D01*
X-2022779Y3042989D01*
X-2022778Y3042991D01*
X-1993448Y3078729D01*
X-1910186Y3180186D01*
X-1808729Y3263448D01*
X-1772991Y3292778D01*
X-1755087Y3302348D01*
X-1616467Y3376443D01*
X-1559853Y3393616D01*
X-1446627Y3427963D01*
X-1380443Y3434481D01*
X-1314260Y3441000D01*
X-1225740Y3441000D01*
X-1159557Y3434481D01*
X-1159557Y3434481D01*
G37*
G36*
X-3547188Y3406376D02*
X-3383216Y3338456D01*
X-3235646Y3239853D01*
X-3110147Y3114354D01*
X-3011544Y2966784D01*
X-2943624Y2802812D01*
X-2909000Y2628741D01*
X-2909000Y2451259D01*
X-2943624Y2277188D01*
X-3011544Y2113216D01*
X-3110147Y1965646D01*
X-3235646Y1840147D01*
X-3383216Y1741544D01*
X-3547188Y1673624D01*
X-3721259Y1639000D01*
X-3898741Y1639000D01*
X-4072812Y1673624D01*
X-4236784Y1741544D01*
X-4384354Y1840147D01*
X-4509853Y1965646D01*
X-4608456Y2113216D01*
X-4676376Y2277188D01*
X-4711000Y2451259D01*
X-4711000Y2628741D01*
X-4676376Y2802812D01*
X-4608456Y2966784D01*
X-4509853Y3114354D01*
X-4384354Y3239853D01*
X-4236784Y3338456D01*
X-4072812Y3406376D01*
X-3898741Y3441000D01*
X-3721259Y3441000D01*
X-3547188Y3406376D01*
X-3547188Y3406376D01*
G37*
G36*
X1380443Y3434481D02*
X1446627Y3427963D01*
X1559853Y3393616D01*
X1616467Y3376443D01*
X1755087Y3302348D01*
X1772991Y3292778D01*
X1808729Y3263448D01*
X1910186Y3180186D01*
X1993448Y3078729D01*
X2022778Y3042991D01*
X2022779Y3042989D01*
X2106443Y2886467D01*
X2106443Y2886466D01*
X2157963Y2716627D01*
X2175359Y2540000D01*
X2157963Y2363373D01*
X2141132Y2307890D01*
X2106443Y2193533D01*
X2104339Y2189597D01*
X2022778Y2037009D01*
X1993448Y2001271D01*
X1910186Y1899814D01*
X1837480Y1840147D01*
X1772991Y1787222D01*
X1772989Y1787221D01*
X1616467Y1703557D01*
X1559853Y1686384D01*
X1446627Y1652037D01*
X1380443Y1645519D01*
X1314260Y1639000D01*
X1225740Y1639000D01*
X1159557Y1645519D01*
X1093373Y1652037D01*
X980147Y1686384D01*
X923533Y1703557D01*
X767011Y1787221D01*
X767009Y1787222D01*
X702520Y1840147D01*
X629814Y1899814D01*
X546552Y2001271D01*
X517222Y2037009D01*
X435661Y2189597D01*
X433557Y2193533D01*
X398868Y2307890D01*
X382037Y2363373D01*
X364641Y2540000D01*
X382037Y2716627D01*
X433557Y2886466D01*
X433557Y2886467D01*
X517221Y3042989D01*
X517222Y3042991D01*
X546552Y3078729D01*
X629814Y3180186D01*
X731271Y3263448D01*
X767009Y3292778D01*
X784913Y3302348D01*
X923533Y3376443D01*
X980147Y3393616D01*
X1093373Y3427963D01*
X1159557Y3434481D01*
X1225740Y3441000D01*
X1314260Y3441000D01*
X1380443Y3434481D01*
X1380443Y3434481D01*
G37*
G36*
X3920443Y3434481D02*
X3986627Y3427963D01*
X4099853Y3393616D01*
X4156467Y3376443D01*
X4295087Y3302348D01*
X4312991Y3292778D01*
X4348729Y3263448D01*
X4450186Y3180186D01*
X4533448Y3078729D01*
X4562778Y3042991D01*
X4562779Y3042989D01*
X4646443Y2886467D01*
X4646443Y2886466D01*
X4697963Y2716627D01*
X4715359Y2540000D01*
X4697963Y2363373D01*
X4681132Y2307890D01*
X4646443Y2193533D01*
X4644339Y2189597D01*
X4562778Y2037009D01*
X4533448Y2001271D01*
X4450186Y1899814D01*
X4377480Y1840147D01*
X4312991Y1787222D01*
X4312989Y1787221D01*
X4156467Y1703557D01*
X4099853Y1686384D01*
X3986627Y1652037D01*
X3920443Y1645519D01*
X3854260Y1639000D01*
X3765740Y1639000D01*
X3699557Y1645519D01*
X3633373Y1652037D01*
X3520147Y1686384D01*
X3463533Y1703557D01*
X3307011Y1787221D01*
X3307009Y1787222D01*
X3242520Y1840147D01*
X3169814Y1899814D01*
X3086552Y2001271D01*
X3057222Y2037009D01*
X2975661Y2189597D01*
X2973557Y2193533D01*
X2938868Y2307890D01*
X2922037Y2363373D01*
X2904641Y2540000D01*
X2922037Y2716627D01*
X2973557Y2886466D01*
X2973557Y2886467D01*
X3057221Y3042989D01*
X3057222Y3042991D01*
X3086552Y3078729D01*
X3169814Y3180186D01*
X3271271Y3263448D01*
X3307009Y3292778D01*
X3324913Y3302348D01*
X3463533Y3376443D01*
X3520147Y3393616D01*
X3633373Y3427963D01*
X3699557Y3434481D01*
X3765740Y3441000D01*
X3854260Y3441000D01*
X3920443Y3434481D01*
X3920443Y3434481D01*
G37*
G36*
X-13485608Y3490532D02*
X-13419424Y3484014D01*
X-13306198Y3449667D01*
X-13249584Y3432494D01*
X-13200720Y3406375D01*
X-13093060Y3348829D01*
X-13080421Y3338456D01*
X-12955865Y3236237D01*
X-12872603Y3134780D01*
X-12843273Y3099042D01*
X-12843272Y3099040D01*
X-12759608Y2942518D01*
X-12759608Y2942517D01*
X-12708088Y2772678D01*
X-12690692Y2596051D01*
X-12708088Y2419424D01*
X-12725091Y2363373D01*
X-12759608Y2249584D01*
X-12832498Y2113218D01*
X-12843273Y2093060D01*
X-12867105Y2064021D01*
X-12955865Y1955865D01*
X-13057322Y1872603D01*
X-13093060Y1843273D01*
X-13093062Y1843272D01*
X-13249584Y1759608D01*
X-13306198Y1742435D01*
X-13419424Y1708088D01*
X-13465429Y1703557D01*
X-13551791Y1695051D01*
X-13640311Y1695051D01*
X-13726673Y1703557D01*
X-13772678Y1708088D01*
X-13885904Y1742435D01*
X-13942518Y1759608D01*
X-14099040Y1843272D01*
X-14099042Y1843273D01*
X-14134780Y1872603D01*
X-14236237Y1955865D01*
X-14324997Y2064021D01*
X-14348829Y2093060D01*
X-14359604Y2113218D01*
X-14432494Y2249584D01*
X-14467011Y2363373D01*
X-14484014Y2419424D01*
X-14501410Y2596051D01*
X-14484014Y2772678D01*
X-14432494Y2942517D01*
X-14432494Y2942518D01*
X-14348830Y3099040D01*
X-14348829Y3099042D01*
X-14319499Y3134780D01*
X-14236237Y3236237D01*
X-14111681Y3338456D01*
X-14099042Y3348829D01*
X-13991382Y3406375D01*
X-13942518Y3432494D01*
X-13885904Y3449667D01*
X-13772678Y3484014D01*
X-13706494Y3490532D01*
X-13640311Y3497051D01*
X-13551791Y3497051D01*
X-13485608Y3490532D01*
X-13485608Y3490532D01*
G37*
G36*
X10021000Y4449000D02*
X9019000Y4449000D01*
X9019000Y6551000D01*
X10021000Y6551000D01*
X10021000Y4449000D01*
X10021000Y4449000D01*
G37*
G36*
X-7759000Y4449000D02*
X-8761000Y4449000D01*
X-8761000Y6551000D01*
X-7759000Y6551000D01*
X-7759000Y4449000D01*
X-7759000Y4449000D01*
G37*
G36*
X15101000Y4449000D02*
X14099000Y4449000D01*
X14099000Y6551000D01*
X15101000Y6551000D01*
X15101000Y4449000D01*
X15101000Y4449000D01*
G37*
G36*
X13831000Y4449000D02*
X12829000Y4449000D01*
X12829000Y6551000D01*
X13831000Y6551000D01*
X13831000Y4449000D01*
X13831000Y4449000D01*
G37*
G36*
X12561000Y4449000D02*
X11559000Y4449000D01*
X11559000Y6551000D01*
X12561000Y6551000D01*
X12561000Y4449000D01*
X12561000Y4449000D01*
G37*
G36*
X7481000Y4449000D02*
X6479000Y4449000D01*
X6479000Y6551000D01*
X7481000Y6551000D01*
X7481000Y4449000D01*
X7481000Y4449000D01*
G37*
G36*
X6211000Y4449000D02*
X5209000Y4449000D01*
X5209000Y6551000D01*
X6211000Y6551000D01*
X6211000Y4449000D01*
X6211000Y4449000D01*
G37*
G36*
X4941000Y4449000D02*
X3939000Y4449000D01*
X3939000Y6551000D01*
X4941000Y6551000D01*
X4941000Y4449000D01*
X4941000Y4449000D01*
G37*
G36*
X3671000Y4449000D02*
X2669000Y4449000D01*
X2669000Y6551000D01*
X3671000Y6551000D01*
X3671000Y4449000D01*
X3671000Y4449000D01*
G37*
G36*
X11291000Y4449000D02*
X10289000Y4449000D01*
X10289000Y6551000D01*
X11291000Y6551000D01*
X11291000Y4449000D01*
X11291000Y4449000D01*
G37*
G36*
X1131000Y4449000D02*
X129000Y4449000D01*
X129000Y6551000D01*
X1131000Y6551000D01*
X1131000Y4449000D01*
X1131000Y4449000D01*
G37*
G36*
X-139000Y4449000D02*
X-1141000Y4449000D01*
X-1141000Y6551000D01*
X-139000Y6551000D01*
X-139000Y4449000D01*
X-139000Y4449000D01*
G37*
G36*
X8751000Y4449000D02*
X7749000Y4449000D01*
X7749000Y6551000D01*
X8751000Y6551000D01*
X8751000Y4449000D01*
X8751000Y4449000D01*
G37*
G36*
X-5219000Y4449000D02*
X-6221000Y4449000D01*
X-6221000Y6551000D01*
X-5219000Y6551000D01*
X-5219000Y4449000D01*
X-5219000Y4449000D01*
G37*
G36*
X-3949000Y4449000D02*
X-4951000Y4449000D01*
X-4951000Y6551000D01*
X-3949000Y6551000D01*
X-3949000Y4449000D01*
X-3949000Y4449000D01*
G37*
G36*
X-1409000Y4449000D02*
X-2411000Y4449000D01*
X-2411000Y6551000D01*
X-1409000Y6551000D01*
X-1409000Y4449000D01*
X-1409000Y4449000D01*
G37*
G36*
X-2679000Y4449000D02*
X-3681000Y4449000D01*
X-3681000Y6551000D01*
X-2679000Y6551000D01*
X-2679000Y4449000D01*
X-2679000Y4449000D01*
G37*
G36*
X-6489000Y4449000D02*
X-7491000Y4449000D01*
X-7491000Y6551000D01*
X-6489000Y6551000D01*
X-6489000Y4449000D01*
X-6489000Y4449000D01*
G37*
G36*
X2401000Y4449000D02*
X1399000Y4449000D01*
X1399000Y6551000D01*
X2401000Y6551000D01*
X2401000Y4449000D01*
X2401000Y4449000D01*
G37*
G36*
X1791000Y12449000D02*
X-3311000Y12449000D01*
X-3311000Y17551000D01*
X1791000Y17551000D01*
X1791000Y12449000D01*
X1791000Y12449000D01*
G37*
G36*
X-7759000Y21449000D02*
X-8761000Y21449000D01*
X-8761000Y23551000D01*
X-7759000Y23551000D01*
X-7759000Y21449000D01*
X-7759000Y21449000D01*
G37*
G36*
X10021000Y21449000D02*
X9019000Y21449000D01*
X9019000Y23551000D01*
X10021000Y23551000D01*
X10021000Y21449000D01*
X10021000Y21449000D01*
G37*
G36*
X7481000Y21449000D02*
X6479000Y21449000D01*
X6479000Y23551000D01*
X7481000Y23551000D01*
X7481000Y21449000D01*
X7481000Y21449000D01*
G37*
G36*
X6211000Y21449000D02*
X5209000Y21449000D01*
X5209000Y23551000D01*
X6211000Y23551000D01*
X6211000Y21449000D01*
X6211000Y21449000D01*
G37*
G36*
X8751000Y21449000D02*
X7749000Y21449000D01*
X7749000Y23551000D01*
X8751000Y23551000D01*
X8751000Y21449000D01*
X8751000Y21449000D01*
G37*
G36*
X3671000Y21449000D02*
X2669000Y21449000D01*
X2669000Y23551000D01*
X3671000Y23551000D01*
X3671000Y21449000D01*
X3671000Y21449000D01*
G37*
G36*
X-6489000Y21449000D02*
X-7491000Y21449000D01*
X-7491000Y23551000D01*
X-6489000Y23551000D01*
X-6489000Y21449000D01*
X-6489000Y21449000D01*
G37*
G36*
X2401000Y21449000D02*
X1399000Y21449000D01*
X1399000Y23551000D01*
X2401000Y23551000D01*
X2401000Y21449000D01*
X2401000Y21449000D01*
G37*
G36*
X-139000Y21449000D02*
X-1141000Y21449000D01*
X-1141000Y23551000D01*
X-139000Y23551000D01*
X-139000Y21449000D01*
X-139000Y21449000D01*
G37*
G36*
X-1409000Y21449000D02*
X-2411000Y21449000D01*
X-2411000Y23551000D01*
X-1409000Y23551000D01*
X-1409000Y21449000D01*
X-1409000Y21449000D01*
G37*
G36*
X-2679000Y21449000D02*
X-3681000Y21449000D01*
X-3681000Y23551000D01*
X-2679000Y23551000D01*
X-2679000Y21449000D01*
X-2679000Y21449000D01*
G37*
G36*
X-3949000Y21449000D02*
X-4951000Y21449000D01*
X-4951000Y23551000D01*
X-3949000Y23551000D01*
X-3949000Y21449000D01*
X-3949000Y21449000D01*
G37*
G36*
X-5219000Y21449000D02*
X-6221000Y21449000D01*
X-6221000Y23551000D01*
X-5219000Y23551000D01*
X-5219000Y21449000D01*
X-5219000Y21449000D01*
G37*
G36*
X4941000Y21449000D02*
X3939000Y21449000D01*
X3939000Y23551000D01*
X4941000Y23551000D01*
X4941000Y21449000D01*
X4941000Y21449000D01*
G37*
G36*
X11291000Y21449000D02*
X10289000Y21449000D01*
X10289000Y23551000D01*
X11291000Y23551000D01*
X11291000Y21449000D01*
X11291000Y21449000D01*
G37*
G36*
X12561000Y21449000D02*
X11559000Y21449000D01*
X11559000Y23551000D01*
X12561000Y23551000D01*
X12561000Y21449000D01*
X12561000Y21449000D01*
G37*
G36*
X13831000Y21449000D02*
X12829000Y21449000D01*
X12829000Y23551000D01*
X13831000Y23551000D01*
X13831000Y21449000D01*
X13831000Y21449000D01*
G37*
G36*
X15101000Y21449000D02*
X14099000Y21449000D01*
X14099000Y23551000D01*
X15101000Y23551000D01*
X15101000Y21449000D01*
X15101000Y21449000D01*
G37*
G36*
X1131000Y21449000D02*
X129000Y21449000D01*
X129000Y23551000D01*
X1131000Y23551000D01*
X1131000Y21449000D01*
X1131000Y21449000D01*
G37*
G36*
X8000000Y25000000D02*
X2000000Y25000000D01*
X2000000Y32000000D01*
X8000000Y32000000D01*
X8000000Y25000000D01*
X8000000Y25000000D01*
G37*
G36*
X-2000000Y25000000D02*
X-8000000Y25000000D01*
X-8000000Y32000000D01*
X-2000000Y32000000D01*
X-2000000Y25000000D01*
X-2000000Y25000000D01*
G37*
G36*
X10147738Y35633347D02*
X10189598Y35625021D01*
X10224245Y35610670D01*
X10307890Y35576023D01*
X10414354Y35504886D01*
X10504886Y35414354D01*
X10576023Y35307890D01*
X10625021Y35189597D01*
X10650000Y35064021D01*
X10650000Y34935979D01*
X10625021Y34810403D01*
X10576023Y34692110D01*
X10504886Y34585646D01*
X10414354Y34495114D01*
X10307890Y34423977D01*
X10224245Y34389330D01*
X10189598Y34374979D01*
X10147738Y34366653D01*
X10064021Y34350000D01*
X9935979Y34350000D01*
X9852262Y34366653D01*
X9810402Y34374979D01*
X9775755Y34389330D01*
X9692110Y34423977D01*
X9585646Y34495114D01*
X9495114Y34585646D01*
X9423977Y34692110D01*
X9374979Y34810403D01*
X9350000Y34935979D01*
X9350000Y35064021D01*
X9374979Y35189597D01*
X9423977Y35307890D01*
X9495114Y35414354D01*
X9585646Y35504886D01*
X9692110Y35576023D01*
X9775755Y35610670D01*
X9810402Y35625021D01*
X9852262Y35633347D01*
X9935979Y35650000D01*
X10064021Y35650000D01*
X10147738Y35633347D01*
X10147738Y35633347D01*
G37*
G36*
X-9852262Y35633347D02*
X-9810402Y35625021D01*
X-9775755Y35610670D01*
X-9692110Y35576023D01*
X-9585646Y35504886D01*
X-9495114Y35414354D01*
X-9423977Y35307890D01*
X-9374979Y35189597D01*
X-9350000Y35064021D01*
X-9350000Y34935979D01*
X-9374979Y34810403D01*
X-9423977Y34692110D01*
X-9495114Y34585646D01*
X-9585646Y34495114D01*
X-9692110Y34423977D01*
X-9775755Y34389330D01*
X-9810402Y34374979D01*
X-9852262Y34366653D01*
X-9935979Y34350000D01*
X-10064021Y34350000D01*
X-10147738Y34366653D01*
X-10189598Y34374979D01*
X-10224245Y34389330D01*
X-10307890Y34423977D01*
X-10414354Y34495114D01*
X-10504886Y34585646D01*
X-10576023Y34692110D01*
X-10625021Y34810403D01*
X-10650000Y34935979D01*
X-10650000Y35064021D01*
X-10625021Y35189597D01*
X-10576023Y35307890D01*
X-10504886Y35414354D01*
X-10414354Y35504886D01*
X-10307890Y35576023D01*
X-10224245Y35610670D01*
X-10189598Y35625021D01*
X-10147738Y35633347D01*
X-10064021Y35650000D01*
X-9935979Y35650000D01*
X-9852262Y35633347D01*
X-9852262Y35633347D01*
G37*
M02*
