G04 #@! TF.GenerationSoftware,KiCad,Pcbnew,5.0.2+dfsg1-1*
G04 #@! TF.CreationDate,2021-12-14T01:35:29+01:00*
G04 #@! TF.ProjectId,test_a,74657374-5f61-42e6-9b69-6361645f7063,rev?*
G04 #@! TF.SameCoordinates,Original*
G04 #@! TF.FileFunction,Soldermask,Bot*
G04 #@! TF.FilePolarity,Negative*
%FSLAX46Y46*%
G04 Gerber Fmt 4.6, Leading zero omitted, Abs format (unit mm)*
G04 Created by KiCad (PCBNEW 5.0.2+dfsg1-1) date Tue 14 Dec 2021 01:35:29 AM CET*
%MOMM*%
%LPD*%
G01*
G04 APERTURE LIST*
%ADD10C,0.000001*%
G04 APERTURE END LIST*
D10*
G04 #@! TO.C,*
G36*
X4497917Y9026322D02*
X4449305Y9024023D01*
X4401075Y9017194D01*
X4353302Y9005939D01*
X4306060Y8990362D01*
X4259423Y8970567D01*
X4213465Y8946660D01*
X4168261Y8918743D01*
X4123884Y8886922D01*
X4080409Y8851300D01*
X4037910Y8811982D01*
X3996461Y8769072D01*
X3956137Y8722674D01*
X3917011Y8672893D01*
X3879158Y8619832D01*
X3842652Y8563597D01*
X3807568Y8504290D01*
X3773979Y8442017D01*
X3741959Y8376882D01*
X3711583Y8308988D01*
X3682925Y8238441D01*
X3656060Y8165344D01*
X3631061Y8089802D01*
X3608002Y8011918D01*
X3586958Y7931798D01*
X3568004Y7849545D01*
X3551212Y7765263D01*
X3536658Y7679058D01*
X3524415Y7591032D01*
X3514558Y7501291D01*
X3507162Y7409938D01*
X3502299Y7317078D01*
X3500045Y7222815D01*
X3522406Y7189830D01*
X3541983Y7155341D01*
X3558718Y7119525D01*
X3572553Y7082558D01*
X3583428Y7044617D01*
X3591285Y7005878D01*
X3596066Y6966516D01*
X3597713Y6926709D01*
X3595834Y6882839D01*
X3590216Y6839856D01*
X3581001Y6797946D01*
X3568326Y6757298D01*
X3552333Y6718099D01*
X3533160Y6680538D01*
X3510949Y6644801D01*
X3485838Y6611078D01*
X3457968Y6579555D01*
X3427478Y6550421D01*
X3394508Y6523863D01*
X3359199Y6500070D01*
X3321689Y6479228D01*
X3282119Y6461526D01*
X3240629Y6447152D01*
X6488493Y6447152D01*
X6488493Y7212997D01*
X6482959Y7307808D01*
X6475286Y7401205D01*
X6465522Y7493081D01*
X6453719Y7583334D01*
X6439925Y7671857D01*
X6424192Y7758547D01*
X6406568Y7843298D01*
X6387105Y7926007D01*
X6365851Y8006569D01*
X6342857Y8084879D01*
X6318173Y8160833D01*
X6291849Y8234325D01*
X6263934Y8305252D01*
X6234479Y8373509D01*
X6203534Y8438992D01*
X6171148Y8501594D01*
X6137372Y8561213D01*
X6102255Y8617744D01*
X6065848Y8671082D01*
X6028201Y8721122D01*
X5989363Y8767759D01*
X5949384Y8810890D01*
X5908315Y8850410D01*
X5866205Y8886214D01*
X5823104Y8918197D01*
X5779062Y8946255D01*
X5734130Y8970284D01*
X5688357Y8990178D01*
X5641793Y9005834D01*
X5594488Y9017146D01*
X5546493Y9024011D01*
X5497856Y9026322D01*
X4497917Y9026322D01*
X4497917Y9026322D01*
G37*
X4497917Y9026322D02*
X4449305Y9024023D01*
X4401075Y9017194D01*
X4353302Y9005939D01*
X4306060Y8990362D01*
X4259423Y8970567D01*
X4213465Y8946660D01*
X4168261Y8918743D01*
X4123884Y8886922D01*
X4080409Y8851300D01*
X4037910Y8811982D01*
X3996461Y8769072D01*
X3956137Y8722674D01*
X3917011Y8672893D01*
X3879158Y8619832D01*
X3842652Y8563597D01*
X3807568Y8504290D01*
X3773979Y8442017D01*
X3741959Y8376882D01*
X3711583Y8308988D01*
X3682925Y8238441D01*
X3656060Y8165344D01*
X3631061Y8089802D01*
X3608002Y8011918D01*
X3586958Y7931798D01*
X3568004Y7849545D01*
X3551212Y7765263D01*
X3536658Y7679058D01*
X3524415Y7591032D01*
X3514558Y7501291D01*
X3507162Y7409938D01*
X3502299Y7317078D01*
X3500045Y7222815D01*
X3522406Y7189830D01*
X3541983Y7155341D01*
X3558718Y7119525D01*
X3572553Y7082558D01*
X3583428Y7044617D01*
X3591285Y7005878D01*
X3596066Y6966516D01*
X3597713Y6926709D01*
X3595834Y6882839D01*
X3590216Y6839856D01*
X3581001Y6797946D01*
X3568326Y6757298D01*
X3552333Y6718099D01*
X3533160Y6680538D01*
X3510949Y6644801D01*
X3485838Y6611078D01*
X3457968Y6579555D01*
X3427478Y6550421D01*
X3394508Y6523863D01*
X3359199Y6500070D01*
X3321689Y6479228D01*
X3282119Y6461526D01*
X3240629Y6447152D01*
X6488493Y6447152D01*
X6488493Y7212997D01*
X6482959Y7307808D01*
X6475286Y7401205D01*
X6465522Y7493081D01*
X6453719Y7583334D01*
X6439925Y7671857D01*
X6424192Y7758547D01*
X6406568Y7843298D01*
X6387105Y7926007D01*
X6365851Y8006569D01*
X6342857Y8084879D01*
X6318173Y8160833D01*
X6291849Y8234325D01*
X6263934Y8305252D01*
X6234479Y8373509D01*
X6203534Y8438992D01*
X6171148Y8501594D01*
X6137372Y8561213D01*
X6102255Y8617744D01*
X6065848Y8671082D01*
X6028201Y8721122D01*
X5989363Y8767759D01*
X5949384Y8810890D01*
X5908315Y8850410D01*
X5866205Y8886214D01*
X5823104Y8918197D01*
X5779062Y8946255D01*
X5734130Y8970284D01*
X5688357Y8990178D01*
X5641793Y9005834D01*
X5594488Y9017146D01*
X5546493Y9024011D01*
X5497856Y9026322D01*
X4497917Y9026322D01*
G36*
X-5497856Y9026322D02*
X-5546492Y9024011D01*
X-5594488Y9017147D01*
X-5641793Y9005834D01*
X-5688357Y8990179D01*
X-5734130Y8970284D01*
X-5779062Y8946256D01*
X-5823104Y8918198D01*
X-5866204Y8886214D01*
X-5908314Y8850411D01*
X-5949384Y8810891D01*
X-5989362Y8767760D01*
X-6028200Y8721122D01*
X-6065848Y8671082D01*
X-6102255Y8617744D01*
X-6137372Y8561214D01*
X-6171148Y8501595D01*
X-6203533Y8438992D01*
X-6234479Y8373510D01*
X-6263934Y8305253D01*
X-6291848Y8234326D01*
X-6318173Y8160833D01*
X-6342857Y8084879D01*
X-6365851Y8006569D01*
X-6387104Y7926008D01*
X-6406568Y7843299D01*
X-6424192Y7758547D01*
X-6439925Y7671857D01*
X-6453719Y7583334D01*
X-6465522Y7493081D01*
X-6475286Y7401205D01*
X-6482959Y7307808D01*
X-6488493Y7212997D01*
X-6488493Y6447152D01*
X-3240629Y6447152D01*
X-3282120Y6461526D01*
X-3321690Y6479228D01*
X-3359200Y6500070D01*
X-3394509Y6523864D01*
X-3427479Y6550421D01*
X-3457969Y6579555D01*
X-3485839Y6611078D01*
X-3510950Y6644801D01*
X-3533161Y6680538D01*
X-3552334Y6718099D01*
X-3568327Y6757298D01*
X-3581001Y6797946D01*
X-3590217Y6839856D01*
X-3595834Y6882839D01*
X-3597713Y6926709D01*
X-3596065Y6966516D01*
X-3591283Y7005877D01*
X-3583426Y7044617D01*
X-3572550Y7082558D01*
X-3558716Y7119524D01*
X-3541982Y7155340D01*
X-3522405Y7189829D01*
X-3500045Y7222815D01*
X-3502299Y7317078D01*
X-3507162Y7409938D01*
X-3514559Y7501291D01*
X-3524416Y7591032D01*
X-3536658Y7679058D01*
X-3551212Y7765263D01*
X-3568004Y7849545D01*
X-3586959Y7931798D01*
X-3608002Y8011918D01*
X-3631061Y8089802D01*
X-3656060Y8165344D01*
X-3682926Y8238441D01*
X-3711584Y8308989D01*
X-3741959Y8376882D01*
X-3773979Y8442018D01*
X-3807568Y8504291D01*
X-3842653Y8563597D01*
X-3879159Y8619833D01*
X-3917011Y8672894D01*
X-3956137Y8722675D01*
X-3996461Y8769073D01*
X-4037910Y8811983D01*
X-4080409Y8851301D01*
X-4123884Y8886922D01*
X-4168261Y8918744D01*
X-4213465Y8946660D01*
X-4259423Y8970568D01*
X-4306060Y8990362D01*
X-4353302Y9005939D01*
X-4401075Y9017194D01*
X-4449305Y9024023D01*
X-4497917Y9026322D01*
X-5497856Y9026322D01*
X-5497856Y9026322D01*
G37*
X-5497856Y9026322D02*
X-5546492Y9024011D01*
X-5594488Y9017147D01*
X-5641793Y9005834D01*
X-5688357Y8990179D01*
X-5734130Y8970284D01*
X-5779062Y8946256D01*
X-5823104Y8918198D01*
X-5866204Y8886214D01*
X-5908314Y8850411D01*
X-5949384Y8810891D01*
X-5989362Y8767760D01*
X-6028200Y8721122D01*
X-6065848Y8671082D01*
X-6102255Y8617744D01*
X-6137372Y8561214D01*
X-6171148Y8501595D01*
X-6203533Y8438992D01*
X-6234479Y8373510D01*
X-6263934Y8305253D01*
X-6291848Y8234326D01*
X-6318173Y8160833D01*
X-6342857Y8084879D01*
X-6365851Y8006569D01*
X-6387104Y7926008D01*
X-6406568Y7843299D01*
X-6424192Y7758547D01*
X-6439925Y7671857D01*
X-6453719Y7583334D01*
X-6465522Y7493081D01*
X-6475286Y7401205D01*
X-6482959Y7307808D01*
X-6488493Y7212997D01*
X-6488493Y6447152D01*
X-3240629Y6447152D01*
X-3282120Y6461526D01*
X-3321690Y6479228D01*
X-3359200Y6500070D01*
X-3394509Y6523864D01*
X-3427479Y6550421D01*
X-3457969Y6579555D01*
X-3485839Y6611078D01*
X-3510950Y6644801D01*
X-3533161Y6680538D01*
X-3552334Y6718099D01*
X-3568327Y6757298D01*
X-3581001Y6797946D01*
X-3590217Y6839856D01*
X-3595834Y6882839D01*
X-3597713Y6926709D01*
X-3596065Y6966516D01*
X-3591283Y7005877D01*
X-3583426Y7044617D01*
X-3572550Y7082558D01*
X-3558716Y7119524D01*
X-3541982Y7155340D01*
X-3522405Y7189829D01*
X-3500045Y7222815D01*
X-3502299Y7317078D01*
X-3507162Y7409938D01*
X-3514559Y7501291D01*
X-3524416Y7591032D01*
X-3536658Y7679058D01*
X-3551212Y7765263D01*
X-3568004Y7849545D01*
X-3586959Y7931798D01*
X-3608002Y8011918D01*
X-3631061Y8089802D01*
X-3656060Y8165344D01*
X-3682926Y8238441D01*
X-3711584Y8308989D01*
X-3741959Y8376882D01*
X-3773979Y8442018D01*
X-3807568Y8504291D01*
X-3842653Y8563597D01*
X-3879159Y8619833D01*
X-3917011Y8672894D01*
X-3956137Y8722675D01*
X-3996461Y8769073D01*
X-4037910Y8811983D01*
X-4080409Y8851301D01*
X-4123884Y8886922D01*
X-4168261Y8918744D01*
X-4213465Y8946660D01*
X-4259423Y8970568D01*
X-4306060Y8990362D01*
X-4353302Y9005939D01*
X-4401075Y9017194D01*
X-4449305Y9024023D01*
X-4497917Y9026322D01*
X-5497856Y9026322D01*
G36*
X2845046Y1059368D02*
X1009499Y8D01*
X2845046Y-1059888D01*
X2845046Y1059368D01*
X2845046Y1059368D01*
G37*
X2845046Y1059368D02*
X1009499Y8D01*
X2845046Y-1059888D01*
X2845046Y1059368D01*
G36*
X-2845046Y1059368D02*
X-2845046Y-1059888D01*
X-1009499Y8D01*
X-2845046Y1059368D01*
X-2845046Y1059368D01*
G37*
X-2845046Y1059368D02*
X-2845046Y-1059888D01*
X-1009499Y8D01*
X-2845046Y1059368D01*
G36*
X-809770Y6447188D02*
X-809770Y-6447188D01*
X809770Y-6447188D01*
X809770Y6447188D01*
X-809770Y6447188D01*
X-809770Y6447188D01*
G37*
X-809770Y6447188D02*
X-809770Y-6447188D01*
X809770Y-6447188D01*
X809770Y6447188D01*
X-809770Y6447188D01*
M02*
