G04 #@! TF.GenerationSoftware,KiCad,Pcbnew,5.0.2+dfsg1-1*
G04 #@! TF.CreationDate,2021-12-14T01:35:29+01:00*
G04 #@! TF.ProjectId,test_a,74657374-5f61-42e6-9b69-6361645f7063,rev?*
G04 #@! TF.SameCoordinates,Original*
G04 #@! TF.FileFunction,Profile,NP*
%FSLAX46Y46*%
G04 Gerber Fmt 4.6, Leading zero omitted, Abs format (unit mm)*
G04 Created by KiCad (PCBNEW 5.0.2+dfsg1-1) date Tue 14 Dec 2021 01:35:29 AM CET*
%MOMM*%
%LPD*%
G01*
G04 APERTURE LIST*
%ADD10C,0.141421*%
G04 APERTURE END LIST*
D10*
X-4497918Y9026358D02*
X-5497856Y9026356D01*
X-4449306Y9024058D02*
X-4497918Y9026358D01*
X-4401076Y9017229D02*
X-4449306Y9024058D01*
X-4353303Y9005974D02*
X-4401076Y9017229D01*
X-4306061Y8990397D02*
X-4353303Y9005974D01*
X-4259424Y8970603D02*
X-4306061Y8990397D01*
X-4213466Y8946695D02*
X-4259424Y8970603D01*
X-4168261Y8918779D02*
X-4213466Y8946695D01*
X-4123885Y8886958D02*
X-4168261Y8918779D01*
X-4080410Y8851336D02*
X-4123885Y8886958D01*
X-4037911Y8812018D02*
X-4080410Y8851336D01*
X-3996462Y8769108D02*
X-4037911Y8812018D01*
X-3956138Y8722710D02*
X-3996462Y8769108D01*
X-3917012Y8672929D02*
X-3956138Y8722710D01*
X-3879159Y8619869D02*
X-3917012Y8672929D01*
X-3842653Y8563633D02*
X-3879159Y8619869D01*
X-3807569Y8504326D02*
X-3842653Y8563633D01*
X-3773979Y8442053D02*
X-3807569Y8504326D01*
X-3741960Y8376918D02*
X-3773979Y8442053D01*
X-3711584Y8309025D02*
X-3741960Y8376918D01*
X-3682926Y8238477D02*
X-3711584Y8309025D01*
X-3656061Y8165380D02*
X-3682926Y8238477D01*
X-3631062Y8089838D02*
X-3656061Y8165380D01*
X-3608003Y8011955D02*
X-3631062Y8089838D01*
X-3586959Y7931834D02*
X-3608003Y8011955D01*
X-3568005Y7849581D02*
X-3586959Y7931834D01*
X-3551213Y7765300D02*
X-3568005Y7849581D01*
X-3536659Y7679094D02*
X-3551213Y7765300D01*
X-3524416Y7591069D02*
X-3536659Y7679094D01*
X-3514559Y7501327D02*
X-3524416Y7591069D01*
X-3507163Y7409975D02*
X-3514559Y7501327D01*
X-3502300Y7317114D02*
X-3507163Y7409975D01*
X-3500046Y7222851D02*
X-3502300Y7317114D01*
X-3522406Y7189865D02*
X-3500046Y7222851D01*
X-3541982Y7155376D02*
X-3522406Y7189865D01*
X-3558717Y7119561D02*
X-3541982Y7155376D01*
X-3572551Y7082594D02*
X-3558717Y7119561D01*
X-3583426Y7044653D02*
X-3572551Y7082594D01*
X-3591284Y7005914D02*
X-3583426Y7044653D01*
X-3596066Y6966553D02*
X-3591284Y7005914D01*
X-3597714Y6926745D02*
X-3596066Y6966553D01*
X-3595835Y6882876D02*
X-3597714Y6926745D01*
X-3590218Y6839892D02*
X-3595835Y6882876D01*
X-3581002Y6797982D02*
X-3590218Y6839892D01*
X-3568328Y6757334D02*
X-3581002Y6797982D01*
X-3552334Y6718135D02*
X-3568328Y6757334D01*
X-3533162Y6680574D02*
X-3552334Y6718135D01*
X-3510951Y6644838D02*
X-3533162Y6680574D01*
X-3485840Y6611115D02*
X-3510951Y6644838D01*
X-3457969Y6579592D02*
X-3485840Y6611115D01*
X-3427480Y6550458D02*
X-3457969Y6579592D01*
X-3394510Y6523900D02*
X-3427480Y6550458D01*
X-3359200Y6500106D02*
X-3394510Y6523900D01*
X-3321690Y6479265D02*
X-3359200Y6500106D01*
X-3282120Y6461563D02*
X-3321690Y6479265D01*
X-3240630Y6447188D02*
X-3282120Y6461563D01*
X3240630Y6447188D02*
X-3240630Y6447188D01*
X3282120Y6461563D02*
X3240630Y6447188D01*
X3321690Y6479265D02*
X3282120Y6461563D01*
X3359200Y6500106D02*
X3321690Y6479265D01*
X3394510Y6523900D02*
X3359200Y6500106D01*
X3427479Y6550458D02*
X3394510Y6523900D01*
X3457969Y6579592D02*
X3427479Y6550458D01*
X3485839Y6611115D02*
X3457969Y6579592D01*
X3510950Y6644838D02*
X3485839Y6611115D01*
X3533162Y6680574D02*
X3510950Y6644838D01*
X3552334Y6718135D02*
X3533162Y6680574D01*
X3568327Y6757334D02*
X3552334Y6718135D01*
X3581002Y6797982D02*
X3568327Y6757334D01*
X3590218Y6839892D02*
X3581002Y6797982D01*
X3595835Y6882876D02*
X3590218Y6839892D01*
X3597714Y6926745D02*
X3595835Y6882876D01*
X3596067Y6966553D02*
X3597714Y6926745D01*
X3591286Y7005914D02*
X3596067Y6966553D01*
X3583428Y7044654D02*
X3591286Y7005914D01*
X3572553Y7082595D02*
X3583428Y7044654D01*
X3558718Y7119561D02*
X3572553Y7082595D01*
X3541983Y7155377D02*
X3558718Y7119561D01*
X3522405Y7189866D02*
X3541983Y7155377D01*
X3500044Y7222851D02*
X3522405Y7189866D01*
X3502298Y7317114D02*
X3500044Y7222851D01*
X3507161Y7409974D02*
X3502298Y7317114D01*
X3514558Y7501327D02*
X3507161Y7409974D01*
X3524414Y7591069D02*
X3514558Y7501327D01*
X3536657Y7679094D02*
X3524414Y7591069D01*
X3551211Y7765300D02*
X3536657Y7679094D01*
X3568003Y7849581D02*
X3551211Y7765300D01*
X3586957Y7931834D02*
X3568003Y7849581D01*
X3608001Y8011955D02*
X3586957Y7931834D01*
X3631060Y8089838D02*
X3608001Y8011955D01*
X3656059Y8165380D02*
X3631060Y8089838D01*
X3682924Y8238477D02*
X3656059Y8165380D01*
X3711582Y8309024D02*
X3682924Y8238477D01*
X3741958Y8376918D02*
X3711582Y8309024D01*
X3773978Y8442053D02*
X3741958Y8376918D01*
X3807567Y8504326D02*
X3773978Y8442053D01*
X3842651Y8563633D02*
X3807567Y8504326D01*
X3879157Y8619868D02*
X3842651Y8563633D01*
X3917010Y8672929D02*
X3879157Y8619868D01*
X3956136Y8722710D02*
X3917010Y8672929D01*
X3996460Y8769108D02*
X3956136Y8722710D01*
X4037909Y8812018D02*
X3996460Y8769108D01*
X4080408Y8851336D02*
X4037909Y8812018D01*
X4123883Y8886957D02*
X4080408Y8851336D01*
X4168260Y8918778D02*
X4123883Y8886957D01*
X4213464Y8946695D02*
X4168260Y8918778D01*
X4259422Y8970603D02*
X4213464Y8946695D01*
X4306059Y8990397D02*
X4259422Y8970603D01*
X4353301Y9005974D02*
X4306059Y8990397D01*
X4401074Y9017229D02*
X4353301Y9005974D01*
X4449304Y9024058D02*
X4401074Y9017229D01*
X4497916Y9026358D02*
X4449304Y9024058D01*
X5497855Y9026358D02*
X4497916Y9026358D01*
X5546492Y9024046D02*
X5497855Y9026358D01*
X5594487Y9017181D02*
X5546492Y9024046D01*
X5641792Y9005869D02*
X5594487Y9017181D01*
X5688356Y8990214D02*
X5641792Y9005869D01*
X5734129Y8970319D02*
X5688356Y8990214D01*
X5779061Y8946291D02*
X5734129Y8970319D01*
X5823103Y8918232D02*
X5779061Y8946291D01*
X5866203Y8886249D02*
X5823103Y8918232D01*
X5908314Y8850445D02*
X5866203Y8886249D01*
X5949383Y8810925D02*
X5908314Y8850445D01*
X5989362Y8767794D02*
X5949383Y8810925D01*
X6028200Y8721157D02*
X5989362Y8767794D01*
X6065847Y8671117D02*
X6028200Y8721157D01*
X6102254Y8617779D02*
X6065847Y8671117D01*
X6137371Y8561248D02*
X6102254Y8617779D01*
X6171147Y8501629D02*
X6137371Y8561248D01*
X6203533Y8439026D02*
X6171147Y8501629D01*
X6234478Y8373544D02*
X6203533Y8439026D01*
X6263933Y8305287D02*
X6234478Y8373544D01*
X6291847Y8234360D02*
X6263933Y8305287D01*
X6318172Y8160868D02*
X6291847Y8234360D01*
X6342856Y8084914D02*
X6318172Y8160868D01*
X6365850Y8006604D02*
X6342856Y8084914D01*
X6387104Y7926042D02*
X6365850Y8006604D01*
X6406567Y7843333D02*
X6387104Y7926042D01*
X6424191Y7758582D02*
X6406567Y7843333D01*
X6439924Y7671892D02*
X6424191Y7758582D01*
X6453718Y7583368D02*
X6439924Y7671892D01*
X6465521Y7493116D02*
X6453718Y7583368D01*
X6475285Y7401240D02*
X6465521Y7493116D01*
X6482958Y7307843D02*
X6475285Y7401240D01*
X6488492Y7213032D02*
X6482958Y7307843D01*
X6488492Y3514120D02*
X6488492Y7213032D01*
X6467740Y3481928D02*
X6488492Y3514120D01*
X6449588Y3448393D02*
X6467740Y3481928D01*
X6434085Y3413672D02*
X6449588Y3448393D01*
X6421282Y3377924D02*
X6434085Y3413672D01*
X6411228Y3341308D02*
X6421282Y3377924D01*
X6403973Y3303981D02*
X6411228Y3341308D01*
X6399568Y3266103D02*
X6403973Y3303981D01*
X6398062Y3227832D02*
X6399568Y3266103D01*
X6400084Y3182325D02*
X6398062Y3227832D01*
X6406075Y3137960D02*
X6400084Y3182325D01*
X6415858Y3094914D02*
X6406075Y3137960D01*
X6429258Y3053364D02*
X6415858Y3094914D01*
X6446098Y3013487D02*
X6429258Y3053364D01*
X6466200Y2975458D02*
X6446098Y3013487D01*
X6489390Y2939456D02*
X6466200Y2975458D01*
X6515490Y2905655D02*
X6489390Y2939456D01*
X6544325Y2874233D02*
X6515490Y2905655D01*
X6575717Y2845366D02*
X6544325Y2874233D01*
X6609491Y2819231D02*
X6575717Y2845366D01*
X6645470Y2796004D02*
X6609491Y2819231D01*
X6683478Y2775862D02*
X6645470Y2796004D01*
X6723337Y2758981D02*
X6683478Y2775862D01*
X6764873Y2745538D02*
X6723337Y2758981D01*
X6807908Y2735710D02*
X6764873Y2745538D01*
X6852267Y2729673D02*
X6807908Y2735710D01*
X6897772Y2727604D02*
X6852267Y2729673D01*
X8000031Y2727604D02*
X6897772Y2727604D01*
X8000031Y-4747269D02*
X8000031Y2727604D01*
X6897772Y-4747269D02*
X8000031Y-4747269D01*
X6852267Y-4749338D02*
X6897772Y-4747269D01*
X6807908Y-4755375D02*
X6852267Y-4749338D01*
X6764873Y-4765203D02*
X6807908Y-4755375D01*
X6723337Y-4778646D02*
X6764873Y-4765203D01*
X6683478Y-4795527D02*
X6723337Y-4778646D01*
X6645470Y-4815669D02*
X6683478Y-4795527D01*
X6609491Y-4838896D02*
X6645470Y-4815669D01*
X6575717Y-4865031D02*
X6609491Y-4838896D01*
X6544325Y-4893899D02*
X6575717Y-4865031D01*
X6515490Y-4925321D02*
X6544325Y-4893899D01*
X6489390Y-4959122D02*
X6515490Y-4925321D01*
X6466200Y-4995125D02*
X6489390Y-4959122D01*
X6446098Y-5033153D02*
X6466200Y-4995125D01*
X6429258Y-5073031D02*
X6446098Y-5033153D01*
X6415858Y-5114581D02*
X6429258Y-5073031D01*
X6406075Y-5157626D02*
X6415858Y-5114581D01*
X6400084Y-5201991D02*
X6406075Y-5157626D01*
X6398062Y-5247499D02*
X6400084Y-5201991D01*
X6399566Y-5285770D02*
X6398062Y-5247499D01*
X6403971Y-5323650D02*
X6399566Y-5285770D01*
X6411225Y-5360978D02*
X6403971Y-5323650D01*
X6421279Y-5397596D02*
X6411225Y-5360978D01*
X6434083Y-5433345D02*
X6421279Y-5397596D01*
X6449587Y-5468066D02*
X6434083Y-5433345D01*
X6467740Y-5501600D02*
X6449587Y-5468066D01*
X6488492Y-5533789D02*
X6467740Y-5501600D01*
X6482958Y-5626019D02*
X6488492Y-5533789D01*
X6475285Y-5711890D02*
X6482958Y-5626019D01*
X6465521Y-5791628D02*
X6475285Y-5711890D01*
X6453718Y-5865457D02*
X6465521Y-5791628D01*
X6439924Y-5933602D02*
X6453718Y-5865457D01*
X6424191Y-5996289D02*
X6439924Y-5933602D01*
X6406567Y-6053741D02*
X6424191Y-5996289D01*
X6387104Y-6106186D02*
X6406567Y-6053741D01*
X6365850Y-6153846D02*
X6387104Y-6106186D01*
X6342856Y-6196947D02*
X6365850Y-6153846D01*
X6318172Y-6235715D02*
X6342856Y-6196947D01*
X6291847Y-6270374D02*
X6318172Y-6235715D01*
X6263933Y-6301150D02*
X6291847Y-6270374D01*
X6234478Y-6328266D02*
X6263933Y-6301150D01*
X6203533Y-6351949D02*
X6234478Y-6328266D01*
X6171147Y-6372422D02*
X6203533Y-6351949D01*
X6137371Y-6389912D02*
X6171147Y-6372422D01*
X6102254Y-6404643D02*
X6137371Y-6389912D01*
X6065847Y-6416840D02*
X6102254Y-6404643D01*
X6028200Y-6426728D02*
X6065847Y-6416840D01*
X5989362Y-6434533D02*
X6028200Y-6426728D01*
X5949383Y-6440478D02*
X5989362Y-6434533D01*
X5908314Y-6444790D02*
X5949383Y-6440478D01*
X5866203Y-6447692D02*
X5908314Y-6444790D01*
X5823103Y-6449411D02*
X5866203Y-6447692D01*
X5779061Y-6450170D02*
X5823103Y-6449411D01*
X5734129Y-6450196D02*
X5779061Y-6450170D01*
X5688356Y-6449712D02*
X5734129Y-6450196D01*
X5641792Y-6448945D02*
X5688356Y-6449712D01*
X5594487Y-6448119D02*
X5641792Y-6448945D01*
X5546492Y-6447458D02*
X5594487Y-6448119D01*
X5497855Y-6447189D02*
X5546492Y-6447458D01*
X-5497856Y-6447189D02*
X5497855Y-6447189D01*
X-5546493Y-6447458D02*
X-5497856Y-6447189D01*
X-5594489Y-6448119D02*
X-5546493Y-6447458D01*
X-5641794Y-6448945D02*
X-5594489Y-6448119D01*
X-5688358Y-6449712D02*
X-5641794Y-6448945D01*
X-5734131Y-6450196D02*
X-5688358Y-6449712D01*
X-5779063Y-6450170D02*
X-5734131Y-6450196D01*
X-5823104Y-6449411D02*
X-5779063Y-6450170D01*
X-5866205Y-6447692D02*
X-5823104Y-6449411D01*
X-5908315Y-6444790D02*
X-5866205Y-6447692D01*
X-5949384Y-6440478D02*
X-5908315Y-6444790D01*
X-5989363Y-6434533D02*
X-5949384Y-6440478D01*
X-6028201Y-6426728D02*
X-5989363Y-6434533D01*
X-6065849Y-6416840D02*
X-6028201Y-6426728D01*
X-6102256Y-6404643D02*
X-6065849Y-6416840D01*
X-6137373Y-6389912D02*
X-6102256Y-6404643D01*
X-6171149Y-6372422D02*
X-6137373Y-6389912D01*
X-6203534Y-6351949D02*
X-6171149Y-6372422D01*
X-6234480Y-6328266D02*
X-6203534Y-6351949D01*
X-6263935Y-6301150D02*
X-6234480Y-6328266D01*
X-6291849Y-6270374D02*
X-6263935Y-6301150D01*
X-6318174Y-6235715D02*
X-6291849Y-6270374D01*
X-6342858Y-6196947D02*
X-6318174Y-6235715D01*
X-6365852Y-6153846D02*
X-6342858Y-6196947D01*
X-6387105Y-6106186D02*
X-6365852Y-6153846D01*
X-6406569Y-6053741D02*
X-6387105Y-6106186D01*
X-6424193Y-5996289D02*
X-6406569Y-6053741D01*
X-6439926Y-5933602D02*
X-6424193Y-5996289D01*
X-6453719Y-5865457D02*
X-6439926Y-5933602D01*
X-6465523Y-5791628D02*
X-6453719Y-5865457D01*
X-6475286Y-5711890D02*
X-6465523Y-5791628D01*
X-6482960Y-5626019D02*
X-6475286Y-5711890D01*
X-6488494Y-5533789D02*
X-6482960Y-5626019D01*
X-6467742Y-5501597D02*
X-6488494Y-5533789D01*
X-6449589Y-5468062D02*
X-6467742Y-5501597D01*
X-6434086Y-5433341D02*
X-6449589Y-5468062D01*
X-6421282Y-5397592D02*
X-6434086Y-5433341D01*
X-6411227Y-5360975D02*
X-6421282Y-5397592D01*
X-6403972Y-5323648D02*
X-6411227Y-5360975D01*
X-6399566Y-5285770D02*
X-6403972Y-5323648D01*
X-6398060Y-5247499D02*
X-6399566Y-5285770D01*
X-6400082Y-5201991D02*
X-6398060Y-5247499D01*
X-6406073Y-5157626D02*
X-6400082Y-5201991D01*
X-6415857Y-5114581D02*
X-6406073Y-5157626D01*
X-6429256Y-5073031D02*
X-6415857Y-5114581D01*
X-6446096Y-5033153D02*
X-6429256Y-5073031D01*
X-6466199Y-4995125D02*
X-6446096Y-5033153D01*
X-6489388Y-4959122D02*
X-6466199Y-4995125D01*
X-6515489Y-4925321D02*
X-6489388Y-4959122D01*
X-6544323Y-4893899D02*
X-6515489Y-4925321D01*
X-6575716Y-4865031D02*
X-6544323Y-4893899D01*
X-6609490Y-4838896D02*
X-6575716Y-4865031D01*
X-6645469Y-4815669D02*
X-6609490Y-4838896D01*
X-6683476Y-4795527D02*
X-6645469Y-4815669D01*
X-6723336Y-4778646D02*
X-6683476Y-4795527D01*
X-6764872Y-4765203D02*
X-6723336Y-4778646D01*
X-6807907Y-4755375D02*
X-6764872Y-4765203D01*
X-6852266Y-4749338D02*
X-6807907Y-4755375D01*
X-6897771Y-4747269D02*
X-6852266Y-4749338D01*
X-8000029Y-4747269D02*
X-6897771Y-4747269D01*
X-8000029Y2727604D02*
X-8000029Y-4747269D01*
X-6897771Y2727604D02*
X-8000029Y2727604D01*
X-6852266Y2729673D02*
X-6897771Y2727604D01*
X-6807907Y2735710D02*
X-6852266Y2729673D01*
X-6764872Y2745538D02*
X-6807907Y2735710D01*
X-6723336Y2758981D02*
X-6764872Y2745538D01*
X-6683476Y2775862D02*
X-6723336Y2758981D01*
X-6645469Y2796004D02*
X-6683476Y2775862D01*
X-6609490Y2819231D02*
X-6645469Y2796004D01*
X-6575716Y2845366D02*
X-6609490Y2819231D01*
X-6544323Y2874233D02*
X-6575716Y2845366D01*
X-6515489Y2905655D02*
X-6544323Y2874233D01*
X-6489388Y2939456D02*
X-6515489Y2905655D01*
X-6466199Y2975458D02*
X-6489388Y2939456D01*
X-6446096Y3013487D02*
X-6466199Y2975458D01*
X-6429256Y3053364D02*
X-6446096Y3013487D01*
X-6415856Y3094914D02*
X-6429256Y3053364D01*
X-6406073Y3137960D02*
X-6415856Y3094914D01*
X-6400082Y3182325D02*
X-6406073Y3137960D01*
X-6398060Y3227833D02*
X-6400082Y3182325D01*
X-6399566Y3266103D02*
X-6398060Y3227833D01*
X-6403972Y3303981D02*
X-6399566Y3266103D01*
X-6411227Y3341308D02*
X-6403972Y3303981D01*
X-6421281Y3377924D02*
X-6411227Y3341308D01*
X-6434085Y3413672D02*
X-6421281Y3377924D01*
X-6449589Y3448393D02*
X-6434085Y3413672D01*
X-6467742Y3481928D02*
X-6449589Y3448393D01*
X-6488494Y3514120D02*
X-6467742Y3481928D01*
X-6488494Y7213032D02*
X-6488494Y3514120D01*
X-6482960Y7307843D02*
X-6488494Y7213032D01*
X-6475286Y7401240D02*
X-6482960Y7307843D01*
X-6465523Y7493116D02*
X-6475286Y7401240D01*
X-6453719Y7583368D02*
X-6465523Y7493116D01*
X-6439926Y7671892D02*
X-6453719Y7583368D01*
X-6424192Y7758582D02*
X-6439926Y7671892D01*
X-6406569Y7843333D02*
X-6424192Y7758582D01*
X-6387105Y7926042D02*
X-6406569Y7843333D01*
X-6365851Y8006604D02*
X-6387105Y7926042D01*
X-6342857Y8084914D02*
X-6365851Y8006604D01*
X-6318173Y8160868D02*
X-6342857Y8084914D01*
X-6291849Y8234360D02*
X-6318173Y8160868D01*
X-6263934Y8305287D02*
X-6291849Y8234360D01*
X-6234479Y8373544D02*
X-6263934Y8305287D01*
X-6203534Y8439026D02*
X-6234479Y8373544D01*
X-6171148Y8501629D02*
X-6203534Y8439026D01*
X-6137372Y8561248D02*
X-6171148Y8501629D01*
X-6102256Y8617779D02*
X-6137372Y8561248D01*
X-6065849Y8671116D02*
X-6102256Y8617779D01*
X-6028201Y8721156D02*
X-6065849Y8671116D01*
X-5989363Y8767794D02*
X-6028201Y8721156D01*
X-5949384Y8810925D02*
X-5989363Y8767794D01*
X-5908315Y8850445D02*
X-5949384Y8810925D01*
X-5866205Y8886248D02*
X-5908315Y8850445D01*
X-5823104Y8918232D02*
X-5866205Y8886248D01*
X-5779063Y8946290D02*
X-5823104Y8918232D01*
X-5734130Y8970319D02*
X-5779063Y8946290D01*
X-5688357Y8990213D02*
X-5734130Y8970319D01*
X-5641793Y9005868D02*
X-5688357Y8990213D01*
X-5594489Y9017181D02*
X-5641793Y9005868D01*
X-5546493Y9024045D02*
X-5594489Y9017181D01*
X-5497856Y9026356D02*
X-5546493Y9024045D01*
M02*
